<svg width="112" height="105" viewBox="0 0 112 105" fill="none" xmlns="http://www.w3.org/2000/svg">
<path d="M112.004 99.1449L91.2871 78.7957C98.0129 70.9315 102.062 60.7908 102.062 49.7183V49.6999H93.9767V49.7183C93.9767 56.2048 92.2897 62.3042 89.3267 67.6167L71.1154 49.7275L99.9287 21.4242L106.589 0L84.8087 6.56722L55.9954 34.8705L27.1821 6.57089L5.39959 0L12.0584 21.4224L40.8717 49.7256L22.6604 67.6149C19.6956 62.3006 18.0086 56.2048 18.0086 49.7165V49.6981H9.92312V49.7165C9.92312 60.7945 13.9779 70.9407 20.7056 78.803L0 99.1449L5.71765 104.762L26.4325 84.4145C34.0827 90.7029 43.8422 94.6029 54.5167 94.9349V86.9919C48.4717 86.7662 42.7894 85.1483 37.7878 82.4645L55.9917 64.5826L74.1955 82.4645C69.1959 85.1483 63.5135 86.7662 57.4685 86.9919V94.9349C68.1487 94.6047 77.91 90.7011 85.5602 84.4072L106.281 104.762L112 99.1449H112.002H112.004ZM86.6911 9.64355L97.6297 6.34526L62.2915 41.058L58.5027 37.336L86.6929 9.64355H86.6911ZM43.3604 52.2058L47.1381 55.9406L27.9075 74.8297C26.6948 73.5236 25.5788 72.1331 24.5632 70.6674L43.3604 52.2039V52.2058ZM15.1888 19.5769L11.8352 8.78871L81.5723 77.2915C80.2331 78.4893 78.8084 79.5937 77.3055 80.5971L15.1888 19.5769Z" fill="#BD482D"/>
</svg>
