<svg width="105" height="105" viewBox="0 0 105 105" fill="none" xmlns="http://www.w3.org/2000/svg">
<path d="M52.5005 4.73279C78.8815 4.73297 100.267 26.1194 100.267 52.5004C100.267 78.8812 78.8813 100.267 52.5005 100.267C26.1195 100.267 4.73309 78.8813 4.73291 52.5004C4.73291 26.1192 26.1194 4.73279 52.5005 4.73279Z" fill="#F9F7E7" stroke="#29100A" stroke-width="2"/>
<path d="M75.2614 82.5825H73.2717V84.5539H75.2614V82.5825Z" fill="black"/>
<path d="M75.2614 80.5901H73.2717V82.5825H75.2614V80.5901Z" fill="black"/>
<path d="M75.2614 78.6187H73.2717V80.5901H75.2614V78.6187Z" fill="black"/>
<path d="M75.2614 76.6264H73.2717V78.6187H75.2614V76.6264Z" fill="black"/>
<path d="M73.269 82.5825H71.295V84.5539H73.269V82.5825Z" fill="black"/>
<path d="M73.269 80.5901H71.295V82.5825H73.269V80.5901Z" fill="#EAD32D"/>
<path d="M73.269 78.6187H71.295V80.5901H73.269V78.6187Z" fill="#EAD32D"/>
<path d="M73.269 76.6264H71.295V78.6187H73.269V76.6264Z" fill="black"/>
<path d="M73.269 74.6366H71.295V76.6264H73.269V74.6366Z" fill="black"/>
<path d="M73.269 72.66H71.295V74.634H73.269V72.66Z" fill="black"/>
<path d="M71.2977 82.5825H69.3079V84.5539H71.2977V82.5825Z" fill="black"/>
<path d="M71.2977 80.5901H69.3079V82.5825H71.2977V80.5901Z" fill="#FFEF56"/>
<path d="M71.2977 78.6187H69.3079V80.5901H71.2977V78.6187Z" fill="#EAD32D"/>
<path d="M71.2977 76.6264H69.3079V78.6187H71.2977V76.6264Z" fill="#EAD32D"/>
<path d="M71.2977 74.6366H69.3079V76.6264H71.2977V74.6366Z" fill="#EAD32D"/>
<path d="M71.2977 72.66H69.3079V74.634H71.2977V72.66Z" fill="black"/>
<path d="M71.2977 70.6729H69.3079V72.6626H71.2977V70.6729Z" fill="black"/>
<path d="M71.2977 68.6989H69.3079V70.6702H71.2977V68.6989Z" fill="black"/>
<path d="M71.2977 66.7065H69.3079V68.6989H71.2977V66.7065Z" fill="black"/>
<path d="M71.2977 64.7351H69.3079V66.7065H71.2977V64.7351Z" fill="black"/>
<path d="M71.2977 62.7427H69.3079V64.7351H71.2977V62.7427Z" fill="black"/>
<path d="M71.2977 60.753H69.3079V62.7427H71.2977V60.753Z" fill="black"/>
<path d="M71.2977 58.779H69.3079V60.7504H71.2977V58.779Z" fill="black"/>
<path d="M71.2977 56.7866H69.3079V58.779H71.2977V56.7866Z" fill="black"/>
<path d="M71.2977 54.8126H69.3079V56.784H71.2977V54.8126Z" fill="black"/>
<path d="M71.2977 52.8202H69.3079V54.8126H71.2977V52.8202Z" fill="black"/>
<path d="M71.2977 50.8489H69.3079V52.8202H71.2977V50.8489Z" fill="black"/>
<path d="M71.2977 48.8565H69.3079V50.8489H71.2977V48.8565Z" fill="black"/>
<path d="M71.2977 46.8851H69.3079V48.8565H71.2977V46.8851Z" fill="black"/>
<path d="M71.2977 44.8927H69.3079V46.8851H71.2977V44.8927Z" fill="black"/>
<path d="M71.2977 42.9004H69.3079V44.8927H71.2977V42.9004Z" fill="black"/>
<path d="M71.2977 40.929H69.3079V42.9004H71.2977V40.929Z" fill="black"/>
<path d="M71.2977 38.9366H69.3079V40.929H71.2977V38.9366Z" fill="black"/>
<path d="M69.3053 82.5825H67.3339V84.5539H69.3053V82.5825Z" fill="black"/>
<path d="M69.3053 80.5901H67.3339V82.5825H69.3053V80.5901Z" fill="#FFEF56"/>
<path d="M69.3053 78.6187H67.3339V80.5901H69.3053V78.6187Z" fill="#FFEF56"/>
<path d="M69.3053 76.6264H67.3339V78.6187H69.3053V76.6264Z" fill="#EAD32D"/>
<path d="M69.3053 74.6366H67.3339V76.6264H69.3053V74.6366Z" fill="#EAD32D"/>
<path d="M69.3053 72.66H67.3339V74.634H69.3053V72.66Z" fill="#EAD32D"/>
<path d="M69.3053 70.6729H67.3339V72.6626H69.3053V70.6729Z" fill="#EAD32D"/>
<path d="M69.3053 68.6989H67.3339V70.6702H69.3053V68.6989Z" fill="#EAD32D"/>
<path d="M69.3053 66.7065H67.3339V68.6989H69.3053V66.7065Z" fill="black"/>
<path d="M69.3053 64.7351H67.3339V66.7065H69.3053V64.7351Z" fill="black"/>
<path d="M69.3053 62.7427H67.3339V64.7351H69.3053V62.7427Z" fill="black"/>
<path d="M69.3053 60.753H67.3339V62.7427H69.3053V60.753Z" fill="#FFEF56"/>
<path d="M69.3053 58.779H67.3339V60.7504H69.3053V58.779Z" fill="#FFEF56"/>
<path d="M69.3053 56.7866H67.3339V58.779H69.3053V56.7866Z" fill="#FFEF56"/>
<path d="M69.3053 54.8126H67.3339V56.784H69.3053V54.8126Z" fill="#FFEF56"/>
<path d="M69.3053 52.8202H67.3339V54.8126H69.3053V52.8202Z" fill="#FFEF56"/>
<path d="M69.3053 50.8489H67.3339V52.8202H69.3053V50.8489Z" fill="#FFEF56"/>
<path d="M69.3053 48.8565H67.3339V50.8489H69.3053V48.8565Z" fill="#FFEF56"/>
<path d="M69.3053 46.8851H67.3339V48.8565H69.3053V46.8851Z" fill="#EAD32D"/>
<path d="M69.3053 44.8927H67.3339V46.8851H69.3053V44.8927Z" fill="#EAD32D"/>
<path d="M69.3053 42.9004H67.3339V44.8927H69.3053V42.9004Z" fill="#EAD32D"/>
<path d="M69.3053 40.929H67.3339V42.9004H69.3053V40.929Z" fill="#EAD32D"/>
<path d="M69.3053 38.9366H67.3339V40.929H69.3053V38.9366Z" fill="black"/>
<path d="M69.3053 36.9652H67.3339V38.9366H69.3053V36.9652Z" fill="black"/>
<path d="M67.3339 82.5825H65.3415V84.5539H67.3339V82.5825Z" fill="black"/>
<path d="M67.3339 80.5901H65.3415V82.5825H67.3339V80.5901Z" fill="#FFEF56"/>
<path d="M67.3339 78.6187H65.3415V80.5901H67.3339V78.6187Z" fill="#FFEF56"/>
<path d="M67.3339 76.6264H65.3415V78.6187H67.3339V76.6264Z" fill="#FFEF56"/>
<path d="M67.3339 74.6366H65.3415V76.6264H67.3339V74.6366Z" fill="#FFEF56"/>
<path d="M67.3339 72.66H65.3415V74.634H67.3339V72.66Z" fill="#FFEF56"/>
<path d="M67.3339 70.6729H65.3415V72.6626H67.3339V70.6729Z" fill="#EAD32D"/>
<path d="M67.3339 68.6989H65.3415V70.6702H67.3339V68.6989Z" fill="black"/>
<path d="M67.3339 66.7065H65.3415V68.6989H67.3339V66.7065Z" fill="#00F3FF"/>
<path d="M67.3339 64.7351H65.3415V66.7065H67.3339V64.7351Z" fill="#2CF926"/>
<path d="M67.3339 62.7427H65.3415V64.7351H67.3339V62.7427Z" fill="#2CF926"/>
<path d="M67.3339 60.753H65.3415V62.7427H67.3339V60.753Z" fill="black"/>
<path d="M67.3339 58.779H65.3415V60.7504H67.3339V58.779Z" fill="#FFEF56"/>
<path d="M67.3339 56.7866H65.3415V58.779H67.3339V56.7866Z" fill="black"/>
<path d="M67.3339 54.8126H65.3415V56.784H67.3339V54.8126Z" fill="black"/>
<path d="M67.3339 52.8202H65.3415V54.8126H67.3339V52.8202Z" fill="black"/>
<path d="M67.3339 50.8489H65.3415V52.8202H67.3339V50.8489Z" fill="#FFEF56"/>
<path d="M67.3339 48.8565H65.3415V50.8489H67.3339V48.8565Z" fill="#FFEF56"/>
<path d="M67.3339 46.8851H65.3415V48.8565H67.3339V46.8851Z" fill="#FFEF56"/>
<path d="M67.3339 44.8927H65.3415V46.8851H67.3339V44.8927Z" fill="#FFEF56"/>
<path d="M67.3339 42.9004H65.3415V44.8927H67.3339V42.9004Z" fill="#FFEF56"/>
<path d="M67.3339 40.929H65.3415V42.9004H67.3339V40.929Z" fill="#EAD32D"/>
<path d="M67.3339 38.9366H65.3415V40.929H67.3339V38.9366Z" fill="#EAD32D"/>
<path d="M67.3339 36.9652H65.3415V38.9366H67.3339V36.9652Z" fill="black"/>
<path d="M67.3339 34.9729H65.3415V36.9652H67.3339V34.9729Z" fill="black"/>
<path d="M65.3415 82.5825H63.3702V84.5539H65.3415V82.5825Z" fill="black"/>
<path d="M65.3415 80.5901H63.3702V82.5825H65.3415V80.5901Z" fill="#FFEF56"/>
<path d="M65.3415 78.6187H63.3702V80.5901H65.3415V78.6187Z" fill="#FFEF56"/>
<path d="M65.3415 76.6264H63.3702V78.6187H65.3415V76.6264Z" fill="#FFEF56"/>
<path d="M65.3415 74.6366H63.3702V76.6264H65.3415V74.6366Z" fill="#FFEF56"/>
<path d="M65.3415 72.66H63.3702V74.634H65.3415V72.66Z" fill="#FFEF56"/>
<path d="M65.3415 70.6729H63.3702V72.6626H65.3415V70.6729Z" fill="#FFEF56"/>
<path d="M65.3415 68.6989H63.3702V70.6702H65.3415V68.6989Z" fill="black"/>
<path d="M65.3415 66.7065H63.3702V68.6989H65.3415V66.7065Z" fill="#2CF926"/>
<path d="M65.3415 64.7351H63.3702V66.7065H65.3415V64.7351Z" fill="#00F3FF"/>
<path d="M65.3415 62.7427H63.3702V64.7351H65.3415V62.7427Z" fill="#00F3FF"/>
<path d="M65.3415 60.753H63.3702V62.7427H65.3415V60.753Z" fill="#EFE4A3"/>
<path d="M65.3415 58.779H63.3702V60.7504H65.3415V58.779Z" fill="black"/>
<path d="M65.3415 56.7866H63.3702V58.779H65.3415V56.7866Z" fill="#F9C6AA"/>
<path d="M65.3415 54.8126H63.3702V56.784H65.3415V54.8126Z" fill="#F9C6AA"/>
<path d="M65.3415 52.8202H63.3702V54.8126H65.3415V52.8202Z" fill="#DDA487"/>
<path d="M65.3415 50.8489H63.3702V52.8202H65.3415V50.8489Z" fill="black"/>
<path d="M65.3415 48.8565H63.3702V50.8489H65.3415V48.8565Z" fill="#FFEF56"/>
<path d="M65.3415 46.8851H63.3702V48.8565H65.3415V46.8851Z" fill="#FFEF56"/>
<path d="M65.3415 44.8927H63.3702V46.8851H65.3415V44.8927Z" fill="#FFEF56"/>
<path d="M65.3415 42.9004H63.3702V44.8927H65.3415V42.9004Z" fill="#FFEF56"/>
<path d="M65.3415 40.929H63.3702V42.9004H65.3415V40.929Z" fill="#FFEF56"/>
<path d="M65.3415 38.9366H63.3702V40.929H65.3415V38.9366Z" fill="#EAD32D"/>
<path d="M65.3415 36.9652H63.3702V38.9366H65.3415V36.9652Z" fill="#EAD32D"/>
<path d="M65.3415 34.9729H63.3702V36.9652H65.3415V34.9729Z" fill="black"/>
<path d="M65.3415 33.0015H63.3702V34.9729H65.3415V33.0015Z" fill="black"/>
<path d="M63.3702 82.5825H61.3778V84.5539H63.3702V82.5825Z" fill="black"/>
<path d="M63.3702 80.5901H61.3778V82.5825H63.3702V80.5901Z" fill="#EAD32D"/>
<path d="M63.3702 78.6187H61.3778V80.5901H63.3702V78.6187Z" fill="#FFEF56"/>
<path d="M63.3702 76.6264H61.3778V78.6187H63.3702V76.6264Z" fill="#FFEF56"/>
<path d="M63.3702 74.6366H61.3778V76.6264H63.3702V74.6366Z" fill="#FFEF56"/>
<path d="M63.3702 72.66H61.3778V74.634H63.3702V72.66Z" fill="#FFEF56"/>
<path d="M63.3702 70.6729H61.3778V72.6626H63.3702V70.6729Z" fill="#FFEF56"/>
<path d="M63.3702 68.6989H61.3778V70.6702H63.3702V68.6989Z" fill="black"/>
<path d="M63.3702 66.7065H61.3778V68.6989H63.3702V66.7065Z" fill="#00F3FF"/>
<path d="M63.3702 64.7351H61.3778V66.7065H63.3702V64.7351Z" fill="#2CF926"/>
<path d="M63.3702 62.7427H61.3778V64.7351H63.3702V62.7427Z" fill="#2CF926"/>
<path d="M63.3702 60.753H61.3778V62.7427H63.3702V60.753Z" fill="#EFE4A3"/>
<path d="M63.3702 58.779H61.3778V60.7504H63.3702V58.779Z" fill="black"/>
<path d="M63.3702 56.7866H61.3778V58.779H63.3702V56.7866Z" fill="#DDA487"/>
<path d="M63.3702 54.8126H61.3778V56.784H63.3702V54.8126Z" fill="#F9C6AA"/>
<path d="M63.3702 52.8202H61.3778V54.8126H63.3702V52.8202Z" fill="#F9C6AA"/>
<path d="M63.3702 50.8489H61.3778V52.8202H63.3702V50.8489Z" fill="#DDA487"/>
<path d="M63.3702 48.8565H61.3778V50.8489H63.3702V48.8565Z" fill="black"/>
<path d="M63.3702 46.8851H61.3778V48.8565H63.3702V46.8851Z" fill="#FFEF56"/>
<path d="M63.3702 44.8927H61.3778V46.8851H63.3702V44.8927Z" fill="#FFEF56"/>
<path d="M63.3702 42.9004H61.3778V44.8927H63.3702V42.9004Z" fill="#FFEF56"/>
<path d="M63.3702 40.929H61.3778V42.9004H63.3702V40.929Z" fill="#FFEF56"/>
<path d="M63.3702 38.9366H61.3778V40.929H63.3702V38.9366Z" fill="#FFEF56"/>
<path d="M63.3702 36.9652H61.3778V38.9366H63.3702V36.9652Z" fill="#EAD32D"/>
<path d="M63.3702 34.9729H61.3778V36.9652H63.3702V34.9729Z" fill="#EAD32D"/>
<path d="M63.3702 33.0015H61.3778V34.9729H63.3702V33.0015Z" fill="black"/>
<path d="M63.3702 31.0091H61.3778V33.0015H63.3702V31.0091Z" fill="black"/>
<path d="M61.3778 82.5825H59.388V84.5539H61.3778V82.5825Z" fill="black"/>
<path d="M61.3778 80.5901H59.388V82.5825H61.3778V80.5901Z" fill="#EAD32D"/>
<path d="M61.3778 78.6187H59.388V80.5901H61.3778V78.6187Z" fill="#EAD32D"/>
<path d="M61.3778 76.6264H59.388V78.6187H61.3778V76.6264Z" fill="#FFEF56"/>
<path d="M61.3778 74.6366H59.388V76.6264H61.3778V74.6366Z" fill="#FFEF56"/>
<path d="M61.3778 72.66H59.388V74.634H61.3778V72.66Z" fill="#FFEF56"/>
<path d="M61.3778 70.6729H59.388V72.6626H61.3778V70.6729Z" fill="#FFEF56"/>
<path d="M61.3778 68.6989H59.388V70.6702H61.3778V68.6989Z" fill="black"/>
<path d="M61.3778 66.7065H59.388V68.6989H61.3778V66.7065Z" fill="#2CF926"/>
<path d="M61.3778 64.7351H59.388V66.7065H61.3778V64.7351Z" fill="#00F3FF"/>
<path d="M61.3778 62.7427H59.388V64.7351H61.3778V62.7427Z" fill="#00F3FF"/>
<path d="M61.3778 60.753H59.388V62.7427H61.3778V60.753Z" fill="#EFE4A3"/>
<path d="M61.3778 58.779H59.388V60.7504H61.3778V58.779Z" fill="black"/>
<path d="M61.3778 56.7866H59.388V58.779H61.3778V56.7866Z" fill="#DDA487"/>
<path d="M61.3778 54.8126H59.388V56.784H61.3778V54.8126Z" fill="#F9C6AA"/>
<path d="M61.3778 52.8202H59.388V54.8126H61.3778V52.8202Z" fill="#F9C6AA"/>
<path d="M61.3778 50.8489H59.388V52.8202H61.3778V50.8489Z" fill="black"/>
<path d="M61.3778 48.8565H59.388V50.8489H61.3778V48.8565Z" fill="#FFEF56"/>
<path d="M61.3778 46.8851H59.388V48.8565H61.3778V46.8851Z" fill="#FFEF56"/>
<path d="M61.3778 44.8927H59.388V46.8851H61.3778V44.8927Z" fill="#FFEF56"/>
<path d="M61.3778 42.9004H59.388V44.8927H61.3778V42.9004Z" fill="#FFEF56"/>
<path d="M61.3778 40.929H59.388V42.9004H61.3778V40.929Z" fill="#FFEF56"/>
<path d="M61.3778 38.9366H59.388V40.929H61.3778V38.9366Z" fill="#FFEF56"/>
<path d="M61.3778 36.9652H59.388V38.9366H61.3778V36.9652Z" fill="#FFEF56"/>
<path d="M61.3778 34.9729H59.388V36.9652H61.3778V34.9729Z" fill="#EAD32D"/>
<path d="M61.3778 33.0015H59.388V34.9729H61.3778V33.0015Z" fill="#EAD32D"/>
<path d="M61.3778 31.0091H59.388V33.0015H61.3778V31.0091Z" fill="black"/>
<path d="M61.3778 29.0167H59.388V31.0091H61.3778V29.0167Z" fill="black"/>
<path d="M59.3854 82.5825H57.414V84.5539H59.3854V82.5825Z" fill="black"/>
<path d="M59.3854 80.5901H57.414V82.5825H59.3854V80.5901Z" fill="black"/>
<path d="M59.3854 78.6187H57.414V80.5901H59.3854V78.6187Z" fill="#EAD32D"/>
<path d="M59.3854 76.6264H57.414V78.6187H59.3854V76.6264Z" fill="#EAD32D"/>
<path d="M59.3854 74.6366H57.414V76.6264H59.3854V74.6366Z" fill="#FFEF56"/>
<path d="M59.3854 72.66H57.414V74.634H59.3854V72.66Z" fill="#FFEF56"/>
<path d="M59.3854 70.6729H57.414V72.6626H59.3854V70.6729Z" fill="#FFEF56"/>
<path d="M59.3854 68.6989H57.414V70.6702H59.3854V68.6989Z" fill="black"/>
<path d="M59.3854 66.7065H57.414V68.6989H59.3854V66.7065Z" fill="#00F3FF"/>
<path d="M59.3854 64.7351H57.414V66.7065H59.3854V64.7351Z" fill="#2CF926"/>
<path d="M59.3854 62.7427H57.414V64.7351H59.3854V62.7427Z" fill="#2CF926"/>
<path d="M59.3854 60.753H57.414V62.7427H59.3854V60.753Z" fill="black"/>
<path d="M59.3854 58.779H57.414V60.7504H59.3854V58.779Z" fill="#FFEF56"/>
<path d="M59.3854 56.7866H57.414V58.779H59.3854V56.7866Z" fill="black"/>
<path d="M59.3854 54.8126H57.414V56.784H59.3854V54.8126Z" fill="#F9C6AA"/>
<path d="M59.3854 52.8202H57.414V54.8126H59.3854V52.8202Z" fill="#F9C6AA"/>
<path d="M59.3854 50.8489H57.414V52.8202H59.3854V50.8489Z" fill="black"/>
<path d="M59.3854 48.8565H57.414V50.8489H59.3854V48.8565Z" fill="#FFEF56"/>
<path d="M59.3854 46.8851H57.414V48.8565H59.3854V46.8851Z" fill="#FFEF56"/>
<path d="M59.3854 44.8927H57.414V46.8851H59.3854V44.8927Z" fill="#FFEF56"/>
<path d="M59.3854 42.9004H57.414V44.8927H59.3854V42.9004Z" fill="#FFEF56"/>
<path d="M59.3854 40.929H57.414V42.9004H59.3854V40.929Z" fill="#FFEF56"/>
<path d="M59.3854 38.9366H57.414V40.929H59.3854V38.9366Z" fill="#EAD32D"/>
<path d="M59.3854 36.9652H57.414V38.9366H59.3854V36.9652Z" fill="#FFEF56"/>
<path d="M59.3854 34.9729H57.414V36.9652H59.3854V34.9729Z" fill="#FFEF56"/>
<path d="M59.3854 33.0015H57.414V34.9729H59.3854V33.0015Z" fill="#EAD32D"/>
<path d="M59.3854 31.0091H57.414V33.0015H59.3854V31.0091Z" fill="#EAD32D"/>
<path d="M59.3854 29.0167H57.414V31.0091H59.3854V29.0167Z" fill="black"/>
<path d="M57.414 82.5825H55.4217V84.5539H57.414V82.5825Z" fill="black"/>
<path d="M57.414 80.5901H55.4217V82.5825H57.414V80.5901Z" fill="#2B2403"/>
<path d="M57.414 78.6187H55.4217V80.5901H57.414V78.6187Z" fill="black"/>
<path d="M57.414 76.6264H55.4217V78.6187H57.414V76.6264Z" fill="black"/>
<path d="M57.414 74.6366H55.4217V76.6264H57.414V74.6366Z" fill="#EAD32D"/>
<path d="M57.414 72.66H55.4217V74.634H57.414V72.66Z" fill="#EAD32D"/>
<path d="M57.414 70.6729H55.4217V72.6626H57.414V70.6729Z" fill="#FFEF56"/>
<path d="M57.414 68.6989H55.4217V70.6702H57.414V68.6989Z" fill="#FFEF56"/>
<path d="M57.414 66.7065H55.4217V68.6989H57.414V66.7065Z" fill="black"/>
<path d="M57.414 64.7351H55.4217V66.7065H57.414V64.7351Z" fill="black"/>
<path d="M57.414 62.7427H55.4217V64.7351H57.414V62.7427Z" fill="black"/>
<path d="M57.414 60.753H55.4217V62.7427H57.414V60.753Z" fill="#FFEF56"/>
<path d="M57.414 58.779H55.4217V60.7504H57.414V58.779Z" fill="#FFEF56"/>
<path d="M57.414 56.7866H55.4217V58.779H57.414V56.7866Z" fill="black"/>
<path d="M57.414 54.8126H55.4217V56.784H57.414V54.8126Z" fill="#F9C6AA"/>
<path d="M57.414 52.8202H55.4217V54.8126H57.414V52.8202Z" fill="#F9C6AA"/>
<path d="M57.414 50.8489H55.4217V52.8202H57.414V50.8489Z" fill="black"/>
<path d="M57.414 48.8565H55.4217V50.8489H57.414V48.8565Z" fill="#FFEF56"/>
<path d="M57.414 46.8851H55.4217V48.8565H57.414V46.8851Z" fill="#FFEF56"/>
<path d="M57.414 44.8927H55.4217V46.8851H57.414V44.8927Z" fill="#FFEF56"/>
<path d="M57.414 42.9004H55.4217V44.8927H57.414V42.9004Z" fill="#FFEF56"/>
<path d="M57.414 40.929H55.4217V42.9004H57.414V40.929Z" fill="#EAD32D"/>
<path d="M57.414 38.9366H55.4217V40.929H57.414V38.9366Z" fill="#EAD32D"/>
<path d="M57.414 36.9652H55.4217V38.9366H57.414V36.9652Z" fill="#212120"/>
<path d="M57.414 34.9729H55.4217V36.9652H57.414V34.9729Z" fill="#FFEF56"/>
<path d="M57.414 33.0015H55.4217V34.9729H57.414V33.0015Z" fill="#FFEF56"/>
<path d="M57.414 31.0091H55.4217V33.0015H57.414V31.0091Z" fill="black"/>
<path d="M57.414 29.0167H55.4217V31.0091H57.414V29.0167Z" fill="black"/>
<path d="M57.414 27.0427H55.4217V29.0141H57.414V27.0427Z" fill="black"/>
<path d="M57.414 25.0504H55.4217V27.0427H57.414V25.0504Z" fill="black"/>
<path d="M57.414 23.079H55.4217V25.0504H57.414V23.079Z" fill="black"/>
<path d="M57.414 21.0866H55.4217V23.079H57.414V21.0866Z" fill="black"/>
<path d="M55.419 82.5825H53.4477V84.5539H55.419V82.5825Z" fill="black"/>
<path d="M55.419 80.5901H53.4477V82.5825H55.419V80.5901Z" fill="#2B2403"/>
<path d="M55.419 78.6187H53.4477V80.5901H55.419V78.6187Z" fill="#2B2403"/>
<path d="M55.419 76.6264H53.4477V78.6187H55.419V76.6264Z" fill="#352E07"/>
<path d="M55.419 74.6366H53.4477V76.6264H55.419V74.6366Z" fill="black"/>
<path d="M55.419 72.66H53.4477V74.634H55.419V72.66Z" fill="black"/>
<path d="M55.419 70.6729H53.4477V72.6626H55.419V70.6729Z" fill="#EAD32D"/>
<path d="M55.419 68.6989H53.4477V70.6702H55.419V68.6989Z" fill="#EAD32D"/>
<path d="M55.419 66.7065H53.4477V68.6989H55.419V66.7065Z" fill="#EAD32D"/>
<path d="M55.419 64.7351H53.4477V66.7065H55.419V64.7351Z" fill="#EAD32D"/>
<path d="M55.419 62.7427H53.4477V64.7351H55.419V62.7427Z" fill="#EAD32D"/>
<path d="M55.419 60.753H53.4477V62.7427H55.419V60.753Z" fill="#EAD32D"/>
<path d="M55.419 58.779H53.4477V60.7504H55.419V58.779Z" fill="black"/>
<path d="M55.419 56.7866H53.4477V58.779H55.419V56.7866Z" fill="black"/>
<path d="M55.419 54.8126H53.4477V56.784H55.419V54.8126Z" fill="black"/>
<path d="M55.419 52.8202H53.4477V54.8126H55.419V52.8202Z" fill="black"/>
<path d="M55.419 50.8489H53.4477V52.8202H55.419V50.8489Z" fill="black"/>
<path d="M55.419 48.8565H53.4477V50.8489H55.419V48.8565Z" fill="black"/>
<path d="M55.419 46.8851H53.4477V48.8565H55.419V46.8851Z" fill="#EAD32D"/>
<path d="M55.419 44.8927H53.4477V46.8851H55.419V44.8927Z" fill="#EAD32D"/>
<path d="M55.419 42.9004H53.4477V44.8927H55.419V42.9004Z" fill="#EAD32D"/>
<path d="M55.419 40.929H53.4477V42.9004H55.419V40.929Z" fill="#EAD32D"/>
<path d="M55.419 38.9366H53.4477V40.929H55.419V38.9366Z" fill="#212120"/>
<path d="M55.419 36.9652H53.4477V38.9366H55.419V36.9652Z" fill="#212120"/>
<path d="M55.419 34.9729H53.4477V36.9652H55.419V34.9729Z" fill="#FFEF56"/>
<path d="M55.419 33.0015H53.4477V34.9729H55.419V33.0015Z" fill="black"/>
<path d="M55.419 31.0091H53.4477V33.0015H55.419V31.0091Z" fill="#A8A8A7"/>
<path d="M55.419 29.0167H53.4477V31.0091H55.419V29.0167Z" fill="#CCCCCA"/>
<path d="M55.419 27.0427H53.4477V29.0141H55.419V27.0427Z" fill="#CCCCCA"/>
<path d="M55.419 25.0504H53.4477V27.0427H55.419V25.0504Z" fill="#F9C6AA"/>
<path d="M55.419 23.079H53.4477V25.0504H55.419V23.079Z" fill="#F9C6AA"/>
<path d="M55.419 21.0866H53.4477V23.079H55.419V21.0866Z" fill="#F9C6AA"/>
<path d="M55.419 19.1152H53.4477V21.0866H55.419V19.1152Z" fill="black"/>
<path d="M53.4477 82.5825H51.4553V84.5539H53.4477V82.5825Z" fill="black"/>
<path d="M53.4477 80.5901H51.4553V82.5825H53.4477V80.5901Z" fill="#2B2403"/>
<path d="M53.4477 78.6187H51.4553V80.5901H53.4477V78.6187Z" fill="#2B2403"/>
<path d="M53.4477 76.6264H51.4553V78.6187H53.4477V76.6264Z" fill="#352E07"/>
<path d="M53.4477 74.6366H51.4553V76.6264H53.4477V74.6366Z" fill="#352E07"/>
<path d="M53.4477 72.66H51.4553V74.634H53.4477V72.66Z" fill="black"/>
<path d="M53.4477 70.6729H51.4553V72.6626H53.4477V70.6729Z" fill="black"/>
<path d="M53.4477 68.6989H51.4553V70.6702H53.4477V68.6989Z" fill="black"/>
<path d="M53.4477 66.7065H51.4553V68.6989H53.4477V66.7065Z" fill="black"/>
<path d="M53.4477 64.7351H51.4553V66.7065H53.4477V64.7351Z" fill="black"/>
<path d="M53.4477 62.7427H51.4553V64.7351H53.4477V62.7427Z" fill="black"/>
<path d="M53.4477 60.753H51.4553V62.7427H53.4477V60.753Z" fill="black"/>
<path d="M53.4477 58.779H51.4553V60.7504H53.4477V58.779Z" fill="black"/>
<path d="M53.4477 56.7866H51.4553V58.779H53.4477V56.7866Z" fill="#352E07"/>
<path d="M53.4477 54.8126H51.4553V56.784H53.4477V54.8126Z" fill="#352E07"/>
<path d="M53.4477 52.8202H51.4553V54.8126H53.4477V52.8202Z" fill="#352E07"/>
<path d="M53.4477 50.8489H51.4553V52.8202H53.4477V50.8489Z" fill="#352E07"/>
<path d="M53.4477 48.8565H51.4553V50.8489H53.4477V48.8565Z" fill="black"/>
<path d="M53.4477 46.8851H51.4553V48.8565H53.4477V46.8851Z" fill="black"/>
<path d="M53.4477 44.8927H51.4553V46.8851H53.4477V44.8927Z" fill="black"/>
<path d="M53.4477 42.9004H51.4553V44.8927H53.4477V42.9004Z" fill="black"/>
<path d="M53.4477 40.929H51.4553V42.9004H53.4477V40.929Z" fill="black"/>
<path d="M53.4477 38.9366H51.4553V40.929H53.4477V38.9366Z" fill="#212120"/>
<path d="M53.4477 36.9652H51.4553V38.9366H53.4477V36.9652Z" fill="#212120"/>
<path d="M53.4477 34.9729H51.4553V36.9652H53.4477V34.9729Z" fill="#212120"/>
<path d="M53.4477 33.0015H51.4553V34.9729H53.4477V33.0015Z" fill="#A8A8A7"/>
<path d="M53.4477 31.0091H51.4553V33.0015H53.4477V31.0091Z" fill="#CCCCCA"/>
<path d="M53.4477 29.0167H51.4553V31.0091H53.4477V29.0167Z" fill="#CCCCCA"/>
<path d="M53.4477 27.0427H51.4553V29.0141H53.4477V27.0427Z" fill="#F9C6AA"/>
<path d="M53.4477 25.0504H51.4553V27.0427H53.4477V25.0504Z" fill="#2D2D2D"/>
<path d="M53.4477 23.079H51.4553V25.0504H53.4477V23.079Z" fill="#F9C6AA"/>
<path d="M53.4477 21.0866H51.4553V23.079H53.4477V21.0866Z" fill="#F9C6AA"/>
<path d="M53.4477 19.1152H51.4553V21.0866H53.4477V19.1152Z" fill="black"/>
<path d="M51.4553 82.5825H49.4839V84.5539H51.4553V82.5825Z" fill="black"/>
<path d="M51.4553 80.5901H49.4839V82.5825H51.4553V80.5901Z" fill="#2B2403"/>
<path d="M51.4553 78.6187H49.4839V80.5901H51.4553V78.6187Z" fill="#514911"/>
<path d="M51.4553 76.6264H49.4839V78.6187H51.4553V76.6264Z" fill="#2B2403"/>
<path d="M51.4553 74.6366H49.4839V76.6264H51.4553V74.6366Z" fill="#352E07"/>
<path d="M51.4553 72.66H49.4839V74.634H51.4553V72.66Z" fill="#352E07"/>
<path d="M51.4553 70.6729H49.4839V72.6626H51.4553V70.6729Z" fill="#352E07"/>
<path d="M51.4553 68.6989H49.4839V70.6702H51.4553V68.6989Z" fill="#352E07"/>
<path d="M51.4553 66.7065H49.4839V68.6989H51.4553V66.7065Z" fill="#352E07"/>
<path d="M51.4553 64.7351H49.4839V66.7065H51.4553V64.7351Z" fill="#352E07"/>
<path d="M51.4553 62.7427H49.4839V64.7351H51.4553V62.7427Z" fill="#352E07"/>
<path d="M51.4553 60.753H49.4839V62.7427H51.4553V60.753Z" fill="#352E07"/>
<path d="M51.4553 58.779H49.4839V60.7504H51.4553V58.779Z" fill="#352E07"/>
<path d="M51.4553 56.7866H49.4839V58.779H51.4553V56.7866Z" fill="black"/>
<path d="M51.4553 54.8126H49.4839V56.784H51.4553V54.8126Z" fill="#60561B"/>
<path d="M51.4553 52.8202H49.4839V54.8126H51.4553V52.8202Z" fill="#352E07"/>
<path d="M51.4553 50.8489H49.4839V52.8202H51.4553V50.8489Z" fill="#352E07"/>
<path d="M51.4553 48.8565H49.4839V50.8489H51.4553V48.8565Z" fill="black"/>
<path d="M51.4553 46.8851H49.4839V48.8565H51.4553V46.8851Z" fill="#352E07"/>
<path d="M51.4553 44.8927H49.4839V46.8851H51.4553V44.8927Z" fill="#352E07"/>
<path d="M51.4553 42.9004H49.4839V44.8927H51.4553V42.9004Z" fill="#352E07"/>
<path d="M51.4553 40.929H49.4839V42.9004H51.4553V40.929Z" fill="#352E07"/>
<path d="M51.4553 38.9366H49.4839V40.929H51.4553V38.9366Z" fill="#352E07"/>
<path d="M51.4553 36.9652H49.4839V38.9366H51.4553V36.9652Z" fill="#212120"/>
<path d="M51.4553 34.9729H49.4839V36.9652H51.4553V34.9729Z" fill="#212120"/>
<path d="M51.4553 33.0015H49.4839V34.9729H51.4553V33.0015Z" fill="#A8A8A7"/>
<path d="M51.4553 31.0091H49.4839V33.0015H51.4553V31.0091Z" fill="#CCCCCA"/>
<path d="M51.4553 29.0167H49.4839V31.0091H51.4553V29.0167Z" fill="#CCCCCA"/>
<path d="M51.4553 27.0427H49.4839V29.0141H51.4553V27.0427Z" fill="#F9C6AA"/>
<path d="M51.4553 25.0504H49.4839V27.0427H51.4553V25.0504Z" fill="#2D2D2D"/>
<path d="M51.4553 23.079H49.4839V25.0504H51.4553V23.079Z" fill="#F9C6AA"/>
<path d="M51.4553 21.0866H49.4839V23.079H51.4553V21.0866Z" fill="#F9C6AA"/>
<path d="M51.4553 19.1152H49.4839V21.0866H51.4553V19.1152Z" fill="black"/>
<path d="M49.4839 82.5825H47.4915V84.5539H49.4839V82.5825Z" fill="black"/>
<path d="M49.4839 80.5901H47.4915V82.5825H49.4839V80.5901Z" fill="#2B2403"/>
<path d="M49.4839 78.6187H47.4915V80.5901H49.4839V78.6187Z" fill="#514911"/>
<path d="M49.4839 76.6264H47.4915V78.6187H49.4839V76.6264Z" fill="#514911"/>
<path d="M49.4839 74.6366H47.4915V76.6264H49.4839V74.6366Z" fill="#514911"/>
<path d="M49.4839 72.66H47.4915V74.634H49.4839V72.66Z" fill="#514911"/>
<path d="M49.4839 70.6729H47.4915V72.6626H49.4839V70.6729Z" fill="#514911"/>
<path d="M49.4839 68.6989H47.4915V70.6702H49.4839V68.6989Z" fill="#514911"/>
<path d="M49.4839 66.7065H47.4915V68.6989H49.4839V66.7065Z" fill="#514911"/>
<path d="M49.4839 64.7351H47.4915V66.7065H49.4839V64.7351Z" fill="#514911"/>
<path d="M49.4839 62.7427H47.4915V64.7351H49.4839V62.7427Z" fill="#514911"/>
<path d="M49.4839 60.753H47.4915V62.7427H49.4839V60.753Z" fill="#514911"/>
<path d="M49.4839 58.779H47.4915V60.7504H49.4839V58.779Z" fill="#514911"/>
<path d="M49.4839 56.7866H47.4915V58.779H49.4839V56.7866Z" fill="#514911"/>
<path d="M49.4839 54.8126H47.4915V56.784H49.4839V54.8126Z" fill="black"/>
<path d="M49.4839 52.8202H47.4915V54.8126H49.4839V52.8202Z" fill="#60561B"/>
<path d="M49.4839 50.8489H47.4915V52.8202H49.4839V50.8489Z" fill="#352E07"/>
<path d="M49.4839 48.8565H47.4915V50.8489H49.4839V48.8565Z" fill="black"/>
<path d="M49.4839 46.8851H47.4915V48.8565H49.4839V46.8851Z" fill="black"/>
<path d="M49.4839 44.8927H47.4915V46.8851H49.4839V44.8927Z" fill="#514911"/>
<path d="M49.4839 42.9004H47.4915V44.8927H49.4839V42.9004Z" fill="#514911"/>
<path d="M49.4839 40.929H47.4915V42.9004H49.4839V40.929Z" fill="#514911"/>
<path d="M49.4839 38.9366H47.4915V40.929H49.4839V38.9366Z" fill="#514911"/>
<path d="M49.4839 36.9652H47.4915V38.9366H49.4839V36.9652Z" fill="#212120"/>
<path d="M49.4839 34.9729H47.4915V36.9652H49.4839V34.9729Z" fill="#212120"/>
<path d="M49.4839 33.0015H47.4915V34.9729H49.4839V33.0015Z" fill="#A8A8A7"/>
<path d="M49.4839 31.0091H47.4915V33.0015H49.4839V31.0091Z" fill="#CCCCCA"/>
<path d="M49.4839 29.0167H47.4915V31.0091H49.4839V29.0167Z" fill="#CCCCCA"/>
<path d="M49.4839 27.0427H47.4915V29.0141H49.4839V27.0427Z" fill="#EA9E78"/>
<path d="M49.4839 25.0504H47.4915V27.0427H49.4839V25.0504Z" fill="#F9C6AA"/>
<path d="M49.4839 23.079H47.4915V25.0504H49.4839V23.079Z" fill="#F9C6AA"/>
<path d="M49.4839 21.0866H47.4915V23.079H49.4839V21.0866Z" fill="#F9C6AA"/>
<path d="M49.4839 19.1152H47.4915V21.0866H49.4839V19.1152Z" fill="black"/>
<path d="M47.4915 82.5825H45.5202V84.5539H47.4915V82.5825Z" fill="black"/>
<path d="M47.4915 80.5901H45.5202V82.5825H47.4915V80.5901Z" fill="#2B2403"/>
<path d="M47.4915 78.6187H45.5202V80.5901H47.4915V78.6187Z" fill="#514911"/>
<path d="M47.4915 76.6264H45.5202V78.6187H47.4915V76.6264Z" fill="#514911"/>
<path d="M47.4915 74.6366H45.5202V76.6264H47.4915V74.6366Z" fill="black"/>
<path d="M47.4915 72.66H45.5202V74.634H47.4915V72.66Z" fill="black"/>
<path d="M47.4915 70.6729H45.5202V72.6626H47.4915V70.6729Z" fill="black"/>
<path d="M47.4915 68.6989H45.5202V70.6702H47.4915V68.6989Z" fill="black"/>
<path d="M47.4915 66.7065H45.5202V68.6989H47.4915V66.7065Z" fill="black"/>
<path d="M47.4915 64.7351H45.5202V66.7065H47.4915V64.7351Z" fill="black"/>
<path d="M47.4915 62.7427H45.5202V64.7351H47.4915V62.7427Z" fill="black"/>
<path d="M47.4915 60.753H45.5202V62.7427H47.4915V60.753Z" fill="black"/>
<path d="M47.4915 58.779H45.5202V60.7504H47.4915V58.779Z" fill="black"/>
<path d="M47.4915 56.7866H45.5202V58.779H47.4915V56.7866Z" fill="black"/>
<path d="M47.4915 54.8126H45.5202V56.784H47.4915V54.8126Z" fill="black"/>
<path d="M47.4915 52.8202H45.5202V54.8126H47.4915V52.8202Z" fill="black"/>
<path d="M47.4915 50.8489H45.5202V52.8202H47.4915V50.8489Z" fill="black"/>
<path d="M47.4915 48.8565H45.5202V50.8489H47.4915V48.8565Z" fill="black"/>
<path d="M47.4915 46.8851H45.5202V48.8565H47.4915V46.8851Z" fill="black"/>
<path d="M47.4915 44.8927H45.5202V46.8851H47.4915V44.8927Z" fill="black"/>
<path d="M47.4915 42.9004H45.5202V44.8927H47.4915V42.9004Z" fill="black"/>
<path d="M47.4915 40.929H45.5202V42.9004H47.4915V40.929Z" fill="black"/>
<path d="M47.4915 38.9366H45.5202V40.929H47.4915V38.9366Z" fill="#212120"/>
<path d="M47.4915 36.9652H45.5202V38.9366H47.4915V36.9652Z" fill="#212120"/>
<path d="M47.4915 34.9729H45.5202V36.9652H47.4915V34.9729Z" fill="#212120"/>
<path d="M47.4915 33.0015H45.5202V34.9729H47.4915V33.0015Z" fill="#A8A8A7"/>
<path d="M47.4915 31.0091H45.5202V33.0015H47.4915V31.0091Z" fill="#CCCCCA"/>
<path d="M47.4915 29.0167H45.5202V31.0091H47.4915V29.0167Z" fill="#CCCCCA"/>
<path d="M47.4915 27.0427H45.5202V29.0141H47.4915V27.0427Z" fill="#F9C6AA"/>
<path d="M47.4915 25.0504H45.5202V27.0427H47.4915V25.0504Z" fill="#2D2D2D"/>
<path d="M47.4915 23.079H45.5202V25.0504H47.4915V23.079Z" fill="#F9C6AA"/>
<path d="M47.4915 21.0866H45.5202V23.079H47.4915V21.0866Z" fill="#F9C6AA"/>
<path d="M47.4915 19.1152H45.5202V21.0866H47.4915V19.1152Z" fill="black"/>
<path d="M45.5202 82.5825H43.5278V84.5539H45.5202V82.5825Z" fill="black"/>
<path d="M45.5202 80.5901H43.5278V82.5825H45.5202V80.5901Z" fill="#2B2403"/>
<path d="M45.5202 78.6187H43.5278V80.5901H45.5202V78.6187Z" fill="black"/>
<path d="M45.5202 76.6264H43.5278V78.6187H45.5202V76.6264Z" fill="black"/>
<path d="M45.5202 74.6366H43.5278V76.6264H45.5202V74.6366Z" fill="#FFEF56"/>
<path d="M45.5202 72.66H43.5278V74.634H45.5202V72.66Z" fill="#FFEF56"/>
<path d="M45.5202 70.6729H43.5278V72.6626H45.5202V70.6729Z" fill="#FFEF56"/>
<path d="M45.5202 68.6989H43.5278V70.6702H45.5202V68.6989Z" fill="#FFEF56"/>
<path d="M45.5202 66.7065H43.5278V68.6989H45.5202V66.7065Z" fill="#FFEF56"/>
<path d="M45.5202 64.7351H43.5278V66.7065H45.5202V64.7351Z" fill="#FFEF56"/>
<path d="M45.5202 62.7427H43.5278V64.7351H45.5202V62.7427Z" fill="#FFEF56"/>
<path d="M45.5202 60.753H43.5278V62.7427H45.5202V60.753Z" fill="#FFEF56"/>
<path d="M45.5202 58.779H43.5278V60.7504H45.5202V58.779Z" fill="#FFEF56"/>
<path d="M45.5202 56.7866H43.5278V58.779H45.5202V56.7866Z" fill="#FFEF56"/>
<path d="M45.5202 54.8126H43.5278V56.784H45.5202V54.8126Z" fill="#FFEF56"/>
<path d="M45.5202 52.8202H43.5278V54.8126H45.5202V52.8202Z" fill="#FFEF56"/>
<path d="M45.5202 50.8489H43.5278V52.8202H45.5202V50.8489Z" fill="#FFEF56"/>
<path d="M45.5202 48.8565H43.5278V50.8489H45.5202V48.8565Z" fill="#EAD32D"/>
<path d="M45.5202 46.8851H43.5278V48.8565H45.5202V46.8851Z" fill="#EAD32D"/>
<path d="M45.5202 44.8927H43.5278V46.8851H45.5202V44.8927Z" fill="#EAD32D"/>
<path d="M45.5202 42.9004H43.5278V44.8927H45.5202V42.9004Z" fill="#EAD32D"/>
<path d="M45.5202 40.929H43.5278V42.9004H45.5202V40.929Z" fill="#EAD32D"/>
<path d="M45.5202 38.9366H43.5278V40.929H45.5202V38.9366Z" fill="#212120"/>
<path d="M45.5202 36.9652H43.5278V38.9366H45.5202V36.9652Z" fill="#212120"/>
<path d="M45.5202 34.9729H43.5278V36.9652H45.5202V34.9729Z" fill="#EAD32D"/>
<path d="M45.5202 33.0015H43.5278V34.9729H45.5202V33.0015Z" fill="black"/>
<path d="M45.5202 31.0091H43.5278V33.0015H45.5202V31.0091Z" fill="black"/>
<path d="M45.5202 29.0167H43.5278V31.0091H45.5202V29.0167Z" fill="black"/>
<path d="M45.5202 27.0427H43.5278V29.0141H45.5202V27.0427Z" fill="black"/>
<path d="M45.5202 25.0504H43.5278V27.0427H45.5202V25.0504Z" fill="black"/>
<path d="M45.5202 23.079H43.5278V25.0504H45.5202V23.079Z" fill="black"/>
<path d="M45.5202 21.0866H43.5278V23.079H45.5202V21.0866Z" fill="black"/>
<path d="M43.5278 82.5825H41.5354V84.5539H43.5278V82.5825Z" fill="black"/>
<path d="M43.5278 80.5901H41.5354V82.5825H43.5278V80.5901Z" fill="black"/>
<path d="M43.5278 78.6187H41.5354V80.5901H43.5278V78.6187Z" fill="#EAD32D"/>
<path d="M43.5278 76.6264H41.5354V78.6187H43.5278V76.6264Z" fill="#FFEF56"/>
<path d="M43.5278 74.6366H41.5354V76.6264H43.5278V74.6366Z" fill="#FFEF56"/>
<path d="M43.5278 72.66H41.5354V74.634H43.5278V72.66Z" fill="#FFEF56"/>
<path d="M43.5278 70.6729H41.5354V72.6626H43.5278V70.6729Z" fill="#FFEF56"/>
<path d="M43.5278 68.6989H41.5354V70.6702H43.5278V68.6989Z" fill="#FFEF56"/>
<path d="M43.5278 66.7065H41.5354V68.6989H43.5278V66.7065Z" fill="#FFEF56"/>
<path d="M43.5278 64.7351H41.5354V66.7065H43.5278V64.7351Z" fill="#FFEF56"/>
<path d="M43.5278 62.7427H41.5354V64.7351H43.5278V62.7427Z" fill="#FFEF56"/>
<path d="M43.5278 60.753H41.5354V62.7427H43.5278V60.753Z" fill="#FFEF56"/>
<path d="M43.5278 58.779H41.5354V60.7504H43.5278V58.779Z" fill="#FFEF56"/>
<path d="M43.5278 56.7866H41.5354V58.779H43.5278V56.7866Z" fill="#FFEF56"/>
<path d="M43.5278 54.8126H41.5354V56.784H43.5278V54.8126Z" fill="#FFEF56"/>
<path d="M43.5278 52.8202H41.5354V54.8126H43.5278V52.8202Z" fill="#FFEF56"/>
<path d="M43.5278 50.8489H41.5354V52.8202H43.5278V50.8489Z" fill="#FFEF56"/>
<path d="M43.5278 48.8565H41.5354V50.8489H43.5278V48.8565Z" fill="#FFEF56"/>
<path d="M43.5278 46.8851H41.5354V48.8565H43.5278V46.8851Z" fill="#FFEF56"/>
<path d="M43.5278 44.8927H41.5354V46.8851H43.5278V44.8927Z" fill="#EAD32D"/>
<path d="M43.5278 42.9004H41.5354V44.8927H43.5278V42.9004Z" fill="#EAD32D"/>
<path d="M43.5278 40.929H41.5354V42.9004H43.5278V40.929Z" fill="#EAD32D"/>
<path d="M43.5278 38.9366H41.5354V40.929H43.5278V38.9366Z" fill="#EAD32D"/>
<path d="M43.5278 36.9652H41.5354V38.9366H43.5278V36.9652Z" fill="#EAD32D"/>
<path d="M43.5278 34.9729H41.5354V36.9652H43.5278V34.9729Z" fill="#EAD32D"/>
<path d="M43.5278 33.0015H41.5354V34.9729H43.5278V33.0015Z" fill="#EAD32D"/>
<path d="M43.5278 31.0091H41.5354V33.0015H43.5278V31.0091Z" fill="black"/>
<path d="M41.5354 82.5825H39.564V84.5539H41.5354V82.5825Z" fill="black"/>
<path d="M41.5354 80.5901H39.564V82.5825H41.5354V80.5901Z" fill="#EAD32D"/>
<path d="M41.5354 78.6187H39.564V80.5901H41.5354V78.6187Z" fill="#EAD32D"/>
<path d="M41.5354 76.6264H39.564V78.6187H41.5354V76.6264Z" fill="#EAD32D"/>
<path d="M41.5354 74.6366H39.564V76.6264H41.5354V74.6366Z" fill="#FFEF56"/>
<path d="M41.5354 72.66H39.564V74.634H41.5354V72.66Z" fill="#FFEF56"/>
<path d="M41.5354 70.6729H39.564V72.6626H41.5354V70.6729Z" fill="#FFEF56"/>
<path d="M41.5354 68.6989H39.564V70.6702H41.5354V68.6989Z" fill="#FFEF56"/>
<path d="M41.5354 66.7065H39.564V68.6989H41.5354V66.7065Z" fill="#FFEF56"/>
<path d="M41.5354 64.7351H39.564V66.7065H41.5354V64.7351Z" fill="#FFEF56"/>
<path d="M41.5354 62.7427H39.564V64.7351H41.5354V62.7427Z" fill="#FFEF56"/>
<path d="M41.5354 60.753H39.564V62.7427H41.5354V60.753Z" fill="#FFEF56"/>
<path d="M41.5354 58.779H39.564V60.7504H41.5354V58.779Z" fill="#FFEF56"/>
<path d="M41.5354 56.7866H39.564V58.779H41.5354V56.7866Z" fill="#FFEF56"/>
<path d="M41.5354 54.8126H39.564V56.784H41.5354V54.8126Z" fill="#FFEF56"/>
<path d="M41.5354 52.8202H39.564V54.8126H41.5354V52.8202Z" fill="#FFEF56"/>
<path d="M41.5354 50.8489H39.564V52.8202H41.5354V50.8489Z" fill="#FFEF56"/>
<path d="M41.5354 48.8565H39.564V50.8489H41.5354V48.8565Z" fill="#FFEF56"/>
<path d="M41.5354 46.8851H39.564V48.8565H41.5354V46.8851Z" fill="#FFEF56"/>
<path d="M41.5354 44.8927H39.564V46.8851H41.5354V44.8927Z" fill="#FFEF56"/>
<path d="M41.5354 42.9004H39.564V44.8927H41.5354V42.9004Z" fill="#FFEF56"/>
<path d="M41.5354 40.929H39.564V42.9004H41.5354V40.929Z" fill="#EAD32D"/>
<path d="M41.5354 38.9366H39.564V40.929H41.5354V38.9366Z" fill="#EAD32D"/>
<path d="M41.5354 36.9652H39.564V38.9366H41.5354V36.9652Z" fill="#EAD32D"/>
<path d="M41.5354 34.9729H39.564V36.9652H41.5354V34.9729Z" fill="black"/>
<path d="M41.5354 33.0015H39.564V34.9729H41.5354V33.0015Z" fill="black"/>
<path d="M39.564 82.5825H37.5717V84.5539H39.564V82.5825Z" fill="black"/>
<path d="M39.564 80.5901H37.5717V82.5825H39.564V80.5901Z" fill="#EAD32D"/>
<path d="M39.564 78.6187H37.5717V80.5901H39.564V78.6187Z" fill="#EAD32D"/>
<path d="M39.564 76.6264H37.5717V78.6187H39.564V76.6264Z" fill="#EAD32D"/>
<path d="M39.564 74.6366H37.5717V76.6264H39.564V74.6366Z" fill="#EAD32D"/>
<path d="M39.564 72.66H37.5717V74.634H39.564V72.66Z" fill="#EAD32D"/>
<path d="M39.564 70.6729H37.5717V72.6626H39.564V70.6729Z" fill="#FFEF56"/>
<path d="M39.564 68.6989H37.5717V70.6702H39.564V68.6989Z" fill="#FFEF56"/>
<path d="M39.564 66.7065H37.5717V68.6989H39.564V66.7065Z" fill="#FFEF56"/>
<path d="M39.564 64.7351H37.5717V66.7065H39.564V64.7351Z" fill="#FFEF56"/>
<path d="M39.564 62.7427H37.5717V64.7351H39.564V62.7427Z" fill="#FFEF56"/>
<path d="M39.564 60.753H37.5717V62.7427H39.564V60.753Z" fill="#FFEF56"/>
<path d="M39.564 58.779H37.5717V60.7504H39.564V58.779Z" fill="#FFEF56"/>
<path d="M39.564 56.7866H37.5717V58.779H39.564V56.7866Z" fill="#FFEF56"/>
<path d="M39.564 54.8126H37.5717V56.784H39.564V54.8126Z" fill="#FFEF56"/>
<path d="M39.564 52.8202H37.5717V54.8126H39.564V52.8202Z" fill="#FFEF56"/>
<path d="M39.564 50.8489H37.5717V52.8202H39.564V50.8489Z" fill="#FFEF56"/>
<path d="M39.564 48.8565H37.5717V50.8489H39.564V48.8565Z" fill="#FFEF56"/>
<path d="M39.564 46.8851H37.5717V48.8565H39.564V46.8851Z" fill="#FFEF56"/>
<path d="M39.564 44.8927H37.5717V46.8851H39.564V44.8927Z" fill="#FFEF56"/>
<path d="M39.564 42.9004H37.5717V44.8927H39.564V42.9004Z" fill="#FFEF56"/>
<path d="M39.564 40.929H37.5717V42.9004H39.564V40.929Z" fill="#FFEF56"/>
<path d="M39.564 38.9366H37.5717V40.929H39.564V38.9366Z" fill="#EAD32D"/>
<path d="M39.564 36.9652H37.5717V38.9366H39.564V36.9652Z" fill="black"/>
<path d="M37.5717 82.5825H35.6003V84.5539H37.5717V82.5825Z" fill="black"/>
<path d="M37.5717 80.5901H35.6003V82.5825H37.5717V80.5901Z" fill="#EAD32D"/>
<path d="M37.5717 78.6187H35.6003V80.5901H37.5717V78.6187Z" fill="#EAD32D"/>
<path d="M37.5717 76.6264H35.6003V78.6187H37.5717V76.6264Z" fill="#EAD32D"/>
<path d="M37.5717 74.6366H35.6003V76.6264H37.5717V74.6366Z" fill="#EAD32D"/>
<path d="M37.5717 72.66H35.6003V74.634H37.5717V72.66Z" fill="#EAD32D"/>
<path d="M37.5717 70.6729H35.6003V72.6626H37.5717V70.6729Z" fill="#EAD32D"/>
<path d="M37.5717 68.6989H35.6003V70.6702H37.5717V68.6989Z" fill="#FFEF56"/>
<path d="M37.5717 66.7065H35.6003V68.6989H37.5717V66.7065Z" fill="#FFEF56"/>
<path d="M37.5717 64.7351H35.6003V66.7065H37.5717V64.7351Z" fill="#FFEF56"/>
<path d="M37.5717 62.7427H35.6003V64.7351H37.5717V62.7427Z" fill="#FFEF56"/>
<path d="M37.5717 60.753H35.6003V62.7427H37.5717V60.753Z" fill="#FFEF56"/>
<path d="M37.5717 58.779H35.6003V60.7504H37.5717V58.779Z" fill="#FFEF56"/>
<path d="M37.5717 56.7866H35.6003V58.779H37.5717V56.7866Z" fill="#FFEF56"/>
<path d="M37.5717 54.8126H35.6003V56.784H37.5717V54.8126Z" fill="#FFEF56"/>
<path d="M37.5717 52.8202H35.6003V54.8126H37.5717V52.8202Z" fill="#FFEF56"/>
<path d="M37.5717 50.8489H35.6003V52.8202H37.5717V50.8489Z" fill="#FFEF56"/>
<path d="M37.5717 48.8565H35.6003V50.8489H37.5717V48.8565Z" fill="#FFEF56"/>
<path d="M37.5717 46.8851H35.6003V48.8565H37.5717V46.8851Z" fill="#FFEF56"/>
<path d="M37.5717 44.8927H35.6003V46.8851H37.5717V44.8927Z" fill="#FFEF56"/>
<path d="M37.5717 42.9004H35.6003V44.8927H37.5717V42.9004Z" fill="#FFEF56"/>
<path d="M37.5717 40.929H35.6003V42.9004H37.5717V40.929Z" fill="#EAD32D"/>
<path d="M37.5717 38.9366H35.6003V40.929H37.5717V38.9366Z" fill="black"/>
<path d="M37.5717 36.9652H35.6003V38.9366H37.5717V36.9652Z" fill="black"/>
<path d="M35.6003 82.5825H33.6079V84.5539H35.6003V82.5825Z" fill="black"/>
<path d="M35.6003 80.5901H33.6079V82.5825H35.6003V80.5901Z" fill="black"/>
<path d="M35.6003 78.6187H33.6079V80.5901H35.6003V78.6187Z" fill="black"/>
<path d="M35.6003 76.6264H33.6079V78.6187H35.6003V76.6264Z" fill="black"/>
<path d="M35.6003 74.6366H33.6079V76.6264H35.6003V74.6366Z" fill="black"/>
<path d="M35.6003 72.66H33.6079V74.634H35.6003V72.66Z" fill="black"/>
<path d="M35.6003 70.6729H33.6079V72.6626H35.6003V70.6729Z" fill="black"/>
<path d="M35.6003 68.6989H33.6079V70.6702H35.6003V68.6989Z" fill="black"/>
<path d="M35.6003 66.7065H33.6079V68.6989H35.6003V66.7065Z" fill="black"/>
<path d="M35.6003 64.7351H33.6079V66.7065H35.6003V64.7351Z" fill="black"/>
<path d="M35.6003 62.7427H33.6079V64.7351H35.6003V62.7427Z" fill="black"/>
<path d="M35.6003 60.753H33.6079V62.7427H35.6003V60.753Z" fill="black"/>
<path d="M35.6003 58.779H33.6079V60.7504H35.6003V58.779Z" fill="black"/>
<path d="M35.6003 56.7866H33.6079V58.779H35.6003V56.7866Z" fill="black"/>
<path d="M35.6003 54.8126H33.6079V56.784H35.6003V54.8126Z" fill="black"/>
<path d="M35.6003 52.8202H33.6079V54.8126H35.6003V52.8202Z" fill="black"/>
<path d="M35.6003 50.8489H33.6079V52.8202H35.6003V50.8489Z" fill="black"/>
<path d="M35.6003 48.8565H33.6079V50.8489H35.6003V48.8565Z" fill="black"/>
<path d="M35.6003 46.8851H33.6079V48.8565H35.6003V46.8851Z" fill="black"/>
<path d="M35.6003 44.8927H33.6079V46.8851H35.6003V44.8927Z" fill="black"/>
<path d="M35.6003 42.9004H33.6079V44.8927H35.6003V42.9004Z" fill="black"/>
<path d="M35.6003 40.929H33.6079V42.9004H35.6003V40.929Z" fill="black"/>
</svg>
