<svg width="105" height="105" viewBox="0 0 105 105" fill="none" xmlns="http://www.w3.org/2000/svg">
<path d="M52.5002 4.73279C78.8812 4.73297 100.267 26.1194 100.267 52.5004C100.267 78.8812 78.8811 100.267 52.5002 100.267C26.1192 100.267 4.73285 78.8813 4.73267 52.5004C4.73267 26.1192 26.1191 4.73279 52.5002 4.73279Z" fill="#F9F7E7" stroke="#29100A" stroke-width="2"/>
<path d="M69.2029 82.9395H67.3549V84.7717H69.2029V82.9395Z" fill="black"/>
<path d="M69.2029 81.0889H67.3549V82.9395H69.2029V81.0889Z" fill="black"/>
<path d="M69.2029 79.2566H67.3549V81.0889H69.2029V79.2566Z" fill="black"/>
<path d="M69.2029 77.406H67.3549V79.2566H69.2029V77.406Z" fill="black"/>
<path d="M69.2029 75.5554H67.3549V77.4034H69.2029V75.5554Z" fill="black"/>
<path d="M69.2029 73.7205H67.3549V75.5554H69.2029V73.7205Z" fill="black"/>
<path d="M69.2029 71.8725H67.3549V73.7205H69.2029V71.8725Z" fill="black"/>
<path d="M69.2029 62.6561H67.3549V64.5041H69.2029V62.6561Z" fill="black"/>
<path d="M69.2029 60.8212H67.3549V62.6535H69.2029V60.8212Z" fill="black"/>
<path d="M69.2029 58.9706H67.3549V60.8212H69.2029V58.9706Z" fill="black"/>
<path d="M69.2029 57.1384H67.3549V58.9706H69.2029V57.1384Z" fill="black"/>
<path d="M69.2029 55.2877H67.3549V57.1384H69.2029V55.2877Z" fill="black"/>
<path d="M69.2029 53.4555H67.3549V55.2877H69.2029V53.4555Z" fill="black"/>
<path d="M69.2029 51.6049H67.3549V53.4555H69.2029V51.6049Z" fill="black"/>
<path d="M69.2029 49.7726H67.3549V51.6049H69.2029V49.7726Z" fill="black"/>
<path d="M69.2029 47.922H67.3549V49.7726H69.2029V47.922Z" fill="black"/>
<path d="M69.2029 25.8037H67.3549V27.6544H69.2029V25.8037Z" fill="#F20000"/>
<path d="M69.2029 23.9741H67.3549V25.8064H69.2029V23.9741Z" fill="#F20000"/>
<path d="M67.3549 82.9395H65.5226V84.7717H67.3549V82.9395Z" fill="black"/>
<path d="M67.3549 81.0889H65.5226V82.9395H67.3549V81.0889Z" fill="#3C4360"/>
<path d="M67.3549 79.2566H65.5226V81.0889H67.3549V79.2566Z" fill="#3C4360"/>
<path d="M67.3549 77.406H65.5226V79.2566H67.3549V77.406Z" fill="#3C4360"/>
<path d="M67.3549 75.5554H65.5226V77.4034H67.3549V75.5554Z" fill="black"/>
<path d="M67.3549 73.7205H65.5226V75.5554H67.3549V73.7205Z" fill="#3C4360"/>
<path d="M67.3549 71.8725H65.5226V73.7205H67.3549V71.8725Z" fill="black"/>
<path d="M67.3549 70.0402H65.5226V71.8725H67.3549V70.0402Z" fill="black"/>
<path d="M67.3549 68.187H65.5226V70.0376H67.3549V68.187Z" fill="black"/>
<path d="M67.3549 66.3574H65.5226V68.1896H67.3549V66.3574Z" fill="black"/>
<path d="M67.3549 64.5041H65.5226V66.3547H67.3549V64.5041Z" fill="black"/>
<path d="M67.3549 62.6561H65.5226V64.5041H67.3549V62.6561Z" fill="#F49364"/>
<path d="M67.3549 60.8212H65.5226V62.6535H67.3549V60.8212Z" fill="#AD17AD"/>
<path d="M67.3549 58.9706H65.5226V60.8212H67.3549V58.9706Z" fill="#AD17AD"/>
<path d="M67.3549 57.1384H65.5226V58.9706H67.3549V57.1384Z" fill="#AD17AD"/>
<path d="M67.3549 55.2877H65.5226V57.1384H67.3549V55.2877Z" fill="#AD17AD"/>
<path d="M67.3549 53.4555H65.5226V55.2877H67.3549V53.4555Z" fill="#AD17AD"/>
<path d="M67.3549 51.6049H65.5226V53.4555H67.3549V51.6049Z" fill="#AD17AD"/>
<path d="M67.3549 49.7726H65.5226V51.6049H67.3549V49.7726Z" fill="#AD17AD"/>
<path d="M67.3549 47.922H65.5226V49.7726H67.3549V47.922Z" fill="#8A0391"/>
<path d="M67.3549 46.0714H65.5226V47.922H67.3549V46.0714Z" fill="black"/>
<path d="M67.3549 31.3399H65.5226V33.1721H67.3549V31.3399Z" fill="black"/>
<path d="M67.3549 29.4892H65.5226V31.3399H67.3549V29.4892Z" fill="black"/>
<path d="M67.3549 27.657H65.5226V29.4892H67.3549V27.657Z" fill="#F20000"/>
<path d="M67.3549 25.8037H65.5226V27.6544H67.3549V25.8037Z" fill="#F20000"/>
<path d="M67.3549 23.9741H65.5226V25.8064H67.3549V23.9741Z" fill="#F20000"/>
<path d="M65.52 82.9395H63.6693V84.7717H65.52V82.9395Z" fill="black"/>
<path d="M65.52 81.0889H63.6693V82.9395H65.52V81.0889Z" fill="#3C4360"/>
<path d="M65.52 79.2566H63.6693V81.0889H65.52V79.2566Z" fill="#3C4360"/>
<path d="M65.52 77.406H63.6693V79.2566H65.52V77.406Z" fill="#3C4360"/>
<path d="M65.52 75.5554H63.6693V77.4034H65.52V75.5554Z" fill="black"/>
<path d="M65.52 73.7205H63.6693V75.5554H65.52V73.7205Z" fill="#3C4360"/>
<path d="M65.52 71.8725H63.6693V73.7205H65.52V71.8725Z" fill="#8A0391"/>
<path d="M65.52 70.0402H63.6693V71.8725H65.52V70.0402Z" fill="#8A0391"/>
<path d="M65.52 68.187H63.6693V70.0376H65.52V68.187Z" fill="#8A0391"/>
<path d="M65.52 66.3574H63.6693V68.1896H65.52V66.3574Z" fill="#8A0391"/>
<path d="M65.52 64.5041H63.6693V66.3547H65.52V64.5041Z" fill="black"/>
<path d="M65.52 62.6561H63.6693V64.5041H65.52V62.6561Z" fill="#F49364"/>
<path d="M65.52 60.8212H63.6693V62.6535H65.52V60.8212Z" fill="#AD17AD"/>
<path d="M65.52 58.9706H63.6693V60.8212H65.52V58.9706Z" fill="#AD17AD"/>
<path d="M65.52 57.1384H63.6693V58.9706H65.52V57.1384Z" fill="#AD17AD"/>
<path d="M65.52 55.2877H63.6693V57.1384H65.52V55.2877Z" fill="#AD17AD"/>
<path d="M65.52 53.4555H63.6693V55.2877H65.52V53.4555Z" fill="#AD17AD"/>
<path d="M65.52 51.6049H63.6693V53.4555H65.52V51.6049Z" fill="#AD17AD"/>
<path d="M65.52 49.7726H63.6693V51.6049H65.52V49.7726Z" fill="#AD17AD"/>
<path d="M65.52 47.922H63.6693V49.7726H65.52V47.922Z" fill="#AD17AD"/>
<path d="M65.52 46.0714H63.6693V47.922H65.52V46.0714Z" fill="#500256"/>
<path d="M65.52 44.2391H63.6693V46.0714H65.52V44.2391Z" fill="black"/>
<path d="M65.52 40.5562H63.6693V42.3885H65.52V40.5562Z" fill="black"/>
<path d="M65.52 38.7056H63.6693V40.5562H65.52V38.7056Z" fill="black"/>
<path d="M65.52 36.8734H63.6693V38.7056H65.52V36.8734Z" fill="black"/>
<path d="M65.52 35.0227H63.6693V36.8734H65.52V35.0227Z" fill="black"/>
<path d="M65.52 33.1721H63.6693V35.0227H65.52V33.1721Z" fill="black"/>
<path d="M65.52 31.3399H63.6693V33.1721H65.52V31.3399Z" fill="#8A0391"/>
<path d="M65.52 29.4892H63.6693V31.3399H65.52V29.4892Z" fill="#F20000"/>
<path d="M65.52 27.657H63.6693V29.4892H65.52V27.657Z" fill="#F20000"/>
<path d="M65.52 25.8037H63.6693V27.6544H65.52V25.8037Z" fill="#F20000"/>
<path d="M63.6693 82.9395H61.8371V84.7717H63.6693V82.9395Z" fill="black"/>
<path d="M63.6693 81.0889H61.8371V82.9395H63.6693V81.0889Z" fill="#3C4360"/>
<path d="M63.6693 79.2566H61.8371V81.0889H63.6693V79.2566Z" fill="black"/>
<path d="M63.6693 77.406H61.8371V79.2566H63.6693V77.406Z" fill="black"/>
<path d="M63.6693 75.5554H61.8371V77.4034H63.6693V75.5554Z" fill="black"/>
<path d="M63.6693 73.7205H61.8371V75.5554H63.6693V73.7205Z" fill="#3C4360"/>
<path d="M63.6693 71.8725H61.8371V73.7205H63.6693V71.8725Z" fill="#8A0391"/>
<path d="M63.6693 70.0402H61.8371V71.8725H63.6693V70.0402Z" fill="#8A0391"/>
<path d="M63.6693 68.187H61.8371V70.0376H63.6693V68.187Z" fill="#AD17AD"/>
<path d="M63.6693 66.3574H61.8371V68.1896H63.6693V66.3574Z" fill="#AD17AD"/>
<path d="M63.6693 64.5041H61.8371V66.3547H63.6693V64.5041Z" fill="#AD17AD"/>
<path d="M63.6693 62.6561H61.8371V64.5041H63.6693V62.6561Z" fill="#B8602D"/>
<path d="M63.6693 60.8212H61.8371V62.6535H63.6693V60.8212Z" fill="#AD17AD"/>
<path d="M63.6693 58.9706H61.8371V60.8212H63.6693V58.9706Z" fill="#AD17AD"/>
<path d="M63.6693 57.1384H61.8371V58.9706H63.6693V57.1384Z" fill="#AD17AD"/>
<path d="M63.6693 55.2877H61.8371V57.1384H63.6693V55.2877Z" fill="#AD17AD"/>
<path d="M63.6693 53.4555H61.8371V55.2877H63.6693V53.4555Z" fill="#AD17AD"/>
<path d="M63.6693 51.6049H61.8371V53.4555H63.6693V51.6049Z" fill="#AD17AD"/>
<path d="M63.6693 49.7726H61.8371V51.6049H63.6693V49.7726Z" fill="#AD17AD"/>
<path d="M63.6693 47.922H61.8371V49.7726H63.6693V47.922Z" fill="#500256"/>
<path d="M63.6693 46.0714H61.8371V47.922H63.6693V46.0714Z" fill="#63036D"/>
<path d="M63.6693 44.2391H61.8371V46.0714H63.6693V44.2391Z" fill="black"/>
<path d="M63.6693 42.3885H61.8371V44.2391H63.6693V42.3885Z" fill="black"/>
<path d="M63.6693 40.5562H61.8371V42.3885H63.6693V40.5562Z" fill="#873810"/>
<path d="M63.6693 38.7056H61.8371V40.5562H63.6693V38.7056Z" fill="#873810"/>
<path d="M63.6693 36.8734H61.8371V38.7056H63.6693V36.8734Z" fill="#873810"/>
<path d="M63.6693 35.0227H61.8371V36.8734H63.6693V35.0227Z" fill="black"/>
<path d="M63.6693 33.1721H61.8371V35.0227H63.6693V33.1721Z" fill="#AD17AD"/>
<path d="M63.6693 31.3399H61.8371V33.1721H63.6693V31.3399Z" fill="#AD17AD"/>
<path d="M63.6693 29.4892H61.8371V31.3399H63.6693V29.4892Z" fill="#F20000"/>
<path d="M63.6693 27.657H61.8371V29.4892H63.6693V27.657Z" fill="#F20000"/>
<path d="M63.6693 25.8037H61.8371V27.6544H63.6693V25.8037Z" fill="black"/>
<path d="M61.8371 82.9395H59.9865V84.7717H61.8371V82.9395Z" fill="black"/>
<path d="M61.8371 81.0889H59.9865V82.9395H61.8371V81.0889Z" fill="black"/>
<path d="M61.8371 73.7205H59.9865V75.5554H61.8371V73.7205Z" fill="black"/>
<path d="M61.8371 71.8725H59.9865V73.7205H61.8371V71.8725Z" fill="#8A0391"/>
<path d="M61.8371 70.0402H59.9865V71.8725H61.8371V70.0402Z" fill="#8A0391"/>
<path d="M61.8371 68.187H59.9865V70.0376H61.8371V68.187Z" fill="#AD17AD"/>
<path d="M61.8371 66.3574H59.9865V68.1896H61.8371V66.3574Z" fill="#AD17AD"/>
<path d="M61.8371 64.5041H59.9865V66.3547H61.8371V64.5041Z" fill="#AD17AD"/>
<path d="M61.8371 62.6561H59.9865V64.5041H61.8371V62.6561Z" fill="#AD17AD"/>
<path d="M61.8371 60.8212H59.9865V62.6535H61.8371V60.8212Z" fill="#AD17AD"/>
<path d="M61.8371 58.9706H59.9865V60.8212H61.8371V58.9706Z" fill="#500256"/>
<path d="M61.8371 57.1384H59.9865V58.9706H61.8371V57.1384Z" fill="#500256"/>
<path d="M61.8371 55.2877H59.9865V57.1384H61.8371V55.2877Z" fill="#500256"/>
<path d="M61.8371 53.4555H59.9865V55.2877H61.8371V53.4555Z" fill="#500256"/>
<path d="M61.8371 51.6049H59.9865V53.4555H61.8371V51.6049Z" fill="#500256"/>
<path d="M61.8371 49.7726H59.9865V51.6049H61.8371V49.7726Z" fill="#500256"/>
<path d="M61.8371 47.922H59.9865V49.7726H61.8371V47.922Z" fill="#63036D"/>
<path d="M61.8371 46.0714H59.9865V47.922H61.8371V46.0714Z" fill="#63036D"/>
<path d="M61.8371 44.2391H59.9865V46.0714H61.8371V44.2391Z" fill="black"/>
<path d="M61.8371 42.3885H59.9865V44.2391H61.8371V42.3885Z" fill="#873810"/>
<path d="M61.8371 40.5562H59.9865V42.3885H61.8371V40.5562Z" fill="#F49364"/>
<path d="M61.8371 38.7056H59.9865V40.5562H61.8371V38.7056Z" fill="#F49364"/>
<path d="M61.8371 36.8734H59.9865V38.7056H61.8371V36.8734Z" fill="#873810"/>
<path d="M61.8371 35.0227H59.9865V36.8734H61.8371V35.0227Z" fill="black"/>
<path d="M61.8371 33.1721H59.9865V35.0227H61.8371V33.1721Z" fill="#AD17AD"/>
<path d="M61.8371 31.3399H59.9865V33.1721H61.8371V31.3399Z" fill="#AD17AD"/>
<path d="M61.8371 29.4892H59.9865V31.3399H61.8371V29.4892Z" fill="#8A0391"/>
<path d="M61.8371 27.657H59.9865V29.4892H61.8371V27.657Z" fill="#AD17AD"/>
<path d="M61.8371 25.8037H59.9865V27.6544H61.8371V25.8037Z" fill="#AD17AD"/>
<path d="M61.8371 23.9741H59.9865V25.8064H61.8371V23.9741Z" fill="black"/>
<path d="M59.9865 71.8725H58.1542V73.7205H59.9865V71.8725Z" fill="#570459"/>
<path d="M59.9865 70.0402H58.1542V71.8725H59.9865V70.0402Z" fill="#8A0391"/>
<path d="M59.9865 68.187H58.1542V70.0376H59.9865V68.187Z" fill="#AD17AD"/>
<path d="M59.9865 66.3574H58.1542V68.1896H59.9865V66.3574Z" fill="#AD17AD"/>
<path d="M59.9865 64.5041H58.1542V66.3547H59.9865V64.5041Z" fill="#AD17AD"/>
<path d="M59.9865 62.6561H58.1542V64.5041H59.9865V62.6561Z" fill="#AD17AD"/>
<path d="M59.9865 60.8212H58.1542V62.6535H59.9865V60.8212Z" fill="#AD17AD"/>
<path d="M59.9865 58.9706H58.1542V60.8212H59.9865V58.9706Z" fill="#500256"/>
<path d="M59.9865 57.1384H58.1542V58.9706H59.9865V57.1384Z" fill="#63036D"/>
<path d="M59.9865 55.2877H58.1542V57.1384H59.9865V55.2877Z" fill="#500256"/>
<path d="M59.9865 53.4555H58.1542V55.2877H59.9865V53.4555Z" fill="#63036D"/>
<path d="M59.9865 51.6049H58.1542V53.4555H59.9865V51.6049Z" fill="#63036D"/>
<path d="M59.9865 49.7726H58.1542V51.6049H59.9865V49.7726Z" fill="#63036D"/>
<path d="M59.9865 47.922H58.1542V49.7726H59.9865V47.922Z" fill="#63036D"/>
<path d="M59.9865 46.0714H58.1542V47.922H59.9865V46.0714Z" fill="black"/>
<path d="M59.9865 44.2391H58.1542V46.0714H59.9865V44.2391Z" fill="#873810"/>
<path d="M59.9865 42.3885H58.1542V44.2391H59.9865V42.3885Z" fill="#F49364"/>
<path d="M59.9865 40.5562H58.1542V42.3885H59.9865V40.5562Z" fill="#FFEFD3"/>
<path d="M59.9865 38.7056H58.1542V40.5562H59.9865V38.7056Z" fill="#FFEFD3"/>
<path d="M59.9865 36.8734H58.1542V38.7056H59.9865V36.8734Z" fill="#F49364"/>
<path d="M59.9865 35.0227H58.1542V36.8734H59.9865V35.0227Z" fill="black"/>
<path d="M59.9865 33.1721H58.1542V35.0227H59.9865V33.1721Z" fill="#AD17AD"/>
<path d="M59.9865 31.3399H58.1542V33.1721H59.9865V31.3399Z" fill="#AD17AD"/>
<path d="M59.9865 29.4892H58.1542V31.3399H59.9865V29.4892Z" fill="#AD17AD"/>
<path d="M59.9865 27.657H58.1542V29.4892H59.9865V27.657Z" fill="#AD17AD"/>
<path d="M59.9865 25.8037H58.1542V27.6544H59.9865V25.8037Z" fill="#AD17AD"/>
<path d="M59.9865 23.9741H58.1542V25.8064H59.9865V23.9741Z" fill="black"/>
<path d="M58.1542 82.9395H56.3036V84.7717H58.1542V82.9395Z" fill="black"/>
<path d="M58.1542 81.0889H56.3036V82.9395H58.1542V81.0889Z" fill="black"/>
<path d="M58.1542 79.2566H56.3036V81.0889H58.1542V79.2566Z" fill="black"/>
<path d="M58.1542 77.406H56.3036V79.2566H58.1542V77.406Z" fill="black"/>
<path d="M58.1542 75.5554H56.3036V77.4034H58.1542V75.5554Z" fill="black"/>
<path d="M58.1542 73.7205H56.3036V75.5554H58.1542V73.7205Z" fill="black"/>
<path d="M58.1542 71.8725H56.3036V73.7205H58.1542V71.8725Z" fill="black"/>
<path d="M58.1542 70.0402H56.3036V71.8725H58.1542V70.0402Z" fill="#570459"/>
<path d="M58.1542 68.187H56.3036V70.0376H58.1542V68.187Z" fill="#8A0391"/>
<path d="M58.1542 66.3574H56.3036V68.1896H58.1542V66.3574Z" fill="#AD17AD"/>
<path d="M58.1542 64.5041H56.3036V66.3547H58.1542V64.5041Z" fill="#AD17AD"/>
<path d="M58.1542 62.6561H56.3036V64.5041H58.1542V62.6561Z" fill="#AD17AD"/>
<path d="M58.1542 60.8212H56.3036V62.6535H58.1542V60.8212Z" fill="#AD17AD"/>
<path d="M58.1542 58.9706H56.3036V60.8212H58.1542V58.9706Z" fill="#500256"/>
<path d="M58.1542 57.1384H56.3036V58.9706H58.1542V57.1384Z" fill="#63036D"/>
<path d="M58.1542 55.2877H56.3036V57.1384H58.1542V55.2877Z" fill="#500256"/>
<path d="M58.1542 53.4555H56.3036V55.2877H58.1542V53.4555Z" fill="#63036D"/>
<path d="M58.1542 51.6049H56.3036V53.4555H58.1542V51.6049Z" fill="#63036D"/>
<path d="M58.1542 49.7726H56.3036V51.6049H58.1542V49.7726Z" fill="#63036D"/>
<path d="M58.1542 47.922H56.3036V49.7726H58.1542V47.922Z" fill="black"/>
<path d="M58.1542 46.0714H56.3036V47.922H58.1542V46.0714Z" fill="#F49364"/>
<path d="M58.1542 44.2391H56.3036V46.0714H58.1542V44.2391Z" fill="#873810"/>
<path d="M58.1542 42.3885H56.3036V44.2391H58.1542V42.3885Z" fill="#FFEFD3"/>
<path d="M58.1542 40.5562H56.3036V42.3885H58.1542V40.5562Z" fill="#FFEFD3"/>
<path d="M58.1542 38.7056H56.3036V40.5562H58.1542V38.7056Z" fill="#FFEFD3"/>
<path d="M58.1542 36.8734H56.3036V38.7056H58.1542V36.8734Z" fill="black"/>
<path d="M58.1542 35.0227H56.3036V36.8734H58.1542V35.0227Z" fill="#AD17AD"/>
<path d="M58.1542 33.1721H56.3036V35.0227H58.1542V33.1721Z" fill="#AD17AD"/>
<path d="M58.1542 31.3399H56.3036V33.1721H58.1542V31.3399Z" fill="#AD17AD"/>
<path d="M58.1542 29.4892H56.3036V31.3399H58.1542V29.4892Z" fill="#AD17AD"/>
<path d="M58.1542 27.657H56.3036V29.4892H58.1542V27.657Z" fill="#AD17AD"/>
<path d="M58.1542 25.8037H56.3036V27.6544H58.1542V25.8037Z" fill="#AD17AD"/>
<path d="M58.1542 23.9741H56.3036V25.8064H58.1542V23.9741Z" fill="black"/>
<path d="M56.3036 82.9395H54.4713V84.7717H56.3036V82.9395Z" fill="black"/>
<path d="M56.3036 81.0889H54.4713V82.9395H56.3036V81.0889Z" fill="#3C4360"/>
<path d="M56.3036 79.2566H54.4713V81.0889H56.3036V79.2566Z" fill="#3C4360"/>
<path d="M56.3036 77.406H54.4713V79.2566H56.3036V77.406Z" fill="#3C4360"/>
<path d="M56.3036 75.5554H54.4713V77.4034H56.3036V75.5554Z" fill="black"/>
<path d="M56.3036 73.7205H54.4713V75.5554H56.3036V73.7205Z" fill="#3C4360"/>
<path d="M56.3036 71.8725H54.4713V73.7205H56.3036V71.8725Z" fill="#570459"/>
<path d="M56.3036 70.0402H54.4713V71.8725H56.3036V70.0402Z" fill="#8A0391"/>
<path d="M56.3036 68.187H54.4713V70.0376H56.3036V68.187Z" fill="#570459"/>
<path d="M56.3036 66.3574H54.4713V68.1896H56.3036V66.3574Z" fill="#8A0391"/>
<path d="M56.3036 64.5041H54.4713V66.3547H56.3036V64.5041Z" fill="#AD17AD"/>
<path d="M56.3036 62.6561H54.4713V64.5041H56.3036V62.6561Z" fill="#AD17AD"/>
<path d="M56.3036 60.8212H54.4713V62.6535H56.3036V60.8212Z" fill="#AD17AD"/>
<path d="M56.3036 58.9706H54.4713V60.8212H56.3036V58.9706Z" fill="#500256"/>
<path d="M56.3036 57.1384H54.4713V58.9706H56.3036V57.1384Z" fill="#500256"/>
<path d="M56.3036 55.2877H54.4713V57.1384H56.3036V55.2877Z" fill="#500256"/>
<path d="M56.3036 53.4555H54.4713V55.2877H56.3036V53.4555Z" fill="#500256"/>
<path d="M56.3036 51.6049H54.4713V53.4555H56.3036V51.6049Z" fill="#500256"/>
<path d="M56.3036 49.7726H54.4713V51.6049H56.3036V49.7726Z" fill="#500256"/>
<path d="M56.3036 47.922H54.4713V49.7726H56.3036V47.922Z" fill="black"/>
<path d="M56.3036 46.0714H54.4713V47.922H56.3036V46.0714Z" fill="#F49364"/>
<path d="M56.3036 44.2391H54.4713V46.0714H56.3036V44.2391Z" fill="#873810"/>
<path d="M56.3036 42.3885H54.4713V44.2391H56.3036V42.3885Z" fill="#FFEFD3"/>
<path d="M56.3036 40.5562H54.4713V42.3885H56.3036V40.5562Z" fill="#FFEFD3"/>
<path d="M56.3036 38.7056H54.4713V40.5562H56.3036V38.7056Z" fill="#FFEFD3"/>
<path d="M56.3036 36.8734H54.4713V38.7056H56.3036V36.8734Z" fill="black"/>
<path d="M56.3036 35.0227H54.4713V36.8734H56.3036V35.0227Z" fill="#AD17AD"/>
<path d="M56.3036 33.1721H54.4713V35.0227H56.3036V33.1721Z" fill="#AD17AD"/>
<path d="M56.3036 31.3399H54.4713V33.1721H56.3036V31.3399Z" fill="#8A0391"/>
<path d="M56.3036 29.4892H54.4713V31.3399H56.3036V29.4892Z" fill="#AD17AD"/>
<path d="M56.3036 27.657H54.4713V29.4892H56.3036V27.657Z" fill="#AD17AD"/>
<path d="M56.3036 25.8037H54.4713V27.6544H56.3036V25.8037Z" fill="#AD17AD"/>
<path d="M56.3036 23.9741H54.4713V25.8064H56.3036V23.9741Z" fill="black"/>
<path d="M54.4713 82.9395H52.6207V84.7717H54.4713V82.9395Z" fill="black"/>
<path d="M54.4713 81.0889H52.6207V82.9395H54.4713V81.0889Z" fill="#3C4360"/>
<path d="M54.4713 79.2566H52.6207V81.0889H54.4713V79.2566Z" fill="#3C4360"/>
<path d="M54.4713 77.406H52.6207V79.2566H54.4713V77.406Z" fill="#3C4360"/>
<path d="M54.4713 75.5554H52.6207V77.4034H54.4713V75.5554Z" fill="black"/>
<path d="M54.4713 73.7205H52.6207V75.5554H54.4713V73.7205Z" fill="#3C4360"/>
<path d="M54.4713 71.8725H52.6207V73.7205H54.4713V71.8725Z" fill="#570459"/>
<path d="M54.4713 70.0402H52.6207V71.8725H54.4713V70.0402Z" fill="#8A0391"/>
<path d="M54.4713 68.187H52.6207V70.0376H54.4713V68.187Z" fill="#AD17AD"/>
<path d="M54.4713 66.3574H52.6207V68.1896H54.4713V66.3574Z" fill="#570459"/>
<path d="M54.4713 64.5041H52.6207V66.3547H54.4713V64.5041Z" fill="#570459"/>
<path d="M54.4713 62.6561H52.6207V64.5041H54.4713V62.6561Z" fill="#AD17AD"/>
<path d="M54.4713 60.8212H52.6207V62.6535H54.4713V60.8212Z" fill="#AD17AD"/>
<path d="M54.4713 58.9706H52.6207V60.8212H54.4713V58.9706Z" fill="#500256"/>
<path d="M54.4713 57.1384H52.6207V58.9706H54.4713V57.1384Z" fill="#500256"/>
<path d="M54.4713 55.2877H52.6207V57.1384H54.4713V55.2877Z" fill="#500256"/>
<path d="M54.4713 53.4555H52.6207V55.2877H54.4713V53.4555Z" fill="#500256"/>
<path d="M54.4713 51.6049H52.6207V53.4555H54.4713V51.6049Z" fill="#500256"/>
<path d="M54.4713 49.7726H52.6207V51.6049H54.4713V49.7726Z" fill="#500256"/>
<path d="M54.4713 47.922H52.6207V49.7726H54.4713V47.922Z" fill="black"/>
<path d="M54.4713 46.0714H52.6207V47.922H54.4713V46.0714Z" fill="#500256"/>
<path d="M54.4713 44.2391H52.6207V46.0714H54.4713V44.2391Z" fill="black"/>
<path d="M54.4713 42.3885H52.6207V44.2391H54.4713V42.3885Z" fill="#FFEFD3"/>
<path d="M54.4713 40.5562H52.6207V42.3885H54.4713V40.5562Z" fill="#FFEFD3"/>
<path d="M54.4713 38.7056H52.6207V40.5562H54.4713V38.7056Z" fill="#FFEFD3"/>
<path d="M54.4713 36.8734H52.6207V38.7056H54.4713V36.8734Z" fill="black"/>
<path d="M54.4713 35.0227H52.6207V36.8734H54.4713V35.0227Z" fill="#AD17AD"/>
<path d="M54.4713 33.1721H52.6207V35.0227H54.4713V33.1721Z" fill="#AD17AD"/>
<path d="M54.4713 31.3399H52.6207V33.1721H54.4713V31.3399Z" fill="#8A0391"/>
<path d="M54.4713 29.4892H52.6207V31.3399H54.4713V29.4892Z" fill="#AD17AD"/>
<path d="M54.4713 27.657H52.6207V29.4892H54.4713V27.657Z" fill="#AD17AD"/>
<path d="M54.4713 25.8037H52.6207V27.6544H54.4713V25.8037Z" fill="black"/>
<path d="M52.6207 82.9395H50.7701V84.7717H52.6207V82.9395Z" fill="black"/>
<path d="M52.6207 81.0889H50.7701V82.9395H52.6207V81.0889Z" fill="#3C4360"/>
<path d="M52.6207 79.2566H50.7701V81.0889H52.6207V79.2566Z" fill="black"/>
<path d="M52.6207 77.406H50.7701V79.2566H52.6207V77.406Z" fill="black"/>
<path d="M52.6207 75.5554H50.7701V77.4034H52.6207V75.5554Z" fill="black"/>
<path d="M52.6207 73.7205H50.7701V75.5554H52.6207V73.7205Z" fill="#3C4360"/>
<path d="M52.6207 71.8725H50.7701V73.7205H52.6207V71.8725Z" fill="#570459"/>
<path d="M52.6207 70.0402H50.7701V71.8725H52.6207V70.0402Z" fill="#8A0391"/>
<path d="M52.6207 68.187H50.7701V70.0376H52.6207V68.187Z" fill="#AD17AD"/>
<path d="M52.6207 66.3574H50.7701V68.1896H52.6207V66.3574Z" fill="#AD17AD"/>
<path d="M52.6207 64.5041H50.7701V66.3547H52.6207V64.5041Z" fill="#AD17AD"/>
<path d="M52.6207 62.6561H50.7701V64.5041H52.6207V62.6561Z" fill="#AD17AD"/>
<path d="M52.6207 60.8212H50.7701V62.6535H52.6207V60.8212Z" fill="#AD17AD"/>
<path d="M52.6207 58.9706H50.7701V60.8212H52.6207V58.9706Z" fill="#500256"/>
<path d="M52.6207 57.1384H50.7701V58.9706H52.6207V57.1384Z" fill="#500256"/>
<path d="M52.6207 55.2877H50.7701V57.1384H52.6207V55.2877Z" fill="#500256"/>
<path d="M52.6207 53.4555H50.7701V55.2877H52.6207V53.4555Z" fill="#500256"/>
<path d="M52.6207 51.6049H50.7701V53.4555H52.6207V51.6049Z" fill="#500256"/>
<path d="M52.6207 49.7726H50.7701V51.6049H52.6207V49.7726Z" fill="#500256"/>
<path d="M52.6207 47.922H50.7701V49.7726H52.6207V47.922Z" fill="#500256"/>
<path d="M52.6207 46.0714H50.7701V47.922H52.6207V46.0714Z" fill="black"/>
<path d="M52.6207 44.2391H50.7701V46.0714H52.6207V44.2391Z" fill="black"/>
<path d="M52.6207 42.3885H50.7701V44.2391H52.6207V42.3885Z" fill="black"/>
<path d="M52.6207 40.5562H50.7701V42.3885H52.6207V40.5562Z" fill="black"/>
<path d="M52.6207 38.7056H50.7701V40.5562H52.6207V38.7056Z" fill="black"/>
<path d="M52.6207 36.8734H50.7701V38.7056H52.6207V36.8734Z" fill="black"/>
<path d="M52.6207 35.0227H50.7701V36.8734H52.6207V35.0227Z" fill="#AD17AD"/>
<path d="M52.6207 33.1721H50.7701V35.0227H52.6207V33.1721Z" fill="#AD17AD"/>
<path d="M52.6207 31.3399H50.7701V33.1721H52.6207V31.3399Z" fill="#8A0391"/>
<path d="M52.6207 29.4892H50.7701V31.3399H52.6207V29.4892Z" fill="#AD17AD"/>
<path d="M52.6207 27.657H50.7701V29.4892H52.6207V27.657Z" fill="black"/>
<path d="M50.7701 82.9395H48.9378V84.7717H50.7701V82.9395Z" fill="black"/>
<path d="M50.7701 81.0889H48.9378V82.9395H50.7701V81.0889Z" fill="black"/>
<path d="M50.7701 73.7205H48.9378V75.5554H50.7701V73.7205Z" fill="black"/>
<path d="M50.7701 71.8725H48.9378V73.7205H50.7701V71.8725Z" fill="black"/>
<path d="M50.7701 70.0402H48.9378V71.8725H50.7701V70.0402Z" fill="#8A0391"/>
<path d="M50.7701 68.187H48.9378V70.0376H50.7701V68.187Z" fill="#AD17AD"/>
<path d="M50.7701 66.3574H48.9378V68.1896H50.7701V66.3574Z" fill="#AD17AD"/>
<path d="M50.7701 64.5041H48.9378V66.3547H50.7701V64.5041Z" fill="#AD17AD"/>
<path d="M50.7701 62.6561H48.9378V64.5041H50.7701V62.6561Z" fill="#AD17AD"/>
<path d="M50.7701 60.8212H48.9378V62.6535H50.7701V60.8212Z" fill="#AD17AD"/>
<path d="M50.7701 58.9706H48.9378V60.8212H50.7701V58.9706Z" fill="black"/>
<path d="M50.7701 57.1384H48.9378V58.9706H50.7701V57.1384Z" fill="black"/>
<path d="M50.7701 55.2877H48.9378V57.1384H50.7701V55.2877Z" fill="black"/>
<path d="M50.7701 53.4555H48.9378V55.2877H50.7701V53.4555Z" fill="black"/>
<path d="M50.7701 51.6049H48.9378V53.4555H50.7701V51.6049Z" fill="black"/>
<path d="M50.7701 49.7726H48.9378V51.6049H50.7701V49.7726Z" fill="black"/>
<path d="M50.7701 47.922H48.9378V49.7726H50.7701V47.922Z" fill="black"/>
<path d="M50.7701 46.0714H48.9378V47.922H50.7701V46.0714Z" fill="black"/>
<path d="M50.7701 36.8734H48.9378V38.7056H50.7701V36.8734Z" fill="black"/>
<path d="M50.7701 35.0227H48.9378V36.8734H50.7701V35.0227Z" fill="#AD17AD"/>
<path d="M50.7701 33.1721H48.9378V35.0227H50.7701V33.1721Z" fill="#AD17AD"/>
<path d="M50.7701 31.3399H48.9378V33.1721H50.7701V31.3399Z" fill="#8A0391"/>
<path d="M50.7701 29.4892H48.9378V31.3399H50.7701V29.4892Z" fill="black"/>
<path d="M48.9378 70.0402H47.0872V71.8725H48.9378V70.0402Z" fill="black"/>
<path d="M48.9378 68.187H47.0872V70.0376H48.9378V68.187Z" fill="black"/>
<path d="M48.9378 66.3574H47.0872V68.1896H48.9378V66.3574Z" fill="black"/>
<path d="M48.9378 64.5041H47.0872V66.3547H48.9378V64.5041Z" fill="black"/>
<path d="M48.9378 62.6561H47.0872V64.5041H48.9378V62.6561Z" fill="black"/>
<path d="M48.9378 60.8212H47.0872V62.6535H48.9378V60.8212Z" fill="black"/>
<path d="M48.9378 55.2877H47.0872V57.1384H48.9378V55.2877Z" fill="black"/>
<path d="M48.9378 53.4555H47.0872V55.2877H48.9378V53.4555Z" fill="#8A0391"/>
<path d="M48.9378 51.6049H47.0872V53.4555H48.9378V51.6049Z" fill="#8A0391"/>
<path d="M48.9378 49.7726H47.0872V51.6049H48.9378V49.7726Z" fill="#8A0391"/>
<path d="M48.9378 47.922H47.0872V49.7726H48.9378V47.922Z" fill="black"/>
<path d="M48.9378 36.8734H47.0872V38.7056H48.9378V36.8734Z" fill="black"/>
<path d="M48.9378 35.0227H47.0872V36.8734H48.9378V35.0227Z" fill="#AD17AD"/>
<path d="M48.9378 33.1721H47.0872V35.0227H48.9378V33.1721Z" fill="#AD17AD"/>
<path d="M48.9378 31.3399H47.0872V33.1721H48.9378V31.3399Z" fill="black"/>
<path d="M47.0872 57.1384H45.255V58.9706H47.0872V57.1384Z" fill="black"/>
<path d="M47.0872 55.2877H45.255V57.1384H47.0872V55.2877Z" fill="#8A0391"/>
<path d="M47.0872 53.4555H45.255V55.2877H47.0872V53.4555Z" fill="#8A0391"/>
<path d="M47.0872 51.6049H45.255V53.4555H47.0872V51.6049Z" fill="#8A0391"/>
<path d="M47.0872 49.7726H45.255V51.6049H47.0872V49.7726Z" fill="black"/>
<path d="M47.0872 35.0227H45.255V36.8734H47.0872V35.0227Z" fill="black"/>
<path d="M47.0872 33.1721H45.255V35.0227H47.0872V33.1721Z" fill="black"/>
<path d="M45.255 75.5554H43.4044V77.4034H45.255V75.5554Z" fill="black"/>
<path d="M45.255 73.7205H43.4044V75.5554H45.255V73.7205Z" fill="black"/>
<path d="M45.255 57.1384H43.4044V58.9706H45.255V57.1384Z" fill="black"/>
<path d="M45.255 55.2877H43.4044V57.1384H45.255V55.2877Z" fill="#8A0391"/>
<path d="M45.255 53.4555H43.4044V55.2877H45.255V53.4555Z" fill="#8A0391"/>
<path d="M45.255 51.6049H43.4044V53.4555H45.255V51.6049Z" fill="black"/>
<path d="M45.255 29.4892H43.4044V31.3399H45.255V29.4892Z" fill="black"/>
<path d="M45.255 27.657H43.4044V29.4892H45.255V27.657Z" fill="black"/>
<path d="M43.4044 77.406H41.5721V79.2566H43.4044V77.406Z" fill="black"/>
<path d="M43.4044 75.5554H41.5721V77.4034H43.4044V75.5554Z" fill="#B8602D"/>
<path d="M43.4044 73.7205H41.5721V75.5554H43.4044V73.7205Z" fill="#FFEFD3"/>
<path d="M43.4044 71.8725H41.5721V73.7205H43.4044V71.8725Z" fill="#FFEFD3"/>
<path d="M43.4044 70.0402H41.5721V71.8725H43.4044V70.0402Z" fill="#FFEFD3"/>
<path d="M43.4044 68.187H41.5721V70.0376H43.4044V68.187Z" fill="#FFEFD3"/>
<path d="M43.4044 66.3574H41.5721V68.1896H43.4044V66.3574Z" fill="#FFEFD3"/>
<path d="M43.4044 64.5041H41.5721V66.3547H43.4044V64.5041Z" fill="#FFEFD3"/>
<path d="M43.4044 62.6561H41.5721V64.5041H43.4044V62.6561Z" fill="#FFEFD3"/>
<path d="M43.4044 60.8212H41.5721V62.6535H43.4044V60.8212Z" fill="#FFEFD3"/>
<path d="M43.4044 58.9706H41.5721V60.8212H43.4044V58.9706Z" fill="#FFEFD3"/>
<path d="M43.4044 57.1384H41.5721V58.9706H43.4044V57.1384Z" fill="#FFEFD3"/>
<path d="M43.4044 55.2877H41.5721V57.1384H43.4044V55.2877Z" fill="#FFEFD3"/>
<path d="M43.4044 53.4555H41.5721V55.2877H43.4044V53.4555Z" fill="#FFEFD3"/>
<path d="M43.4044 51.6049H41.5721V53.4555H43.4044V51.6049Z" fill="#FFEFD3"/>
<path d="M43.4044 49.7726H41.5721V51.6049H43.4044V49.7726Z" fill="#FFEFD3"/>
<path d="M43.4044 47.922H41.5721V49.7726H43.4044V47.922Z" fill="#FFEFD3"/>
<path d="M43.4044 46.0714H41.5721V47.922H43.4044V46.0714Z" fill="#FFEFD3"/>
<path d="M43.4044 44.2391H41.5721V46.0714H43.4044V44.2391Z" fill="#FFEFD3"/>
<path d="M43.4044 42.3885H41.5721V44.2391H43.4044V42.3885Z" fill="#FFEFD3"/>
<path d="M43.4044 40.5562H41.5721V42.3885H43.4044V40.5562Z" fill="#FFEFD3"/>
<path d="M43.4044 38.7056H41.5721V40.5562H43.4044V38.7056Z" fill="#FFEFD3"/>
<path d="M43.4044 36.8734H41.5721V38.7056H43.4044V36.8734Z" fill="#FFEFD3"/>
<path d="M43.4044 35.0227H41.5721V36.8734H43.4044V35.0227Z" fill="#FFEFD3"/>
<path d="M43.4044 33.1721H41.5721V35.0227H43.4044V33.1721Z" fill="#FFEFD3"/>
<path d="M43.4044 31.3399H41.5721V33.1721H43.4044V31.3399Z" fill="#FFEFD3"/>
<path d="M43.4044 29.4892H41.5721V31.3399H43.4044V29.4892Z" fill="#FFEFD3"/>
<path d="M43.4044 27.657H41.5721V29.4892H43.4044V27.657Z" fill="#B8602D"/>
<path d="M43.4044 25.8037H41.5721V27.6544H43.4044V25.8037Z" fill="black"/>
<path d="M41.5721 75.5554H39.7215V77.4034H41.5721V75.5554Z" fill="black"/>
<path d="M41.5721 73.7205H39.7215V75.5554H41.5721V73.7205Z" fill="black"/>
<path d="M41.5721 71.8725H39.7215V73.7205H41.5721V71.8725Z" fill="#B8602D"/>
<path d="M41.5721 70.0402H39.7215V71.8725H41.5721V70.0402Z" fill="#B8602D"/>
<path d="M41.5721 68.187H39.7215V70.0376H41.5721V68.187Z" fill="black"/>
<path d="M41.5721 57.1384H39.7215V58.9706H41.5721V57.1384Z" fill="black"/>
<path d="M41.5721 55.2877H39.7215V57.1384H41.5721V55.2877Z" fill="#8A0391"/>
<path d="M41.5721 53.4555H39.7215V55.2877H41.5721V53.4555Z" fill="#8A0391"/>
<path d="M41.5721 51.6049H39.7215V53.4555H41.5721V51.6049Z" fill="black"/>
<path d="M41.5721 35.0227H39.7215V36.8734H41.5721V35.0227Z" fill="black"/>
<path d="M41.5721 33.1721H39.7215V35.0227H41.5721V33.1721Z" fill="#B8602D"/>
<path d="M41.5721 31.3399H39.7215V33.1721H41.5721V31.3399Z" fill="#B8602D"/>
<path d="M41.5721 29.4892H39.7215V31.3399H41.5721V29.4892Z" fill="black"/>
<path d="M41.5721 27.657H39.7215V29.4892H41.5721V27.657Z" fill="black"/>
<path d="M39.7215 71.8725H37.8709V73.7205H39.7215V71.8725Z" fill="black"/>
<path d="M39.7215 70.0402H37.8709V71.8725H39.7215V70.0402Z" fill="#B8602D"/>
<path d="M39.7215 68.187H37.8709V70.0376H39.7215V68.187Z" fill="#B8602D"/>
<path d="M39.7215 66.3574H37.8709V68.1896H39.7215V66.3574Z" fill="black"/>
<path d="M39.7215 57.1384H37.8709V58.9706H39.7215V57.1384Z" fill="black"/>
<path d="M39.7215 55.2877H37.8709V57.1384H39.7215V55.2877Z" fill="#873810"/>
<path d="M39.7215 53.4555H37.8709V55.2877H39.7215V53.4555Z" fill="black"/>
<path d="M39.7215 51.6049H37.8709V53.4555H39.7215V51.6049Z" fill="#873810"/>
<path d="M39.7215 36.8734H37.8709V38.7056H39.7215V36.8734Z" fill="black"/>
<path d="M39.7215 35.0227H37.8709V36.8734H39.7215V35.0227Z" fill="#B8602D"/>
<path d="M39.7215 33.1721H37.8709V35.0227H39.7215V33.1721Z" fill="#B8602D"/>
<path d="M39.7215 31.3399H37.8709V33.1721H39.7215V31.3399Z" fill="black"/>
<path d="M37.8709 70.0402H36.0386V71.8725H37.8709V70.0402Z" fill="black"/>
<path d="M37.8709 68.187H36.0386V70.0376H37.8709V68.187Z" fill="#B8602D"/>
<path d="M37.8709 66.3574H36.0386V68.1896H37.8709V66.3574Z" fill="#B8602D"/>
<path d="M37.8709 64.5041H36.0386V66.3547H37.8709V64.5041Z" fill="black"/>
<path d="M37.8709 62.6561H36.0386V64.5041H37.8709V62.6561Z" fill="black"/>
<path d="M37.8709 57.1384H36.0386V58.9706H37.8709V57.1384Z" fill="black"/>
<path d="M37.8709 55.2877H36.0386V57.1384H37.8709V55.2877Z" fill="#873810"/>
<path d="M37.8709 53.4555H36.0386V55.2877H37.8709V53.4555Z" fill="#F49364"/>
<path d="M37.8709 51.6049H36.0386V53.4555H37.8709V51.6049Z" fill="black"/>
<path d="M37.8709 40.5562H36.0386V42.3885H37.8709V40.5562Z" fill="black"/>
<path d="M37.8709 38.7056H36.0386V40.5562H37.8709V38.7056Z" fill="black"/>
<path d="M37.8709 36.8734H36.0386V38.7056H37.8709V36.8734Z" fill="#B8602D"/>
<path d="M37.8709 35.0227H36.0386V36.8734H37.8709V35.0227Z" fill="#B8602D"/>
<path d="M37.8709 33.1721H36.0386V35.0227H37.8709V33.1721Z" fill="black"/>
<path d="M36.0386 68.187H34.188V70.0376H36.0386V68.187Z" fill="black"/>
<path d="M36.0386 66.3574H34.188V68.1896H36.0386V66.3574Z" fill="#B8602D"/>
<path d="M36.0386 64.5041H34.188V66.3547H36.0386V64.5041Z" fill="#B8602D"/>
<path d="M36.0386 62.6561H34.188V64.5041H36.0386V62.6561Z" fill="#B8602D"/>
<path d="M36.0386 60.8212H34.188V62.6535H36.0386V60.8212Z" fill="black"/>
<path d="M36.0386 58.9706H34.188V60.8212H36.0386V58.9706Z" fill="black"/>
<path d="M36.0386 57.1384H34.188V58.9706H36.0386V57.1384Z" fill="black"/>
<path d="M36.0386 55.2877H34.188V57.1384H36.0386V55.2877Z" fill="black"/>
<path d="M36.0386 53.4555H34.188V55.2877H36.0386V53.4555Z" fill="#873810"/>
<path d="M36.0386 51.6049H34.188V53.4555H36.0386V51.6049Z" fill="#F49364"/>
<path d="M36.0386 49.7726H34.188V51.6049H36.0386V49.7726Z" fill="black"/>
<path d="M36.0386 47.922H34.188V49.7726H36.0386V47.922Z" fill="black"/>
<path d="M36.0386 46.0714H34.188V47.922H36.0386V46.0714Z" fill="black"/>
<path d="M36.0386 44.2391H34.188V46.0714H36.0386V44.2391Z" fill="black"/>
<path d="M36.0386 42.3885H34.188V44.2391H36.0386V42.3885Z" fill="black"/>
<path d="M36.0386 40.5562H34.188V42.3885H36.0386V40.5562Z" fill="#B8602D"/>
<path d="M36.0386 38.7056H34.188V40.5562H36.0386V38.7056Z" fill="#B8602D"/>
<path d="M36.0386 36.8734H34.188V38.7056H36.0386V36.8734Z" fill="#B8602D"/>
<path d="M36.0386 35.0227H34.188V36.8734H36.0386V35.0227Z" fill="black"/>
<path d="M34.188 66.3574H32.3557V68.1896H34.188V66.3574Z" fill="black"/>
<path d="M34.188 64.5041H32.3557V66.3547H34.188V64.5041Z" fill="black"/>
<path d="M34.188 62.6561H32.3557V64.5041H34.188V62.6561Z" fill="#B8602D"/>
<path d="M34.188 60.8212H32.3557V62.6535H34.188V60.8212Z" fill="#B8602D"/>
<path d="M34.188 58.9706H32.3557V60.8212H34.188V58.9706Z" fill="#B8602D"/>
<path d="M34.188 57.1384H32.3557V58.9706H34.188V57.1384Z" fill="#B8602D"/>
<path d="M34.188 55.2877H32.3557V57.1384H34.188V55.2877Z" fill="#B8602D"/>
<path d="M34.188 53.4555H32.3557V55.2877H34.188V53.4555Z" fill="#873810"/>
<path d="M34.188 51.6049H32.3557V53.4555H34.188V51.6049Z" fill="#873810"/>
<path d="M34.188 49.7726H32.3557V51.6049H34.188V49.7726Z" fill="#B8602D"/>
<path d="M34.188 47.922H32.3557V49.7726H34.188V47.922Z" fill="#B8602D"/>
<path d="M34.188 46.0714H32.3557V47.922H34.188V46.0714Z" fill="#B8602D"/>
<path d="M34.188 44.2391H32.3557V46.0714H34.188V44.2391Z" fill="#B8602D"/>
<path d="M34.188 42.3885H32.3557V44.2391H34.188V42.3885Z" fill="#B8602D"/>
<path d="M34.188 40.5562H32.3557V42.3885H34.188V40.5562Z" fill="#B8602D"/>
<path d="M34.188 38.7056H32.3557V40.5562H34.188V38.7056Z" fill="black"/>
<path d="M34.188 36.8734H32.3557V38.7056H34.188V36.8734Z" fill="black"/>
<path d="M32.3557 62.6561H30.5051V64.5041H32.3557V62.6561Z" fill="black"/>
<path d="M32.3557 60.8212H30.5051V62.6535H32.3557V60.8212Z" fill="black"/>
<path d="M32.3557 58.9706H30.5051V60.8212H32.3557V58.9706Z" fill="black"/>
<path d="M32.3557 57.1384H30.5051V58.9706H32.3557V57.1384Z" fill="black"/>
<path d="M32.3557 55.2877H30.5051V57.1384H32.3557V55.2877Z" fill="#F49364"/>
<path d="M32.3557 53.4555H30.5051V55.2877H32.3557V53.4555Z" fill="#F49364"/>
<path d="M32.3557 51.6049H30.5051V53.4555H32.3557V51.6049Z" fill="#F49364"/>
<path d="M32.3557 49.7726H30.5051V51.6049H32.3557V49.7726Z" fill="black"/>
<path d="M32.3557 47.922H30.5051V49.7726H32.3557V47.922Z" fill="black"/>
<path d="M32.3557 46.0714H30.5051V47.922H32.3557V46.0714Z" fill="black"/>
<path d="M32.3557 44.2391H30.5051V46.0714H32.3557V44.2391Z" fill="black"/>
<path d="M32.3557 42.3885H30.5051V44.2391H32.3557V42.3885Z" fill="black"/>
<path d="M32.3557 40.5562H30.5051V42.3885H32.3557V40.5562Z" fill="black"/>
<path d="M30.5051 55.2877H28.6729V57.1384H30.5051V55.2877Z" fill="black"/>
<path d="M30.5051 53.4555H28.6729V55.2877H30.5051V53.4555Z" fill="black"/>
<path d="M30.5051 51.6049H28.6729V53.4555H30.5051V51.6049Z" fill="black"/>
</svg>
