<svg width="105" height="105" viewBox="0 0 105 105" fill="none" xmlns="http://www.w3.org/2000/svg">
<path d="M52.5005 4.73279C78.8831 4.73297 100.267 26.1202 100.267 52.5004C100.267 78.8803 78.8804 100.267 52.5005 100.267C26.1204 100.267 4.73309 78.8804 4.73291 52.5004C4.73291 26.1201 26.1177 4.73279 52.5005 4.73279Z" fill="#F9F7E7" stroke="#29100A" stroke-width="2"/>
<path d="M91.6308 63.5696H89.8169V65.3677H91.6308V63.5696Z" fill="black"/>
<path d="M89.8196 65.3651H88.0215V67.179H89.8196V65.3651Z" fill="black"/>
<path d="M89.8196 63.5696H88.0215V65.3677H89.8196V63.5696Z" fill="#1E2A3F"/>
<path d="M89.8196 61.7532H88.0215V63.5671H89.8196V61.7532Z" fill="black"/>
<path d="M88.019 67.1816H86.2051V68.9798H88.019V67.1816Z" fill="black"/>
<path d="M88.019 65.3651H86.2051V67.179H88.019V65.3651Z" fill="#2F384C"/>
<path d="M88.019 63.5696H86.2051V65.3677H88.019V63.5696Z" fill="#1E2A3F"/>
<path d="M88.019 61.7532H86.2051V63.5671H88.019V61.7532Z" fill="#1E2A3F"/>
<path d="M88.019 59.9419H86.2051V61.7558H88.019V59.9419Z" fill="black"/>
<path d="M86.2078 65.3651H84.4097V67.179H86.2078V65.3651Z" fill="black"/>
<path d="M86.2078 63.5696H84.4097V65.3677H86.2078V63.5696Z" fill="#2F384C"/>
<path d="M86.2078 61.7532H84.4097V63.5671H86.2078V61.7532Z" fill="black"/>
<path d="M84.4066 68.9772H82.5928V70.7911H84.4066V68.9772Z" fill="black"/>
<path d="M84.4066 67.1816H82.5928V68.9798H84.4066V67.1816Z" fill="black"/>
<path d="M84.4066 65.3651H82.5928V67.179H84.4066V65.3651Z" fill="#2F384C"/>
<path d="M84.4066 63.5696H82.5928V65.3677H84.4066V63.5696Z" fill="#2F384C"/>
<path d="M84.4066 61.7532H82.5928V63.5671H84.4066V61.7532Z" fill="#1E2A3F"/>
<path d="M84.4066 59.9419H82.5928V61.7558H84.4066V59.9419Z" fill="black"/>
<path d="M84.4066 58.1464H82.5928V59.9445H84.4066V58.1464Z" fill="black"/>
<path d="M82.5984 70.7936H80.8003V72.5917H82.5984V70.7936Z" fill="black"/>
<path d="M82.5984 68.9772H80.8003V70.7911H82.5984V68.9772Z" fill="#2F384C"/>
<path d="M82.5984 67.1816H80.8003V68.9798H82.5984V67.1816Z" fill="#2F384C"/>
<path d="M82.5984 65.3651H80.8003V67.179H82.5984V65.3651Z" fill="#2F384C"/>
<path d="M82.5984 63.5696H80.8003V65.3677H82.5984V63.5696Z" fill="#2F384C"/>
<path d="M82.5984 61.7532H80.8003V63.5671H82.5984V61.7532Z" fill="#2F384C"/>
<path d="M82.5984 59.9419H80.8003V61.7558H82.5984V59.9419Z" fill="#1E2A3F"/>
<path d="M82.5984 58.1464H80.8003V59.9445H82.5984V58.1464Z" fill="#1E2A3F"/>
<path d="M82.5984 56.3298H80.8003V58.1437H82.5984V56.3298Z" fill="black"/>
<path d="M80.8002 68.9772H78.9863V70.7911H80.8002V68.9772Z" fill="black"/>
<path d="M80.8002 67.1816H78.9863V68.9798H80.8002V67.1816Z" fill="black"/>
<path d="M80.8002 65.3651H78.9863V67.179H80.8002V65.3651Z" fill="black"/>
<path d="M80.8002 63.5696H78.9863V65.3677H80.8002V63.5696Z" fill="#2F384C"/>
<path d="M80.8002 61.7532H78.9863V63.5671H80.8002V61.7532Z" fill="black"/>
<path d="M80.8002 59.9419H78.9863V61.7558H80.8002V59.9419Z" fill="black"/>
<path d="M80.8002 58.1464H78.9863V59.9445H80.8002V58.1464Z" fill="black"/>
<path d="M78.9861 65.3651H77.188V67.179H78.9861V65.3651Z" fill="black"/>
<path d="M78.9861 63.5696H77.188V65.3677H78.9861V63.5696Z" fill="#2F384C"/>
<path d="M78.9861 61.7532H77.188V63.5671H78.9861V61.7532Z" fill="black"/>
<path d="M77.1879 65.3651H75.374V67.179H77.1879V65.3651Z" fill="black"/>
<path d="M77.1879 63.5696H75.374V65.3677H77.1879V63.5696Z" fill="#2F384C"/>
<path d="M77.1879 61.7532H75.374V63.5671H77.1879V61.7532Z" fill="black"/>
<path d="M77.1879 47.313H75.374V49.1111H77.1879V47.313Z" fill="black"/>
<path d="M75.3715 65.3651H73.5576V67.179H75.3715V65.3651Z" fill="black"/>
<path d="M75.3715 63.5696H73.5576V65.3677H75.3715V63.5696Z" fill="#2F384C"/>
<path d="M75.3715 61.7532H73.5576V63.5671H75.3715V61.7532Z" fill="black"/>
<path d="M75.3715 49.1111H73.5576V50.925H75.3715V49.1111Z" fill="black"/>
<path d="M75.3715 47.313H73.5576V49.1111H75.3715V47.313Z" fill="#B25212"/>
<path d="M75.3715 45.4991H73.5576V47.313H75.3715V45.4991Z" fill="black"/>
<path d="M75.3715 43.6826H73.5576V45.4965H75.3715V43.6826Z" fill="black"/>
<path d="M75.3715 41.8871H73.5576V43.6852H75.3715V41.8871Z" fill="black"/>
<path d="M73.5628 65.3651H71.7646V67.179H73.5628V65.3651Z" fill="black"/>
<path d="M73.5628 63.5696H71.7646V65.3677H73.5628V63.5696Z" fill="#2F384C"/>
<path d="M73.5628 61.7532H71.7646V63.5671H73.5628V61.7532Z" fill="black"/>
<path d="M73.5628 58.1464H71.7646V59.9445H73.5628V58.1464Z" fill="black"/>
<path d="M73.5628 56.3298H71.7646V58.1437H73.5628V56.3298Z" fill="black"/>
<path d="M73.5628 54.5344H71.7646V56.3326H73.5628V54.5344Z" fill="black"/>
<path d="M73.5628 52.7179H71.7646V54.5318H73.5628V52.7179Z" fill="black"/>
<path d="M73.5628 49.1111H71.7646V50.925H73.5628V49.1111Z" fill="black"/>
<path d="M73.5628 47.313H71.7646V49.1111H73.5628V47.313Z" fill="#B25212"/>
<path d="M73.5628 45.4991H71.7646V47.313H73.5628V45.4991Z" fill="black"/>
<path d="M73.5628 43.6826H71.7646V45.4965H73.5628V43.6826Z" fill="#404E89"/>
<path d="M73.5628 41.8871H71.7646V43.6852H73.5628V41.8871Z" fill="#404E89"/>
<path d="M73.5628 40.0759H71.7646V41.8898H73.5628V40.0759Z" fill="black"/>
<path d="M73.5628 38.2777H71.7646V40.0758H73.5628V38.2777Z" fill="black"/>
<path d="M71.765 65.3651H69.9512V67.179H71.765V65.3651Z" fill="black"/>
<path d="M71.765 63.5696H69.9512V65.3677H71.765V63.5696Z" fill="black"/>
<path d="M71.765 61.7532H69.9512V63.5671H71.765V61.7532Z" fill="black"/>
<path d="M71.765 59.9419H69.9512V61.7558H71.765V59.9419Z" fill="black"/>
<path d="M71.765 58.1464H69.9512V59.9445H71.765V58.1464Z" fill="#B25212"/>
<path d="M71.765 56.3298H69.9512V58.1437H71.765V56.3298Z" fill="#C1811B"/>
<path d="M71.765 54.5344H69.9512V56.3326H71.765V54.5344Z" fill="black"/>
<path d="M71.765 52.7179H69.9512V54.5318H71.765V52.7179Z" fill="#626CA0"/>
<path d="M71.765 50.925H69.9512V52.7232H71.765V50.925Z" fill="black"/>
<path d="M71.765 49.1111H69.9512V50.925H71.765V49.1111Z" fill="#B25212"/>
<path d="M71.765 47.313H69.9512V49.1111H71.765V47.313Z" fill="#C1811B"/>
<path d="M71.765 45.4991H69.9512V47.313H71.765V45.4991Z" fill="black"/>
<path d="M71.765 43.6826H69.9512V45.4965H71.765V43.6826Z" fill="#404E89"/>
<path d="M71.765 41.8871H69.9512V43.6852H71.765V41.8871Z" fill="#626CA0"/>
<path d="M71.765 40.0759H69.9512V41.8898H71.765V40.0759Z" fill="#626CA0"/>
<path d="M71.765 38.2777H69.9512V40.0758H71.765V38.2777Z" fill="#5364AD"/>
<path d="M71.765 36.4639H69.9512V38.2777H71.765V36.4639Z" fill="black"/>
<path d="M71.765 34.6658H69.9512V36.4639H71.765V34.6658Z" fill="black"/>
<path d="M71.765 32.8519H69.9512V34.6658H71.765V32.8519Z" fill="black"/>
<path d="M71.765 31.038H69.9512V32.8518H71.765V31.038Z" fill="black"/>
<path d="M69.951 65.3651H68.1528V67.179H69.951V65.3651Z" fill="black"/>
<path d="M69.951 63.5696H68.1528V65.3677H69.951V63.5696Z" fill="#B25212"/>
<path d="M69.951 61.7532H68.1528V63.5671H69.951V61.7532Z" fill="black"/>
<path d="M69.951 59.9419H68.1528V61.7558H69.951V59.9419Z" fill="#C1811B"/>
<path d="M69.951 58.1464H68.1528V59.9445H69.951V58.1464Z" fill="#B25212"/>
<path d="M69.951 56.3298H68.1528V58.1437H69.951V56.3298Z" fill="#C1811B"/>
<path d="M69.951 54.5344H68.1528V56.3326H69.951V54.5344Z" fill="black"/>
<path d="M69.951 52.7179H68.1528V54.5318H69.951V52.7179Z" fill="#626CA0"/>
<path d="M69.951 50.925H68.1528V52.7232H69.951V50.925Z" fill="black"/>
<path d="M69.951 49.1111H68.1528V50.925H69.951V49.1111Z" fill="#B25212"/>
<path d="M69.951 47.313H68.1528V49.1111H69.951V47.313Z" fill="#DBAB65"/>
<path d="M69.951 45.4991H68.1528V47.313H69.951V45.4991Z" fill="#626CA0"/>
<path d="M69.951 43.6826H68.1528V45.4965H69.951V43.6826Z" fill="#626CA0"/>
<path d="M69.951 41.8871H68.1528V43.6852H69.951V41.8871Z" fill="#626CA0"/>
<path d="M69.951 40.0759H68.1528V41.8898H69.951V40.0759Z" fill="#626CA0"/>
<path d="M69.951 38.2777H68.1528V40.0758H69.951V38.2777Z" fill="#5364AD"/>
<path d="M69.951 36.4639H68.1528V38.2777H69.951V36.4639Z" fill="#5364AD"/>
<path d="M69.951 34.6658H68.1528V36.4639H69.951V34.6658Z" fill="#5364AD"/>
<path d="M69.951 32.8519H68.1528V34.6658H69.951V32.8519Z" fill="#5364AD"/>
<path d="M69.951 31.038H68.1528V32.8518H69.951V31.038Z" fill="#626CA0"/>
<path d="M69.951 29.2426H68.1528V31.0407H69.951V29.2426Z" fill="black"/>
<path d="M68.1527 67.1816H66.3389V68.9798H68.1527V67.1816Z" fill="black"/>
<path d="M68.1527 65.3651H66.3389V67.179H68.1527V65.3651Z" fill="#B25212"/>
<path d="M68.1527 63.5696H66.3389V65.3677H68.1527V63.5696Z" fill="#C1811B"/>
<path d="M68.1527 61.7532H66.3389V63.5671H68.1527V61.7532Z" fill="black"/>
<path d="M68.1527 59.9419H66.3389V61.7558H68.1527V59.9419Z" fill="#C1811B"/>
<path d="M68.1527 58.1464H66.3389V59.9445H68.1527V58.1464Z" fill="#C1811B"/>
<path d="M68.1527 56.3298H66.3389V58.1437H68.1527V56.3298Z" fill="#B25212"/>
<path d="M68.1527 54.5344H66.3389V56.3326H68.1527V54.5344Z" fill="black"/>
<path d="M68.1527 52.7179H66.3389V54.5318H68.1527V52.7179Z" fill="#626CA0"/>
<path d="M68.1527 50.925H66.3389V52.7232H68.1527V50.925Z" fill="black"/>
<path d="M68.1527 49.1111H66.3389V50.925H68.1527V49.1111Z" fill="#B25212"/>
<path d="M68.1527 47.313H66.3389V49.1111H68.1527V47.313Z" fill="#DBAB65"/>
<path d="M68.1527 45.4991H66.3389V47.313H68.1527V45.4991Z" fill="black"/>
<path d="M68.1527 43.6826H66.3389V45.4965H68.1527V43.6826Z" fill="#404E89"/>
<path d="M68.1527 41.8871H66.3389V43.6852H68.1527V41.8871Z" fill="#626CA0"/>
<path d="M68.1527 40.0759H66.3389V41.8898H68.1527V40.0759Z" fill="#626CA0"/>
<path d="M68.1527 38.2777H66.3389V40.0758H68.1527V38.2777Z" fill="#626CA0"/>
<path d="M68.1527 36.4639H66.3389V38.2777H68.1527V36.4639Z" fill="#626CA0"/>
<path d="M68.1527 34.6658H66.3389V36.4639H68.1527V34.6658Z" fill="#5364AD"/>
<path d="M68.1527 32.8519H66.3389V34.6658H68.1527V32.8519Z" fill="#626CA0"/>
<path d="M68.1527 31.038H66.3389V32.8518H68.1527V31.038Z" fill="#5364AD"/>
<path d="M68.1527 29.2426H66.3389V31.0407H68.1527V29.2426Z" fill="black"/>
<path d="M66.3391 67.1816H64.541V68.9798H66.3391V67.1816Z" fill="black"/>
<path d="M66.3391 65.3651H64.541V67.179H66.3391V65.3651Z" fill="#C1811B"/>
<path d="M66.3391 63.5696H64.541V65.3677H66.3391V63.5696Z" fill="#DBAB65"/>
<path d="M66.3391 61.7532H64.541V63.5671H66.3391V61.7532Z" fill="#DBAB65"/>
<path d="M66.3391 59.9419H64.541V61.7558H66.3391V59.9419Z" fill="black"/>
<path d="M66.3391 58.1464H64.541V59.9445H66.3391V58.1464Z" fill="#C1811B"/>
<path d="M66.3391 56.3298H64.541V58.1437H66.3391V56.3298Z" fill="black"/>
<path d="M66.3391 54.5344H64.541V56.3326H66.3391V54.5344Z" fill="#626CA0"/>
<path d="M66.3391 52.7179H64.541V54.5318H66.3391V52.7179Z" fill="#626CA0"/>
<path d="M66.3391 50.925H64.541V52.7232H66.3391V50.925Z" fill="#5364AD"/>
<path d="M66.3391 49.1111H64.541V50.925H66.3391V49.1111Z" fill="black"/>
<path d="M66.3391 47.313H64.541V49.1111H66.3391V47.313Z" fill="#C1811B"/>
<path d="M66.3391 45.4991H64.541V47.313H66.3391V45.4991Z" fill="black"/>
<path d="M66.3391 43.6826H64.541V45.4965H66.3391V43.6826Z" fill="#404E89"/>
<path d="M66.3391 41.8871H64.541V43.6852H66.3391V41.8871Z" fill="#404E89"/>
<path d="M66.3391 40.0759H64.541V41.8898H66.3391V40.0759Z" fill="#626CA0"/>
<path d="M66.3391 38.2777H64.541V40.0758H66.3391V38.2777Z" fill="#626CA0"/>
<path d="M66.3391 36.4639H64.541V38.2777H66.3391V36.4639Z" fill="#626CA0"/>
<path d="M66.3391 34.6658H64.541V36.4639H66.3391V34.6658Z" fill="#626CA0"/>
<path d="M66.3391 32.8519H64.541V34.6658H66.3391V32.8519Z" fill="#626CA0"/>
<path d="M66.3391 31.038H64.541V32.8518H66.3391V31.038Z" fill="#626CA0"/>
<path d="M66.3391 29.2426H64.541V31.0407H66.3391V29.2426Z" fill="black"/>
<path d="M64.5409 67.1816H62.7271V68.9798H64.5409V67.1816Z" fill="black"/>
<path d="M64.5409 65.3651H62.7271V67.179H64.5409V65.3651Z" fill="#DBAB65"/>
<path d="M64.5409 63.5696H62.7271V65.3677H64.5409V63.5696Z" fill="#DBAB65"/>
<path d="M64.5409 61.7532H62.7271V63.5671H64.5409V61.7532Z" fill="#DBAB65"/>
<path d="M64.5409 59.9419H62.7271V61.7558H64.5409V59.9419Z" fill="black"/>
<path d="M64.5409 58.1464H62.7271V59.9445H64.5409V58.1464Z" fill="#C1811B"/>
<path d="M64.5409 56.3298H62.7271V58.1437H64.5409V56.3298Z" fill="black"/>
<path d="M64.5409 54.5344H62.7271V56.3326H64.5409V54.5344Z" fill="#5364AD"/>
<path d="M64.5409 52.7179H62.7271V54.5318H64.5409V52.7179Z" fill="#5364AD"/>
<path d="M64.5409 50.925H62.7271V52.7232H64.5409V50.925Z" fill="#5364AD"/>
<path d="M64.5409 49.1111H62.7271V50.925H64.5409V49.1111Z" fill="black"/>
<path d="M64.5409 47.313H62.7271V49.1111H64.5409V47.313Z" fill="#B25212"/>
<path d="M64.5409 45.4991H62.7271V47.313H64.5409V45.4991Z" fill="#C1811B"/>
<path d="M64.5409 43.6826H62.7271V45.4965H64.5409V43.6826Z" fill="black"/>
<path d="M64.5409 41.8871H62.7271V43.6852H64.5409V41.8871Z" fill="#404E89"/>
<path d="M64.5409 40.0759H62.7271V41.8898H64.5409V40.0759Z" fill="#626CA0"/>
<path d="M64.5409 38.2777H62.7271V40.0758H64.5409V38.2777Z" fill="#626CA0"/>
<path d="M64.5409 36.4639H62.7271V38.2777H64.5409V36.4639Z" fill="#626CA0"/>
<path d="M64.5409 34.6658H62.7271V36.4639H64.5409V34.6658Z" fill="#626CA0"/>
<path d="M64.5409 32.8519H62.7271V34.6658H64.5409V32.8519Z" fill="black"/>
<path d="M64.5409 31.038H62.7271V32.8518H64.5409V31.038Z" fill="black"/>
<path d="M64.5409 29.2426H62.7271V31.0407H64.5409V29.2426Z" fill="black"/>
<path d="M62.7294 78.0123H60.9155V79.8262H62.7294V78.0123Z" fill="black"/>
<path d="M62.7294 76.2169H60.9155V78.015H62.7294V76.2169Z" fill="black"/>
<path d="M62.7294 74.4004H60.9155V76.2143H62.7294V74.4004Z" fill="black"/>
<path d="M62.7294 72.5865H60.9155V74.4004H62.7294V72.5865Z" fill="black"/>
<path d="M62.7294 70.7936H60.9155V72.5917H62.7294V70.7936Z" fill="black"/>
<path d="M62.7294 67.1816H60.9155V68.9798H62.7294V67.1816Z" fill="black"/>
<path d="M62.7294 65.3651H60.9155V67.179H62.7294V65.3651Z" fill="#B25212"/>
<path d="M62.7294 63.5696H60.9155V65.3677H62.7294V63.5696Z" fill="#DBAB65"/>
<path d="M62.7294 61.7532H60.9155V63.5671H62.7294V61.7532Z" fill="#DBAB65"/>
<path d="M62.7294 59.9419H60.9155V61.7558H62.7294V59.9419Z" fill="#C1811B"/>
<path d="M62.7294 58.1464H60.9155V59.9445H62.7294V58.1464Z" fill="black"/>
<path d="M62.7294 56.3298H60.9155V58.1437H62.7294V56.3298Z" fill="black"/>
<path d="M62.7294 54.5344H60.9155V56.3326H62.7294V54.5344Z" fill="black"/>
<path d="M62.7294 52.7179H60.9155V54.5318H62.7294V52.7179Z" fill="black"/>
<path d="M62.7294 50.925H60.9155V52.7232H62.7294V50.925Z" fill="#5364AD"/>
<path d="M62.7294 49.1111H60.9155V50.925H62.7294V49.1111Z" fill="#5364AD"/>
<path d="M62.7294 47.313H60.9155V49.1111H62.7294V47.313Z" fill="black"/>
<path d="M62.7294 45.4991H60.9155V47.313H62.7294V45.4991Z" fill="#B25212"/>
<path d="M62.7294 43.6826H60.9155V45.4965H62.7294V43.6826Z" fill="#C1811B"/>
<path d="M62.7294 41.8871H60.9155V43.6852H62.7294V41.8871Z" fill="black"/>
<path d="M62.7294 40.0759H60.9155V41.8898H62.7294V40.0759Z" fill="black"/>
<path d="M62.7294 38.2777H60.9155V40.0758H62.7294V38.2777Z" fill="#5364AD"/>
<path d="M62.7294 36.4639H60.9155V38.2777H62.7294V36.4639Z" fill="#5364AD"/>
<path d="M62.7294 34.6658H60.9155V36.4639H62.7294V34.6658Z" fill="black"/>
<path d="M62.7294 32.8519H60.9155V34.6658H62.7294V32.8519Z" fill="black"/>
<path d="M60.9158 78.0123H59.1177V79.8262H60.9158V78.0123Z" fill="black"/>
<path d="M60.9158 76.2169H59.1177V78.015H60.9158V76.2169Z" fill="#404E89"/>
<path d="M60.9158 74.4004H59.1177V76.2143H60.9158V74.4004Z" fill="#404E89"/>
<path d="M60.9158 72.5865H59.1177V74.4004H60.9158V72.5865Z" fill="#404E89"/>
<path d="M60.9158 70.7936H59.1177V72.5917H60.9158V70.7936Z" fill="black"/>
<path d="M60.9158 68.9772H59.1177V70.7911H60.9158V68.9772Z" fill="black"/>
<path d="M60.9158 67.1816H59.1177V68.9798H60.9158V67.1816Z" fill="black"/>
<path d="M60.9158 65.3651H59.1177V67.179H60.9158V65.3651Z" fill="black"/>
<path d="M60.9158 63.5696H59.1177V65.3677H60.9158V63.5696Z" fill="#C1811B"/>
<path d="M60.9158 61.7532H59.1177V63.5671H60.9158V61.7532Z" fill="#C1811B"/>
<path d="M60.9158 59.9419H59.1177V61.7558H60.9158V59.9419Z" fill="#C1811B"/>
<path d="M60.9158 58.1464H59.1177V59.9445H60.9158V58.1464Z" fill="black"/>
<path d="M60.9158 56.3298H59.1177V58.1437H60.9158V56.3298Z" fill="#344A91"/>
<path d="M60.9158 54.5344H59.1177V56.3326H60.9158V54.5344Z" fill="#344A91"/>
<path d="M60.9158 52.7179H59.1177V54.5318H60.9158V52.7179Z" fill="#C1811B"/>
<path d="M60.9158 50.925H59.1177V52.7232H60.9158V50.925Z" fill="black"/>
<path d="M60.9158 49.1111H59.1177V50.925H60.9158V49.1111Z" fill="black"/>
<path d="M60.9158 47.313H59.1177V49.1111H60.9158V47.313Z" fill="#626CA0"/>
<path d="M60.9158 45.4991H59.1177V47.313H60.9158V45.4991Z" fill="black"/>
<path d="M60.9158 43.6826H59.1177V45.4965H60.9158V43.6826Z" fill="#B25212"/>
<path d="M60.9158 41.8871H59.1177V43.6852H60.9158V41.8871Z" fill="#C1811B"/>
<path d="M60.9158 40.0759H59.1177V41.8898H60.9158V40.0759Z" fill="#DBAB65"/>
<path d="M60.9158 38.2777H59.1177V40.0758H60.9158V38.2777Z" fill="black"/>
<path d="M60.9158 36.4639H59.1177V38.2777H60.9158V36.4639Z" fill="#5364AD"/>
<path d="M60.9158 34.6658H59.1177V36.4639H60.9158V34.6658Z" fill="black"/>
<path d="M60.9158 32.8519H59.1177V34.6658H60.9158V32.8519Z" fill="black"/>
<path d="M60.9158 31.038H59.1177V32.8518H60.9158V31.038Z" fill="black"/>
<path d="M60.9158 29.2426H59.1177V31.0407H60.9158V29.2426Z" fill="black"/>
<path d="M60.9158 27.4286H59.1177V29.2425H60.9158V27.4286Z" fill="black"/>
<path d="M60.9158 25.6305H59.1177V27.4286H60.9158V25.6305Z" fill="black"/>
<path d="M60.9158 23.8167H59.1177V25.6305H60.9158V23.8167Z" fill="black"/>
<path d="M59.1176 78.0123H57.3037V79.8262H59.1176V78.0123Z" fill="black"/>
<path d="M59.1176 76.2169H57.3037V78.015H59.1176V76.2169Z" fill="#404E89"/>
<path d="M59.1176 74.4004H57.3037V76.2143H59.1176V74.4004Z" fill="#626CA0"/>
<path d="M59.1176 72.5865H57.3037V74.4004H59.1176V72.5865Z" fill="#626CA0"/>
<path d="M59.1176 70.7936H57.3037V72.5917H59.1176V70.7936Z" fill="#404E89"/>
<path d="M59.1176 68.9772H57.3037V70.7911H59.1176V68.9772Z" fill="#404E89"/>
<path d="M59.1176 67.1816H57.3037V68.9798H59.1176V67.1816Z" fill="#404E89"/>
<path d="M59.1176 65.3651H57.3037V67.179H59.1176V65.3651Z" fill="black"/>
<path d="M59.1176 63.5696H57.3037V65.3677H59.1176V63.5696Z" fill="black"/>
<path d="M59.1176 61.7532H57.3037V63.5671H59.1176V61.7532Z" fill="black"/>
<path d="M59.1176 59.9419H57.3037V61.7558H59.1176V59.9419Z" fill="black"/>
<path d="M59.1176 58.1464H57.3037V59.9445H59.1176V58.1464Z" fill="black"/>
<path d="M59.1176 56.3298H57.3037V58.1437H59.1176V56.3298Z" fill="black"/>
<path d="M59.1176 54.5344H57.3037V56.3326H59.1176V54.5344Z" fill="#42578E"/>
<path d="M59.1176 52.7179H57.3037V54.5318H59.1176V52.7179Z" fill="black"/>
<path d="M59.1176 50.925H57.3037V52.7232H59.1176V50.925Z" fill="#C1811B"/>
<path d="M59.1176 49.1111H57.3037V50.925H59.1176V49.1111Z" fill="black"/>
<path d="M59.1176 47.313H57.3037V49.1111H59.1176V47.313Z" fill="#626CA0"/>
<path d="M59.1176 45.4991H57.3037V47.313H59.1176V45.4991Z" fill="#626CA0"/>
<path d="M59.1176 43.6826H57.3037V45.4965H59.1176V43.6826Z" fill="black"/>
<path d="M59.1176 41.8871H57.3037V43.6852H59.1176V41.8871Z" fill="#B25212"/>
<path d="M59.1176 40.0759H57.3037V41.8898H59.1176V40.0759Z" fill="#C1811B"/>
<path d="M59.1176 38.2777H57.3037V40.0758H59.1176V38.2777Z" fill="#B25212"/>
<path d="M59.1176 36.4639H57.3037V38.2777H59.1176V36.4639Z" fill="black"/>
<path d="M59.1176 34.6658H57.3037V36.4639H59.1176V34.6658Z" fill="#404E89"/>
<path d="M59.1176 32.8519H57.3037V34.6658H59.1176V32.8519Z" fill="#404E89"/>
<path d="M59.1176 31.038H57.3037V32.8518H59.1176V31.038Z" fill="#626CA0"/>
<path d="M59.1176 29.2426H57.3037V31.0407H59.1176V29.2426Z" fill="#626CA0"/>
<path d="M59.1176 27.4286H57.3037V29.2425H59.1176V27.4286Z" fill="#404E89"/>
<path d="M59.1176 25.6305H57.3037V27.4286H59.1176V25.6305Z" fill="#404E89"/>
<path d="M59.1176 23.8167H57.3037V25.6305H59.1176V23.8167Z" fill="#404E89"/>
<path d="M59.1176 22.0211H57.3037V23.8192H59.1176V22.0211Z" fill="black"/>
<path d="M57.304 78.0123H55.5059V79.8262H57.304V78.0123Z" fill="black"/>
<path d="M57.304 76.2169H55.5059V78.015H57.304V76.2169Z" fill="#404E89"/>
<path d="M57.304 74.4004H55.5059V76.2143H57.304V74.4004Z" fill="#C1811B"/>
<path d="M57.304 72.5865H55.5059V74.4004H57.304V72.5865Z" fill="#B25212"/>
<path d="M57.304 70.7936H55.5059V72.5917H57.304V70.7936Z" fill="#626CA0"/>
<path d="M57.304 68.9772H55.5059V70.7911H57.304V68.9772Z" fill="black"/>
<path d="M57.304 67.1816H55.5059V68.9798H57.304V67.1816Z" fill="black"/>
<path d="M57.304 65.3651H55.5059V67.179H57.304V65.3651Z" fill="black"/>
<path d="M57.304 63.5696H55.5059V65.3677H57.304V63.5696Z" fill="#2F384C"/>
<path d="M57.304 61.7532H55.5059V63.5671H57.304V61.7532Z" fill="black"/>
<path d="M57.304 59.9419H55.5059V61.7558H57.304V59.9419Z" fill="#344A91"/>
<path d="M57.304 58.1464H55.5059V59.9445H57.304V58.1464Z" fill="#42578E"/>
<path d="M57.304 56.3298H55.5059V58.1437H57.304V56.3298Z" fill="black"/>
<path d="M57.304 54.5344H55.5059V56.3326H57.304V54.5344Z" fill="#42578E"/>
<path d="M57.304 52.7179H55.5059V54.5318H57.304V52.7179Z" fill="black"/>
<path d="M57.304 50.925H55.5059V52.7232H57.304V50.925Z" fill="#B25212"/>
<path d="M57.304 49.1111H55.5059V50.925H57.304V49.1111Z" fill="black"/>
<path d="M57.304 47.313H55.5059V49.1111H57.304V47.313Z" fill="#404E89"/>
<path d="M57.304 45.4991H55.5059V47.313H57.304V45.4991Z" fill="black"/>
<path d="M57.304 43.6826H55.5059V45.4965H57.304V43.6826Z" fill="#C1811B"/>
<path d="M57.304 41.8871H55.5059V43.6852H57.304V41.8871Z" fill="black"/>
<path d="M57.304 40.0759H55.5059V41.8898H57.304V40.0759Z" fill="black"/>
<path d="M57.304 38.2777H55.5059V40.0758H57.304V38.2777Z" fill="black"/>
<path d="M57.304 36.4639H55.5059V38.2777H57.304V36.4639Z" fill="#404E89"/>
<path d="M57.304 34.6658H55.5059V36.4639H57.304V34.6658Z" fill="#404E89"/>
<path d="M57.304 32.8519H55.5059V34.6658H57.304V32.8519Z" fill="#626CA0"/>
<path d="M57.304 31.038H55.5059V32.8518H57.304V31.038Z" fill="#626CA0"/>
<path d="M57.304 29.2426H55.5059V31.0407H57.304V29.2426Z" fill="#626CA0"/>
<path d="M57.304 27.4286H55.5059V29.2425H57.304V27.4286Z" fill="#626CA0"/>
<path d="M57.304 25.6305H55.5059V27.4286H57.304V25.6305Z" fill="#626CA0"/>
<path d="M57.304 23.8167H55.5059V25.6305H57.304V23.8167Z" fill="#404E89"/>
<path d="M57.304 22.0211H55.5059V23.8192H57.304V22.0211Z" fill="black"/>
<path d="M55.5058 78.0123H53.6919V79.8262H55.5058V78.0123Z" fill="black"/>
<path d="M55.5058 76.2169H53.6919V78.015H55.5058V76.2169Z" fill="#404E89"/>
<path d="M55.5058 74.4004H53.6919V76.2143H55.5058V74.4004Z" fill="black"/>
<path d="M55.5058 72.5865H53.6919V74.4004H55.5058V72.5865Z" fill="black"/>
<path d="M55.5058 70.7936H53.6919V72.5917H55.5058V70.7936Z" fill="#B25212"/>
<path d="M55.5058 68.9772H53.6919V70.7911H55.5058V68.9772Z" fill="#B25212"/>
<path d="M55.5058 67.1816H53.6919V68.9798H55.5058V67.1816Z" fill="black"/>
<path d="M55.5058 65.3651H53.6919V67.179H55.5058V65.3651Z" fill="black"/>
<path d="M55.5058 63.5696H53.6919V65.3677H55.5058V63.5696Z" fill="#2F384C"/>
<path d="M55.5058 61.7532H53.6919V63.5671H55.5058V61.7532Z" fill="black"/>
<path d="M55.5058 59.9419H53.6919V61.7558H55.5058V59.9419Z" fill="#344A91"/>
<path d="M55.5058 58.1464H53.6919V59.9445H55.5058V58.1464Z" fill="#344A91"/>
<path d="M55.5058 56.3298H53.6919V58.1437H55.5058V56.3298Z" fill="#42578E"/>
<path d="M55.5058 54.5344H53.6919V56.3326H55.5058V54.5344Z" fill="black"/>
<path d="M55.5058 52.7179H53.6919V54.5318H55.5058V52.7179Z" fill="#B25212"/>
<path d="M55.5058 50.925H53.6919V52.7232H55.5058V50.925Z" fill="#B25212"/>
<path d="M55.5058 49.1111H53.6919V50.925H55.5058V49.1111Z" fill="black"/>
<path d="M55.5058 47.313H53.6919V49.1111H55.5058V47.313Z" fill="#404E89"/>
<path d="M55.5058 45.4991H53.6919V47.313H55.5058V45.4991Z" fill="black"/>
<path d="M55.5058 43.6826H53.6919V45.4965H55.5058V43.6826Z" fill="#C1811B"/>
<path d="M55.5058 41.8871H53.6919V43.6852H55.5058V41.8871Z" fill="#404E89"/>
<path d="M55.5058 40.0759H53.6919V41.8898H55.5058V40.0759Z" fill="#404E89"/>
<path d="M55.5058 38.2777H53.6919V40.0758H55.5058V38.2777Z" fill="black"/>
<path d="M55.5058 36.4639H53.6919V38.2777H55.5058V36.4639Z" fill="#404E89"/>
<path d="M55.5058 34.6658H53.6919V36.4639H55.5058V34.6658Z" fill="#626CA0"/>
<path d="M55.5058 32.8519H53.6919V34.6658H55.5058V32.8519Z" fill="#626CA0"/>
<path d="M55.5058 31.038H53.6919V32.8518H55.5058V31.038Z" fill="#626CA0"/>
<path d="M55.5058 29.2426H53.6919V31.0407H55.5058V29.2426Z" fill="#626CA0"/>
<path d="M55.5058 27.4286H53.6919V29.2425H55.5058V27.4286Z" fill="#626CA0"/>
<path d="M55.5058 25.6305H53.6919V27.4286H55.5058V25.6305Z" fill="#626CA0"/>
<path d="M55.5058 23.8167H53.6919V25.6305H55.5058V23.8167Z" fill="#626CA0"/>
<path d="M55.5058 22.0211H53.6919V23.8192H55.5058V22.0211Z" fill="black"/>
<path d="M53.6946 78.0123H51.8965V79.8262H53.6946V78.0123Z" fill="black"/>
<path d="M53.6946 76.2169H51.8965V78.015H53.6946V76.2169Z" fill="#C1811B"/>
<path d="M53.6946 74.4004H51.8965V76.2143H53.6946V74.4004Z" fill="#DBAB65"/>
<path d="M53.6946 72.5865H51.8965V74.4004H53.6946V72.5865Z" fill="#C1811B"/>
<path d="M53.6946 70.7936H51.8965V72.5917H53.6946V70.7936Z" fill="black"/>
<path d="M53.6946 68.9772H51.8965V70.7911H53.6946V68.9772Z" fill="#C1811B"/>
<path d="M53.6946 67.1816H51.8965V68.9798H53.6946V67.1816Z" fill="#626CA0"/>
<path d="M53.6946 65.3651H51.8965V67.179H53.6946V65.3651Z" fill="black"/>
<path d="M53.6946 63.5696H51.8965V65.3677H53.6946V63.5696Z" fill="#2F384C"/>
<path d="M53.6946 61.7532H51.8965V63.5671H53.6946V61.7532Z" fill="black"/>
<path d="M53.6946 59.9419H51.8965V61.7558H53.6946V59.9419Z" fill="#344A91"/>
<path d="M53.6946 58.1464H51.8965V59.9445H53.6946V58.1464Z" fill="#42578E"/>
<path d="M53.6946 56.3298H51.8965V58.1437H53.6946V56.3298Z" fill="#42578E"/>
<path d="M53.6946 54.5344H51.8965V56.3326H53.6946V54.5344Z" fill="black"/>
<path d="M53.6946 52.7179H51.8965V54.5318H53.6946V52.7179Z" fill="#B25212"/>
<path d="M53.6946 50.925H51.8965V52.7232H53.6946V50.925Z" fill="black"/>
<path d="M53.6946 49.1111H51.8965V50.925H53.6946V49.1111Z" fill="#404E89"/>
<path d="M53.6946 47.313H51.8965V49.1111H53.6946V47.313Z" fill="black"/>
<path d="M53.6946 45.4991H51.8965V47.313H53.6946V45.4991Z" fill="#C1811B"/>
<path d="M53.6946 43.6826H51.8965V45.4965H53.6946V43.6826Z" fill="#404E89"/>
<path d="M53.6946 41.8871H51.8965V43.6852H53.6946V41.8871Z" fill="#404E89"/>
<path d="M53.6946 40.0759H51.8965V41.8898H53.6946V40.0759Z" fill="#404E89"/>
<path d="M53.6946 38.2777H51.8965V40.0758H53.6946V38.2777Z" fill="black"/>
<path d="M53.6946 36.4639H51.8965V38.2777H53.6946V36.4639Z" fill="#404E89"/>
<path d="M53.6946 34.6658H51.8965V36.4639H53.6946V34.6658Z" fill="#626CA0"/>
<path d="M53.6946 32.8519H51.8965V34.6658H53.6946V32.8519Z" fill="#626CA0"/>
<path d="M53.6946 31.038H51.8965V32.8518H53.6946V31.038Z" fill="#5364AD"/>
<path d="M53.6946 29.2426H51.8965V31.0407H53.6946V29.2426Z" fill="#5364AD"/>
<path d="M53.6946 27.4286H51.8965V29.2425H53.6946V27.4286Z" fill="#626CA0"/>
<path d="M53.6946 25.6305H51.8965V27.4286H53.6946V25.6305Z" fill="#626CA0"/>
<path d="M53.6946 23.8167H51.8965V25.6305H53.6946V23.8167Z" fill="#626CA0"/>
<path d="M53.6946 22.0211H51.8965V23.8192H53.6946V22.0211Z" fill="black"/>
<path d="M51.8964 78.0123H50.0825V79.8262H51.8964V78.0123Z" fill="black"/>
<path d="M51.8964 76.2169H50.0825V78.015H51.8964V76.2169Z" fill="#DBAB65"/>
<path d="M51.8964 74.4004H50.0825V76.2143H51.8964V74.4004Z" fill="black"/>
<path d="M51.8964 72.5865H50.0825V74.4004H51.8964V72.5865Z" fill="black"/>
<path d="M51.8964 70.7936H50.0825V72.5917H51.8964V70.7936Z" fill="black"/>
<path d="M51.8964 68.9772H50.0825V70.7911H51.8964V68.9772Z" fill="black"/>
<path d="M51.8964 67.1816H50.0825V68.9798H51.8964V67.1816Z" fill="#626CA0"/>
<path d="M51.8964 65.3651H50.0825V67.179H51.8964V65.3651Z" fill="black"/>
<path d="M51.8964 63.5696H50.0825V65.3677H51.8964V63.5696Z" fill="#2F384C"/>
<path d="M51.8964 61.7532H50.0825V63.5671H51.8964V61.7532Z" fill="black"/>
<path d="M51.8964 59.9419H50.0825V61.7558H51.8964V59.9419Z" fill="#42578E"/>
<path d="M51.8964 58.1464H50.0825V59.9445H51.8964V58.1464Z" fill="#42578E"/>
<path d="M51.8964 56.3298H50.0825V58.1437H51.8964V56.3298Z" fill="#42578E"/>
<path d="M51.8964 54.5344H50.0825V56.3326H51.8964V54.5344Z" fill="black"/>
<path d="M51.8964 52.7179H50.0825V54.5318H51.8964V52.7179Z" fill="#C1811B"/>
<path d="M51.8964 50.925H50.0825V52.7232H51.8964V50.925Z" fill="black"/>
<path d="M51.8964 49.1111H50.0825V50.925H51.8964V49.1111Z" fill="#404E89"/>
<path d="M51.8964 47.313H50.0825V49.1111H51.8964V47.313Z" fill="black"/>
<path d="M51.8964 45.4991H50.0825V47.313H51.8964V45.4991Z" fill="#404E89"/>
<path d="M51.8964 43.6826H50.0825V45.4965H51.8964V43.6826Z" fill="#404E89"/>
<path d="M51.8964 41.8871H50.0825V43.6852H51.8964V41.8871Z" fill="#626CA0"/>
<path d="M51.8964 40.0759H50.0825V41.8898H51.8964V40.0759Z" fill="black"/>
<path d="M51.8964 38.2777H50.0825V40.0758H51.8964V38.2777Z" fill="#404E89"/>
<path d="M51.8964 36.4639H50.0825V38.2777H51.8964V36.4639Z" fill="#404E89"/>
<path d="M51.8964 34.6658H50.0825V36.4639H51.8964V34.6658Z" fill="#626CA0"/>
<path d="M51.8964 32.8519H50.0825V34.6658H51.8964V32.8519Z" fill="#5364AD"/>
<path d="M51.8964 31.038H50.0825V32.8518H51.8964V31.038Z" fill="#5364AD"/>
<path d="M51.8964 29.2426H50.0825V31.0407H51.8964V29.2426Z" fill="black"/>
<path d="M51.8964 27.4286H50.0825V29.2425H51.8964V27.4286Z" fill="#626CA0"/>
<path d="M51.8964 25.6305H50.0825V27.4286H51.8964V25.6305Z" fill="#626CA0"/>
<path d="M51.8964 23.8167H50.0825V25.6305H51.8964V23.8167Z" fill="#626CA0"/>
<path d="M51.8964 22.0211H50.0825V23.8192H51.8964V22.0211Z" fill="black"/>
<path d="M50.0823 78.0123H48.2842V79.8262H50.0823V78.0123Z" fill="black"/>
<path d="M50.0823 76.2169H48.2842V78.015H50.0823V76.2169Z" fill="#C1811B"/>
<path d="M50.0823 74.4004H48.2842V76.2143H50.0823V74.4004Z" fill="black"/>
<path d="M50.0823 72.5865H48.2842V74.4004H50.0823V72.5865Z" fill="#C1811B"/>
<path d="M50.0823 70.7936H48.2842V72.5917H50.0823V70.7936Z" fill="black"/>
<path d="M50.0823 68.9772H48.2842V70.7911H50.0823V68.9772Z" fill="#C1811B"/>
<path d="M50.0823 67.1816H48.2842V68.9798H50.0823V67.1816Z" fill="black"/>
<path d="M50.0823 65.3651H48.2842V67.179H50.0823V65.3651Z" fill="black"/>
<path d="M50.0823 63.5696H48.2842V65.3677H50.0823V63.5696Z" fill="#2F384C"/>
<path d="M50.0823 61.7532H48.2842V63.5671H50.0823V61.7532Z" fill="black"/>
<path d="M50.0823 59.9419H48.2842V61.7558H50.0823V59.9419Z" fill="#42578E"/>
<path d="M50.0823 58.1464H48.2842V59.9445H50.0823V58.1464Z" fill="#344A91"/>
<path d="M50.0823 56.3298H48.2842V58.1437H50.0823V56.3298Z" fill="black"/>
<path d="M50.0823 54.5344H48.2842V56.3326H50.0823V54.5344Z" fill="black"/>
<path d="M50.0823 52.7179H48.2842V54.5318H50.0823V52.7179Z" fill="#C1811B"/>
<path d="M50.0823 50.925H48.2842V52.7232H50.0823V50.925Z" fill="black"/>
<path d="M50.0823 49.1111H48.2842V50.925H50.0823V49.1111Z" fill="#404E89"/>
<path d="M50.0823 47.313H48.2842V49.1111H50.0823V47.313Z" fill="black"/>
<path d="M50.0823 45.4991H48.2842V47.313H50.0823V45.4991Z" fill="#626CA0"/>
<path d="M50.0823 43.6826H48.2842V45.4965H50.0823V43.6826Z" fill="#404E89"/>
<path d="M50.0823 41.8871H48.2842V43.6852H50.0823V41.8871Z" fill="#626CA0"/>
<path d="M50.0823 40.0759H48.2842V41.8898H50.0823V40.0759Z" fill="black"/>
<path d="M50.0823 38.2777H48.2842V40.0758H50.0823V38.2777Z" fill="#404E89"/>
<path d="M50.0823 36.4639H48.2842V38.2777H50.0823V36.4639Z" fill="#404E89"/>
<path d="M50.0823 34.6658H48.2842V36.4639H50.0823V34.6658Z" fill="#5364AD"/>
<path d="M50.0823 32.8519H48.2842V34.6658H50.0823V32.8519Z" fill="#5364AD"/>
<path d="M50.0823 31.038H48.2842V32.8518H50.0823V31.038Z" fill="black"/>
<path d="M50.0823 29.2426H48.2842V31.0407H50.0823V29.2426Z" fill="black"/>
<path d="M50.0823 27.4286H48.2842V29.2425H50.0823V27.4286Z" fill="#626CA0"/>
<path d="M50.0823 25.6305H48.2842V27.4286H50.0823V25.6305Z" fill="#626CA0"/>
<path d="M50.0823 23.8167H48.2842V25.6305H50.0823V23.8167Z" fill="#5364AD"/>
<path d="M50.0823 22.0211H48.2842V23.8192H50.0823V22.0211Z" fill="black"/>
<path d="M48.2841 78.0123H46.4702V79.8262H48.2841V78.0123Z" fill="black"/>
<path d="M48.2841 76.2169H46.4702V78.015H48.2841V76.2169Z" fill="black"/>
<path d="M48.2841 74.4004H46.4702V76.2143H48.2841V74.4004Z" fill="#C1811B"/>
<path d="M48.2841 72.5865H46.4702V74.4004H48.2841V72.5865Z" fill="#DBAB65"/>
<path d="M48.2841 70.7936H46.4702V72.5917H48.2841V70.7936Z" fill="#C1811B"/>
<path d="M48.2841 68.9772H46.4702V70.7911H48.2841V68.9772Z" fill="black"/>
<path d="M48.2841 67.1816H46.4702V68.9798H48.2841V67.1816Z" fill="#5364AD"/>
<path d="M48.2841 65.3651H46.4702V67.179H48.2841V65.3651Z" fill="black"/>
<path d="M48.2841 63.5696H46.4702V65.3677H48.2841V63.5696Z" fill="#2F384C"/>
<path d="M48.2841 61.7532H46.4702V63.5671H48.2841V61.7532Z" fill="black"/>
<path d="M48.2841 59.9419H46.4702V61.7558H48.2841V59.9419Z" fill="#344A91"/>
<path d="M48.2841 58.1464H46.4702V59.9445H48.2841V58.1464Z" fill="black"/>
<path d="M48.2841 56.3298H46.4702V58.1437H48.2841V56.3298Z" fill="#42578E"/>
<path d="M48.2841 54.5344H46.4702V56.3326H48.2841V54.5344Z" fill="#344A91"/>
<path d="M48.2841 52.7179H46.4702V54.5318H48.2841V52.7179Z" fill="black"/>
<path d="M48.2841 50.925H46.4702V52.7232H48.2841V50.925Z" fill="#C1811B"/>
<path d="M48.2841 49.1111H46.4702V50.925H48.2841V49.1111Z" fill="black"/>
<path d="M48.2841 47.313H46.4702V49.1111H48.2841V47.313Z" fill="black"/>
<path d="M48.2841 45.4991H46.4702V47.313H48.2841V45.4991Z" fill="#626CA0"/>
<path d="M48.2841 43.6826H46.4702V45.4965H48.2841V43.6826Z" fill="#404E89"/>
<path d="M48.2841 41.8871H46.4702V43.6852H48.2841V41.8871Z" fill="#626CA0"/>
<path d="M48.2841 40.0759H46.4702V41.8898H48.2841V40.0759Z" fill="black"/>
<path d="M48.2841 38.2777H46.4702V40.0758H48.2841V38.2777Z" fill="#404E89"/>
<path d="M48.2841 36.4639H46.4702V38.2777H48.2841V36.4639Z" fill="#5364AD"/>
<path d="M48.2841 34.6658H46.4702V36.4639H48.2841V34.6658Z" fill="black"/>
<path d="M48.2841 32.8519H46.4702V34.6658H48.2841V32.8519Z" fill="black"/>
<path d="M48.2841 31.038H46.4702V32.8518H48.2841V31.038Z" fill="black"/>
<path d="M48.2841 29.2426H46.4702V31.0407H48.2841V29.2426Z" fill="black"/>
<path d="M48.2841 27.4286H46.4702V29.2425H48.2841V27.4286Z" fill="#5364AD"/>
<path d="M48.2841 25.6305H46.4702V27.4286H48.2841V25.6305Z" fill="#5364AD"/>
<path d="M48.2841 23.8167H46.4702V25.6305H48.2841V23.8167Z" fill="#5364AD"/>
<path d="M48.2841 22.0211H46.4702V23.8192H48.2841V22.0211Z" fill="black"/>
<path d="M46.4706 78.0123H44.6567V79.8262H46.4706V78.0123Z" fill="black"/>
<path d="M46.4706 76.2169H44.6567V78.015H46.4706V76.2169Z" fill="#DBAB65"/>
<path d="M46.4706 74.4004H44.6567V76.2143H46.4706V74.4004Z" fill="#C1811B"/>
<path d="M46.4706 72.5865H44.6567V74.4004H46.4706V72.5865Z" fill="black"/>
<path d="M46.4706 70.7936H44.6567V72.5917H46.4706V70.7936Z" fill="black"/>
<path d="M46.4706 68.9772H44.6567V70.7911H46.4706V68.9772Z" fill="black"/>
<path d="M46.4706 67.1816H44.6567V68.9798H46.4706V67.1816Z" fill="black"/>
<path d="M46.4706 65.3651H44.6567V67.179H46.4706V65.3651Z" fill="black"/>
<path d="M46.4706 63.5696H44.6567V65.3677H46.4706V63.5696Z" fill="#2F384C"/>
<path d="M46.4706 61.7532H44.6567V63.5671H46.4706V61.7532Z" fill="black"/>
<path d="M46.4706 59.9419H44.6567V61.7558H46.4706V59.9419Z" fill="black"/>
<path d="M46.4706 58.1464H44.6567V59.9445H46.4706V58.1464Z" fill="black"/>
<path d="M46.4706 56.3298H44.6567V58.1437H46.4706V56.3298Z" fill="black"/>
<path d="M46.4706 54.5344H44.6567V56.3326H46.4706V54.5344Z" fill="black"/>
<path d="M46.4706 52.7179H44.6567V54.5318H46.4706V52.7179Z" fill="black"/>
<path d="M46.4706 50.925H44.6567V52.7232H46.4706V50.925Z" fill="black"/>
<path d="M46.4706 49.1111H44.6567V50.925H46.4706V49.1111Z" fill="black"/>
<path d="M46.4706 47.313H44.6567V49.1111H46.4706V47.313Z" fill="#404E89"/>
<path d="M46.4706 45.4991H44.6567V47.313H46.4706V45.4991Z" fill="black"/>
<path d="M46.4706 43.6826H44.6567V45.4965H46.4706V43.6826Z" fill="#626CA0"/>
<path d="M46.4706 41.8871H44.6567V43.6852H46.4706V41.8871Z" fill="#626CA0"/>
<path d="M46.4706 40.0759H44.6567V41.8898H46.4706V40.0759Z" fill="black"/>
<path d="M46.4706 38.2777H44.6567V40.0758H46.4706V38.2777Z" fill="black"/>
<path d="M46.4706 36.4639H44.6567V38.2777H46.4706V36.4639Z" fill="black"/>
<path d="M46.4706 34.6658H44.6567V36.4639H46.4706V34.6658Z" fill="black"/>
<path d="M46.4706 32.8519H44.6567V34.6658H46.4706V32.8519Z" fill="black"/>
<path d="M46.4706 31.038H44.6567V32.8518H46.4706V31.038Z" fill="black"/>
<path d="M46.4706 29.2426H44.6567V31.0407H46.4706V29.2426Z" fill="black"/>
<path d="M46.4706 27.4286H44.6567V29.2425H46.4706V27.4286Z" fill="black"/>
<path d="M46.4706 25.6305H44.6567V27.4286H46.4706V25.6305Z" fill="black"/>
<path d="M46.4706 23.8167H44.6567V25.6305H46.4706V23.8167Z" fill="black"/>
<path d="M44.6565 78.0123H42.8584V79.8262H44.6565V78.0123Z" fill="black"/>
<path d="M44.6565 76.2169H42.8584V78.015H44.6565V76.2169Z" fill="#DBAB65"/>
<path d="M44.6565 74.4004H42.8584V76.2143H44.6565V74.4004Z" fill="black"/>
<path d="M44.6565 65.3651H42.8584V67.179H44.6565V65.3651Z" fill="black"/>
<path d="M44.6565 63.5696H42.8584V65.3677H44.6565V63.5696Z" fill="#2F384C"/>
<path d="M44.6565 61.7532H42.8584V63.5671H44.6565V61.7532Z" fill="black"/>
<path d="M44.6565 59.9419H42.8584V61.7558H44.6565V59.9419Z" fill="#DBAB65"/>
<path d="M44.6565 58.1464H42.8584V59.9445H44.6565V58.1464Z" fill="black"/>
<path d="M44.6565 56.3298H42.8584V58.1437H44.6565V56.3298Z" fill="#DBAB65"/>
<path d="M44.6565 54.5344H42.8584V56.3326H44.6565V54.5344Z" fill="#B25212"/>
<path d="M44.6565 52.7179H42.8584V54.5318H44.6565V52.7179Z" fill="#C1811B"/>
<path d="M44.6565 50.925H42.8584V52.7232H44.6565V50.925Z" fill="black"/>
<path d="M44.6565 49.1111H42.8584V50.925H44.6565V49.1111Z" fill="black"/>
<path d="M44.6565 47.313H42.8584V49.1111H44.6565V47.313Z" fill="black"/>
<path d="M44.6565 45.4991H42.8584V47.313H44.6565V45.4991Z" fill="black"/>
<path d="M44.6565 43.6826H42.8584V45.4965H44.6565V43.6826Z" fill="black"/>
<path d="M44.6565 41.8871H42.8584V43.6852H44.6565V41.8871Z" fill="black"/>
<path d="M44.6565 40.0759H42.8584V41.8898H44.6565V40.0759Z" fill="#404E89"/>
<path d="M44.6565 38.2777H42.8584V40.0758H44.6565V38.2777Z" fill="#404E89"/>
<path d="M44.6565 36.4639H42.8584V38.2777H44.6565V36.4639Z" fill="#626CA0"/>
<path d="M44.6565 34.6658H42.8584V36.4639H44.6565V34.6658Z" fill="#626CA0"/>
<path d="M44.6565 32.8519H42.8584V34.6658H44.6565V32.8519Z" fill="#626CA0"/>
<path d="M44.6565 31.038H42.8584V32.8518H44.6565V31.038Z" fill="black"/>
<path d="M42.8612 78.0123H41.0474V79.8262H42.8612V78.0123Z" fill="black"/>
<path d="M42.8612 76.2169H41.0474V78.015H42.8612V76.2169Z" fill="#C1811B"/>
<path d="M42.8612 74.4004H41.0474V76.2143H42.8612V74.4004Z" fill="black"/>
<path d="M42.8612 65.3651H41.0474V67.179H42.8612V65.3651Z" fill="black"/>
<path d="M42.8612 63.5696H41.0474V65.3677H42.8612V63.5696Z" fill="#2F384C"/>
<path d="M42.8612 61.7532H41.0474V63.5671H42.8612V61.7532Z" fill="black"/>
<path d="M42.8612 59.9419H41.0474V61.7558H42.8612V59.9419Z" fill="#DBAB65"/>
<path d="M42.8612 58.1464H41.0474V59.9445H42.8612V58.1464Z" fill="#C1811B"/>
<path d="M42.8612 56.3298H41.0474V58.1437H42.8612V56.3298Z" fill="black"/>
<path d="M42.8612 54.5344H41.0474V56.3326H42.8612V54.5344Z" fill="black"/>
<path d="M42.8612 52.7179H41.0474V54.5318H42.8612V52.7179Z" fill="black"/>
<path d="M42.8612 50.925H41.0474V52.7232H42.8612V50.925Z" fill="black"/>
<path d="M42.8612 49.1111H41.0474V50.925H42.8612V49.1111Z" fill="black"/>
<path d="M42.8612 47.313H41.0474V49.1111H42.8612V47.313Z" fill="black"/>
<path d="M42.8612 45.4991H41.0474V47.313H42.8612V45.4991Z" fill="#C1811B"/>
<path d="M42.8612 43.6826H41.0474V45.4965H42.8612V43.6826Z" fill="black"/>
<path d="M42.8612 41.8871H41.0474V43.6852H42.8612V41.8871Z" fill="#404E89"/>
<path d="M42.8612 40.0759H41.0474V41.8898H42.8612V40.0759Z" fill="#404E89"/>
<path d="M42.8612 38.2777H41.0474V40.0758H42.8612V38.2777Z" fill="#626CA0"/>
<path d="M42.8612 36.4639H41.0474V38.2777H42.8612V36.4639Z" fill="#5364AD"/>
<path d="M42.8612 34.6658H41.0474V36.4639H42.8612V34.6658Z" fill="#5364AD"/>
<path d="M42.8612 32.8519H41.0474V34.6658H42.8612V32.8519Z" fill="#626CA0"/>
<path d="M42.8612 31.038H41.0474V32.8518H42.8612V31.038Z" fill="black"/>
<path d="M41.0471 78.0123H39.249V79.8262H41.0471V78.0123Z" fill="black"/>
<path d="M41.0471 76.2169H39.249V78.015H41.0471V76.2169Z" fill="black"/>
<path d="M41.0471 65.3651H39.249V67.179H41.0471V65.3651Z" fill="black"/>
<path d="M41.0471 63.5696H39.249V65.3677H41.0471V63.5696Z" fill="#2F384C"/>
<path d="M41.0471 61.7532H39.249V63.5671H41.0471V61.7532Z" fill="black"/>
<path d="M41.0471 59.9419H39.249V61.7558H41.0471V59.9419Z" fill="#C1811B"/>
<path d="M41.0471 58.1464H39.249V59.9445H41.0471V58.1464Z" fill="#C1811B"/>
<path d="M41.0471 56.3298H39.249V58.1437H41.0471V56.3298Z" fill="black"/>
<path d="M41.0471 45.4991H39.249V47.313H41.0471V45.4991Z" fill="black"/>
<path d="M41.0471 43.6826H39.249V45.4965H41.0471V43.6826Z" fill="#C1811B"/>
<path d="M41.0471 41.8871H39.249V43.6852H41.0471V41.8871Z" fill="black"/>
<path d="M41.0471 40.0759H39.249V41.8898H41.0471V40.0759Z" fill="#404E89"/>
<path d="M41.0471 38.2777H39.249V40.0758H41.0471V38.2777Z" fill="#5364AD"/>
<path d="M41.0471 36.4639H39.249V38.2777H41.0471V36.4639Z" fill="black"/>
<path d="M41.0471 34.6658H39.249V36.4639H41.0471V34.6658Z" fill="black"/>
<path d="M41.0471 32.8519H39.249V34.6658H41.0471V32.8519Z" fill="black"/>
<path d="M39.2489 65.3651H37.4351V67.179H39.2489V65.3651Z" fill="black"/>
<path d="M39.2489 63.5696H37.4351V65.3677H39.2489V63.5696Z" fill="#2F384C"/>
<path d="M39.2489 61.7532H37.4351V63.5671H39.2489V61.7532Z" fill="black"/>
<path d="M39.2489 59.9419H37.4351V61.7558H39.2489V59.9419Z" fill="black"/>
<path d="M39.2489 58.1464H37.4351V59.9445H39.2489V58.1464Z" fill="black"/>
<path d="M39.2489 43.6826H37.4351V45.4965H39.2489V43.6826Z" fill="black"/>
<path d="M39.2489 41.8871H37.4351V43.6852H39.2489V41.8871Z" fill="black"/>
<path d="M39.2489 40.0759H37.4351V41.8898H39.2489V40.0759Z" fill="black"/>
<path d="M39.2489 38.2777H37.4351V40.0758H39.2489V38.2777Z" fill="black"/>
<path d="M37.4378 65.3651H35.6396V67.179H37.4378V65.3651Z" fill="black"/>
<path d="M37.4378 63.5696H35.6396V65.3677H37.4378V63.5696Z" fill="#2F384C"/>
<path d="M37.4378 61.7532H35.6396V63.5671H37.4378V61.7532Z" fill="black"/>
<path d="M35.6371 65.3651H33.8232V67.179H35.6371V65.3651Z" fill="black"/>
<path d="M35.6371 63.5696H33.8232V65.3677H35.6371V63.5696Z" fill="#2F384C"/>
<path d="M35.6371 61.7532H33.8232V63.5671H35.6371V61.7532Z" fill="black"/>
<path d="M33.8232 72.5865H32.0093V74.4004H33.8232V72.5865Z" fill="black"/>
<path d="M33.8232 70.7936H32.0093V72.5917H33.8232V70.7936Z" fill="black"/>
<path d="M33.8232 65.3651H32.0093V67.179H33.8232V65.3651Z" fill="black"/>
<path d="M33.8232 63.5696H32.0093V65.3677H33.8232V63.5696Z" fill="#2D3D54"/>
<path d="M33.8232 61.7532H32.0093V63.5671H33.8232V61.7532Z" fill="black"/>
<path d="M33.8232 56.3298H32.0093V58.1437H33.8232V56.3298Z" fill="black"/>
<path d="M33.8232 54.5344H32.0093V56.3326H33.8232V54.5344Z" fill="black"/>
<path d="M32.012 74.4004H30.2139V76.2143H32.012V74.4004Z" fill="black"/>
<path d="M32.012 72.5865H30.2139V74.4004H32.012V72.5865Z" fill="#4A5A7F"/>
<path d="M32.012 70.7936H30.2139V72.5917H32.012V70.7936Z" fill="#4A5A7F"/>
<path d="M32.012 68.9772H30.2139V70.7911H32.012V68.9772Z" fill="black"/>
<path d="M32.012 67.1816H30.2139V68.9798H32.012V67.1816Z" fill="black"/>
<path d="M32.012 65.3651H30.2139V67.179H32.012V65.3651Z" fill="#1C2C3F"/>
<path d="M32.012 63.5696H30.2139V65.3677H32.012V63.5696Z" fill="#1C2C3F"/>
<path d="M32.012 61.7532H30.2139V63.5671H32.012V61.7532Z" fill="#1C2C3F"/>
<path d="M32.012 59.9419H30.2139V61.7558H32.012V59.9419Z" fill="black"/>
<path d="M32.012 58.1464H30.2139V59.9445H32.012V58.1464Z" fill="black"/>
<path d="M32.012 56.3298H30.2139V58.1437H32.012V56.3298Z" fill="#54679B"/>
<path d="M32.012 54.5344H30.2139V56.3326H32.012V54.5344Z" fill="#4A5A7F"/>
<path d="M32.012 52.7179H30.2139V54.5318H32.012V52.7179Z" fill="black"/>
<path d="M30.2138 76.2169H28.3999V78.015H30.2138V76.2169Z" fill="black"/>
<path d="M30.2138 74.4004H28.3999V76.2143H30.2138V74.4004Z" fill="#54679B"/>
<path d="M30.2138 72.5865H28.3999V74.4004H30.2138V72.5865Z" fill="#54679B"/>
<path d="M30.2138 70.7936H28.3999V72.5917H30.2138V70.7936Z" fill="#4A5A7F"/>
<path d="M30.2138 68.9772H28.3999V70.7911H30.2138V68.9772Z" fill="#4A5A7F"/>
<path d="M30.2138 67.1816H28.3999V68.9798H30.2138V67.1816Z" fill="black"/>
<path d="M30.2138 65.3651H28.3999V67.179H30.2138V65.3651Z" fill="#2D3D54"/>
<path d="M30.2138 63.5696H28.3999V65.3677H30.2138V63.5696Z" fill="#1C2C3F"/>
<path d="M30.2138 61.7532H28.3999V63.5671H30.2138V61.7532Z" fill="#1C2C3F"/>
<path d="M30.2138 59.9419H28.3999V61.7558H30.2138V59.9419Z" fill="black"/>
<path d="M30.2138 58.1464H28.3999V59.9445H30.2138V58.1464Z" fill="#54679B"/>
<path d="M30.2138 56.3298H28.3999V58.1437H30.2138V56.3298Z" fill="#54679B"/>
<path d="M30.2138 54.5344H28.3999V56.3326H30.2138V54.5344Z" fill="#4A5A7F"/>
<path d="M30.2138 52.7179H28.3999V54.5318H30.2138V52.7179Z" fill="#4A5A7F"/>
<path d="M30.2138 50.925H28.3999V52.7232H30.2138V50.925Z" fill="black"/>
<path d="M28.4026 76.2169H26.6045V78.015H28.4026V76.2169Z" fill="black"/>
<path d="M28.4026 74.4004H26.6045V76.2143H28.4026V74.4004Z" fill="#54679B"/>
<path d="M28.4026 72.5865H26.6045V74.4004H28.4026V72.5865Z" fill="#54679B"/>
<path d="M28.4026 70.7936H26.6045V72.5917H28.4026V70.7936Z" fill="#54679B"/>
<path d="M28.4026 68.9772H26.6045V70.7911H28.4026V68.9772Z" fill="#4A5A7F"/>
<path d="M28.4026 67.1816H26.6045V68.9798H28.4026V67.1816Z" fill="black"/>
<path d="M28.4026 65.3651H26.6045V67.179H28.4026V65.3651Z" fill="#2D3D54"/>
<path d="M28.4026 63.5696H26.6045V65.3677H28.4026V63.5696Z" fill="#2D3D54"/>
<path d="M28.4026 61.7532H26.6045V63.5671H28.4026V61.7532Z" fill="#1C2C3F"/>
<path d="M28.4026 59.9419H26.6045V61.7558H28.4026V59.9419Z" fill="black"/>
<path d="M28.4026 58.1464H26.6045V59.9445H28.4026V58.1464Z" fill="#54679B"/>
<path d="M28.4026 56.3298H26.6045V58.1437H28.4026V56.3298Z" fill="#54679B"/>
<path d="M28.4026 54.5344H26.6045V56.3326H28.4026V54.5344Z" fill="#54679B"/>
<path d="M28.4026 52.7179H26.6045V54.5318H28.4026V52.7179Z" fill="#4A5A7F"/>
<path d="M28.4026 50.925H26.6045V52.7232H28.4026V50.925Z" fill="black"/>
<path d="M26.602 76.2169H24.7881V78.015H26.602V76.2169Z" fill="black"/>
<path d="M26.602 74.4004H24.7881V76.2143H26.602V74.4004Z" fill="#4A5A7F"/>
<path d="M26.602 72.5865H24.7881V74.4004H26.602V72.5865Z" fill="#54679B"/>
<path d="M26.602 70.7936H24.7881V72.5917H26.602V70.7936Z" fill="black"/>
<path d="M26.602 68.9772H24.7881V70.7911H26.602V68.9772Z" fill="black"/>
<path d="M26.602 67.1816H24.7881V68.9798H26.602V67.1816Z" fill="black"/>
<path d="M26.602 65.3651H24.7881V67.179H26.602V65.3651Z" fill="#2D3D54"/>
<path d="M26.602 63.5696H24.7881V65.3677H26.602V63.5696Z" fill="#2D3D54"/>
<path d="M26.602 61.7532H24.7881V63.5671H26.602V61.7532Z" fill="#1C2C3F"/>
<path d="M26.602 59.9419H24.7881V61.7558H26.602V59.9419Z" fill="black"/>
<path d="M26.602 58.1464H24.7881V59.9445H26.602V58.1464Z" fill="black"/>
<path d="M26.602 56.3298H24.7881V58.1437H26.602V56.3298Z" fill="black"/>
<path d="M26.602 54.5344H24.7881V56.3326H26.602V54.5344Z" fill="#54679B"/>
<path d="M26.602 52.7179H24.7881V54.5318H26.602V52.7179Z" fill="#4A5A7F"/>
<path d="M26.602 50.925H24.7881V52.7232H26.602V50.925Z" fill="black"/>
<path d="M24.7903 76.2169H22.9922V78.015H24.7903V76.2169Z" fill="black"/>
<path d="M24.7903 74.4004H22.9922V76.2143H24.7903V74.4004Z" fill="#4A5A7F"/>
<path d="M24.7903 72.5865H22.9922V74.4004H24.7903V72.5865Z" fill="black"/>
<path d="M24.7903 65.3651H22.9922V67.179H24.7903V65.3651Z" fill="black"/>
<path d="M24.7903 63.5696H22.9922V65.3677H24.7903V63.5696Z" fill="#1C2C3F"/>
<path d="M24.7903 61.7532H22.9922V63.5671H24.7903V61.7532Z" fill="black"/>
<path d="M24.7903 54.5344H22.9922V56.3326H24.7903V54.5344Z" fill="black"/>
<path d="M24.7903 52.7179H22.9922V54.5318H24.7903V52.7179Z" fill="#4A5A7F"/>
<path d="M24.7903 50.925H22.9922V52.7232H24.7903V50.925Z" fill="black"/>
<path d="M22.9926 76.2169H21.1787V78.015H22.9926V76.2169Z" fill="black"/>
<path d="M22.9926 74.4004H21.1787V76.2143H22.9926V74.4004Z" fill="black"/>
<path d="M22.9926 67.1816H21.1787V68.9798H22.9926V67.1816Z" fill="black"/>
<path d="M22.9926 65.3651H21.1787V67.179H22.9926V65.3651Z" fill="#2D3D54"/>
<path d="M22.9926 63.5696H21.1787V65.3677H22.9926V63.5696Z" fill="#2D3D54"/>
<path d="M22.9926 61.7532H21.1787V63.5671H22.9926V61.7532Z" fill="#1C2C3F"/>
<path d="M22.9926 59.9419H21.1787V61.7558H22.9926V59.9419Z" fill="black"/>
<path d="M22.9926 52.7179H21.1787V54.5318H22.9926V52.7179Z" fill="black"/>
<path d="M22.9926 50.925H21.1787V52.7232H22.9926V50.925Z" fill="black"/>
<path d="M21.1809 65.3651H19.3828V67.179H21.1809V65.3651Z" fill="black"/>
<path d="M21.1809 63.5696H19.3828V65.3677H21.1809V63.5696Z" fill="#2D3D54"/>
<path d="M21.1809 61.7532H19.3828V63.5671H21.1809V61.7532Z" fill="black"/>
<path d="M19.3832 63.5696H17.5693V65.3677H19.3832V63.5696Z" fill="black"/>
</svg>
