<svg width="105" height="105" viewBox="0 0 105 105" fill="none" xmlns="http://www.w3.org/2000/svg">
<path d="M52.5002 4.73279C78.8812 4.73297 100.267 26.1194 100.267 52.5004C100.267 78.8812 78.8811 100.267 52.5002 100.267C26.1192 100.267 4.73285 78.8813 4.73267 52.5004C4.73267 26.1192 26.1191 4.73279 52.5002 4.73279Z" fill="#F9F7E7" stroke="#29100A" stroke-width="2"/>
<path d="M82.9552 66.2865H81.2254V68.0006H82.9552V66.2865Z" fill="black"/>
<path d="M82.9552 64.5566H81.2254V66.2865H82.9552V64.5566Z" fill="black"/>
<path d="M82.9552 62.8425H81.2254V64.5566H82.9552V62.8425Z" fill="black"/>
<path d="M81.2254 66.2865H79.5113V68.0006H81.2254V66.2865Z" fill="black"/>
<path d="M81.2254 64.5566H79.5113V66.2865H81.2254V64.5566Z" fill="#BC9311"/>
<path d="M81.2254 62.8425H79.5113V64.5566H81.2254V62.8425Z" fill="#BC9311"/>
<path d="M81.2254 61.1126H79.5113V62.8425H81.2254L81.2254 61.1126Z" fill="black"/>
<path d="M79.5086 66.2865H77.7788V68.0006H79.5086V66.2865Z" fill="black"/>
<path d="M79.5086 64.5566H77.7788V66.2865H79.5086V64.5566Z" fill="#BC9311"/>
<path d="M79.5086 62.8425H77.7788V64.5566H79.5086V62.8425Z" fill="#FFCE17"/>
<path d="M79.5086 61.1126H77.7788V62.8425H79.5086V61.1126Z" fill="#BC9311"/>
<path d="M79.5086 59.3827H77.7788V61.1126H79.5086V59.3827Z" fill="black"/>
<path d="M77.7788 66.2865H76.0646V68.0006H77.7788V66.2865Z" fill="black"/>
<path d="M77.7788 64.5566H76.0646V66.2865H77.7788V64.5566Z" fill="#FFCE17"/>
<path d="M77.7788 62.8425H76.0646V64.5566H77.7788V62.8425Z" fill="#D8B8B8"/>
<path d="M77.7788 61.1126H76.0646V62.8425H77.7788V61.1126Z" fill="#D8B8B8"/>
<path d="M77.7788 59.3827H76.0646V61.1126H77.7788V59.3827Z" fill="#BA9595"/>
<path d="M77.7787 57.6686H76.0646V59.3827H77.7788L77.7787 57.6686Z" fill="black"/>
<path d="M77.7787 55.9361H76.0646V57.666H77.7787V55.9361Z" fill="black"/>
<path d="M76.0646 74.907H74.3347V76.6211H76.0646V74.907Z" fill="black"/>
<path d="M76.0646 73.1771H74.3347V74.907H76.0646V73.1771Z" fill="black"/>
<path d="M76.0646 71.4472H74.3347V73.1771H76.0646V71.4472Z" fill="black"/>
<path d="M76.0646 69.7305H74.3347V71.4446H76.0646V69.7305Z" fill="black"/>
<path d="M76.0646 68.0032H74.3347V69.7331H76.0646V68.0032Z" fill="black"/>
<path d="M76.0646 66.2865H74.3347V68.0006H76.0646V66.2865Z" fill="black"/>
<path d="M76.0646 64.5566H74.3347V66.2865H76.0646V64.5566Z" fill="#FFCE17"/>
<path d="M76.0646 62.8425H74.3347V64.5566H76.0646V62.8425Z" fill="#D8B8B8"/>
<path d="M76.0646 61.1126H74.3347V62.8425H76.0646V61.1126Z" fill="#D8B8B8"/>
<path d="M76.0646 59.3827H74.3347V61.1126H76.0646V59.3827Z" fill="#D8B8B8"/>
<path d="M76.0646 57.6686H74.3347V59.3827H76.0646V57.6686Z" fill="#D8B8B8"/>
<path d="M76.0646 55.9361H74.3347V57.666H76.0646V55.9361Z" fill="#D8B8B8"/>
<path d="M76.0646 54.222H74.3347V55.9361H76.0646V54.222Z" fill="black"/>
<path d="M76.0646 52.4921H74.3347V54.222H76.0646V52.4921Z" fill="black"/>
<path d="M74.3347 74.907H72.6049V76.6211H74.3347V74.907Z" fill="black"/>
<path d="M74.3347 73.1771H72.6049V74.907H74.3347V73.1771Z" fill="#BC9311"/>
<path d="M74.3347 71.4472H72.6049V73.1771H74.3347V71.4472Z" fill="#BC9311"/>
<path d="M74.3347 69.7305H72.6049V71.4446H74.3347V69.7305Z" fill="#BC9311"/>
<path d="M74.3347 68.0032H72.6049V69.7331H74.3347V68.0032Z" fill="#FFCE17"/>
<path d="M74.3347 66.2865H72.6049V68.0006H74.3347V66.2865Z" fill="#FFCE17"/>
<path d="M74.3347 64.5566H72.6049V66.2865H74.3347V64.5566Z" fill="#D8B8B8"/>
<path d="M74.3347 62.8425H72.6049V64.5566H74.3347V62.8425Z" fill="#D8B8B8"/>
<path d="M74.3347 61.1126H72.6049V62.8425H74.3347V61.1126Z" fill="#D8B8B8"/>
<path d="M74.3347 59.3827H72.6049V61.1126H74.3347V59.3827Z" fill="#D8B8B8"/>
<path d="M74.3347 57.6686H72.6049V59.3827H74.3347V57.6686Z" fill="#D8B8B8"/>
<path d="M74.3347 55.9361H72.6049V57.666H74.3347V55.9361Z" fill="#D8B8B8"/>
<path d="M74.3347 54.222H72.6049V55.9361H74.3347V54.222Z" fill="#D8B8B8"/>
<path d="M74.3347 52.4921H72.6049V54.222H74.3347V52.4921Z" fill="#D8B8B8"/>
<path d="M74.3347 50.778H72.6049V52.4921H74.3347V50.778Z" fill="black"/>
<path d="M74.3347 49.0481H72.6049V50.778H74.3347V49.0481Z" fill="black"/>
<path d="M74.3347 43.8716H72.6049V45.6015H74.3347V43.8716Z" fill="black"/>
<path d="M74.3347 42.1575H72.6049V43.8716H74.3347V42.1575Z" fill="black"/>
<path d="M74.3347 40.4276H72.6049V42.1575H74.3347V40.4276Z" fill="black"/>
<path d="M72.6022 76.6211H70.8881V78.351H72.6022V76.6211Z" fill="black"/>
<path d="M72.6022 74.907H70.8881V76.6211H72.6022V74.907Z" fill="#A05252"/>
<path d="M72.6022 73.1771H70.8881V74.907H72.6022V73.1771Z" fill="black"/>
<path d="M72.6022 71.4472H70.8881V73.1771H72.6022V71.4472Z" fill="#BC9311"/>
<path d="M72.6022 69.7305H70.8881V71.4446H72.6022V69.7305Z" fill="#FFCE17"/>
<path d="M72.6022 68.0032H70.8881V69.7331H72.6022V68.0032Z" fill="#D8B8B8"/>
<path d="M72.6022 66.2865H70.8881V68.0006H72.6022V66.2865Z" fill="#D8B8B8"/>
<path d="M72.6022 64.5566H70.8881V66.2865H72.6022V64.5566Z" fill="#D8B8B8"/>
<path d="M72.6022 62.8425H70.8881V64.5566H72.6022V62.8425Z" fill="#D8B8B8"/>
<path d="M72.6022 61.1126H70.8881V62.8425H72.6022V61.1126Z" fill="#D8B8B8"/>
<path d="M72.6022 59.3827H70.8881V61.1126H72.6022V59.3827Z" fill="#D8B8B8"/>
<path d="M72.6022 57.6686H70.8881V59.3827H72.6022V57.6686Z" fill="#D8B8B8"/>
<path d="M72.6022 55.9361H70.8881V57.666H72.6022V55.9361Z" fill="#D8B8B8"/>
<path d="M72.6022 54.222H70.8881V55.9361H72.6022V54.222Z" fill="#D8B8B8"/>
<path d="M72.6022 52.4921H70.8881V54.222H72.6022V52.4921Z" fill="#D8B8B8"/>
<path d="M72.6022 50.778H70.8881V52.4921H72.6022V50.778Z" fill="#D8B8B8"/>
<path d="M72.6022 49.0481H70.8881V50.778H72.6022V49.0481Z" fill="#D8B8B8"/>
<path d="M72.6022 47.334H70.8881V49.0481H72.6022V47.334Z" fill="black"/>
<path d="M72.6022 45.6015H70.8881V47.3314H72.6022V45.6015Z" fill="black"/>
<path d="M72.6022 43.8716H70.8881V45.6015H72.6022V43.8716Z" fill="black"/>
<path d="M72.6022 42.1575H70.8881V43.8716H72.6022V42.1575Z" fill="#844141"/>
<path d="M72.6022 40.4276H70.8881V42.1575H72.6022V40.4276Z" fill="#A05252"/>
<path d="M72.6022 38.7135H70.8881V40.4276H72.6022V38.7135Z" fill="black"/>
<path d="M72.6022 36.9836H70.8881V38.7135H72.6022V36.9836Z" fill="black"/>
<path d="M70.8908 76.6211H69.1609V78.351H70.8908V76.6211Z" fill="black"/>
<path d="M70.8908 74.907H69.1609V76.6211H70.8908V74.907Z" fill="#A05252"/>
<path d="M70.8908 73.1771H69.1609V74.907H70.8908V73.1771Z" fill="#A05252"/>
<path d="M70.8908 71.4472H69.1609V73.1771H70.8908V71.4472Z" fill="black"/>
<path d="M70.8908 69.7305H69.1609V71.4446H70.8908V69.7305Z" fill="#FFCE17"/>
<path d="M70.8908 68.0032H69.1609V69.7331H70.8908V68.0032Z" fill="#D8B8B8"/>
<path d="M70.8908 66.2865H69.1609V68.0006H70.8908V66.2865Z" fill="#D8B8B8"/>
<path d="M70.8908 64.5566H69.1609V66.2865H70.8908V64.5566Z" fill="#D8B8B8"/>
<path d="M70.8908 62.8425H69.1609V64.5566H70.8908V62.8425Z" fill="#D8B8B8"/>
<path d="M70.8908 61.1126H69.1609V62.8425H70.8908V61.1126Z" fill="#D8B8B8"/>
<path d="M70.8908 59.3827H69.1609V61.1126H70.8908V59.3827Z" fill="#D8B8B8"/>
<path d="M70.8908 57.6686H69.1609V59.3827H70.8908V57.6686Z" fill="#D8B8B8"/>
<path d="M70.8908 55.9361H69.1609V57.666H70.8908V55.9361Z" fill="#D8B8B8"/>
<path d="M70.8908 54.222H69.1609V55.9361H70.8908V54.222Z" fill="#D8B8B8"/>
<path d="M70.8908 52.4921H69.1609V54.222H70.8908V52.4921Z" fill="#D8B8B8"/>
<path d="M70.8908 50.778H69.1609V52.4921H70.8908V50.778Z" fill="#D8B8B8"/>
<path d="M70.8908 49.0481H69.1609V50.778H70.8908V49.0481Z" fill="#D8B8B8"/>
<path d="M70.8908 47.334H69.1609V49.0481H70.8908V47.334Z" fill="#D8B8B8"/>
<path d="M70.8908 45.6015H69.1609V47.3314H70.8908V45.6015Z" fill="#BA9595"/>
<path d="M70.8908 43.8716H69.1609V45.6015H70.8908V43.8716Z" fill="#844141"/>
<path d="M70.8908 42.1575H69.1609V43.8716H70.8908V42.1575Z" fill="#844141"/>
<path d="M70.8908 40.4276H69.1609V42.1575H70.8908V40.4276Z" fill="#A05252"/>
<path d="M70.8908 38.7135H69.1609V40.4276H70.8908V38.7135Z" fill="#A05252"/>
<path d="M70.8908 36.9836H69.1609V38.7135H70.8908V36.9836Z" fill="#A05252"/>
<path d="M70.8908 35.2695H69.1609V36.9836H70.8908V35.2695Z" fill="black"/>
<path d="M69.1609 78.351H67.4468V80.0651H69.1609L69.1609 78.351Z" fill="black"/>
<path d="M69.1609 76.6211H67.4468V78.351H69.1609V76.6211Z" fill="#A05252"/>
<path d="M69.1609 74.907H67.4468V76.6211H69.1609V74.907Z" fill="#A05252"/>
<path d="M69.1609 73.1771H67.4468V74.907H69.1609V73.1771Z" fill="#A05252"/>
<path d="M69.1609 71.4472H67.4468V73.1771H69.1609V71.4472Z" fill="#A05252"/>
<path d="M69.1609 69.7305H67.4468V71.4446H69.1609V69.7305Z" fill="black"/>
<path d="M69.1609 68.0032H67.4468V69.7331H69.1609V68.0032Z" fill="black"/>
<path d="M69.1609 66.2865H67.4468V68.0006H69.1609V66.2865Z" fill="#D8B8B8"/>
<path d="M69.1609 64.5566H67.4468V66.2865H69.1609V64.5566Z" fill="#D8B8B8"/>
<path d="M69.1609 62.8425H67.4468V64.5566H69.1609V62.8425Z" fill="#D8B8B8"/>
<path d="M69.1609 61.1126H67.4468V62.8425H69.1609V61.1126Z" fill="#D8B8B8"/>
<path d="M69.1609 59.3827H67.4468V61.1126H69.1609V59.3827Z" fill="#D8B8B8"/>
<path d="M69.1609 57.6686H67.4468V59.3827H69.1609V57.6686Z" fill="#D8B8B8"/>
<path d="M69.1609 55.9361H67.4468V57.666H69.1609V55.9361Z" fill="#D8B8B8"/>
<path d="M69.1609 54.222H67.4468V55.9361H69.1609V54.222Z" fill="#D8B8B8"/>
<path d="M69.1609 52.4921H67.4468V54.222H69.1609V52.4921Z" fill="#D8B8B8"/>
<path d="M69.1609 50.778H67.4468V52.4921H69.1609V50.778Z" fill="#D8B8B8"/>
<path d="M69.1609 49.0481H67.4468V50.778H69.1609V49.0481Z" fill="#D8B8B8"/>
<path d="M69.1609 47.334H67.4468V49.0481H69.1609V47.334Z" fill="#BA9595"/>
<path d="M69.1609 45.6015H67.4468V47.3314H69.1609V45.6015Z" fill="#BA9595"/>
<path d="M69.1609 43.8716H67.4468V45.6015H69.1609V43.8716Z" fill="#844141"/>
<path d="M69.1609 42.1575H67.4468V43.8716H69.1609V42.1575Z" fill="#A05252"/>
<path d="M69.1609 40.4276H67.4468V42.1575H69.1609V40.4276Z" fill="#A05252"/>
<path d="M69.1609 38.7135H67.4468V40.4276H69.1609V38.7135Z" fill="#A05252"/>
<path d="M69.1609 36.9836H67.4468V38.7135H69.1609V36.9836Z" fill="#A05252"/>
<path d="M69.1609 35.2695H67.4468V36.9836H69.1609V35.2695Z" fill="#BA9595"/>
<path d="M69.1609 33.537H67.4468V35.2669H69.1609V33.537Z" fill="black"/>
<path d="M67.4441 83.5117H65.7142V85.2416H67.4441V83.5117Z" fill="black"/>
<path d="M67.4441 81.795H65.7142V83.5091H67.4441V81.795Z" fill="black"/>
<path d="M67.4441 78.351H65.7142V80.0651H67.4441V78.351Z" fill="black"/>
<path d="M67.4441 76.6211H65.7142V78.351H67.4441V76.6211Z" fill="#A05252"/>
<path d="M67.4441 74.907H65.7142V76.6211H67.4441V74.907Z" fill="#A05252"/>
<path d="M67.4441 73.1771H65.7142V74.907H67.4441V73.1771Z" fill="black"/>
<path d="M67.4441 71.4472H65.7142V73.1771H67.4441V71.4472Z" fill="black"/>
<path d="M67.4441 69.7305H65.7142V71.4446H67.4441V69.7305Z" fill="#FFCE17"/>
<path d="M67.4441 68.0032H65.7142V69.7331H67.4441V68.0032Z" fill="#FFCE17"/>
<path d="M67.4441 66.2865H65.7142V68.0006H67.4441V66.2865Z" fill="#D8B8B8"/>
<path d="M67.4441 64.5566H65.7142V66.2865H67.4441V64.5566Z" fill="#D8B8B8"/>
<path d="M67.4441 62.8425H65.7142V64.5566H67.4441V62.8425Z" fill="#D8B8B8"/>
<path d="M67.4441 61.1126H65.7142V62.8425H67.4441V61.1126Z" fill="#D8B8B8"/>
<path d="M67.4441 59.3827H65.7142V61.1126H67.4441V59.3827Z" fill="#D8B8B8"/>
<path d="M67.4441 57.6686H65.7142V59.3827H67.4441V57.6686Z" fill="#D8B8B8"/>
<path d="M67.4441 55.9361H65.7142V57.666H67.4441V55.9361Z" fill="#D8B8B8"/>
<path d="M67.4441 54.222H65.7142V55.9361H67.4441V54.222Z" fill="#D8B8B8"/>
<path d="M67.4441 52.4921H65.7142V54.222H67.4441V52.4921Z" fill="#D8B8B8"/>
<path d="M67.4441 50.778H65.7142V52.4921H67.4441V50.778Z" fill="#D8B8B8"/>
<path d="M67.4441 49.0481H65.7142V50.778H67.4441V49.0481Z" fill="#D8B8B8"/>
<path d="M67.4441 47.334H65.7142V49.0481H67.4441V47.334Z" fill="#BA9595"/>
<path d="M67.4441 45.6015H65.7142V47.3314H67.4441V45.6015Z" fill="#844141"/>
<path d="M67.4441 43.8716H65.7142V45.6015H67.4441V43.8716Z" fill="#844141"/>
<path d="M67.4441 42.1575H65.7142V43.8716H67.4441V42.1575Z" fill="#A05252"/>
<path d="M67.4441 40.4276H65.7142V42.1575H67.4441V40.4276Z" fill="#A05252"/>
<path d="M67.4441 38.7135H65.7142V40.4276H67.4441V38.7135Z" fill="#A05252"/>
<path d="M67.4441 36.9836H65.7142V38.7135H67.4441V36.9836Z" fill="#BA9595"/>
<path d="M67.4441 35.2695H65.7142V36.9836H67.4441V35.2695Z" fill="#BA9595"/>
<path d="M67.4441 33.537H65.7142V35.2669H67.4441V33.537Z" fill="black"/>
<path d="M65.7142 83.5117H64.0001V85.2416H65.7142V83.5117Z" fill="black"/>
<path d="M65.7142 81.795H64.0001V83.5091H65.7142V81.795Z" fill="#7F4E4E"/>
<path d="M65.7142 80.0677H64.0001V81.7976H65.7142V80.0677Z" fill="black"/>
<path d="M65.7142 78.351H64.0001V80.0651H65.7142V78.351Z" fill="black"/>
<path d="M65.7142 76.6211H64.0001V78.351H65.7142V76.6211Z" fill="#A05252"/>
<path d="M65.7142 74.907H64.0001V76.6211H65.7142V74.907Z" fill="black"/>
<path d="M65.7142 73.1771H64.0001V74.907H65.7142V73.1771Z" fill="#BC9311"/>
<path d="M65.7142 71.4472H64.0001V73.1771H65.7142V71.4472Z" fill="#BC9311"/>
<path d="M65.7142 69.7305H64.0001V71.4446H65.7142V69.7305Z" fill="#FFCE17"/>
<path d="M65.7142 68.0032H64.0001V69.7331H65.7142V68.0032Z" fill="#D8B8B8"/>
<path d="M65.7142 66.2865H64.0001V68.0006H65.7142V66.2865Z" fill="#D8B8B8"/>
<path d="M65.7142 64.5566H64.0001V66.2865H65.7142V64.5566Z" fill="#D8B8B8"/>
<path d="M65.7142 62.8425H64.0001V64.5566H65.7142V62.8425Z" fill="#D8B8B8"/>
<path d="M65.7142 61.1126H64.0001V62.8425H65.7142V61.1126Z" fill="#D8B8B8"/>
<path d="M65.7142 59.3827H64.0001V61.1126H65.7142V59.3827Z" fill="#D8B8B8"/>
<path d="M65.7142 57.6686H64.0001V59.3827H65.7142V57.6686Z" fill="#D8B8B8"/>
<path d="M65.7142 55.9361H64.0001V57.666H65.7142V55.9361Z" fill="#D8B8B8"/>
<path d="M65.7142 54.222H64.0001V55.9361H65.7142V54.222Z" fill="#D8B8B8"/>
<path d="M65.7142 52.4921H64.0001V54.222H65.7142V52.4921Z" fill="#D8B8B8"/>
<path d="M65.7142 50.778H64.0001V52.4921H65.7142V50.778Z" fill="#D8B8B8"/>
<path d="M65.7142 49.0481H64.0001V50.778H65.7142V49.0481Z" fill="#D8B8B8"/>
<path d="M65.7142 47.334H64.0001V49.0481H65.7142V47.334Z" fill="#BA9595"/>
<path d="M65.7142 45.6015H64.0001V47.3314H65.7142V45.6015Z" fill="#844141"/>
<path d="M65.7142 43.8716H64.0001V45.6015H65.7142V43.8716Z" fill="#A05252"/>
<path d="M65.7142 42.1575H64.0001V43.8716H65.7142V42.1575Z" fill="#A05252"/>
<path d="M65.7142 40.4276H64.0001V42.1575H65.7142V40.4276Z" fill="#A05252"/>
<path d="M65.7142 38.7135H64.0001V40.4276H65.7142V38.7135Z" fill="#A05252"/>
<path d="M65.7142 36.9836H64.0001V38.7135H65.7142V36.9836Z" fill="#D8B8B8"/>
<path d="M65.7142 35.2695H64.0001V36.9836H65.7142V35.2695Z" fill="#BA9595"/>
<path d="M65.7142 33.537H64.0001V35.2669H65.7142V33.537Z" fill="#BA9595"/>
<path d="M65.7142 31.8071H64.0001V33.537H65.7142V31.8071Z" fill="black"/>
<path d="M64.0001 83.5117H62.2703V85.2416H64.0001V83.5117Z" fill="black"/>
<path d="M64.0001 81.795H62.2703V83.5091H64.0001V81.795Z" fill="#7F4E4E"/>
<path d="M64.0001 80.0677H62.2703V81.7976H64.0001V80.0677Z" fill="#7F4E4E"/>
<path d="M64.0001 78.351H62.2703V80.0651H64.0001V78.351Z" fill="black"/>
<path d="M64.0001 76.6211H62.2703V78.351H64.0001V76.6211Z" fill="#A05252"/>
<path d="M64.0001 74.907H62.2703V76.6211H64.0001V74.907Z" fill="black"/>
<path d="M64.0001 73.1771H62.2703V74.907H64.0001V73.1771Z" fill="black"/>
<path d="M64.0001 71.4472H62.2703V73.1771H64.0001V71.4472Z" fill="black"/>
<path d="M64.0001 69.7305H62.2703V71.4446H64.0001V69.7305Z" fill="black"/>
<path d="M64.0001 68.0032H62.2703V69.7331H64.0001V68.0032Z" fill="black"/>
<path d="M64.0001 66.2865H62.2703V68.0006H64.0001V66.2865Z" fill="#FFCE17"/>
<path d="M64.0001 64.5566H62.2703V66.2865H64.0001V64.5566Z" fill="#BA9595"/>
<path d="M64.0001 62.8425H62.2703V64.5566H64.0001V62.8425Z" fill="#BA9595"/>
<path d="M64.0001 61.1126H62.2703V62.8425H64.0001V61.1126Z" fill="#BA9595"/>
<path d="M64.0001 59.3827H62.2703V61.1126H64.0001V59.3827Z" fill="#BA9595"/>
<path d="M64.0001 57.6686H62.2703V59.3827H64.0001V57.6686Z" fill="#BA9595"/>
<path d="M64.0001 55.9361H62.2703V57.666H64.0001V55.9361Z" fill="#BA9595"/>
<path d="M64.0001 54.222H62.2703V55.9361H64.0001V54.222Z" fill="#D8B8B8"/>
<path d="M64.0001 52.4921H62.2703V54.222H64.0001V52.4921Z" fill="#D8B8B8"/>
<path d="M64.0001 50.778H62.2703V52.4921H64.0001V50.778Z" fill="#D8B8B8"/>
<path d="M64.0001 49.0481H62.2703V50.778H64.0001V49.0481Z" fill="#BA9595"/>
<path d="M64.0001 47.334H62.2703V49.0481H64.0001V47.334Z" fill="#BA9595"/>
<path d="M64.0001 45.6015H62.2703V47.3314H64.0001V45.6015Z" fill="#844141"/>
<path d="M64.0001 43.8716H62.2703V45.6015H64.0001V43.8716Z" fill="#A05252"/>
<path d="M64.0001 42.1575H62.2703V43.8716H64.0001V42.1575Z" fill="#A05252"/>
<path d="M64.0001 40.4276H62.2703V42.1575H64.0001V40.4276Z" fill="#A05252"/>
<path d="M64.0001 38.7135H62.2703V40.4276H64.0001V38.7135Z" fill="#A05252"/>
<path d="M64.0001 36.9836H62.2703V38.7135H64.0001V36.9836Z" fill="#D8B8B8"/>
<path d="M64.0001 35.2695H62.2703V36.9836H64.0001V35.2695Z" fill="#D8B8B8"/>
<path d="M64.0001 33.537H62.2703V35.2669H64.0001V33.537Z" fill="#BA9595"/>
<path d="M64.0001 31.8071H62.2703V33.537H64.0001V31.8071Z" fill="black"/>
<path d="M64.0001 30.093H62.2703V31.8071H64.0001L64.0001 30.093Z" fill="black"/>
<path d="M64.0001 28.3631H62.2703V30.093H64.0001V28.3631Z" fill="black"/>
<path d="M62.2703 83.5117H60.5404V85.2416H62.2703V83.5117Z" fill="black"/>
<path d="M62.2703 81.795H60.5404V83.5091H62.2703V81.795Z" fill="#7F4E4E"/>
<path d="M62.2703 80.0677H60.5404V81.7976H62.2703V80.0677Z" fill="black"/>
<path d="M62.2703 78.351H60.5404V80.0651H62.2703V78.351Z" fill="#A05252"/>
<path d="M62.2703 76.6211H60.5404V78.351H62.2703V76.6211Z" fill="#A05252"/>
<path d="M62.2703 74.907H60.5404V76.6211H62.2703V74.907Z" fill="#A05252"/>
<path d="M62.2703 73.1771H60.5404V74.907H62.2703V73.1771Z" fill="#A05252"/>
<path d="M62.2703 71.4472H60.5404V73.1771H62.2703V71.4472Z" fill="black"/>
<path d="M62.2703 69.7305H60.5404V71.4446H62.2703V69.7305Z" fill="#BC9311"/>
<path d="M62.2703 68.0032H60.5404V69.7331H62.2703V68.0032Z" fill="#BC9311"/>
<path d="M62.2703 66.2865H60.5404V68.0006H62.2703V66.2865Z" fill="#FFCE17"/>
<path d="M62.2703 64.5566H60.5404V66.2865H62.2703V64.5566Z" fill="#FFCE17"/>
<path d="M62.2703 62.8425H60.5404V64.5566H62.2703V62.8425Z" fill="#BA9595"/>
<path d="M62.2703 61.1126H60.5404V62.8425H62.2703V61.1126Z" fill="#BA9595"/>
<path d="M62.2703 59.3827H60.5404V61.1126H62.2703V59.3827Z" fill="#BA9595"/>
<path d="M62.2703 57.6686H60.5404V59.3827H62.2703V57.6686Z" fill="#BA9595"/>
<path d="M62.2703 55.9361H60.5404V57.666H62.2703V55.9361Z" fill="#BA9595"/>
<path d="M62.2703 54.222H60.5404V55.9361H62.2703V54.222Z" fill="#BA9595"/>
<path d="M62.2703 52.4921H60.5404V54.222H62.2703V52.4921Z" fill="#BA9595"/>
<path d="M62.2703 50.778H60.5404V52.4921H62.2703V50.778Z" fill="#BA9595"/>
<path d="M62.2703 49.0481H60.5404V50.778H62.2703V49.0481Z" fill="#BA9595"/>
<path d="M62.2703 47.334H60.5404V49.0481H62.2703V47.334Z" fill="#844141"/>
<path d="M62.2703 45.6015H60.5404V47.3314H62.2703V45.6015Z" fill="#844141"/>
<path d="M62.2703 43.8716H60.5404V45.6015H62.2703V43.8716Z" fill="#A05252"/>
<path d="M62.2703 42.1575H60.5404V43.8716H62.2703V42.1575Z" fill="#A05252"/>
<path d="M62.2703 40.4276H60.5404V42.1575H62.2703V40.4276Z" fill="#A05252"/>
<path d="M62.2703 38.7135H60.5404V40.4276H62.2703V38.7135Z" fill="#D8B8B8"/>
<path d="M62.2703 36.9836H60.5404V38.7135H62.2703V36.9836Z" fill="#D8B8B8"/>
<path d="M62.2703 35.2695H60.5404V36.9836H62.2703V35.2695Z" fill="#D8B8B8"/>
<path d="M62.2703 33.537H60.5404V35.2669H62.2703V33.537Z" fill="#BA9595"/>
<path d="M62.2703 31.8071H60.5404V33.537H62.2703V31.8071Z" fill="#BA9595"/>
<path d="M62.2703 30.093H60.5404V31.8071H62.2703V30.093Z" fill="#BA9595"/>
<path d="M62.2703 28.3631H60.5404V30.093H62.2703V28.3631Z" fill="#BA9595"/>
<path d="M62.2703 26.649H60.5404V28.3631H62.2703V26.649Z" fill="black"/>
<path d="M62.2703 24.9165H60.5404V26.6464H62.2703V24.9165Z" fill="black"/>
<path d="M60.5404 83.5117H58.8263V85.2416H60.5404V83.5117Z" fill="black"/>
<path d="M60.5404 81.795H58.8263V83.5091H60.5404V81.795Z" fill="#7F4E4E"/>
<path d="M60.5404 80.0677H58.8263V81.7976H60.5404V80.0677Z" fill="black"/>
<path d="M60.5404 78.351H58.8263V80.0651H60.5404V78.351Z" fill="#A05252"/>
<path d="M60.5404 76.6211H58.8263V78.351H60.5404V76.6211Z" fill="#A05252"/>
<path d="M60.5404 74.907H58.8263V76.6211H60.5404V74.907Z" fill="#A05252"/>
<path d="M60.5404 73.1771H58.8263V74.907H60.5404V73.1771Z" fill="#A05252"/>
<path d="M60.5404 71.4472H58.8263V73.1771H60.5404V71.4472Z" fill="black"/>
<path d="M60.5404 69.7305H58.8263V71.4446H60.5404V69.7305Z" fill="black"/>
<path d="M60.5404 68.0032H58.8263V69.7331H60.5404V68.0032Z" fill="black"/>
<path d="M60.5404 66.2865H58.8263V68.0006H60.5404V66.2865Z" fill="black"/>
<path d="M60.5404 64.5566H58.8263V66.2865H60.5404V64.5566Z" fill="black"/>
<path d="M60.5404 62.8425H58.8263V64.5566H60.5404V62.8425Z" fill="black"/>
<path d="M60.5404 61.1126H58.8263V62.8425H60.5404V61.1126Z" fill="black"/>
<path d="M60.5404 59.3827H58.8263V61.1126H60.5404V59.3827Z" fill="black"/>
<path d="M60.5404 57.6686H58.8263V59.3827H60.5404V57.6686Z" fill="black"/>
<path d="M60.5404 55.9361H58.8263V57.666H60.5404V55.9361Z" fill="black"/>
<path d="M60.5404 54.222H58.8263V55.9361H60.5404V54.222Z" fill="#BA9595"/>
<path d="M60.5404 52.4921H58.8263V54.222H60.5404V52.4921Z" fill="#BA9595"/>
<path d="M60.5404 50.778H58.8263V52.4921H60.5404V50.778Z" fill="#BA9595"/>
<path d="M60.5404 49.0481H58.8263V50.778H60.5404V49.0481Z" fill="#BA9595"/>
<path d="M60.5404 47.334H58.8263V49.0481H60.5404V47.334Z" fill="#844141"/>
<path d="M60.5404 45.6015H58.8263V47.3314H60.5404V45.6015Z" fill="#A05252"/>
<path d="M60.5404 43.8716H58.8263V45.6015H60.5404V43.8716Z" fill="#A05252"/>
<path d="M60.5404 42.1575H58.8263V43.8716H60.5404V42.1575Z" fill="#A05252"/>
<path d="M60.5404 40.4276H58.8263V42.1575H60.5404V40.4276Z" fill="#A05252"/>
<path d="M60.5404 38.7135H58.8263V40.4276H60.5404V38.7135Z" fill="#D8B8B8"/>
<path d="M60.5404 36.9836H58.8263V38.7135H60.5404V36.9836Z" fill="#D8B8B8"/>
<path d="M60.5404 35.2695H58.8263V36.9836H60.5404V35.2695Z" fill="#D8B8B8"/>
<path d="M60.5404 33.537H58.8263V35.2669H60.5404V33.537Z" fill="#D8B8B8"/>
<path d="M60.5404 31.8071H58.8263V33.537H60.5404V31.8071Z" fill="#844141"/>
<path d="M60.5404 30.093H58.8263V31.8071H60.5404V30.093Z" fill="#844141"/>
<path d="M60.5404 28.3631H58.8263V30.093H60.5404V28.3631Z" fill="#844141"/>
<path d="M60.5404 26.649H58.8263V28.3631H60.5404V26.649Z" fill="#BA9595"/>
<path d="M60.5404 24.9165H58.8263V26.6464H60.5404V24.9165Z" fill="#BA9595"/>
<path d="M60.5404 23.205H58.8263V24.9191H60.5404V23.205Z" fill="black"/>
<path d="M58.8236 83.5117H57.0938V85.2416H58.8236V83.5117Z" fill="black"/>
<path d="M58.8236 81.795H57.0938V83.5091H58.8236V81.795Z" fill="black"/>
<path d="M58.8236 80.0677H57.0938V81.7976H58.8236V80.0677Z" fill="black"/>
<path d="M58.8236 78.351H57.0938V80.0651H58.8236V78.351Z" fill="#A05252"/>
<path d="M58.8236 76.6211H57.0938V78.351H58.8236V76.6211Z" fill="#A05252"/>
<path d="M58.8236 74.907H57.0938V76.6211H58.8236V74.907Z" fill="#A05252"/>
<path d="M58.8236 73.1771H57.0938V74.907H58.8236V73.1771Z" fill="#BA9595"/>
<path d="M58.8236 71.4472H57.0938V73.1771H58.8236V71.4472Z" fill="#BA9595"/>
<path d="M58.8236 69.7305H57.0938V71.4446H58.8236V69.7305Z" fill="#BA9595"/>
<path d="M58.8236 68.0032H57.0938V69.7331H58.8236V68.0032Z" fill="#BA9595"/>
<path d="M58.8236 66.2865H57.0938V68.0006H58.8236V66.2865Z" fill="#BA9595"/>
<path d="M58.8236 64.5566H57.0938V66.2865H58.8236V64.5566Z" fill="#BA9595"/>
<path d="M58.8236 62.8425H57.0938V64.5566H58.8236V62.8425Z" fill="#BA9595"/>
<path d="M58.8236 61.1126H57.0938V62.8425H58.8236V61.1126Z" fill="#BA9595"/>
<path d="M58.8236 59.3827H57.0938V61.1126H58.8236V59.3827Z" fill="#BA9595"/>
<path d="M58.8236 57.6686H57.0938V59.3827H58.8236V57.6686Z" fill="#BA9595"/>
<path d="M58.8236 55.9361H57.0938V57.666H58.8236V55.9361Z" fill="#BA9595"/>
<path d="M58.8236 54.222H57.0938V55.9361H58.8236V54.222Z" fill="black"/>
<path d="M58.8236 52.4921H57.0938V54.222H58.8236V52.4921Z" fill="black"/>
<path d="M58.8236 50.778H57.0938V52.4921H58.8236V50.778Z" fill="black"/>
<path d="M58.8236 49.0481H57.0938V50.778H58.8236V49.0481Z" fill="black"/>
<path d="M58.8236 47.334H57.0938V49.0481H58.8236V47.334Z" fill="#844141"/>
<path d="M58.8236 45.6015H57.0938V47.3314H58.8236V45.6015Z" fill="#A05252"/>
<path d="M58.8236 43.8716H57.0938V45.6015H58.8236V43.8716Z" fill="#A05252"/>
<path d="M58.8236 42.1575H57.0938V43.8716H58.8236V42.1575Z" fill="#A05252"/>
<path d="M58.8236 40.4276H57.0938V42.1575H58.8236V40.4276Z" fill="#A05252"/>
<path d="M58.8236 38.7135H57.0938V40.4276H58.8236V38.7135Z" fill="#D8B8B8"/>
<path d="M58.8236 36.9836H57.0938V38.7135H58.8236V36.9836Z" fill="#D8B8B8"/>
<path d="M58.8236 35.2695H57.0938V36.9836H58.8236V35.2695Z" fill="#D8B8B8"/>
<path d="M58.8236 33.537H57.0938V35.2669H58.8236V33.537Z" fill="#844141"/>
<path d="M58.8236 31.8071H57.0938V33.537H58.8236V31.8071Z" fill="#A05252"/>
<path d="M58.8236 30.093H57.0938V31.8071H58.8236V30.093Z" fill="#A05252"/>
<path d="M58.8236 28.3631H57.0938V30.093H58.8236V28.3631Z" fill="#A05252"/>
<path d="M58.8236 26.649H57.0938V28.3631H58.8236V26.649Z" fill="#844141"/>
<path d="M58.8236 24.9165H57.0938V26.6464H58.8236V24.9165Z" fill="#BA9595"/>
<path d="M58.8236 23.205H57.0938V24.9191H58.8236V23.205Z" fill="#BA9595"/>
<path d="M58.8236 21.4725H57.0938V23.2024H58.8236V21.4725Z" fill="black"/>
<path d="M57.0964 80.0677H55.3822V81.7976H57.0964V80.0677Z" fill="black"/>
<path d="M57.0964 78.351H55.3822V80.0651H57.0964V78.351Z" fill="#A05252"/>
<path d="M57.0964 76.6211H55.3822V78.351H57.0964V76.6211Z" fill="#A05252"/>
<path d="M57.0964 74.907H55.3822V76.6211H57.0964V74.907Z" fill="#A05252"/>
<path d="M57.0964 73.1771H55.3822V74.907H57.0964V73.1771Z" fill="#D8B8B8"/>
<path d="M57.0964 71.4472H55.3822V73.1771H57.0964V71.4472Z" fill="#D8B8B8"/>
<path d="M57.0964 69.7305H55.3822V71.4446H57.0964V69.7305Z" fill="#D8B8B8"/>
<path d="M57.0964 68.0032H55.3822V69.7331H57.0964V68.0032Z" fill="#D8B8B8"/>
<path d="M57.0964 66.2865H55.3822V68.0006H57.0964V66.2865Z" fill="#D8B8B8"/>
<path d="M57.0964 64.5566H55.3822V66.2865H57.0964V64.5566Z" fill="#D8B8B8"/>
<path d="M57.0964 62.8425H55.3822V64.5566H57.0964V62.8425Z" fill="#D8B8B8"/>
<path d="M57.0964 61.1126H55.3822V62.8425H57.0964V61.1126Z" fill="#D8B8B8"/>
<path d="M57.0964 59.3827H55.3822V61.1126H57.0964V59.3827Z" fill="#D8B8B8"/>
<path d="M57.0964 57.6686H55.3822V59.3827H57.0964V57.6686Z" fill="#D8B8B8"/>
<path d="M57.0964 55.9361H55.3822V57.666H57.0964V55.9361Z" fill="#D8B8B8"/>
<path d="M57.0964 54.222H55.3822V55.9361H57.0964V54.222Z" fill="#BA9595"/>
<path d="M57.0964 52.4921H55.3822V54.222H57.0964V52.4921Z" fill="#BA9595"/>
<path d="M57.0964 50.778H55.3822V52.4921H57.0964V50.778Z" fill="#BA9595"/>
<path d="M57.0964 49.0481H55.3822V50.778H57.0964V49.0481Z" fill="#BA9595"/>
<path d="M57.0964 47.334H55.3822V49.0481H57.0964V47.334Z" fill="#844141"/>
<path d="M57.0964 45.6015H55.3822V47.3314H57.0964V45.6015Z" fill="#A05252"/>
<path d="M57.0964 43.8716H55.3822V45.6015H57.0964V43.8716Z" fill="#A05252"/>
<path d="M57.0964 42.1575H55.3822V43.8716H57.0964V42.1575Z" fill="#A05252"/>
<path d="M57.0964 40.4276H55.3822V42.1575H57.0964V40.4276Z" fill="#D8B8B8"/>
<path d="M57.0964 38.7135H55.3822V40.4276H57.0964V38.7135Z" fill="#D8B8B8"/>
<path d="M57.0964 36.9836H55.3822V38.7135H57.0964V36.9836Z" fill="#D8B8B8"/>
<path d="M57.0964 35.2695H55.3822V36.9836H57.0964V35.2695Z" fill="#844141"/>
<path d="M57.0964 33.537H55.3822V35.2669H57.0964V33.537Z" fill="#A05252"/>
<path d="M57.0964 31.8071H55.3822V33.537H57.0964V31.8071Z" fill="#E5B798"/>
<path d="M57.0964 30.093H55.3822V31.8071H57.0964V30.093Z" fill="#603C28"/>
<path d="M57.0964 28.3631H55.3822V30.093H57.0964V28.3631Z" fill="#603C28"/>
<path d="M57.0964 26.649H55.3822V28.3631H57.0964V26.649Z" fill="#A05252"/>
<path d="M57.0964 24.9165H55.3822V26.6464H57.0964V24.9165Z" fill="#844141"/>
<path d="M57.0964 23.205H55.3822V24.9191H57.0964V23.205Z" fill="#BA9595"/>
<path d="M57.0964 21.4725H55.3822V23.2024H57.0964V21.4725Z" fill="#BA9595"/>
<path d="M57.0964 19.761H55.3822V21.4751H57.0964V19.761Z" fill="black"/>
<path d="M55.3796 80.0677H53.6498V81.7976H55.3796V80.0677Z" fill="black"/>
<path d="M55.3796 78.351H53.6498V80.0651H55.3796V78.351Z" fill="#A05252"/>
<path d="M55.3796 76.6211H53.6498V78.351H55.3796V76.6211Z" fill="#A05252"/>
<path d="M55.3796 74.907H53.6498V76.6211H55.3796V74.907Z" fill="#A05252"/>
<path d="M55.3796 73.1771H53.6498V74.907H55.3796V73.1771Z" fill="#FFCE17"/>
<path d="M55.3796 71.4472H53.6498V73.1771H55.3796V71.4472Z" fill="#FFCE17"/>
<path d="M55.3796 69.7305H53.6498V71.4446H55.3796V69.7305Z" fill="#FFCE17"/>
<path d="M55.3796 68.0032H53.6498V69.7331H55.3796V68.0032Z" fill="#FFCE17"/>
<path d="M55.3796 66.2865H53.6498V68.0006H55.3796V66.2865Z" fill="#FFCE17"/>
<path d="M55.3796 64.5566H53.6498V66.2865H55.3796V64.5566Z" fill="#D8B8B8"/>
<path d="M55.3796 62.8425H53.6498V64.5566H55.3796V62.8425Z" fill="#D8B8B8"/>
<path d="M55.3796 61.1126H53.6498V62.8425H55.3796V61.1126Z" fill="#D8B8B8"/>
<path d="M55.3796 59.3827H53.6498V61.1126H55.3796V59.3827Z" fill="#D8B8B8"/>
<path d="M55.3796 57.6686H53.6498V59.3827H55.3796V57.6686Z" fill="#D8B8B8"/>
<path d="M55.3796 55.9361H53.6498V57.666H55.3796V55.9361Z" fill="#D8B8B8"/>
<path d="M55.3796 54.222H53.6498V55.9361H55.3796V54.222Z" fill="#D8B8B8"/>
<path d="M55.3796 52.4921H53.6498V54.222H55.3796V52.4921Z" fill="#BA9595"/>
<path d="M55.3796 50.778H53.6498V52.4921H55.3796V50.778Z" fill="#BA9595"/>
<path d="M55.3796 49.0481H53.6498V50.778H55.3796V49.0481Z" fill="#BA9595"/>
<path d="M55.3796 47.334H53.6498V49.0481H55.3796V47.334Z" fill="#844141"/>
<path d="M55.3796 45.6015H53.6498V47.3314H55.3796V45.6015Z" fill="#A05252"/>
<path d="M55.3796 43.8716H53.6498V45.6015H55.3796V43.8716Z" fill="#A05252"/>
<path d="M55.3796 42.1575H53.6498V43.8716H55.3796V42.1575Z" fill="#A05252"/>
<path d="M55.3796 40.4276H53.6498V42.1575H55.3796V40.4276Z" fill="#D8B8B8"/>
<path d="M55.3796 38.7135H53.6498V40.4276H55.3796V38.7135Z" fill="#D8B8B8"/>
<path d="M55.3796 36.9836H53.6498V38.7135H55.3796V36.9836Z" fill="#D8B8B8"/>
<path d="M55.3796 35.2695H53.6498V36.9836H55.3796V35.2695Z" fill="#844141"/>
<path d="M55.3796 33.537H53.6498V35.2669H55.3796V33.537Z" fill="#A05252"/>
<path d="M55.3796 31.8071H53.6498V33.537H55.3796V31.8071Z" fill="#E5B798"/>
<path d="M55.3796 30.093H53.6498V31.8071H55.3796V30.093Z" fill="#B28364"/>
<path d="M55.3796 28.3631H53.6498V30.093H55.3796V28.3631Z" fill="#603C28"/>
<path d="M55.3796 26.649H53.6498V28.3631H55.3796V26.649Z" fill="#A05252"/>
<path d="M55.3796 24.9165H53.6498V26.6464H55.3796V24.9165Z" fill="#A05252"/>
<path d="M55.3796 23.205H53.6498V24.9191H55.3796V23.205Z" fill="#844141"/>
<path d="M55.3796 21.4725H53.6498V23.2024H55.3796V21.4725Z" fill="#BA9595"/>
<path d="M55.3796 19.761H53.6498V21.4751H55.3796V19.761Z" fill="black"/>
<path d="M53.6498 80.0677H51.9356V81.7976H53.6498V80.0677Z" fill="black"/>
<path d="M53.6498 78.351H51.9356V80.0651H53.6498V78.351Z" fill="black"/>
<path d="M53.6498 76.6211H51.9356V78.351H53.6498V76.6211Z" fill="black"/>
<path d="M53.6498 74.907H51.9356V76.6211H53.6498V74.907Z" fill="black"/>
<path d="M53.6498 73.1771H51.9356V74.907H53.6498V73.1771Z" fill="black"/>
<path d="M53.6498 71.4472H51.9356V73.1771H53.6498V71.4472Z" fill="black"/>
<path d="M53.6498 69.7305H51.9356V71.4446H53.6498V69.7305Z" fill="black"/>
<path d="M53.6498 68.0032H51.9356V69.7331H53.6498V68.0032Z" fill="black"/>
<path d="M53.6498 66.2865H51.9356V68.0006H53.6498V66.2865Z" fill="black"/>
<path d="M53.6498 64.5566H51.9356V66.2865H53.6498V64.5566Z" fill="#FFCE17"/>
<path d="M53.6498 62.8425H51.9356V64.5566H53.6498V62.8425Z" fill="#FFCE17"/>
<path d="M53.6498 61.1126H51.9356V62.8425H53.6498V61.1126Z" fill="#FFCE17"/>
<path d="M53.6498 59.3827H51.9356V61.1126H53.6498V59.3827Z" fill="#FFCE17"/>
<path d="M53.6498 57.6686H51.9356V59.3827H53.6498V57.6686Z" fill="#FFCE17"/>
<path d="M53.6498 55.9361H51.9356V57.666H53.6498V55.9361Z" fill="#FFCE17"/>
<path d="M53.6498 54.222H51.9356V55.9361H53.6498V54.222Z" fill="#FFCE17"/>
<path d="M53.6498 52.4921H51.9356V54.222H53.6498V52.4921Z" fill="#BC9311"/>
<path d="M53.6498 50.778H51.9356V52.4921H53.6498V50.778Z" fill="#BC9311"/>
<path d="M53.6498 49.0481H51.9356V50.778H53.6498V49.0481Z" fill="#BC9311"/>
<path d="M53.6498 47.334H51.9356V49.0481H53.6498V47.334Z" fill="#844141"/>
<path d="M53.6498 45.6015H51.9356V47.3314H53.6498V45.6015Z" fill="#A05252"/>
<path d="M53.6498 43.8716H51.9356V45.6015H53.6498V43.8716Z" fill="#A05252"/>
<path d="M53.6498 42.1575H51.9356V43.8716H53.6498V42.1575Z" fill="#A05252"/>
<path d="M53.6498 40.4276H51.9356V42.1575H53.6498V40.4276Z" fill="#D8B8B8"/>
<path d="M53.6498 38.7135H51.9356V40.4276H53.6498V38.7135Z" fill="#D8B8B8"/>
<path d="M53.6498 36.9836H51.9356V38.7135H53.6498V36.9836Z" fill="#D8B8B8"/>
<path d="M53.6498 35.2695H51.9356V36.9836H53.6498V35.2695Z" fill="#844141"/>
<path d="M53.6498 33.537H51.9356V35.2669H53.6498V33.537Z" fill="#A05252"/>
<path d="M53.6498 31.8071H51.9356V33.537H53.6498V31.8071Z" fill="#E5B798"/>
<path d="M53.6498 30.093H51.9356V31.8071H53.6498V30.093Z" fill="#B28364"/>
<path d="M53.6498 28.3631H51.9356V30.093H53.6498V28.3631Z" fill="#603C28"/>
<path d="M53.6498 26.649H51.9356V28.3631H53.6498V26.649Z" fill="#A05252"/>
<path d="M53.6498 24.9165H51.9356V26.6464H53.6498V24.9165Z" fill="#A05252"/>
<path d="M53.6498 23.205H51.9356V24.9191H53.6498V23.205Z" fill="#A05252"/>
<path d="M53.6498 21.4725H51.9356V23.2024H53.6498V21.4725Z" fill="#844141"/>
<path d="M53.6498 19.761H51.9356V21.4751H53.6498V19.761Z" fill="black"/>
<path d="M51.9356 78.351H50.2058V80.0651H51.9356V78.351Z" fill="black"/>
<path d="M51.9356 76.6211H50.2058V78.351H51.9356V76.6211Z" fill="#BC9311"/>
<path d="M51.9356 74.907H50.2058V76.6211H51.9356V74.907Z" fill="#BC9311"/>
<path d="M51.9356 73.1771H50.2058V74.907H51.9356V73.1771Z" fill="#BA9595"/>
<path d="M51.9356 71.4472H50.2058V73.1771H51.9356V71.4472Z" fill="#BA9595"/>
<path d="M51.9356 69.7305H50.2058V71.4446H51.9356V69.7305Z" fill="#BA9595"/>
<path d="M51.9356 68.0032H50.2058V69.7331H51.9356V68.0032Z" fill="#BA9595"/>
<path d="M51.9356 66.2865H50.2058V68.0006H51.9356V66.2865Z" fill="#BA9595"/>
<path d="M51.9356 64.5566H50.2058V66.2865H51.9356V64.5566Z" fill="black"/>
<path d="M51.9356 62.8425H50.2058V64.5566H51.9356V62.8425Z" fill="black"/>
<path d="M51.9356 61.1126H50.2058V62.8425H51.9356V61.1126Z" fill="black"/>
<path d="M51.9356 59.3827H50.2058V61.1126H51.9356V59.3827Z" fill="black"/>
<path d="M51.9356 57.6686H50.2058V59.3827H51.9356V57.6686Z" fill="black"/>
<path d="M51.9356 55.9361H50.2058V57.666H51.9356V55.9361Z" fill="black"/>
<path d="M51.9356 54.222H50.2058V55.9361H51.9356V54.222Z" fill="black"/>
<path d="M51.9356 52.4921H50.2058V54.222H51.9356V52.4921Z" fill="black"/>
<path d="M51.9356 50.778H50.2058V52.4921H51.9356V50.778Z" fill="black"/>
<path d="M51.9356 49.0481H50.2058V50.778H51.9356V49.0481Z" fill="black"/>
<path d="M51.9356 47.334H50.2058V49.0481H51.9356V47.334Z" fill="#844141"/>
<path d="M51.9356 45.6015H50.2058V47.3314H51.9356V45.6015Z" fill="#A05252"/>
<path d="M51.9356 43.8716H50.2058V45.6015H51.9356V43.8716Z" fill="#A05252"/>
<path d="M51.9356 42.1575H50.2058V43.8716H51.9356V42.1575Z" fill="#A05252"/>
<path d="M51.9356 40.4276H50.2058V42.1575H51.9356V40.4276Z" fill="#D8B8B8"/>
<path d="M51.9356 38.7135H50.2058V40.4276H51.9356V38.7135Z" fill="#D8B8B8"/>
<path d="M51.9356 36.9836H50.2058V38.7135H51.9356V36.9836Z" fill="#D8B8B8"/>
<path d="M51.9356 35.2695H50.2058V36.9836H51.9356V35.2695Z" fill="#844141"/>
<path d="M51.9356 33.537H50.2058V35.2669H51.9356V33.537Z" fill="#A05252"/>
<path d="M51.9356 31.8071H50.2058V33.537H51.9356V31.8071Z" fill="#E5B798"/>
<path d="M51.9356 30.093H50.2058V31.8071H51.9356V30.093Z" fill="#B28364"/>
<path d="M51.9356 28.3631H50.2058V30.093H51.9356V28.3631Z" fill="#603C28"/>
<path d="M51.9356 26.649H50.2058V28.3631H51.9356V26.649Z" fill="#A05252"/>
<path d="M51.9356 24.9165H50.2058V26.6464H51.9356V24.9165Z" fill="#A05252"/>
<path d="M51.9356 23.205H50.2058V24.9191H51.9356V23.205Z" fill="#844141"/>
<path d="M51.9356 21.4725H50.2058V23.2024H51.9356V21.4725Z" fill="black"/>
<path d="M50.2058 83.5117H48.4916V85.2416H50.2058V83.5117Z" fill="black"/>
<path d="M50.2058 81.795H48.4916V83.5091H50.2058V81.795Z" fill="black"/>
<path d="M50.2058 80.0677H48.4916V81.7976H50.2058V80.0677Z" fill="black"/>
<path d="M50.2058 78.351H48.4916V80.0651H50.2058V78.351Z" fill="black"/>
<path d="M50.2058 76.6211H48.4916V78.351H50.2058V76.6211Z" fill="#BC9311"/>
<path d="M50.2058 74.907H48.4916V76.6211H50.2058V74.907Z" fill="#BC9311"/>
<path d="M50.2058 73.1771H48.4916V74.907H50.2058V73.1771Z" fill="#BA9595"/>
<path d="M50.2058 71.4472H48.4916V73.1771H50.2058V71.4472Z" fill="#BA9595"/>
<path d="M50.2058 69.7305H48.4916V71.4446H50.2058V69.7305Z" fill="#BA9595"/>
<path d="M50.2058 68.0032H48.4916V69.7331H50.2058V68.0032Z" fill="#BA9595"/>
<path d="M50.2058 66.2865H48.4916V68.0006H50.2058V66.2865Z" fill="#BA9595"/>
<path d="M50.2058 64.5566H48.4916V66.2865H50.2058V64.5566Z" fill="#BA9595"/>
<path d="M50.2058 62.8425H48.4916V64.5566H50.2058V62.8425Z" fill="#BA9595"/>
<path d="M50.2058 61.1126H48.4916V62.8425H50.2058V61.1126Z" fill="#BA9595"/>
<path d="M50.2058 59.3827H48.4916V61.1126H50.2058V59.3827Z" fill="#BA9595"/>
<path d="M50.2058 57.6686H48.4916V59.3827H50.2058V57.6686Z" fill="#BA9595"/>
<path d="M50.2058 55.9361H48.4916V57.666H50.2058V55.9361Z" fill="#BA9595"/>
<path d="M50.2058 54.222H48.4916V55.9361H50.2058V54.222Z" fill="#BA9595"/>
<path d="M50.2058 52.4921H48.4916V54.222H50.2058V52.4921Z" fill="#BA9595"/>
<path d="M50.2058 50.778H48.4916V52.4921H50.2058V50.778Z" fill="#BA9595"/>
<path d="M50.2058 49.0481H48.4916V50.778H50.2058V49.0481Z" fill="#BA9595"/>
<path d="M50.2058 47.334H48.4916V49.0481H50.2058V47.334Z" fill="#844141"/>
<path d="M50.2058 45.6015H48.4916V47.3314H50.2058V45.6015Z" fill="#A05252"/>
<path d="M50.2058 43.8716H48.4916V45.6015H50.2058V43.8716Z" fill="#A05252"/>
<path d="M50.2058 42.1575H48.4916V43.8716H50.2058V42.1575Z" fill="#A05252"/>
<path d="M50.2058 40.4276H48.4916V42.1575H50.2058V40.4276Z" fill="#D8B8B8"/>
<path d="M50.2058 38.7135H48.4916V40.4276H50.2058V38.7135Z" fill="#D8B8B8"/>
<path d="M50.2058 36.9836H48.4916V38.7135H50.2058V36.9836Z" fill="#D8B8B8"/>
<path d="M50.2058 35.2695H48.4916V36.9836H50.2058V35.2695Z" fill="#844141"/>
<path d="M50.2058 33.537H48.4916V35.2669H50.2058V33.537Z" fill="#A05252"/>
<path d="M50.2058 31.8071H48.4916V33.537H50.2058V31.8071Z" fill="#B28364"/>
<path d="M50.2058 30.093H48.4916V31.8071H50.2058V30.093Z" fill="#B28364"/>
<path d="M50.2058 28.3631H48.4916V30.093H50.2058V28.3631Z" fill="#603C28"/>
<path d="M50.2058 26.649H48.4916V28.3631H50.2058V26.649Z" fill="#A05252"/>
<path d="M50.2058 24.9165H48.4916V26.6464H50.2058V24.9165Z" fill="#A05252"/>
<path d="M50.2058 23.205H48.4916V24.9191H50.2058V23.205Z" fill="#844141"/>
<path d="M50.2058 21.4725H48.4916V23.2024H50.2058V21.4725Z" fill="black"/>
<path d="M48.4916 83.5117H46.7618V85.2416H48.4916V83.5117Z" fill="black"/>
<path d="M48.4916 81.795H46.7618V83.5091H48.4916V81.795Z" fill="#7F4E4E"/>
<path d="M48.4916 80.0677H46.7618V81.7976H48.4916V80.0677Z" fill="#7F4E4E"/>
<path d="M48.4916 78.351H46.7618V80.0651H48.4916V78.351Z" fill="black"/>
<path d="M48.4916 76.6211H46.7618V78.351H48.4916V76.6211Z" fill="#BC9311"/>
<path d="M48.4916 74.907H46.7618V76.6211H48.4916V74.907Z" fill="#BC9311"/>
<path d="M48.4916 73.1771H46.7618V74.907H48.4916V73.1771Z" fill="#BA9595"/>
<path d="M48.4916 71.4472H46.7618V73.1771H48.4916V71.4472Z" fill="#BA9595"/>
<path d="M48.4916 69.7305H46.7618V71.4446H48.4916V69.7305Z" fill="#BA9595"/>
<path d="M48.4916 68.0032H46.7618V69.7331H48.4916V68.0032Z" fill="#D8B8B8"/>
<path d="M48.4916 66.2865H46.7618V68.0006H48.4916V66.2865Z" fill="#D8B8B8"/>
<path d="M48.4916 64.5566H46.7618V66.2865H48.4916V64.5566Z" fill="#D8B8B8"/>
<path d="M48.4916 62.8425H46.7618V64.5566H48.4916V62.8425Z" fill="#D8B8B8"/>
<path d="M48.4916 61.1126H46.7618V62.8425H48.4916V61.1126Z" fill="#D8B8B8"/>
<path d="M48.4916 59.3827H46.7618V61.1126H48.4916V59.3827Z" fill="#D8B8B8"/>
<path d="M48.4916 57.6686H46.7618V59.3827H48.4916V57.6686Z" fill="#D8B8B8"/>
<path d="M48.4916 55.9361H46.7618V57.666H48.4916V55.9361Z" fill="#D8B8B8"/>
<path d="M48.4916 54.222H46.7618V55.9361H48.4916V54.222Z" fill="#D8B8B8"/>
<path d="M48.4916 52.4921H46.7618V54.222H48.4916V52.4921Z" fill="#D8B8B8"/>
<path d="M48.4916 50.778H46.7618V52.4921H48.4916V50.778Z" fill="#D8B8B8"/>
<path d="M48.4916 49.0481H46.7618V50.778H48.4916V49.0481Z" fill="#BA9595"/>
<path d="M48.4916 47.334H46.7618V49.0481H48.4916V47.334Z" fill="#844141"/>
<path d="M48.4916 45.6015H46.7618V47.3314H48.4916V45.6015Z" fill="#A05252"/>
<path d="M48.4916 43.8716H46.7618V45.6015H48.4916V43.8716Z" fill="#A05252"/>
<path d="M48.4916 42.1575H46.7618V43.8716H48.4916V42.1575Z" fill="#A05252"/>
<path d="M48.4916 40.4276H46.7618V42.1575H48.4916V40.4276Z" fill="#D8B8B8"/>
<path d="M48.4916 38.7135H46.7618V40.4276H48.4916V38.7135Z" fill="#D8B8B8"/>
<path d="M48.4916 36.9836H46.7618V38.7135H48.4916V36.9836Z" fill="#BA9595"/>
<path d="M48.4916 35.2695H46.7618V36.9836H48.4916V35.2695Z" fill="#844141"/>
<path d="M48.4916 33.537H46.7618V35.2669H48.4916V33.537Z" fill="#844141"/>
<path d="M48.4916 31.8071H46.7618V33.537H48.4916V31.8071Z" fill="#A05252"/>
<path d="M48.4916 30.093H46.7618V31.8071H48.4916V30.093Z" fill="#A05252"/>
<path d="M48.4916 28.3631H46.7618V30.093H48.4916V28.3631Z" fill="#A05252"/>
<path d="M48.4916 26.649H46.7618V28.3631H48.4916V26.649Z" fill="#A05252"/>
<path d="M48.4916 24.9165H46.7618V26.6464H48.4916V24.9165Z" fill="#844141"/>
<path d="M48.4916 23.205H46.7618V24.9191H48.4916V23.205Z" fill="black"/>
<path d="M46.7591 83.5117H45.0292V85.2416H46.7591V83.5117Z" fill="black"/>
<path d="M46.7591 81.795H45.0292V83.5091H46.7591V81.795Z" fill="#7F4E4E"/>
<path d="M46.7591 80.0677H45.0292V81.7976H46.7591V80.0677Z" fill="#7F4E4E"/>
<path d="M46.7591 78.351H45.0292V80.0651H46.7591V78.351Z" fill="black"/>
<path d="M46.7591 76.6211H45.0292V78.351H46.7591V76.6211Z" fill="#FFCE17"/>
<path d="M46.7591 74.907H45.0292V76.6211H46.7591V74.907Z" fill="#FFCE17"/>
<path d="M46.7591 73.1771H45.0292V74.907H46.7591V73.1771Z" fill="#D8B8B8"/>
<path d="M46.7591 71.4472H45.0292V73.1771H46.7591V71.4472Z" fill="#D8B8B8"/>
<path d="M46.7591 69.7305H45.0292V71.4446H46.7591V69.7305Z" fill="#D8B8B8"/>
<path d="M46.7591 68.0032H45.0292V69.7331H46.7591V68.0032Z" fill="#D8B8B8"/>
<path d="M46.7591 66.2865H45.0292V68.0006H46.7591V66.2865Z" fill="#D8B8B8"/>
<path d="M46.7591 64.5566H45.0292V66.2865H46.7591V64.5566Z" fill="#D8B8B8"/>
<path d="M46.7591 62.8425H45.0292V64.5566H46.7591V62.8425Z" fill="#D8B8B8"/>
<path d="M46.7591 61.1126H45.0292V62.8425H46.7591V61.1126Z" fill="#D8B8B8"/>
<path d="M46.7591 59.3827H45.0292V61.1126H46.7591V59.3827Z" fill="#D8B8B8"/>
<path d="M46.7591 57.6686H45.0292V59.3827H46.7591V57.6686Z" fill="#D8B8B8"/>
<path d="M46.7591 55.9361H45.0292V57.666H46.7591V55.9361Z" fill="#D8B8B8"/>
<path d="M46.7591 54.222H45.0292V55.9361H46.7591V54.222Z" fill="#D8B8B8"/>
<path d="M46.7591 52.4921H45.0292V54.222H46.7591V52.4921Z" fill="#D8B8B8"/>
<path d="M46.7591 50.778H45.0292V52.4921H46.7591V50.778Z" fill="#D8B8B8"/>
<path d="M46.7591 49.0481H45.0292V50.778H46.7591V49.0481Z" fill="#BA9595"/>
<path d="M46.7591 47.334H45.0292V49.0481H46.7591V47.334Z" fill="#844141"/>
<path d="M46.7591 45.6015H45.0292V47.3314H46.7591V45.6015Z" fill="#A05252"/>
<path d="M46.7591 43.8716H45.0292V45.6015H46.7591V43.8716Z" fill="#A05252"/>
<path d="M46.7591 42.1575H45.0292V43.8716H46.7591V42.1575Z" fill="#A05252"/>
<path d="M46.7591 40.4276H45.0292V42.1575H46.7591V40.4276Z" fill="#D8B8B8"/>
<path d="M46.7591 38.7135H45.0292V40.4276H46.7591V38.7135Z" fill="#BA9595"/>
<path d="M46.7591 36.9836H45.0292V38.7135H46.7591V36.9836Z" fill="#BA9595"/>
<path d="M46.7591 35.2695H45.0292V36.9836H46.7591V35.2695Z" fill="#BA9595"/>
<path d="M46.7591 33.537H45.0292V35.2669H46.7591V33.537Z" fill="#844141"/>
<path d="M46.7591 31.8071H45.0292V33.537H46.7591V31.8071Z" fill="#844141"/>
<path d="M46.7591 30.093H45.0292V31.8071H46.7591V30.093Z" fill="#844141"/>
<path d="M46.7591 28.3631H45.0292V30.093H46.7591V28.3631Z" fill="#844141"/>
<path d="M46.7591 26.649H45.0292V28.3631H46.7591V26.649Z" fill="#844141"/>
<path d="M46.7591 24.9165H45.0292V26.6464H46.7591V24.9165Z" fill="black"/>
<path d="M45.0292 83.5117H43.3151V85.2416H45.0292V83.5117Z" fill="black"/>
<path d="M45.0292 81.795H43.3151V83.5091H45.0292V81.795Z" fill="#7F4E4E"/>
<path d="M45.0292 80.0677H43.3151V81.7976H45.0292V80.0677Z" fill="#7F4E4E"/>
<path d="M45.0292 78.351H43.3151V80.0651H45.0292V78.351Z" fill="black"/>
<path d="M45.0292 76.6211H43.3151V78.351H45.0292V76.6211Z" fill="#FFCE17"/>
<path d="M45.0292 74.907H43.3151V76.6211H45.0292V74.907Z" fill="#FFCE17"/>
<path d="M45.0292 73.1771H43.3151V74.907H45.0292V73.1771Z" fill="#D8B8B8"/>
<path d="M45.0292 71.4472H43.3151V73.1771H45.0292V71.4472Z" fill="#D8B8B8"/>
<path d="M45.0292 69.7305H43.3151V71.4446H45.0292V69.7305Z" fill="#D8B8B8"/>
<path d="M45.0292 68.0032H43.3151V69.7331H45.0292V68.0032Z" fill="#D8B8B8"/>
<path d="M45.0292 66.2865H43.3151V68.0006H45.0292V66.2865Z" fill="#BA9595"/>
<path d="M45.0292 64.5566H43.3151V66.2865H45.0292V64.5566Z" fill="#BA9595"/>
<path d="M45.0292 62.8425H43.3151V64.5566H45.0292V62.8425Z" fill="#BA9595"/>
<path d="M45.0292 61.1126H43.3151V62.8425H45.0292V61.1126Z" fill="#BA9595"/>
<path d="M45.0292 59.3827H43.3151V61.1126H45.0292V59.3827Z" fill="#BA9595"/>
<path d="M45.0292 57.6686H43.3151V59.3827H45.0292V57.6686Z" fill="#BA9595"/>
<path d="M45.0292 55.9361H43.3151V57.666H45.0292V55.9361Z" fill="#BA9595"/>
<path d="M45.0292 54.222H43.3151V55.9361H45.0292V54.222Z" fill="#BA9595"/>
<path d="M45.0292 52.4921H43.3151V54.222H45.0292V52.4921Z" fill="#BA9595"/>
<path d="M45.0292 50.778H43.3151V52.4921H45.0292V50.778Z" fill="#BA9595"/>
<path d="M45.0292 49.0481H43.3151V50.778H45.0292V49.0481Z" fill="#BA9595"/>
<path d="M45.0292 47.334H43.3151V49.0481H45.0292V47.334Z" fill="#BA9595"/>
<path d="M45.0292 45.6015H43.3151V47.3314H45.0292V45.6015Z" fill="#844141"/>
<path d="M45.0292 43.8716H43.3151V45.6015H45.0292V43.8716Z" fill="#A05252"/>
<path d="M45.0292 42.1575H43.3151V43.8716H45.0292V42.1575Z" fill="#A05252"/>
<path d="M45.0292 40.4276H43.3151V42.1575H45.0292V40.4276Z" fill="#BA9595"/>
<path d="M45.0292 38.7135H43.3151V40.4276H45.0292V38.7135Z" fill="#BA9595"/>
<path d="M45.0292 36.9836H43.3151V38.7135H45.0292V36.9836Z" fill="#BA9595"/>
<path d="M45.0292 35.2695H43.3151V36.9836H45.0292V35.2695Z" fill="#BA9595"/>
<path d="M45.0292 33.537H43.3151V35.2669H45.0292V33.537Z" fill="#BA9595"/>
<path d="M45.0292 31.8071H43.3151V33.537H45.0292V31.8071Z" fill="black"/>
<path d="M45.0292 30.093H43.3151V31.8071H45.0292V30.093Z" fill="black"/>
<path d="M45.0292 28.3631H43.3151V30.093H45.0292V28.3631Z" fill="black"/>
<path d="M45.0292 26.649H43.3151V28.3631H45.0292V26.649Z" fill="black"/>
<path d="M43.3151 83.5117H41.5853V85.2416H43.3151V83.5117Z" fill="black"/>
<path d="M43.3151 81.795H41.5853V83.5091H43.3151V81.795Z" fill="#7F4E4E"/>
<path d="M43.3151 80.0677H41.5853V81.7976H43.3151V80.0677Z" fill="black"/>
<path d="M43.3151 78.351H41.5853V80.0651H43.3151V78.351Z" fill="black"/>
<path d="M43.3151 76.6211H41.5853V78.351H43.3151V76.6211Z" fill="#BC9311"/>
<path d="M43.3151 74.907H41.5853V76.6211H43.3151V74.907Z" fill="#BC9311"/>
<path d="M43.3151 73.1771H41.5853V74.907H43.3151V73.1771Z" fill="#BA9595"/>
<path d="M43.3151 71.4472H41.5853V73.1771H43.3151V71.4472Z" fill="#BA9595"/>
<path d="M43.3151 69.7305H41.5853V71.4446H43.3151V69.7305Z" fill="#BA9595"/>
<path d="M43.3151 68.0032H41.5853V69.7331H43.3151V68.0032Z" fill="#BA9595"/>
<path d="M43.3151 66.2865H41.5853V68.0006H43.3151V66.2865Z" fill="#BA9595"/>
<path d="M43.3151 64.5566H41.5853V66.2865H43.3151V64.5566Z" fill="#BA9595"/>
<path d="M43.3151 62.8425H41.5853V64.5566H43.3151V62.8425Z" fill="#BA9595"/>
<path d="M43.3151 61.1126H41.5853V62.8425H43.3151V61.1126Z" fill="#BC9311"/>
<path d="M43.3151 59.3827H41.5853V61.1126H43.3151V59.3827Z" fill="#BC9311"/>
<path d="M43.3151 57.6686H41.5853V59.3827H43.3151V57.6686Z" fill="#BC9311"/>
<path d="M43.3151 55.9361H41.5853V57.666H43.3151V55.9361Z" fill="#BC9311"/>
<path d="M43.3151 54.222H41.5853V55.9361H43.3151V54.222Z" fill="#BC9311"/>
<path d="M43.3151 52.4921H41.5853V54.222H43.3151V52.4921Z" fill="#BC9311"/>
<path d="M43.3151 50.778H41.5853V52.4921H43.3151V50.778Z" fill="#BC9311"/>
<path d="M43.3151 49.0481H41.5853V50.778H43.3151V49.0481Z" fill="#BC9311"/>
<path d="M43.3151 47.334H41.5853V49.0481H43.3151V47.334Z" fill="#BC9311"/>
<path d="M43.3151 45.6015H41.5853V47.3314H43.3151V45.6015Z" fill="#BC9311"/>
<path d="M43.3151 43.8716H41.5853V45.6015H43.3151V43.8716Z" fill="#844141"/>
<path d="M43.3151 42.1575H41.5853V43.8716H43.3151V42.1575Z" fill="#A05252"/>
<path d="M43.3151 40.4276H41.5853V42.1575H43.3151V40.4276Z" fill="#A05252"/>
<path d="M43.3151 38.7135H41.5853V40.4276H43.3151V38.7135Z" fill="#A05252"/>
<path d="M43.3151 36.9836H41.5853V38.7135H43.3151V36.9836Z" fill="#A05252"/>
<path d="M43.3151 35.2695H41.5853V36.9836H43.3151V35.2695Z" fill="#A05252"/>
<path d="M43.3151 33.537H41.5853V35.2669H43.3151V33.537Z" fill="#A05252"/>
<path d="M43.3151 31.8071H41.5853V33.537H43.3151V31.8071Z" fill="black"/>
<path d="M41.5853 83.5117H39.8711V85.2416H41.5853V83.5117Z" fill="black"/>
<path d="M41.5853 81.795H39.8711V83.5091H41.5853V81.795Z" fill="black"/>
<path d="M41.5853 78.351H39.8711V80.0651H41.5853V78.351Z" fill="black"/>
<path d="M41.5853 76.6211H39.8711V78.351H41.5853V76.6211Z" fill="#BC9311"/>
<path d="M41.5853 74.907H39.8711V76.6211H41.5853V74.907Z" fill="#BC9311"/>
<path d="M41.5853 73.1771H39.8711V74.907H41.5853V73.1771Z" fill="#BA9595"/>
<path d="M41.5853 71.4472H39.8711V73.1771H41.5853V71.4472Z" fill="#BA9595"/>
<path d="M41.5853 69.7305H39.8711V71.4446H41.5853V69.7305Z" fill="#BA9595"/>
<path d="M41.5853 68.0032H39.8711V69.7331H41.5853V68.0032Z" fill="#BC9311"/>
<path d="M41.5853 66.2865H39.8711V68.0006H41.5853V66.2865Z" fill="#BC9311"/>
<path d="M41.5853 64.5566H39.8711V66.2865H41.5853V64.5566Z" fill="#BC9311"/>
<path d="M41.5853 62.8425H39.8711V64.5566H41.5853V62.8425Z" fill="#BC9311"/>
<path d="M41.5853 61.1126H39.8711V62.8425H41.5853V61.1126Z" fill="black"/>
<path d="M41.5853 59.3827H39.8711V61.1126H41.5853V59.3827Z" fill="black"/>
<path d="M41.5853 57.6686H39.8711V59.3827H41.5853V57.6686Z" fill="black"/>
<path d="M41.5853 55.9361H39.8711V57.666H41.5853V55.9361Z" fill="black"/>
<path d="M41.5853 54.222H39.8711V55.9361H41.5853V54.222Z" fill="black"/>
<path d="M41.5853 52.4921H39.8711V54.222H41.5853V52.4921Z" fill="black"/>
<path d="M41.5853 50.778H39.8711V52.4921H41.5853V50.778Z" fill="black"/>
<path d="M41.5853 49.0481H39.8711V50.778H41.5853V49.0481Z" fill="black"/>
<path d="M41.5853 47.334H39.8711V49.0481H41.5853V47.334Z" fill="black"/>
<path d="M41.5853 45.6015H39.8711V47.3314H41.5853V45.6015Z" fill="black"/>
<path d="M41.5853 43.8716H39.8711V45.6015H41.5853V43.8716Z" fill="#844141"/>
<path d="M41.5853 42.1575H39.8711V43.8716H41.5853V42.1575Z" fill="#844141"/>
<path d="M41.5853 40.4276H39.8711V42.1575H41.5853V40.4276Z" fill="#844141"/>
<path d="M41.5853 38.7135H39.8711V40.4276H41.5853V38.7135Z" fill="#A05252"/>
<path d="M41.5853 36.9836H39.8711V38.7135H41.5853V36.9836Z" fill="#A05252"/>
<path d="M41.5853 35.2695H39.8711V36.9836H41.5853V35.2695Z" fill="#A05252"/>
<path d="M41.5853 33.537H39.8711V35.2669H41.5853V33.537Z" fill="black"/>
<path d="M39.8711 78.351H38.1413V80.0651H39.8711V78.351Z" fill="black"/>
<path d="M39.8711 76.6211H38.1413V78.351H39.8711V76.6211Z" fill="#BC9311"/>
<path d="M39.8711 74.907H38.1413V76.6211H39.8711V74.907Z" fill="#BC9311"/>
<path d="M39.8711 73.1771H38.1413V74.907H39.8711V73.1771Z" fill="#BA9595"/>
<path d="M39.8711 71.4472H38.1413V73.1771H39.8711V71.4472Z" fill="#BC9311"/>
<path d="M39.8711 69.7305H38.1413V71.4446H39.8711V69.7305Z" fill="#BC9311"/>
<path d="M39.8711 68.0032H38.1413V69.7331H39.8711V68.0032Z" fill="black"/>
<path d="M39.8711 66.2865H38.1413V68.0006H39.8711V66.2865Z" fill="black"/>
<path d="M39.8711 64.5566H38.1413V66.2865H39.8711V64.5566Z" fill="black"/>
<path d="M39.8711 62.8425H38.1413V64.5566H39.8711V62.8425Z" fill="black"/>
<path d="M39.8711 61.1126H38.1413V62.8425H39.8711V61.1126Z" fill="#844141"/>
<path d="M39.8711 59.3827H38.1413V61.1126H39.8711V59.3827Z" fill="#844141"/>
<path d="M39.8711 57.6686H38.1413V59.3827H39.8711V57.6686Z" fill="#844141"/>
<path d="M39.8711 55.9361H38.1413V57.666H39.8711V55.9361Z" fill="#844141"/>
<path d="M39.8711 54.222H38.1413V55.9361H39.8711V54.222Z" fill="#844141"/>
<path d="M39.8711 52.4921H38.1413V54.222H39.8711V52.4921Z" fill="#844141"/>
<path d="M39.8711 50.778H38.1413V52.4921H39.8711V50.778Z" fill="black"/>
<path d="M39.8711 49.0481H38.1413V50.778H39.8711V49.0481Z" fill="black"/>
<path d="M39.8711 47.334H38.1413V49.0481H39.8711V47.334Z" fill="#BA9595"/>
<path d="M39.8711 45.6015H38.1413V47.3314H39.8711V45.6015Z" fill="#BA9595"/>
<path d="M39.8711 43.8716H38.1413V45.6015H39.8711V43.8716Z" fill="#BA9595"/>
<path d="M39.8711 42.1575H38.1413V43.8716H39.8711V42.1575Z" fill="#BA9595"/>
<path d="M39.8711 40.4276H38.1413V42.1575H39.8711V40.4276Z" fill="#BA9595"/>
<path d="M39.8711 38.7135H38.1413V40.4276H39.8711V38.7135Z" fill="#844141"/>
<path d="M39.8711 36.9836H38.1413V38.7135H39.8711V36.9836Z" fill="#844141"/>
<path d="M39.8711 35.2695H38.1413V36.9836H39.8711V35.2695Z" fill="black"/>
<path d="M38.1413 78.351H36.4271V80.0651H38.1413V78.351Z" fill="black"/>
<path d="M38.1413 76.6211H36.4271V78.351H38.1413V76.6211Z" fill="#BC9311"/>
<path d="M38.1413 74.907H36.4271V76.6211H38.1413V74.907Z" fill="#BC9311"/>
<path d="M38.1413 73.1771H36.4271V74.907H38.1413V73.1771Z" fill="#BC9311"/>
<path d="M38.1413 71.4472H36.4271V73.1771H38.1413V71.4472Z" fill="black"/>
<path d="M38.1413 69.7305H36.4271V71.4446H38.1413V69.7305Z" fill="black"/>
<path d="M38.1413 68.0032H36.4271V69.7331H38.1413V68.0032Z" fill="#844141"/>
<path d="M38.1413 66.2865H36.4271V68.0006H38.1413V66.2865Z" fill="#844141"/>
<path d="M38.1413 64.5566H36.4271V66.2865H38.1413V64.5566Z" fill="#844141"/>
<path d="M38.1413 62.8425H36.4271V64.5566H38.1413V62.8425Z" fill="#844141"/>
<path d="M38.1413 61.1126H36.4271V62.8425H38.1413V61.1126Z" fill="#844141"/>
<path d="M38.1413 59.3827H36.4271V61.1126H38.1413V59.3827Z" fill="#844141"/>
<path d="M38.1413 57.6686H36.4271V59.3827H38.1413V57.6686Z" fill="#844141"/>
<path d="M38.1413 55.9361H36.4271V57.666H38.1413V55.9361Z" fill="#844141"/>
<path d="M38.1413 54.222H36.4271V55.9361H38.1413V54.222Z" fill="black"/>
<path d="M38.1413 52.4921H36.4271V54.222H38.1413V52.4921Z" fill="black"/>
<path d="M38.1413 50.778H36.4271V52.4921H38.1413V50.778Z" fill="#D8B8B8"/>
<path d="M38.1413 49.0481H36.4271V50.778H38.1413V49.0481Z" fill="#D8B8B8"/>
<path d="M38.1413 47.334H36.4271V49.0481H38.1413V47.334Z" fill="#D8B8B8"/>
<path d="M38.1413 45.6015H36.4271V47.3314H38.1413V45.6015Z" fill="#D8B8B8"/>
<path d="M38.1413 43.8716H36.4271V45.6015H38.1413V43.8716Z" fill="#D8B8B8"/>
<path d="M38.1413 42.1575H36.4271V43.8716H38.1413V42.1575Z" fill="#BA9595"/>
<path d="M38.1413 40.4276H36.4271V42.1575H38.1413V40.4276Z" fill="black"/>
<path d="M38.1413 38.7135H36.4271V40.4276H38.1413V38.7135Z" fill="black"/>
<path d="M38.1413 36.9836H36.4271V38.7135H38.1413V36.9836Z" fill="black"/>
<path d="M36.4271 78.351H34.6972V80.0651H36.4271V78.351Z" fill="black"/>
<path d="M36.4271 76.6211H34.6972V78.351H36.4271V76.6211Z" fill="#BC9311"/>
<path d="M36.4271 74.907H34.6972V76.6211H36.4271V74.907Z" fill="black"/>
<path d="M36.4271 73.1771H34.6972V74.907H36.4271V73.1771Z" fill="black"/>
<path d="M36.4271 71.4472H34.6972V73.1771H36.4271V71.4472Z" fill="black"/>
<path d="M36.4271 69.7305H34.6972V71.4446H36.4271V69.7305Z" fill="#844141"/>
<path d="M36.4271 68.0032H34.6972V69.7331H36.4271V68.0032Z" fill="#844141"/>
<path d="M36.4271 66.2865H34.6972V68.0006H36.4271V66.2865Z" fill="#844141"/>
<path d="M36.4271 64.5566H34.6972V66.2865H36.4271V64.5566Z" fill="#844141"/>
<path d="M36.4271 62.8425H34.6972V64.5566H36.4271V62.8425Z" fill="#844141"/>
<path d="M36.4271 61.1126H34.6972V62.8425H36.4271V61.1126Z" fill="#844141"/>
<path d="M36.4271 59.3827H34.6972V61.1126H36.4271V59.3827Z" fill="#844141"/>
<path d="M36.4271 57.6686H34.6972V59.3827H36.4271V57.6686Z" fill="black"/>
<path d="M36.4271 55.9361H34.6972V57.666H36.4271V55.9361Z" fill="black"/>
<path d="M36.4271 54.222H34.6972V55.9361H36.4271V54.222Z" fill="#D8B8B8"/>
<path d="M36.4271 52.4921H34.6972V54.222H36.4271V52.4921Z" fill="#D8B8B8"/>
<path d="M36.4271 50.778H34.6972V52.4921H36.4271V50.778Z" fill="#D8B8B8"/>
<path d="M36.4271 49.0481H34.6972V50.778H36.4271V49.0481Z" fill="#D8B8B8"/>
<path d="M36.4271 47.334H34.6972V49.0481H36.4271V47.334Z" fill="black"/>
<path d="M36.4271 45.6015H34.6972V47.3314H36.4271V45.6015Z" fill="black"/>
<path d="M36.4271 43.8716H34.6972V45.6015H36.4271V43.8716Z" fill="black"/>
<path d="M36.4271 42.1575H34.6972V43.8716H36.4271V42.1575Z" fill="black"/>
<path d="M34.6946 78.351H32.9648V80.0651H34.6946V78.351Z" fill="black"/>
<path d="M34.6946 76.6211H32.9648V78.351H34.6946V76.6211Z" fill="black"/>
<path d="M34.6946 74.907H32.9648V76.6211H34.6946V74.907Z" fill="black"/>
<path d="M34.6946 71.4472H32.9648V73.1771H34.6946V71.4472Z" fill="black"/>
<path d="M34.6946 69.7305H32.9648V71.4446H34.6946V69.7305Z" fill="#844141"/>
<path d="M34.6946 68.0032H32.9648V69.7331H34.6946V68.0032Z" fill="#844141"/>
<path d="M34.6946 66.2865H32.9648V68.0006H34.6946V66.2865Z" fill="#844141"/>
<path d="M34.6946 64.5566H32.9648V66.2865H34.6946V64.5566Z" fill="#844141"/>
<path d="M34.6946 62.8425H32.9648V64.5566H34.6946V62.8425Z" fill="#844141"/>
<path d="M34.6946 61.1126H32.9648V62.8425H34.6946V61.1126Z" fill="black"/>
<path d="M34.6946 59.3827H32.9648V61.1126H34.6946V59.3827Z" fill="black"/>
<path d="M34.6946 57.6686H32.9648V59.3827H34.6946V57.6686Z" fill="#D8B8B8"/>
<path d="M34.6946 55.9361H32.9648V57.666H34.6946V55.9361Z" fill="#D8B8B8"/>
<path d="M34.6946 54.222H32.9648V55.9361H34.6946V54.222Z" fill="#D8B8B8"/>
<path d="M34.6946 52.4921H32.9648V54.222H34.6946V52.4921Z" fill="#D8B8B8"/>
<path d="M34.6946 50.778H32.9648V52.4921H34.6946V50.778Z" fill="#D8B8B8"/>
<path d="M34.6946 49.0481H32.9648V50.778H34.6946V49.0481Z" fill="black"/>
<path d="M32.9648 71.4472H31.2506V73.1771H32.9648V71.4472Z" fill="black"/>
<path d="M32.9648 69.7305H31.2506V71.4446H32.9648V69.7305Z" fill="#844141"/>
<path d="M32.9648 68.0032H31.2506V69.7331H32.9648V68.0032Z" fill="#844141"/>
<path d="M32.9648 66.2865H31.2506V68.0006H32.9648V66.2865Z" fill="black"/>
<path d="M32.9648 64.5566H31.2506V66.2865H32.9648V64.5566Z" fill="black"/>
<path d="M32.9648 62.8425H31.2506V64.5566H32.9648V62.8425Z" fill="black"/>
<path d="M32.9648 61.1126H31.2506V62.8425H32.9648V61.1126Z" fill="#D8B8B8"/>
<path d="M32.9648 59.3827H31.2506V61.1126H32.9648V59.3827Z" fill="#D8B8B8"/>
<path d="M32.9648 57.6686H31.2506V59.3827H32.9648V57.6686Z" fill="#D8B8B8"/>
<path d="M32.9648 55.9361H31.2506V57.666H32.9648V55.9361Z" fill="#D8B8B8"/>
<path d="M32.9648 54.222H31.2506V55.9361H32.9648V54.222Z" fill="#D8B8B8"/>
<path d="M32.9648 52.4921H31.2506V54.222H32.9648V52.4921Z" fill="#D8B8B8"/>
<path d="M32.9648 50.778H31.2506V52.4921H32.9648V50.778Z" fill="black"/>
<path d="M31.2506 71.4472H29.5208V73.1771H31.2506V71.4472Z" fill="black"/>
<path d="M31.2506 69.7305H29.5208V71.4446H31.2506V69.7305Z" fill="black"/>
<path d="M31.2506 68.0032H29.5208V69.7331H31.2506V68.0032Z" fill="black"/>
<path d="M31.2506 66.2865H29.5208V68.0006H31.2506V66.2865Z" fill="#D8B8B8"/>
<path d="M31.2506 64.5566H29.5208V66.2865H31.2506V64.5566Z" fill="#D8B8B8"/>
<path d="M31.2506 62.8425H29.5208V64.5566H31.2506V62.8425Z" fill="#D8B8B8"/>
<path d="M31.2506 61.1126H29.5208V62.8425H31.2506V61.1126Z" fill="#D8B8B8"/>
<path d="M31.2506 59.3827H29.5208V61.1126H31.2506V59.3827Z" fill="#D8B8B8"/>
<path d="M31.2506 57.6686H29.5208V59.3827H31.2506V57.6686Z" fill="#D8B8B8"/>
<path d="M31.2506 55.9361H29.5208V57.666H31.2506V55.9361Z" fill="black"/>
<path d="M31.2506 54.222H29.5208V55.9361H31.2506V54.222Z" fill="black"/>
<path d="M31.2506 52.4921H29.5208V54.222H31.2506V52.4921Z" fill="black"/>
<path d="M29.5208 74.907H27.8066V76.6211H29.5208V74.907Z" fill="black"/>
<path d="M29.5208 73.1771H27.8066V74.907H29.5208V73.1771Z" fill="black"/>
<path d="M29.5208 71.4472H27.8066V73.1771H29.5208V71.4472Z" fill="black"/>
<path d="M29.5208 69.7305H27.8066V71.4446H29.5208V69.7305Z" fill="#A05252"/>
<path d="M29.5208 68.0032H27.8066V69.7331H29.5208V68.0032Z" fill="#A05252"/>
<path d="M29.5208 66.2865H27.8066V68.0006H29.5208V66.2865Z" fill="#D8B8B8"/>
<path d="M29.5208 64.5566H27.8066V66.2865H29.5208V64.5566Z" fill="#D8B8B8"/>
<path d="M29.5208 62.8425H27.8066V64.5566H29.5208V62.8425Z" fill="#D8B8B8"/>
<path d="M29.5208 61.1126H27.8066V62.8425H29.5208V61.1126Z" fill="#D8B8B8"/>
<path d="M29.5208 59.3827H27.8066V61.1126H29.5208V59.3827Z" fill="#D8B8B8"/>
<path d="M29.5208 57.6686H27.8066V59.3827H29.5208V57.6686Z" fill="black"/>
<path d="M27.8066 74.907H26.0768V76.6211H27.8066V74.907Z" fill="black"/>
<path d="M27.8066 73.1771H26.0768V74.907H27.8066V73.1771Z" fill="#A05252"/>
<path d="M27.8066 71.4472H26.0768V73.1771H27.8066V71.4472Z" fill="#A05252"/>
<path d="M27.8066 69.7305H26.0768V71.4446H27.8066V69.7305Z" fill="#A05252"/>
<path d="M27.8066 68.0032H26.0768V69.7331H27.8066V68.0032Z" fill="#A05252"/>
<path d="M27.8066 66.2865H26.0768V68.0006H27.8066V66.2865Z" fill="#A05252"/>
<path d="M27.8066 64.5566H26.0768V66.2865H27.8066V64.5566Z" fill="#D8B8B8"/>
<path d="M27.8066 62.8425H26.0768V64.5566H27.8066V62.8425Z" fill="#D8B8B8"/>
<path d="M27.8066 61.1126H26.0768V62.8425H27.8066V61.1126Z" fill="black"/>
<path d="M27.8066 59.3827H26.0768V61.1126H27.8066V59.3827Z" fill="black"/>
<path d="M26.0768 73.1771H24.3626V74.907H26.0768V73.1771Z" fill="black"/>
<path d="M26.0768 71.4472H24.3626V73.1771H26.0768V71.4472Z" fill="#A05252"/>
<path d="M26.0768 69.7305H24.3626V71.4446H26.0768V69.7305Z" fill="#A05252"/>
<path d="M26.0768 68.0032H24.3626V69.7331H26.0768V68.0032Z" fill="#A05252"/>
<path d="M26.0768 66.2865H24.3626V68.0006H26.0768V66.2865Z" fill="#A05252"/>
<path d="M26.0768 64.5566H24.3626V66.2865H26.0768V64.5566Z" fill="black"/>
<path d="M26.0768 62.8425H24.3626V64.5566H26.0768V62.8425Z" fill="black"/>
<path d="M24.36 71.4472H22.6301V73.1771H24.36V71.4472Z" fill="black"/>
<path d="M24.36 69.7305H22.6301V71.4446H24.36V69.7305Z" fill="black"/>
<path d="M24.36 68.0032H22.6301V69.7331H24.36V68.0032Z" fill="black"/>
<path d="M24.36 66.2865H22.6301V68.0006H24.36V66.2865Z" fill="black"/>
</svg>
