<svg width="105" height="105" viewBox="0 0 105 105" fill="none" xmlns="http://www.w3.org/2000/svg">
<path d="M52.5 1C80.9427 1 104 24.0573 104 52.5C104 80.9427 80.9427 104 52.5 104C24.0573 104 1 80.9427 1 52.5C1 24.0573 24.0573 1 52.5 1Z" fill="#F9F7E7" stroke="#29100A" stroke-width="2"/>
<path d="M82.8975 52.6728H81.1484V54.4384H82.8975V52.6728Z" fill="#373370"/>
<path d="M82.8975 50.9265H81.1484V52.6755H82.8975V50.9265Z" fill="#373370"/>
<path d="M81.1495 54.441H79.3839V56.1901H81.1495V54.441Z" fill="#373370"/>
<path d="M81.1495 52.6728H79.3839V54.4384H81.1495V52.6728Z" fill="#373370"/>
<path d="M81.1495 50.9265H79.3839V52.6755H81.1495V50.9265Z" fill="#373370"/>
<path d="M81.1495 49.158H79.3839V50.9235H81.1495V49.158Z" fill="#373370"/>
<path d="M79.3807 64.9842H77.6316V66.7498H79.3807V64.9842Z" fill="#E2A066"/>
<path d="M79.3807 56.1874H77.6316V57.9529H79.3807V56.1874Z" fill="#373370"/>
<path d="M79.3807 54.441H77.6316V56.1901H79.3807V54.441Z" fill="#373370"/>
<path d="M79.3807 52.6728H77.6316V54.4384H79.3807V52.6728Z" fill="#453D7C"/>
<path d="M79.3807 50.9265H77.6316V52.6755H79.3807V50.9265Z" fill="#453D7C"/>
<path d="M79.3807 49.158H77.6316V50.9235H79.3807V49.158Z" fill="#373370"/>
<path d="M79.3807 47.3925H77.6316V49.158H79.3807V47.3925Z" fill="#373370"/>
<path d="M79.3807 43.878H77.6316V45.6435H79.3807V43.878Z" fill="#CFAA18"/>
<path d="M77.6338 82.5737H75.8681V84.3227H77.6338V82.5737Z" fill="#7C6916"/>
<path d="M77.6338 80.8085H75.8681V82.5737H77.6338V80.8085Z" fill="#7C6916"/>
<path d="M77.6338 64.9842H75.8681V66.7498H77.6338V64.9842Z" fill="#E2A066"/>
<path d="M77.6338 63.2191H75.8681V64.9842H77.6338V63.2191Z" fill="#E2A066"/>
<path d="M77.6338 59.7023H75.8681V61.4678H77.6338V59.7023Z" fill="#453D7C"/>
<path d="M77.6338 57.9559H75.8681V59.7049H77.6338V57.9559Z" fill="#453D7C"/>
<path d="M77.6338 56.1874H75.8681V57.9529H77.6338V56.1874Z" fill="#453D7C"/>
<path d="M77.6338 54.441H75.8681V56.1901H77.6338V54.441Z" fill="#453D7C"/>
<path d="M77.6338 52.6728H75.8681V54.4384H77.6338V52.6728Z" fill="#453D7C"/>
<path d="M77.6338 50.9265H75.8681V52.6755H77.6338V50.9265Z" fill="#453D7C"/>
<path d="M77.6338 49.158H75.8681V50.9235H77.6338V49.158Z" fill="#453D7C"/>
<path d="M77.6338 45.6434H75.8681V47.3924H77.6338V45.6434Z" fill="#CFAA18"/>
<path d="M77.6338 43.878H75.8681V45.6434H77.6338V43.878Z" fill="#CFAA18"/>
<path d="M77.6338 42.1291H75.8681V43.878H77.6338V42.1291Z" fill="#CFAA18"/>
<path d="M75.8681 82.5737H74.1181V84.3227H75.8681V82.5737Z" fill="#7C6916"/>
<path d="M75.8681 80.8085H74.1181V82.5737L75.8672 82.574L75.8681 80.8085Z" fill="#7C6916"/>
<path d="M75.8672 79.0594H74.1181V80.8085H75.8681L75.8672 79.0594Z" fill="#7C6916"/>
<path d="M75.8672 73.7763H74.1181V75.5253H75.8672V73.7763Z" fill="#7C6916"/>
<path d="M75.8681 64.9842H74.1181V66.7498H75.8681V64.9842Z" fill="#E2A066"/>
<path d="M75.8681 63.2191H74.1181V64.9842L75.8672 64.9846L75.8681 63.2191Z" fill="#E2A066"/>
<path d="M75.8672 61.4702H74.1181V63.2191H75.8681L75.8672 61.4702Z" fill="#E2A066"/>
<path d="M75.8681 57.9559H74.1181V59.7049H75.8681V57.9559Z" fill="#453D7C"/>
<path d="M75.8681 56.1874H74.1181V57.9529H75.8681V56.1874Z" fill="#453D7C"/>
<path d="M75.8681 47.3924L74.1181 47.3925V49.158L75.8681 49.158V47.3924Z" fill="#CFAA18"/>
<path d="M75.8681 45.6434H74.1181V47.3925L75.8681 47.3924V45.6434Z" fill="#B28A0D"/>
<path d="M75.8681 43.878H74.1181V45.6434H75.8681V43.878Z" fill="#B28A0D"/>
<path d="M75.8681 42.1291H74.1181V43.878H75.8681V42.1291Z" fill="#CFAA18"/>
<path d="M74.1157 82.5737H72.3501V84.3227H74.1157V82.5737Z" fill="#A18824"/>
<path d="M74.1157 80.8085H72.3501V82.5737H74.1157V80.8085Z" fill="#7C6916"/>
<path d="M74.1157 79.0594H72.3501V80.8085H74.1157V79.0594Z" fill="#7C6916"/>
<path d="M74.1157 77.2937H72.3501V79.0594H74.1157V77.2937Z" fill="#7C6916"/>
<path d="M74.1157 73.7763H72.3501V75.5253H74.1157V73.7763Z" fill="#7C6916"/>
<path d="M74.1157 70.2645H72.3501V72.0135H74.1157V70.2645Z" fill="#373370"/>
<path d="M74.1157 68.4991H72.3501V70.2645H74.1157V68.4991Z" fill="#373370"/>
<path d="M74.1157 66.75H72.3501V68.4991H74.1157V66.75Z" fill="#373370"/>
<path d="M74.1157 63.2191H72.3501V64.9846H74.1157V63.2191Z" fill="#E2A066"/>
<path d="M74.1157 61.4702H72.3501V63.2191H74.1157V61.4702Z" fill="#E2A066"/>
<path d="M74.1157 54.441H72.3501V56.1901H74.1157V54.441Z" fill="#CFAA18"/>
<path d="M74.1157 52.6728H72.3501V54.4384H74.1157V52.6728Z" fill="#CFAA18"/>
<path d="M74.1157 50.9265H72.3501V52.6755H74.1157V50.9265Z" fill="#CFAA18"/>
<path d="M74.1157 49.158H72.3501V50.9235H74.1157V49.158Z" fill="#CFAA18"/>
<path d="M74.1157 47.3925H72.3501V49.158H74.1157V47.3925Z" fill="#CFAA18"/>
<path d="M74.1157 45.6434H72.3501V47.3925H74.1157V45.6434Z" fill="#CFAA18"/>
<path d="M74.1157 43.878H72.3501V45.6434H74.1157V43.878Z" fill="#B28A0D"/>
<path d="M74.1157 42.1291H72.3501V43.878H74.1157V42.1291Z" fill="#B28A0D"/>
<path d="M74.1157 40.3637H72.3501V42.1291H74.1157V40.3637Z" fill="#CFAA18"/>
<path d="M74.1157 38.6142H72.3501V40.3637H74.1157V38.6142Z" fill="#CFAA18"/>
<path d="M72.3522 82.5737H70.5867V84.3227H72.3522V82.5737Z" fill="#A18824"/>
<path d="M72.3522 80.8085H70.5867V82.5737H72.3522V80.8085Z" fill="#A18824"/>
<path d="M72.3522 79.0594H70.5867V80.8085H72.3522V79.0594Z" fill="#A18824"/>
<path d="M72.3522 77.2937H70.5867V79.0594H72.3522V77.2937Z" fill="#A18824"/>
<path d="M72.3522 73.7763H70.5867V75.5253H72.3522V73.7763Z" fill="#7C6916"/>
<path d="M72.3522 70.2645H70.5867V72.0135H72.3522V70.2645Z" fill="#373370"/>
<path d="M72.3522 68.4991H70.5867V70.2645H72.3522V68.4991Z" fill="#373370"/>
<path d="M72.3522 66.75H70.5867V68.4991H72.3522V66.75Z" fill="#373370"/>
<path d="M72.3522 64.9842H70.5867V66.75H72.3522V64.9842Z" fill="#373370"/>
<path d="M72.3522 59.7023H70.5867V61.4678H72.3522V59.7023Z" fill="#CFAA18"/>
<path d="M72.3522 57.9559H70.5867V59.7049H72.3522V57.9559Z" fill="#CFAA18"/>
<path d="M72.3522 56.1874H70.5867V57.9529H72.3522V56.1874Z" fill="#CFAA18"/>
<path d="M72.3522 54.441H70.5867V56.1901H72.3522V54.441Z" fill="#CFAA18"/>
<path d="M72.3522 52.6728H70.5867V54.4384H72.3522V52.6728Z" fill="#CFAA18"/>
<path d="M72.3522 50.9265H70.5867V52.6755H72.3522V50.9265Z" fill="#B28A0D"/>
<path d="M72.3522 49.158H70.5867V50.9235H72.3522V49.158Z" fill="#B28A0D"/>
<path d="M72.3522 47.3925H70.5867V49.158H72.3522V47.3925Z" fill="#CFAA18"/>
<path d="M72.3522 45.6434H70.5867V47.3925H72.3522V45.6434Z" fill="#CFAA18"/>
<path d="M72.3522 43.878H70.5867V45.6434H72.3522V43.878Z" fill="#CFAA18"/>
<path d="M72.3522 42.1291H70.5867V43.878H72.3522V42.1291Z" fill="#CFAA18"/>
<path d="M72.3522 40.3637H70.5867V42.1291H72.3522V40.3637Z" fill="#CFAA18"/>
<path d="M72.3522 28.0545H70.5867V29.82H72.3522V28.0545Z" fill="black"/>
<path d="M72.3522 26.3051H70.5867V28.0545H72.3522V26.3051Z" fill="black"/>
<path d="M72.3522 24.5402H70.5867V26.3051H72.3522V24.5402Z" fill="black"/>
<path d="M72.3522 22.7908H70.5867V24.5402H72.3522V22.7908Z" fill="black"/>
<path d="M70.5847 82.5737H68.8356V84.3227H70.5847V82.5737Z" fill="#A18824"/>
<path d="M70.5847 80.8085H68.8356V82.5737H70.5847V80.8085Z" fill="#A18824"/>
<path d="M70.5847 79.0594H68.8356V80.8085H70.5847V79.0594Z" fill="#A18824"/>
<path d="M70.5847 77.2937H68.8356V79.0594H70.5847V77.2937Z" fill="#A18824"/>
<path d="M70.5847 73.7763H68.8356V75.5253H70.5847V73.7763Z" fill="#A18824"/>
<path d="M70.5847 70.2645H68.8356V72.0135H70.5847V70.2645Z" fill="#453D7C"/>
<path d="M70.5847 68.4991H68.8356V70.2645H70.5847V68.4991Z" fill="#453D7C"/>
<path d="M70.5847 66.75H68.8356V68.4991H70.5847V66.75Z" fill="#453D7C"/>
<path d="M70.5847 64.9842H68.8356V66.75H70.5847V64.9842Z" fill="#373370"/>
<path d="M70.5847 61.4702H68.8356V63.2192H70.5847V61.4702Z" fill="#CFAA18"/>
<path d="M70.5847 59.7023H68.8356V61.4678H70.5847V59.7023Z" fill="#CFAA18"/>
<path d="M70.5847 57.9559H68.8356V59.7049H70.5847V57.9559Z" fill="#CFAA18"/>
<path d="M70.5847 56.1874H68.8356V57.9529H70.5847V56.1874Z" fill="#CFAA18"/>
<path d="M70.5847 54.441H68.8356V56.1901H70.5847V54.441Z" fill="#B28A0D"/>
<path d="M70.5847 52.6728H68.8356V54.4384H70.5847V52.6728Z" fill="#B28A0D"/>
<path d="M70.5847 50.9265H68.8356V52.6755H70.5847V50.9265Z" fill="#CFAA18"/>
<path d="M70.5847 49.158H68.8356V50.9235H70.5847V49.158Z" fill="#CFAA18"/>
<path d="M70.5847 47.3925H68.8356V49.158H70.5847V47.3925Z" fill="#CFAA18"/>
<path d="M70.5847 45.6434H68.8356V47.3925H70.5847V45.6434Z" fill="#CFAA18"/>
<path d="M70.5847 43.878H68.8356V45.6434H70.5847V43.878Z" fill="#CFAA18"/>
<path d="M70.5847 42.1291H68.8356V43.878H70.5847V42.1291Z" fill="#CFAA18"/>
<path d="M70.5847 40.3637H68.8356V42.1291H70.5847V40.3637Z" fill="#CFAA18"/>
<path d="M70.5847 38.6142H68.8356V40.3637H70.5847V38.6142Z" fill="#CFAA18"/>
<path d="M70.5847 29.8199H68.8356V31.5689H70.5847V29.8199Z" fill="black"/>
<path d="M70.5847 28.0545H68.8356V29.8199H70.5847V28.0545Z" fill="#CFAA18"/>
<path d="M70.5847 26.3051H68.8356V28.0545H70.5847V26.3051Z" fill="#CFAA18"/>
<path d="M70.5847 24.5402H68.8356V26.3051H70.5847V24.5402Z" fill="black"/>
<path d="M68.8376 82.5737H67.072V84.3227H68.8376V82.5737Z" fill="#A18824"/>
<path d="M68.8376 80.8085H67.072V82.5737H68.8376V80.8085Z" fill="#A18824"/>
<path d="M68.8376 79.0594H67.072V80.8085H68.8376V79.0594Z" fill="#A18824"/>
<path d="M68.8376 73.7763H67.072V75.5253H68.8376V73.7763Z" fill="#A18824"/>
<path d="M68.8376 70.2645H67.072V72.0135H68.8376V70.2645Z" fill="#453D7C"/>
<path d="M68.8376 68.4991H67.072V70.2645H68.8376V68.4991Z" fill="#453D7C"/>
<path d="M68.8376 66.75H67.072V68.4991H68.8376V66.75Z" fill="#453D7C"/>
<path d="M68.8376 63.2191H67.072V64.9846H68.8376V63.2191Z" fill="#CFAA18"/>
<path d="M68.8376 61.4702H67.072V63.2191H68.8376V61.4702Z" fill="#CFAA18"/>
<path d="M68.8376 59.7023H67.072V61.4678H68.8376V59.7023Z" fill="#CFAA18"/>
<path d="M68.8376 57.9559H67.072V59.7049H68.8376V57.9559Z" fill="#B28A0D"/>
<path d="M68.8376 56.1874H67.072V57.9529H68.8376V56.1874Z" fill="#CFAA18"/>
<path d="M68.8376 54.441H67.072V56.1901H68.8376V54.441Z" fill="#CFAA18"/>
<path d="M68.8376 52.6728H67.072V54.4384H68.8376V52.6728Z" fill="#B28A0D"/>
<path d="M68.8376 50.9265H67.072V52.6755H68.8376V50.9265Z" fill="#B28A0D"/>
<path d="M68.8376 49.158H67.072V50.9235H68.8376V49.158Z" fill="#CFAA18"/>
<path d="M68.8376 47.3925H67.072V49.158H68.8376V47.3925Z" fill="#CFAA18"/>
<path d="M68.8376 45.6434H67.072V47.3925H68.8376V45.6434Z" fill="#B28A0D"/>
<path d="M68.8376 43.878H67.072V45.6434H68.8376V43.878Z" fill="#B28A0D"/>
<path d="M68.8376 42.1291H67.072V43.878H68.8376V42.1291Z" fill="#CFAA18"/>
<path d="M68.8376 40.3637H67.072V42.1291H68.8376V40.3637Z" fill="#B28A0D"/>
<path d="M68.8376 38.6142H67.072V40.3637H68.8376V38.6142Z" fill="#CFAA18"/>
<path d="M68.8376 36.8493H67.072V38.6142H68.8376V36.8493Z" fill="#CFAA18"/>
<path d="M68.8376 29.8199H67.072V31.5689H68.8376V29.8199Z" fill="#CFAA18"/>
<path d="M68.8376 28.0545H67.072V29.8199H68.8376V28.0545Z" fill="#CFAA18"/>
<path d="M68.8376 26.3051H67.072V28.0545H68.8376V26.3051Z" fill="black"/>
<path d="M67.072 64.9846L65.3221 64.9842V66.7498L67.072 66.75V64.9846Z" fill="#CFAA18"/>
<path d="M67.072 63.2191H65.3221V64.9842L67.072 64.9846V63.2191Z" fill="#CFAA18"/>
<path d="M67.072 61.4702H65.3221V63.2191H67.072V61.4702Z" fill="#CFAA18"/>
<path d="M67.072 59.7023H65.3221V61.4678H67.072V59.7023Z" fill="#CFAA18"/>
<path d="M67.072 57.9559H65.3221V59.7049H67.072V57.9559Z" fill="#CFAA18"/>
<path d="M67.072 56.1874H65.3221V57.9529H67.072V56.1874Z" fill="#B28A0D"/>
<path d="M67.072 54.441H65.3221V56.1901H67.072V54.441Z" fill="#CFAA18"/>
<path d="M67.072 52.6728H65.3221V54.4384H67.072V52.6728Z" fill="#CFAA18"/>
<path d="M67.072 50.9265H65.3221V52.6755H67.072V50.9265Z" fill="#CFAA18"/>
<path d="M67.072 49.158H65.3221V50.9235H67.072V49.158Z" fill="#CFAA18"/>
<path d="M67.072 47.3925H65.3221V49.158H67.072V47.3925Z" fill="#CFAA18"/>
<path d="M67.072 45.6434H65.3221V47.3925H67.072V45.6434Z" fill="#CFAA18"/>
<path d="M67.072 43.878H65.3221V45.6434H67.072V43.878Z" fill="#CFAA18"/>
<path d="M67.072 42.1291H65.3221V43.878H67.072V42.1291Z" fill="#B28A0D"/>
<path d="M67.072 40.3637H65.3221V42.1291H67.072V40.3637Z" fill="#B28A0D"/>
<path d="M67.072 38.6142H65.3221V40.3637H67.072V38.6142Z" fill="#CE8A57"/>
<path d="M67.072 36.8493H65.3221V38.6142L67.0712 38.6149L67.072 36.8493Z" fill="#CE8A57"/>
<path d="M67.0712 33.3345H65.3221V35.0835H67.0712V33.3345Z" fill="#2C2E3A"/>
<path d="M67.072 31.5689L65.3221 31.5688V33.3345H67.0712L67.072 31.5689Z" fill="#091442"/>
<path d="M67.072 28.0545H65.3221V29.82L67.072 29.8199V28.0545Z" fill="black"/>
<path d="M65.3232 66.75H63.5576V68.499H65.3232V66.75Z" fill="#CFAA18"/>
<path d="M65.3232 64.9842H63.5576V66.75H65.3232V64.9842Z" fill="#B28A0D"/>
<path d="M65.3232 63.2191H63.5576V64.9842H65.3232V63.2191Z" fill="#B28A0D"/>
<path d="M65.3232 61.4702H63.5576V63.2191H65.3232V61.4702Z" fill="#CFAA18"/>
<path d="M65.3232 59.7023H63.5576V61.4678H65.3232V59.7023Z" fill="#CFAA18"/>
<path d="M65.3232 57.9559H63.5576V59.7049H65.3232V57.9559Z" fill="#CFAA18"/>
<path d="M65.3232 56.1874H63.5576V57.9529H65.3232V56.1874Z" fill="#CFAA18"/>
<path d="M65.3232 54.441H63.5576V56.1901H65.3232V54.441Z" fill="#B28A0D"/>
<path d="M65.3232 52.6728H63.5576V54.4384H65.3232V52.6728Z" fill="#B28A0D"/>
<path d="M65.3232 50.9265H63.5576V52.6755H65.3232V50.9265Z" fill="#CFAA18"/>
<path d="M65.3232 49.158H63.5576V50.9235H65.3232V49.158Z" fill="#CFAA18"/>
<path d="M65.3232 47.3925H63.5576V49.158H65.3232V47.3925Z" fill="#B28A0D"/>
<path d="M65.3232 45.6434H63.5576V47.3925H65.3232V45.6434Z" fill="#CFAA18"/>
<path d="M65.3232 43.878H63.5576V45.6434H65.3232V43.878Z" fill="#CFAA18"/>
<path d="M65.3232 42.1291H63.5576V43.878H65.3232V42.1291Z" fill="#CFAA18"/>
<path d="M65.3232 40.3637H63.5576V42.1291H65.3232V40.3637Z" fill="#CE8A57"/>
<path d="M65.3232 38.6142H63.5576V40.3637H65.3232V38.6142Z" fill="#E2A066"/>
<path d="M65.3232 35.0833H63.5576V36.8489H65.3232V35.0833Z" fill="#091442"/>
<path d="M65.3232 33.3345H63.5576V35.0833H65.3232V33.3345Z" fill="#091442"/>
<path d="M65.3232 31.5688H63.5576V33.3345H65.3232V31.5688Z" fill="#091442"/>
<path d="M65.3232 29.8199H63.5576V31.5688H65.3232V29.8199Z" fill="#091442"/>
<path d="M63.5576 68.499L61.8086 68.4991V70.2646H63.5577L63.5576 68.499Z" fill="#CFAA18"/>
<path d="M63.5576 66.75H61.8086V68.4991L63.5576 68.499V66.75Z" fill="#CFAA18"/>
<path d="M63.5576 64.9842H61.8086V66.75H63.5576V64.9842Z" fill="#CFAA18"/>
<path d="M63.5576 63.2191H61.8086V64.9842H63.5576V63.2191Z" fill="#CFAA18"/>
<path d="M63.5576 61.4702H61.8086V63.2191H63.5576V61.4702Z" fill="#CFAA18"/>
<path d="M63.5576 59.7023H61.8086V61.4678H63.5576V59.7023Z" fill="#B28A0D"/>
<path d="M63.5576 57.9559H61.8086V59.7049H63.5576V57.9559Z" fill="#CFAA18"/>
<path d="M63.5576 56.1874H61.8086V57.9529H63.5576V56.1874Z" fill="#CFAA18"/>
<path d="M63.5576 54.441H61.8086V56.1901H63.5576V54.441Z" fill="#CFAA18"/>
<path d="M63.5576 52.6728H61.8086V54.4384H63.5576V52.6728Z" fill="#B28A0D"/>
<path d="M63.5576 50.9265H61.8086V52.6755H63.5576V50.9265Z" fill="#CFAA18"/>
<path d="M63.5576 49.158H61.8086V50.9235H63.5576V49.158Z" fill="#CFAA18"/>
<path d="M63.5576 47.3925H61.8086V49.158H63.5576V47.3925Z" fill="#B28A0D"/>
<path d="M63.5576 45.6434H61.8086V47.3925H63.5576V45.6434Z" fill="#CFAA18"/>
<path d="M63.5576 43.878H61.8086V45.6434H63.5576V43.878Z" fill="#CFAA18"/>
<path d="M63.5576 42.1291H61.8086V43.878H63.5576V42.1291Z" fill="#FFC78F"/>
<path d="M63.5576 40.3637H61.8086V42.1291H63.5576V40.3637Z" fill="#FFC78F"/>
<path d="M63.5576 38.6142H61.8086V40.3637H63.5576V38.6142Z" fill="#E2A066"/>
<path d="M63.5576 35.0833H61.8086V36.8489H63.5576V35.0833Z" fill="#2C2E3A"/>
<path d="M63.5576 33.3345H61.8086V35.0833H63.5576V33.3345Z" fill="#101A54"/>
<path d="M63.5576 31.5688H61.8086V33.3345H63.5576V31.5688Z" fill="#101A54"/>
<path d="M63.5576 29.8199H61.8086V31.5688H63.5576V29.8199Z" fill="#091442"/>
<path d="M61.8086 82.5737H60.043V84.3227H61.8086V82.5737Z" fill="#7C6916"/>
<path d="M61.8086 80.8085H60.043V82.5737H61.8086V80.8085Z" fill="#7C6916"/>
<path d="M61.8086 79.0594H60.043V80.8085H61.8086V79.0594Z" fill="#7C6916"/>
<path d="M61.8086 77.2937H60.043V79.0594H61.8086V77.2937Z" fill="#7C6916"/>
<path d="M61.8086 73.7763H60.043V75.5253H61.8086V73.7763Z" fill="#7C6916"/>
<path d="M61.8086 70.2646L60.043 70.2645V72.0135H61.8086L61.8086 70.2646Z" fill="#373370"/>
<path d="M61.8086 63.2191H60.043V64.9846L61.8086 64.9842V63.2191Z" fill="#CFAA18"/>
<path d="M61.8086 61.4702H60.043V63.2191H61.8086V61.4702Z" fill="#CFAA18"/>
<path d="M61.8086 59.7023H60.043V61.4678H61.8086V59.7023Z" fill="#B28A0D"/>
<path d="M61.8086 57.9559H60.043V59.7049H61.8086V57.9559Z" fill="#B28A0D"/>
<path d="M61.8086 56.1874H60.043V57.9529H61.8086V56.1874Z" fill="#B28A0D"/>
<path d="M61.8086 54.441H60.043V56.1901H61.8086V54.441Z" fill="#CFAA18"/>
<path d="M61.8086 52.6728H60.043V54.4384H61.8086V52.6728Z" fill="#CFAA18"/>
<path d="M61.8086 50.9265H60.043V52.6755H61.8086V50.9265Z" fill="#B28A0D"/>
<path d="M61.8086 49.158H60.043V50.9235H61.8086V49.158Z" fill="#CFAA18"/>
<path d="M61.8086 47.3925H60.043V49.158H61.8086V47.3925Z" fill="#CFAA18"/>
<path d="M61.8086 45.6434H60.043V47.3925H61.8086V45.6434Z" fill="#B28A0D"/>
<path d="M61.8086 43.878H60.043V45.6434H61.8086V43.878Z" fill="#CFAA18"/>
<path d="M61.8086 42.1291H60.043V43.878H61.8086V42.1291Z" fill="#FFC78F"/>
<path d="M61.8086 40.3637H60.043V42.1291H61.8086V40.3637Z" fill="#FFC78F"/>
<path d="M61.8086 38.6142H60.043V40.3637H61.8086V38.6142Z" fill="#E2A066"/>
<path d="M61.8086 35.0833H60.043V36.8489H61.8086V35.0833Z" fill="#101A54"/>
<path d="M61.8086 33.3345H60.043V35.0833H61.8086V33.3345Z" fill="#101A54"/>
<path d="M61.8086 31.5688H60.043V33.3345H61.8086V31.5688Z" fill="#101A54"/>
<path d="M61.8086 29.8199H60.043V31.5688H61.8086V29.8199Z" fill="#101A54"/>
<path d="M60.0417 82.5737H58.2761V84.3227H60.0417V82.5737Z" fill="#A18824"/>
<path d="M60.0417 80.8085H58.2761V82.5737H60.0417V80.8085Z" fill="#7C6916"/>
<path d="M60.0417 79.0594H58.2761V80.8085H60.0417V79.0594Z" fill="#7C6916"/>
<path d="M60.0417 77.2937H58.2761V79.0594H60.0417V77.2937Z" fill="#7C6916"/>
<path d="M60.0417 73.7763H58.2761V75.5253H60.0417V73.7763Z" fill="#7C6916"/>
<path d="M60.0417 70.2645H58.2761V72.0135H60.0417V70.2645Z" fill="#373370"/>
<path d="M60.0417 68.4991H58.2761V70.2645H60.0417V68.4991Z" fill="#373370"/>
<path d="M60.0417 66.75H58.2761V68.4991H60.0417V66.75Z" fill="#373370"/>
<path d="M60.0417 64.9842H58.2761V66.75H60.0417V64.9842Z" fill="#373370"/>
<path d="M60.0417 61.4702H58.2761V63.2192H60.0417V61.4702Z" fill="#CFAA18"/>
<path d="M60.0417 59.7023H58.2761V61.4678H60.0417V59.7023Z" fill="#CFAA18"/>
<path d="M60.0417 57.9559H58.2761V59.7049H60.0417V57.9559Z" fill="#CFAA18"/>
<path d="M60.0417 56.1874H58.2761V57.9529H60.0417V56.1874Z" fill="#B28A0D"/>
<path d="M60.0417 54.441H58.2761V56.1901H60.0417V54.441Z" fill="#CFAA18"/>
<path d="M60.0417 52.6728H58.2761V54.4384H60.0417V52.6728Z" fill="#CFAA18"/>
<path d="M60.0417 50.9265H58.2761V52.6755H60.0417V50.9265Z" fill="#CFAA18"/>
<path d="M60.0417 49.158H58.2761V50.9235H60.0417V49.158Z" fill="#CFAA18"/>
<path d="M60.0417 47.3925H58.2761V49.158H60.0417V47.3925Z" fill="#B28A0D"/>
<path d="M60.0417 45.6434H58.2761V47.3925H60.0417V45.6434Z" fill="#CFAA18"/>
<path d="M60.0417 43.878H58.2761V45.6434H60.0417V43.878Z" fill="#CFAA18"/>
<path d="M60.0417 42.1291H58.2761V43.878H60.0417V42.1291Z" fill="#FFC78F"/>
<path d="M60.0417 40.3637H58.2761V42.1291H60.0417V40.3637Z" fill="#FFC78F"/>
<path d="M60.0417 38.6142H58.2761V40.3637H60.0417V38.6142Z" fill="#E2A066"/>
<path d="M60.0417 35.0833H58.2761V36.8489H60.0417V35.0833Z" fill="#2C2E3A"/>
<path d="M60.0417 33.3345H58.2761V35.0833H60.0417V33.3345Z" fill="#101A54"/>
<path d="M60.0417 31.5688H58.2761V33.3345H60.0417V31.5688Z" fill="#101A54"/>
<path d="M60.0417 29.8199H58.2761V31.5688H60.0417V29.8199Z" fill="#101A54"/>
<path d="M58.2774 82.5737H56.5284V84.3227H58.2774V82.5737Z" fill="#A18824"/>
<path d="M58.2774 80.8085H56.5284V82.5737H58.2774V80.8085Z" fill="#A18824"/>
<path d="M58.2774 79.0594H56.5284V80.8085H58.2774V79.0594Z" fill="#7C6916"/>
<path d="M58.2774 77.2937H56.5284V79.0594H58.2774V77.2937Z" fill="#7C6916"/>
<path d="M58.2774 73.7763H56.5284V75.5253H58.2774V73.7763Z" fill="#7C6916"/>
<path d="M58.2774 70.2645H56.5284V72.0135H58.2774V70.2645Z" fill="#453D7C"/>
<path d="M58.2774 68.4991H56.5284V70.2645H58.2774V68.4991Z" fill="#453D7C"/>
<path d="M58.2774 66.75H56.5284V68.4991H58.2774V66.75Z" fill="#453D7C"/>
<path d="M58.2774 64.9842H56.5284V66.75H58.2774V64.9842Z" fill="#373370"/>
<path d="M58.2774 63.2191H56.5284V64.9842H58.2774V63.2191Z" fill="#373370"/>
<path d="M58.2774 59.7023H56.5284V61.4678H58.2774V59.7023Z" fill="#CFAA18"/>
<path d="M58.2774 57.9559H56.5284V59.7049H58.2774V57.9559Z" fill="#CFAA18"/>
<path d="M58.2774 56.1874H56.5284V57.9529H58.2774V56.1874Z" fill="#CFAA18"/>
<path d="M58.2774 54.441H56.5284V56.1901H58.2774V54.441Z" fill="#CFAA18"/>
<path d="M58.2774 52.6728H56.5284V54.4384H58.2774V52.6728Z" fill="#CFAA18"/>
<path d="M58.2774 50.9265H56.5284V52.6755H58.2774V50.9265Z" fill="#CFAA18"/>
<path d="M58.2774 49.158H56.5284V50.9235H58.2774V49.158Z" fill="#CFAA18"/>
<path d="M58.2774 47.3925H56.5284V49.158H58.2774V47.3925Z" fill="#B28A0D"/>
<path d="M58.2774 45.6434H56.5284V47.3925H58.2774V45.6434Z" fill="#CFAA18"/>
<path d="M58.2774 43.878H56.5284V45.6434H58.2774V43.878Z" fill="#CFAA18"/>
<path d="M58.2774 42.1291H56.5284V43.878H58.2774V42.1291Z" fill="#FFC78F"/>
<path d="M58.2774 40.3637H56.5284V42.1291H58.2774V40.3637Z" fill="#FFC78F"/>
<path d="M58.2774 38.6142H56.5284V40.3637H58.2774V38.6142Z" fill="#E2A066"/>
<path d="M58.2774 35.0833H56.5284V36.8489H58.2774V35.0833Z" fill="#101A54"/>
<path d="M58.2774 33.3345H56.5284V35.0833H58.2774V33.3345Z" fill="#101A54"/>
<path d="M58.2774 31.5688H56.5284V33.3345H58.2774V31.5688Z" fill="#101A54"/>
<path d="M58.2774 29.8199H56.5284V31.5688H58.2774V29.8199Z" fill="#101A54"/>
<path d="M56.5249 82.5737H54.7593V84.3227H56.5249V82.5737Z" fill="#A18824"/>
<path d="M56.5249 80.8085H54.7593V82.5737H56.5249V80.8085Z" fill="#A18824"/>
<path d="M56.5249 79.0594H54.7593V80.8085H56.5249V79.0594Z" fill="#A18824"/>
<path d="M56.5249 77.2937H54.7593V79.0594H56.5249V77.2937Z" fill="#A18824"/>
<path d="M56.5249 73.7763H54.7593V75.5253H56.5249V73.7763Z" fill="#7C6916"/>
<path d="M56.5249 70.2645H54.7593V72.0135H56.5249V70.2645Z" fill="#453D7C"/>
<path d="M56.5249 68.4991H54.7593V70.2645H56.5249V68.4991Z" fill="#453D7C"/>
<path d="M56.5249 66.75H54.7593V68.4991H56.5249V66.75Z" fill="#453D7C"/>
<path d="M56.5249 64.9842H54.7593V66.75H56.5249V64.9842Z" fill="#453D7C"/>
<path d="M56.5249 63.2191H54.7593V64.9842H56.5249V63.2191Z" fill="#373370"/>
<path d="M56.5249 59.7023H54.7593V61.4678H56.5249V59.7023Z" fill="#CFAA18"/>
<path d="M56.5249 57.9559H54.7593V59.7049H56.5249V57.9559Z" fill="#CFAA18"/>
<path d="M56.5249 56.1874H54.7593V57.9529H56.5249V56.1874Z" fill="#CFAA18"/>
<path d="M56.5249 54.441H54.7593V56.1901H56.5249V54.441Z" fill="#B28A0D"/>
<path d="M56.5249 52.6728H54.7593V54.4384H56.5249V52.6728Z" fill="#B28A0D"/>
<path d="M56.5249 50.9265H54.7593V52.6755H56.5249V50.9265Z" fill="#B28A0D"/>
<path d="M56.5249 49.158H54.7593V50.9235H56.5249V49.158Z" fill="#B28A0D"/>
<path d="M56.5249 47.3925H54.7593V49.158H56.5249V47.3925Z" fill="#CFAA18"/>
<path d="M56.5249 45.6434H54.7593V47.3925H56.5249V45.6434Z" fill="#B28A0D"/>
<path d="M56.5249 43.878H54.7593V45.6434H56.5249V43.878Z" fill="#B28A0D"/>
<path d="M56.5249 42.1291H54.7593V43.878H56.5249V42.1291Z" fill="#CFAA18"/>
<path d="M56.5249 40.3637H54.7593V42.1291H56.5249V40.3637Z" fill="#FFC78F"/>
<path d="M56.5249 38.6142H54.7593V40.3637H56.5249V38.6142Z" fill="#E2A066"/>
<path d="M56.5249 35.0833H54.7593V36.8489H56.5249V35.0833Z" fill="#2C2E3A"/>
<path d="M56.5249 33.3345H54.7593V35.0833H56.5249V33.3345Z" fill="#101A54"/>
<path d="M56.5249 31.5688H54.7593V33.3345H56.5249V31.5688Z" fill="#101A54"/>
<path d="M56.5249 28.0545H54.7593V29.82H56.5249V28.0545Z" fill="black"/>
<path d="M54.7593 82.5737H53.0105V84.3227H54.7593V82.5737Z" fill="#A18824"/>
<path d="M54.7593 80.8085H53.0105V82.5737H54.7593V80.8085Z" fill="#A18824"/>
<path d="M54.7593 73.7763H53.0105V75.5253H54.7593V73.7763Z" fill="#A18824"/>
<path d="M54.7595 61.4702H53.0105V63.2192L54.7593 63.2191L54.7595 61.4702Z" fill="#CFAA18"/>
<path d="M54.7593 59.7023H53.0105V61.4678H54.7593V59.7023Z" fill="#CFAA18"/>
<path d="M54.7593 57.9559H53.0105V59.7049H54.7593V57.9559Z" fill="#CFAA18"/>
<path d="M54.7593 56.1874H53.0105V57.9529H54.7593V56.1874Z" fill="#B28A0D"/>
<path d="M54.7593 54.441H53.0105V56.1901H54.7593V54.441Z" fill="#B28A0D"/>
<path d="M54.7593 52.6728H53.0105V54.4384H54.7593V52.6728Z" fill="#CFAA18"/>
<path d="M54.7593 50.9265H53.0105V52.6755H54.7593V50.9265Z" fill="#CFAA18"/>
<path d="M54.7593 49.158H53.0105V50.9235H54.7593V49.158Z" fill="#B28A0D"/>
<path d="M54.7593 47.3925H53.0105V49.158H54.7593V47.3925Z" fill="#B28A0D"/>
<path d="M54.7593 45.6434H53.0105V47.3925H54.7593V45.6434Z" fill="#CFAA18"/>
<path d="M54.7593 43.878H53.0105V45.6434H54.7593V43.878Z" fill="#CFAA18"/>
<path d="M54.7593 42.1291H53.0105V43.878H54.7593V42.1291Z" fill="#CFAA18"/>
<path d="M54.7593 40.3637H53.0105V42.1291H54.7593V40.3637Z" fill="#CFAA18"/>
<path d="M54.7593 36.8489L53.0105 36.8493V38.6149L54.7593 38.6142V36.8489Z" fill="#2C2E3A"/>
<path d="M54.7593 35.0833H53.0105V36.8493L54.7593 36.8489V35.0833Z" fill="#101A54"/>
<path d="M54.7593 33.3345H53.0105V35.0833H54.7593V33.3345Z" fill="#101A54"/>
<path d="M54.7593 29.82L53.0105 29.8199V31.5689L54.7593 31.5688V29.82Z" fill="#CFAA18"/>
<path d="M54.7593 28.0545H53.0105V29.8199L54.7593 29.82V28.0545Z" fill="#CFAA18"/>
<path d="M54.7595 26.3051H53.0105V28.0545H54.7593L54.7595 26.3051Z" fill="black"/>
<path d="M53.0115 82.5737H51.2459V84.3227H53.0115V82.5737Z" fill="#A18824"/>
<path d="M53.0115 80.8085H51.2459V82.5737H53.0115V80.8085Z" fill="#A18824"/>
<path d="M53.0115 63.2191H51.2459V64.9846H53.0115V63.2191Z" fill="#CFAA18"/>
<path d="M53.0115 61.4702H51.2459V63.2191H53.0115V61.4702Z" fill="#CFAA18"/>
<path d="M53.0115 56.1874H51.2459V57.9529H53.0115V56.1874Z" fill="#CFAA18"/>
<path d="M53.0115 54.441H51.2459V56.1901H53.0115V54.441Z" fill="#CFAA18"/>
<path d="M53.0115 52.6728H51.2459V54.4384H53.0115V52.6728Z" fill="#CFAA18"/>
<path d="M53.0115 50.9265H51.2459V52.6755H53.0115V50.9265Z" fill="#CFAA18"/>
<path d="M53.0115 49.158H51.2459V50.9235H53.0115V49.158Z" fill="#CFAA18"/>
<path d="M53.0115 47.3925H51.2459V49.158H53.0115V47.3925Z" fill="#A18824"/>
<path d="M53.0115 45.6434H51.2459V47.3925H53.0115V45.6434Z" fill="#CFAA18"/>
<path d="M53.0115 31.5688H51.2459V33.3343H53.0115V31.5688Z" fill="black"/>
<path d="M53.0115 29.8199H51.2459V31.5688H53.0115V29.8199Z" fill="black"/>
<path d="M53.0115 28.0545H51.2459V29.8199H53.0115V28.0545Z" fill="#CFAA18"/>
<path d="M53.0115 26.3051H51.2459V28.0545H53.0115V26.3051Z" fill="#CFAA18"/>
<path d="M53.0115 24.5402H51.2459V26.3051H53.0115V24.5402Z" fill="black"/>
<path d="M51.2459 82.5737H49.4959V84.3227H51.2459V82.5737Z" fill="#A18824"/>
<path d="M51.2459 80.8085H49.4959V82.5737L51.2449 82.574L51.2459 80.8085Z" fill="#A18824"/>
<path d="M51.2449 43.878H49.4959V45.6435L51.2459 45.6434L51.2449 43.878Z" fill="#373370"/>
<path d="M51.2449 42.1291H49.4959V43.878H51.2449V42.1291Z" fill="#373370"/>
<path d="M51.2459 29.8199H49.4959V31.5689L51.2459 31.5688V29.8199Z" fill="black"/>
<path d="M51.2459 28.0545H49.4959V29.8199H51.2459V28.0545Z" fill="black"/>
<path d="M51.2459 26.3051H49.4959V28.0545L51.2449 28.0541L51.2459 26.3051Z" fill="black"/>
<path d="M51.2459 24.5402H49.4959V26.3051L51.2449 26.3057L51.2459 24.5402Z" fill="black"/>
<path d="M51.2449 22.7908H49.4959V24.5402L51.2449 24.5398V22.7908Z" fill="#F9F7E7"/>
<path d="M49.4958 50.9265H47.7302V52.6755H49.4958V50.9265Z" fill="#373370"/>
<path d="M49.4958 49.158H47.7302V50.9235H49.4958V49.158Z" fill="#373370"/>
<path d="M49.4958 47.3925H47.7302V49.158H49.4958V47.3925Z" fill="#373370"/>
<path d="M49.4959 45.6435L47.7302 45.6434V47.3925H49.4958L49.4959 45.6435Z" fill="#373370"/>
<path d="M49.4959 43.878H47.7302V45.6434L49.4959 45.6435V43.878Z" fill="#373370"/>
<path d="M47.7303 52.6728H45.9813V54.4384H47.7303V52.6728Z" fill="#373370"/>
<path d="M47.7302 50.9265H45.9813V52.6755H47.7302V50.9265Z" fill="#373370"/>
<path d="M47.7302 49.158H45.9813V50.9235H47.7302V49.158Z" fill="#373370"/>
<path d="M47.7302 47.3925H45.9813V49.158H47.7302V47.3925Z" fill="#373370"/>
<path d="M47.7302 45.6434H45.9813V47.3925H47.7302V45.6434Z" fill="#373370"/>
<path d="M45.9813 52.6728H44.2156V54.4384H45.9813V52.6728Z" fill="#373370"/>
<path d="M45.9813 50.9265H44.2156V52.6755H45.9813V50.9265Z" fill="#373370"/>
<path d="M44.2165 54.441H42.4509V56.1901H44.2165V54.441Z" fill="#373370"/>
<path d="M44.2156 52.6728H42.4509V54.4384H44.2156V52.6728Z" fill="#373370"/>
<path d="M44.2156 50.9265H42.4509V52.6755H44.2156V50.9265Z" fill="#373370"/>
<path d="M44.2165 42.1291H42.4509V43.8781H44.2165V42.1291Z" fill="#5C5C7A"/>
<path d="M44.2165 40.3637H42.4509V42.1291H44.2165V40.3637Z" fill="#5C5C7A"/>
<path d="M44.2165 38.6142H42.4509V40.3637H44.2165V38.6142Z" fill="#5C5C7A"/>
<path d="M44.2165 36.8493H42.4509V38.6142H44.2165V36.8493Z" fill="#5C5C7A"/>
<path d="M44.2165 35.0833H42.4509V36.8493H44.2165V35.0833Z" fill="#5C5C7A"/>
<path d="M44.2165 33.3345H42.4509V35.0833H44.2165V33.3345Z" fill="#5C5C7A"/>
<path d="M42.449 54.441H40.6999V56.1901H42.449V54.441Z" fill="#373370"/>
<path d="M42.449 52.6728H40.6999V54.4384H42.449V52.6728Z" fill="#373370"/>
<path d="M42.449 40.3637H40.6999V42.1292H42.449V40.3637Z" fill="#727296"/>
<path d="M42.449 38.6142H40.6999V40.3637H42.449V38.6142Z" fill="#727296"/>
<path d="M42.449 36.8493H40.6999V38.6142H42.449V36.8493Z" fill="#727296"/>
<path d="M42.449 35.0833H40.6999V36.8493H42.449V35.0833Z" fill="#727296"/>
<path d="M40.7008 56.1874H38.9352V57.9529H40.7008V56.1874Z" fill="#242D63"/>
<path d="M40.6999 54.441H38.9352V56.1901H40.6999V54.441Z" fill="#242D63"/>
<path d="M40.6999 38.6142H38.9352V40.3632H40.7008L40.6999 38.6142Z" fill="#727296"/>
<path d="M40.6999 36.8493H38.9352V38.6142L40.7008 38.6149L40.6999 36.8493Z" fill="#727296"/>
<path d="M38.9344 72.0136H37.1853V73.7792H38.9344V72.0136Z" fill="#5C5C7A"/>
<path d="M38.9344 70.2645H37.1853V72.0136H38.9344V70.2645Z" fill="#5C5C7A"/>
<path d="M38.9344 57.9559H37.1853V59.7049H38.9344V57.9559Z" fill="#E2A066"/>
<path d="M38.9352 56.1874H37.1853V57.9529H38.9352V56.1874Z" fill="#E2A066"/>
<path d="M38.9352 54.441H37.1853V56.1901H38.9352V54.441Z" fill="#E2A066"/>
<path d="M38.9344 52.6728H37.1853V54.4384H38.9344V52.6728Z" fill="#E2A066"/>
<path d="M38.9344 29.8199H37.1853V31.5689H38.9344V29.8199Z" fill="#5C5C7A"/>
<path d="M37.1875 73.7763H35.4218V75.5253H37.1875V73.7763Z" fill="#727296"/>
<path d="M37.1875 72.0136H35.4218V73.7792H37.1875V72.0136Z" fill="#727296"/>
<path d="M37.1875 70.2645H35.4218V72.0136H37.1875V70.2645Z" fill="#5C5C7A"/>
<path d="M37.1875 68.4991H35.4218V70.2645H37.1875V68.4991Z" fill="#773725"/>
<path d="M37.1875 66.75H35.4218V68.4991H37.1875V66.75Z" fill="#773725"/>
<path d="M37.1875 64.9842H35.4218V66.75H37.1875V64.9842Z" fill="#773725"/>
<path d="M37.1875 63.2191H35.4218V64.9842H37.1875V63.2191Z" fill="#773725"/>
<path d="M37.1875 61.4702H35.4218V63.2191H37.1875V61.4702Z" fill="#773725"/>
<path d="M37.1875 57.9559H35.4218V59.7049H37.1875V57.9559Z" fill="#E2A066"/>
<path d="M37.1875 56.1874H35.4218V57.9529H37.1875V56.1874Z" fill="#E2A066"/>
<path d="M37.1875 54.441H35.4218V56.1901H37.1875V54.441Z" fill="#E2A066"/>
<path d="M37.1875 52.6728H35.4218V54.4384H37.1875V52.6728Z" fill="#E2A066"/>
<path d="M37.1875 50.9265H35.4218V52.6755H37.1875V50.9265Z" fill="#E2A066"/>
<path d="M37.1875 47.3925H35.4218V49.158H37.1875V47.3925Z" fill="#773725"/>
<path d="M37.1875 45.6434H35.4218V47.3925H37.1875V45.6434Z" fill="#773725"/>
<path d="M37.1875 43.878H35.4218V45.6434H37.1875V43.878Z" fill="#773725"/>
<path d="M37.1875 42.1291H35.4218V43.878H37.1875V42.1291Z" fill="#773725"/>
<path d="M37.1875 40.3637H35.4218V42.1291H37.1875V40.3637Z" fill="#773725"/>
<path d="M37.1875 38.6142H35.4218V40.3637H37.1875V38.6142Z" fill="#773725"/>
<path d="M37.1875 36.8493H35.4218V38.6142H37.1875V36.8493Z" fill="#773725"/>
<path d="M37.1875 35.0833H35.4218V36.8493H37.1875V35.0833Z" fill="#773725"/>
<path d="M37.1875 33.3345H35.4218V35.0833H37.1875V33.3345Z" fill="#773725"/>
<path d="M37.1875 31.5688H35.4218V33.3345H37.1875V31.5688Z" fill="#773725"/>
<path d="M37.1875 29.8199H35.4218V31.5688H37.1875V29.8199Z" fill="#5C5C7A"/>
<path d="M35.4218 72.0136H33.6718V73.7792H35.4218V72.0136Z" fill="#727296"/>
<path d="M35.4218 70.2645H33.6718V72.0136H35.4218V70.2645Z" fill="#727296"/>
<path d="M35.4218 57.9559H33.6718V59.7049H35.4218V57.9559Z" fill="#E2A066"/>
<path d="M35.4218 56.1874H33.6718V57.9529H35.4218V56.1874Z" fill="#E2A066"/>
<path d="M35.4218 54.441H33.6718V56.1901H35.4218V54.441Z" fill="#E2A066"/>
<path d="M35.4218 52.6728H33.6718V54.4384H35.4218V52.6728Z" fill="#E2A066"/>
<path d="M35.4218 50.9265H33.6718V52.6755H35.4218V50.9265Z" fill="#E2A066"/>
<path d="M35.4218 29.8199H33.6718V31.5689L35.4218 31.5688V29.8199Z" fill="#727296"/>
<path d="M33.6706 38.6142H31.905V40.3632H33.6706V38.6142Z" fill="#5C5C7A"/>
<path d="M33.6706 36.8493H31.905V38.6142H33.6706V36.8493Z" fill="#5C5C7A"/>
<path d="M31.9072 38.6142H30.1416V40.3632H31.9072V38.6142Z" fill="#5C5C7A"/>
<path d="M31.9072 36.8493H30.1416V38.6142H31.9072V36.8493Z" fill="#5C5C7A"/>
<path d="M30.1395 40.3637H28.3904V42.1292H30.1395V40.3637Z" fill="#5C5C7A"/>
<path d="M30.1395 38.6142H28.3904V40.3637H30.1395V38.6142Z" fill="#5C5C7A"/>
<path d="M30.1395 36.8493H28.3904V38.6142H30.1395V36.8493Z" fill="#5C5C7A"/>
<path d="M30.1395 35.0833H28.3904V36.8493H30.1395V35.0833Z" fill="#5C5C7A"/>
<path d="M28.3915 42.1291H26.6259V43.8781H28.3915V42.1291Z" fill="#5C5C7A"/>
<path d="M28.3915 40.3637H26.6259V42.1291H28.3915V40.3637Z" fill="#5C5C7A"/>
<path d="M28.3915 38.6142H26.6259V40.3637H28.3915V38.6142Z" fill="#5C5C7A"/>
<path d="M28.3915 36.8493H26.6259V38.6142H28.3915V36.8493Z" fill="#5C5C7A"/>
<path d="M28.3915 35.0833H26.6259V36.8493H28.3915V35.0833Z" fill="#5C5C7A"/>
<path d="M28.3915 33.3345H26.6259V35.0833H28.3915V33.3345Z" fill="#5C5C7A"/>
<path d="M26.626 47.3925H24.8769V49.158H26.626V47.3925Z" fill="black"/>
<path d="M26.626 45.6434H24.8769V47.3925H26.626V45.6434Z" fill="#727296"/>
<path d="M26.6259 43.8781L24.8769 43.878V45.6434H26.626L26.6259 43.8781Z" fill="#727296"/>
<path d="M26.6259 42.1291H24.8769V43.878L26.6259 43.8781V42.1291Z" fill="#727296"/>
<path d="M26.6259 40.3637H24.8769V42.1291H26.6259V40.3637Z" fill="#5C5C7A"/>
<path d="M26.6259 38.6142H24.8769V40.3637H26.6259V38.6142Z" fill="#5C5C7A"/>
<path d="M26.6259 36.8493H24.8769V38.6142H26.6259V36.8493Z" fill="#5C5C7A"/>
<path d="M26.6259 35.0833H24.8769V36.8493H26.6259V35.0833Z" fill="#5C5C7A"/>
<path d="M26.6259 33.3345H24.8769V35.0833H26.6259V33.3345Z" fill="#727296"/>
<path d="M26.626 31.5688H24.8769V33.3345H26.6259L26.626 31.5688Z" fill="#727296"/>
<path d="M26.626 29.8199H24.8769V31.5688H26.626V29.8199Z" fill="#727296"/>
<path d="M26.626 28.0545H24.8769V29.8199H26.626V28.0545Z" fill="black"/>
<path d="M24.8769 45.6434H23.1113V47.3924L24.8769 47.3925V45.6434Z" fill="black"/>
<path d="M24.8769 43.878H23.1113V45.6434H24.8769V43.878Z" fill="#727296"/>
<path d="M24.8769 42.1291H23.1113V43.878H24.8769V42.1291Z" fill="#727296"/>
<path d="M24.8769 40.3637H23.1113V42.1291H24.8769V40.3637Z" fill="#727296"/>
<path d="M24.8769 38.6142H23.1113V40.3637H24.8769V38.6142Z" fill="#727296"/>
<path d="M24.8769 36.8493H23.1113V38.6142H24.8769V36.8493Z" fill="#727296"/>
<path d="M24.8769 35.0833H23.1113V36.8493H24.8769V35.0833Z" fill="#727296"/>
<path d="M24.8769 33.3345H23.1113V35.0833H24.8769V33.3345Z" fill="#727296"/>
<path d="M24.8769 31.5688H23.1113V33.3345H24.8769V31.5688Z" fill="#727296"/>
<path d="M24.8769 29.8199H23.1113V31.5688H24.8769V29.8199Z" fill="black"/>
<path d="M23.1113 43.878H21.3612V45.6435L23.1113 45.6434V43.878Z" fill="black"/>
<path d="M23.1113 42.1291H21.3612V43.878H23.1113V42.1291Z" fill="#727296"/>
<path d="M23.1113 40.3637H21.3612V42.1291H23.1113V40.3637Z" fill="#727296"/>
<path d="M23.1113 38.6142H21.3612V40.3637L23.1103 40.3632L23.1113 38.6142Z" fill="#727296"/>
<path d="M23.1113 36.8493H21.3612V38.6142L23.1103 38.6149L23.1113 36.8493Z" fill="#727296"/>
<path d="M23.1113 35.0833H21.3612V36.8493L23.1103 36.8489L23.1113 35.0833Z" fill="#727296"/>
<path d="M23.1113 33.3345H21.3612V35.0833L23.1103 35.0835L23.1113 33.3345Z" fill="#727296"/>
<path d="M23.1113 31.5688H21.3612V33.3345L23.1103 33.3343L23.1113 31.5688Z" fill="black"/>
<path d="M21.3623 42.1291H19.5967V43.8781H21.3623V42.1291Z" fill="black"/>
<path d="M21.3623 40.3637H19.5967V42.1291H21.3623V40.3637Z" fill="black"/>
<path d="M21.3623 38.6142H19.5967V40.3637H21.3623V38.6142Z" fill="black"/>
<path d="M21.3623 36.8493H19.5967V38.6142H21.3623V36.8493Z" fill="black"/>
<path d="M21.3623 35.0833H19.5967V36.8493H21.3623V35.0833Z" fill="black"/>
<path d="M21.3623 33.3345H19.5967V35.0833H21.3623V33.3345Z" fill="black"/>
<path d="M84.6682 52.6727H82.9026V54.4382H84.6682V52.6727Z" fill="black"/>
<path d="M84.6682 50.9264H82.9026V52.6754H84.6682V50.9264Z" fill="black"/>
<path d="M82.9026 56.187H81.137V57.9525H82.9026V56.187Z" fill="black"/>
<path d="M82.9026 54.4409H81.137V56.1899H82.9026V54.4409Z" fill="black"/>
<path d="M82.9026 49.1578H81.137V50.9234H82.9026V49.1578Z" fill="black"/>
<path d="M81.1371 64.9844H79.388V66.7499H81.1371V64.9844Z" fill="black"/>
<path d="M81.1371 57.9558H79.388V59.7048H81.1371V57.9558Z" fill="black"/>
<path d="M81.137 56.187H79.388V57.9525H81.137V56.187Z" fill="black"/>
<path d="M81.1371 47.3924H79.388V49.1579L81.137 49.1578L81.1371 47.3924Z" fill="black"/>
<path d="M81.1371 43.8779H79.388V45.6434H81.1371V43.8779Z" fill="black"/>
<path d="M79.3869 82.5735H77.6213V84.3225H79.3869V82.5735Z" fill="black"/>
<path d="M79.3869 80.8081H77.6213V82.5735H79.3869V80.8081Z" fill="black"/>
<path d="M79.3869 66.7501H77.6213V68.4991H79.3869V66.7501Z" fill="black"/>
<path d="M79.3869 63.2192H77.6213V64.9847H79.3869V63.2192Z" fill="black"/>
<path d="M79.3869 61.4698H77.6213V63.2192H79.3869V61.4698Z" fill="black"/>
<path d="M79.3869 59.7018H77.6213V61.4674H79.3869V59.7018Z" fill="black"/>
<path d="M79.3869 57.9558H77.6213V59.7048H79.3869V57.9558Z" fill="black"/>
<path d="M79.3869 45.6432H77.6213V47.3922H79.3869V45.6432Z" fill="black"/>
<path d="M79.3869 42.129H77.6213V43.878H79.3869V42.129Z" fill="black"/>
<path d="M77.6214 84.3258H75.8723V86.0913H77.6214V84.3258Z" fill="black"/>
<path d="M77.6214 79.0593H75.8723V80.8083L77.6213 80.8081L77.6214 79.0593Z" fill="black"/>
<path d="M77.6214 75.5278H75.8723V77.2934H77.6214V75.5278Z" fill="black"/>
<path d="M77.6214 73.7764H75.8723V75.5254H77.6214V73.7764Z" fill="black"/>
<path d="M77.6214 72.0135H75.8723V73.779H77.6214V72.0135Z" fill="black"/>
<path d="M77.6213 66.7501H75.8723V68.4991H77.6213V66.7501Z" fill="black"/>
<path d="M77.6213 61.4698H75.8723V63.2188L77.6213 63.2192V61.4698Z" fill="black"/>
<path d="M77.6213 47.3922L75.8723 47.3924V49.1579H77.6214L77.6213 47.3922Z" fill="black"/>
<path d="M77.6214 40.3635H75.8723V42.1291L77.6213 42.129L77.6214 40.3635Z" fill="black"/>
<path d="M75.8723 84.3258H74.1067V86.0913H75.8723V84.3258Z" fill="black"/>
<path d="M75.8723 77.2934L74.1067 77.2936V79.0591L75.8723 79.0593V77.2934Z" fill="black"/>
<path d="M75.8723 75.5278H74.1067V77.2936L75.8723 77.2934V75.5278Z" fill="black"/>
<path d="M75.8723 72.0135H74.1067V73.779H75.8723V72.0135Z" fill="black"/>
<path d="M75.8723 70.2644H74.1067V72.0135H75.8723L75.8723 70.2644Z" fill="black"/>
<path d="M75.8723 68.4991L74.1067 68.499V70.2644H75.8723L75.8723 68.4991Z" fill="black"/>
<path d="M75.8723 66.7501H74.1067V68.499L75.8723 68.4991V66.7501Z" fill="black"/>
<path d="M75.8723 59.7018H74.1067V61.4674H75.8723V59.7018Z" fill="black"/>
<path d="M75.8723 54.4409H74.1067V56.1899H75.8723V54.4409Z" fill="black"/>
<path d="M75.8723 52.6727H74.1067V54.4382H75.8723V52.6727Z" fill="black"/>
<path d="M75.8723 50.9264H74.1067V52.6754H75.8723V50.9264Z" fill="black"/>
<path d="M75.8723 49.1579L74.1067 49.1578V50.9234H75.8723L75.8723 49.1579Z" fill="black"/>
<path d="M75.8723 40.3635H74.1067V42.1291H75.8723V40.3635Z" fill="black"/>
<path d="M75.8723 38.6144H74.1067V40.3635H75.8723L75.8723 38.6144Z" fill="black"/>
<path d="M74.1067 84.3258H72.3578V86.0913H74.1067V84.3258Z" fill="black"/>
<path d="M74.1067 75.5278H72.3578V77.2934L74.1067 77.2936V75.5278Z" fill="black"/>
<path d="M74.1067 72.0135H72.3578V73.779H74.1067V72.0135Z" fill="black"/>
<path d="M74.1069 64.9844H72.3578V66.7499L74.1067 66.7501L74.1069 64.9844Z" fill="black"/>
<path d="M74.1067 59.7018H72.3578V61.4674H74.1067V59.7018Z" fill="black"/>
<path d="M74.1069 57.9558H72.3578V59.7048H74.1069V57.9558Z" fill="black"/>
<path d="M74.1069 56.187H72.3578V57.9525H74.1069V56.187Z" fill="black"/>
<path d="M74.1069 36.8492H72.3578V38.6147L74.1067 38.6144L74.1069 36.8492Z" fill="black"/>
<path d="M72.361 84.3258H70.5954V86.0913H72.361V84.3258Z" fill="black"/>
<path d="M72.361 75.5278H70.5954V77.2934H72.361V75.5278Z" fill="black"/>
<path d="M72.361 72.0135H70.5954V73.779H72.361V72.0135Z" fill="black"/>
<path d="M72.361 63.2192H70.5954V64.9847H72.361V63.2192Z" fill="black"/>
<path d="M72.361 61.4698H70.5954V63.2192H72.361V61.4698Z" fill="black"/>
<path d="M72.361 38.6144H70.5954V40.3634H72.361V38.6144Z" fill="black"/>
<path d="M70.5919 84.3258H68.8263V86.0913H70.5919V84.3258Z" fill="black"/>
<path d="M70.5919 75.5278H68.8263V77.2934H70.5919V75.5278Z" fill="black"/>
<path d="M70.5919 72.0135H68.8263V73.779H70.5919V72.0135Z" fill="black"/>
<path d="M70.5919 63.2192H68.8263V64.9847H70.5919V63.2192Z" fill="black"/>
<path d="M70.5919 36.8492H68.8263V38.6147H70.5919V36.8492Z" fill="black"/>
<path d="M68.8276 84.3258H67.0786V86.0913H68.8276V84.3258Z" fill="black"/>
<path d="M68.8276 77.2936H67.0786V79.0591H68.8276V77.2936Z" fill="black"/>
<path d="M68.8276 75.5278H67.0786V77.2936H68.8276V75.5278Z" fill="black"/>
<path d="M68.8276 72.0135H67.0786V73.779H68.8276V72.0135Z" fill="black"/>
<path d="M68.8276 64.9844H67.0786V66.7499H68.8276V64.9844Z" fill="black"/>
<path d="M68.8276 35.0832H67.0786V36.8487H68.8276V35.0832Z" fill="black"/>
<path d="M68.8276 33.3344H67.0786V35.0832H68.8276V33.3344Z" fill="black"/>
<path d="M68.8276 31.5684H67.0786V33.3344H68.8276V31.5684Z" fill="black"/>
<path d="M67.0763 82.5735H65.3107V84.3225H67.0763V82.5735Z" fill="black"/>
<path d="M67.0763 80.8081H65.3107V82.5735H67.0763V80.8081Z" fill="black"/>
<path d="M67.0763 79.0593H65.3107V80.8081H67.0763V79.0593Z" fill="black"/>
<path d="M67.0763 75.5278H65.3107V77.2934H67.0763V75.5278Z" fill="black"/>
<path d="M67.0763 73.7764H65.3107V75.5254H67.0763V73.7764Z" fill="black"/>
<path d="M67.0763 72.0135H65.3107V73.779H67.0763V72.0135Z" fill="black"/>
<path d="M67.0763 70.2644H65.3107V72.0135H67.0763V70.2644Z" fill="black"/>
<path d="M67.0763 68.499H65.3107V70.2644H67.0763V68.499Z" fill="black"/>
<path d="M67.0763 66.7501H65.3107V68.499H67.0763V66.7501Z" fill="black"/>
<path d="M67.0763 35.0832H65.3107V36.8487H67.0763V35.0832Z" fill="black"/>
<path d="M67.0763 29.8198H65.3107V31.5688H67.0763V29.8198Z" fill="black"/>
<path d="M65.3132 68.499H63.5641V70.2645H65.3132V68.499Z" fill="black"/>
<path d="M65.3132 36.8492H63.5641V38.6147H65.3132V36.8492Z" fill="black"/>
<path d="M65.3132 28.0543H63.5641V29.8199H65.3132V28.0543Z" fill="black"/>
<path d="M63.5628 82.5735H61.7972V84.3225H63.5628V82.5735Z" fill="black"/>
<path d="M63.5628 80.8081H61.7972V82.5735H63.5628V80.8081Z" fill="black"/>
<path d="M63.5628 79.0593H61.7972V80.8081H63.5628V79.0593Z" fill="black"/>
<path d="M63.5628 77.2936H61.7972V79.0593H63.5628V77.2936Z" fill="black"/>
<path d="M63.5628 75.5278H61.7972V77.2936H63.5628V75.5278Z" fill="black"/>
<path d="M63.5628 73.7764H61.7972V75.5254H63.5628V73.7764Z" fill="black"/>
<path d="M63.5628 72.0135H61.7972V73.779H63.5628V72.0135Z" fill="black"/>
<path d="M63.5628 70.2644H61.7972V72.0135H63.5628V70.2644Z" fill="black"/>
<path d="M63.5628 36.8492H61.7972V38.6147H63.5628V36.8492Z" fill="black"/>
<path d="M63.5628 28.0543H61.7972V29.8199H63.5628V28.0543Z" fill="black"/>
<path d="M61.794 84.3258H60.0449V86.0913H61.794V84.3258Z" fill="black"/>
<path d="M61.794 75.5278H60.0449V77.2934H61.794V75.5278Z" fill="black"/>
<path d="M61.794 72.0135H60.0449V73.779H61.794V72.0135Z" fill="black"/>
<path d="M61.794 68.499H60.0449V70.2645H61.794V68.499Z" fill="black"/>
<path d="M61.794 66.7501H60.0449V68.499H61.794V66.7501Z" fill="black"/>
<path d="M61.794 64.9844H60.0449V66.7501H61.794V64.9844Z" fill="black"/>
<path d="M61.794 36.8492H60.0449V38.6147H61.794V36.8492Z" fill="black"/>
<path d="M61.794 28.0543H60.0449V29.8199H61.794V28.0543Z" fill="black"/>
<path d="M60.0504 84.3258H58.2848V86.0913H60.0504V84.3258Z" fill="black"/>
<path d="M60.0504 75.5278H58.2848V77.2934H60.0504V75.5278Z" fill="black"/>
<path d="M60.0504 72.0135H58.2848V73.779H60.0504V72.0135Z" fill="black"/>
<path d="M60.0504 63.2192H58.2848V64.9847H60.0504V63.2192Z" fill="black"/>
<path d="M60.0504 36.8492H58.2848V38.6147H60.0504V36.8492Z" fill="black"/>
<path d="M60.0504 28.0543H58.2848V29.8199H60.0504V28.0543Z" fill="black"/>
<path d="M58.2807 84.3258H56.5316V86.0913H58.2807V84.3258Z" fill="black"/>
<path d="M58.2807 75.5278H56.5316V77.2934H58.2807V75.5278Z" fill="black"/>
<path d="M58.2807 72.0135H56.5316V73.779H58.2807V72.0135Z" fill="black"/>
<path d="M58.2807 61.4698H56.5316V63.2188H58.2807V61.4698Z" fill="black"/>
<path d="M58.2807 36.8492H56.5316V38.6147H58.2807V36.8492Z" fill="black"/>
<path d="M58.2807 28.0543H56.5316V29.8199H58.2807V28.0543Z" fill="black"/>
<path d="M56.5347 84.3258H54.7691V86.0913H56.5347V84.3258Z" fill="black"/>
<path d="M56.5347 75.5278H54.7691V77.2934H56.5347V75.5278Z" fill="black"/>
<path d="M56.5347 72.0135H54.7691V73.779H56.5347V72.0135Z" fill="black"/>
<path d="M56.5347 61.4698H54.7691V63.2188H56.5347V61.4698Z" fill="black"/>
<path d="M56.5347 36.8492H54.7691V38.6147H56.5347V36.8492Z" fill="black"/>
<path d="M56.5347 29.8198H54.7691V31.5688H56.5347V29.8198Z" fill="black"/>
<path d="M54.7679 84.3258H53.0023V86.0913H54.7679V84.3258Z" fill="black"/>
<path d="M54.7679 79.0593H53.0023V80.8083H54.7679V79.0593Z" fill="black"/>
<path d="M54.7679 77.2936H53.0023V79.0593H54.7679V77.2936Z" fill="black"/>
<path d="M54.7679 75.5278H53.0023V77.2936H54.7679V75.5278Z" fill="black"/>
<path d="M54.7679 72.0135H53.0023V73.779H54.7679V72.0135Z" fill="black"/>
<path d="M54.7679 70.2644H53.0023V72.0135H54.7679V70.2644Z" fill="black"/>
<path d="M54.7679 68.499H53.0023V70.2644H54.7679V68.499Z" fill="black"/>
<path d="M54.7679 66.7501H53.0023V68.499H54.7679V66.7501Z" fill="black"/>
<path d="M54.7679 64.9844H53.0023V66.7501H54.7679V64.9844Z" fill="black"/>
<path d="M54.7679 63.2192H53.0023V64.9844H54.7679V63.2192Z" fill="black"/>
<path d="M54.7679 38.6144H53.0023V40.3634H54.7679V38.6144Z" fill="black"/>
<path d="M54.7679 31.5684H53.0023V33.3339H54.7679V31.5684Z" fill="black"/>
<path d="M53.0023 84.3258H51.2535V86.0913H53.0023V84.3258Z" fill="black"/>
<path d="M53.0023 79.0593H51.2535V80.8083H53.0023V79.0593Z" fill="black"/>
<path d="M53.0023 75.5278H51.2535V77.2934L53.0023 77.2936V75.5278Z" fill="black"/>
<path d="M53.0026 73.7764H51.2535V75.5254H53.0026V73.7764Z" fill="black"/>
<path d="M53.0023 72.0135H51.2535V73.779H53.0023V72.0135Z" fill="black"/>
<path d="M53.0023 64.9844H51.2535V66.7499L53.0023 66.7501V64.9844Z" fill="black"/>
<path d="M53.0026 59.7018H51.2535V61.4674H53.0026V59.7018Z" fill="black"/>
<path d="M53.0026 57.9558H51.2535V59.7048H53.0026V57.9558Z" fill="black"/>
<path d="M53.0026 43.8779H51.2535V45.6434H53.0026V43.8779Z" fill="black"/>
<path d="M53.0026 42.129H51.2535V43.8779H53.0026V42.129Z" fill="black"/>
<path d="M53.0023 40.3634L51.2535 40.3635V42.129H53.0026L53.0023 40.3634Z" fill="black"/>
<path d="M53.0023 38.6144H51.2535V40.3635L53.0023 40.3634V38.6144Z" fill="black"/>
<path d="M53.0026 36.8492H51.2535V38.6144H53.0023L53.0026 36.8492Z" fill="black"/>
<path d="M53.0026 35.0832H51.2535V36.8492H53.0026V35.0832Z" fill="black"/>
<path d="M53.0023 33.3339L51.2535 33.3344V35.0832H53.0026L53.0023 33.3339Z" fill="black"/>
<path d="M51.2535 84.3258H49.4877V86.0913H51.2535V84.3258Z" fill="black"/>
<path d="M51.2535 79.0593H49.4877V80.8083H51.2535V79.0593Z" fill="black"/>
<path d="M51.2533 63.2192H49.4877V64.9847L51.2535 64.9844L51.2533 63.2192Z" fill="black"/>
<path d="M51.2533 61.4698H49.4877V63.2192H51.2533V61.4698Z" fill="black"/>
<path d="M51.2533 56.187H49.4877V57.9525H51.2533V56.187Z" fill="black"/>
<path d="M51.2533 54.4409H49.4877V56.1899H51.2533V54.4409Z" fill="black"/>
<path d="M51.2533 52.6727H49.4877V54.4382H51.2533V52.6727Z" fill="black"/>
<path d="M51.2533 50.9264H49.4877V52.6754H51.2533V50.9264Z" fill="black"/>
<path d="M51.2533 49.1578H49.4877V50.9234H51.2533V49.1578Z" fill="black"/>
<path d="M51.2533 47.3924H49.4877V49.1578H51.2533V47.3924Z" fill="black"/>
<path d="M51.2535 45.6434L49.4877 45.6432V47.3924H51.2533L51.2535 45.6434Z" fill="black"/>
<path d="M51.2535 40.3635H49.4877V42.1291L51.2535 42.129V40.3635Z" fill="black"/>
<path d="M49.488 82.5735H47.7389V84.3225H49.488V82.5735Z" fill="black"/>
<path d="M49.4877 80.8083L47.7389 80.8081V82.5735H49.488L49.4877 80.8083Z" fill="black"/>
<path d="M49.4877 52.6727H47.7389V54.4382H49.4877V52.6727Z" fill="black"/>
<path d="M49.4877 42.1291L47.7389 42.129V43.878H49.488L49.4877 42.1291Z" fill="black"/>
<path d="M47.7354 54.4409H45.9698V56.1899H47.7354V54.4409Z" fill="black"/>
<path d="M47.7354 43.8779H45.9698V45.6434H47.7354V43.8779Z" fill="black"/>
<path d="M45.9698 54.4409H44.2209V56.1899H45.9698V54.4409Z" fill="black"/>
<path d="M45.9699 49.1578H44.2209V50.9234H45.9699V49.1578Z" fill="black"/>
<path d="M45.9699 47.3924H44.2209V49.1578H45.9699V47.3924Z" fill="black"/>
<path d="M45.9698 45.6434L44.2209 45.6432V47.3924H45.9699L45.9698 45.6434Z" fill="black"/>
<path d="M45.9699 42.129H44.2209V43.878L45.9698 43.8779L45.9699 42.129Z" fill="black"/>
<path d="M45.9699 40.3635H44.2209V42.129H45.9699V40.3635Z" fill="black"/>
<path d="M45.9699 38.6144H44.2209V40.3635H45.9699V38.6144Z" fill="black"/>
<path d="M45.9699 36.8492H44.2209V38.6144H45.9699V36.8492Z" fill="black"/>
<path d="M45.9699 35.0832H44.2209V36.8492H45.9699V35.0832Z" fill="black"/>
<path d="M45.9699 33.3344H44.2209V35.0832H45.9699V33.3344Z" fill="black"/>
<path d="M44.223 56.187H42.4574V57.9525H44.223V56.187Z" fill="black"/>
<path d="M44.223 49.1578H42.4574V50.9234H44.223V49.1578Z" fill="black"/>
<path d="M44.223 43.8779H42.4574V45.6434H44.223V43.8779Z" fill="black"/>
<path d="M44.223 31.5684H42.4574V33.3339H44.223V31.5684Z" fill="black"/>
<path d="M42.4563 56.187H40.6907V57.9525H42.4563V56.187Z" fill="black"/>
<path d="M42.4563 50.9264H40.6907V52.6754H42.4563V50.9264Z" fill="black"/>
<path d="M42.4563 42.129H40.6907V43.878H42.4563V42.129Z" fill="black"/>
<path d="M42.4563 33.3344H40.6907V35.0834H42.4563V33.3344Z" fill="black"/>
<path d="M40.6919 72.0135H38.9428V73.779H40.6919V72.0135Z" fill="black"/>
<path d="M40.6919 70.2644H38.9428V72.0135H40.6919V70.2644Z" fill="black"/>
<path d="M40.6919 57.9558H38.9428V59.7048H40.6919V57.9558Z" fill="black"/>
<path d="M40.6919 52.6727H38.9428V54.4382H40.6919V52.6727Z" fill="black"/>
<path d="M40.6919 40.3635H38.9428V42.1291H40.6919V40.3635Z" fill="black"/>
<path d="M40.6919 35.0832H38.9428V36.8487H40.6919V35.0832Z" fill="black"/>
<path d="M40.6919 29.8198H38.9428V31.5688H40.6919V29.8198Z" fill="black"/>
<path d="M38.9406 73.7764H37.175V75.5254H38.9406V73.7764Z" fill="black"/>
<path d="M38.9406 68.499H37.175V70.2645H38.9406V68.499Z" fill="black"/>
<path d="M38.9406 66.7501H37.175V68.499H38.9406V66.7501Z" fill="black"/>
<path d="M38.9406 64.9844H37.175V66.7501H38.9406V64.9844Z" fill="black"/>
<path d="M38.9406 63.2192H37.175V64.9844H38.9406V63.2192Z" fill="black"/>
<path d="M38.9406 61.4698H37.175V63.2192H38.9406V61.4698Z" fill="black"/>
<path d="M38.9406 59.7018H37.175V61.4674H38.9406V59.7018Z" fill="black"/>
<path d="M38.9406 50.9264H37.175V52.6754H38.9406V50.9264Z" fill="black"/>
<path d="M38.9406 49.1578H37.175V50.9234H38.9406V49.1578Z" fill="black"/>
<path d="M38.9406 47.3924H37.175V49.1578H38.9406V47.3924Z" fill="black"/>
<path d="M38.9406 45.6432H37.175V47.3924H38.9406V45.6432Z" fill="black"/>
<path d="M38.9406 43.8779H37.175V45.6432H38.9406V43.8779Z" fill="black"/>
<path d="M38.9406 42.129H37.175V43.8779H38.9406V42.129Z" fill="black"/>
<path d="M38.9406 40.3635H37.175V42.129H38.9406V40.3635Z" fill="black"/>
<path d="M38.9406 38.6144H37.175V40.3635H38.9406V38.6144Z" fill="black"/>
<path d="M38.9406 36.8492H37.175V38.6144H38.9406V36.8492Z" fill="black"/>
<path d="M38.9406 35.0832H37.175V36.8492H38.9406V35.0832Z" fill="black"/>
<path d="M38.9406 33.3344H37.175V35.0832H38.9406V33.3344Z" fill="black"/>
<path d="M38.9406 31.5684H37.175V33.3344H38.9406V31.5684Z" fill="black"/>
<path d="M38.9406 28.0543H37.175V29.8199H38.9406V28.0543Z" fill="black"/>
<path d="M37.174 75.5278H35.4249V77.2934H37.174V75.5278Z" fill="black"/>
<path d="M37.175 59.7018H35.4249V61.4674H37.175V59.7018Z" fill="black"/>
<path d="M37.175 49.1578H35.4249V50.9234H37.175V49.1578Z" fill="black"/>
<path d="M37.175 28.0543H35.4249V29.8199H37.175V28.0543Z" fill="black"/>
<path d="M35.4249 73.7764H33.6593V75.5254H35.4249V73.7764Z" fill="black"/>
<path d="M35.4249 68.499H33.6593V70.2645H35.4249V68.499Z" fill="black"/>
<path d="M35.4249 66.7501H33.6593V68.499H35.4249V66.7501Z" fill="black"/>
<path d="M35.4249 64.9844H33.6593V66.7501H35.4249V64.9844Z" fill="black"/>
<path d="M35.4249 63.2192H33.6593V64.9844H35.4249V63.2192Z" fill="black"/>
<path d="M35.4249 61.4698H33.6593V63.2192H35.4249V61.4698Z" fill="black"/>
<path d="M35.4249 59.7018H33.6593V61.4674H35.4249V59.7018Z" fill="black"/>
<path d="M35.4249 49.1578H33.6593V50.9234H35.4249V49.1578Z" fill="black"/>
<path d="M35.4249 47.3924H33.6593V49.1578H35.4249L35.4249 47.3924Z" fill="black"/>
<path d="M35.4249 45.6432H33.6593V47.3924H35.4249V45.6432Z" fill="black"/>
<path d="M35.4249 43.8779H33.6593V45.6432H35.4249V43.8779Z" fill="black"/>
<path d="M35.4249 42.129H33.6593V43.8779H35.4249V42.129Z" fill="black"/>
<path d="M35.4249 40.3635H33.6593V42.129H35.4249V40.3635Z" fill="black"/>
<path d="M35.4249 38.6144H33.6593V40.3635H35.4249V38.6144Z" fill="black"/>
<path d="M35.4249 36.8492H33.6593V38.6144H35.4249V36.8492Z" fill="black"/>
<path d="M35.4249 35.0832H33.6593V36.8492H35.4249V35.0832Z" fill="black"/>
<path d="M35.4249 33.3344H33.6593V35.0832H35.4249V33.3344Z" fill="black"/>
<path d="M35.4249 31.5684H33.6593V33.3344H35.4249V31.5684Z" fill="black"/>
<path d="M35.4249 28.0543H33.6593V29.8199H35.4249V28.0543Z" fill="black"/>
<path d="M33.6606 72.0135H31.9115V73.779H33.6606V72.0135Z" fill="black"/>
<path d="M33.6606 70.2644H31.9115V72.0135H33.6606V70.2644Z" fill="black"/>
<path d="M33.6606 57.9558H31.9115V59.7048H33.6606V57.9558Z" fill="black"/>
<path d="M33.6606 56.187H31.9115V57.9525H33.6606V56.187Z" fill="black"/>
<path d="M33.6606 54.4409H31.9115V56.1899H33.6606V54.4409Z" fill="black"/>
<path d="M33.6606 52.6727H31.9115V54.4382H33.6606V52.6727Z" fill="black"/>
<path d="M33.6606 50.9264H31.9115V52.6754H33.6606V50.9264Z" fill="black"/>
<path d="M33.6606 40.3635H31.9115V42.1291H33.6606V40.3635Z" fill="black"/>
<path d="M33.6606 35.0832H31.9115V36.8487H33.6606V35.0832Z" fill="black"/>
<path d="M33.6606 29.8198H31.9115V31.5688H33.6606V29.8198Z" fill="black"/>
<path d="M31.9115 40.3635H30.1469V42.1291H31.9115V40.3635Z" fill="black"/>
<path d="M31.9115 35.0832H30.1469V36.8487H31.9115V35.0832Z" fill="black"/>
<path d="M30.1449 42.129H28.3958V43.878H30.1449V42.129Z" fill="black"/>
<path d="M30.1449 33.3344H28.3958V35.0834H30.1449V33.3344Z" fill="black"/>
<path d="M28.3968 45.6432H26.6312V47.3922H28.3968V45.6432Z" fill="black"/>
<path d="M28.3958 43.878L26.6312 43.8779V45.6432H28.3968L28.3958 43.878Z" fill="black"/>
<path d="M28.3968 31.5684H26.6312V33.3339H28.3968V31.5684Z" fill="black"/>
<path d="M28.3968 29.8198H26.6312V31.5684H28.3968V29.8198Z" fill="black"/>
</svg>
