<svg width="105" height="105" viewBox="0 0 105 105" fill="none" xmlns="http://www.w3.org/2000/svg">
<path d="M52.5002 4.73279C78.8829 4.73297 100.267 26.1202 100.267 52.5004C100.267 78.8803 78.8802 100.267 52.5002 100.267C26.1201 100.267 4.73284 78.8804 4.73267 52.5004C4.73267 26.1201 26.1174 4.73279 52.5002 4.73279Z" fill="#F9F7E7" stroke="#29100A" stroke-width="2"/>
<path d="M77.8601 70.9302H75.999V72.7913H77.8601V70.9302Z" fill="black"/>
<path d="M77.8601 69.048H75.999V70.9275H77.8601V69.048Z" fill="black"/>
<path d="M75.9938 74.6733H74.1143V76.5345H75.9938V74.6733Z" fill="black"/>
<path d="M75.9938 72.7938H74.1143V74.6733H75.9938V72.7938Z" fill="black"/>
<path d="M75.9938 70.9302H74.1143V72.7913H75.9938V70.9302Z" fill="#FF5290"/>
<path d="M75.9938 69.048H74.1143V70.9275H75.9938V69.048Z" fill="#FF5290"/>
<path d="M75.9938 67.1869H74.1143V69.048H75.9938V67.1869Z" fill="black"/>
<path d="M74.1144 76.5371H72.2349V78.4166H74.1144V76.5371Z" fill="black"/>
<path d="M74.1143 74.6733H72.2349V76.5345H74.1143V74.6733Z" fill="#FF5290"/>
<path d="M74.1143 72.7938H72.2349V74.6733H74.1143V72.7938Z" fill="#FF5290"/>
<path d="M74.1143 70.9302H72.2349V72.7913H74.1143V70.9302Z" fill="#FF5290"/>
<path d="M74.1143 69.048H72.2349V70.9275H74.1143V69.048Z" fill="#FF5290"/>
<path d="M74.1143 67.1869H72.2349V69.048H74.1143V67.1869Z" fill="black"/>
<path d="M72.2349 76.5371H70.3735V78.4166H72.2349V76.5371Z" fill="black"/>
<path d="M72.2349 74.6733H70.3735V76.5345H72.2349V74.6733Z" fill="#FF5290"/>
<path d="M72.2349 72.7938H70.3735V74.6733H72.2349V72.7938Z" fill="#FF5A8D"/>
<path d="M72.2349 70.9302H70.3735V72.7913H72.2349V70.9302Z" fill="#FF5A8D"/>
<path d="M72.2349 69.048H70.3735V70.9275H72.2349V69.048Z" fill="#FF5290"/>
<path d="M72.2349 67.1869H70.3735V69.048H72.2349V67.1869Z" fill="black"/>
<path d="M72.2347 33.4556H70.3735V35.3351H72.2347V33.4556Z" fill="black"/>
<path d="M72.2347 29.7124H70.3735V31.5919H72.2347V29.7124Z" fill="black"/>
<path d="M70.3709 78.4166H68.4915V80.2961H70.3709V78.4166Z" fill="black"/>
<path d="M70.3709 76.5371H68.4915V78.4166H70.3709V76.5371Z" fill="#FF5290"/>
<path d="M70.3709 74.6733H68.4915V76.5345H70.3709V74.6733Z" fill="#FF5A8D"/>
<path d="M70.3709 72.7938H68.4915V74.6733H70.3709V72.7938Z" fill="#FF5A8D"/>
<path d="M70.3709 70.9302H68.4915V72.7913H70.3709V70.9302Z" fill="#FF5A8D"/>
<path d="M70.3709 69.048H68.4915V70.9275H70.3709V69.048Z" fill="#FF5290"/>
<path d="M70.3709 67.1869H68.4915V69.048H70.3709V67.1869Z" fill="black"/>
<path d="M70.3709 44.7064H68.4915V46.5675H70.3709V44.7064Z" fill="black"/>
<path d="M70.3709 42.8242H68.4915V44.7037H70.3709V42.8242Z" fill="black"/>
<path d="M70.3709 35.3378H68.4915V37.2173H70.3709V35.3378Z" fill="black"/>
<path d="M70.3709 33.4556H68.4915V35.3351H70.3709V33.4556Z" fill="#CCBE58"/>
<path d="M70.3709 31.5945H68.4915V33.4556H70.3709V31.5945Z" fill="black"/>
<path d="M70.3709 29.7124H68.4915V31.5919H70.3709V29.7124Z" fill="#CCBE58"/>
<path d="M70.3709 27.8512H68.4915V29.7124H70.3709V27.8512Z" fill="black"/>
<path d="M68.4888 82.1625H66.6277V84.042H68.4888V82.1625Z" fill="black"/>
<path d="M68.4888 80.2987H66.6277V82.1598H68.4888V80.2987Z" fill="black"/>
<path d="M68.4888 78.4166H66.6277V80.2961H68.4888V78.4166Z" fill="#FF5A8D"/>
<path d="M68.4888 76.5371H66.6277V78.4166H68.4888V76.5371Z" fill="#FF5A8D"/>
<path d="M68.4888 74.6733H66.6277V76.5345H68.4888V74.6733Z" fill="#FF5A8D"/>
<path d="M68.4888 72.7938H66.6277V74.6733H68.4888V72.7938Z" fill="#FF5A8D"/>
<path d="M68.4888 70.9302H66.6277V72.7913H68.4888V70.9302Z" fill="#FF5A8D"/>
<path d="M68.4888 69.048H66.6277V70.9275H68.4888V69.048Z" fill="#FF5A8D"/>
<path d="M68.4888 67.1869H66.6277V69.048H68.4888V67.1869Z" fill="black"/>
<path d="M68.4888 46.5701H66.6277V48.4496H68.4888V46.5701Z" fill="black"/>
<path d="M68.4888 44.7064H66.6277V46.5675H68.4888V44.7064Z" fill="#FF5290"/>
<path d="M68.4888 42.8242H66.6277V44.7037H68.4888V42.8242Z" fill="#FF5290"/>
<path d="M68.4888 40.9631H66.6277V42.8242H68.4888V40.9631Z" fill="black"/>
<path d="M68.4888 35.3378H66.6277V37.2173H68.4888V35.3378Z" fill="black"/>
<path d="M68.4888 33.4556H66.6277V35.3351H68.4888V33.4556Z" fill="#CCBE58"/>
<path d="M68.4888 31.5945H66.6277V33.4556H68.4888V31.5945Z" fill="#CCBB69"/>
<path d="M68.4888 29.7124H66.6277V31.5919H68.4888V29.7124Z" fill="#CCBE58"/>
<path d="M68.4888 27.8512H66.6277V29.7124H68.4888V27.8512Z" fill="#CCBE58"/>
<path d="M68.4888 25.9691H66.6277V27.8486H68.4888V25.9691Z" fill="black"/>
<path d="M66.6277 84.042L64.7483 84.042V85.9031H66.6278L66.6277 84.042Z" fill="black"/>
<path d="M66.6277 82.1625H64.7483V84.042L66.6277 84.042V82.1625Z" fill="#FF5290"/>
<path d="M66.6277 80.2987H64.7483V82.1598H66.6277V80.2987Z" fill="#FF5290"/>
<path d="M66.6277 78.4166H64.7483V80.2961H66.6277V78.4166Z" fill="#FF5A8D"/>
<path d="M66.6277 76.5371H64.7483V78.4166H66.6277V76.5371Z" fill="#FF5A8D"/>
<path d="M66.6277 74.6733H64.7483V76.5345H66.6277V74.6733Z" fill="#FF5A8D"/>
<path d="M66.6277 72.7938H64.7483V74.6733H66.6277V72.7938Z" fill="#FF5A8D"/>
<path d="M66.6277 70.9302H64.7483V72.7913H66.6277V70.9302Z" fill="#FF5A8D"/>
<path d="M66.6277 69.048H64.7483V70.9275H66.6277V69.048Z" fill="#FF5A8D"/>
<path d="M66.6277 67.1869H64.7483V69.048H66.6277V67.1869Z" fill="black"/>
<path d="M66.6277 48.4496L64.7483 48.4496V50.3291H66.6278L66.6277 48.4496Z" fill="black"/>
<path d="M66.6277 46.5701H64.7483V48.4496L66.6277 48.4496V46.5701Z" fill="#FF5A8D"/>
<path d="M66.6277 44.7064H64.7483V46.5675H66.6277V44.7064Z" fill="#FF5A8D"/>
<path d="M66.6277 42.8242H64.7483V44.7037H66.6277V42.8242Z" fill="#FF5290"/>
<path d="M66.6277 40.9631H64.7483V42.8242H66.6277V40.9631Z" fill="black"/>
<path d="M66.6277 37.2173L64.7483 37.2173V39.0784H66.6278L66.6277 37.2173Z" fill="black"/>
<path d="M66.6277 35.3378H64.7483V37.2173L66.6277 37.2173V35.3378Z" fill="#CCBE58"/>
<path d="M66.6277 33.4556H64.7483V35.3351H66.6277V33.4556Z" fill="#DBD38B"/>
<path d="M66.6277 31.5945H64.7483V33.4556H66.6277V31.5945Z" fill="#CCBB69"/>
<path d="M66.6277 29.7124H64.7483V31.5919H66.6277V29.7124Z" fill="#CCBB69"/>
<path d="M66.6277 27.8512H64.7483V29.7124H66.6277V27.8512Z" fill="#CCBE58"/>
<path d="M66.6277 25.9691H64.7483V27.8486H66.6277V25.9691Z" fill="#CCBE58"/>
<path d="M66.6278 24.1053H64.7483V25.9665H66.6278V24.1053Z" fill="black"/>
<path d="M64.7456 84.042H62.8845V85.9031H64.7456V84.042Z" fill="black"/>
<path d="M64.7456 82.1625H62.8845V84.042H64.7456V82.1625Z" fill="#FF5290"/>
<path d="M64.7456 80.2987H62.8845V82.1598H64.7456V80.2987Z" fill="#FF749A"/>
<path d="M64.7456 78.4166H62.8845V80.2961H64.7456V78.4166Z" fill="#FF749A"/>
<path d="M64.7456 76.5371H62.8845V78.4166H64.7456V76.5371Z" fill="#FF5A8D"/>
<path d="M64.7456 74.6733H62.8845V76.5345H64.7456V74.6733Z" fill="#FF5A8D"/>
<path d="M64.7456 72.7938H62.8845V74.6733H64.7456V72.7938Z" fill="#FF5A8D"/>
<path d="M64.7456 70.9302H62.8845V72.7913H64.7456V70.9302Z" fill="#FF5A8D"/>
<path d="M64.7456 69.048H62.8845V70.9275H64.7456V69.048Z" fill="#FF5A8D"/>
<path d="M64.7456 67.1869H62.8845V69.048H64.7456V67.1869Z" fill="black"/>
<path d="M64.7456 48.4496H62.8845V50.3291H64.7456V48.4496Z" fill="black"/>
<path d="M64.7456 46.5701H62.8845V48.4496H64.7456V46.5701Z" fill="#FF5A8D"/>
<path d="M64.7456 44.7064H62.8845V46.5675H64.7456V44.7064Z" fill="#FF749A"/>
<path d="M64.7456 42.8242H62.8845V44.7037H64.7456V42.8242Z" fill="#FF5A8D"/>
<path d="M64.7456 40.9631H62.8845V42.8242H64.7456V40.9631Z" fill="black"/>
<path d="M64.7456 39.0811H62.8845V40.9606H64.7456V39.0811Z" fill="black"/>
<path d="M64.7456 37.2173H62.8845V39.0784H64.7456V37.2173Z" fill="#CCBE58"/>
<path d="M64.7456 35.3378H62.8845V37.2173H64.7456V35.3378Z" fill="#DBD38B"/>
<path d="M64.7456 33.4556H62.8845V35.3351H64.7456V33.4556Z" fill="#DBD38B"/>
<path d="M64.7456 31.5945H62.8845V33.4556H64.7456V31.5945Z" fill="#DBD38B"/>
<path d="M64.7456 29.7124H62.8845V31.5919H64.7456V29.7124Z" fill="#CCBB69"/>
<path d="M64.7456 27.8512H62.8845V29.7124H64.7456V27.8512Z" fill="#CCBB69"/>
<path d="M64.7456 25.9691H62.8845V27.8486H64.7456V25.9691Z" fill="#CCBE58"/>
<path d="M64.7456 24.1053H62.8845V25.9665H64.7456V24.1053Z" fill="black"/>
<path d="M62.8845 84.042H61.0049V85.9031H62.8845V84.042Z" fill="black"/>
<path d="M62.8845 82.1625H61.0049V84.042H62.8845V82.1625Z" fill="#FF5A8D"/>
<path d="M62.8845 80.2987H61.0049V82.1598H62.8845V80.2987Z" fill="#FF749A"/>
<path d="M62.8845 78.4166H61.0049V80.2961H62.8845V78.4166Z" fill="#FF749A"/>
<path d="M62.8845 76.5371H61.0049V78.4166H62.8845V76.5371Z" fill="#FF749A"/>
<path d="M62.8845 74.6733H61.0049V76.5345H62.8845V74.6733Z" fill="#FF5A8D"/>
<path d="M62.8845 72.7938H61.0049V74.6733H62.8845V72.7938Z" fill="#FF5A8D"/>
<path d="M62.8845 70.9302H61.0049V72.7913H62.8845V70.9302Z" fill="#FF5A8D"/>
<path d="M62.8845 69.048H61.0049V70.9275H62.8845V69.048Z" fill="black"/>
<path d="M62.8845 46.5701H61.0049V48.4496L62.8845 48.4496V46.5701Z" fill="black"/>
<path d="M62.8845 44.7064H61.0049V46.5675H62.8845V44.7064Z" fill="#FF749A"/>
<path d="M62.8845 42.8242H61.0049V44.7037H62.8845V42.8242Z" fill="#FF5A8D"/>
<path d="M62.8845 40.9631H61.0049V42.8242H62.8845V40.9631Z" fill="black"/>
<path d="M62.8845 39.0811H61.0049V40.9606H62.8845V39.0811Z" fill="#FF5290"/>
<path d="M62.8845 37.2173H61.0049V39.0784H62.8845V37.2173Z" fill="#FF5290"/>
<path d="M62.8845 35.3378H61.0049V37.2173H62.8845V35.3378Z" fill="#DBD38B"/>
<path d="M62.8845 33.4556H61.0049V35.3351H62.8845V33.4556Z" fill="#DBD38B"/>
<path d="M62.8845 31.5945H61.0049V33.4556H62.8845V31.5945Z" fill="#DBD38B"/>
<path d="M62.8845 29.7124H61.0049V31.5919H62.8845V29.7124Z" fill="#DBD38B"/>
<path d="M62.8845 27.8512H61.0049V29.7124H62.8845V27.8512Z" fill="#CCBB69"/>
<path d="M62.8845 25.9691H61.0049V27.8486H62.8845V25.9691Z" fill="#CCBE58"/>
<path d="M62.8845 24.1053H61.0049V25.9665H62.8845V24.1053Z" fill="black"/>
<path d="M61.0023 85.9058H59.1228V87.7853H61.0023V85.9058Z" fill="black"/>
<path d="M61.0023 84.042H59.1228V85.9031H61.0023V84.042Z" fill="#FF5290"/>
<path d="M61.0023 82.1625H59.1228V84.042H61.0023V82.1625Z" fill="#FF749A"/>
<path d="M61.0023 80.2987H59.1228V82.1598H61.0023V80.2987Z" fill="#FF749A"/>
<path d="M61.0023 78.4166H59.1228V80.2961H61.0023V78.4166Z" fill="#FF749A"/>
<path d="M61.0023 76.5371H59.1228V78.4166H61.0023V76.5371Z" fill="#FF749A"/>
<path d="M61.0023 74.6733H59.1228V76.5345H61.0023V74.6733Z" fill="#FF749A"/>
<path d="M61.0023 72.7938H59.1228V74.6733H61.0023V72.7938Z" fill="#FF5A8D"/>
<path d="M61.0023 70.9302H59.1228V72.7913H61.0023V70.9302Z" fill="black"/>
<path d="M61.0023 48.4496H59.1228V50.3291H61.0023V48.4496Z" fill="black"/>
<path d="M61.0023 46.5701H59.1228V48.4496H61.0023V46.5701Z" fill="#FF749A"/>
<path d="M61.0023 44.7064H59.1228V46.5675H61.0023V44.7064Z" fill="#FF749A"/>
<path d="M61.0023 42.8242H59.1228V44.7037H61.0023V42.8242Z" fill="#FF749A"/>
<path d="M61.0023 40.9631H59.1228V42.8242H61.0023V40.9631Z" fill="#FF5A8D"/>
<path d="M61.0023 39.0811H59.1228V40.9606H61.0023V39.0811Z" fill="#FF5A8D"/>
<path d="M61.0023 37.2173H59.1228V39.0784H61.0023V37.2173Z" fill="#FF5290"/>
<path d="M61.0023 35.3378H59.1228V37.2173H61.0023V35.3378Z" fill="#DBD38B"/>
<path d="M61.0023 33.4556H59.1228V35.3351H61.0023V33.4556Z" fill="#DBD38B"/>
<path d="M61.0023 31.5945H59.1228V33.4556H61.0023V31.5945Z" fill="#DBD38B"/>
<path d="M61.0023 29.7124H59.1228V31.5919H61.0023V29.7124Z" fill="#DBD38B"/>
<path d="M61.0023 27.8512H59.1228V29.7124H61.0023V27.8512Z" fill="#CCBB69"/>
<path d="M61.0023 25.9691H59.1228V27.8486H61.0023V25.9691Z" fill="#CCBE58"/>
<path d="M61.0023 24.1053H59.1228V25.9665H61.0023V24.1053Z" fill="black"/>
<path d="M59.1202 85.9058H57.259V87.7853H59.1202V85.9058Z" fill="black"/>
<path d="M59.1202 84.042H57.259V85.9031H59.1202V84.042Z" fill="#FF5290"/>
<path d="M59.1202 82.1625H57.259V84.042H59.1202V82.1625Z" fill="#FF749A"/>
<path d="M59.1202 80.2987H57.259V82.1598H59.1202V80.2987Z" fill="#FF749A"/>
<path d="M59.1202 78.4166H57.259V80.2961H59.1202V78.4166Z" fill="#FF749A"/>
<path d="M59.1202 76.5371H57.259V78.4166H59.1202V76.5371Z" fill="#FF749A"/>
<path d="M59.1202 74.6733H57.259V76.5345H59.1202V74.6733Z" fill="#FF749A"/>
<path d="M59.1202 72.7938H57.259V74.6733H59.1202V72.7938Z" fill="#FF5A8D"/>
<path d="M59.1202 70.9302H57.259V72.7913H59.1202V70.9302Z" fill="black"/>
<path d="M59.1202 59.682H57.259V61.5615H59.1202V59.682Z" fill="black"/>
<path d="M59.1202 57.8182H57.259V59.6794H59.1202V57.8182Z" fill="black"/>
<path d="M59.1202 55.9362H57.259V57.8157H59.1202V55.9362Z" fill="black"/>
<path d="M59.1202 54.075H57.259V55.9362H59.1202V54.075Z" fill="black"/>
<path d="M59.1202 48.4496H57.259V50.3291H59.1202V48.4496Z" fill="black"/>
<path d="M59.1202 46.5701H57.259V48.4496H59.1202V46.5701Z" fill="#FF749A"/>
<path d="M59.1202 44.7064H57.259V46.5675H59.1202V44.7064Z" fill="#FF749A"/>
<path d="M59.1202 42.8242H57.259V44.7037H59.1202V42.8242Z" fill="#FF749A"/>
<path d="M59.1202 40.9631H57.259V42.8242H59.1202V40.9631Z" fill="#FF749A"/>
<path d="M59.1202 39.0811H57.259V40.9606H59.1202V39.0811Z" fill="#FF5A8D"/>
<path d="M59.1202 37.2173H57.259V39.0784H59.1202V37.2173Z" fill="#FF5A8D"/>
<path d="M59.1202 35.3378H57.259V37.2173H59.1202V35.3378Z" fill="#DBD38B"/>
<path d="M59.1202 33.4556H57.259V35.3351H59.1202V33.4556Z" fill="#DBD38B"/>
<path d="M59.1202 31.5945H57.259V33.4556H59.1202V31.5945Z" fill="#DBD38B"/>
<path d="M59.1202 29.7124H57.259V31.5919H59.1202V29.7124Z" fill="#DBD38B"/>
<path d="M59.1202 27.8512H57.259V29.7124H59.1202V27.8512Z" fill="#DBD38B"/>
<path d="M59.1202 25.9691H57.259V27.8486H59.1202V25.9691Z" fill="#CCBB69"/>
<path d="M59.1202 24.1053H57.259V25.9665H59.1202V24.1053Z" fill="black"/>
<path d="M57.259 85.9058H55.3796V87.7853H57.259V85.9058Z" fill="black"/>
<path d="M57.259 84.042H55.3796V85.9031H57.259V84.042Z" fill="#FF5A8D"/>
<path d="M57.259 82.1625H55.3796V84.042H57.259V82.1625Z" fill="#FF749A"/>
<path d="M57.259 80.2987H55.3796V82.1598H57.259V80.2987Z" fill="#FF749A"/>
<path d="M57.259 78.4166H55.3796V80.2961H57.259V78.4166Z" fill="#FF749A"/>
<path d="M57.259 76.5371H55.3796V78.4166H57.259V76.5371Z" fill="#FF749A"/>
<path d="M57.259 74.6733H55.3796V76.5345H57.259V74.6733Z" fill="#FF749A"/>
<path d="M57.259 72.7938H55.3796V74.6733H57.259V72.7938Z" fill="#FF5A8D"/>
<path d="M57.259 70.9302H55.3796V72.7913H57.259V70.9302Z" fill="black"/>
<path d="M57.2591 69.048H55.3796V70.9275H57.2591V69.048Z" fill="black"/>
<path d="M57.2591 67.1869H55.3796V69.048H57.2591V67.1869Z" fill="black"/>
<path d="M57.2591 65.3074H55.3796V67.1869H57.2591V65.3074Z" fill="black"/>
<path d="M57.2591 63.4226H55.3796V65.3021H57.2591V63.4226Z" fill="black"/>
<path d="M57.259 61.5615L55.3796 61.5615V63.4226H57.2591L57.259 61.5615Z" fill="black"/>
<path d="M57.259 59.682H55.3796V61.5615L57.259 61.5615V59.682Z" fill="#FF5A8D"/>
<path d="M57.259 57.8182H55.3796V59.6794H57.259V57.8182Z" fill="#FF5A8D"/>
<path d="M57.259 55.9362H55.3796V57.8157H57.259V55.9362Z" fill="#FF5A8D"/>
<path d="M57.259 54.075H55.3796V55.9362H57.259V54.075Z" fill="#FF5290"/>
<path d="M57.2591 52.1956H55.3796V54.075H57.259L57.2591 52.1956Z" fill="black"/>
<path d="M57.259 50.3291L55.3796 50.3291V52.1902H57.2591L57.259 50.3291Z" fill="black"/>
<path d="M57.259 48.4496H55.3796V50.3291L57.259 50.3291V48.4496Z" fill="black"/>
<path d="M57.259 46.5701H55.3796V48.4496H57.259V46.5701Z" fill="#FF749A"/>
<path d="M57.259 44.7064H55.3796V46.5675H57.259V44.7064Z" fill="#FF749A"/>
<path d="M57.259 42.8242H55.3796V44.7037H57.259V42.8242Z" fill="#FF749A"/>
<path d="M57.259 40.9631H55.3796V42.8242H57.259V40.9631Z" fill="#FF5A8D"/>
<path d="M57.259 39.0811H55.3796V40.9606H57.259V39.0811Z" fill="#FF5A8D"/>
<path d="M57.259 37.2173H55.3796V39.0784H57.259V37.2173Z" fill="black"/>
<path d="M57.259 35.3378H55.3796V37.2173H57.259V35.3378Z" fill="black"/>
<path d="M57.259 33.4556H55.3796V35.3351H57.259V33.4556Z" fill="#EF997B"/>
<path d="M57.259 31.5945H55.3796V33.4556H57.259V31.5945Z" fill="#DBD38B"/>
<path d="M57.259 29.7124H55.3796V31.5919H57.259V29.7124Z" fill="#DBD38B"/>
<path d="M57.259 27.8512H55.3796V29.7124H57.259V27.8512Z" fill="#DBD38B"/>
<path d="M57.259 25.9691H55.3796V27.8486H57.259V25.9691Z" fill="#CCBB69"/>
<path d="M57.259 24.1053H55.3796V25.9665H57.259V24.1053Z" fill="black"/>
<path d="M55.377 85.9058H53.5159V87.7853H55.377V85.9058Z" fill="black"/>
<path d="M55.377 84.042H53.5159V85.9031H55.377V84.042Z" fill="#FF749A"/>
<path d="M55.377 82.1625H53.5159V84.042H55.377V82.1625Z" fill="#FF749A"/>
<path d="M55.377 80.2987H53.5159V82.1598H55.377V80.2987Z" fill="#FF749A"/>
<path d="M55.377 78.4166H53.5159V80.2961H55.377V78.4166Z" fill="#FF749A"/>
<path d="M55.377 76.5371H53.5159V78.4166H55.377V76.5371Z" fill="#FF749A"/>
<path d="M55.377 74.6733H53.5159V76.5345H55.377V74.6733Z" fill="#FF749A"/>
<path d="M55.377 72.7938H53.5159V74.6733H55.377V72.7938Z" fill="#FF749A"/>
<path d="M55.377 70.9302H53.5159V72.7913H55.377V70.9302Z" fill="#FF5A8D"/>
<path d="M55.377 69.048H53.5159V70.9275H55.377V69.048Z" fill="#FF5A8D"/>
<path d="M55.377 67.1869H53.5159V69.048H55.377V67.1869Z" fill="#FF5A8D"/>
<path d="M55.377 65.3074H53.5159V67.1869H55.377V65.3074Z" fill="#FF5A8D"/>
<path d="M55.377 63.4226H53.5159V65.3021H55.377V63.4226Z" fill="#FF5A8D"/>
<path d="M55.377 61.5615H53.5159V63.4226H55.377V61.5615Z" fill="#FF5A8D"/>
<path d="M55.377 59.682H53.5159V61.5615H55.377V59.682Z" fill="#FF749A"/>
<path d="M55.377 57.8182H53.5159V59.6794H55.377V57.8182Z" fill="#FF749A"/>
<path d="M55.377 55.9362H53.5159V57.8157H55.377V55.9362Z" fill="#FF5A8D"/>
<path d="M55.377 54.075H53.5159V55.9362H55.377V54.075Z" fill="#FF5290"/>
<path d="M55.377 52.1956H53.5159V54.075H55.377V52.1956Z" fill="#FF5290"/>
<path d="M55.377 50.3291H53.5159V52.1902H55.377V50.3291Z" fill="#72512D"/>
<path d="M55.377 48.4496H53.5159V50.3291H55.377V48.4496Z" fill="#72512D"/>
<path d="M55.377 46.5701H53.5159V48.4496H55.377V46.5701Z" fill="#FF749A"/>
<path d="M55.377 44.7064H53.5159V46.5675H55.377V44.7064Z" fill="#FF749A"/>
<path d="M55.377 42.8242H53.5159V44.7037H55.377V42.8242Z" fill="#FF5A8D"/>
<path d="M55.377 40.9631H53.5159V42.8242H55.377V40.9631Z" fill="#EF997B"/>
<path d="M55.377 39.0811H53.5159V40.9606H55.377V39.0811Z" fill="#EF997B"/>
<path d="M55.377 37.2173H53.5159V39.0784H55.377V37.2173Z" fill="#EF997B"/>
<path d="M55.377 35.3378H53.5159V37.2173H55.377V35.3378Z" fill="#EF997B"/>
<path d="M55.377 33.4556H53.5159V35.3351H55.377V33.4556Z" fill="#EF997B"/>
<path d="M55.377 31.5945H53.5159V33.4556H55.377V31.5945Z" fill="#EF997B"/>
<path d="M55.377 29.7124H53.5159V31.5919H55.377V29.7124Z" fill="#DBD38B"/>
<path d="M55.377 27.8512H53.5159V29.7124H55.377V27.8512Z" fill="#DBD38B"/>
<path d="M55.377 25.9691H53.5159V27.8486H55.377V25.9691Z" fill="#DBD38B"/>
<path d="M55.377 24.1053H53.5159V25.9665H55.377V24.1053Z" fill="black"/>
<path d="M53.5133 85.9058H51.6338V87.7853H53.5133V85.9058Z" fill="black"/>
<path d="M53.5133 84.042H51.6338V85.9031H53.5133V84.042Z" fill="#FF5A8D"/>
<path d="M53.5133 82.1625H51.6338V84.042H53.5133V82.1625Z" fill="#FF749A"/>
<path d="M53.5133 80.2987H51.6338V82.1598H53.5133V80.2987Z" fill="#FF749A"/>
<path d="M53.5133 78.4166H51.6338V80.2961H53.5133V78.4166Z" fill="#FF749A"/>
<path d="M53.5133 76.5371H51.6338V78.4166H53.5133V76.5371Z" fill="#FF749A"/>
<path d="M53.5133 74.6733H51.6338V76.5345H53.5133V74.6733Z" fill="#FF749A"/>
<path d="M53.5133 72.7938H51.6338V74.6733H53.5133V72.7938Z" fill="#FF749A"/>
<path d="M53.5133 70.9302H51.6338V72.7913H53.5133V70.9302Z" fill="#FF749A"/>
<path d="M53.5133 69.048H51.6338V70.9275H53.5133V69.048Z" fill="#FF749A"/>
<path d="M53.5133 67.1869H51.6338V69.048H53.5133V67.1869Z" fill="#FF749A"/>
<path d="M53.5133 65.3074H51.6338V67.1869H53.5133V65.3074Z" fill="#FF749A"/>
<path d="M53.5133 63.4226H51.6338V65.3021H53.5133V63.4226Z" fill="#FF749A"/>
<path d="M53.5133 61.5615H51.6338V63.4226H53.5133V61.5615Z" fill="#FF749A"/>
<path d="M53.5133 59.682H51.6338V61.5615H53.5133V59.682Z" fill="#FF749A"/>
<path d="M53.5133 57.8182H51.6338V59.6794H53.5133V57.8182Z" fill="#FF749A"/>
<path d="M53.5133 55.9362H51.6338V57.8157H53.5133V55.9362Z" fill="#FF749A"/>
<path d="M53.5133 54.075H51.6338V55.9362H53.5133V54.075Z" fill="#FF5A8D"/>
<path d="M53.5133 52.1956H51.6338V54.075H53.5133V52.1956Z" fill="#FF5A8D"/>
<path d="M53.5133 50.3291H51.6338V52.1902H53.5133V50.3291Z" fill="#7A5A34"/>
<path d="M53.5133 48.4496H51.6338V50.3291H53.5133V48.4496Z" fill="#72512D"/>
<path d="M53.5133 46.5701H51.6338V48.4496H53.5133V46.5701Z" fill="#FF749A"/>
<path d="M53.5133 44.7064H51.6338V46.5675H53.5133V44.7064Z" fill="#FF5A8D"/>
<path d="M53.5133 42.8242H51.6338V44.7037H53.5133V42.8242Z" fill="#FF5A8D"/>
<path d="M53.5133 40.9631H51.6338V42.8242H53.5133V40.9631Z" fill="#EF997B"/>
<path d="M53.5133 39.0811H51.6338V40.9606H53.5133V39.0811Z" fill="#EF997B"/>
<path d="M53.5133 37.2173H51.6338V39.0784H53.5133V37.2173Z" fill="#EF997B"/>
<path d="M53.5133 35.3378H51.6338V37.2173H53.5133V35.3378Z" fill="#EF997B"/>
<path d="M53.5133 33.4556H51.6338V35.3351H53.5133V33.4556Z" fill="#C6C4C6"/>
<path d="M53.5133 31.5945H51.6338V33.4556H53.5133V31.5945Z" fill="#EF997B"/>
<path d="M53.5133 29.7124H51.6338V31.5919H53.5133V29.7124Z" fill="#DBD38B"/>
<path d="M53.5133 27.8512H51.6338V29.7124H53.5133V27.8512Z" fill="#DBD38B"/>
<path d="M53.5133 25.9691H51.6338V27.8486H53.5133V25.9691Z" fill="#DBD38B"/>
<path d="M53.5133 24.1053H51.6338V25.9665H53.5133V24.1053Z" fill="black"/>
<path d="M51.6338 85.9058H49.7727V87.7853H51.6338V85.9058Z" fill="black"/>
<path d="M51.6338 84.042H49.7727V85.9031H51.6338V84.042Z" fill="#FF5A8D"/>
<path d="M51.6338 82.1625H49.7727V84.042H51.6338V82.1625Z" fill="#FF5A8D"/>
<path d="M51.6338 80.2987H49.7727V82.1598H51.6338V80.2987Z" fill="#FF749A"/>
<path d="M51.6338 78.4166H49.7727V80.2961H51.6338V78.4166Z" fill="#FF749A"/>
<path d="M51.6338 76.5371H49.7727V78.4166H51.6338V76.5371Z" fill="#FF749A"/>
<path d="M51.6338 74.6733H49.7727V76.5345H51.6338V74.6733Z" fill="#FF749A"/>
<path d="M51.6338 72.7938H49.7727V74.6733H51.6338V72.7938Z" fill="#FF749A"/>
<path d="M51.6338 70.9302H49.7727V72.7913H51.6338V70.9302Z" fill="#FF749A"/>
<path d="M51.6338 69.048H49.7727V70.9275H51.6338V69.048Z" fill="#FF749A"/>
<path d="M51.6338 67.1869H49.7727V69.048H51.6338V67.1869Z" fill="#FF749A"/>
<path d="M51.6338 65.3074H49.7727V67.1869H51.6338V65.3074Z" fill="#FF749A"/>
<path d="M51.6338 63.4226H49.7727V65.3021H51.6338V63.4226Z" fill="#FF749A"/>
<path d="M51.6338 61.5615H49.7727V63.4226H51.6338V61.5615Z" fill="#FF749A"/>
<path d="M51.6338 59.682H49.7727V61.5615H51.6338V59.682Z" fill="#FF749A"/>
<path d="M51.6338 57.8182H49.7727V59.6794H51.6338V57.8182Z" fill="#FF749A"/>
<path d="M51.6338 55.9362H49.7727V57.8157H51.6338V55.9362Z" fill="#FF749A"/>
<path d="M51.6338 54.075H49.7727V55.9362H51.6338V54.075Z" fill="#FF749A"/>
<path d="M51.6338 52.1956H49.7727V54.075H51.6338V52.1956Z" fill="#FF5A8D"/>
<path d="M51.6338 50.3291H49.7727V52.1902H51.6338V50.3291Z" fill="#7A5A34"/>
<path d="M51.6338 48.4496H49.7727V50.3291H51.6338V48.4496Z" fill="#7A5A34"/>
<path d="M51.6338 46.5701H49.7727V48.4496H51.6338V46.5701Z" fill="#FF5A8D"/>
<path d="M51.6338 44.7064H49.7727V46.5675H51.6338V44.7064Z" fill="#EF997B"/>
<path d="M51.6338 42.8242H49.7727V44.7037H51.6338V42.8242Z" fill="#FF749A"/>
<path d="M51.6338 40.9631H49.7727V42.8242H51.6338V40.9631Z" fill="#EF997B"/>
<path d="M51.6338 39.0811H49.7727V40.9606H51.6338V39.0811Z" fill="black"/>
<path d="M51.6338 37.2173H49.7727V39.0784H51.6338V37.2173Z" fill="#EF997B"/>
<path d="M51.6338 35.3378H49.7727V37.2173H51.6338V35.3378Z" fill="#EF997B"/>
<path d="M51.6338 33.4556H49.7727V35.3351H51.6338V33.4556Z" fill="#EF997B"/>
<path d="M51.6338 31.5945H49.7727V33.4556H51.6338V31.5945Z" fill="#EF997B"/>
<path d="M51.6338 29.7124H49.7727V31.5919H51.6338V29.7124Z" fill="#DBD38B"/>
<path d="M51.6338 27.8512H49.7727V29.7124H51.6338V27.8512Z" fill="#DBD38B"/>
<path d="M51.6338 25.9691H49.7727V27.8486H51.6338V25.9691Z" fill="#DBD38B"/>
<path d="M51.6338 24.1053H49.7727V25.9665H51.6338V24.1053Z" fill="black"/>
<path d="M49.7727 84.042H47.8931V85.9031H49.7727V84.042Z" fill="black"/>
<path d="M49.7727 82.1625H47.8931V84.042H49.7727V82.1625Z" fill="#FF5A8D"/>
<path d="M49.7727 80.2987H47.8931V82.1598H49.7727V80.2987Z" fill="#FF749A"/>
<path d="M49.7727 78.4166H47.8931V80.2961H49.7727V78.4166Z" fill="#FF749A"/>
<path d="M49.7727 76.5371H47.8931V78.4166H49.7727V76.5371Z" fill="#FF5A8D"/>
<path d="M49.7727 74.6733H47.8931V76.5345H49.7727V74.6733Z" fill="black"/>
<path d="M49.7727 72.7938H47.8931V74.6733H49.7727V72.7938Z" fill="black"/>
<path d="M49.7727 70.9302H47.8931V72.7913H49.7727V70.9302Z" fill="black"/>
<path d="M49.7727 69.048H47.8931V70.9275H49.7727V69.048Z" fill="black"/>
<path d="M49.7727 67.1869H47.8931V69.048H49.7727V67.1869Z" fill="black"/>
<path d="M49.7727 65.3074H47.8931V67.1869H49.7727V65.3074Z" fill="black"/>
<path d="M49.7727 63.4226H47.8931V65.3021H49.7727V63.4226Z" fill="#FF5A8D"/>
<path d="M49.7727 61.5615H47.8931V63.4226H49.7727V61.5615Z" fill="#FF5A8D"/>
<path d="M49.7727 59.682H47.8931V61.5615H49.7727V59.682Z" fill="#FF749A"/>
<path d="M49.7727 57.8182H47.8931V59.6794H49.7727V57.8182Z" fill="#FF749A"/>
<path d="M49.7727 55.9362H47.8931V57.8157H49.7727V55.9362Z" fill="#FF749A"/>
<path d="M49.7727 54.075H47.8931V55.9362H49.7727V54.075Z" fill="#FF749A"/>
<path d="M49.7727 52.1956H47.8931V54.075H49.7727V52.1956Z" fill="#FF5A8D"/>
<path d="M49.7727 50.3291H47.8931V52.1902H49.7727V50.3291Z" fill="#7A5A34"/>
<path d="M49.7727 48.4496H47.8931V50.3291H49.7727V48.4496Z" fill="#7A5A34"/>
<path d="M49.7727 46.5701H47.8931V48.4496H49.7727V46.5701Z" fill="#FF749A"/>
<path d="M49.7727 44.7064H47.8931V46.5675H49.7727V44.7064Z" fill="#EF997B"/>
<path d="M49.7727 42.8242H47.8931V44.7037H49.7727V42.8242Z" fill="#FF749A"/>
<path d="M49.7727 40.9631H47.8931V42.8242H49.7727V40.9631Z" fill="#FF749A"/>
<path d="M49.7727 39.0811H47.8931V40.9606H49.7727V39.0811Z" fill="black"/>
<path d="M49.7727 37.2173H47.8931V39.0784H49.7727V37.2173Z" fill="black"/>
<path d="M49.7727 35.3378H47.8931V37.2173H49.7727V35.3378Z" fill="#EF997B"/>
<path d="M49.7727 33.4556H47.8931V35.3351H49.7727V33.4556Z" fill="#C6C4C6"/>
<path d="M49.7727 31.5945H47.8931V33.4556H49.7727V31.5945Z" fill="#EF997B"/>
<path d="M49.7727 29.7124H47.8931V31.5919H49.7727V29.7124Z" fill="#DBD38B"/>
<path d="M49.7727 27.8512H47.8931V29.7124H49.7727V27.8512Z" fill="#CCBB69"/>
<path d="M49.7727 25.9691H47.8931V27.8486H49.7727V25.9691Z" fill="black"/>
<path d="M47.888 84.042H46.0269V85.9031H47.888V84.042Z" fill="black"/>
<path d="M47.888 82.1625H46.0269V84.042H47.888V82.1625Z" fill="#FF5A8D"/>
<path d="M47.888 80.2987H46.0269V82.1598H47.888V80.2987Z" fill="#FF749A"/>
<path d="M47.888 78.4166H46.0269V80.2961H47.888V78.4166Z" fill="#FF5A8D"/>
<path d="M47.888 76.5371H46.0269V78.4166H47.888V76.5371Z" fill="black"/>
<path d="M47.888 63.4226H46.0269V65.3021H47.888V63.4226Z" fill="black"/>
<path d="M47.888 61.5615H46.0269V63.4226H47.888V61.5615Z" fill="black"/>
<path d="M47.888 59.682H46.0269V61.5615H47.888V59.682Z" fill="black"/>
<path d="M47.888 57.8182H46.0269V59.6794H47.888V57.8182Z" fill="#FF749A"/>
<path d="M47.888 55.9362H46.0269V57.8157H47.888V55.9362Z" fill="#FF749A"/>
<path d="M47.888 54.075H46.0269V55.9362H47.888V54.075Z" fill="#FF749A"/>
<path d="M47.888 52.1956H46.0269V54.075H47.888V52.1956Z" fill="black"/>
<path d="M47.888 50.3291H46.0269V52.1902H47.888V50.3291Z" fill="black"/>
<path d="M47.888 48.4496H46.0269V50.3291H47.888V48.4496Z" fill="#EF997B"/>
<path d="M47.888 46.5701H46.0269V48.4496H47.888V46.5701Z" fill="black"/>
<path d="M47.888 44.7064H46.0269V46.5675H47.888V44.7064Z" fill="#EF997B"/>
<path d="M47.888 42.8242H46.0269V44.7037H47.888V42.8242Z" fill="#FF749A"/>
<path d="M47.888 40.9631H46.0269V42.8242H47.888V40.9631Z" fill="black"/>
<path d="M47.888 35.3378H46.0269V37.2173H47.888V35.3378Z" fill="black"/>
<path d="M47.888 33.4556H46.0269V35.3351H47.888V33.4556Z" fill="black"/>
<path d="M47.888 31.5945H46.0269V33.4556H47.888V31.5945Z" fill="#CCBB69"/>
<path d="M47.888 29.7124H46.0269V31.5919H47.888V29.7124Z" fill="#CCBB69"/>
<path d="M47.888 27.8512H46.0269V29.7124H47.888V27.8512Z" fill="black"/>
<path d="M46.0269 84.042H44.1472V85.9031H46.0269V84.042Z" fill="black"/>
<path d="M46.0269 82.1625H44.1472V84.042H46.0269V82.1625Z" fill="#FF5A8D"/>
<path d="M46.0269 80.2987H44.1472V82.1598H46.0269V80.2987Z" fill="#FF749A"/>
<path d="M46.0269 78.4166H44.1472V80.2961H46.0269V78.4166Z" fill="black"/>
<path d="M46.0269 57.8182H44.1472V59.6794H46.0269V57.8182Z" fill="black"/>
<path d="M46.0269 55.9362H44.1472V57.8157H46.0269V55.9362Z" fill="black"/>
<path d="M46.0269 54.075H44.1472V55.9362H46.0269V54.075Z" fill="black"/>
<path d="M46.0269 52.1956H44.1472V54.075H46.0269V52.1956Z" fill="black"/>
<path d="M46.0269 50.3291H44.1472V52.1902H46.0269V50.3291Z" fill="#EF997B"/>
<path d="M46.0269 48.4496H44.1472V50.3291H46.0269V48.4496Z" fill="#EF997B"/>
<path d="M46.0269 46.5701H44.1472V48.4496H46.0269V46.5701Z" fill="black"/>
<path d="M46.0269 44.7064H44.1472V46.5675H46.0269V44.7064Z" fill="#EF997B"/>
<path d="M46.0269 42.8242H44.1472V44.7037H46.0269V42.8242Z" fill="black"/>
<path d="M46.0269 31.5945H44.1472V33.4556L46.0269 33.4556V31.5945Z" fill="black"/>
<path d="M46.0269 29.7124H44.1472V31.5919H46.0269V29.7124Z" fill="black"/>
<path d="M44.1472 84.042H42.2678V85.9031H44.1472V84.042Z" fill="black"/>
<path d="M44.1472 82.1625H42.2678V84.042H44.1472V82.1625Z" fill="#FF5A8D"/>
<path d="M44.1472 80.2987H42.2678V82.1598H44.1472V80.2987Z" fill="#FF5A8D"/>
<path d="M44.1472 78.4166H42.2678V80.2961H44.1472V78.4166Z" fill="black"/>
<path d="M44.1472 52.1956H42.2678V54.0751L44.1472 54.075V52.1956Z" fill="black"/>
<path d="M44.1472 50.3291H42.2678V52.1902H44.1472V50.3291Z" fill="#EF997B"/>
<path d="M44.1472 48.4496H42.2678V50.3291H44.1472V48.4496Z" fill="black"/>
<path d="M44.1472 46.5701H42.2678V48.4496H44.1472V46.5701Z" fill="black"/>
<path d="M44.1472 44.7064H42.2678V46.5675H44.1472V44.7064Z" fill="#EF997B"/>
<path d="M44.1472 42.8242H42.2678V44.7037H44.1472V42.8242Z" fill="black"/>
<path d="M42.2678 82.1625H40.4067V84.042L42.2678 84.042V82.1625Z" fill="black"/>
<path d="M42.2678 80.2987H40.4067V82.1598H42.2678V80.2987Z" fill="black"/>
<path d="M42.2678 54.0751L40.4067 54.075V55.9361H42.2679L42.2678 54.0751Z" fill="black"/>
<path d="M42.2678 52.1956H40.4067V54.075L42.2678 54.0751V52.1956Z" fill="#EF997B"/>
<path d="M42.2678 50.3291H40.4067V52.1902H42.2678V50.3291Z" fill="#EF997B"/>
<path d="M42.2678 48.4496H40.4067V50.3291H42.2678V48.4496Z" fill="black"/>
<path d="M42.2678 46.5701H40.4067V48.4496H42.2678V46.5701Z" fill="black"/>
<path d="M42.2678 44.7064H40.4067V46.5675H42.2678V44.7064Z" fill="#EF997B"/>
<path d="M42.2678 42.8242H40.4067V44.7037H42.2678V42.8242Z" fill="#EF997B"/>
<path d="M42.2679 40.9631H40.4067V42.8242H42.2678L42.2679 40.9631Z" fill="black"/>
<path d="M42.2679 29.7124H40.4067V31.5919H42.2679V29.7124Z" fill="#751545"/>
<path d="M42.2679 27.8512H40.4067V29.7124H42.2679V27.8512Z" fill="#751545"/>
<path d="M42.2679 25.9691H40.4067V27.8486H42.2679V25.9691Z" fill="#751545"/>
<path d="M42.2679 24.1053H40.4067V25.9665H42.2679V24.1053Z" fill="#751545"/>
<path d="M40.4015 80.2987H38.522V82.1598H40.4015V80.2987Z" fill="#751545"/>
<path d="M40.4015 78.4166H38.522V80.2961H40.4015V78.4166Z" fill="#751545"/>
<path d="M40.4015 76.5371H38.522V78.4166H40.4015V76.5371Z" fill="#751545"/>
<path d="M40.4015 74.6733H38.522V76.5345H40.4015V74.6733Z" fill="#751545"/>
<path d="M40.4015 72.7938H38.522V74.6733H40.4015V72.7938Z" fill="#751545"/>
<path d="M40.4015 70.9302H38.522V72.7913H40.4015V70.9302Z" fill="#751545"/>
<path d="M40.4015 69.048H38.522V70.9275H40.4015V69.048Z" fill="#751545"/>
<path d="M40.4015 67.1869H38.522V69.048H40.4015V67.1869Z" fill="#751545"/>
<path d="M40.4015 65.3074H38.522V67.1869H40.4015V65.3074Z" fill="#751545"/>
<path d="M40.4015 63.4226H38.522V65.3021H40.4015V63.4226Z" fill="#751545"/>
<path d="M40.4015 61.5615H38.522V63.4226H40.4015V61.5615Z" fill="#751545"/>
<path d="M40.4015 59.682H38.522V61.5615H40.4015V59.682Z" fill="#751545"/>
<path d="M40.4015 57.8182H38.522V59.6794H40.4015V57.8182Z" fill="#751545"/>
<path d="M40.4015 55.9362H38.522V57.8157H40.4015V55.9362Z" fill="#751545"/>
<path d="M40.4015 54.075H38.522V55.9362H40.4015V54.075Z" fill="#751545"/>
<path d="M40.4015 52.1956H38.522V54.075H40.4015V52.1956Z" fill="#751545"/>
<path d="M40.4015 50.3291H38.522V52.1902H40.4015V50.3291Z" fill="#751545"/>
<path d="M40.4015 48.4496H38.522V50.3291H40.4015V48.4496Z" fill="#751545"/>
<path d="M40.4015 46.5701H38.522V48.4496H40.4015V46.5701Z" fill="black"/>
<path d="M40.4015 44.7064H38.522V46.5675H40.4015V44.7064Z" fill="#EF997B"/>
<path d="M40.4015 42.8242H38.522V44.7037H40.4015V42.8242Z" fill="#EF997B"/>
<path d="M40.4015 40.9631H38.522V42.8242H40.4015V40.9631Z" fill="#751545"/>
<path d="M40.4015 39.0811H38.522V40.9606H40.4015V39.0811Z" fill="#751545"/>
<path d="M40.4015 37.2173H38.522V39.0784H40.4015V37.2173Z" fill="#751545"/>
<path d="M40.4015 35.3378H38.522V37.2173H40.4015V35.3378Z" fill="#751545"/>
<path d="M40.4015 33.4556H38.522V35.3351H40.4015V33.4556Z" fill="#751545"/>
<path d="M40.4015 31.5945H38.522V33.4556H40.4015V31.5945Z" fill="#751545"/>
<path d="M40.4015 29.7124H38.522V31.5919H40.4015V29.7124Z" fill="#751545"/>
<path d="M40.4015 27.8512H38.522V29.7124H40.4015V27.8512Z" fill="#751545"/>
<path d="M40.4015 25.9691H38.522V27.8486H40.4015V25.9691Z" fill="#751545"/>
<path d="M40.4015 24.1053H38.522V25.9665H40.4015V24.1053Z" fill="#751545"/>
<path d="M40.4015 22.2258H38.522V24.1053H40.4015V22.2258Z" fill="#751545"/>
<path d="M38.522 52.1956H36.6606V54.0751L38.522 54.075V52.1956Z" fill="black"/>
<path d="M38.522 50.3291H36.6606V52.1902H38.522V50.3291Z" fill="black"/>
<path d="M38.522 44.7064H36.6606V46.5675H38.522V44.7064Z" fill="black"/>
<path d="M38.522 42.8242H36.6606V44.7037H38.522V42.8242Z" fill="black"/>
<path d="M38.522 39.0811H36.6606V40.9606H38.522V39.0811Z" fill="#751545"/>
<path d="M38.522 37.2173H36.6606V39.0784H38.522V37.2173Z" fill="#751545"/>
<path d="M38.522 35.3378H36.6606V37.2173H38.522V35.3378Z" fill="#751545"/>
<path d="M38.522 33.4556H36.6606V35.3351H38.522V33.4556Z" fill="#751545"/>
<path d="M38.522 31.5945H36.6606V33.4556H38.522V31.5945Z" fill="#751545"/>
<path d="M38.522 29.7124H36.6606V31.5919H38.522V29.7124Z" fill="#751545"/>
<path d="M38.522 27.8512H36.6606V29.7124H38.522V27.8512Z" fill="#06E1F7"/>
<path d="M38.522 25.9691H36.6606V27.8486H38.522V25.9691Z" fill="#06E1F7"/>
<path d="M38.522 24.1053H36.6606V25.9665H38.522V24.1053Z" fill="#751545"/>
<path d="M38.522 22.2258H36.6606V24.1053H38.522V22.2258Z" fill="#751545"/>
<path d="M38.5218 20.3622H36.6606V22.2233H38.5218V20.3622Z" fill="#751545"/>
<path d="M36.6606 33.4556H34.7812V35.3351H36.6606V33.4556Z" fill="#751545"/>
<path d="M36.6606 31.5945H34.7812V33.4556H36.6606V31.5945Z" fill="#751545"/>
<path d="M36.6606 29.7124H34.7812V31.5919H36.6606V29.7124Z" fill="#751545"/>
<path d="M36.6606 27.8512H34.7812V29.7124H36.6606V27.8512Z" fill="#06E1F7"/>
<path d="M36.6606 25.9691H34.7812V27.8486H36.6606V25.9691Z" fill="#06E1F7"/>
<path d="M36.6606 24.1053H34.7812V25.9665H36.6606V24.1053Z" fill="#751545"/>
<path d="M36.6606 22.2258H34.7812V24.1053H36.6606V22.2258Z" fill="#751545"/>
<path d="M36.6606 20.3622H34.7812V22.2233H36.6606V20.3622Z" fill="#751545"/>
<path d="M34.7759 29.7124H32.9148V31.5919H34.7759V29.7124Z" fill="#751545"/>
<path d="M34.7759 27.8512H32.9148V29.7124H34.7759V27.8512Z" fill="#751545"/>
<path d="M34.7759 25.9691H32.9148V27.8486H34.7759V25.9691Z" fill="#751545"/>
<path d="M34.7759 24.1053H32.9148V25.9665H34.7759V24.1053Z" fill="#751545"/>
<path d="M34.7759 22.2258H32.9148V24.1053H34.7759V22.2258Z" fill="#751545"/>
</svg>
