<svg width="105" height="105" viewBox="0 0 105 105" fill="none" xmlns="http://www.w3.org/2000/svg">
<path d="M52.5002 4.73279C78.8812 4.73297 100.267 26.1194 100.267 52.5004C100.267 78.8812 78.8811 100.267 52.5002 100.267C26.1192 100.267 4.73285 78.8813 4.73267 52.5004C4.73267 26.1192 26.1191 4.73279 52.5002 4.73279Z" fill="#F9F7E7" stroke="#29100A" stroke-width="2"/>
<path d="M55.3587 77.1671H53.8415V78.6713H55.3587V77.1671Z" fill="#6B1F01"/>
<path d="M55.3587 78.6713H53.8415V80.1885H55.3587V78.6713Z" fill="#6B1F01"/>
<path d="M55.3587 71.1296H53.8415V72.6311H55.3587V71.1296Z" fill="#6B1F01"/>
<path d="M55.3587 69.6124H53.8415V71.1296H55.3587V69.6124Z" fill="#6B1F01"/>
<path d="M55.3587 72.6311H53.8415V74.1484H55.3587V72.6311Z" fill="#6B1F01"/>
<path d="M55.3587 74.1484H53.8415V75.6499H55.3587V74.1484Z" fill="#6B1F01"/>
<path d="M53.8415 75.6525H52.34V77.1698H53.8415V75.6525Z" fill="#7C2A05"/>
<path d="M52.34 78.6713H50.8227V80.1885H52.34V78.6713Z" fill="#7C2A05"/>
<path d="M53.8415 72.6311H52.34V74.1484H53.8415V72.6311Z" fill="#6B1F01"/>
<path d="M52.34 77.1671H50.8227V78.6713H52.34V77.1671Z" fill="#7C2A05"/>
<path d="M52.34 72.6311H50.8227V74.1484H52.34V72.6311Z" fill="#7C2A05"/>
<path d="M53.8415 71.1296H52.34V72.6311H53.8415V71.1296Z" fill="#7C2A05"/>
<path d="M53.8415 74.1484H52.34V75.6499H53.8415V74.1484Z" fill="#7C2A05"/>
<path d="M53.8415 69.6124H52.34V71.1296H53.8415V69.6124Z" fill="#6B1F01"/>
<path d="M52.34 75.6525H50.8227V77.1698H52.34V75.6525Z" fill="#7C2A05"/>
<path d="M52.34 74.1484H50.8227V75.6499H52.34V74.1484Z" fill="#7C2A05"/>
<path d="M52.34 69.6124H50.8227V71.1296H52.34V69.6124Z" fill="#7C2A05"/>
<path d="M52.34 71.1296H50.8227V72.6311H52.34V71.1296Z" fill="#7C2A05"/>
<path d="M46.2841 78.6713H44.7826V80.1885H46.2841V78.6713Z" fill="#6B1F01"/>
<path d="M47.8014 68.0951H46.2841V69.6124H47.8014V68.0951Z" fill="#7C2A05"/>
<path d="M47.8014 72.6311H46.2841V74.1484H47.8014V72.6311Z" fill="#7C2A05"/>
<path d="M47.8014 69.6124H46.2841V71.1296H47.8014V69.6124Z" fill="#7C2A05"/>
<path d="M47.8014 71.1296H46.2841V72.6311H47.8014V71.1296Z" fill="#7C2A05"/>
<path d="M47.8014 74.1484H46.2841V75.6499H47.8014V74.1484Z" fill="#6B1F01"/>
<path d="M46.2841 69.6124H44.7826V71.1296H46.2841V69.6124Z" fill="#7C2A05"/>
<path d="M46.2841 72.6311H44.7826V74.1484H46.2841V72.6311Z" fill="#6B1F01"/>
<path d="M46.2841 74.1484H44.7826V75.6499H46.2841V74.1484Z" fill="#6B1F01"/>
<path d="M46.2841 71.1296H44.7826V72.6311H46.2841V71.1296Z" fill="#7C2A05"/>
<path d="M46.2841 68.0951H44.7826V69.6124H46.2841V68.0951Z" fill="#7C2A05"/>
<path d="M49.3186 78.6713H47.8014V80.1885H49.3186V78.6713Z" fill="#6B1F01"/>
<path d="M47.8014 77.1671H46.2841V78.6713H47.8014V77.1671Z" fill="#6B1F01"/>
<path d="M49.3186 77.1671H47.8014V78.6713H49.3186V77.1671Z" fill="#7C2A05"/>
<path d="M49.3186 72.6311H47.8014V74.1484H49.3186V72.6311Z" fill="#7C2A05"/>
<path d="M49.3186 75.6525H47.8014V77.1698H49.3186V75.6525Z" fill="#7C2A05"/>
<path d="M49.3186 74.1484H47.8014V75.6499H49.3186V74.1484Z" fill="#7C2A05"/>
<path d="M49.3186 69.6124H47.8014V71.1296H49.3186V69.6124Z" fill="#7C2A05"/>
<path d="M49.3186 71.1296H47.8014V72.6311H49.3186V71.1296Z" fill="#7C2A05"/>
<path d="M47.8014 75.6525H46.2841V77.1698H47.8014V75.6525Z" fill="#6B1F01"/>
<path d="M70.4577 80.1885H68.9536V81.69H70.4577V80.1885Z" fill="black"/>
<path d="M70.4577 78.6713H68.9536V80.1885H70.4577V78.6713Z" fill="black"/>
<path d="M70.4577 77.1671H68.9536V78.6713H70.4577V77.1671Z" fill="black"/>
<path d="M70.4577 75.6525H68.9536V77.1698H70.4577V75.6525Z" fill="black"/>
<path d="M70.4577 74.1484H68.9536V75.6499H70.4577V74.1484Z" fill="black"/>
<path d="M70.4577 72.6311H68.9536V74.1484H70.4577V72.6311Z" fill="black"/>
<path d="M70.4577 71.1296H68.9536V72.6311H70.4577V71.1296Z" fill="black"/>
<path d="M70.4577 69.6124H68.9536V71.1296H70.4577V69.6124Z" fill="black"/>
<path d="M70.4577 68.0951H68.9536V69.6124H70.4577V68.0951Z" fill="black"/>
<path d="M70.4577 66.591H68.9536V68.0951H70.4577V66.591Z" fill="black"/>
<path d="M70.4577 65.0764H68.9536V66.5937H70.4577V65.0764Z" fill="black"/>
<path d="M70.4577 63.5723H68.9536V65.0738H70.4577V63.5723Z" fill="black"/>
<path d="M70.4577 62.055H68.9536V63.5723H70.4577V62.055Z" fill="black"/>
<path d="M70.4577 60.5535H68.9536V62.055H70.4577V60.5535Z" fill="black"/>
<path d="M70.4577 59.0363H68.9536V60.5535H70.4577V59.0363Z" fill="black"/>
<path d="M70.4577 57.519H68.9536V59.0363H70.4577V57.519Z" fill="black"/>
<path d="M70.4577 56.0149H68.9536V57.5164H70.4577V56.0149Z" fill="black"/>
<path d="M70.4577 54.4976H68.9536V56.0149H70.4577V54.4976Z" fill="black"/>
<path d="M70.4577 52.9961H68.9536V54.4976H70.4577V52.9961Z" fill="black"/>
<path d="M70.4577 51.4789H68.9536V52.9961H70.4577V51.4789Z" fill="black"/>
<path d="M70.4577 49.9774H68.9536V51.4789H70.4577V49.9774Z" fill="black"/>
<path d="M70.4577 48.4601H68.9536V49.9774H70.4577V48.4601Z" fill="black"/>
<path d="M70.4577 46.956H68.9536V48.4575H70.4577V46.956Z" fill="black"/>
<path d="M68.9562 80.1885H67.439V81.69H68.9562V80.1885Z" fill="black"/>
<path d="M68.9562 78.6713H67.439V80.1885H68.9562V78.6713Z" fill="#DB4B03"/>
<path d="M68.9562 77.1671H67.439V78.6713H68.9562V77.1671Z" fill="#DB4B03"/>
<path d="M68.9562 75.6525H67.439V77.1698H68.9562V75.6525Z" fill="#DB4B03"/>
<path d="M68.9562 74.1484H67.439V75.6499H68.9562V74.1484Z" fill="#DB4B03"/>
<path d="M68.9562 72.6311H67.439V74.1484H68.9562V72.6311Z" fill="#DB4B03"/>
<path d="M68.9562 71.1296H67.439V72.6311H68.9562V71.1296Z" fill="#DB4B03"/>
<path d="M68.9562 69.6124H67.439V71.1296H68.9562V69.6124Z" fill="#DB4B03"/>
<path d="M68.9562 68.0951H67.439V69.6124H68.9562V68.0951Z" fill="#DB4B03"/>
<path d="M68.9562 66.591H67.439V68.0951H68.9562V66.591Z" fill="#DB4B03"/>
<path d="M68.9562 65.0764H67.439V66.5937H68.9562V65.0764Z" fill="#FF5A00"/>
<path d="M68.9562 63.5723H67.439V65.0738H68.9562V63.5723Z" fill="#FF5A00"/>
<path d="M68.9562 62.055H67.439V63.5723H68.9562V62.055Z" fill="#FF5A00"/>
<path d="M68.9562 60.5535H67.439V62.055H68.9562V60.5535Z" fill="#FF5A00"/>
<path d="M68.9562 59.0363H67.439V60.5535H68.9562V59.0363Z" fill="#FF5A00"/>
<path d="M68.9562 57.519H67.439V59.0363H68.9562V57.519Z" fill="#FF5A00"/>
<path d="M68.9562 56.0149H67.439V57.5164H68.9562V56.0149Z" fill="#FF5A00"/>
<path d="M68.9562 54.4976H67.439V56.0149H68.9562V54.4976Z" fill="#FF5A00"/>
<path d="M68.9562 52.9961H67.439V54.4976H68.9562V52.9961Z" fill="#FF5A00"/>
<path d="M68.9562 51.4789H67.439V52.9961H68.9562V51.4789Z" fill="#FF5A00"/>
<path d="M68.9562 49.9774H67.439V51.4789H68.9562V49.9774Z" fill="#DB4B03"/>
<path d="M68.9562 48.4601H67.439V49.9774H68.9562V48.4601Z" fill="#DB4B03"/>
<path d="M68.9562 46.956H67.439V48.4575H68.9562V46.956Z" fill="#DB4B03"/>
<path d="M68.9562 45.4388H67.439V46.956H68.9562V45.4388Z" fill="black"/>
<path d="M68.9562 43.9215H67.439V45.4388H68.9562V43.9215Z" fill="black"/>
<path d="M67.4364 78.6713H65.9349V80.1885H67.4364V78.6713Z" fill="black"/>
<path d="M67.4364 77.1671H65.9349V78.6713H67.4364V77.1671Z" fill="#DB4B03"/>
<path d="M67.4364 75.6525H65.9349V77.1698H67.4364V75.6525Z" fill="#DB4B03"/>
<path d="M67.4364 74.1484H65.9349V75.6499H67.4364V74.1484Z" fill="#DB4B03"/>
<path d="M67.4364 72.6311H65.9349V74.1484H67.4364V72.6311Z" fill="#DB4B03"/>
<path d="M67.4364 71.1296H65.9349V72.6311H67.4364V71.1296Z" fill="#DB4B03"/>
<path d="M67.4364 69.6124H65.9349V71.1296H67.4364V69.6124Z" fill="#FF5A00"/>
<path d="M67.4364 68.0951H65.9349V69.6124H67.4364V68.0951Z" fill="#FF5A00"/>
<path d="M67.4364 66.591H65.9349V68.0951H67.4364V66.591Z" fill="#FF5A00"/>
<path d="M67.4364 65.0764H65.9349V66.5937H67.4364V65.0764Z" fill="#FF5A00"/>
<path d="M67.4364 63.5723H65.9349V65.0738H67.4364V63.5723Z" fill="#FF5A00"/>
<path d="M67.4364 62.055H65.9349V63.5723H67.4364V62.055Z" fill="#FF5A00"/>
<path d="M67.4364 60.5535H65.9349V62.055H67.4364V60.5535Z" fill="#FF5A00"/>
<path d="M67.4364 59.0363H65.9349V60.5535H67.4364V59.0363Z" fill="#FF5A00"/>
<path d="M67.4364 57.519H65.9349V59.0363H67.4364V57.519Z" fill="#FF5A00"/>
<path d="M67.4364 56.0149H65.9349V57.5164H67.4364V56.0149Z" fill="#FF5A00"/>
<path d="M67.4364 54.4976H65.9349V56.0149H67.4364V54.4976Z" fill="#FF5A00"/>
<path d="M67.4364 52.9961H65.9349V54.4976H67.4364V52.9961Z" fill="#FF5A00"/>
<path d="M67.4364 51.4789H65.9349V52.9961H67.4364V51.4789Z" fill="#FF5A00"/>
<path d="M67.4364 49.9774H65.9349V51.4789H67.4364V49.9774Z" fill="#FF5A00"/>
<path d="M67.4364 48.4601H65.9349V49.9774H67.4364V48.4601Z" fill="#FF5A00"/>
<path d="M67.4364 46.956H65.9349V48.4575H67.4364V46.956Z" fill="#DB4B03"/>
<path d="M67.4364 45.4388H65.9349V46.956H67.4364V45.4388Z" fill="#DB4B03"/>
<path d="M67.4364 43.9215H65.9349V45.4388H67.4364V43.9215Z" fill="black"/>
<path d="M67.4364 42.42H65.9349V43.9215H67.4364V42.42Z" fill="black"/>
<path d="M65.9349 80.1885H64.4176V81.69H65.9349V80.1885Z" fill="black"/>
<path d="M65.9349 78.6713H64.4176V80.1885H65.9349V78.6713Z" fill="#DB4B03"/>
<path d="M65.9349 77.1671H64.4176V78.6713H65.9349V77.1671Z" fill="#DB4B03"/>
<path d="M65.9349 75.6525H64.4176V77.1698H65.9349V75.6525Z" fill="#DB4B03"/>
<path d="M65.9349 74.1484H64.4176V75.6499H65.9349V74.1484Z" fill="#DB4B03"/>
<path d="M65.9349 72.6311H64.4176V74.1484H65.9349V72.6311Z" fill="#DB4B03"/>
<path d="M65.9349 71.1296H64.4176V72.6311H65.9349V71.1296Z" fill="#FF5A00"/>
<path d="M65.9349 69.6124H64.4176V71.1296H65.9349V69.6124Z" fill="#FF5A00"/>
<path d="M65.9349 68.0951H64.4176V69.6124H65.9349V68.0951Z" fill="#FF5A00"/>
<path d="M65.9349 66.591H64.4176V68.0951H65.9349V66.591Z" fill="#FF5A00"/>
<path d="M65.9349 65.0764H64.4176V66.5937H65.9349V65.0764Z" fill="#FF5A00"/>
<path d="M65.9349 63.5723H64.4176V65.0738H65.9349V63.5723Z" fill="#FF5A00"/>
<path d="M65.9349 62.055H64.4176V63.5723H65.9349V62.055Z" fill="#FF5A00"/>
<path d="M65.9349 60.5535H64.4176V62.055H65.9349V60.5535Z" fill="#FF5A00"/>
<path d="M65.9349 59.0363H64.4176V60.5535H65.9349V59.0363Z" fill="#FF5A00"/>
<path d="M65.9349 57.519H64.4176V59.0363H65.9349V57.519Z" fill="#FF5A00"/>
<path d="M65.9349 56.0149H64.4176V57.5164H65.9349V56.0149Z" fill="#FF5A00"/>
<path d="M65.9349 54.4976H64.4176V56.0149H65.9349V54.4976Z" fill="#FF5A00"/>
<path d="M65.9349 52.9961H64.4176V54.4976H65.9349V52.9961Z" fill="#FF5A00"/>
<path d="M65.9349 51.4789H64.4176V52.9961H65.9349V51.4789Z" fill="#FF5A00"/>
<path d="M65.9349 49.9774H64.4176V51.4789H65.9349V49.9774Z" fill="#FF5A00"/>
<path d="M65.9349 48.4601H64.4176V49.9774H65.9349V48.4601Z" fill="#FF5A00"/>
<path d="M65.9349 46.956H64.4176V48.4575H65.9349V46.956Z" fill="#FF5A00"/>
<path d="M65.9349 45.4388H64.4176V46.956H65.9349V45.4388Z" fill="#DB4B03"/>
<path d="M65.9349 43.9215H64.4176V45.4388H65.9349V43.9215Z" fill="#DB4B03"/>
<path d="M65.9349 42.42H64.4176V43.9215H65.9349V42.42Z" fill="black"/>
<path d="M65.9349 40.9028H64.4176V42.42H65.9349V40.9028Z" fill="black"/>
<path d="M65.9349 39.4013H64.4176V40.9028H65.9349V39.4013Z" fill="black"/>
<path d="M65.9349 37.884H64.4176V39.4013H65.9349V37.884Z" fill="black"/>
<path d="M64.4176 80.1885H62.9161V81.69H64.4176V80.1885Z" fill="black"/>
<path d="M64.4176 78.6713H62.9161V80.1885H64.4176V78.6713Z" fill="#DB4B03"/>
<path d="M64.4176 77.1671H62.9161V78.6713H64.4176V77.1671Z" fill="#DB4B03"/>
<path d="M64.4176 75.6525H62.9161V77.1698H64.4176V75.6525Z" fill="#DB4B03"/>
<path d="M64.4176 74.1484H62.9161V75.6499H64.4176V74.1484Z" fill="#DB4B03"/>
<path d="M64.4176 72.6311H62.9161V74.1484H64.4176V72.6311Z" fill="#FF5A00"/>
<path d="M64.4176 71.1296H62.9161V72.6311H64.4176V71.1296Z" fill="#FF5A00"/>
<path d="M64.4176 69.6124H62.9161V71.1296H64.4176V69.6124Z" fill="#FF5A00"/>
<path d="M64.4176 68.0951H62.9161V69.6124H64.4176V68.0951Z" fill="#FF5A00"/>
<path d="M64.4176 66.591H62.9161V68.0951H64.4176V66.591Z" fill="#FF5A00"/>
<path d="M64.4176 65.0764H62.9161V66.5937H64.4176V65.0764Z" fill="#FF5A00"/>
<path d="M64.4176 63.5723H62.9161V65.0738H64.4176V63.5723Z" fill="#FF5A00"/>
<path d="M64.4176 62.055H62.9161V63.5723H64.4176V62.055Z" fill="#FF5A00"/>
<path d="M64.4176 60.5535H62.9161V62.055H64.4176V60.5535Z" fill="#FF5A00"/>
<path d="M64.4176 59.0363H62.9161V60.5535H64.4176V59.0363Z" fill="#FF5A00"/>
<path d="M64.4176 57.519H62.9161V59.0363H64.4176V57.519Z" fill="#FF5A00"/>
<path d="M64.4176 56.0149H62.9161V57.5164H64.4176V56.0149Z" fill="#FF5A00"/>
<path d="M64.4176 54.4976H62.9161V56.0149H64.4176V54.4976Z" fill="#FF5A00"/>
<path d="M64.4176 52.9961H62.9161V54.4976H64.4176V52.9961Z" fill="#FF5A00"/>
<path d="M64.4176 51.4789H62.9161V52.9961H64.4176V51.4789Z" fill="#FF5A00"/>
<path d="M64.4176 49.9774H62.9161V51.4789H64.4176V49.9774Z" fill="#FF5A00"/>
<path d="M64.4176 48.4601H62.9161V49.9774H64.4176V48.4601Z" fill="#FF5A00"/>
<path d="M64.4176 46.956H62.9161V48.4575H64.4176V46.956Z" fill="#FF5A00"/>
<path d="M64.4176 45.4388H62.9161V46.956H64.4176V45.4388Z" fill="#FF5A00"/>
<path d="M64.4176 43.9215H62.9161V45.4388H64.4176V43.9215Z" fill="#DB4B03"/>
<path d="M64.4176 42.42H62.9161V43.9215H64.4176V42.42Z" fill="#DB4B03"/>
<path d="M64.4176 40.9028H62.9161V42.42H64.4176V40.9028Z" fill="black"/>
<path d="M64.4176 39.4013H62.9161V40.9028H64.4176V39.4013Z" fill="#DB4B03"/>
<path d="M64.4176 37.884H62.9161V39.4013H64.4176V37.884Z" fill="#DB4B03"/>
<path d="M64.4176 36.3799H62.9161V37.8814H64.4176V36.3799Z" fill="black"/>
<path d="M62.9161 80.1885H61.3989V81.69H62.9161V80.1885Z" fill="black"/>
<path d="M62.9161 78.6713H61.3989V80.1885H62.9161V78.6713Z" fill="#DB4B03"/>
<path d="M62.9161 77.1671H61.3989V78.6713H62.9161V77.1671Z" fill="#DB4B03"/>
<path d="M62.9161 75.6525H61.3989V77.1698H62.9161V75.6525Z" fill="#DB4B03"/>
<path d="M62.9161 74.1484H61.3989V75.6499H62.9161V74.1484Z" fill="#FF5A00"/>
<path d="M62.9161 72.6311H61.3989V74.1484H62.9161V72.6311Z" fill="#FF5A00"/>
<path d="M62.9161 71.1296H61.3989V72.6311H62.9161V71.1296Z" fill="#FF5A00"/>
<path d="M62.9161 69.6124H61.3989V71.1296H62.9161V69.6124Z" fill="#FF5A00"/>
<path d="M62.9161 68.0951H61.3989V69.6124H62.9161V68.0951Z" fill="#FF5A00"/>
<path d="M62.9161 66.591H61.3989V68.0951H62.9161V66.591Z" fill="#FF5A00"/>
<path d="M62.9161 65.0764H61.3989V66.5937H62.9161V65.0764Z" fill="#FF5A00"/>
<path d="M62.9161 63.5723H61.3989V65.0738H62.9161V63.5723Z" fill="#FF5A00"/>
<path d="M62.9161 62.055H61.3989V63.5723H62.9161V62.055Z" fill="#FF5A00"/>
<path d="M62.9161 60.5535H61.3989V62.055H62.9161V60.5535Z" fill="#FF5A00"/>
<path d="M62.9161 59.0363H61.3989V60.5535H62.9161V59.0363Z" fill="#FF5A00"/>
<path d="M62.9161 57.519H61.3989V59.0363H62.9161V57.519Z" fill="#FF5A00"/>
<path d="M62.9161 56.0149H61.3989V57.5164H62.9161V56.0149Z" fill="#FF5A00"/>
<path d="M62.9161 54.4976H61.3989V56.0149H62.9161V54.4976Z" fill="#FF5A00"/>
<path d="M62.9161 52.9961H61.3989V54.4976H62.9161V52.9961Z" fill="#FF5A00"/>
<path d="M62.9161 51.4789H61.3989V52.9961H62.9161V51.4789Z" fill="#FF5A00"/>
<path d="M62.9161 49.9774H61.3989V51.4789H62.9161V49.9774Z" fill="#FF5A00"/>
<path d="M62.9161 48.4601H61.3989V49.9774H62.9161V48.4601Z" fill="#FF5A00"/>
<path d="M62.9161 46.956H61.3989V48.4575H62.9161V46.956Z" fill="#FF5A00"/>
<path d="M62.9161 45.4388H61.3989V46.956H62.9161V45.4388Z" fill="#FF5A00"/>
<path d="M62.9161 43.9215H61.3989V45.4388H62.9161V43.9215Z" fill="#DB4B03"/>
<path d="M62.9161 42.42H61.3989V43.9215H62.9161V42.42Z" fill="black"/>
<path d="M62.9161 40.9028H61.3989V42.42H62.9161V40.9028Z" fill="#DB4B03"/>
<path d="M62.9161 39.4013H61.3989V40.9028H62.9161V39.4013Z" fill="#FF5A00"/>
<path d="M62.9161 37.884H61.3989V39.4013H62.9161V37.884Z" fill="#DB4B03"/>
<path d="M62.9161 36.3799H61.3989V37.8814H62.9161V36.3799Z" fill="#DB4B03"/>
<path d="M62.9161 34.8626H61.3989V36.3799H62.9161V34.8626Z" fill="black"/>
<path d="M62.9161 33.3454H61.3989V34.8626H62.9161V33.3454Z" fill="black"/>
<path d="M61.3989 80.1885H59.8816V81.69H61.3989V80.1885Z" fill="black"/>
<path d="M61.3989 78.6713H59.8816V80.1885H61.3989V78.6713Z" fill="#DB4B03"/>
<path d="M61.3989 77.1671H59.8816V78.6713H61.3989V77.1671Z" fill="#DB4B03"/>
<path d="M61.3989 75.6525H59.8816V77.1698H61.3989V75.6525Z" fill="#FF5A00"/>
<path d="M61.3989 74.1484H59.8816V75.6499H61.3989V74.1484Z" fill="#FF5A00"/>
<path d="M61.3989 72.6311H59.8816V74.1484H61.3989V72.6311Z" fill="#FF5A00"/>
<path d="M61.3989 71.1296H59.8816V72.6311H61.3989V71.1296Z" fill="#FF5A00"/>
<path d="M61.3989 69.6124H59.8816V71.1296H61.3989V69.6124Z" fill="#FF5A00"/>
<path d="M61.3989 68.0951H59.8816V69.6124H61.3989V68.0951Z" fill="#FF5A00"/>
<path d="M61.3989 66.591H59.8816V68.0951H61.3989V66.591Z" fill="#FF5A00"/>
<path d="M61.3989 65.0764H59.8816V66.5937H61.3989V65.0764Z" fill="#FF5A00"/>
<path d="M61.3989 63.5723H59.8816V65.0738H61.3989V63.5723Z" fill="#FF5A00"/>
<path d="M61.3989 62.055H59.8816V63.5723H61.3989V62.055Z" fill="#FF5A00"/>
<path d="M61.3989 60.5535H59.8816V62.055H61.3989V60.5535Z" fill="#FF5A00"/>
<path d="M61.3989 59.0363H59.8816V60.5535H61.3989V59.0363Z" fill="#FF5A00"/>
<path d="M61.3989 57.519H59.8816V59.0363H61.3989V57.519Z" fill="#FF5A00"/>
<path d="M61.3989 56.0149H59.8816V57.5164H61.3989V56.0149Z" fill="#FF5A00"/>
<path d="M61.3989 54.4976H59.8816V56.0149H61.3989V54.4976Z" fill="#FF5A00"/>
<path d="M61.3989 52.9961H59.8816V54.4976H61.3989V52.9961Z" fill="#FF5A00"/>
<path d="M61.3989 51.4789H59.8816V52.9961H61.3989V51.4789Z" fill="#FF5A00"/>
<path d="M61.3989 49.9774H59.8816V51.4789H61.3989V49.9774Z" fill="#FF5A00"/>
<path d="M61.3989 48.4601H59.8816V49.9774H61.3989V48.4601Z" fill="#FF5A00"/>
<path d="M61.3989 46.956H59.8816V48.4575H61.3989V46.956Z" fill="#DB4B03"/>
<path d="M61.3989 45.4388H59.8816V46.956H61.3989V45.4388Z" fill="#DB4B03"/>
<path d="M61.3989 43.9215H59.8816V45.4388H61.3989V43.9215Z" fill="black"/>
<path d="M61.3989 42.42H59.8816V43.9215H61.3989V42.42Z" fill="#DB4B03"/>
<path d="M61.3989 40.9028H59.8816V42.42H61.3989V40.9028Z" fill="#FF5A00"/>
<path d="M61.3989 39.4013H59.8816V40.9028H61.3989V39.4013Z" fill="#FF5A00"/>
<path d="M61.3989 37.884H59.8816V39.4013H61.3989V37.884Z" fill="#FF5A00"/>
<path d="M61.3989 36.3799H59.8816V37.8814H61.3989V36.3799Z" fill="#DB4B03"/>
<path d="M61.3989 34.8626H59.8816V36.3799H61.3989V34.8626Z" fill="#DB4B03"/>
<path d="M61.3989 33.3454H59.8816V34.8626H61.3989V33.3454Z" fill="#DB4B03"/>
<path d="M61.3989 31.8439H59.8816V33.3454H61.3989V31.8439Z" fill="black"/>
<path d="M61.3989 30.3266H59.8816V31.8439H61.3989V30.3266Z" fill="black"/>
<path d="M59.879 80.1885H58.3775V81.69H59.879V80.1885Z" fill="black"/>
<path d="M59.879 78.6713H58.3775V80.1885H59.879V78.6713Z" fill="#DB4B03"/>
<path d="M59.879 77.1671H58.3775V78.6713H59.879V77.1671Z" fill="#DB4B03"/>
<path d="M59.879 75.6525H58.3775V77.1698H59.879V75.6525Z" fill="#FF5A00"/>
<path d="M59.879 74.1484H58.3775V75.6499H59.879V74.1484Z" fill="#FF5A00"/>
<path d="M59.879 72.6311H58.3775V74.1484H59.879V72.6311Z" fill="#FF5A00"/>
<path d="M59.879 71.1296H58.3775V72.6311H59.879V71.1296Z" fill="#FF5A00"/>
<path d="M59.879 69.6124H58.3775V71.1296H59.879V69.6124Z" fill="#FF5A00"/>
<path d="M59.879 68.0951H58.3775V69.6124H59.879V68.0951Z" fill="#FF5A00"/>
<path d="M59.879 66.591H58.3775V68.0951H59.879V66.591Z" fill="#FF5A00"/>
<path d="M59.879 65.0764H58.3775V66.5937H59.879V65.0764Z" fill="#FF5A00"/>
<path d="M59.879 63.5723H58.3775V65.0738H59.879V63.5723Z" fill="#FF5A00"/>
<path d="M59.879 62.055H58.3775V63.5723H59.879V62.055Z" fill="#FF5A00"/>
<path d="M59.879 60.5535H58.3775V62.055H59.879V60.5535Z" fill="#FF5A00"/>
<path d="M59.879 59.0363H58.3775V60.5535H59.879V59.0363Z" fill="#FF5A00"/>
<path d="M59.879 57.519H58.3775V59.0363H59.879V57.519Z" fill="#FF5A00"/>
<path d="M59.879 56.0149H58.3775V57.5164H59.879V56.0149Z" fill="#FF5A00"/>
<path d="M59.879 54.4976H58.3775V56.0149H59.879V54.4976Z" fill="#FF5A00"/>
<path d="M59.879 52.9961H58.3775V54.4976H59.879V52.9961Z" fill="#FF5A00"/>
<path d="M59.879 51.4789H58.3775V52.9961H59.879V51.4789Z" fill="#FF5A00"/>
<path d="M59.879 49.9774H58.3775V51.4789H59.879V49.9774Z" fill="#FF5A00"/>
<path d="M59.879 48.4601H58.3775V49.9774H59.879V48.4601Z" fill="#DB4B03"/>
<path d="M59.879 46.956H58.3775V48.4575H59.879V46.956Z" fill="black"/>
<path d="M59.879 45.4388H58.3775V46.956H59.879V45.4388Z" fill="black"/>
<path d="M59.879 43.9215H58.3775V45.4388H59.879V43.9215Z" fill="#FF5A00"/>
<path d="M59.879 42.42H58.3775V43.9215H59.879V42.42Z" fill="black"/>
<path d="M59.879 40.9028H58.3775V42.42H59.879V40.9028Z" fill="#FF5A00"/>
<path d="M59.879 39.4013H58.3775V40.9028H59.879V39.4013Z" fill="#FF5A00"/>
<path d="M59.879 37.884H58.3775V39.4013H59.879V37.884Z" fill="#FF5A00"/>
<path d="M59.879 36.3799H58.3775V37.8814H59.879V36.3799Z" fill="#FF5A00"/>
<path d="M59.879 34.8626H58.3775V36.3799H59.879V34.8626Z" fill="#DB4B03"/>
<path d="M59.879 33.3454H58.3775V34.8626H59.879V33.3454Z" fill="#DB4B03"/>
<path d="M59.879 31.8439H58.3775V33.3454H59.879V31.8439Z" fill="#DB4B03"/>
<path d="M59.879 30.3266H58.3775V31.8439H59.879V30.3266Z" fill="black"/>
<path d="M59.879 28.8251H58.3775V30.3266H59.879V28.8251Z" fill="black"/>
<path d="M59.879 27.3079H58.3775V28.8251H59.879V27.3079Z" fill="black"/>
<path d="M58.3775 80.1885H56.8602V81.69H58.3775V80.1885Z" fill="black"/>
<path d="M58.3775 78.6713H56.8602V80.1885H58.3775V78.6713Z" fill="#DB4B03"/>
<path d="M58.3775 77.1671H56.8602V78.6713H58.3775V77.1671Z" fill="#FF5A00"/>
<path d="M58.3775 75.6525H56.8602V77.1698H58.3775V75.6525Z" fill="#FF5A00"/>
<path d="M58.3775 74.1484H56.8602V75.6499H58.3775V74.1484Z" fill="#FF5A00"/>
<path d="M58.3775 72.6311H56.8602V74.1484H58.3775V72.6311Z" fill="#FF5A00"/>
<path d="M58.3775 71.1296H56.8602V72.6311H58.3775V71.1296Z" fill="#FF5A00"/>
<path d="M58.3775 69.6124H56.8602V71.1296H58.3775V69.6124Z" fill="#FF5A00"/>
<path d="M58.3775 68.0951H56.8602V69.6124H58.3775V68.0951Z" fill="#FF5A00"/>
<path d="M58.3775 66.591H56.8602V68.0951H58.3775V66.591Z" fill="#FF5A00"/>
<path d="M58.3775 65.0764H56.8602V66.5937H58.3775V65.0764Z" fill="#FF5A00"/>
<path d="M58.3775 63.5723H56.8602V65.0738H58.3775V63.5723Z" fill="#FF5A00"/>
<path d="M58.3775 62.055H56.8602V63.5723H58.3775V62.055Z" fill="#FF5A00"/>
<path d="M58.3775 60.5535H56.8602V62.055H58.3775V60.5535Z" fill="#FF5A00"/>
<path d="M58.3775 59.0363H56.8602V60.5535H58.3775V59.0363Z" fill="#FF5A00"/>
<path d="M58.3775 57.519H56.8602V59.0363H58.3775V57.519Z" fill="#FF5A00"/>
<path d="M58.3775 56.0149H56.8602V57.5164H58.3775V56.0149Z" fill="#FF5A00"/>
<path d="M58.3775 54.4976H56.8602V56.0149H58.3775V54.4976Z" fill="#DB4B03"/>
<path d="M58.3775 52.9961H56.8602V54.4976H58.3775V52.9961Z" fill="#DB4B03"/>
<path d="M58.3775 51.4789H56.8602V52.9961H58.3775V51.4789Z" fill="#DB4B03"/>
<path d="M58.3775 49.9774H56.8602V51.4789H58.3775V49.9774Z" fill="#DB4B03"/>
<path d="M58.3775 48.4601H56.8602V49.9774H58.3775V48.4601Z" fill="#6B1F01"/>
<path d="M58.3775 46.956H56.8602V48.4575H58.3775V46.956Z" fill="#6B1F01"/>
<path d="M58.3775 45.4388H56.8602V46.956H58.3775V45.4388Z" fill="black"/>
<path d="M58.3775 43.9215H56.8602V45.4388H58.3775V43.9215Z" fill="#FF5A00"/>
<path d="M58.3775 42.42H56.8602V43.9215H58.3775V42.42Z" fill="black"/>
<path d="M58.3775 40.9028H56.8602V42.42H58.3775V40.9028Z" fill="black"/>
<path d="M58.3775 39.4013H56.8602V40.9028H58.3775V39.4013Z" fill="#FF5A00"/>
<path d="M58.3775 37.884H56.8602V39.4013H58.3775V37.884Z" fill="#FF5A00"/>
<path d="M58.3775 36.3799H56.8602V37.8814H58.3775V36.3799Z" fill="#FF5A00"/>
<path d="M58.3775 34.8626H56.8602V36.3799H58.3775V34.8626Z" fill="#FF5A00"/>
<path d="M58.3775 33.3454H56.8602V34.8626H58.3775V33.3454Z" fill="#FF5A00"/>
<path d="M58.3775 31.8439H56.8602V33.3454H58.3775V31.8439Z" fill="#DB4B03"/>
<path d="M58.3775 30.3266H56.8602V31.8439H58.3775V30.3266Z" fill="#DB4B03"/>
<path d="M58.3775 28.8251H56.8602V30.3266H58.3775V28.8251Z" fill="#FF5A00"/>
<path d="M58.3775 27.3079H56.8602V28.8251H58.3775V27.3079Z" fill="black"/>
<path d="M56.8602 80.1885H55.3587V81.69H56.8602V80.1885Z" fill="black"/>
<path d="M56.8602 78.6713H55.3587V80.1885H56.8602V78.6713Z" fill="black"/>
<path d="M56.8602 77.1671H55.3587V78.6713H56.8602V77.1671Z" fill="black"/>
<path d="M56.8602 75.6525H55.3587V77.1698H56.8602V75.6525Z" fill="black"/>
<path d="M56.8602 74.1484H55.3587V75.6499H56.8602V74.1484Z" fill="black"/>
<path d="M56.8602 72.6311H55.3587V74.1484H56.8602V72.6311Z" fill="black"/>
<path d="M56.8602 71.1296H55.3587V72.6311H56.8602V71.1296Z" fill="black"/>
<path d="M56.8602 69.6124H55.3587V71.1296H56.8602V69.6124Z" fill="black"/>
<path d="M56.8602 68.0951H55.3587V69.6124H56.8602V68.0951Z" fill="black"/>
<path d="M56.8602 66.591H55.3587V68.0951H56.8602V66.591Z" fill="black"/>
<path d="M56.8602 65.0764H55.3587V66.5937H56.8602V65.0764Z" fill="black"/>
<path d="M56.8602 63.5723H55.3587V65.0738H56.8602V63.5723Z" fill="black"/>
<path d="M56.8602 62.055H55.3587V63.5723H56.8602V62.055Z" fill="black"/>
<path d="M56.8602 60.5535H55.3587V62.055H56.8602V60.5535Z" fill="black"/>
<path d="M56.8602 59.0363H55.3587V60.5535H56.8602V59.0363Z" fill="black"/>
<path d="M56.8602 57.519H55.3587V59.0363H56.8602V57.519Z" fill="black"/>
<path d="M56.8602 56.0149H55.3587V57.5164H56.8602V56.0149Z" fill="black"/>
<path d="M56.8602 54.4976H55.3587V56.0149H56.8602V54.4976Z" fill="black"/>
<path d="M56.8602 52.9961H55.3587V54.4976H56.8602V52.9961Z" fill="black"/>
<path d="M56.8602 51.4789H55.3587V52.9961H56.8602V51.4789Z" fill="black"/>
<path d="M56.8602 49.9774H55.3587V51.4789H56.8602V49.9774Z" fill="black"/>
<path d="M56.8602 48.4601H55.3587V49.9774H56.8602V48.4601Z" fill="#200621"/>
<path d="M56.8602 46.956H55.3587V48.4575H56.8602V46.956Z" fill="#6B1F01"/>
<path d="M56.8602 45.4388H55.3587V46.956H56.8602V45.4388Z" fill="black"/>
<path d="M56.8602 43.9215H55.3587V45.4388H56.8602V43.9215Z" fill="black"/>
<path d="M56.8602 42.42H55.3587V43.9215H56.8602V42.42Z" fill="#200621"/>
<path d="M56.8602 40.9028H55.3587V42.42H56.8602V40.9028Z" fill="#200621"/>
<path d="M56.8602 39.4013H55.3587V40.9028H56.8602V39.4013Z" fill="black"/>
<path d="M56.8602 37.884H55.3587V39.4013H56.8602V37.884Z" fill="#FF5A00"/>
<path d="M56.8602 36.3799H55.3587V37.8814H56.8602V36.3799Z" fill="#FF5A00"/>
<path d="M56.8602 34.8626H55.3587V36.3799H56.8602V34.8626Z" fill="#FF5A00"/>
<path d="M56.8602 33.3454H55.3587V34.8626H56.8602V33.3454Z" fill="#FF5A00"/>
<path d="M56.8602 31.8439H55.3587V33.3454H56.8602V31.8439Z" fill="#FF5A00"/>
<path d="M56.8602 30.3266H55.3587V31.8439H56.8602V30.3266Z" fill="#DB4B03"/>
<path d="M56.8602 28.8251H55.3587V30.3266H56.8602V28.8251Z" fill="#DB4B03"/>
<path d="M56.8602 27.3079H55.3587V28.8251H56.8602V27.3079Z" fill="#DB4B03"/>
<path d="M56.8602 25.8064H55.3587V27.3079H56.8602V25.8064Z" fill="black"/>
<path d="M55.3587 80.1885H53.8415V81.69H55.3587V80.1885Z" fill="black"/>
<path d="M55.3587 75.6525H53.8415V77.1698H55.3587V75.6525Z" fill="black"/>
<path d="M55.3587 68.0951H53.8415V69.6124H55.3587V68.0951Z" fill="#200621"/>
<path d="M55.3587 66.591H53.8415V68.0951H55.3587V66.591Z" fill="#6B1F01"/>
<path d="M55.3587 65.0764H53.8415V66.5937H55.3587V65.0764Z" fill="#6B1F01"/>
<path d="M55.3587 63.5723H53.8415V65.0738H55.3587V63.5723Z" fill="#6B1F01"/>
<path d="M55.3587 62.055H53.8415V63.5723H55.3587V62.055Z" fill="#6B1F01"/>
<path d="M55.3587 60.5535H53.8415V62.055H55.3587V60.5535Z" fill="#6B1F01"/>
<path d="M55.3587 59.0363H53.8415V60.5535H55.3587V59.0363Z" fill="#200621"/>
<path d="M55.3587 57.519H53.8415V59.0363H55.3587V57.519Z" fill="#6B1F01"/>
<path d="M55.3587 56.0149H53.8415V57.5164H55.3587V56.0149Z" fill="#6B1F01"/>
<path d="M55.3587 54.4976H53.8415V56.0149H55.3587V54.4976Z" fill="#6B1F01"/>
<path d="M55.3587 52.9961H53.8415V54.4976H55.3587V52.9961Z" fill="#6B1F01"/>
<path d="M55.3587 51.4789H53.8415V52.9961H55.3587V51.4789Z" fill="#6B1F01"/>
<path d="M55.3587 49.9774H53.8415V51.4789H55.3587V49.9774Z" fill="#6B1F01"/>
<path d="M55.3587 48.4601H53.8415V49.9774H55.3587V48.4601Z" fill="#200621"/>
<path d="M55.3587 46.956H53.8415V48.4575H55.3587V46.956Z" fill="#6B1F01"/>
<path d="M55.3587 45.4388H53.8415V46.956H55.3587V45.4388Z" fill="black"/>
<path d="M55.3587 43.9215H53.8415V45.4388H55.3587V43.9215Z" fill="#200621"/>
<path d="M55.3587 42.42H53.8415V43.9215H55.3587V42.42Z" fill="#200621"/>
<path d="M55.3587 40.9028H53.8415V42.42H55.3587V40.9028Z" fill="#200621"/>
<path d="M55.3587 39.4013H53.8415V40.9028H55.3587V39.4013Z" fill="#200621"/>
<path d="M55.3587 37.884H53.8415V39.4013H55.3587V37.884Z" fill="black"/>
<path d="M55.3587 36.3799H53.8415V37.8814H55.3587V36.3799Z" fill="#FF5A00"/>
<path d="M55.3587 34.8626H53.8415V36.3799H55.3587V34.8626Z" fill="#FF5A00"/>
<path d="M55.3587 33.3454H53.8415V34.8626H55.3587V33.3454Z" fill="#FF5A00"/>
<path d="M55.3587 31.8439H53.8415V33.3454H55.3587V31.8439Z" fill="#FF5A00"/>
<path d="M55.3587 30.3266H53.8415V31.8439H55.3587V30.3266Z" fill="#FF5A00"/>
<path d="M55.3587 28.8251H53.8415V30.3266H55.3587V28.8251Z" fill="#FF5A00"/>
<path d="M55.3587 27.3079H53.8415V28.8251H55.3587V27.3079Z" fill="#DB4B03"/>
<path d="M55.3587 25.8064H53.8415V27.3079H55.3587V25.8064Z" fill="black"/>
<path d="M53.8415 80.1885H52.34V81.69H53.8415V80.1885Z" fill="black"/>
<path d="M53.8415 78.6713H52.34V80.1885H53.8415V78.6713Z" fill="black"/>
<path d="M53.8415 77.1671H52.34V78.6713H53.8415V77.1671Z" fill="black"/>
<path d="M53.8415 68.0951H52.34V69.6124H53.8415V68.0951Z" fill="#200621"/>
<path d="M53.8415 66.591H52.34V68.0951H53.8415V66.591Z" fill="#7C2A05"/>
<path d="M53.8415 65.0764H52.34V66.5937H53.8415V65.0764Z" fill="#6B1F01"/>
<path d="M53.8415 63.5723H52.34V65.0738H53.8415V63.5723Z" fill="#6B1F01"/>
<path d="M53.8415 62.055H52.34V63.5723H53.8415V62.055Z" fill="#6B1F01"/>
<path d="M53.8415 60.5535H52.34V62.055H53.8415V60.5535Z" fill="#6B1F01"/>
<path d="M53.8415 59.0363H52.34V60.5535H53.8415V59.0363Z" fill="#200621"/>
<path d="M53.8415 57.519H52.34V59.0363H53.8415V57.519Z" fill="#200621"/>
<path d="M53.8415 56.0149H52.34V57.5164H53.8415V56.0149Z" fill="#7C2A05"/>
<path d="M53.8415 54.4976H52.34V56.0149H53.8415V54.4976Z" fill="#7C2A05"/>
<path d="M53.8415 52.9961H52.34V54.4976H53.8415V52.9961Z" fill="#6B1F01"/>
<path d="M53.8415 51.4789H52.34V52.9961H53.8415V51.4789Z" fill="#6B1F01"/>
<path d="M53.8415 49.9774H52.34V51.4789H53.8415V49.9774Z" fill="#6B1F01"/>
<path d="M53.8415 48.4601H52.34V49.9774H53.8415V48.4601Z" fill="#200621"/>
<path d="M53.8415 46.956H52.34V48.4575H53.8415V46.956Z" fill="#7C2A05"/>
<path d="M53.8415 45.4388H52.34V46.956H53.8415V45.4388Z" fill="#6B1F01"/>
<path d="M53.8415 43.9215H52.34V45.4388H53.8415V43.9215Z" fill="#200621"/>
<path d="M53.8415 42.42H52.34V43.9215H53.8415V42.42Z" fill="#200621"/>
<path d="M53.8415 40.9028H52.34V42.42H53.8415V40.9028Z" fill="#200621"/>
<path d="M53.8415 39.4013H52.34V40.9028H53.8415V39.4013Z" fill="#200621"/>
<path d="M53.8415 37.884H52.34V39.4013H53.8415V37.884Z" fill="#200621"/>
<path d="M53.8415 36.3799H52.34V37.8814H53.8415V36.3799Z" fill="black"/>
<path d="M53.8415 34.8626H52.34V36.3799H53.8415V34.8626Z" fill="#FF5A00"/>
<path d="M53.8415 33.3454H52.34V34.8626H53.8415V33.3454Z" fill="#FF5A00"/>
<path d="M53.8415 31.8439H52.34V33.3454H53.8415V31.8439Z" fill="#FF5A00"/>
<path d="M53.8415 30.3266H52.34V31.8439H53.8415V30.3266Z" fill="#FF5A00"/>
<path d="M53.8415 28.8251H52.34V30.3266H53.8415V28.8251Z" fill="#FF5A00"/>
<path d="M53.8415 27.3079H52.34V28.8251H53.8415V27.3079Z" fill="#FF5A00"/>
<path d="M53.8415 25.8064H52.34V27.3079H53.8415V25.8064Z" fill="black"/>
<path d="M52.34 80.1885H50.8227V81.69H52.34V80.1885Z" fill="black"/>
<path d="M52.34 68.0951H50.8227V69.6124H52.34V68.0951Z" fill="#200621"/>
<path d="M52.34 66.591H50.8227V68.0951H52.34V66.591Z" fill="#7C2A05"/>
<path d="M52.34 65.0764H50.8227V66.5937H52.34V65.0764Z" fill="#7C2A05"/>
<path d="M52.34 63.5723H50.8227V65.0738H52.34V63.5723Z" fill="#7C2A05"/>
<path d="M52.34 62.055H50.8227V63.5723H52.34V62.055Z" fill="#6B1F01"/>
<path d="M52.34 60.5535H50.8227V62.055H52.34V60.5535Z" fill="#6B1F01"/>
<path d="M52.34 59.0363H50.8227V60.5535H52.34V59.0363Z" fill="#6B1F01"/>
<path d="M52.34 57.519H50.8227V59.0363H52.34V57.519Z" fill="#200621"/>
<path d="M52.34 56.0149H50.8227V57.5164H52.34V56.0149Z" fill="#7C2A05"/>
<path d="M52.34 54.4976H50.8227V56.0149H52.34V54.4976Z" fill="#7C2A05"/>
<path d="M52.34 52.9961H50.8227V54.4976H52.34V52.9961Z" fill="#7C2A05"/>
<path d="M52.34 51.4789H50.8227V52.9961H52.34V51.4789Z" fill="#6B1F01"/>
<path d="M52.34 49.9774H50.8227V51.4789H52.34V49.9774Z" fill="#6B1F01"/>
<path d="M52.34 48.4601H50.8227V49.9774H52.34V48.4601Z" fill="#200621"/>
<path d="M52.34 46.956H50.8227V48.4575H52.34V46.956Z" fill="#7C2A05"/>
<path d="M52.34 45.4388H50.8227V46.956H52.34V45.4388Z" fill="#200621"/>
<path d="M52.34 43.9215H50.8227V45.4388H52.34V43.9215Z" fill="#200621"/>
<path d="M52.34 42.42H50.8227V43.9215H52.34V42.42Z" fill="#200621"/>
<path d="M52.34 40.9028H50.8227V42.42H52.34V40.9028Z" fill="#200621"/>
<path d="M52.34 39.4013H50.8227V40.9028H52.34V39.4013Z" fill="#200621"/>
<path d="M52.34 37.884H50.8227V39.4013H52.34V37.884Z" fill="#200621"/>
<path d="M52.34 36.3799H50.8227V37.8814H52.34V36.3799Z" fill="#200621"/>
<path d="M52.34 34.8626H50.8227V36.3799H52.34V34.8626Z" fill="black"/>
<path d="M52.34 33.3454H50.8227V34.8626H52.34V33.3454Z" fill="#FF5A00"/>
<path d="M52.34 31.8439H50.8227V33.3454H52.34V31.8439Z" fill="#FF5A00"/>
<path d="M52.34 30.3266H50.8227V31.8439H52.34V30.3266Z" fill="#FF5A00"/>
<path d="M52.34 28.8251H50.8227V30.3266H52.34V28.8251Z" fill="#FF5A00"/>
<path d="M52.34 27.3079H50.8227V28.8251H52.34V27.3079Z" fill="#FF5A00"/>
<path d="M52.34 25.8064H50.8227V27.3079H52.34V25.8064Z" fill="black"/>
<path d="M50.8201 80.1885H49.3186V81.69H50.8201V80.1885Z" fill="black"/>
<path d="M50.8201 78.6713H49.3186V80.1885H50.8201V78.6713Z" fill="black"/>
<path d="M50.8201 77.1671H49.3186V78.6713H50.8201V77.1671Z" fill="#200621"/>
<path d="M50.8201 75.6525H49.3186V77.1698H50.8201V75.6525Z" fill="#200621"/>
<path d="M50.8201 74.1484H49.3186V75.6499H50.8201V74.1484Z" fill="#200621"/>
<path d="M50.8201 72.6311H49.3186V74.1484H50.8201V72.6311Z" fill="#200621"/>
<path d="M50.8201 71.1296H49.3186V72.6311H50.8201V71.1296Z" fill="#200621"/>
<path d="M50.8201 69.6124H49.3186V71.1296H50.8201V69.6124Z" fill="#200621"/>
<path d="M50.8201 68.0951H49.3186V69.6124H50.8201V68.0951Z" fill="#7C2A05"/>
<path d="M50.8201 66.591H49.3186V68.0951H50.8201V66.591Z" fill="#7C2A05"/>
<path d="M50.8201 65.0764H49.3186V66.5937H50.8201V65.0764Z" fill="#7C2A05"/>
<path d="M50.8201 63.5723H49.3186V65.0738H50.8201V63.5723Z" fill="#7C2A05"/>
<path d="M50.8201 62.055H49.3186V63.5723H50.8201V62.055Z" fill="#7C2A05"/>
<path d="M50.8201 60.5535H49.3186V62.055H50.8201V60.5535Z" fill="#7C2A05"/>
<path d="M50.8201 59.0363H49.3186V60.5535H50.8201V59.0363Z" fill="#6B1F01"/>
<path d="M50.8201 57.519H49.3186V59.0363H50.8201V57.519Z" fill="#200621"/>
<path d="M50.8201 56.0149H49.3186V57.5164H50.8201V56.0149Z" fill="#200621"/>
<path d="M50.8201 54.4976H49.3186V56.0149H50.8201V54.4976Z" fill="#7C2A05"/>
<path d="M50.8201 52.9961H49.3186V54.4976H50.8201V52.9961Z" fill="#7C2A05"/>
<path d="M50.8201 51.4789H49.3186V52.9961H50.8201V51.4789Z" fill="#7C2A05"/>
<path d="M50.8201 49.9774H49.3186V51.4789H50.8201V49.9774Z" fill="#6B1F01"/>
<path d="M50.8201 48.4601H49.3186V49.9774H50.8201V48.4601Z" fill="#200621"/>
<path d="M50.8201 46.956H49.3186V48.4575H50.8201V46.956Z" fill="#7C2A05"/>
<path d="M50.8201 45.4388H49.3186V46.956H50.8201V45.4388Z" fill="#200621"/>
<path d="M50.8201 43.9215H49.3186V45.4388H50.8201V43.9215Z" fill="#200621"/>
<path d="M50.8201 42.42H49.3186V43.9215H50.8201V42.42Z" fill="#200621"/>
<path d="M50.8201 40.9028H49.3186V42.42H50.8201V40.9028Z" fill="#200621"/>
<path d="M50.8201 39.4013H49.3186V40.9028H50.8201V39.4013Z" fill="#200621"/>
<path d="M50.8201 37.884H49.3186V39.4013H50.8201V37.884Z" fill="#200621"/>
<path d="M50.8201 36.3799H49.3186V37.8814H50.8201V36.3799Z" fill="#200621"/>
<path d="M50.8201 34.8626H49.3186V36.3799H50.8201V34.8626Z" fill="black"/>
<path d="M50.8201 33.3454H49.3186V34.8626H50.8201V33.3454Z" fill="black"/>
<path d="M50.8201 31.8439H49.3186V33.3454H50.8201V31.8439Z" fill="#FF5A00"/>
<path d="M50.8201 30.3266H49.3186V31.8439H50.8201V30.3266Z" fill="#FF5A00"/>
<path d="M50.8201 28.8251H49.3186V30.3266H50.8201V28.8251Z" fill="#FF5A00"/>
<path d="M50.8201 27.3079H49.3186V28.8251H50.8201V27.3079Z" fill="#FF5A00"/>
<path d="M50.8201 25.8064H49.3186V27.3079H50.8201V25.8064Z" fill="black"/>
<path d="M49.3186 80.1885H47.8014V81.69H49.3186V80.1885Z" fill="black"/>
<path d="M49.3186 68.0951H47.8014V69.6124H49.3186V68.0951Z" fill="#200621"/>
<path d="M49.3186 66.591H47.8014V68.0951H49.3186V66.591Z" fill="#7C2A05"/>
<path d="M49.3186 65.0764H47.8014V66.5937H49.3186V65.0764Z" fill="#7C2A05"/>
<path d="M49.3186 63.5723H47.8014V65.0738H49.3186V63.5723Z" fill="#7C2A05"/>
<path d="M49.3186 62.055H47.8014V63.5723H49.3186V62.055Z" fill="#7C2A05"/>
<path d="M49.3186 60.5535H47.8014V62.055H49.3186V60.5535Z" fill="#7C2A05"/>
<path d="M49.3186 59.0363H47.8014V60.5535H49.3186V59.0363Z" fill="#7C2A05"/>
<path d="M49.3186 57.519H47.8014V59.0363H49.3186V57.519Z" fill="#7C2A05"/>
<path d="M49.3186 56.0149H47.8014V57.5164H49.3186V56.0149Z" fill="#200621"/>
<path d="M49.3186 54.4976H47.8014V56.0149H49.3186V54.4976Z" fill="#6B1F01"/>
<path d="M49.3186 52.9961H47.8014V54.4976H49.3186V52.9961Z" fill="#7C2A05"/>
<path d="M49.3186 51.4789H47.8014V52.9961H49.3186V51.4789Z" fill="#7C2A05"/>
<path d="M49.3186 49.9774H47.8014V51.4789H49.3186V49.9774Z" fill="#7C2A05"/>
<path d="M49.3186 48.4601H47.8014V49.9774H49.3186V48.4601Z" fill="#200621"/>
<path d="M49.3186 46.956H47.8014V48.4575H49.3186V46.956Z" fill="#200621"/>
<path d="M49.3186 45.4388H47.8014V46.956H49.3186V45.4388Z" fill="#200621"/>
<path d="M49.3186 43.9215H47.8014V45.4388H49.3186V43.9215Z" fill="#200621"/>
<path d="M49.3186 42.42H47.8014V43.9215H49.3186V42.42Z" fill="#200621"/>
<path d="M49.3186 40.9028H47.8014V42.42H49.3186V40.9028Z" fill="#200621"/>
<path d="M49.3186 39.4013H47.8014V40.9028H49.3186V39.4013Z" fill="#200621"/>
<path d="M49.3186 37.884H47.8014V39.4013H49.3186V37.884Z" fill="#200621"/>
<path d="M49.3186 36.3799H47.8014V37.8814H49.3186V36.3799Z" fill="#200621"/>
<path d="M49.3186 34.8626H47.8014V36.3799H49.3186V34.8626Z" fill="#200621"/>
<path d="M49.3186 33.3454H47.8014V34.8626H49.3186V33.3454Z" fill="black"/>
<path d="M49.3186 31.8439H47.8014V33.3454H49.3186V31.8439Z" fill="#FF5A00"/>
<path d="M49.3186 30.3266H47.8014V31.8439H49.3186V30.3266Z" fill="#FF5A00"/>
<path d="M49.3186 28.8251H47.8014V30.3266H49.3186V28.8251Z" fill="#FF5A00"/>
<path d="M49.3186 27.3079H47.8014V28.8251H49.3186V27.3079Z" fill="black"/>
<path d="M47.8014 80.1885H46.2841V81.69H47.8014V80.1885Z" fill="black"/>
<path d="M47.8014 78.6713H46.2841V80.1885H47.8014V78.6713Z" fill="black"/>
<path d="M47.8014 66.591H46.2841V68.0951H47.8014V66.591Z" fill="#200621"/>
<path d="M47.8014 65.0764H46.2841V66.5937H47.8014V65.0764Z" fill="#6B1F01"/>
<path d="M47.8014 63.5723H46.2841V65.0738H47.8014V63.5723Z" fill="#7C2A05"/>
<path d="M47.8014 62.055H46.2841V63.5723H47.8014V62.055Z" fill="#7C2A05"/>
<path d="M47.8014 60.5535H46.2841V62.055H47.8014V60.5535Z" fill="#7C2A05"/>
<path d="M47.8014 59.0363H46.2841V60.5535H47.8014V59.0363Z" fill="#7C2A05"/>
<path d="M47.8014 57.519H46.2841V59.0363H47.8014V57.519Z" fill="#6B1F01"/>
<path d="M47.8014 56.0149H46.2841V57.5164H47.8014V56.0149Z" fill="#200621"/>
<path d="M47.8014 54.4976H46.2841V56.0149H47.8014V54.4976Z" fill="#6B1F01"/>
<path d="M47.8014 52.9961H46.2841V54.4976H47.8014V52.9961Z" fill="#200621"/>
<path d="M47.8014 51.4789H46.2841V52.9961H47.8014V51.4789Z" fill="#200621"/>
<path d="M47.8014 49.9774H46.2841V51.4789H47.8014V49.9774Z" fill="#200621"/>
<path d="M47.8014 48.4601H46.2841V49.9774H47.8014V48.4601Z" fill="#6B1F01"/>
<path d="M47.8014 46.956H46.2841V48.4575H47.8014V46.956Z" fill="#200621"/>
<path d="M47.8014 45.4388H46.2841V46.956H47.8014V45.4388Z" fill="#200621"/>
<path d="M47.8014 43.9215H46.2841V45.4388H47.8014V43.9215Z" fill="#200621"/>
<path d="M47.8014 42.42H46.2841V43.9215H47.8014V42.42Z" fill="#200621"/>
<path d="M47.8014 40.9028H46.2841V42.42H47.8014V40.9028Z" fill="#200621"/>
<path d="M47.8014 39.4013H46.2841V40.9028H47.8014V39.4013Z" fill="#200621"/>
<path d="M47.8014 37.884H46.2841V39.4013H47.8014V37.884Z" fill="#200621"/>
<path d="M47.8014 36.3799H46.2841V37.8814H47.8014V36.3799Z" fill="#200621"/>
<path d="M47.8014 34.8626H46.2841V36.3799H47.8014V34.8626Z" fill="#200621"/>
<path d="M47.8014 33.3454H46.2841V34.8626H47.8014V33.3454Z" fill="black"/>
<path d="M47.8014 31.8439H46.2841V33.3454H47.8014V31.8439Z" fill="#FF5A00"/>
<path d="M47.8014 30.3266H46.2841V31.8439H47.8014V30.3266Z" fill="#FF5A00"/>
<path d="M47.8014 28.8251H46.2841V30.3266H47.8014V28.8251Z" fill="#FF5A00"/>
<path d="M47.8014 27.3079H46.2841V28.8251H47.8014V27.3079Z" fill="black"/>
<path d="M46.2841 80.1885H44.7826V81.69H46.2841V80.1885Z" fill="black"/>
<path d="M46.2841 77.1671H44.7826V78.6713H46.2841V77.1671Z" fill="black"/>
<path d="M46.2841 75.6525H44.7826V77.1698H46.2841V75.6525Z" fill="black"/>
<path d="M46.2841 66.591H44.7826V68.0951H46.2841V66.591Z" fill="#200621"/>
<path d="M46.2841 65.0764H44.7826V66.5937H46.2841V65.0764Z" fill="#6B1F01"/>
<path d="M46.2841 63.5723H44.7826V65.0738H46.2841V63.5723Z" fill="#7C2A05"/>
<path d="M46.2841 62.055H44.7826V63.5723H46.2841V62.055Z" fill="#7C2A05"/>
<path d="M46.2841 60.5535H44.7826V62.055H46.2841V60.5535Z" fill="#6B1F01"/>
<path d="M46.2841 59.0363H44.7826V60.5535H46.2841V59.0363Z" fill="#6B1F01"/>
<path d="M46.2841 57.519H44.7826V59.0363H46.2841V57.519Z" fill="#6B1F01"/>
<path d="M46.2841 56.0149H44.7826V57.5164H46.2841V56.0149Z" fill="#6B1F01"/>
<path d="M46.2841 54.4976H44.7826V56.0149H46.2841V54.4976Z" fill="#200621"/>
<path d="M46.2841 52.9961H44.7826V54.4976H46.2841V52.9961Z" fill="#7C2A05"/>
<path d="M46.2841 51.4789H44.7826V52.9961H46.2841V51.4789Z" fill="#7C2A05"/>
<path d="M46.2841 49.9774H44.7826V51.4789H46.2841V49.9774Z" fill="#7C2A05"/>
<path d="M46.2841 48.4601H44.7826V49.9774H46.2841V48.4601Z" fill="black"/>
<path d="M46.2841 46.956H44.7826V48.4575H46.2841V46.956Z" fill="black"/>
<path d="M46.2841 45.4388H44.7826V46.956H46.2841V45.4388Z" fill="black"/>
<path d="M46.2841 43.9215H44.7826V45.4388H46.2841V43.9215Z" fill="black"/>
<path d="M46.2841 42.42H44.7826V43.9215H46.2841V42.42Z" fill="#200621"/>
<path d="M46.2841 40.9028H44.7826V42.42H46.2841V40.9028Z" fill="#200621"/>
<path d="M46.2841 39.4013H44.7826V40.9028H46.2841V39.4013Z" fill="#200621"/>
<path d="M46.2841 37.884H44.7826V39.4013H46.2841V37.884Z" fill="#200621"/>
<path d="M46.2841 36.3799H44.7826V37.8814H46.2841V36.3799Z" fill="#200621"/>
<path d="M46.2841 34.8626H44.7826V36.3799H46.2841V34.8626Z" fill="#200621"/>
<path d="M46.2841 33.3454H44.7826V34.8626H46.2841V33.3454Z" fill="black"/>
<path d="M46.2841 31.8439H44.7826V33.3454H46.2841V31.8439Z" fill="#DB4B03"/>
<path d="M46.2841 30.3266H44.7826V31.8439H46.2841V30.3266Z" fill="#DB4B03"/>
<path d="M46.2841 28.8251H44.7826V30.3266H46.2841V28.8251Z" fill="black"/>
<path d="M44.7826 80.1885H43.2654V81.69H44.7826V80.1885Z" fill="black"/>
<path d="M44.7826 78.6713H43.2654V80.1885H44.7826V78.6713Z" fill="black"/>
<path d="M44.7826 77.1671H43.2654V78.6713H44.7826V77.1671Z" fill="black"/>
<path d="M44.7826 75.6525H43.2654V77.1698H44.7826V75.6525Z" fill="black"/>
<path d="M44.7826 74.1484H43.2654V75.6499H44.7826V74.1484Z" fill="black"/>
<path d="M44.7826 72.6311H43.2654V74.1484H44.7826V72.6311Z" fill="black"/>
<path d="M44.7826 71.1296H43.2654V72.6311H44.7826V71.1296Z" fill="black"/>
<path d="M44.7826 69.6124H43.2654V71.1296H44.7826V69.6124Z" fill="black"/>
<path d="M44.7826 68.0951H43.2654V69.6124H44.7826V68.0951Z" fill="black"/>
<path d="M44.7826 66.591H43.2654V68.0951H44.7826V66.591Z" fill="black"/>
<path d="M44.7826 65.0764H43.2654V66.5937H44.7826V65.0764Z" fill="black"/>
<path d="M44.7826 63.5723H43.2654V65.0738H44.7826V63.5723Z" fill="black"/>
<path d="M44.7826 62.055H43.2654V63.5723H44.7826V62.055Z" fill="black"/>
<path d="M44.7826 60.5535H43.2654V62.055H44.7826V60.5535Z" fill="black"/>
<path d="M44.7826 59.0363H43.2654V60.5535H44.7826V59.0363Z" fill="black"/>
<path d="M44.7826 57.519H43.2654V59.0363H44.7826V57.519Z" fill="black"/>
<path d="M44.7826 56.0149H43.2654V57.5164H44.7826V56.0149Z" fill="black"/>
<path d="M44.7826 54.4976H43.2654V56.0149H44.7826V54.4976Z" fill="black"/>
<path d="M44.7826 52.9961H43.2654V54.4976H44.7826V52.9961Z" fill="black"/>
<path d="M44.7826 51.4789H43.2654V52.9961H44.7826V51.4789Z" fill="#7C2A05"/>
<path d="M44.7826 49.9774H43.2654V51.4789H44.7826V49.9774Z" fill="black"/>
<path d="M44.7826 48.4601H43.2654V49.9774H44.7826V48.4601Z" fill="#DB4B03"/>
<path d="M44.7826 46.956H43.2654V48.4575H44.7826V46.956Z" fill="#DB4B03"/>
<path d="M44.7826 45.4388H43.2654V46.956H44.7826V45.4388Z" fill="black"/>
<path d="M44.7826 42.42H43.2654V43.9215H44.7826V42.42Z" fill="black"/>
<path d="M44.7826 40.9028H43.2654V42.42H44.7826V40.9028Z" fill="black"/>
<path d="M44.7826 39.4013H43.2654V40.9028H44.7826V39.4013Z" fill="#200621"/>
<path d="M44.7826 37.884H43.2654V39.4013H44.7826V37.884Z" fill="black"/>
<path d="M44.7826 36.3799H43.2654V37.8814H44.7826V36.3799Z" fill="black"/>
<path d="M44.7826 34.8626H43.2654V36.3799H44.7826V34.8626Z" fill="black"/>
<path d="M44.7826 33.3454H43.2654V34.8626H44.7826V33.3454Z" fill="#DB4B03"/>
<path d="M44.7826 31.8439H43.2654V33.3454H44.7826V31.8439Z" fill="#DB4B03"/>
<path d="M44.7826 30.3266H43.2654V31.8439H44.7826V30.3266Z" fill="black"/>
<path d="M43.2654 80.1885H41.7639V81.69H43.2654V80.1885Z" fill="black"/>
<path d="M43.2654 78.6713H41.7639V80.1885H43.2654V78.6713Z" fill="#DB4B03"/>
<path d="M43.2654 77.1671H41.7639V78.6713H43.2654V77.1671Z" fill="#DB4B03"/>
<path d="M43.2654 75.6525H41.7639V77.1698H43.2654V75.6525Z" fill="#E54A05"/>
<path d="M43.2654 74.1484H41.7639V75.6499H43.2654V74.1484Z" fill="#E54A05"/>
<path d="M43.2654 72.6311H41.7639V74.1484H43.2654V72.6311Z" fill="#E54A05"/>
<path d="M43.2654 71.1296H41.7639V72.6311H43.2654V71.1296Z" fill="#E54A05"/>
<path d="M43.2654 69.6124H41.7639V71.1296H43.2654V69.6124Z" fill="#E54A05"/>
<path d="M43.2654 68.0951H41.7639V69.6124H43.2654V68.0951Z" fill="#FF5A00"/>
<path d="M43.2654 66.591H41.7639V68.0951H43.2654V66.591Z" fill="#FF5A00"/>
<path d="M43.2654 65.0764H41.7639V66.5937H43.2654V65.0764Z" fill="#FF5A00"/>
<path d="M43.2654 63.5723H41.7639V65.0738H43.2654V63.5723Z" fill="#FF5A00"/>
<path d="M43.2654 62.055H41.7639V63.5723H43.2654V62.055Z" fill="#FF5A00"/>
<path d="M43.2654 60.5535H41.7639V62.055H43.2654V60.5535Z" fill="#FF5A00"/>
<path d="M43.2654 59.0363H41.7639V60.5535H43.2654V59.0363Z" fill="#FF5A00"/>
<path d="M43.2654 57.519H41.7639V59.0363H43.2654V57.519Z" fill="#FF5A00"/>
<path d="M43.2654 56.0149H41.7639V57.5164H43.2654V56.0149Z" fill="#FF5A00"/>
<path d="M43.2654 54.4976H41.7639V56.0149H43.2654V54.4976Z" fill="#FF5A00"/>
<path d="M43.2654 52.9961H41.7639V54.4976H43.2654V52.9961Z" fill="#FF5A00"/>
<path d="M43.2654 51.4789H41.7639V52.9961H43.2654V51.4789Z" fill="black"/>
<path d="M43.2654 49.9774H41.7639V51.4789H43.2654V49.9774Z" fill="#DB4B03"/>
<path d="M43.2654 48.4601H41.7639V49.9774H43.2654V48.4601Z" fill="#FF5A00"/>
<path d="M43.2654 46.956H41.7639V48.4575H43.2654V46.956Z" fill="#DB4B03"/>
<path d="M43.2654 45.4388H41.7639V46.956H43.2654V45.4388Z" fill="black"/>
<path d="M43.2654 39.4013H41.7639V40.9028H43.2654V39.4013Z" fill="black"/>
<path d="M43.2654 37.884H41.7639V39.4013H43.2654V37.884Z" fill="black"/>
<path d="M43.2654 36.3799H41.7639V37.8814H43.2654V36.3799Z" fill="#DB4B03"/>
<path d="M43.2654 34.8626H41.7639V36.3799H43.2654V34.8626Z" fill="#DB4B03"/>
<path d="M43.2654 33.3454H41.7639V34.8626H43.2654V33.3454Z" fill="black"/>
<path d="M43.2654 31.8439H41.7639V33.3454H43.2654V31.8439Z" fill="black"/>
<path d="M41.7639 80.1885H40.2466V81.69H41.7639V80.1885Z" fill="black"/>
<path d="M41.7639 78.6713H40.2466V80.1885H41.7639V78.6713Z" fill="#DB4B03"/>
<path d="M41.7639 77.1671H40.2466V78.6713H41.7639V77.1671Z" fill="#DB4B03"/>
<path d="M41.7639 75.6525H40.2466V77.1698H41.7639V75.6525Z" fill="#E54A05"/>
<path d="M41.7639 74.1484H40.2466V75.6499H41.7639V74.1484Z" fill="#E54A05"/>
<path d="M41.7639 72.6311H40.2466V74.1484H41.7639V72.6311Z" fill="#FF5A00"/>
<path d="M41.7639 71.1296H40.2466V72.6311H41.7639V71.1296Z" fill="#FF5A00"/>
<path d="M41.7639 69.6124H40.2466V71.1296H41.7639V69.6124Z" fill="#FF5A00"/>
<path d="M41.7639 68.0951H40.2466V69.6124H41.7639V68.0951Z" fill="#FF5A00"/>
<path d="M41.7639 66.591H40.2466V68.0951H41.7639V66.591Z" fill="#FF5A00"/>
<path d="M41.7639 65.0764H40.2466V66.5937H41.7639V65.0764Z" fill="#FF5A00"/>
<path d="M41.7639 63.5723H40.2466V65.0738H41.7639V63.5723Z" fill="#FF5A00"/>
<path d="M41.7639 62.055H40.2466V63.5723H41.7639V62.055Z" fill="#FF5A00"/>
<path d="M41.7639 60.5535H40.2466V62.055H41.7639V60.5535Z" fill="#FF5A00"/>
<path d="M41.7639 59.0363H40.2466V60.5535H41.7639V59.0363Z" fill="#FF5A00"/>
<path d="M41.7639 57.519H40.2466V59.0363H41.7639V57.519Z" fill="#FF5A00"/>
<path d="M41.7639 56.0149H40.2466V57.5164H41.7639V56.0149Z" fill="#FF5A00"/>
<path d="M41.7639 54.4976H40.2466V56.0149H41.7639V54.4976Z" fill="#FF5A00"/>
<path d="M41.7639 52.9961H40.2466V54.4976H41.7639V52.9961Z" fill="#DB4B03"/>
<path d="M41.7639 51.4789H40.2466V52.9961H41.7639V51.4789Z" fill="#DB4B03"/>
<path d="M41.7639 49.9774H40.2466V51.4789H41.7639V49.9774Z" fill="#DB4B03"/>
<path d="M41.7639 48.4601H40.2466V49.9774H41.7639V48.4601Z" fill="#DB4B03"/>
<path d="M41.7639 46.956H40.2466V48.4575H41.7639V46.956Z" fill="black"/>
<path d="M41.7639 36.3799H40.2466V37.8814H41.7639V36.3799Z" fill="black"/>
<path d="M41.7639 34.8626H40.2466V36.3799H41.7639V34.8626Z" fill="black"/>
<path d="M40.244 80.1885H38.7425V81.69H40.244V80.1885Z" fill="black"/>
<path d="M40.244 78.6713H38.7425V80.1885H40.244V78.6713Z" fill="black"/>
<path d="M40.244 77.1671H38.7425V78.6713H40.244V77.1671Z" fill="black"/>
<path d="M40.244 75.6525H38.7425V77.1698H40.244V75.6525Z" fill="black"/>
<path d="M40.244 74.1484H38.7425V75.6499H40.244V74.1484Z" fill="black"/>
<path d="M40.244 72.6311H38.7425V74.1484H40.244V72.6311Z" fill="black"/>
<path d="M40.244 71.1296H38.7425V72.6311H40.244V71.1296Z" fill="black"/>
<path d="M40.244 69.6124H38.7425V71.1296H40.244V69.6124Z" fill="black"/>
<path d="M40.244 68.0951H38.7425V69.6124H40.244V68.0951Z" fill="black"/>
<path d="M40.244 66.591H38.7425V68.0951H40.244V66.591Z" fill="black"/>
<path d="M40.244 65.0764H38.7425V66.5937H40.244V65.0764Z" fill="black"/>
<path d="M40.244 63.5723H38.7425V65.0738H40.244V63.5723Z" fill="black"/>
<path d="M40.244 62.055H38.7425V63.5723H40.244V62.055Z" fill="black"/>
<path d="M40.244 60.5535H38.7425V62.055H40.244V60.5535Z" fill="black"/>
<path d="M40.244 59.0363H38.7425V60.5535H40.244V59.0363Z" fill="black"/>
<path d="M40.244 57.519H38.7425V59.0363H40.244V57.519Z" fill="black"/>
<path d="M40.244 56.0149H38.7425V57.5164H40.244V56.0149Z" fill="black"/>
<path d="M40.244 54.4976H38.7425V56.0149H40.244V54.4976Z" fill="black"/>
<path d="M40.244 52.9961H38.7425V54.4976H40.244V52.9961Z" fill="black"/>
<path d="M40.244 51.4789H38.7425V52.9961H40.244V51.4789Z" fill="black"/>
<path d="M40.244 49.9774H38.7425V51.4789H40.244V49.9774Z" fill="black"/>
<path d="M40.244 48.4601H38.7425V49.9774H40.244V48.4601Z" fill="black"/>
<path d="M51.1614 41.9081H50.387V42.6825H51.1614V41.9081Z" fill="#E80037"/>
<path d="M51.1614 42.6825H50.387V43.4412H51.1614V42.6825Z" fill="#E80037"/>
<path d="M48.8697 44.1998H48.0954V44.9741H48.8697V44.1998Z" fill="#E80037"/>
<path d="M50.387 43.4412H49.6284V44.1998H50.387V43.4412Z" fill="#E80037"/>
<path d="M49.6284 44.1998H48.8697V44.9741H49.6284V44.1998Z" fill="#E80037"/>
<path d="M48.0954 43.4412H47.3367V44.1998H48.0954V43.4412Z" fill="#E80037"/>
<path d="M48.8697 43.4412H48.0954V44.1998H48.8697V43.4412Z" fill="#E80037"/>
<path d="M49.6284 43.4412H48.8697V44.1998H49.6284V43.4412Z" fill="#E80037"/>
<path d="M48.0954 42.6825H47.3367V43.4412H48.0954V42.6825Z" fill="#E80037"/>
<path d="M47.3367 41.9081H46.5624V42.6825H47.3367V41.9081Z" fill="#E80037"/>
<path d="M47.3367 42.6825H46.5624V43.4412H47.3367V42.6825Z" fill="#E80037"/>
<path d="M48.8697 42.6825H48.0954V43.4412H48.8697V42.6825Z" fill="#E80037"/>
<path d="M50.387 42.6825H49.6284V43.4412H50.387V42.6825Z" fill="#E80037"/>
<path d="M49.6284 42.6825H48.8697V43.4412H49.6284V42.6825Z" fill="#E80037"/>
<path d="M45.8037 38.0835H45.0451V38.8579H45.8037V38.0835Z" fill="#E80037"/>
<path d="M45.0451 38.8579H44.2707V39.6165H45.0451V38.8579Z" fill="#E80037"/>
<path d="M45.0451 38.0835H44.2707V38.8579H45.0451V38.0835Z" fill="#E80037"/>
<path d="M45.8037 38.8579H45.0451V39.6165H45.8037V38.8579Z" fill="#E80037"/>
<path d="M46.5624 38.8579H45.8037V39.6165H46.5624V38.8579Z" fill="#E80037"/>
<path d="M52.6944 37.3249H51.92V38.0835H52.6944V37.3249Z" fill="#E80037"/>
<path d="M51.92 37.3249H51.1614V38.0835H51.92V37.3249Z" fill="#E80037"/>
<path d="M51.1614 37.3249H50.387V38.0835H51.1614V37.3249Z" fill="#E80037"/>
<path d="M51.92 38.0835H51.1614V38.8579H51.92V38.0835Z" fill="#E80037"/>
<path d="M51.1614 38.8579H50.387V39.6165H51.1614V38.8579Z" fill="#E80037"/>
<path d="M51.1614 38.0835H50.387V38.8579H51.1614V38.0835Z" fill="#E80037"/>
<path d="M50.387 38.8579H49.6284V39.6165H50.387V38.8579Z" fill="#E80037"/>
<path d="M50.387 38.0835H49.6284V38.8579H50.387V38.0835Z" fill="#E80037"/>
<path d="M49.6284 38.8579H48.8697V39.6165H49.6284V38.8579Z" fill="#E80037"/>
<path d="M77.918 31.2086H77.162V31.9673H77.918V31.2086Z" fill="#360066"/>
<path d="M77.162 31.9673H76.3876V32.7416H77.162V31.9673Z" fill="#360066"/>
<path d="M76.3876 32.7416H75.629V33.5003H76.3876V32.7416Z" fill="#360066"/>
<path d="M75.629 33.5003H74.8704V34.2747H75.629V33.5003Z" fill="#360066"/>
<path d="M74.8704 34.2747H74.096V35.0333H74.8704V34.2747Z" fill="#360066"/>
<path d="M74.096 35.0333H73.3374V35.7919H74.096V35.0333Z" fill="#360066"/>
<path d="M74.096 36.5663H73.3374V37.3249H74.096V36.5663Z" fill="#270947"/>
<path d="M78.695 31.9673H77.9206V32.7416H78.695V31.9673Z" fill="#270947"/>
<path d="M78.695 30.45H77.9206V31.2086H78.695V30.45Z" fill="#360066"/>
<path d="M78.695 31.2086H77.9206V31.9673H78.695V31.2086Z" fill="#360066"/>
<path d="M77.918 32.7416H77.162V33.5003H77.918V32.7416Z" fill="#270947"/>
<path d="M77.918 31.9673H77.162V32.7416H77.918V31.9673Z" fill="#360066"/>
<path d="M77.162 33.5003H76.3876V34.2747H77.162V33.5003Z" fill="#270947"/>
<path d="M77.162 32.7416H76.3876V33.5003H77.162V32.7416Z" fill="#360066"/>
<path d="M76.3876 34.2747H75.629V35.0333H76.3876V34.2747Z" fill="#270947"/>
<path d="M76.3876 33.5003H75.629V34.2747H76.3876V33.5003Z" fill="#360066"/>
<path d="M75.629 34.2747H74.8704V35.0333H75.629V34.2747Z" fill="#360066"/>
<path d="M75.629 35.0333H74.8704V35.7919H75.629V35.0333Z" fill="#270947"/>
<path d="M74.8704 35.7919H74.096V36.5663H74.8704V35.7919Z" fill="#270947"/>
<path d="M74.8704 35.0333H74.096V35.7919H74.8704V35.0333Z" fill="#360066"/>
<path d="M74.096 35.7919H73.3374V36.5663H74.096V35.7919Z" fill="#360066"/>
<path d="M73.3374 35.7919H72.563V36.5663H73.3374V35.7919Z" fill="#360066"/>
<path d="M72.5604 36.5663H71.8044V37.3249H72.5604V36.5663Z" fill="#360066"/>
<path d="M71.8044 37.3249H71.0457V38.0835H71.8044V37.3249Z" fill="#360066"/>
<path d="M71.0457 39.6165H70.2714V40.3909H71.0457V39.6165Z" fill="#270947"/>
<path d="M71.0457 38.0835H70.2714V38.8579H71.0457V38.0835Z" fill="#360066"/>
<path d="M70.2714 40.3909H69.5127V41.1495H70.2714V40.3909Z" fill="#270947"/>
<path d="M73.3374 37.3249H72.563V38.0835H73.3374V37.3249Z" fill="#270947"/>
<path d="M73.3374 36.5663H72.563V37.3249H73.3374V36.5663Z" fill="#360066"/>
<path d="M72.5604 38.0835H71.8044V38.8579H72.5604V38.0835Z" fill="#270947"/>
<path d="M72.5604 37.3249H71.8044V38.0835H72.5604V37.3249Z" fill="#360066"/>
<path d="M71.8044 38.0835H71.0457V38.8579H71.8044V38.0835Z" fill="#360066"/>
<path d="M71.8044 38.8579H71.0457V39.6165H71.8044V38.8579Z" fill="#270947"/>
<path d="M71.0457 38.8579H70.2714V39.6165H71.0457V38.8579Z" fill="#360066"/>
<path d="M70.2714 38.8579H69.5127V39.6165H70.2714V38.8579Z" fill="#360066"/>
<path d="M70.2714 39.6165H69.5127V40.3909H70.2714V39.6165Z" fill="#360066"/>
<path d="M69.5127 40.3909H68.7541V41.1495H69.5127V40.3909Z" fill="#360066"/>
<path d="M69.5127 39.6165H68.7541V40.3909H69.5127V39.6165Z" fill="#360066"/>
<path d="M69.5127 41.1495H68.7541V41.9081H69.5127V41.1495Z" fill="#270947"/>
<path d="M68.7541 41.9081H67.9798V42.6825H68.7541V41.9081Z" fill="#270947"/>
<path d="M68.7541 41.1495H67.9798V41.9081H68.7541V41.1495Z" fill="#360066"/>
<path d="M68.7541 40.3909H67.9798V41.1495H68.7541V40.3909Z" fill="#360066"/>
<path d="M67.9771 41.9081H67.2211V42.6825H67.9771V41.9081Z" fill="#360066"/>
<path d="M67.9771 41.1495H67.2211V41.9081H67.9771V41.1495Z" fill="#360066"/>
<path d="M80.2122 35.0333H79.4536V35.7919H80.2122V35.0333Z" fill="black"/>
<path d="M80.2122 33.5003H79.4536V34.2747H80.2122V33.5003Z" fill="black"/>
<path d="M79.4536 35.7919H78.695V36.5663H79.4536V35.7919Z" fill="black"/>
<path d="M79.4536 35.0333H78.695V35.7919H79.4536V35.0333Z" fill="black"/>
<path d="M79.4536 34.2747H78.695V35.0333H79.4536V34.2747Z" fill="black"/>
<path d="M79.4536 33.5003H78.695V34.2747H79.4536V33.5003Z" fill="black"/>
<path d="M79.4536 32.7416H78.695V33.5003H79.4536V32.7416Z" fill="black"/>
<path d="M79.4536 31.9673H78.695V32.7416H79.4536V31.9673Z" fill="black"/>
<path d="M79.4536 31.2086H78.695V31.9673H79.4536V31.2086Z" fill="black"/>
<path d="M79.4536 30.45H78.695V31.2086H79.4536V30.45Z" fill="black"/>
<path d="M79.4536 29.6756H78.695V30.45H79.4536V29.6756Z" fill="black"/>
<path d="M79.4536 28.917H78.695V29.6756H79.4536V28.917Z" fill="black"/>
<path d="M78.695 32.7416H77.9206V33.5003H78.695V32.7416Z" fill="black"/>
<path d="M78.695 29.6756H77.9206V30.45H78.695V29.6756Z" fill="black"/>
<path d="M78.695 28.917H77.9206V29.6756H78.695V28.917Z" fill="black"/>
<path d="M78.695 28.1426H77.9206V28.917H78.695V28.1426Z" fill="black"/>
<path d="M77.918 37.3249H77.162V38.0835H77.918V37.3249Z" fill="black"/>
<path d="M77.918 35.0333H77.162V35.7919H77.918V35.0333Z" fill="black"/>
<path d="M77.918 33.5003H77.162V34.2747H77.918V33.5003Z" fill="black"/>
<path d="M77.918 30.45H77.162V31.2086H77.918V30.45Z" fill="black"/>
<path d="M77.162 37.3249H76.3876V38.0835H77.162V37.3249Z" fill="black"/>
<path d="M77.162 36.5663H76.3876V37.3249H77.162V36.5663Z" fill="black"/>
<path d="M77.162 35.7919H76.3876V36.5663H77.162V35.7919Z" fill="black"/>
<path d="M77.162 35.0333H76.3876V35.7919H77.162V35.0333Z" fill="black"/>
<path d="M77.162 34.2747H76.3876V35.0333H77.162V34.2747Z" fill="black"/>
<path d="M77.162 31.2086H76.3876V31.9673H77.162V31.2086Z" fill="black"/>
<path d="M76.3876 35.0333H75.629V35.7919H76.3876V35.0333Z" fill="black"/>
<path d="M76.3876 31.9673H75.629V32.7416H76.3876V31.9673Z" fill="black"/>
<path d="M75.629 38.8579H74.8704V39.6165H75.629V38.8579Z" fill="black"/>
<path d="M75.629 37.3249H74.8704V38.0835H75.629V37.3249Z" fill="black"/>
<path d="M75.629 35.7919H74.8704V36.5663H75.629V35.7919Z" fill="black"/>
<path d="M75.629 32.7416H74.8704V33.5003H75.629V32.7416Z" fill="black"/>
<path d="M74.8704 72.5078H74.096V73.2664H74.8704V72.5078Z" fill="black"/>
<path d="M74.8704 71.7334H74.096V72.5078H74.8704V71.7334Z" fill="black"/>
<path d="M74.8704 39.6165H74.096V40.3909H74.8704V39.6165Z" fill="black"/>
<path d="M74.8704 38.8579H74.096V39.6165H74.8704V38.8579Z" fill="black"/>
<path d="M74.8704 38.0835H74.096V38.8579H74.8704V38.0835Z" fill="black"/>
<path d="M74.8704 37.3249H74.096V38.0835H74.8704V37.3249Z" fill="black"/>
<path d="M74.8704 36.5663H74.096V37.3249H74.8704V36.5663Z" fill="black"/>
<path d="M74.8704 33.5003H74.096V34.2747H74.8704V33.5003Z" fill="black"/>
<path d="M74.096 72.5078H73.3374V73.2664H74.096V72.5078Z" fill="black"/>
<path d="M74.096 71.7334H73.3374V72.5078H74.096V71.7334Z" fill="#525D6D"/>
<path d="M74.096 70.9748H73.3374V71.7334H74.096V70.9748Z" fill="black"/>
<path d="M74.096 44.9741H73.3374V45.7328H74.096V44.9741Z" fill="black"/>
<path d="M74.096 43.4412H73.3374V44.1998H74.096V43.4412Z" fill="black"/>
<path d="M74.096 41.9081H73.3374V42.6825H74.096V41.9081Z" fill="black"/>
<path d="M74.096 37.3249H73.3374V38.0835H74.096V37.3249Z" fill="black"/>
<path d="M74.096 34.2747H73.3374V35.0333H74.096V34.2747Z" fill="black"/>
<path d="M73.3374 71.7334H72.563V72.5078H73.3374V71.7334Z" fill="black"/>
<path d="M73.3374 70.9748H72.563V71.7334H73.3374V70.9748Z" fill="#525D6D"/>
<path d="M73.3374 70.2004H72.563V70.9748H73.3374V70.2004Z" fill="black"/>
<path d="M73.3374 45.7328H72.563V46.5071H73.3374V45.7328Z" fill="black"/>
<path d="M73.3374 44.9741H72.563V45.7328H73.3374V44.9741Z" fill="black"/>
<path d="M73.3374 44.1998H72.563V44.9741H73.3374V44.1998Z" fill="black"/>
<path d="M73.3374 43.4412H72.563V44.1998H73.3374V43.4412Z" fill="black"/>
<path d="M73.3374 42.6825H72.563V43.4412H73.3374V42.6825Z" fill="black"/>
<path d="M73.3374 41.9081H72.563V42.6825H73.3374V41.9081Z" fill="black"/>
<path d="M73.3374 41.1495H72.563V41.9081H73.3374V41.1495Z" fill="black"/>
<path d="M73.3374 40.3909H72.563V41.1495H73.3374V40.3909Z" fill="black"/>
<path d="M73.3374 39.6165H72.563V40.3909H73.3374V39.6165Z" fill="black"/>
<path d="M73.3374 38.8579H72.563V39.6165H73.3374V38.8579Z" fill="black"/>
<path d="M73.3374 38.0835H72.563V38.8579H73.3374V38.0835Z" fill="black"/>
<path d="M73.3374 35.0333H72.563V35.7919H73.3374V35.0333Z" fill="black"/>
<path d="M72.5604 70.9748H71.8044V71.7334H72.5604V70.9748Z" fill="black"/>
<path d="M72.5604 70.2004H71.8044V70.9748H72.5604V70.2004Z" fill="#525D6D"/>
<path d="M72.5604 69.4418H71.8044V70.1978H72.5604V69.4418Z" fill="black"/>
<path d="M72.5604 38.8579H71.8044V39.6165H72.5604V38.8579Z" fill="black"/>
<path d="M72.5604 35.7919H71.8044V36.5663H72.5604V35.7919Z" fill="black"/>
<path d="M71.8044 70.2004H71.0457V70.9748H71.8044V70.2004Z" fill="black"/>
<path d="M71.8044 69.4418H71.0457V70.1978H71.8044V69.4418Z" fill="#525D6D"/>
<path d="M71.8044 68.6832H71.0457V69.4418H71.8044V68.6832Z" fill="black"/>
<path d="M71.8044 39.6165H71.0457V40.3909H71.8044V39.6165Z" fill="black"/>
<path d="M71.8044 36.5663H71.0457V37.3249H71.8044V36.5663Z" fill="black"/>
<path d="M71.0457 69.4418H70.2714V70.1978H71.0457V69.4418Z" fill="black"/>
<path d="M71.0457 68.6832H70.2714V69.4418H71.0457V68.6832Z" fill="#525D6D"/>
<path d="M71.0457 67.9088H70.2714V68.6832H71.0457V67.9088Z" fill="black"/>
<path d="M71.0457 40.3909H70.2714V41.1495H71.0457V40.3909Z" fill="black"/>
<path d="M71.0457 37.3249H70.2714V38.0835H71.0457V37.3249Z" fill="black"/>
<path d="M70.2714 41.1495H69.5127V41.9081H70.2714V41.1495Z" fill="black"/>
<path d="M70.2714 38.0835H69.5127V38.8579H70.2714V38.0835Z" fill="black"/>
<path d="M69.5127 41.9081H68.7541V42.6825H69.5127V41.9081Z" fill="black"/>
<path d="M69.5127 38.8579H68.7541V39.6165H69.5127V38.8579Z" fill="black"/>
<path d="M68.7541 43.4412H67.9798V44.1998H68.7541V43.4412Z" fill="black"/>
<path d="M68.7541 42.6825H67.9798V43.4412H68.7541V42.6825Z" fill="black"/>
<path d="M68.7541 39.6165H67.9798V40.3909H68.7541V39.6165Z" fill="black"/>
<path d="M67.9771 43.4412H67.2211V44.1998H67.9771V43.4412Z" fill="black"/>
<path d="M67.9771 42.6825H67.2211V43.4412H67.9771V42.6825Z" fill="black"/>
<path d="M67.9771 40.3909H67.2211V41.1495H67.9771V40.3909Z" fill="black"/>
<path d="M67.2211 41.9081H66.4467V42.6825H67.2211V41.9081Z" fill="black"/>
<path d="M67.2211 41.1495H66.4467V41.9081H67.2211V41.1495Z" fill="black"/>
<path d="M66.4467 41.9081H65.6881V42.6825H66.4467V41.9081Z" fill="black"/>
<path d="M42.7535 44.9741H41.9791V45.7328H42.7535V44.9741Z" fill="black"/>
<path d="M41.9791 45.7328H41.2205V46.5071H41.9791V45.7328Z" fill="black"/>
<path d="M41.9791 44.9741H41.2205V45.7328H41.9791V44.9741Z" fill="#525D6D"/>
<path d="M41.9791 44.1998H41.2205V44.9741H41.9791V44.1998Z" fill="black"/>
<path d="M41.2205 44.9741H40.4461V45.7328H41.2205V44.9741Z" fill="black"/>
<path d="M41.2205 44.1998H40.4461V44.9741H41.2205V44.1998Z" fill="#525D6D"/>
<path d="M41.2205 43.4412H40.4461V44.1998H41.2205V43.4412Z" fill="black"/>
<path d="M40.4461 44.1998H39.6875V44.9741H40.4461V44.1998Z" fill="black"/>
<path d="M40.4461 43.4412H39.6875V44.1998H40.4461V43.4412Z" fill="#525D6D"/>
<path d="M40.4461 42.6825H39.6875V43.4412H40.4461V42.6825Z" fill="black"/>
<path d="M39.6875 43.4412H38.9289V44.1998H39.6875V43.4412Z" fill="black"/>
<path d="M39.6875 42.6825H38.9289V43.4412H39.6875V42.6825Z" fill="#525D6D"/>
<path d="M39.6875 41.9081H38.9289V42.6825H39.6875V41.9081Z" fill="black"/>
<path d="M38.9289 72.5078H38.1545V73.2664H38.9289V72.5078Z" fill="black"/>
<path d="M38.9289 71.7334H38.1545V72.5078H38.9289V71.7334Z" fill="#360066"/>
<path d="M38.9289 70.9748H38.1545V71.7334H38.9289V70.9748Z" fill="#360066"/>
<path d="M38.9289 70.2004H38.1545V70.9748H38.9289V70.2004Z" fill="#360066"/>
<path d="M38.9289 69.4418H38.1545V70.1978H38.9289V69.4418Z" fill="black"/>
<path d="M38.9289 42.6825H38.1545V43.4412H38.9289V42.6825Z" fill="black"/>
<path d="M38.9289 41.9081H38.1545V42.6825H38.9289V41.9081Z" fill="#525D6D"/>
<path d="M38.9289 41.1495H38.1545V41.9081H38.9289V41.1495Z" fill="black"/>
<path d="M38.1545 72.5078H37.3959V73.2664H38.1545V72.5078Z" fill="black"/>
<path d="M38.1545 71.7334H37.3959V72.5078H38.1545V71.7334Z" fill="#360066"/>
<path d="M38.1545 70.9748H37.3959V71.7334H38.1545V70.9748Z" fill="#360066"/>
<path d="M38.1545 70.2004H37.3959V70.9748H38.1545V70.2004Z" fill="#360066"/>
<path d="M38.1545 69.4418H37.3959V70.1978H38.1545V69.4418Z" fill="black"/>
<path d="M38.1545 42.6825H37.3959V43.4412H38.1545V42.6825Z" fill="black"/>
<path d="M38.1545 41.9081H37.3959V42.6825H38.1545V41.9081Z" fill="black"/>
<path d="M38.1545 41.1495H37.3959V41.9081H38.1545V41.1495Z" fill="#525D6D"/>
<path d="M38.1545 40.3909H37.3959V41.1495H38.1545V40.3909Z" fill="black"/>
<path d="M37.3959 74.025H36.6372V74.7994H37.3959V74.025Z" fill="black"/>
<path d="M37.3959 73.2664H36.6372V74.025H37.3959V73.2664Z" fill="black"/>
<path d="M37.3959 72.5078H36.6372V73.2664H37.3959V72.5078Z" fill="black"/>
<path d="M37.3959 71.7334H36.6372V72.5078H37.3959V71.7334Z" fill="#360066"/>
<path d="M37.3959 70.9748H36.6372V71.7334H37.3959V70.9748Z" fill="#360066"/>
<path d="M37.3959 70.2004H36.6372V70.9748H37.3959V70.2004Z" fill="#360066"/>
<path d="M37.3959 69.4418H36.6372V70.1978H37.3959V69.4418Z" fill="black"/>
<path d="M37.3959 42.6825H36.6372V43.4412H37.3959V42.6825Z" fill="black"/>
<path d="M37.3959 41.9081H36.6372V42.6825H37.3959V41.9081Z" fill="#4A535E"/>
<path d="M37.3959 41.1495H36.6372V41.9081H37.3959V41.1495Z" fill="black"/>
<path d="M37.3959 40.3909H36.6372V41.1495H37.3959V40.3909Z" fill="#525D6D"/>
<path d="M37.3959 39.6165H36.6372V40.3909H37.3959V39.6165Z" fill="black"/>
<path d="M36.6372 74.025H35.8629V74.7994H36.6372V74.025Z" fill="black"/>
<path d="M36.6372 73.2664H35.8629V74.025H36.6372V73.2664Z" fill="#360066"/>
<path d="M36.6372 72.5078H35.8629V73.2664H36.6372V72.5078Z" fill="black"/>
<path d="M36.6372 71.7334H35.8629V72.5078H36.6372V71.7334Z" fill="black"/>
<path d="M36.6372 70.9748H35.8629V71.7334H36.6372V70.9748Z" fill="black"/>
<path d="M36.6372 70.2004H35.8629V70.9748H36.6372V70.2004Z" fill="black"/>
<path d="M36.6372 69.4418H35.8629V70.1978H36.6372V69.4418Z" fill="black"/>
<path d="M36.6372 64.0842H35.8629V64.8585H36.6372V64.0842Z" fill="black"/>
<path d="M36.6372 42.6825H35.8629V43.4412H36.6372V42.6825Z" fill="black"/>
<path d="M36.6372 41.9081H35.8629V42.6825H36.6372V41.9081Z" fill="#4A535E"/>
<path d="M36.6372 41.1495H35.8629V41.9081H36.6372V41.1495Z" fill="#5F646D"/>
<path d="M36.6372 40.3909H35.8629V41.1495H36.6372V40.3909Z" fill="black"/>
<path d="M36.6372 39.6165H35.8629V40.3909H36.6372V39.6165Z" fill="#525D6D"/>
<path d="M36.6372 38.8579H35.8629V39.6165H36.6372V38.8579Z" fill="black"/>
<path d="M35.8629 74.025H35.1042V74.7994H35.8629V74.025Z" fill="black"/>
<path d="M35.8629 73.2664H35.1042V74.025H35.8629V73.2664Z" fill="#360066"/>
<path d="M35.8629 72.5078H35.1042V73.2664H35.8629V72.5078Z" fill="#360066"/>
<path d="M35.8629 71.7334H35.1042V72.5078H35.8629V71.7334Z" fill="#360066"/>
<path d="M35.8629 70.9748H35.1042V71.7334H35.8629V70.9748Z" fill="black"/>
<path d="M35.8629 64.0842H35.1042V64.8585H35.8629V64.0842Z" fill="black"/>
<path d="M35.8629 63.3255H35.1042V64.0842H35.8629V63.3255Z" fill="black"/>
<path d="M35.8629 43.4412H35.1042V44.1998H35.8629V43.4412Z" fill="black"/>
<path d="M35.8629 42.6825H35.1042V43.4412H35.8629V42.6825Z" fill="#4A535E"/>
<path d="M35.8629 41.9081H35.1042V42.6825H35.8629V41.9081Z" fill="#4A535E"/>
<path d="M35.8629 41.1495H35.1042V41.9081H35.8629V41.1495Z" fill="#5F646D"/>
<path d="M35.8629 40.3909H35.1042V41.1495H35.8629V40.3909Z" fill="#5F646D"/>
<path d="M35.8629 39.6165H35.1042V40.3909H35.8629V39.6165Z" fill="black"/>
<path d="M35.8629 38.8579H35.1042V39.6165H35.8629V38.8579Z" fill="#525D6D"/>
<path d="M35.8629 38.0835H35.1042V38.8579H35.8629V38.0835Z" fill="black"/>
<path d="M35.1042 74.025H34.3299V74.7994H35.1042V74.025Z" fill="black"/>
<path d="M35.1042 73.2664H34.3299V74.025H35.1042V73.2664Z" fill="black"/>
<path d="M35.1042 72.5078H34.3299V73.2664H35.1042V72.5078Z" fill="black"/>
<path d="M35.1042 71.7334H34.3299V72.5078H35.1042V71.7334Z" fill="black"/>
<path d="M35.1042 70.9748H34.3299V71.7334H35.1042V70.9748Z" fill="black"/>
<path d="M35.1042 64.0842H34.3299V64.8585H35.1042V64.0842Z" fill="black"/>
<path d="M35.1042 63.3255H34.3299V64.0842H35.1042V63.3255Z" fill="#4A535E"/>
<path d="M35.1042 62.5669H34.3299V63.3255H35.1042V62.5669Z" fill="black"/>
<path d="M35.1042 43.4412H34.3299V44.1998H35.1042V43.4412Z" fill="black"/>
<path d="M35.1042 42.6825H34.3299V43.4412H35.1042V42.6825Z" fill="#4A535E"/>
<path d="M35.1042 41.9081H34.3299V42.6825H35.1042V41.9081Z" fill="#5F646D"/>
<path d="M35.1042 41.1495H34.3299V41.9081H35.1042V41.1495Z" fill="#5F646D"/>
<path d="M35.1042 40.3909H34.3299V41.1495H35.1042V40.3909Z" fill="#5F646D"/>
<path d="M35.1042 39.6165H34.3299V40.3909H35.1042V39.6165Z" fill="black"/>
<path d="M35.1042 38.8579H34.3299V39.6165H35.1042V38.8579Z" fill="black"/>
<path d="M35.1042 38.0835H34.3299V38.8579H35.1042V38.0835Z" fill="#525D6D"/>
<path d="M35.1042 37.3249H34.3299V38.0835H35.1042V37.3249Z" fill="black"/>
<path d="M34.3299 64.0842H33.5712V64.8585H34.3299V64.0842Z" fill="black"/>
<path d="M34.3299 63.3255H33.5712V64.0842H34.3299V63.3255Z" fill="#4A535E"/>
<path d="M34.3299 62.5669H33.5712V63.3255H34.3299V62.5669Z" fill="#4A535E"/>
<path d="M34.3299 61.7925H33.5712V62.5669H34.3299V61.7925Z" fill="black"/>
<path d="M34.3299 44.1998H33.5712V44.9741H34.3299V44.1998Z" fill="black"/>
<path d="M34.3299 43.4412H33.5712V44.1998H34.3299V43.4412Z" fill="#4A535E"/>
<path d="M34.3299 42.6825H33.5712V43.4412H34.3299V42.6825Z" fill="#4A535E"/>
<path d="M34.3299 41.9081H33.5712V42.6825H34.3299V41.9081Z" fill="#5F646D"/>
<path d="M34.3299 41.1495H33.5712V41.9081H34.3299V41.1495Z" fill="#5F646D"/>
<path d="M34.3299 40.3909H33.5712V41.1495H34.3299V40.3909Z" fill="#5F646D"/>
<path d="M34.3299 39.6165H33.5712V40.3909H34.3299V39.6165Z" fill="#4A535E"/>
<path d="M34.3299 38.8579H33.5712V39.6165H34.3299V38.8579Z" fill="black"/>
<path d="M34.3299 38.0835H33.5712V38.8579H34.3299V38.0835Z" fill="#525D6D"/>
<path d="M34.3299 37.3249H33.5712V38.0835H34.3299V37.3249Z" fill="black"/>
<path d="M33.5712 63.3255H32.8126V64.0841L33.5712 64.0842V63.3255Z" fill="black"/>
<path d="M33.5712 62.5669H32.8126V63.3255H33.5712V62.5669Z" fill="#4A535E"/>
<path d="M33.5712 61.7925H32.8126V62.5669H33.5712V61.7925Z" fill="#4A535E"/>
<path d="M33.5712 61.0339H32.8126V61.7925H33.5712V61.0339Z" fill="black"/>
<path d="M33.5712 60.2753H32.8126V61.0313H33.5712V60.2753Z" fill="black"/>
<path d="M33.5712 44.1998H32.8126V44.9741H33.5712V44.1998Z" fill="black"/>
<path d="M33.5712 43.4412H32.8126V44.1998H33.5712V43.4412Z" fill="#4A535E"/>
<path d="M33.5712 42.6825H32.8126V43.4412H33.5712V42.6825Z" fill="#5F646D"/>
<path d="M33.5712 41.9081H32.8126V42.6825H33.5712V41.9081Z" fill="#5F646D"/>
<path d="M33.5712 41.1495H32.8126V41.9081H33.5712V41.1495Z" fill="#5F646D"/>
<path d="M33.5712 40.3909H32.8126V41.1495H33.5712V40.3909Z" fill="#5F646D"/>
<path d="M33.5712 39.6165H32.8126V40.3909H33.5712V39.6165Z" fill="#4A535E"/>
<path d="M33.5712 38.8579H32.8126V39.6165H33.5712V38.8579Z" fill="black"/>
<path d="M33.5712 38.0835H32.8126V38.8579H33.5712V38.0835Z" fill="#525D6D"/>
<path d="M33.5712 37.3249H32.8126V38.0835H33.5712V37.3249Z" fill="black"/>
<path d="M32.8126 63.3255H32.0382V64.0841H32.8126V63.3255Z" fill="black"/>
<path d="M32.8126 62.5669H32.0382V63.3255H32.8126V62.5669Z" fill="#4A535E"/>
<path d="M32.8126 61.7925H32.0382V62.5669H32.8126V61.7925Z" fill="#4A535E"/>
<path d="M32.8126 61.0339H32.0382V61.7925H32.8126V61.0339Z" fill="#4A535E"/>
<path d="M32.8126 60.2753H32.0382V61.0313H32.8126V60.2753Z" fill="#4A535E"/>
<path d="M32.8126 59.5009H32.0382V60.2753H32.8126V59.5009Z" fill="black"/>
<path d="M32.8126 58.7423H32.0382V59.5009H32.8126V58.7423Z" fill="black"/>
<path d="M32.8126 44.9741H32.0382V45.7328H32.8126V44.9741Z" fill="black"/>
<path d="M32.8126 44.1998H32.0382V44.9741H32.8126V44.1998Z" fill="#4A535E"/>
<path d="M32.8126 43.4412H32.0382V44.1998H32.8126V43.4412Z" fill="#4A535E"/>
<path d="M32.8126 42.6825H32.0382V43.4412H32.8126V42.6825Z" fill="#5F646D"/>
<path d="M32.8126 41.9081H32.0382V42.6825H32.8126V41.9081Z" fill="#5F646D"/>
<path d="M32.8126 41.1495H32.0382V41.9081H32.8126V41.1495Z" fill="#5F646D"/>
<path d="M32.8126 40.3909H32.0382V41.1495H32.8126V40.3909Z" fill="#5F646D"/>
<path d="M32.8126 39.6165H32.0382V40.3909H32.8126V39.6165Z" fill="#4A535E"/>
<path d="M32.8126 38.8579H32.0382V39.6165H32.8126V38.8579Z" fill="#4A535E"/>
<path d="M32.8126 38.0835H32.0382V38.8579H32.8126V38.0835Z" fill="black"/>
<path d="M32.0382 63.3255H31.2796V64.0841H32.0382V63.3255Z" fill="black"/>
<path d="M32.0382 62.5669H31.2796V63.3255H32.0382V62.5669Z" fill="#4A535E"/>
<path d="M32.0382 61.7925H31.2796V62.5669H32.0382V61.7925Z" fill="#4A535E"/>
<path d="M32.0382 61.0339H31.2796V61.7925H32.0382V61.0339Z" fill="#5F646D"/>
<path d="M32.0382 60.2753H31.2796V61.0313H32.0382V60.2753Z" fill="#4A535E"/>
<path d="M32.0382 59.5009H31.2796V60.2753H32.0382V59.5009Z" fill="#4A535E"/>
<path d="M32.0382 58.7423H31.2796V59.5009H32.0382V58.7423Z" fill="#4A535E"/>
<path d="M32.0382 57.9679H31.2796V58.7423H32.0382V57.9679Z" fill="black"/>
<path d="M32.0382 57.2093H31.2796V57.9679H32.0382V57.2093Z" fill="black"/>
<path d="M32.0382 45.7328H31.2796V46.5071H32.0382V45.7328Z" fill="black"/>
<path d="M32.0382 44.9741H31.2796V45.7328H32.0382V44.9741Z" fill="#4A535E"/>
<path d="M32.0382 44.1998H31.2796V44.9741H32.0382V44.1998Z" fill="#4A535E"/>
<path d="M32.0382 43.4412H31.2796V44.1998H32.0382V43.4412Z" fill="#5F646D"/>
<path d="M32.0382 42.6825H31.2796V43.4412H32.0382V42.6825Z" fill="#5F646D"/>
<path d="M32.0382 41.9081H31.2796V42.6825H32.0382V41.9081Z" fill="#5F646D"/>
<path d="M32.0382 41.1495H31.2796V41.9081H32.0382V41.1495Z" fill="#5F646D"/>
<path d="M32.0382 40.3909H31.2796V41.1495H32.0382V40.3909Z" fill="#5F646D"/>
<path d="M32.0382 39.6165H31.2796V40.3909H32.0382V39.6165Z" fill="#4A535E"/>
<path d="M32.0382 38.8579H31.2796V39.6165H32.0382V38.8579Z" fill="#4A535E"/>
<path d="M32.0382 38.0835H31.2796V38.8579H32.0382V38.0835Z" fill="black"/>
<path d="M31.2796 62.5669H30.5052V63.3255L31.2796 63.3255V62.5669Z" fill="black"/>
<path d="M31.2796 61.7925H30.5052V62.5669H31.2796V61.7925Z" fill="#4A535E"/>
<path d="M31.2796 61.0339H30.5052V61.7925H31.2796V61.0339Z" fill="#5F646D"/>
<path d="M31.2796 60.2753H30.5052V61.0313H31.2796V60.2753Z" fill="#5F646D"/>
<path d="M31.2796 59.5009H30.5052V60.2753H31.2796V59.5009Z" fill="#5F646D"/>
<path d="M31.2796 58.7423H30.5052V59.5009H31.2796V58.7423Z" fill="#4A535E"/>
<path d="M31.2796 57.9679H30.5052V58.7423H31.2796V57.9679Z" fill="#5F646D"/>
<path d="M31.2796 57.2093H30.5052V57.9679H31.2796V57.2093Z" fill="#5F646D"/>
<path d="M31.2796 56.4506H30.5052V57.2093H31.2796V56.4506Z" fill="black"/>
<path d="M31.2796 55.6763H30.5052V56.4506H31.2796V55.6763Z" fill="black"/>
<path d="M31.2796 46.5071H30.5052V47.2658H31.2796V46.5071Z" fill="black"/>
<path d="M31.2796 45.7328H30.5052V46.5071H31.2796V45.7328Z" fill="#4A535E"/>
<path d="M31.2796 44.9741H30.5052V45.7328H31.2796V44.9741Z" fill="#4A535E"/>
<path d="M31.2796 44.1998H30.5052V44.9741H31.2796V44.1998Z" fill="#5F646D"/>
<path d="M31.2796 43.4412H30.5052V44.1998H31.2796V43.4412Z" fill="#5F646D"/>
<path d="M31.2796 42.6825H30.5052V43.4412H31.2796V42.6825Z" fill="#5F646D"/>
<path d="M31.2796 41.9081H30.5052V42.6825H31.2796V41.9081Z" fill="#5F646D"/>
<path d="M31.2796 41.1495H30.5052V41.9081H31.2796V41.1495Z" fill="#4A535E"/>
<path d="M31.2796 40.3909H30.5052V41.1495H31.2796V40.3909Z" fill="#4A535E"/>
<path d="M31.2796 39.6165H30.5052V40.3909H31.2796V39.6165Z" fill="#4A535E"/>
<path d="M31.2796 38.8579H30.5052V39.6165H31.2796V38.8579Z" fill="black"/>
<path d="M30.5052 62.5669H29.7466V63.3255H30.5052V62.5669Z" fill="black"/>
<path d="M30.5052 61.7925H29.7466V62.5669H30.5052V61.7925Z" fill="#4A535E"/>
<path d="M30.5052 61.0339H29.7466V61.7925H30.5052V61.0339Z" fill="#4A535E"/>
<path d="M30.5052 60.2753H29.7466V61.0313H30.5052V60.2753Z" fill="#5F646D"/>
<path d="M30.5052 59.5009H29.7466V60.2753H30.5052V59.5009Z" fill="#5F646D"/>
<path d="M30.5052 58.7423H29.7466V59.5009H30.5052V58.7423Z" fill="#5F646D"/>
<path d="M30.5052 57.9679H29.7466V58.7423H30.5052V57.9679Z" fill="#5F646D"/>
<path d="M30.5052 57.2093H29.7466V57.9679H30.5052V57.2093Z" fill="#5F646D"/>
<path d="M30.5052 56.4506H29.7466V57.2093H30.5052V56.4506Z" fill="#5F646D"/>
<path d="M30.5052 55.6763H29.7466V56.4506H30.5052V55.6763Z" fill="#5F646D"/>
<path d="M30.5052 54.9176H29.7466V55.6736H30.5052V54.9176Z" fill="black"/>
<path d="M30.5052 54.1433H29.7466V54.9176H30.5052V54.1433Z" fill="black"/>
<path d="M30.5052 53.3846H29.7466V54.1433H30.5052V53.3846Z" fill="black"/>
<path d="M30.5052 47.2658H29.7466V48.0244H30.5052V47.2658Z" fill="black"/>
<path d="M30.5052 46.5071H29.7466V47.2658H30.5052V46.5071Z" fill="#4A535E"/>
<path d="M30.5052 45.7328H29.7466V46.5071H30.5052V45.7328Z" fill="#4A535E"/>
<path d="M30.5052 44.9741H29.7466V45.7328H30.5052V44.9741Z" fill="#4A535E"/>
<path d="M30.5052 44.1998H29.7466V44.9741H30.5052V44.1998Z" fill="#5F646D"/>
<path d="M30.5052 43.4412H29.7466V44.1998H30.5052V43.4412Z" fill="#5F646D"/>
<path d="M30.5052 42.6825H29.7466V43.4412H30.5052V42.6825Z" fill="#5F646D"/>
<path d="M30.5052 41.9081H29.7466V42.6825H30.5052V41.9081Z" fill="#5F646D"/>
<path d="M30.5052 41.1495H29.7466V41.9081H30.5052V41.1495Z" fill="#4A535E"/>
<path d="M30.5052 40.3909H29.7466V41.1495H30.5052V40.3909Z" fill="#4A535E"/>
<path d="M30.5052 39.6165H29.7466V40.3909H30.5052V39.6165Z" fill="black"/>
<path d="M29.7466 61.7925H28.988V62.5669H29.7466V61.7925Z" fill="black"/>
<path d="M29.7466 61.0339H28.988V61.7925H29.7466V61.0339Z" fill="black"/>
<path d="M29.7466 60.2753H28.988V61.0313H29.7466V60.2753Z" fill="#4A535E"/>
<path d="M29.7466 59.5009H28.988V60.2753H29.7466V59.5009Z" fill="#5F646D"/>
<path d="M29.7466 58.7423H28.988V59.5009H29.7466V58.7423Z" fill="#5F646D"/>
<path d="M29.7466 57.9679H28.988V58.7423H29.7466V57.9679Z" fill="#5F646D"/>
<path d="M29.7466 57.2093H28.988V57.9679H29.7466V57.2093Z" fill="#5F646D"/>
<path d="M29.7466 56.4506H28.988V57.2093H29.7466V56.4506Z" fill="#5F646D"/>
<path d="M29.7466 55.6763H28.988V56.4506H29.7466V55.6763Z" fill="#5F646D"/>
<path d="M29.7466 54.9176H28.988V55.6736H29.7466V54.9176Z" fill="#5F646D"/>
<path d="M29.7466 54.1433H28.988V54.9176H29.7466V54.1433Z" fill="#4A535E"/>
<path d="M29.7466 53.3846H28.988V54.1433H29.7466V53.3846Z" fill="#5F646D"/>
<path d="M29.7466 52.6234H28.988V53.382H29.7466V52.6234Z" fill="black"/>
<path d="M29.7466 51.8516H28.988V52.626H29.7466V51.8516Z" fill="black"/>
<path d="M29.7466 49.5574H28.988V50.3318H29.7466V49.5574Z" fill="black"/>
<path d="M29.7466 48.7988H28.988V49.5574H29.7466V48.7988Z" fill="black"/>
<path d="M29.7466 48.0244H28.988V48.7988H29.7466V48.0244Z" fill="black"/>
<path d="M29.7466 47.2658H28.988V48.0244H29.7466V47.2658Z" fill="#4A535E"/>
<path d="M29.7466 46.5071H28.988V47.2658H29.7466V46.5071Z" fill="#4A535E"/>
<path d="M29.7466 45.7328H28.988V46.5071H29.7466V45.7328Z" fill="#5F646D"/>
<path d="M29.7466 44.9741H28.988V45.7328H29.7466V44.9741Z" fill="#5F646D"/>
<path d="M29.7466 44.1998H28.988V44.9741H29.7466V44.1998Z" fill="#5F646D"/>
<path d="M29.7466 43.4412H28.988V44.1998H29.7466V43.4412Z" fill="#5F646D"/>
<path d="M29.7466 42.6825H28.988V43.4412H29.7466V42.6825Z" fill="#5F646D"/>
<path d="M29.7466 41.9081H28.988V42.6825H29.7466V41.9081Z" fill="#4A535E"/>
<path d="M29.7466 41.1495H28.988V41.9081H29.7466V41.1495Z" fill="#4A535E"/>
<path d="M29.7466 40.3909H28.988V41.1495H29.7466V40.3909Z" fill="#4A535E"/>
<path d="M29.7466 39.6165H28.988V40.3909H29.7466V39.6165Z" fill="black"/>
<path d="M28.988 61.0339H28.2136V61.7925H28.988V61.0339Z" fill="black"/>
<path d="M28.988 60.2753H28.2136V61.0313H28.988V60.2753Z" fill="#4A535E"/>
<path d="M28.988 59.5009H28.2136V60.2753H28.988V59.5009Z" fill="#4A535E"/>
<path d="M28.988 58.7423H28.2136V59.5009H28.988V58.7423Z" fill="#5F646D"/>
<path d="M28.988 57.9679H28.2136V58.7423H28.988V57.9679Z" fill="#5F646D"/>
<path d="M28.988 57.2093H28.2136V57.9679H28.988V57.2093Z" fill="#5F646D"/>
<path d="M28.988 56.4506H28.2136V57.2093H28.988V56.4506Z" fill="#5F646D"/>
<path d="M28.988 55.6763H28.2136V56.4506H28.988V55.6763Z" fill="#5F646D"/>
<path d="M28.988 54.9176H28.2136V55.6736H28.988V54.9176Z" fill="#5F646D"/>
<path d="M28.988 54.1433H28.2136V54.9176H28.988V54.1433Z" fill="#5F646D"/>
<path d="M28.988 53.3846H28.2136V54.1433H28.988V53.3846Z" fill="#5F646D"/>
<path d="M28.988 52.6234H28.2136V53.382H28.988V52.6234Z" fill="#4A535E"/>
<path d="M28.988 51.8516H28.2136V52.626H28.988V51.8516Z" fill="#4A535E"/>
<path d="M28.988 51.0904H28.2136V51.849H28.988V51.0904Z" fill="black"/>
<path d="M28.988 50.3318H28.2136V51.0904H28.988V50.3318Z" fill="black"/>
<path d="M28.988 49.5574H28.2136V50.3318H28.988V49.5574Z" fill="#4A535E"/>
<path d="M28.988 48.7988H28.2136V49.5574H28.988V48.7988Z" fill="#4A535E"/>
<path d="M28.988 48.0244H28.2136V48.7988H28.988V48.0244Z" fill="#4A535E"/>
<path d="M28.988 47.2658H28.2136V48.0244H28.988V47.2658Z" fill="#4A535E"/>
<path d="M28.988 46.5071H28.2136V47.2658H28.988V46.5071Z" fill="#5F646D"/>
<path d="M28.988 45.7328H28.2136V46.5071H28.988V45.7328Z" fill="#5F646D"/>
<path d="M28.988 44.9741H28.2136V45.7328H28.988V44.9741Z" fill="#5F646D"/>
<path d="M28.988 44.1998H28.2136V44.9741H28.988V44.1998Z" fill="#5F646D"/>
<path d="M28.988 43.4412H28.2136V44.1998H28.988V43.4412Z" fill="#5F646D"/>
<path d="M28.988 42.6825H28.2136V43.4412H28.988V42.6825Z" fill="#4A535E"/>
<path d="M28.988 41.9081H28.2136V42.6825H28.988V41.9081Z" fill="#4A535E"/>
<path d="M28.988 41.1495H28.2136V41.9081H28.988V41.1495Z" fill="black"/>
<path d="M28.988 40.3909H28.2136V41.1495H28.988V40.3909Z" fill="black"/>
<path d="M28.2136 60.2753H27.455V61.0313H28.2136V60.2753Z" fill="black"/>
<path d="M28.2136 59.5009H27.455V60.2753H28.2136V59.5009Z" fill="black"/>
<path d="M28.2136 58.7423H27.455V59.5009H28.2136V58.7423Z" fill="#5F646D"/>
<path d="M28.2136 57.9679H27.455V58.7423H28.2136V57.9679Z" fill="#5F646D"/>
<path d="M28.2136 57.2093H27.455V57.9679H28.2136V57.2093Z" fill="#5F646D"/>
<path d="M28.2136 56.4506H27.455V57.2093H28.2136V56.4506Z" fill="#5F646D"/>
<path d="M28.2136 55.6763H27.455V56.4506H28.2136V55.6763Z" fill="#5F646D"/>
<path d="M28.2136 54.9176H27.455V55.6736H28.2136V54.9176Z" fill="#5F646D"/>
<path d="M28.2136 54.1433H27.455V54.9176H28.2136V54.1433Z" fill="#5F646D"/>
<path d="M28.2136 53.3846H27.455V54.1433H28.2136V53.3846Z" fill="#5F646D"/>
<path d="M28.2136 52.6234H27.455V53.382H28.2136V52.6234Z" fill="#5F646D"/>
<path d="M28.2136 51.8516H27.455V52.626H28.2136V51.8516Z" fill="#4A535E"/>
<path d="M28.2136 51.0904H27.455V51.849H28.2136V51.0904Z" fill="#4A535E"/>
<path d="M28.2136 50.3318H27.455V51.0904H28.2136V50.3318Z" fill="#4A535E"/>
<path d="M28.2136 49.5574H27.455V50.3318H28.2136V49.5574Z" fill="#4A535E"/>
<path d="M28.2136 48.7988H27.455V49.5574H28.2136V48.7988Z" fill="#4A535E"/>
<path d="M28.2136 48.0244H27.455V48.7988H28.2136V48.0244Z" fill="#5F646D"/>
<path d="M28.2136 47.2658H27.455V48.0244H28.2136V47.2658Z" fill="#5F646D"/>
<path d="M28.2136 46.5071H27.455V47.2658H28.2136V46.5071Z" fill="#5F646D"/>
<path d="M28.2136 45.7328H27.455V46.5071H28.2136V45.7328Z" fill="#5F646D"/>
<path d="M28.2136 44.9741H27.455V45.7328H28.2136V44.9741Z" fill="#5F646D"/>
<path d="M28.2136 44.1998H27.455V44.9741H28.2136V44.1998Z" fill="#5F646D"/>
<path d="M28.2136 43.4412H27.455V44.1998H28.2136V43.4412Z" fill="#4A535E"/>
<path d="M28.2136 42.6825H27.455V43.4412H28.2136V42.6825Z" fill="#4A535E"/>
<path d="M28.2136 41.9081H27.455V42.6825H28.2136V41.9081Z" fill="black"/>
<path d="M28.2136 41.1495H27.455V41.9081H28.2136V41.1495Z" fill="black"/>
<path d="M27.455 59.5009H26.6964V60.2753H27.455V59.5009Z" fill="black"/>
<path d="M27.455 58.7423H26.6964V59.5009H27.455V58.7423Z" fill="black"/>
<path d="M27.455 57.9679H26.6964V58.7423H27.455V57.9679Z" fill="#5F646D"/>
<path d="M27.455 57.2093H26.6964V57.9679H27.455V57.2093Z" fill="#5F646D"/>
<path d="M27.455 56.4506H26.6964V57.2093H27.455V56.4506Z" fill="#5F646D"/>
<path d="M27.455 55.6763H26.6964V56.4506H27.455V55.6763Z" fill="#5F646D"/>
<path d="M27.455 54.9176H26.6964V55.6736H27.455V54.9176Z" fill="#5F646D"/>
<path d="M27.455 54.1433H26.6964V54.9176H27.455V54.1433Z" fill="#5F646D"/>
<path d="M27.455 53.3846H26.6964V54.1433H27.455V53.3846Z" fill="#5F646D"/>
<path d="M27.455 52.6234H26.6964V53.382H27.455V52.6234Z" fill="#5F646D"/>
<path d="M27.455 51.8516H26.6964V52.626H27.455V51.8516Z" fill="#5F646D"/>
<path d="M27.455 51.0904H26.6964V51.849H27.455V51.0904Z" fill="#5F646D"/>
<path d="M27.455 50.3318H26.6964V51.0904H27.455V50.3318Z" fill="#5F646D"/>
<path d="M27.455 49.5574H26.6964V50.3318H27.455V49.5574Z" fill="#5F646D"/>
<path d="M27.455 48.7988H26.6964V49.5574H27.455V48.7988Z" fill="#5F646D"/>
<path d="M27.455 48.0244H26.6964V48.7988H27.455V48.0244Z" fill="#5F646D"/>
<path d="M27.455 47.2658H26.6964V48.0244H27.455V47.2658Z" fill="#5F646D"/>
<path d="M27.455 46.5071H26.6964V47.2658H27.455V46.5071Z" fill="#5F646D"/>
<path d="M27.455 45.7328H26.6964V46.5071H27.455V45.7328Z" fill="#5F646D"/>
<path d="M27.455 44.9741H26.6964V45.7328H27.455V44.9741Z" fill="#5F646D"/>
<path d="M27.455 44.1998H26.6964V44.9741H27.455V44.1998Z" fill="#4A535E"/>
<path d="M27.455 43.4412H26.6964V44.1998H27.455V43.4412Z" fill="#4A535E"/>
<path d="M27.455 42.6825H26.6964V43.4412H27.455V42.6825Z" fill="black"/>
<path d="M27.455 41.9081H26.6964V42.6825H27.455V41.9081Z" fill="black"/>
<path d="M26.6964 57.9679H25.922V58.7423H26.6964V57.9679Z" fill="black"/>
<path d="M26.6964 57.2093H25.922V57.9679H26.6964V57.2093Z" fill="#5F646D"/>
<path d="M26.6964 56.4506H25.922V57.2093H26.6964V56.4506Z" fill="#5F646D"/>
<path d="M26.6964 55.6763H25.922V56.4506H26.6964V55.6763Z" fill="#5F646D"/>
<path d="M26.6964 54.9176H25.922V55.6736H26.6964V54.9176Z" fill="#5F646D"/>
<path d="M26.6964 54.1433H25.922V54.9176H26.6964V54.1433Z" fill="#5F646D"/>
<path d="M26.6964 53.3846H25.922V54.1433H26.6964V53.3846Z" fill="#5F646D"/>
<path d="M26.6964 52.6234H25.922V53.382H26.6964V52.6234Z" fill="#5F646D"/>
<path d="M26.6964 51.8516H25.922V52.626H26.6964V51.8516Z" fill="#5F646D"/>
<path d="M26.6964 51.0904H25.922V51.849H26.6964V51.0904Z" fill="#5F646D"/>
<path d="M26.6964 50.3318H25.922V51.0904H26.6964V50.3318Z" fill="#5F646D"/>
<path d="M26.6964 49.5574H25.922V50.3318H26.6964V49.5574Z" fill="#5F646D"/>
<path d="M26.6964 48.7988H25.922V49.5574H26.6964V48.7988Z" fill="#5F646D"/>
<path d="M26.6964 48.0244H25.922V48.7988H26.6964V48.0244Z" fill="#5F646D"/>
<path d="M26.6964 47.2658H25.922V48.0244H26.6964V47.2658Z" fill="#5F646D"/>
<path d="M26.6964 46.5071H25.922V47.2658H26.6964V46.5071Z" fill="#5F646D"/>
<path d="M26.6964 45.7328H25.922V46.5071H26.6964V45.7328Z" fill="#5F646D"/>
<path d="M26.6964 44.9741H25.922V45.7328H26.6964V44.9741Z" fill="#4A535E"/>
<path d="M26.6964 44.1998H25.922V44.9741H26.6964V44.1998Z" fill="#4A535E"/>
<path d="M26.6964 43.4412H25.922V44.1998H26.6964V43.4412Z" fill="black"/>
<path d="M26.6964 42.6825H25.922V43.4412H26.6964V42.6825Z" fill="black"/>
<path d="M25.922 57.9679H25.1634V58.7423H25.922V57.9679Z" fill="black"/>
<path d="M25.922 57.2093H25.1634V57.9679H25.922V57.2093Z" fill="black"/>
<path d="M25.922 56.4506H25.1634V57.2093H25.922V56.4506Z" fill="black"/>
<path d="M25.922 55.6763H25.1634V56.4506H25.922V55.6763Z" fill="black"/>
<path d="M25.922 54.9176H25.1634V55.6736H25.922V54.9176Z" fill="#4A535E"/>
<path d="M25.922 54.1433H25.1634V54.9176H25.922V54.1433Z" fill="#4A535E"/>
<path d="M25.922 53.3846H25.1634V54.1433H25.922V53.3846Z" fill="#4A535E"/>
<path d="M25.922 52.6234H25.1634V53.382H25.922V52.6234Z" fill="#4A535E"/>
<path d="M25.922 51.8516H25.1634V52.626H25.922V51.8516Z" fill="#4A535E"/>
<path d="M25.922 51.0904H25.1634V51.849H25.922V51.0904Z" fill="#5F646D"/>
<path d="M25.922 50.3318H25.1634V51.0904H25.922V50.3318Z" fill="#5F646D"/>
<path d="M25.922 49.5574H25.1634V50.3318H25.922V49.5574Z" fill="#5F646D"/>
<path d="M25.922 48.7988H25.1634V49.5574H25.922V48.7988Z" fill="#5F646D"/>
<path d="M25.922 48.0244H25.1634V48.7988H25.922V48.0244Z" fill="#5F646D"/>
<path d="M25.922 47.2658H25.1634V48.0244H25.922V47.2658Z" fill="#4A535E"/>
<path d="M25.922 46.5071H25.1634V47.2658H25.922V46.5071Z" fill="#4A535E"/>
<path d="M25.922 45.7328H25.1634V46.5071H25.922V45.7328Z" fill="#4A535E"/>
<path d="M25.922 44.9741H25.1634V45.7328H25.922V44.9741Z" fill="#4A535E"/>
<path d="M25.922 44.1998H25.1634V44.9741H25.922V44.1998Z" fill="black"/>
<path d="M25.922 43.4412H25.1634V44.1998H25.922V43.4412Z" fill="black"/>
<path d="M25.1634 55.6763H24.389V56.4506H25.1634V55.6763Z" fill="black"/>
<path d="M25.1634 54.9176H24.389V55.6736H25.1634V54.9176Z" fill="black"/>
<path d="M25.1634 54.1433H24.389V54.9176H25.1634V54.1433Z" fill="black"/>
<path d="M25.1634 53.3846H24.389V54.1433H25.1634V53.3846Z" fill="black"/>
<path d="M25.1634 52.6234H24.389V53.382H25.1634V52.6234Z" fill="black"/>
<path d="M25.1634 51.8516H24.389V52.626H25.1634V51.8516Z" fill="#4A535E"/>
<path d="M25.1634 51.0904H24.389V51.849H25.1634V51.0904Z" fill="#4A535E"/>
<path d="M25.1634 50.3318H24.389V51.0904H25.1634V50.3318Z" fill="#4A535E"/>
<path d="M25.1634 49.5574H24.389V50.3318H25.1634V49.5574Z" fill="#4A535E"/>
<path d="M25.1634 48.7988H24.389V49.5574H25.1634V48.7988Z" fill="#4A535E"/>
<path d="M25.1634 48.0244H24.389V48.7988H25.1634V48.0244Z" fill="#4A535E"/>
<path d="M25.1634 47.2658H24.389V48.0244H25.1634V47.2658Z" fill="black"/>
<path d="M25.1634 46.5071H24.389V47.2658H25.1634V46.5071Z" fill="black"/>
<path d="M25.1634 45.7328H24.389V46.5071H25.1634V45.7328Z" fill="black"/>
<path d="M25.1634 44.9741H24.389V45.7328H25.1634V44.9741Z" fill="black"/>
<path d="M25.1634 44.1998H24.389V44.9741H25.1634V44.1998Z" fill="black"/>
<path d="M24.389 52.6234H23.6304V53.382H24.389V52.6234Z" fill="black"/>
<path d="M24.389 51.8516H23.6304V52.626H24.389V51.8516Z" fill="black"/>
<path d="M24.389 51.0904H23.6304V51.849H24.389V51.0904Z" fill="black"/>
<path d="M24.389 50.3318H23.6304V51.0904H24.389V50.3318Z" fill="black"/>
<path d="M24.389 49.5574H23.6304V50.3318H24.389V49.5574Z" fill="black"/>
<path d="M24.389 48.7988H23.6304V49.5574H24.389V48.7988Z" fill="black"/>
<path d="M24.389 48.0244H23.6304V48.7988H24.389V48.0244Z" fill="black"/>
<path d="M24.389 47.2658H23.6304V48.0244H24.389V47.2658Z" fill="black"/>
</svg>
