<svg width="105" height="105" viewBox="0 0 105 105" fill="none" xmlns="http://www.w3.org/2000/svg">
<path d="M52.5005 4.73279C78.8815 4.73297 100.267 26.1194 100.267 52.5004C100.267 78.8812 78.8813 100.267 52.5005 100.267C26.1195 100.267 4.73309 78.8813 4.73291 52.5004C4.73291 26.1192 26.1194 4.73279 52.5005 4.73279Z" fill="#F9F7E7" stroke="#29100A" stroke-width="2"/>
<path d="M73.6389 83.7007H71.6177V85.7219H73.6389V83.7007Z" fill="#28AF5F"/>
<path d="M73.6389 81.6979H71.6177V83.7007H73.6389V81.6979Z" fill="#28AF5F"/>
<path d="M73.6389 39.417H71.6177V41.4199H73.6389V39.417Z" fill="#28AF5F"/>
<path d="M73.6389 37.3931H71.6177V39.4143H73.6389V37.3931Z" fill="#28AF5F"/>
<path d="M73.6389 35.3928H71.6177V37.3957H73.6389V35.3928Z" fill="#28AF5F"/>
<path d="M71.6177 83.7007H69.6152V85.7219H71.6177V83.7007Z" fill="#28AF5F"/>
<path d="M71.6177 81.6979H69.6152V83.7007H71.6177V81.6979Z" fill="#28AF5F"/>
<path d="M71.6181 79.6766H69.6152V81.6979H71.6177L71.6181 79.6766Z" fill="#28AF5F"/>
<path d="M71.6181 77.6737H69.6152V79.6766H71.6181V77.6737Z" fill="#28AF5F"/>
<path d="M71.6181 75.6525H69.6152V77.6737H71.6181V75.6525Z" fill="#28AF5F"/>
<path d="M71.6181 41.4172H69.6152V43.4385H71.6181V41.4172Z" fill="#298E52"/>
<path d="M71.6177 39.417H69.6152V41.4199H71.6177V39.417Z" fill="#EA8634"/>
<path d="M71.6177 37.3931H69.6152V39.4143H71.6177V37.3931Z" fill="#E5A870"/>
<path d="M71.6177 35.3928H69.6152V37.3957H71.6177V35.3928Z" fill="#EA8634"/>
<path d="M71.6181 33.369H69.6152V35.3903H71.6181V33.369Z" fill="#28AF5F"/>
<path d="M71.6181 25.3234H69.6152V27.3262H71.6181V25.3234Z" fill="#4C2501"/>
<path d="M71.6181 23.3021H69.6152V25.3234H71.6181V23.3021Z" fill="#4C2501"/>
<path d="M71.6181 21.2992H69.6152V23.3021H71.6181V21.2992Z" fill="#4C2501"/>
<path d="M69.6152 83.7007H67.5938V85.7219H69.6152V83.7007Z" fill="#28AF5F"/>
<path d="M69.6152 81.6979H67.5938V83.7007H69.6152V81.6979Z" fill="#2ECC71"/>
<path d="M69.6152 79.6766H67.5938V81.6979H69.6152V79.6766Z" fill="#2ECC71"/>
<path d="M69.6152 77.6737H67.5938V79.6766H69.6152V77.6737Z" fill="#2ECC71"/>
<path d="M69.6152 75.6525H67.5938V77.6737H69.6152V75.6525Z" fill="#2ECC71"/>
<path d="M69.615 73.6287H67.5938V75.6499H69.615V73.6287Z" fill="#28AF5F"/>
<path d="M69.615 71.6284H67.5938V73.6313H69.615V71.6284Z" fill="#28AF5F"/>
<path d="M69.615 69.6045H67.5938V71.6257H69.615V69.6045Z" fill="#28AF5F"/>
<path d="M69.615 67.6016H67.5938V69.6045H69.615V67.6016Z" fill="#28AF5F"/>
<path d="M69.6152 41.4172H67.5938V43.4385H69.6152V41.4172Z" fill="#298E52"/>
<path d="M69.6152 39.417H67.5938V41.4199H69.6152V39.417Z" fill="#E5A870"/>
<path d="M69.6152 37.3931H67.5938V39.4143H69.6152V37.3931Z" fill="#E5A870"/>
<path d="M69.6152 35.3928H67.5938V37.3957H69.6152V35.3928Z" fill="#EA8634"/>
<path d="M69.6152 33.369H67.5938V35.3903H69.6152V33.369Z" fill="#EA8634"/>
<path d="M69.615 31.3713H67.5938V33.3742H69.615V31.3713Z" fill="#28AF5F"/>
<path d="M69.6152 27.3262L67.5938 27.3263V29.3475H69.615L69.6152 27.3262Z" fill="#4C2501"/>
<path d="M69.6152 21.2992H67.5938V23.3021L69.6152 23.3021V21.2992Z" fill="#4C2501"/>
<path d="M67.5911 83.7007H65.5698V85.7219H67.5911V83.7007Z" fill="#28AF5F"/>
<path d="M67.5911 81.6979H65.5698V83.7007H67.5911V81.6979Z" fill="#28AF5F"/>
<path d="M67.5911 79.6766H65.5698V81.6979H67.5911V79.6766Z" fill="#28AF5F"/>
<path d="M67.5911 77.6737H65.5698V79.6766H67.5911V77.6737Z" fill="#2ECC71"/>
<path d="M67.5911 75.6525H65.5698V77.6737H67.5911V75.6525Z" fill="#2ECC71"/>
<path d="M67.5911 73.6287H65.5698V75.6499H67.5911V73.6287Z" fill="#2ECC71"/>
<path d="M67.5911 71.6284H65.5698V73.6313H67.5911V71.6284Z" fill="#2ECC71"/>
<path d="M67.5911 69.6045H65.5698V71.6257H67.5911V69.6045Z" fill="#2ECC71"/>
<path d="M67.5911 67.6016H65.5698V69.6045H67.5911V67.6016Z" fill="#2ECC71"/>
<path d="M67.5911 65.5803H65.5698V67.6016H67.5911V65.5803Z" fill="#28AF5F"/>
<path d="M67.5911 63.5828H65.5698V65.5856H67.5911V63.5828Z" fill="#28AF5F"/>
<path d="M67.5911 41.4172H65.5698V43.4385H67.5911V41.4172Z" fill="#298E52"/>
<path d="M67.5911 39.417H65.5698V41.4199H67.5911V39.417Z" fill="#E5A870"/>
<path d="M67.5911 37.3931H65.5698V39.4143H67.5911V37.3931Z" fill="#E5A870"/>
<path d="M67.5911 35.3928H65.5698V37.3957H67.5911V35.3928Z" fill="#E5A870"/>
<path d="M67.5911 33.369H65.5698V35.3903H67.5911V33.369Z" fill="#E5A870"/>
<path d="M67.5911 31.3713H65.5698V33.3742H67.5911V31.3713Z" fill="#EA8634"/>
<path d="M67.5911 29.3475H65.5698V31.3688H67.5911V29.3475Z" fill="#EA8634"/>
<path d="M67.5911 27.3263H65.5698V29.3475H67.5911V27.3263Z" fill="#EA8634"/>
<path d="M67.5911 23.3021H65.5698V25.3234H67.5911V23.3021Z" fill="#4C2501"/>
<path d="M65.5751 83.7007H63.5723V85.7219H65.5751V83.7007Z" fill="#28AF5F"/>
<path d="M65.5751 81.6979H63.5723V83.7007H65.5751V81.6979Z" fill="#28AF5F"/>
<path d="M65.5751 79.6766H63.5723V81.6979H65.5751V79.6766Z" fill="#28AF5F"/>
<path d="M65.5751 77.6737H63.5723V79.6766H65.5751V77.6737Z" fill="#28AF5F"/>
<path d="M65.5751 75.6525H63.5723V77.6737H65.5751V75.6525Z" fill="#2ECC71"/>
<path d="M65.5751 73.6287H63.5723V75.6499H65.5751V73.6287Z" fill="#2ECC71"/>
<path d="M65.5751 71.6284H63.5723V73.6313H65.5751V71.6284Z" fill="#2ECC71"/>
<path d="M65.5751 69.6045H63.5723V71.6257H65.5751V69.6045Z" fill="#2ECC71"/>
<path d="M65.5751 67.6016H63.5723V69.6045H65.5751V67.6016Z" fill="#2ECC71"/>
<path d="M65.5751 65.5803H63.5723V67.6016H65.5751V65.5803Z" fill="#2ECC71"/>
<path d="M65.5751 63.5828H63.5723V65.5856H65.5751V63.5828Z" fill="#2ECC71"/>
<path d="M65.5751 61.5563H63.5723V63.5775H65.5751V61.5563Z" fill="#28AF5F"/>
<path d="M65.5751 59.535H63.5723V61.5563H65.5751V59.535Z" fill="#28AF5F"/>
<path d="M65.5751 43.4412H63.5723V45.4624H65.5751V43.4412Z" fill="#298E52"/>
<path d="M65.5751 41.4172H63.5723V43.4385H65.5751V41.4172Z" fill="#298E52"/>
<path d="M65.5751 39.417H63.5723V41.4199H65.5751V39.417Z" fill="#298E52"/>
<path d="M65.5751 37.3931H63.5723V39.4143H65.5751V37.3931Z" fill="#298E52"/>
<path d="M65.5751 35.3928H63.5723V37.3957H65.5751V35.3928Z" fill="#E5A870"/>
<path d="M65.5751 33.369H63.5723V35.3903H65.5751V33.369Z" fill="#E5A870"/>
<path d="M65.5751 31.3713H63.5723V33.3742H65.5751V31.3713Z" fill="#E5A870"/>
<path d="M65.5751 29.3475H63.5723V31.3688H65.5751V29.3475Z" fill="#E5A870"/>
<path d="M65.5751 27.3263H63.5723V29.3475H65.5751V27.3263Z" fill="#E5A870"/>
<path d="M65.5751 25.3234H63.5723V27.3263H65.5751V25.3234Z" fill="#4C2501"/>
<path d="M63.5723 83.7007H61.5508V85.7219H63.5723V83.7007Z" fill="#28AF5F"/>
<path d="M63.5723 81.6979H61.5508V83.7007H63.5723V81.6979Z" fill="#28AF5F"/>
<path d="M63.5723 79.6766H61.5508V81.6979H63.5723V79.6766Z" fill="#2ECC71"/>
<path d="M63.5723 77.6737H61.5508V79.6766H63.5723V77.6737Z" fill="#28AF5F"/>
<path d="M63.5723 75.6525H61.5508V77.6737H63.5723V75.6525Z" fill="#28AF5F"/>
<path d="M63.5723 73.6287H61.5508V75.6499H63.5723V73.6287Z" fill="#2ECC71"/>
<path d="M63.5723 71.6284H61.5508V73.6313H63.5723V71.6284Z" fill="#2ECC71"/>
<path d="M63.5723 69.6045H61.5508V71.6257H63.5723V69.6045Z" fill="#2ECC71"/>
<path d="M63.5723 67.6016H61.5508V69.6045H63.5723V67.6016Z" fill="#2ECC71"/>
<path d="M63.5723 65.5803H61.5508V67.6016H63.5723V65.5803Z" fill="#2ECC71"/>
<path d="M63.5723 63.5828H61.5508V65.5856H63.5723V63.5828Z" fill="#2ECC71"/>
<path d="M63.5723 61.5563H61.5508V63.5775H63.5723V61.5563Z" fill="#2ECC71"/>
<path d="M63.5723 59.535H61.5508V61.5563H63.5723V59.535Z" fill="#2ECC71"/>
<path d="M63.572 57.5348H61.5508V59.5377H63.572V57.5348Z" fill="#28AF5F"/>
<path d="M63.572 55.5135H61.5508V57.5348H63.572V55.5135Z" fill="#28AF5F"/>
<path d="M63.572 53.5106H61.5508V55.5135H63.572V53.5106Z" fill="#28AF5F"/>
<path d="M63.5723 45.4624L61.5508 45.4624V47.4653H63.572L63.5723 45.4624Z" fill="#298E52"/>
<path d="M63.5723 43.4412H61.5508V45.4624L63.5723 45.4624V43.4412Z" fill="#28AF5F"/>
<path d="M63.5723 41.4172H61.5508V43.4385H63.5723V41.4172Z" fill="#28AF5F"/>
<path d="M63.5723 39.417H61.5508V41.4199H63.5723V39.417Z" fill="#298E52"/>
<path d="M63.5723 37.3931H61.5508V39.4143H63.5723V37.3931Z" fill="#298E52"/>
<path d="M63.5723 35.3928H61.5508V37.3957H63.5723V35.3928Z" fill="#298E52"/>
<path d="M63.5723 33.369H61.5508V35.3903H63.5723V33.369Z" fill="#4C2501"/>
<path d="M63.5723 31.3713H61.5508V33.3742H63.5723V31.3713Z" fill="#E5A870"/>
<path d="M63.5723 29.3475H61.5508V31.3688H63.5723V29.3475Z" fill="#E5A870"/>
<path d="M63.5723 27.3263H61.5508V29.3475H63.5723V27.3263Z" fill="#E5A870"/>
<path d="M61.5508 83.7007H59.5483V85.7219H61.5508V83.7007Z" fill="#28AF5F"/>
<path d="M61.5508 81.6979H59.5483V83.7007H61.5508V81.6979Z" fill="#28AF5F"/>
<path d="M61.5508 79.6766H59.5483V81.6979H61.5508V79.6766Z" fill="#2ECC71"/>
<path d="M61.5508 77.6737H59.5483V79.6766H61.5508V77.6737Z" fill="#28AF5F"/>
<path d="M61.5508 75.6525H59.5483V77.6737H61.5508V75.6525Z" fill="#28AF5F"/>
<path d="M61.5508 73.6287H59.5483V75.6499H61.5508V73.6287Z" fill="#2ECC71"/>
<path d="M61.5508 71.6284H59.5483V73.6313H61.5508V71.6284Z" fill="#2ECC71"/>
<path d="M61.5508 69.6045H59.5483V71.6257H61.5508V69.6045Z" fill="#2ECC71"/>
<path d="M61.5508 67.6016H59.5483V69.6045H61.5508V67.6016Z" fill="#2ECC71"/>
<path d="M61.5508 65.5803H59.5483V67.6016H61.5508V65.5803Z" fill="#2ECC71"/>
<path d="M61.5508 63.5828H59.5483V65.5856H61.5508V63.5828Z" fill="#2ECC71"/>
<path d="M61.5508 61.5563H59.5483V63.5775H61.5508V61.5563Z" fill="#2ECC71"/>
<path d="M61.5508 59.535H59.5483V61.5563H61.5508V59.535Z" fill="#2ECC71"/>
<path d="M61.5508 57.5348H59.5483V59.5377H61.5508V57.5348Z" fill="#2ECC71"/>
<path d="M61.5508 55.5135H59.5483V57.5348H61.5508V55.5135Z" fill="#2ECC71"/>
<path d="M61.5508 53.5106H59.5483V55.5135H61.5508V53.5106Z" fill="#2ECC71"/>
<path d="M61.5512 51.4894H59.5483V53.5106H61.5508L61.5512 51.4894Z" fill="#298E52"/>
<path d="M61.5512 49.4865H59.5483V51.4894H61.5512V49.4865Z" fill="#025624"/>
<path d="M61.5508 47.4653L59.5483 47.4652V49.4865H61.5512L61.5508 47.4653Z" fill="#298E52"/>
<path d="M61.5508 45.4624H59.5483V47.4652L61.5508 47.4653V45.4624Z" fill="#28AF5F"/>
<path d="M61.5508 43.4412H59.5483V45.4624H61.5508V43.4412Z" fill="#28AF5F"/>
<path d="M61.5508 41.4172H59.5483V43.4385H61.5508V41.4172Z" fill="#28AF5F"/>
<path d="M61.5508 39.417H59.5483V41.4199H61.5508V39.417Z" fill="#28AF5F"/>
<path d="M61.5508 37.3931H59.5483V39.4143H61.5508V37.3931Z" fill="#4C2501"/>
<path d="M61.5508 35.3928H59.5483V37.3957H61.5508V35.3928Z" fill="#4C2501"/>
<path d="M61.5508 33.369H59.5483V35.3903H61.5508V33.369Z" fill="#298E52"/>
<path d="M61.5508 31.3713H59.5483V33.3742H61.5508V31.3713Z" fill="#298E52"/>
<path d="M61.5508 29.3475H59.5483V31.3688H61.5508V29.3475Z" fill="#298E52"/>
<path d="M59.5457 83.7007H57.5244V85.7219H59.5457V83.7007Z" fill="#28AF5F"/>
<path d="M59.5457 81.6979H57.5244V83.7007H59.5457V81.6979Z" fill="#28AF5F"/>
<path d="M59.5457 79.6766H57.5244V81.6979H59.5457V79.6766Z" fill="#28AF5F"/>
<path d="M59.5457 77.6737H57.5244V79.6766H59.5457V77.6737Z" fill="#2ECC71"/>
<path d="M59.5457 75.6525H57.5244V77.6737H59.5457V75.6525Z" fill="#28AF5F"/>
<path d="M59.5457 73.6287H57.5244V75.6499H59.5457V73.6287Z" fill="#28AF5F"/>
<path d="M59.5457 71.6284H57.5244V73.6313H59.5457V71.6284Z" fill="#2ECC71"/>
<path d="M59.5457 69.6045H57.5244V71.6257H59.5457V69.6045Z" fill="#2ECC71"/>
<path d="M59.5457 67.6016H57.5244V69.6045H59.5457V67.6016Z" fill="#2ECC71"/>
<path d="M59.5457 65.5803H57.5244V67.6016H59.5457V65.5803Z" fill="#2ECC71"/>
<path d="M59.5457 63.5828H57.5244V65.5856H59.5457V63.5828Z" fill="#2ECC71"/>
<path d="M59.5457 61.5563H57.5244V63.5775H59.5457V61.5563Z" fill="#2ECC71"/>
<path d="M59.5457 59.535H57.5244V61.5563H59.5457V59.535Z" fill="#2ECC71"/>
<path d="M59.5457 57.5348H57.5244V59.5377H59.5457V57.5348Z" fill="#2ECC71"/>
<path d="M59.5457 55.5135H57.5244V57.5348H59.5457V55.5135Z" fill="#2ECC71"/>
<path d="M59.5457 53.5106H57.5244V55.5135H59.5457V53.5106Z" fill="#2ECC71"/>
<path d="M59.5457 51.4894H57.5244V53.5106H59.5457V51.4894Z" fill="#298E52"/>
<path d="M59.5457 49.4865H57.5244V51.4894H59.5457V49.4865Z" fill="#025624"/>
<path d="M59.5457 47.4652H57.5244V49.4865H59.5457V47.4652Z" fill="#28AF5F"/>
<path d="M59.5457 45.4624H57.5244V47.4652H59.5457V45.4624Z" fill="#28AF5F"/>
<path d="M59.5457 43.4412H57.5244V45.4624H59.5457V43.4412Z" fill="#2ECC71"/>
<path d="M59.5457 41.4172H57.5244V43.4385H59.5457V41.4172Z" fill="#28AF5F"/>
<path d="M59.5457 39.417H57.5244V41.4199H59.5457V39.417Z" fill="#28AF5F"/>
<path d="M59.5457 37.3931H57.5244V39.4143H59.5457V37.3931Z" fill="#28AF5F"/>
<path d="M59.5457 35.3928H57.5244V37.3957H59.5457V35.3928Z" fill="#298E52"/>
<path d="M59.5457 33.369H57.5244V35.3903H59.5457V33.369Z" fill="#2ECC71"/>
<path d="M59.5457 31.3713H57.5244V33.3742H59.5457V31.3713Z" fill="#28AF5F"/>
<path d="M59.5457 29.3475H57.5244V31.3688H59.5457V29.3475Z" fill="#298E52"/>
<path d="M59.5457 25.3234H57.5244V27.3262H59.5457V25.3234Z" fill="#5B5957"/>
<path d="M59.5457 23.3021H57.5244V25.3234H59.5457V23.3021Z" fill="#878481"/>
<path d="M59.5457 21.2992H57.5244V23.3021H59.5457V21.2992Z" fill="#878481"/>
<path d="M57.5268 83.7007H55.5239V85.7219H57.5268V83.7007Z" fill="#28AF5F"/>
<path d="M57.5268 81.6979H55.5239V83.7007H57.5268V81.6979Z" fill="#28AF5F"/>
<path d="M57.5268 79.6766H55.5239V81.6979H57.5268V79.6766Z" fill="#28AF5F"/>
<path d="M57.5268 77.6737H55.5239V79.6766H57.5268V77.6737Z" fill="#2ECC71"/>
<path d="M57.5268 75.6525H55.5239V77.6737H57.5268V75.6525Z" fill="#28AF5F"/>
<path d="M57.5268 73.6287H55.5239V75.6499H57.5268V73.6287Z" fill="#28AF5F"/>
<path d="M57.5268 71.6284H55.5239V73.6313H57.5268V71.6284Z" fill="#2ECC71"/>
<path d="M57.5268 69.6045H55.5239V71.6257H57.5268V69.6045Z" fill="#2ECC71"/>
<path d="M57.5268 67.6016H55.5239V69.6045H57.5268V67.6016Z" fill="#2ECC71"/>
<path d="M57.5268 65.5803H55.5239V67.6016H57.5268V65.5803Z" fill="#2ECC71"/>
<path d="M57.5268 63.5828H55.5239V65.5856H57.5268V63.5828Z" fill="#2ECC71"/>
<path d="M57.5268 61.5563H55.5239V63.5775H57.5268V61.5563Z" fill="#2ECC71"/>
<path d="M57.5268 59.535H55.5239V61.5563H57.5268V59.535Z" fill="#2ECC71"/>
<path d="M57.5268 57.5348H55.5239V59.5377H57.5268V57.5348Z" fill="#2ECC71"/>
<path d="M57.5268 55.5135H55.5239V57.5348H57.5268V55.5135Z" fill="#2ECC71"/>
<path d="M57.5268 53.5106H55.5239V55.5135H57.5268V53.5106Z" fill="#28AF5F"/>
<path d="M57.5268 51.4894H55.5239V53.5106H57.5268V51.4894Z" fill="#025624"/>
<path d="M57.5268 49.4865H55.5239V51.4894H57.5268V49.4865Z" fill="#298E52"/>
<path d="M57.5268 47.4652H55.5239V49.4865H57.5268V47.4652Z" fill="#28AF5F"/>
<path d="M57.5268 45.4624H55.5239V47.4652H57.5268V45.4624Z" fill="#2ECC71"/>
<path d="M57.5268 43.4412H55.5239V45.4624H57.5268V43.4412Z" fill="#2ECC71"/>
<path d="M57.5268 41.4172H55.5239V43.4385H57.5268V41.4172Z" fill="#2ECC71"/>
<path d="M57.5268 39.417H55.5239V41.4199H57.5268V39.417Z" fill="#28AF5F"/>
<path d="M57.5268 37.3931H55.5239V39.4143H57.5268V37.3931Z" fill="#28AF5F"/>
<path d="M57.5268 35.3928H55.5239V37.3957H57.5268V35.3928Z" fill="#28AF5F"/>
<path d="M57.5268 33.369H55.5239V35.3903H57.5268V33.369Z" fill="#2ECC71"/>
<path d="M57.5268 31.3713H55.5239V33.3742H57.5268V31.3713Z" fill="#2ECC71"/>
<path d="M57.5268 29.3475H55.5239V31.3688H57.5268V29.3475Z" fill="#28AF5F"/>
<path d="M57.5268 27.3263H55.5239V29.3475H57.5268V27.3263Z" fill="#EFAD65"/>
<path d="M57.5268 25.3234H55.5239V27.3263H57.5268V25.3234Z" fill="#5B5957"/>
<path d="M57.5268 23.3021H55.5239V25.3234H57.5268V23.3021Z" fill="#878481"/>
<path d="M57.5268 21.2992H55.5239V23.3021H57.5268V21.2992Z" fill="#878481"/>
<path d="M57.5268 19.278H55.5239V21.2992H57.5268V19.278Z" fill="#EFAD65"/>
<path d="M55.5212 83.7007H53.5V85.7219H55.5212V83.7007Z" fill="#28AF5F"/>
<path d="M55.5212 81.6979H53.5V83.7007H55.5212V81.6979Z" fill="#28AF5F"/>
<path d="M55.5212 79.6766H53.5V81.6979H55.5212V79.6766Z" fill="#28AF5F"/>
<path d="M55.5212 77.6737H53.5V79.6766H55.5212V77.6737Z" fill="#28AF5F"/>
<path d="M55.5212 75.6525H53.5V77.6737H55.5212V75.6525Z" fill="#2ECC71"/>
<path d="M55.5212 73.6287H53.5V75.6499H55.5212V73.6287Z" fill="#28AF5F"/>
<path d="M55.5212 71.6284H53.5V73.6313H55.5212V71.6284Z" fill="#28AF5F"/>
<path d="M55.5212 69.6045H53.5V71.6257H55.5212V69.6045Z" fill="#2ECC71"/>
<path d="M55.5212 67.6016H53.5V69.6045H55.5212V67.6016Z" fill="#025624"/>
<path d="M55.5212 65.5803H53.5V67.6016H55.5212V65.5803Z" fill="#025624"/>
<path d="M55.5212 63.5828H53.5V65.5856H55.5212V63.5828Z" fill="#025624"/>
<path d="M55.5212 61.5563H53.5V63.5775H55.5212V61.5563Z" fill="#2ECC71"/>
<path d="M55.5212 59.535H53.5V61.5563H55.5212V59.535Z" fill="#2ECC71"/>
<path d="M55.5212 57.5348H53.5V59.5377H55.5212V57.5348Z" fill="#2ECC71"/>
<path d="M55.5212 55.5135H53.5V57.5348H55.5212V55.5135Z" fill="#2ECC71"/>
<path d="M55.5212 53.5106H53.5V55.5135H55.5212V53.5106Z" fill="#28AF5F"/>
<path d="M55.5212 51.4894H53.5V53.5106H55.5212V51.4894Z" fill="#025624"/>
<path d="M55.5212 49.4865H53.5V51.4894H55.5212V49.4865Z" fill="#28AF5F"/>
<path d="M55.5212 47.4652H53.5V49.4865H55.5212V47.4652Z" fill="#28AF5F"/>
<path d="M55.5212 45.4624H53.5V47.4652H55.5212V45.4624Z" fill="#28AF5F"/>
<path d="M55.5212 43.4412H53.5V45.4624H55.5212V43.4412Z" fill="#28AF5F"/>
<path d="M55.5212 41.4172H53.5V43.4385H55.5212V41.4172Z" fill="#2ECC71"/>
<path d="M55.5212 39.417H53.5V41.4199H55.5212V39.417Z" fill="#2ECC71"/>
<path d="M55.5212 37.3931H53.5V39.4143H55.5212V37.3931Z" fill="#2ECC71"/>
<path d="M55.5212 35.3928H53.5V37.3957H55.5212V35.3928Z" fill="#2ECC71"/>
<path d="M55.5212 33.369H53.5V35.3903H55.5212V33.369Z" fill="#2ECC71"/>
<path d="M55.5212 31.3713H53.5V33.3742H55.5212V31.3713Z" fill="#28AF5F"/>
<path d="M55.5212 29.3475H53.5V31.3688H55.5212V29.3475Z" fill="#EFAD65"/>
<path d="M55.5212 27.3263H53.5V29.3475H55.5212V27.3263Z" fill="#EFAD65"/>
<path d="M55.5212 25.3234H53.5V27.3263H55.5212V25.3234Z" fill="#EFAD65"/>
<path d="M55.5212 23.3021H53.5V25.3234H55.5212V23.3021Z" fill="#5B5957"/>
<path d="M55.5212 21.2992H53.5V23.3021H55.5212V21.2992Z" fill="#878481"/>
<path d="M55.5212 19.278H53.5V21.2992H55.5212V19.278Z" fill="#EFAD65"/>
<path d="M53.5029 83.7007H51.5V85.7219H53.5029V83.7007Z" fill="#28AF5F"/>
<path d="M53.5029 81.6979H51.5V83.7007H53.5029V81.6979Z" fill="#28AF5F"/>
<path d="M53.5029 79.6766H51.5V81.6979H53.5029V79.6766Z" fill="#28AF5F"/>
<path d="M53.5029 77.6737H51.5V79.6766H53.5029V77.6737Z" fill="#28AF5F"/>
<path d="M53.5029 75.6525H51.5V77.6737H53.5029V75.6525Z" fill="#2ECC71"/>
<path d="M53.5029 73.6287H51.5V75.6499H53.5029V73.6287Z" fill="#28AF5F"/>
<path d="M53.5029 71.6284H51.5V73.6313H53.5029V71.6284Z" fill="#28AF5F"/>
<path d="M53.5029 69.6045H51.5V71.6257H53.5029V69.6045Z" fill="#2ECC71"/>
<path d="M53.5029 67.6016H51.5V69.6045H53.5029V67.6016Z" fill="#2ECC71"/>
<path d="M53.5029 65.5803H51.5V67.6016H53.5029V65.5803Z" fill="#2ECC71"/>
<path d="M53.5029 63.5828H51.5V65.5856H53.5029V63.5828Z" fill="#2ECC71"/>
<path d="M53.5029 61.5563H51.5V63.5775H53.5029V61.5563Z" fill="#025624"/>
<path d="M53.5029 59.535H51.5V61.5563H53.5029V59.535Z" fill="#025624"/>
<path d="M53.5029 57.5348H51.5V59.5377H53.5029V57.5348Z" fill="#025624"/>
<path d="M53.5029 55.5135H51.5V57.5348H53.5029V55.5135Z" fill="#025624"/>
<path d="M53.5029 53.5106H51.5V55.5135H53.5029V53.5106Z" fill="#28AF5F"/>
<path d="M53.5029 51.4894H51.5V53.5106H53.5029V51.4894Z" fill="#025624"/>
<path d="M53.5029 49.4865H51.5V51.4894H53.5029V49.4865Z" fill="#28AF5F"/>
<path d="M53.5029 47.4652H51.5V49.4865H53.5029V47.4652Z" fill="#28AF5F"/>
<path d="M53.5029 45.4624H51.5V47.4652H53.5029V45.4624Z" fill="#28AF5F"/>
<path d="M53.5029 43.4412H51.5V45.4624H53.5029V43.4412Z" fill="#28AF5F"/>
<path d="M53.5029 41.4172H51.5V43.4385H53.5029V41.4172Z" fill="#28AF5F"/>
<path d="M53.5029 39.417H51.5V41.4199H53.5029V39.417Z" fill="#2ECC71"/>
<path d="M53.5029 37.3931H51.5V39.4143H53.5029V37.3931Z" fill="#2ECC71"/>
<path d="M53.5029 35.3928H51.5V37.3957H53.5029V35.3928Z" fill="#2ECC71"/>
<path d="M53.5029 33.369H51.5V35.3903H53.5029V33.369Z" fill="#2ECC71"/>
<path d="M53.5029 31.3713H51.5V33.3742H53.5029V31.3713Z" fill="#28AF5F"/>
<path d="M53.5029 29.3475H51.5V31.3688H53.5029V29.3475Z" fill="#EFAD65"/>
<path d="M53.5029 27.3263H51.5V29.3475H53.5029V27.3263Z" fill="#EFAD65"/>
<path d="M53.5029 25.3234H51.5V27.3263H53.5029V25.3234Z" fill="#EFAD65"/>
<path d="M53.5029 23.3021H51.5V25.3234H53.5029V23.3021Z" fill="#EFAD65"/>
<path d="M53.5029 21.2992H51.5V23.3021H53.5029V21.2992Z" fill="#EFAD65"/>
<path d="M53.5029 19.278H51.5V21.2992H53.5029V19.278Z" fill="#EFAD65"/>
<path d="M51.4973 83.7007H49.4761V85.7219H51.4973V83.7007Z" fill="#28AF5F"/>
<path d="M51.4973 81.6979H49.4761V83.7007H51.4973V81.6979Z" fill="#28AF5F"/>
<path d="M51.4973 79.6766H49.4761V81.6979H51.4973V79.6766Z" fill="#28AF5F"/>
<path d="M51.4973 77.6737H49.4761V79.6766H51.4973V77.6737Z" fill="#28AF5F"/>
<path d="M51.4973 75.6525H49.4761V77.6737H51.4973V75.6525Z" fill="#28AF5F"/>
<path d="M51.4973 73.6287H49.4761V75.6499H51.4973V73.6287Z" fill="#2ECC71"/>
<path d="M51.4973 71.6284H49.4761V73.6313H51.4973V71.6284Z" fill="#28AF5F"/>
<path d="M51.4973 69.6045H49.4761V71.6257H51.4973V69.6045Z" fill="#2ECC71"/>
<path d="M51.4973 67.6016H49.4761V69.6045H51.4973V67.6016Z" fill="#2ECC71"/>
<path d="M51.4973 65.5803H49.4761V67.6016H51.4973V65.5803Z" fill="#2ECC71"/>
<path d="M51.4973 63.5828H49.4761V65.5856H51.4973V63.5828Z" fill="#2ECC71"/>
<path d="M51.4973 61.5563H49.4761V63.5775H51.4973V61.5563Z" fill="#2ECC71"/>
<path d="M51.4973 59.535H49.4761V61.5563H51.4973V59.535Z" fill="#2ECC71"/>
<path d="M51.4973 57.5348H49.4761V59.5377H51.4973V57.5348Z" fill="#2ECC71"/>
<path d="M51.4973 55.5135H49.4761V57.5348H51.4973V55.5135Z" fill="#28AF5F"/>
<path d="M51.4973 53.5106H49.4761V55.5135H51.4973V53.5106Z" fill="#025624"/>
<path d="M51.4973 51.4894H49.4761V53.5106H51.4973V51.4894Z" fill="#025624"/>
<path d="M51.4973 49.4865H49.4761V51.4894H51.4973V49.4865Z" fill="#28AF5F"/>
<path d="M51.4973 47.4652H49.4761V49.4865H51.4973V47.4652Z" fill="#28AF5F"/>
<path d="M51.4973 45.4624H49.4761V47.4652H51.4973V45.4624Z" fill="#28AF5F"/>
<path d="M51.4973 43.4412H49.4761V45.4624H51.4973V43.4412Z" fill="#28AF5F"/>
<path d="M51.4973 41.4172H49.4761V43.4385H51.4973V41.4172Z" fill="#28AF5F"/>
<path d="M51.4973 39.417H49.4761V41.4199H51.4973V39.417Z" fill="#28AF5F"/>
<path d="M51.4973 37.3931H49.4761V39.4143H51.4973V37.3931Z" fill="#2ECC71"/>
<path d="M51.4973 35.3928H49.4761V37.3957H51.4973V35.3928Z" fill="#2ECC71"/>
<path d="M51.4973 33.369H49.4761V35.3903H51.4973V33.369Z" fill="#2ECC71"/>
<path d="M51.4973 31.3713H49.4761V33.3742H51.4973V31.3713Z" fill="#28AF5F"/>
<path d="M51.4973 29.3475H49.4761V31.3688H51.4973V29.3475Z" fill="#EFAD65"/>
<path d="M51.4973 27.3263H49.4761V29.3475H51.4973V27.3263Z" fill="#EFAD65"/>
<path d="M51.4973 25.3234H49.4761V27.3263H51.4973V25.3234Z" fill="#EFAD65"/>
<path d="M51.4973 23.3021H49.4761V25.3234H51.4973V23.3021Z" fill="#EFAD65"/>
<path d="M51.4973 21.2992H49.4761V23.3021H51.4973V21.2992Z" fill="#EFAD65"/>
<path d="M51.4973 19.278H49.4761V21.2992H51.4973V19.278Z" fill="#EFAD65"/>
<path d="M49.4761 83.7007H47.4546V85.7219H49.4761V83.7007Z" fill="#28AF5F"/>
<path d="M49.4761 81.6979H47.4546V83.7007H49.4761V81.6979Z" fill="#28AF5F"/>
<path d="M49.4761 79.6766H47.4546V81.6979H49.4761V79.6766Z" fill="#28AF5F"/>
<path d="M49.4761 77.6737H47.4546V79.6766H49.4761V77.6737Z" fill="#28AF5F"/>
<path d="M49.4761 75.6525H47.4546V77.6737H49.4761V75.6525Z" fill="#28AF5F"/>
<path d="M49.4761 73.6287H47.4546V75.6499H49.4761V73.6287Z" fill="#2ECC71"/>
<path d="M49.4761 71.6284H47.4546V73.6313H49.4761V71.6284Z" fill="#28AF5F"/>
<path d="M49.4761 69.6045H47.4546V71.6257H49.4761V69.6045Z" fill="#2ECC71"/>
<path d="M49.4761 67.6016H47.4546V69.6045H49.4761V67.6016Z" fill="#025624"/>
<path d="M49.4761 65.5803H47.4546V67.6016H49.4761V65.5803Z" fill="#025624"/>
<path d="M49.4761 63.5828H47.4546V65.5856H49.4761V63.5828Z" fill="#025624"/>
<path d="M49.4761 61.5563H47.4546V63.5775H49.4761V61.5563Z" fill="#025624"/>
<path d="M49.4761 59.535H47.4546V61.5563H49.4761V59.535Z" fill="#025624"/>
<path d="M49.4761 57.5348H47.4546V59.5377H49.4761V57.5348Z" fill="#025624"/>
<path d="M49.4761 55.5135H47.4546V57.5348H49.4761V55.5135Z" fill="#025624"/>
<path d="M49.4761 53.5106H47.4546V55.5135H49.4761V53.5106Z" fill="#28AF5F"/>
<path d="M49.4761 51.4894H47.4546V53.5106H49.4761V51.4894Z" fill="#28AF5F"/>
<path d="M49.4761 49.4865H47.4546V51.4894H49.4761V49.4865Z" fill="#025624"/>
<path d="M49.4761 47.4652H47.4546V49.4865H49.4761V47.4652Z" fill="#2ECC71"/>
<path d="M49.4761 45.4624H47.4546V47.4652H49.4761V45.4624Z" fill="#2ECC71"/>
<path d="M49.4761 43.4412H47.4546V45.4624H49.4761V43.4412Z" fill="#2ECC71"/>
<path d="M49.4761 41.4172H47.4546V43.4385H49.4761V41.4172Z" fill="#2ECC71"/>
<path d="M49.4761 39.417H47.4546V41.4199H49.4761V39.417Z" fill="#2ECC71"/>
<path d="M49.4761 37.3931H47.4546V39.4143H49.4761V37.3931Z" fill="#2ECC71"/>
<path d="M49.4761 35.3928H47.4546V37.3957H49.4761V35.3928Z" fill="#2ECC71"/>
<path d="M49.4761 33.369H47.4546V35.3903H49.4761V33.369Z" fill="#28AF5F"/>
<path d="M49.4761 31.3713H47.4546V33.3742H49.4761V31.3713Z" fill="#28AF5F"/>
<path d="M49.4761 29.3475H47.4546V31.3688H49.4761V29.3475Z" fill="#EFAD65"/>
<path d="M49.4761 27.3263H47.4546V29.3475H49.4761V27.3263Z" fill="#EA8634"/>
<path d="M49.4761 25.3234H47.4546V27.3263H49.4761V25.3234Z" fill="#EA8634"/>
<path d="M49.4761 23.3021H47.4546V25.3234H49.4761V23.3021Z" fill="#EFAD65"/>
<path d="M49.4761 21.2992H47.4546V23.3021H49.4761V21.2992Z" fill="#EFAD65"/>
<path d="M47.4546 83.7007H45.4517V85.7219H47.4546V83.7007Z" fill="#28AF5F"/>
<path d="M47.4546 81.6979H45.4517V83.7007H47.4546V81.6979Z" fill="#28AF5F"/>
<path d="M47.4546 79.6766H45.4517V81.6979H47.4546V79.6766Z" fill="#28AF5F"/>
<path d="M47.4546 77.6737H45.4517V79.6766H47.4546V77.6737Z" fill="#28AF5F"/>
<path d="M47.4546 75.6525H45.4517V77.6737H47.4546V75.6525Z" fill="#28AF5F"/>
<path d="M47.4546 73.6287H45.4517V75.6499H47.4546V73.6287Z" fill="#28AF5F"/>
<path d="M47.4546 71.6284H45.4517V73.6313H47.4546V71.6284Z" fill="#28AF5F"/>
<path d="M47.4546 69.6045H45.4517V71.6257H47.4546V69.6045Z" fill="#28AF5F"/>
<path d="M47.4546 67.6016H45.4517V69.6045H47.4546V67.6016Z" fill="#28AF5F"/>
<path d="M47.4546 65.5803H45.4517V67.6016H47.4546V65.5803Z" fill="#2ECC71"/>
<path d="M47.4546 63.5828H45.4517V65.5856H47.4546V63.5828Z" fill="#2ECC71"/>
<path d="M47.4546 61.5563H45.4517V63.5775H47.4546V61.5563Z" fill="#2ECC71"/>
<path d="M47.4546 59.535H45.4517V61.5563H47.4546V59.535Z" fill="#2ECC71"/>
<path d="M47.4546 57.5348H45.4517V59.5377H47.4546V57.5348Z" fill="#28AF5F"/>
<path d="M47.4546 47.4652H45.4517V49.4865L47.4546 49.4865V47.4652Z" fill="#28AF5F"/>
<path d="M47.4546 45.4624H45.4517V47.4652H47.4546V45.4624Z" fill="#2ECC71"/>
<path d="M47.4546 43.4412H45.4517V45.4624H47.4546V43.4412Z" fill="#2ECC71"/>
<path d="M47.4546 41.4172H45.4517V43.4385H47.4546V41.4172Z" fill="#2ECC71"/>
<path d="M47.4546 39.417H45.4517V41.4199H47.4546V39.417Z" fill="#28AF5F"/>
<path d="M47.4546 37.3931H45.4517V39.4143H47.4546V37.3931Z" fill="#28AF5F"/>
<path d="M47.4546 35.3928H45.4517V37.3957H47.4546V35.3928Z" fill="#28AF5F"/>
<path d="M45.4517 83.7007H43.4307V85.7219H45.4517V83.7007Z" fill="#28AF5F"/>
<path d="M45.4517 81.6979H43.4307V83.7007H45.4517V81.6979Z" fill="#28AF5F"/>
<path d="M45.4517 79.6766H43.4307V81.6979H45.4517V79.6766Z" fill="#28AF5F"/>
<path d="M45.4517 77.6737H43.4307V79.6766H45.4517V77.6737Z" fill="#28AF5F"/>
<path d="M45.4517 75.6525H43.4307V77.6737H45.4517V75.6525Z" fill="#28AF5F"/>
<path d="M45.4517 73.6287H43.4307V75.6499H45.4517V73.6287Z" fill="#28AF5F"/>
<path d="M45.4517 71.6284H43.4307V73.6313H45.4517V71.6284Z" fill="#2ECC71"/>
<path d="M45.4517 69.6045H43.4307V71.6257H45.4517V69.6045Z" fill="#2ECC71"/>
<path d="M45.4517 67.6016H43.4307V69.6045H45.4517V67.6016Z" fill="#2ECC71"/>
<path d="M45.4517 65.5803H43.4307V67.6016H45.4517V65.5803Z" fill="#2ECC71"/>
<path d="M45.4517 63.5828H43.4307V65.5856H45.4517V63.5828Z" fill="#2ECC71"/>
<path d="M45.4517 61.5563H43.4307V63.5775H45.4517V61.5563Z" fill="#28AF5F"/>
<path d="M45.4517 59.535H43.4307V61.5563H45.4517V59.535Z" fill="#28AF5F"/>
<path d="M45.4517 47.4652H43.4307V49.4865H45.4517V47.4652Z" fill="#28AF5F"/>
<path d="M45.4517 45.4624H43.4307V47.4652H45.4517V45.4624Z" fill="#28AF5F"/>
<path d="M45.4517 43.4412H43.4307V45.4624H45.4517V43.4412Z" fill="#28AF5F"/>
<path d="M45.4517 41.4172H43.4307V43.4385H45.4517V41.4172Z" fill="#28AF5F"/>
<path d="M45.4517 39.417H43.4307V41.4199H45.4517V39.417Z" fill="#28AF5F"/>
<path d="M43.4307 83.7007H41.4277V85.7219H43.4307V83.7007Z" fill="#28AF5F"/>
<path d="M43.4307 81.6979H41.4277V83.7007H43.4307V81.6979Z" fill="#2ECC71"/>
<path d="M43.4307 79.6766H41.4277V81.6979H43.4307V79.6766Z" fill="#2ECC71"/>
<path d="M43.4307 77.6737H41.4277V79.6766H43.4307V77.6737Z" fill="#2ECC71"/>
<path d="M43.4307 75.6525H41.4277V77.6737H43.4307V75.6525Z" fill="#2ECC71"/>
<path d="M43.4307 73.6287H41.4277V75.6499H43.4307V73.6287Z" fill="#2ECC71"/>
<path d="M43.4307 71.6284H41.4277V73.6313H43.4307V71.6284Z" fill="#2ECC71"/>
<path d="M43.4307 69.6045H41.4277V71.6257H43.4307V69.6045Z" fill="#2ECC71"/>
<path d="M43.4307 67.6016H41.4277V69.6045H43.4307V67.6016Z" fill="#28AF5F"/>
<path d="M43.4307 65.5803H41.4277V67.6016H43.4307V65.5803Z" fill="#28AF5F"/>
<path d="M43.4307 63.5828H41.4277V65.5856H43.4307V63.5828Z" fill="#28AF5F"/>
<path d="M43.4307 49.4865L41.4277 49.4865V51.4893H43.4306L43.4307 49.4865Z" fill="#28AF5F"/>
<path d="M43.4307 47.4652H41.4277V49.4865L43.4307 49.4865V47.4652Z" fill="#28AF5F"/>
<path d="M43.4307 45.4624H41.4277V47.4652H43.4307V45.4624Z" fill="#28AF5F"/>
<path d="M43.4307 43.4412H41.4277V45.4624H43.4307V43.4412Z" fill="#28AF5F"/>
<path d="M41.4277 83.7007H39.4067V85.7219H41.4277V83.7007Z" fill="#28AF5F"/>
<path d="M41.4277 81.6979H39.4067V83.7007H41.4277V81.6979Z" fill="#28AF5F"/>
<path d="M41.4277 79.6766H39.4067V81.6979H41.4277V79.6766Z" fill="#28AF5F"/>
<path d="M41.4277 77.6737H39.4067V79.6766H41.4277V77.6737Z" fill="#28AF5F"/>
<path d="M41.4277 75.6525H39.4067V77.6737H41.4277V75.6525Z" fill="#28AF5F"/>
<path d="M41.4277 73.6287H39.4067V75.6499H41.4277V73.6287Z" fill="#28AF5F"/>
<path d="M41.4277 71.6284H39.4067V73.6313H41.4277V71.6284Z" fill="#28AF5F"/>
<path d="M41.4277 69.6045H39.4067V71.6257H41.4277V69.6045Z" fill="#28AF5F"/>
<path d="M41.4277 67.6016H39.4067V69.6045H41.4277V67.6016Z" fill="#28AF5F"/>
<path d="M41.4277 49.4865H39.4067V51.4893H41.4277V49.4865Z" fill="#EFAD65"/>
<path d="M41.4277 47.4652H39.4067V49.4865H41.4277V47.4652Z" fill="#EFAD65"/>
<path d="M41.4277 45.4624H39.4067V47.4652H41.4277V45.4624Z" fill="#EFAD65"/>
<path d="M41.4277 43.4412H39.4067V45.4624H41.4277V43.4412Z" fill="#28AF5F"/>
<path d="M39.4091 49.4865H37.4062V51.4893H39.4091V49.4865Z" fill="#EFAD65"/>
<path d="M39.4091 47.4652H37.4062V49.4865H39.4091V47.4652Z" fill="#EFAD65"/>
<path d="M39.4091 45.4624H37.4062V47.4652H39.4091V45.4624Z" fill="#EFAD65"/>
<path d="M37.4062 47.4652H35.3848V49.4865L37.4062 49.4865V47.4652Z" fill="#EFAD65"/>
<path d="M37.4062 45.4624H35.3848V47.4652H37.4062V45.4624Z" fill="#EFAD65"/>
<path d="M37.406 43.4412H35.3848V45.4624H37.4062L37.406 43.4412Z" fill="#EFAD65"/>
<path d="M37.406 27.3263H35.3848V29.3475H37.406V27.3263Z" fill="#5E320A"/>
<path d="M37.406 25.3234H35.3848V27.3263H37.406V25.3234Z" fill="#5E320A"/>
<path d="M37.406 23.3021H35.3848V25.3234H37.406V23.3021Z" fill="#5E320A"/>
<path d="M37.406 21.2992H35.3848V23.3021H37.406V21.2992Z" fill="#5E320A"/>
<path d="M35.385 77.6737H33.3638V79.6766H35.385V77.6737Z" fill="#492807"/>
<path d="M35.385 75.6525H33.3638V77.6737H35.385V75.6525Z" fill="#492807"/>
<path d="M35.385 73.6287H33.3638V75.6499H35.385V73.6287Z" fill="#492807"/>
<path d="M35.385 71.6284H33.3638V73.6313H35.385V71.6284Z" fill="#492807"/>
<path d="M35.385 69.6045H33.3638V71.6257H35.385V69.6045Z" fill="#492807"/>
<path d="M35.385 67.6016H33.3638V69.6045H35.385V67.6016Z" fill="#492807"/>
<path d="M35.385 65.5803H33.3638V67.6016H35.385V65.5803Z" fill="#492807"/>
<path d="M35.385 63.5828H33.3638V65.5856H35.385V63.5828Z" fill="#492807"/>
<path d="M35.385 61.5563H33.3638V63.5775H35.385V61.5563Z" fill="#492807"/>
<path d="M35.385 59.535H33.3638V61.5563H35.385V59.535Z" fill="#492807"/>
<path d="M35.385 57.5348H33.3638V59.5377H35.385V57.5348Z" fill="#492807"/>
<path d="M35.385 55.5135H33.3638V57.5348H35.385V55.5135Z" fill="#492807"/>
<path d="M35.385 53.5106H33.3638V55.5135H35.385V53.5106Z" fill="#492807"/>
<path d="M35.385 51.4894H33.3638V53.5106H35.385V51.4894Z" fill="#492807"/>
<path d="M35.3848 49.4865L33.3638 49.4865V51.4894H35.385L35.3848 49.4865Z" fill="#492807"/>
<path d="M35.3848 47.4652H33.3638V49.4865L35.3848 49.4865V47.4652Z" fill="#EFAD65"/>
<path d="M35.3848 45.4624H33.3638V47.4652H35.3848V45.4624Z" fill="#EFAD65"/>
<path d="M35.3848 43.4412H33.3638V45.4624H35.3848V43.4412Z" fill="#EFAD65"/>
<path d="M35.385 41.4172H33.3638V43.4385H35.385V41.4172Z" fill="#492807"/>
<path d="M35.385 39.417H33.3638V41.4199H35.385V39.417Z" fill="#492807"/>
<path d="M35.385 37.3931H33.3638V39.4143H35.385V37.3931Z" fill="#492807"/>
<path d="M35.385 35.3928H33.3638V37.3957H35.385V35.3928Z" fill="#492807"/>
<path d="M35.385 33.369H33.3638V35.3903H35.385V33.369Z" fill="#492807"/>
<path d="M35.385 31.3713H33.3638V33.3742H35.385V31.3713Z" fill="#492807"/>
<path d="M35.3848 29.3475L33.3638 29.3475V31.3688H35.385L35.3848 29.3475Z" fill="#492807"/>
<path d="M35.3848 27.3263H33.3638V29.3475L35.3848 29.3475V27.3263Z" fill="#5E320A"/>
<path d="M35.3848 25.3234H33.3638V27.3263H35.3848V25.3234Z" fill="#723B0E"/>
<path d="M35.3848 23.3021H33.3638V25.3234H35.3848V23.3021Z" fill="#723B0E"/>
<path d="M33.3638 45.4624H31.3608V47.4653L33.3638 47.4652V45.4624Z" fill="#EFAD65"/>
<path d="M33.3638 43.4412H31.3608V45.4624H33.3638V43.4412Z" fill="#EFAD65"/>
<path d="M33.3638 29.3475H31.3608V31.3688H33.3638V29.3475Z" fill="#5E320A"/>
<path d="M33.3638 27.3263H31.3608V29.3475H33.3638V27.3263Z" fill="#723B0E"/>
<path d="M33.3638 25.3234H31.3608V27.3263H33.3638V25.3234Z" fill="#84400D"/>
</svg>
