<svg width="105" height="105" viewBox="0 0 105 105" fill="none" xmlns="http://www.w3.org/2000/svg">
<path d="M52.5002 4.73279C78.8812 4.73297 100.267 26.1194 100.267 52.5004C100.267 78.8812 78.8811 100.267 52.5002 100.267C26.1192 100.267 4.73285 78.8813 4.73267 52.5004C4.73267 26.1192 26.1191 4.73279 52.5002 4.73279Z" fill="#F9F7E7" stroke="#29100A" stroke-width="2"/>
<path d="M82.7794 62.1522H81.1414V63.7744H82.7794V62.1522Z" fill="#455360"/>
<path d="M82.7794 60.5142H81.1414V62.1522H82.7794V60.5142Z" fill="#455360"/>
<path d="M82.7794 58.8762H81.1414V60.5142H82.7794V58.8762Z" fill="#455360"/>
<path d="M82.7794 57.2513H81.1414V58.8736H82.7794V57.2513Z" fill="#455360"/>
<path d="M81.1414 63.7771H79.5192V65.4151H81.1414V63.7771Z" fill="#455379"/>
<path d="M81.1414 55.6133H79.5192V57.2513H81.1414V55.6133Z" fill="black"/>
<path d="M79.5192 62.1522H77.8812V63.7744H79.5192V62.1522Z" fill="#455360"/>
<path d="M79.5192 60.5142H77.8812V62.1522H79.5192V60.5142Z" fill="#455360"/>
<path d="M79.5192 58.8762H77.8812V60.5142H79.5192V58.8762Z" fill="#455360"/>
<path d="M79.5192 57.2513H77.8812V58.8736H79.5192V57.2513Z" fill="black"/>
<path d="M79.5192 55.6133H77.8812V57.2513H79.5192V55.6133Z" fill="black"/>
<path d="M79.5192 53.9911H77.8812V55.6133H79.5192V53.9911Z" fill="black"/>
<path d="M77.8812 63.7771H76.2432V65.4151H77.8812V63.7771Z" fill="#455379"/>
<path d="M77.8812 57.2513H76.2432V58.8736H77.8812V57.2513Z" fill="black"/>
<path d="M77.8812 55.6133H76.2432V57.2513H77.8812V55.6133Z" fill="black"/>
<path d="M77.8812 53.9911H76.2432V55.6133H77.8812V53.9911Z" fill="black"/>
<path d="M76.2406 55.6133H74.6157V57.2513H76.2406V55.6133Z" fill="black"/>
<path d="M76.2406 53.9911H74.6157V55.6133H76.2406V53.9911Z" fill="black"/>
<path d="M74.6183 60.5142H72.9803V62.1522H74.6183V60.5142Z" fill="#455360"/>
<path d="M74.6183 58.8762H72.9803V60.5142H74.6183V58.8762Z" fill="#455360"/>
<path d="M74.6183 57.2513H72.9803V58.8736H74.6183V57.2513Z" fill="#455360"/>
<path d="M74.6183 55.6133H72.9803V57.2513H74.6183V55.6133Z" fill="black"/>
<path d="M74.6183 53.9911H72.9803V55.6133H74.6183V53.9911Z" fill="black"/>
<path d="M74.6183 52.3504H72.9803V53.9884H74.6183V52.3504Z" fill="black"/>
<path d="M74.6183 50.7282H72.9803V52.3504H74.6183V50.7282Z" fill="black"/>
<path d="M74.6183 49.0902H72.9803V50.7282H74.6183V49.0902Z" fill="black"/>
<path d="M72.9777 62.1522H71.3554V63.7744H72.9777V62.1522Z" fill="#455379"/>
<path d="M72.9777 53.9911H71.3554V55.6133H72.9777V53.9911Z" fill="black"/>
<path d="M72.9777 52.3504H71.3554V53.9884H72.9777V52.3504Z" fill="#2D1212"/>
<path d="M72.9777 50.7282H71.3554V52.3504H72.9777V50.7282Z" fill="#2D1212"/>
<path d="M72.9777 49.0902H71.3554V50.7282H72.9777V49.0902Z" fill="#2D1212"/>
<path d="M72.9777 47.4679H71.3554V49.0902H72.9777V47.4679Z" fill="black"/>
<path d="M72.9777 45.8273H71.3554V47.4653H72.9777V45.8273Z" fill="black"/>
<path d="M72.9777 44.1893H71.3554V45.8273H72.9777V44.1893Z" fill="black"/>
<path d="M71.3554 52.3504H69.7174V53.9884H71.3554V52.3504Z" fill="black"/>
<path d="M71.3554 50.7282H69.7174V52.3504H71.3554V50.7282Z" fill="#2D1212"/>
<path d="M71.3554 49.0902H69.7174V50.7282H71.3554V49.0902Z" fill="#2D1212"/>
<path d="M71.3554 47.4679H69.7174V49.0902H71.3554V47.4679Z" fill="#2D1212"/>
<path d="M71.3554 45.8273H69.7174V47.4653H71.3554V45.8273Z" fill="#2D1212"/>
<path d="M71.3554 44.1893H69.7174V45.8273H71.3554V44.1893Z" fill="#2D1212"/>
<path d="M71.3554 42.5671H69.7174V44.1893H71.3554V42.5671Z" fill="black"/>
<path d="M69.7174 50.7282H68.0952V52.3504H69.7174V50.7282Z" fill="black"/>
<path d="M69.7174 49.0902H68.0952V50.7282H69.7174V49.0902Z" fill="#2D1212"/>
<path d="M69.7174 47.4679H68.0952V49.0902H69.7174V47.4679Z" fill="#2D1212"/>
<path d="M69.7174 45.8273H68.0952V47.4653H69.7174V45.8273Z" fill="#2D1212"/>
<path d="M69.7174 44.1893H68.0952V45.8273H69.7174V44.1893Z" fill="#2D1212"/>
<path d="M69.7174 42.5671H68.0952V44.1893H69.7174V42.5671Z" fill="#2D1212"/>
<path d="M69.7174 40.9264H68.0952V42.5644H69.7174V40.9264Z" fill="black"/>
<path d="M68.0926 83.3622H66.4546V84.9844H68.0926V83.3622Z" fill="#CE0505"/>
<path d="M68.0926 81.7268H66.4546V83.3648H68.0926V81.7268Z" fill="#CE0505"/>
<path d="M68.0926 80.0993H66.4546V81.7242H68.0926V80.0993Z" fill="#CE0505"/>
<path d="M68.0926 78.4639H66.4546V80.1019H68.0926V78.4639Z" fill="#E80C0C"/>
<path d="M68.0926 76.8391H66.4546V78.4613H68.0926V76.8391Z" fill="#E80C0C"/>
<path d="M68.0926 75.2011H66.4546V76.8391H68.0926V75.2011Z" fill="#E80C0C"/>
<path d="M68.0926 73.5788H66.4546V75.2011H68.0926V73.5788Z" fill="black"/>
<path d="M68.0926 70.3002H66.4546V71.9382H68.0926V70.3002Z" fill="black"/>
<path d="M68.0926 68.6753H66.4546V70.3002H68.0926V68.6753Z" fill="black"/>
<path d="M68.0926 55.6133H66.4546V57.2513H68.0926V55.6133Z" fill="black"/>
<path d="M68.0926 53.9911H66.4546V55.6133H68.0926V53.9911Z" fill="black"/>
<path d="M68.0926 52.3504H66.4546V53.9884H68.0926V52.3504Z" fill="black"/>
<path d="M68.0926 50.7282H66.4546V52.3504H68.0926V50.7282Z" fill="black"/>
<path d="M68.0926 49.0902H66.4546V50.7282H68.0926V49.0902Z" fill="black"/>
<path d="M68.0926 47.4679H66.4546V49.0902H68.0926V47.4679Z" fill="#2D1212"/>
<path d="M68.0926 45.8273H66.4546V47.4653H68.0926V45.8273Z" fill="#2D1212"/>
<path d="M68.0926 44.1893H66.4546V45.8273H68.0926V44.1893Z" fill="#2D1212"/>
<path d="M68.0926 42.5671H66.4546V44.1893H68.0926V42.5671Z" fill="#2D1212"/>
<path d="M68.0926 40.9264H66.4546V42.5644H68.0926V40.9264Z" fill="black"/>
<path d="M68.0926 37.6636H66.4546V39.3016H68.0926V37.6636Z" fill="black"/>
<path d="M68.0926 36.0413H66.4546V37.6636H68.0926V36.0413Z" fill="black"/>
<path d="M68.0926 34.4033H66.4546V36.0413H68.0926V34.4033Z" fill="black"/>
<path d="M68.0926 32.7627H66.4546V34.4007H68.0926V32.7627Z" fill="black"/>
<path d="M68.0926 31.1404H66.4546V32.7627H68.0926V31.1404Z" fill="black"/>
<path d="M66.4546 76.8391H64.8166V78.4613H66.4546V76.8391Z" fill="#E80C0C"/>
<path d="M66.4546 75.2011H64.8166V76.8391H66.4546V75.2011Z" fill="#E80C0C"/>
<path d="M66.4546 73.5788H64.8166V75.2011H66.4546V73.5788Z" fill="#FF0000"/>
<path d="M66.4546 71.9382H64.8166V73.5762H66.4546V71.9382Z" fill="black"/>
<path d="M66.4546 70.3002H64.8166V71.9382H66.4546V70.3002Z" fill="#2D1212"/>
<path d="M66.4546 68.6753H64.8166V70.3002H66.4546V68.6753Z" fill="black"/>
<path d="M66.4546 67.0399H64.8166V68.6779H66.4546V67.0399Z" fill="black"/>
<path d="M66.4546 65.4151H64.8166V67.0373H66.4546V65.4151Z" fill="black"/>
<path d="M66.4546 63.7771H64.8166V65.4151H66.4546V63.7771Z" fill="black"/>
<path d="M66.4546 62.1522H64.8166V63.7744H66.4546V62.1522Z" fill="black"/>
<path d="M66.4546 47.4679H64.8166V49.0902H66.4546V47.4679Z" fill="black"/>
<path d="M66.4546 45.8273H64.8166V47.4653H66.4546V45.8273Z" fill="#2D1212"/>
<path d="M66.4546 44.1893H64.8166V45.8273H66.4546V44.1893Z" fill="#2D1212"/>
<path d="M66.4546 42.5671H64.8166V44.1893H66.4546V42.5671Z" fill="#2D1212"/>
<path d="M66.4546 40.9264H64.8166V42.5644H66.4546V40.9264Z" fill="#2D1212"/>
<path d="M66.4546 39.3042H64.8166V40.9264H66.4546V39.3042Z" fill="black"/>
<path d="M66.4546 36.0413H64.8166V37.6636H66.4546V36.0413Z" fill="black"/>
<path d="M66.4546 34.4033H64.8166V36.0413H66.4546V34.4033Z" fill="#2D1212"/>
<path d="M66.4546 32.7627H64.8166V34.4007H66.4546V32.7627Z" fill="#2D1212"/>
<path d="M66.4546 31.1404H64.8166V32.7627H66.4546V31.1404Z" fill="#2D1212"/>
<path d="M66.4546 29.5024H64.8166V31.1404H66.4546V29.5024Z" fill="black"/>
<path d="M66.4546 27.8802H64.8166V29.5024H66.4546V27.8802Z" fill="black"/>
<path d="M64.8166 80.0993H63.1943V81.7242H64.8166V80.0993Z" fill="#C40505"/>
<path d="M64.8166 78.4639H63.1943V80.1019H64.8166V78.4639Z" fill="#CE0505"/>
<path d="M64.8166 76.8391H63.1943V78.4613H64.8166V76.8391Z" fill="#CE0505"/>
<path d="M64.8166 75.2011H63.1943V76.8391H64.8166V75.2011Z" fill="#2D1212"/>
<path d="M64.8166 73.5788H63.1943V75.2011H64.8166V73.5788Z" fill="#2D1212"/>
<path d="M64.8166 71.9382H63.1943V73.5762H64.8166V71.9382Z" fill="#FF0000"/>
<path d="M64.8166 70.3002H63.1943V71.9382H64.8166V70.3002Z" fill="#2D1212"/>
<path d="M64.8166 68.6753H63.1943V70.3002H64.8166V68.6753Z" fill="#2D1212"/>
<path d="M64.8166 67.0399H63.1943V68.6779H64.8166V67.0399Z" fill="#2D1212"/>
<path d="M64.8166 65.4151H63.1943V67.0373H64.8166V65.4151Z" fill="#2D1212"/>
<path d="M64.8166 63.7771H63.1943V65.4151H64.8166V63.7771Z" fill="#2D1212"/>
<path d="M64.8166 62.1522H63.1943V63.7744H64.8166V62.1522Z" fill="#2D1212"/>
<path d="M64.8166 60.5142H63.1943V62.1522H64.8166V60.5142Z" fill="black"/>
<path d="M64.8166 58.8762H63.1943V60.5142H64.8166V58.8762Z" fill="black"/>
<path d="M64.8166 57.2513H63.1943V58.8736H64.8166V57.2513Z" fill="black"/>
<path d="M64.8166 55.6133H63.1943V57.2513H64.8166V55.6133Z" fill="black"/>
<path d="M64.8166 53.9911H63.1943V55.6133H64.8166V53.9911Z" fill="black"/>
<path d="M64.8166 52.3504H63.1943V53.9884H64.8166V52.3504Z" fill="black"/>
<path d="M64.8166 50.7282H63.1943V52.3504H64.8166V50.7282Z" fill="black"/>
<path d="M64.8166 49.0902H63.1943V50.7282H64.8166V49.0902Z" fill="black"/>
<path d="M64.8166 47.4679H63.1943V49.0902H64.8166V47.4679Z" fill="#2D1212"/>
<path d="M64.8166 45.8273H63.1943V47.4653H64.8166V45.8273Z" fill="#2D1212"/>
<path d="M64.8166 44.1893H63.1943V45.8273H64.8166V44.1893Z" fill="#2D1212"/>
<path d="M64.8166 42.5671H63.1943V44.1893H64.8166V42.5671Z" fill="#2D1212"/>
<path d="M64.8166 40.9264H63.1943V42.5644H64.8166V40.9264Z" fill="#2D1212"/>
<path d="M64.8166 39.3042H63.1943V40.9264H64.8166V39.3042Z" fill="#2D1212"/>
<path d="M64.8166 37.6636H63.1943V39.3016H64.8166V37.6636Z" fill="black"/>
<path d="M64.8166 34.4033H63.1943V36.0413H64.8166V34.4033Z" fill="black"/>
<path d="M64.8166 32.7627H63.1943V34.4007H64.8166V32.7627Z" fill="#321E1E"/>
<path d="M64.8166 31.1404H63.1943V32.7627H64.8166V31.1404Z" fill="#321E1E"/>
<path d="M64.8166 29.5024H63.1943V31.1404H64.8166V29.5024Z" fill="#321E1E"/>
<path d="M64.8166 27.8802H63.1943V29.5024H64.8166V27.8802Z" fill="#321E1E"/>
<path d="M64.8166 26.2396H63.1943V27.8776H64.8166V26.2396Z" fill="black"/>
<path d="M63.1917 76.8391H61.5537V78.4613H63.1917V76.8391Z" fill="#C40505"/>
<path d="M63.1917 75.2011H61.5537V76.8391H63.1917V75.2011Z" fill="#321E1E"/>
<path d="M63.1917 73.5788H61.5537V75.2011H63.1917V73.5788Z" fill="#321E1E"/>
<path d="M63.1917 71.9382H61.5537V73.5762H63.1917V71.9382Z" fill="#2D1212"/>
<path d="M63.1917 70.3002H61.5537V71.9382H63.1917V70.3002Z" fill="#321E1E"/>
<path d="M63.1917 68.6753H61.5537V70.3002H63.1917V68.6753Z" fill="#321E1E"/>
<path d="M63.1917 67.0399H61.5537V68.6779H63.1917V67.0399Z" fill="#321E1E"/>
<path d="M63.1917 65.4151H61.5537V67.0373H63.1917V65.4151Z" fill="#321E1E"/>
<path d="M63.1917 63.7771H61.5537V65.4151H63.1917V63.7771Z" fill="#321E1E"/>
<path d="M63.1917 62.1522H61.5537V63.7744H63.1917V62.1522Z" fill="#2D1212"/>
<path d="M63.1917 60.5142H61.5537V62.1522H63.1917V60.5142Z" fill="#2D1212"/>
<path d="M63.1917 58.8762H61.5537V60.5142H63.1917V58.8762Z" fill="#2D1212"/>
<path d="M63.1917 57.2513H61.5537V58.8736H63.1917V57.2513Z" fill="#2D1212"/>
<path d="M63.1917 55.6133H61.5537V57.2513H63.1917V55.6133Z" fill="#2D1212"/>
<path d="M63.1917 53.9911H61.5537V55.6133H63.1917V53.9911Z" fill="#2D1212"/>
<path d="M63.1917 52.3504H61.5537V53.9884H63.1917V52.3504Z" fill="#2D1212"/>
<path d="M63.1917 50.7282H61.5537V52.3504H63.1917V50.7282Z" fill="#2D1212"/>
<path d="M63.1917 49.0902H61.5537V50.7282H63.1917V49.0902Z" fill="#2D1212"/>
<path d="M63.1917 47.4679H61.5537V49.0902H63.1917V47.4679Z" fill="#2D1212"/>
<path d="M63.1917 45.8273H61.5537V47.4653H63.1917V45.8273Z" fill="#321E1E"/>
<path d="M63.1917 44.1893H61.5537V45.8273H63.1917V44.1893Z" fill="#2D1212"/>
<path d="M63.1917 42.5671H61.5537V44.1893H63.1917V42.5671Z" fill="#321E1E"/>
<path d="M63.1917 40.9264H61.5537V42.5644H63.1917V40.9264Z" fill="#2D1212"/>
<path d="M63.1917 39.3042H61.5537V40.9264H63.1917V39.3042Z" fill="#2D1212"/>
<path d="M63.1917 37.6636H61.5537V39.3016H63.1917V37.6636Z" fill="#2D1212"/>
<path d="M63.1917 36.0413H61.5537V37.6636H63.1917V36.0413Z" fill="black"/>
<path d="M63.1917 34.4033H61.5537V36.0413H63.1917V34.4033Z" fill="#321E1E"/>
<path d="M63.1917 32.7627H61.5537V34.4007H63.1917V32.7627Z" fill="#321E1E"/>
<path d="M63.1917 31.1404H61.5537V32.7627H63.1917V31.1404Z" fill="#321E1E"/>
<path d="M63.1917 29.5024H61.5537V31.1404H63.1917V29.5024Z" fill="#321E1E"/>
<path d="M63.1917 27.8802H61.5537V29.5024H63.1917V27.8802Z" fill="#321E1E"/>
<path d="M63.1917 26.2396H61.5537V27.8776H63.1917V26.2396Z" fill="#321E1E"/>
<path d="M63.1917 24.6173H61.5537V26.2396H63.1917V24.6173Z" fill="black"/>
<path d="M61.5537 78.4639H59.9314V80.1019H61.5537V78.4639Z" fill="#C60606"/>
<path d="M61.5537 76.8391H59.9314V78.4613H61.5537V76.8391Z" fill="#CE0505"/>
<path d="M61.5537 75.2011H59.9314V76.8391H61.5537V75.2011Z" fill="#321E1E"/>
<path d="M61.5537 73.5788H59.9314V75.2011H61.5537V73.5788Z" fill="#CE0505"/>
<path d="M61.5537 71.9382H59.9314V73.5762H61.5537V71.9382Z" fill="#E80C0C"/>
<path d="M61.5537 70.3002H59.9314V71.9382H61.5537V70.3002Z" fill="#321E1E"/>
<path d="M61.5537 68.6753H59.9314V70.3002H61.5537V68.6753Z" fill="#321E1E"/>
<path d="M61.5537 67.0399H59.9314V68.6779H61.5537V67.0399Z" fill="#321E1E"/>
<path d="M61.5537 65.4151H59.9314V67.0373H61.5537V65.4151Z" fill="#321E1E"/>
<path d="M61.5537 63.7771H59.9314V65.4151H61.5537V63.7771Z" fill="#321E1E"/>
<path d="M61.5537 62.1522H59.9314V63.7744H61.5537V62.1522Z" fill="#321E1E"/>
<path d="M61.5537 60.5142H59.9314V62.1522H61.5537V60.5142Z" fill="#321E1E"/>
<path d="M61.5537 58.8762H59.9314V60.5142H61.5537V58.8762Z" fill="#321E1E"/>
<path d="M61.5537 57.2513H59.9314V58.8736H61.5537V57.2513Z" fill="#321E1E"/>
<path d="M61.5537 55.6133H59.9314V57.2513H61.5537V55.6133Z" fill="#321E1E"/>
<path d="M61.5537 53.9911H59.9314V55.6133H61.5537V53.9911Z" fill="#321E1E"/>
<path d="M61.5537 52.3504H59.9314V53.9884H61.5537V52.3504Z" fill="#321E1E"/>
<path d="M61.5537 50.7282H59.9314V52.3504H61.5537V50.7282Z" fill="#321E1E"/>
<path d="M61.5537 49.0902H59.9314V50.7282H61.5537V49.0902Z" fill="#321E1E"/>
<path d="M61.5537 47.4679H59.9314V49.0902H61.5537V47.4679Z" fill="#321E1E"/>
<path d="M61.5537 45.8273H59.9314V47.4653H61.5537V45.8273Z" fill="#321E1E"/>
<path d="M61.5537 44.1893H59.9314V45.8273H61.5537V44.1893Z" fill="#321E1E"/>
<path d="M61.5537 42.5671H59.9314V44.1893H61.5537V42.5671Z" fill="#321E1E"/>
<path d="M61.5537 40.9264H59.9314V42.5644H61.5537V40.9264Z" fill="#321E1E"/>
<path d="M61.5537 39.3042H59.9314V40.9264H61.5537V39.3042Z" fill="#2D1212"/>
<path d="M61.5537 37.6636H59.9314V39.3016H61.5537V37.6636Z" fill="#2D1212"/>
<path d="M61.5537 36.0413H59.9314V37.6636H61.5537V36.0413Z" fill="#321E1E"/>
<path d="M61.5537 34.4033H59.9314V36.0413H61.5537V34.4033Z" fill="#321E1E"/>
<path d="M61.5537 32.7627H59.9314V34.4007H61.5537V32.7627Z" fill="#0C0C0C"/>
<path d="M61.5537 31.1404H59.9314V32.7627H61.5537V31.1404Z" fill="#0C0C0C"/>
<path d="M61.5537 29.5024H59.9314V31.1404H61.5537V29.5024Z" fill="#FF0000"/>
<path d="M61.5537 27.8802H59.9314V29.5024H61.5537V27.8802Z" fill="#0C0C0C"/>
<path d="M61.5537 26.2396H59.9314V27.8776H61.5537V26.2396Z" fill="#321E1E"/>
<path d="M61.5537 24.6173H59.9314V26.2396H61.5537V24.6173Z" fill="#321E1E"/>
<path d="M61.5537 22.9793H59.9314V24.6173H61.5537V22.9793Z" fill="black"/>
<path d="M59.9314 81.7268H58.2934V83.3648H59.9314V81.7268Z" fill="#C40505"/>
<path d="M59.9314 80.0993H58.2934V81.7242H59.9314V80.0993Z" fill="#C60606"/>
<path d="M59.9314 78.4639H58.2934V80.1019H59.9314V78.4639Z" fill="#C60606"/>
<path d="M59.9314 76.8391H58.2934V78.4613H59.9314V76.8391Z" fill="#E50000"/>
<path d="M59.9314 75.2011H58.2934V76.8391H59.9314V75.2011Z" fill="#E80C0C"/>
<path d="M59.9314 73.5788H58.2934V75.2011H59.9314V73.5788Z" fill="#E80C0C"/>
<path d="M59.9314 71.9382H58.2934V73.5762H59.9314V71.9382Z" fill="#321E1E"/>
<path d="M59.9314 70.3002H58.2934V71.9382H59.9314V70.3002Z" fill="#321E1E"/>
<path d="M59.9314 68.6753H58.2934V70.3002H59.9314V68.6753Z" fill="#321E1E"/>
<path d="M59.9314 67.0399H58.2934V68.6779H59.9314V67.0399Z" fill="#321E1E"/>
<path d="M59.9314 65.4151H58.2934V67.0373H59.9314V65.4151Z" fill="#321E1E"/>
<path d="M59.9314 63.7771H58.2934V65.4151H59.9314V63.7771Z" fill="#321E1E"/>
<path d="M59.9314 62.1522H58.2934V63.7744H59.9314V62.1522Z" fill="#321E1E"/>
<path d="M59.9314 60.5142H58.2934V62.1522H59.9314V60.5142Z" fill="#321E1E"/>
<path d="M59.9314 58.8762H58.2934V60.5142H59.9314V58.8762Z" fill="#321E1E"/>
<path d="M59.9314 57.2513H58.2934V58.8736H59.9314V57.2513Z" fill="#321E1E"/>
<path d="M59.9314 55.6133H58.2934V57.2513H59.9314V55.6133Z" fill="#321E1E"/>
<path d="M59.9314 53.9911H58.2934V55.6133H59.9314V53.9911Z" fill="#321E1E"/>
<path d="M59.9314 52.3504H58.2934V53.9884H59.9314V52.3504Z" fill="#321E1E"/>
<path d="M59.9314 50.7282H58.2934V52.3504H59.9314V50.7282Z" fill="#321E1E"/>
<path d="M59.9314 49.0902H58.2934V50.7282H59.9314V49.0902Z" fill="#321E1E"/>
<path d="M59.9314 47.4679H58.2934V49.0902H59.9314V47.4679Z" fill="#321E1E"/>
<path d="M59.9314 45.8273H58.2934V47.4653H59.9314V45.8273Z" fill="#321E1E"/>
<path d="M59.9314 44.1893H58.2934V45.8273H59.9314V44.1893Z" fill="#321E1E"/>
<path d="M59.9314 42.5671H58.2934V44.1893H59.9314V42.5671Z" fill="#321E1E"/>
<path d="M59.9314 40.9264H58.2934V42.5644H59.9314V40.9264Z" fill="#321E1E"/>
<path d="M59.9314 39.3042H58.2934V40.9264H59.9314V39.3042Z" fill="#321E1E"/>
<path d="M59.9314 37.6636H58.2934V39.3016H59.9314V37.6636Z" fill="#2D1212"/>
<path d="M59.9314 36.0413H58.2934V37.6636H59.9314V36.0413Z" fill="#321E1E"/>
<path d="M59.9314 34.4033H58.2934V36.0413H59.9314V34.4033Z" fill="#0C0C0C"/>
<path d="M59.9314 32.7627H58.2934V34.4007H59.9314V32.7627Z" fill="#0C0C0C"/>
<path d="M59.9314 31.1404H58.2934V32.7627H59.9314V31.1404Z" fill="#0C0C0C"/>
<path d="M59.9314 29.5024H58.2934V31.1404H59.9314V29.5024Z" fill="#FF0000"/>
<path d="M59.9314 27.8802H58.2934V29.5024H59.9314V27.8802Z" fill="#0C0C0C"/>
<path d="M59.9314 26.2396H58.2934V27.8776H59.9314V26.2396Z" fill="#0C0C0C"/>
<path d="M59.9314 24.6173H58.2934V26.2396H59.9314V24.6173Z" fill="#321E1E"/>
<path d="M59.9314 22.9793H58.2934V24.6173H59.9314V22.9793Z" fill="black"/>
<path d="M59.9314 21.3571H58.2934V22.9793H59.9314V21.3571Z" fill="black"/>
<path d="M58.2934 81.7268H56.6712V83.3648H58.2934V81.7268Z" fill="#C40505"/>
<path d="M58.2934 80.0993H56.6712V81.7242H58.2934V80.0993Z" fill="#E50000"/>
<path d="M58.2934 78.4639H56.6712V80.1019H58.2934V78.4639Z" fill="#E50000"/>
<path d="M58.2934 76.8391H56.6712V78.4613H58.2934V76.8391Z" fill="#E50000"/>
<path d="M58.2934 75.2011H56.6712V76.8391H58.2934V75.2011Z" fill="black"/>
<path d="M58.2934 73.5788H56.6712V75.2011H58.2934V73.5788Z" fill="#E80C0C"/>
<path d="M58.2934 71.9382H56.6712V73.5762H58.2934V71.9382Z" fill="#E80C0C"/>
<path d="M58.2934 70.3002H56.6712V71.9382H58.2934V70.3002Z" fill="#321E1E"/>
<path d="M58.2934 68.6753H56.6712V70.3002H58.2934V68.6753Z" fill="#321E1E"/>
<path d="M58.2934 67.0399H56.6712V68.6779H58.2934V67.0399Z" fill="#321E1E"/>
<path d="M58.2934 65.4151H56.6712V67.0373H58.2934V65.4151Z" fill="#321E1E"/>
<path d="M58.2934 63.7771H56.6712V65.4151H58.2934V63.7771Z" fill="#321E1E"/>
<path d="M58.2934 62.1522H56.6712V63.7744H58.2934V62.1522Z" fill="#321E1E"/>
<path d="M58.2934 60.5142H56.6712V62.1522H58.2934V60.5142Z" fill="#321E1E"/>
<path d="M58.2934 58.8762H56.6712V60.5142H58.2934V58.8762Z" fill="#321E1E"/>
<path d="M58.2934 57.2513H56.6712V58.8736H58.2934V57.2513Z" fill="#321E1E"/>
<path d="M58.2934 55.6133H56.6712V57.2513H58.2934V55.6133Z" fill="#321E1E"/>
<path d="M58.2934 53.9911H56.6712V55.6133H58.2934V53.9911Z" fill="#321E1E"/>
<path d="M58.2934 52.3504H56.6712V53.9884H58.2934V52.3504Z" fill="#321E1E"/>
<path d="M58.2934 50.7282H56.6712V52.3504H58.2934V50.7282Z" fill="#321E1E"/>
<path d="M58.2934 49.0902H56.6712V50.7282H58.2934V49.0902Z" fill="#321E1E"/>
<path d="M58.2934 47.4679H56.6712V49.0902H58.2934V47.4679Z" fill="#321E1E"/>
<path d="M58.2934 45.8273H56.6712V47.4653H58.2934V45.8273Z" fill="#321E1E"/>
<path d="M58.2934 44.1893H56.6712V45.8273H58.2934V44.1893Z" fill="#321E1E"/>
<path d="M58.2934 42.5671H56.6712V44.1893H58.2934V42.5671Z" fill="#321E1E"/>
<path d="M58.2934 40.9264H56.6712V42.5644H58.2934V40.9264Z" fill="#321E1E"/>
<path d="M58.2934 39.3042H56.6712V40.9264H58.2934V39.3042Z" fill="#321E1E"/>
<path d="M58.2934 37.6636H56.6712V39.3016H58.2934V37.6636Z" fill="#2D1212"/>
<path d="M58.2934 36.0413H56.6712V37.6636H58.2934V36.0413Z" fill="#321E1E"/>
<path d="M58.2934 34.4033H56.6712V36.0413H58.2934V34.4033Z" fill="#0C0C0C"/>
<path d="M58.2934 32.7627H56.6712V34.4007H58.2934V32.7627Z" fill="#0C0C0C"/>
<path d="M58.2934 31.1404H56.6712V32.7627H58.2934V31.1404Z" fill="#0C0C0C"/>
<path d="M58.2934 29.5024H56.6712V31.1404H58.2934V29.5024Z" fill="#0C0C0C"/>
<path d="M58.2934 27.8802H56.6712V29.5024H58.2934V27.8802Z" fill="#0C0C0C"/>
<path d="M58.2934 26.2396H56.6712V27.8776H58.2934V26.2396Z" fill="#0C0C0C"/>
<path d="M58.2934 24.6173H56.6712V26.2396H58.2934V24.6173Z" fill="black"/>
<path d="M58.2934 22.9793H56.6712V24.6173H58.2934V22.9793Z" fill="#321E1E"/>
<path d="M58.2934 21.3571H56.6712V22.9793H58.2934V21.3571Z" fill="black"/>
<path d="M56.6686 84.9871H55.0306V86.6251H56.6686V84.9871Z" fill="#C40505"/>
<path d="M56.6686 83.3622H55.0306V84.9844H56.6686V83.3622Z" fill="#C40505"/>
<path d="M56.6686 81.7268H55.0306V83.3648H56.6686V81.7268Z" fill="#E50000"/>
<path d="M56.6686 80.0993H55.0306V81.7242H56.6686V80.0993Z" fill="#E50000"/>
<path d="M56.6686 78.4639H55.0306V80.1019H56.6686V78.4639Z" fill="black"/>
<path d="M56.6686 76.8391H55.0306V78.4613H56.6686V76.8391Z" fill="black"/>
<path d="M56.6686 71.9382H55.0306V73.5762H56.6686V71.9382Z" fill="#2D1212"/>
<path d="M56.6686 70.3002H55.0306V71.9382H56.6686V70.3002Z" fill="#2D1212"/>
<path d="M56.6686 68.6753H55.0306V70.3002H56.6686V68.6753Z" fill="#321E1E"/>
<path d="M56.6686 67.0399H55.0306V68.6779H56.6686V67.0399Z" fill="#321E1E"/>
<path d="M56.6686 65.4151H55.0306V67.0373H56.6686V65.4151Z" fill="#321E1E"/>
<path d="M56.6686 63.7771H55.0306V65.4151H56.6686V63.7771Z" fill="#321E1E"/>
<path d="M56.6686 62.1522H55.0306V63.7744H56.6686V62.1522Z" fill="#321E1E"/>
<path d="M56.6686 60.5142H55.0306V62.1522H56.6686V60.5142Z" fill="#321E1E"/>
<path d="M56.6686 58.8762H55.0306V60.5142H56.6686V58.8762Z" fill="#321E1E"/>
<path d="M56.6686 57.2513H55.0306V58.8736H56.6686V57.2513Z" fill="#321E1E"/>
<path d="M56.6686 55.6133H55.0306V57.2513H56.6686V55.6133Z" fill="#321E1E"/>
<path d="M56.6686 53.9911H55.0306V55.6133H56.6686V53.9911Z" fill="#321E1E"/>
<path d="M56.6686 52.3504H55.0306V53.9884H56.6686V52.3504Z" fill="#321E1E"/>
<path d="M56.6686 50.7282H55.0306V52.3504H56.6686V50.7282Z" fill="#321E1E"/>
<path d="M56.6686 49.0902H55.0306V50.7282H56.6686V49.0902Z" fill="#321E1E"/>
<path d="M56.6686 47.4679H55.0306V49.0902H56.6686V47.4679Z" fill="#321E1E"/>
<path d="M56.6686 45.8273H55.0306V47.4653H56.6686V45.8273Z" fill="#321E1E"/>
<path d="M56.6686 44.1893H55.0306V45.8273H56.6686V44.1893Z" fill="#321E1E"/>
<path d="M56.6686 42.5671H55.0306V44.1893H56.6686V42.5671Z" fill="#321E1E"/>
<path d="M56.6686 40.9264H55.0306V42.5644H56.6686V40.9264Z" fill="#321E1E"/>
<path d="M56.6686 39.3042H55.0306V40.9264H56.6686V39.3042Z" fill="#321E1E"/>
<path d="M56.6686 37.6636H55.0306V39.3016H56.6686V37.6636Z" fill="#2D1212"/>
<path d="M56.6686 36.0413H55.0306V37.6636H56.6686V36.0413Z" fill="#321E1E"/>
<path d="M56.6686 34.4033H55.0306V36.0413H56.6686V34.4033Z" fill="#0C0C0C"/>
<path d="M56.6686 32.7627H55.0306V34.4007H56.6686V32.7627Z" fill="#0C0C0C"/>
<path d="M56.6686 31.1404H55.0306V32.7627H56.6686V31.1404Z" fill="#0C0C0C"/>
<path d="M56.6686 29.5024H55.0306V31.1404H56.6686V29.5024Z" fill="black"/>
<path d="M56.6686 27.8802H55.0306V29.5024H56.6686V27.8802Z" fill="#0C0C0C"/>
<path d="M56.6686 26.2396H55.0306V27.8776H56.6686V26.2396Z" fill="#0C0C0C"/>
<path d="M56.6686 24.6173H55.0306V26.2396H56.6686V24.6173Z" fill="black"/>
<path d="M56.6686 22.9793H55.0306V24.6173H56.6686V22.9793Z" fill="#321E1E"/>
<path d="M56.6686 21.3571H55.0306V22.9793H56.6686V21.3571Z" fill="black"/>
<path d="M55.0306 73.5788H53.4083V75.2011H55.0306V73.5788Z" fill="black"/>
<path d="M55.0306 71.9382H53.4083V73.5762H55.0306V71.9382Z" fill="#2D1212"/>
<path d="M55.0306 70.3002H53.4083V71.9382H55.0306V70.3002Z" fill="#321E1E"/>
<path d="M55.0306 68.6753H53.4083V70.3002H55.0306V68.6753Z" fill="#321E1E"/>
<path d="M55.0306 67.0399H53.4083V68.6779H55.0306V67.0399Z" fill="#321E1E"/>
<path d="M55.0306 65.4151H53.4083V67.0373H55.0306V65.4151Z" fill="#321E1E"/>
<path d="M55.0306 63.7771H53.4083V65.4151H55.0306V63.7771Z" fill="#321E1E"/>
<path d="M55.0306 62.1522H53.4083V63.7744H55.0306V62.1522Z" fill="#321E1E"/>
<path d="M55.0306 60.5142H53.4083V62.1522H55.0306V60.5142Z" fill="#321E1E"/>
<path d="M55.0306 58.8762H53.4083V60.5142H55.0306V58.8762Z" fill="#321E1E"/>
<path d="M55.0306 57.2513H53.4083V58.8736H55.0306V57.2513Z" fill="#321E1E"/>
<path d="M55.0306 55.6133H53.4083V57.2513H55.0306V55.6133Z" fill="#321E1E"/>
<path d="M55.0306 53.9911H53.4083V55.6133H55.0306V53.9911Z" fill="#321E1E"/>
<path d="M55.0306 52.3504H53.4083V53.9884H55.0306V52.3504Z" fill="#321E1E"/>
<path d="M55.0306 50.7282H53.4083V52.3504H55.0306V50.7282Z" fill="#321E1E"/>
<path d="M55.0306 49.0902H53.4083V50.7282H55.0306V49.0902Z" fill="#321E1E"/>
<path d="M55.0306 47.4679H53.4083V49.0902H55.0306V47.4679Z" fill="#321E1E"/>
<path d="M55.0306 45.8273H53.4083V47.4653H55.0306V45.8273Z" fill="#321E1E"/>
<path d="M55.0306 44.1893H53.4083V45.8273H55.0306V44.1893Z" fill="#321E1E"/>
<path d="M55.0306 42.5671H53.4083V44.1893H55.0306V42.5671Z" fill="#321E1E"/>
<path d="M55.0306 40.9264H53.4083V42.5644H55.0306V40.9264Z" fill="#321E1E"/>
<path d="M55.0306 39.3042H53.4083V40.9264H55.0306V39.3042Z" fill="#321E1E"/>
<path d="M55.0306 37.6636H53.4083V39.3016H55.0306V37.6636Z" fill="#2D1212"/>
<path d="M55.0306 36.0413H53.4083V37.6636H55.0306V36.0413Z" fill="black"/>
<path d="M55.0306 34.4033H53.4083V36.0413H55.0306V34.4033Z" fill="#321E1E"/>
<path d="M55.0306 32.7627H53.4083V34.4007H55.0306V32.7627Z" fill="#0C0C0C"/>
<path d="M55.0306 31.1404H53.4083V32.7627H55.0306V31.1404Z" fill="#0C0C0C"/>
<path d="M55.0306 29.5024H53.4083V31.1404H55.0306V29.5024Z" fill="#FF0000"/>
<path d="M55.0306 27.8802H53.4083V29.5024H55.0306V27.8802Z" fill="#0C0C0C"/>
<path d="M55.0306 26.2396H53.4083V27.8776H55.0306V26.2396Z" fill="black"/>
<path d="M55.0306 24.6173H53.4083V26.2396H55.0306V24.6173Z" fill="#321E1E"/>
<path d="M55.0306 22.9793H53.4083V24.6173H55.0306V22.9793Z" fill="black"/>
<path d="M53.4057 81.7268H51.7677V83.3648H53.4057V81.7268Z" fill="#CE0505"/>
<path d="M53.4057 80.0993H51.7677V81.7242H53.4057V80.0993Z" fill="#CE0505"/>
<path d="M53.4057 78.4639H51.7677V80.1019H53.4057V78.4639Z" fill="#CE0505"/>
<path d="M53.4057 76.8391H51.7677V78.4613H53.4057V76.8391Z" fill="black"/>
<path d="M53.4057 75.2011H51.7677V76.8391H53.4057V75.2011Z" fill="black"/>
<path d="M53.4057 73.5788H51.7677V75.2011H53.4057V73.5788Z" fill="#2D1212"/>
<path d="M53.4057 71.9382H51.7677V73.5762H53.4057V71.9382Z" fill="#E80C0C"/>
<path d="M53.4057 70.3002H51.7677V71.9382H53.4057V70.3002Z" fill="#E80C0C"/>
<path d="M53.4057 68.6753H51.7677V70.3002H53.4057V68.6753Z" fill="#321E1E"/>
<path d="M53.4057 67.0399H51.7677V68.6779H53.4057V67.0399Z" fill="#321E1E"/>
<path d="M53.4057 65.4151H51.7677V67.0373H53.4057V65.4151Z" fill="#321E1E"/>
<path d="M53.4057 63.7771H51.7677V65.4151H53.4057V63.7771Z" fill="#321E1E"/>
<path d="M53.4057 62.1522H51.7677V63.7744H53.4057V62.1522Z" fill="#321E1E"/>
<path d="M53.4057 60.5142H51.7677V62.1522H53.4057V60.5142Z" fill="#321E1E"/>
<path d="M53.4057 58.8762H51.7677V60.5142H53.4057V58.8762Z" fill="#321E1E"/>
<path d="M53.4057 57.2513H51.7677V58.8736H53.4057V57.2513Z" fill="#321E1E"/>
<path d="M53.4057 55.6133H51.7677V57.2513H53.4057V55.6133Z" fill="#321E1E"/>
<path d="M53.4057 53.9911H51.7677V55.6133H53.4057V53.9911Z" fill="#321E1E"/>
<path d="M53.4057 52.3504H51.7677V53.9884H53.4057V52.3504Z" fill="#321E1E"/>
<path d="M53.4057 50.7282H51.7677V52.3504H53.4057V50.7282Z" fill="#321E1E"/>
<path d="M53.4057 49.0902H51.7677V50.7282H53.4057V49.0902Z" fill="#321E1E"/>
<path d="M53.4057 47.4679H51.7677V49.0902H53.4057V47.4679Z" fill="#321E1E"/>
<path d="M53.4057 45.8273H51.7677V47.4653H53.4057V45.8273Z" fill="#321E1E"/>
<path d="M53.4057 44.1893H51.7677V45.8273H53.4057V44.1893Z" fill="#321E1E"/>
<path d="M53.4057 42.5671H51.7677V44.1893H53.4057V42.5671Z" fill="#2D1212"/>
<path d="M53.4057 40.9264H51.7677V42.5644H53.4057V40.9264Z" fill="#2D1212"/>
<path d="M53.4057 39.3042H51.7677V40.9264H53.4057V39.3042Z" fill="#2D1212"/>
<path d="M53.4057 37.6636H51.7677V39.3016H53.4057V37.6636Z" fill="black"/>
<path d="M53.4057 34.4033H51.7677V36.0413H53.4057V34.4033Z" fill="black"/>
<path d="M53.4057 32.7627H51.7677V34.4007H53.4057V32.7627Z" fill="#321E1E"/>
<path d="M53.4057 31.1404H51.7677V32.7627H53.4057V31.1404Z" fill="#321E1E"/>
<path d="M53.4057 29.5024H51.7677V31.1404H53.4057V29.5024Z" fill="#321E1E"/>
<path d="M53.4057 27.8802H51.7677V29.5024H53.4057V27.8802Z" fill="#321E1E"/>
<path d="M53.4057 26.2396H51.7677V27.8776H53.4057V26.2396Z" fill="#321E1E"/>
<path d="M53.4057 24.6173H51.7677V26.2396H53.4057V24.6173Z" fill="black"/>
<path d="M53.4057 22.9793H51.7677V24.6173H53.4057V22.9793Z" fill="black"/>
<path d="M51.7677 78.4639H50.1297V80.1019H51.7677V78.4639Z" fill="#CE0505"/>
<path d="M51.7677 76.8391H50.1297V78.4613H51.7677V76.8391Z" fill="#2D1212"/>
<path d="M51.7677 75.2011H50.1297V76.8391H51.7677V75.2011Z" fill="#2D1212"/>
<path d="M51.7677 73.5788H50.1297V75.2011H51.7677V73.5788Z" fill="#E80C0C"/>
<path d="M51.7677 71.9382H50.1297V73.5762H51.7677V71.9382Z" fill="#E80C0C"/>
<path d="M51.7677 70.3002H50.1297V71.9382H51.7677V70.3002Z" fill="#321E1E"/>
<path d="M51.7677 68.6753H50.1297V70.3002H51.7677V68.6753Z" fill="#321E1E"/>
<path d="M51.7677 67.0399H50.1297V68.6779H51.7677V67.0399Z" fill="#321E1E"/>
<path d="M51.7677 65.4151H50.1297V67.0373H51.7677V65.4151Z" fill="black"/>
<path d="M51.7677 63.7771H50.1297V65.4151H51.7677V63.7771Z" fill="black"/>
<path d="M51.7677 62.1522H50.1297V63.7744H51.7677V62.1522Z" fill="black"/>
<path d="M51.7677 60.5142H50.1297V62.1522H51.7677V60.5142Z" fill="#2D1212"/>
<path d="M51.7677 58.8762H50.1297V60.5142H51.7677V58.8762Z" fill="#2D1212"/>
<path d="M51.7677 57.2513H50.1297V58.8736H51.7677V57.2513Z" fill="#2D1212"/>
<path d="M51.7677 55.6133H50.1297V57.2513H51.7677V55.6133Z" fill="#2D1212"/>
<path d="M51.7677 53.9911H50.1297V55.6133H51.7677V53.9911Z" fill="#2D1212"/>
<path d="M51.7677 52.3504H50.1297V53.9884H51.7677V52.3504Z" fill="#2D1212"/>
<path d="M51.7677 50.7282H50.1297V52.3504H51.7677V50.7282Z" fill="#2D1212"/>
<path d="M51.7677 49.0902H50.1297V50.7282H51.7677V49.0902Z" fill="#2D1212"/>
<path d="M51.7677 47.4679H50.1297V49.0902H51.7677V47.4679Z" fill="#2D1212"/>
<path d="M51.7677 45.8273H50.1297V47.4653H51.7677V45.8273Z" fill="#2D1212"/>
<path d="M51.7677 44.1893H50.1297V45.8273H51.7677V44.1893Z" fill="#2D1212"/>
<path d="M51.7677 42.5671H50.1297V44.1893H51.7677V42.5671Z" fill="#2D1212"/>
<path d="M51.7677 40.9264H50.1297V42.5644H51.7677V40.9264Z" fill="#2D1212"/>
<path d="M51.7677 39.3042H50.1297V40.9264H51.7677V39.3042Z" fill="black"/>
<path d="M51.7677 32.7627H50.1297V34.4007H51.7677V32.7627Z" fill="black"/>
<path d="M51.7677 31.1404H50.1297V32.7627H51.7677V31.1404Z" fill="black"/>
<path d="M51.7677 29.5024H50.1297V31.1404H51.7677V29.5024Z" fill="black"/>
<path d="M51.7677 27.8802H50.1297V29.5024H51.7677V27.8802Z" fill="black"/>
<path d="M51.7677 26.2396H50.1297V27.8776H51.7677V26.2396Z" fill="black"/>
<path d="M50.1297 80.0993H48.5074V81.7242H50.1297V80.0993Z" fill="#CE0505"/>
<path d="M50.1297 78.4639H48.5074V80.1019H50.1297V78.4639Z" fill="#C60606"/>
<path d="M50.1297 76.8391H48.5074V78.4613H50.1297V76.8391Z" fill="#C60606"/>
<path d="M50.1297 75.2011H48.5074V76.8391H50.1297V75.2011Z" fill="#E80C0C"/>
<path d="M50.1297 73.5788H48.5074V75.2011H50.1297V73.5788Z" fill="#E80C0C"/>
<path d="M50.1297 71.9382H48.5074V73.5762H50.1297V71.9382Z" fill="#E80C0C"/>
<path d="M50.1297 70.3002H48.5074V71.9382H50.1297V70.3002Z" fill="#E80C0C"/>
<path d="M50.1297 68.6753H48.5074V70.3002H50.1297V68.6753Z" fill="black"/>
<path d="M50.1297 67.0399H48.5074V68.6779H50.1297V67.0399Z" fill="black"/>
<path d="M50.1297 65.4151H48.5074V67.0373H50.1297V65.4151Z" fill="black"/>
<path d="M50.1297 62.1522H48.5074V63.7744H50.1297V62.1522Z" fill="black"/>
<path d="M50.1297 60.5142H48.5074V62.1522H50.1297V60.5142Z" fill="black"/>
<path d="M50.1297 58.8762H48.5074V60.5142H50.1297V58.8762Z" fill="black"/>
<path d="M50.1297 57.2513H48.5074V58.8736H50.1297V57.2513Z" fill="black"/>
<path d="M50.1297 55.6133H48.5074V57.2513H50.1297V55.6133Z" fill="black"/>
<path d="M50.1297 53.9911H48.5074V55.6133H50.1297V53.9911Z" fill="black"/>
<path d="M50.1297 52.3504H48.5074V53.9884H50.1297V52.3504Z" fill="black"/>
<path d="M50.1297 50.7282H48.5074V52.3504H50.1297V50.7282Z" fill="#2D1212"/>
<path d="M50.1297 49.0902H48.5074V50.7282H50.1297V49.0902Z" fill="#2D1212"/>
<path d="M50.1297 47.4679H48.5074V49.0902H50.1297V47.4679Z" fill="#2D1212"/>
<path d="M50.1297 45.8273H48.5074V47.4653H50.1297V45.8273Z" fill="#2D1212"/>
<path d="M50.1297 44.1893H48.5074V45.8273H50.1297V44.1893Z" fill="#2D1212"/>
<path d="M50.1297 42.5671H48.5074V44.1893H50.1297V42.5671Z" fill="#2D1212"/>
<path d="M50.1297 40.9264H48.5074V42.5644H50.1297V40.9264Z" fill="black"/>
<path d="M48.5048 81.7268H46.8668V83.3648H48.5048V81.7268Z" fill="#C60606"/>
<path d="M48.5048 80.0993H46.8668V81.7242H48.5048V80.0993Z" fill="#C60606"/>
<path d="M48.5048 78.4639H46.8668V80.1019H48.5048V78.4639Z" fill="#C60606"/>
<path d="M48.5048 76.8391H46.8668V78.4613H48.5048V76.8391Z" fill="#C60606"/>
<path d="M48.5048 75.2011H46.8668V76.8391H48.5048V75.2011Z" fill="#C60606"/>
<path d="M48.5048 73.5788H46.8668V75.2011H48.5048V73.5788Z" fill="#C60606"/>
<path d="M48.5048 50.7282H46.8668V52.3504H48.5048V50.7282Z" fill="black"/>
<path d="M48.5048 49.0902H46.8668V50.7282H48.5048V49.0902Z" fill="#2D1212"/>
<path d="M48.5048 47.4679H46.8668V49.0902H48.5048V47.4679Z" fill="#2D1212"/>
<path d="M48.5048 45.8273H46.8668V47.4653H48.5048V45.8273Z" fill="#2D1212"/>
<path d="M48.5048 44.1893H46.8668V45.8273H48.5048V44.1893Z" fill="#2D1212"/>
<path d="M48.5048 42.5671H46.8668V44.1893H48.5048V42.5671Z" fill="#2D1212"/>
<path d="M48.5048 40.9264H46.8668V42.5644H48.5048V40.9264Z" fill="black"/>
<path d="M46.8668 55.6133H45.2446V57.2513H46.8668V55.6133Z" fill="black"/>
<path d="M46.8668 53.9911H45.2446V55.6133H46.8668V53.9911Z" fill="black"/>
<path d="M46.8668 52.3504H45.2446V53.9884H46.8668V52.3504Z" fill="black"/>
<path d="M46.8668 50.7282H45.2446V52.3504H46.8668V50.7282Z" fill="#2D1212"/>
<path d="M46.8668 49.0902H45.2446V50.7282H46.8668V49.0902Z" fill="#2D1212"/>
<path d="M46.8668 47.4679H45.2446V49.0902H46.8668V47.4679Z" fill="#2D1212"/>
<path d="M46.8668 45.8273H45.2446V47.4653H46.8668V45.8273Z" fill="#301918"/>
<path d="M46.8668 44.1893H45.2446V45.8273H46.8668V44.1893Z" fill="black"/>
<path d="M46.8668 42.5671H45.2446V44.1893H46.8668V42.5671Z" fill="black"/>
<path d="M45.2446 52.3504H43.6066V53.9884H45.2446V52.3504Z" fill="black"/>
<path d="M45.2446 50.7282H43.6066V52.3504H45.2446V50.7282Z" fill="black"/>
<path d="M45.2446 49.0902H43.6066V50.7282H45.2446V49.0902Z" fill="#2D1212"/>
<path d="M45.2446 47.4679H43.6066V49.0902H45.2446V47.4679Z" fill="#301918"/>
<path d="M45.2446 45.8273H43.6066V47.4653H45.2446V45.8273Z" fill="#301918"/>
<path d="M45.2446 44.1893H43.6066V45.8273H45.2446V44.1893Z" fill="black"/>
<path d="M43.6066 50.7282H41.9843V52.3504H43.6066V50.7282Z" fill="black"/>
<path d="M43.6066 49.0902H41.9843V50.7282H43.6066V49.0902Z" fill="#301918"/>
<path d="M43.6066 47.4679H41.9843V49.0902H43.6066V47.4679Z" fill="#301918"/>
<path d="M43.6066 45.8273H41.9843V47.4653H43.6066V45.8273Z" fill="#301918"/>
<path d="M43.6066 44.1893H41.9843V45.8273H43.6066V44.1893Z" fill="black"/>
<path d="M41.9817 55.6133H40.3437V57.2513H41.9817V55.6133Z" fill="black"/>
<path d="M41.9817 53.9911H40.3437V55.6133H41.9817V53.9911Z" fill="black"/>
<path d="M41.9817 52.3504H40.3437V53.9884H41.9817V52.3504Z" fill="black"/>
<path d="M41.9817 50.7282H40.3437V52.3504H41.9817V50.7282Z" fill="#301918"/>
<path d="M41.9817 49.0902H40.3437V50.7282H41.9817V49.0902Z" fill="#301918"/>
<path d="M41.9817 47.4679H40.3437V49.0902H41.9817V47.4679Z" fill="#301918"/>
<path d="M41.9817 45.8273H40.3437V47.4653H41.9817V45.8273Z" fill="black"/>
<path d="M40.3437 50.7282H38.7057V52.3504H40.3437V50.7282Z" fill="black"/>
<path d="M40.3437 49.0902H38.7057V50.7282H40.3437V49.0902Z" fill="#301918"/>
<path d="M40.3437 47.4679H38.7057V49.0902H40.3437V47.4679Z" fill="#301918"/>
<path d="M40.3437 45.8273H38.7057V47.4653H40.3437V45.8273Z" fill="#301918"/>
<path d="M40.3437 44.1893H38.7057V45.8273H40.3437V44.1893Z" fill="black"/>
<path d="M38.7057 49.0902H37.0834V50.7282H38.7057V49.0902Z" fill="black"/>
<path d="M38.7057 47.4679H37.0834V49.0902H38.7057V47.4679Z" fill="#301918"/>
<path d="M38.7057 45.8273H37.0834V47.4653H38.7057V45.8273Z" fill="#301918"/>
<path d="M38.7057 44.1893H37.0834V45.8273H38.7057V44.1893Z" fill="black"/>
<path d="M38.7057 42.5671H37.0834V44.1893H38.7057V42.5671Z" fill="black"/>
<path d="M38.7057 29.5024H37.0834V31.1404H38.7057V29.5024Z" fill="#939393"/>
<path d="M38.7057 27.8802H37.0834V29.5024H38.7057V27.8802Z" fill="#939393"/>
<path d="M38.7057 26.2396H37.0834V27.8776H38.7057V26.2396Z" fill="#939393"/>
<path d="M37.0808 49.0902H35.4428V50.7282H37.0808V49.0902Z" fill="black"/>
<path d="M37.0808 47.4679H35.4428V49.0902H37.0808V47.4679Z" fill="black"/>
<path d="M37.0808 45.8273H35.4428V47.4653H37.0808V45.8273Z" fill="black"/>
<path d="M37.0808 44.1893H35.4428V45.8273H37.0808V44.1893Z" fill="black"/>
<path d="M37.0808 31.1404H35.4428V32.7627H37.0808V31.1404Z" fill="#939393"/>
<path d="M37.0808 29.5024H35.4428V31.1404H37.0808V29.5024Z" fill="#A7A7A8"/>
<path d="M37.0808 27.8802H35.4428V29.5024H37.0808V27.8802Z" fill="#FF0000"/>
<path d="M37.0808 26.2396H35.4428V27.8776H37.0808V26.2396Z" fill="black"/>
<path d="M37.0808 24.6173H35.4428V26.2396H37.0808V24.6173Z" fill="#939393"/>
<path d="M35.4428 73.5788H33.8206V75.2011H35.4428V73.5788Z" fill="#E50000"/>
<path d="M35.4428 71.9382H33.8206V73.5762H35.4428V71.9382Z" fill="#E50000"/>
<path d="M35.4428 70.3002H33.8206V71.9382H35.4428V70.3002Z" fill="#E50000"/>
<path d="M35.4428 68.6753H33.8206V70.3002H35.4428V68.6753Z" fill="#E50000"/>
<path d="M35.4428 67.0399H33.8206V68.6779H35.4428V67.0399Z" fill="#E50000"/>
<path d="M35.4428 65.4151H33.8206V67.0373H35.4428V65.4151Z" fill="#7A370A"/>
<path d="M35.4428 63.7771H33.8206V65.4151H35.4428V63.7771Z" fill="#7A370A"/>
<path d="M35.4428 62.1522H33.8206V63.7744H35.4428V62.1522Z" fill="#7A370A"/>
<path d="M35.4428 60.5142H33.8206V62.1522H35.4428V60.5142Z" fill="#7A370A"/>
<path d="M35.4428 58.8762H33.8206V60.5142H35.4428V58.8762Z" fill="#E50000"/>
<path d="M35.4428 57.2513H33.8206V58.8736H35.4428V57.2513Z" fill="#E50000"/>
<path d="M35.4428 55.6133H33.8206V57.2513H35.4428V55.6133Z" fill="#7A370A"/>
<path d="M35.4428 53.9911H33.8206V55.6133H35.4428V53.9911Z" fill="#7A370A"/>
<path d="M35.4428 52.3504H33.8206V53.9884H35.4428V52.3504Z" fill="#7A370A"/>
<path d="M35.4428 50.7282H33.8206V52.3504H35.4428V50.7282Z" fill="#7A370A"/>
<path d="M35.4428 49.0902H33.8206V50.7282H35.4428V49.0902Z" fill="#293D4C"/>
<path d="M35.4428 47.4679H33.8206V49.0902H35.4428V47.4679Z" fill="#293D4C"/>
<path d="M35.4428 45.8273H33.8206V47.4653H35.4428V45.8273Z" fill="#7A370A"/>
<path d="M35.4428 44.1893H33.8206V45.8273H35.4428V44.1893Z" fill="#293D4C"/>
<path d="M35.4428 42.5671H33.8206V44.1893H35.4428V42.5671Z" fill="#E50000"/>
<path d="M35.4428 40.9264H33.8206V42.5644H35.4428V40.9264Z" fill="#7A370A"/>
<path d="M35.4428 39.3042H33.8206V40.9264H35.4428V39.3042Z" fill="#7A370A"/>
<path d="M35.4428 37.6636H33.8206V39.3016H35.4428V37.6636Z" fill="#7A370A"/>
<path d="M35.4428 36.0413H33.8206V37.6636H35.4428V36.0413Z" fill="#7A370A"/>
<path d="M35.4428 34.4033H33.8206V36.0413H35.4428V34.4033Z" fill="#7A370A"/>
<path d="M35.4428 32.7627H33.8206V34.4007H35.4428V32.7627Z" fill="#E50000"/>
<path d="M35.4428 31.1404H33.8206V32.7627H35.4428V31.1404Z" fill="#E50000"/>
<path d="M35.4428 29.5024H33.8206V31.1404H35.4428V29.5024Z" fill="black"/>
<path d="M35.4428 27.8802H33.8206V29.5024H35.4428V27.8802Z" fill="#A7A7A8"/>
<path d="M35.4428 26.2396H33.8206V27.8776H35.4428V26.2396Z" fill="#A7A7A8"/>
<path d="M35.4428 24.6173H33.8206V26.2396H35.4428V24.6173Z" fill="#A7A7A8"/>
<path d="M35.4428 22.9793H33.8206V24.6173H35.4428V22.9793Z" fill="#FF0000"/>
<path d="M33.8206 78.4639H32.1826V80.1019H33.8206V78.4639Z" fill="#E50000"/>
<path d="M33.8206 75.2011H32.1826V76.8391H33.8206V75.2011Z" fill="#E50000"/>
<path d="M33.8206 73.5788H32.1826V75.2011H33.8206V73.5788Z" fill="#E50000"/>
<path d="M33.8206 71.9382H32.1826V73.5762H33.8206V71.9382Z" fill="#E50000"/>
<path d="M33.8206 70.3002H32.1826V71.9382H33.8206V70.3002Z" fill="#E50000"/>
<path d="M33.8206 68.6753H32.1826V70.3002H33.8206V68.6753Z" fill="#7A370A"/>
<path d="M33.8206 67.0399H32.1826V68.6779H33.8206V67.0399Z" fill="#7A370A"/>
<path d="M33.8206 65.4151H32.1826V67.0373H33.8206V65.4151Z" fill="#7A370A"/>
<path d="M33.8206 63.7771H32.1826V65.4151H33.8206V63.7771Z" fill="#7A370A"/>
<path d="M33.8206 62.1522H32.1826V63.7744H33.8206V62.1522Z" fill="#7A370A"/>
<path d="M33.8206 60.5142H32.1826V62.1522H33.8206V60.5142Z" fill="#E50000"/>
<path d="M33.8206 58.8762H32.1826V60.5142H33.8206V58.8762Z" fill="#E50000"/>
<path d="M33.8206 57.2513H32.1826V58.8736H33.8206V57.2513Z" fill="#7A370A"/>
<path d="M33.8206 55.6133H32.1826V57.2513H33.8206V55.6133Z" fill="#7A370A"/>
<path d="M33.8206 53.9911H32.1826V55.6133H33.8206V53.9911Z" fill="#7A370A"/>
<path d="M33.8206 52.3504H32.1826V53.9884H33.8206V52.3504Z" fill="#7A370A"/>
<path d="M33.8206 50.7282H32.1826V52.3504H33.8206V50.7282Z" fill="black"/>
<path d="M33.8206 49.0902H32.1826V50.7282H33.8206V49.0902Z" fill="#293D4C"/>
<path d="M33.8206 47.4679H32.1826V49.0902H33.8206V47.4679Z" fill="#293D4C"/>
<path d="M33.8206 45.8273H32.1826V47.4653H33.8206V45.8273Z" fill="#293D4C"/>
<path d="M33.8206 44.1893H32.1826V45.8273H33.8206V44.1893Z" fill="#293D4C"/>
<path d="M33.8206 42.5671H32.1826V44.1893H33.8206V42.5671Z" fill="black"/>
<path d="M33.8206 40.9264H32.1826V42.5644H33.8206V40.9264Z" fill="#E50000"/>
<path d="M33.8206 39.3042H32.1826V40.9264H33.8206V39.3042Z" fill="#7A370A"/>
<path d="M33.8206 37.6636H32.1826V39.3016H33.8206V37.6636Z" fill="#7A370A"/>
<path d="M33.8206 36.0413H32.1826V37.6636H33.8206V36.0413Z" fill="#7A370A"/>
<path d="M33.8206 34.4033H32.1826V36.0413H33.8206V34.4033Z" fill="#7A370A"/>
<path d="M33.8206 32.7627H32.1826V34.4007H33.8206V32.7627Z" fill="#939393"/>
<path d="M33.8206 31.1404H32.1826V32.7627H33.8206V31.1404Z" fill="#A7A7A8"/>
<path d="M33.8206 29.5024H32.1826V31.1404H33.8206V29.5024Z" fill="black"/>
<path d="M33.8206 27.8802H32.1826V29.5024H33.8206V27.8802Z" fill="#A7A7A8"/>
<path d="M33.8206 26.2396H32.1826V27.8776H33.8206V26.2396Z" fill="#A7A7A8"/>
<path d="M33.8206 24.6173H32.1826V26.2396H33.8206V24.6173Z" fill="#A7A7A8"/>
<path d="M33.8206 22.9793H32.1826V24.6173H33.8206V22.9793Z" fill="#FF0000"/>
<path d="M32.1799 49.0902H30.5577V50.7282H32.1799V49.0902Z" fill="#455360"/>
<path d="M32.1799 47.4679H30.5577V49.0902H32.1799V47.4679Z" fill="#455360"/>
<path d="M32.1799 45.8273H30.5577V47.4653H32.1799V45.8273Z" fill="#455360"/>
<path d="M32.1799 44.1893H30.5577V45.8273H32.1799V44.1893Z" fill="#455360"/>
<path d="M32.1799 31.1404H30.5577V32.7627H32.1799V31.1404Z" fill="#939393"/>
<path d="M32.1799 29.5024H30.5577V31.1404H32.1799V29.5024Z" fill="#A7A7A8"/>
<path d="M32.1799 27.8802H30.5577V29.5024H32.1799V27.8802Z" fill="#A7A7A8"/>
<path d="M32.1799 26.2396H30.5577V27.8776H32.1799V26.2396Z" fill="black"/>
<path d="M32.1799 24.6173H30.5577V26.2396H32.1799V24.6173Z" fill="#939393"/>
<path d="M30.5577 29.5024H28.9197V31.1404H30.5577V29.5024Z" fill="#939393"/>
<path d="M30.5577 27.8802H28.9197V29.5024H30.5577V27.8802Z" fill="#939393"/>
<path d="M30.5577 26.2396H28.9197V27.8776H30.5577V26.2396Z" fill="#939393"/>
</svg>
