<svg width="105" height="105" viewBox="0 0 105 105" fill="none" xmlns="http://www.w3.org/2000/svg">
<path d="M52.5002 4.73279C78.8812 4.73297 100.267 26.1194 100.267 52.5004C100.267 78.8812 78.8811 100.267 52.5002 100.267C26.1192 100.267 4.73285 78.8813 4.73267 52.5004C4.73267 26.1192 26.1191 4.73279 52.5002 4.73279Z" fill="#F9F7E7" stroke="#29100A" stroke-width="2"/>
<path d="M81.0442 20.0129H79.3511V21.7244H81.0442V20.0129Z" fill="black"/>
<path d="M81.0442 18.3198H79.3511V20.0129H81.0442V18.3198Z" fill="black"/>
<path d="M79.3484 21.7244H77.6396V23.4176H79.3484V21.7244Z" fill="black"/>
<path d="M79.3484 20.0129H77.6396V21.7244H79.3484V20.0129Z" fill="#416072"/>
<path d="M79.3484 18.3198H77.6396V20.0129H79.3484V18.3198Z" fill="black"/>
<path d="M77.6396 57.4901H75.9438V59.199H77.6396V57.4901Z" fill="black"/>
<path d="M77.6396 23.4202H75.9438V25.1317H77.6396V23.4202Z" fill="black"/>
<path d="M77.6396 21.7244H75.9438V23.4176H77.6396V21.7244Z" fill="#2E4851"/>
<path d="M77.6396 20.0129H75.9438V21.7244H77.6396V20.0129Z" fill="#416072"/>
<path d="M77.6396 18.3198H75.9438V20.0129H77.6396V18.3198Z" fill="black"/>
<path d="M75.9438 59.199H74.2349V60.9104H75.9438L75.9438 59.199Z" fill="black"/>
<path d="M75.9438 57.4901H74.2349V59.199H75.9438V57.4901Z" fill="#E7BD00"/>
<path d="M75.9438 55.7943H74.2349V57.4874H75.9438V55.7943Z" fill="black"/>
<path d="M75.9438 25.1317H74.2349V26.8248H75.9438L75.9438 25.1317Z" fill="black"/>
<path d="M75.9438 23.4202H74.2349V25.1317H75.9438V23.4202Z" fill="#416072"/>
<path d="M75.9438 21.7244H74.2349V23.4176H75.9438V21.7244Z" fill="#2E4851"/>
<path d="M75.9438 20.0129H74.2349V21.7244H75.9438V20.0129Z" fill="#607C89"/>
<path d="M75.9438 18.3198H74.2349V20.0129H75.9438V18.3198Z" fill="black"/>
<path d="M74.2323 59.199H72.5392V60.9104H74.2323V59.199Z" fill="black"/>
<path d="M74.2323 57.4901H72.5392V59.199H74.2323V57.4901Z" fill="#E7BD00"/>
<path d="M74.2323 55.7943H72.5392V57.4874H74.2323V55.7943Z" fill="black"/>
<path d="M74.2323 26.8248H72.5392V28.5363H74.2323V26.8248Z" fill="black"/>
<path d="M74.2323 25.1317H72.5392V26.8248H74.2323V25.1317Z" fill="#416072"/>
<path d="M74.2323 23.4202H72.5392V25.1317H74.2323V23.4202Z" fill="#416072"/>
<path d="M74.2323 21.7244H72.5392V23.4176H74.2323V21.7244Z" fill="#2E4851"/>
<path d="M74.2323 20.0129H72.5392V21.7244H74.2323V20.0129Z" fill="#607C89"/>
<path d="M74.2323 18.3198H72.5392V20.0129H74.2323V18.3198Z" fill="black"/>
<path d="M72.5392 59.199H70.8277V60.9104H72.5392V59.199Z" fill="black"/>
<path d="M72.5392 57.4901H70.8277V59.199H72.5392V57.4901Z" fill="black"/>
<path d="M72.5392 50.6782H70.8277V52.3897H72.5392V50.6782Z" fill="black"/>
<path d="M72.5392 48.9851H70.8277V50.6782H72.5392V48.9851Z" fill="black"/>
<path d="M72.5392 47.2736H70.8277V48.9851H72.5392V47.2736Z" fill="black"/>
<path d="M72.5392 45.5804H70.8277V47.2736H72.5392V45.5804Z" fill="black"/>
<path d="M72.5392 26.8248H70.8277V28.5363H72.5392V26.8248Z" fill="black"/>
<path d="M72.5392 25.1317H70.8277V26.8248H72.5392V25.1317Z" fill="#416072"/>
<path d="M72.5392 23.4202H70.8277V25.1317H72.5392V23.4202Z" fill="#2E4851"/>
<path d="M72.5392 21.7244H70.8277V23.4176H72.5392V21.7244Z" fill="#416072"/>
<path d="M72.5392 20.0129H70.8277V21.7244H72.5392V20.0129Z" fill="#607C89"/>
<path d="M72.5392 18.3198H70.8277V20.0129H72.5392V18.3198Z" fill="black"/>
<path d="M70.8277 60.9104H69.1346V62.6036H70.8277V60.9104Z" fill="black"/>
<path d="M70.8277 59.199H69.1346V60.9104H70.8277V59.199Z" fill="#0D561B"/>
<path d="M70.8277 57.4901H69.1346V59.199H70.8277V57.4901Z" fill="#0D561B"/>
<path d="M70.8277 55.7943H69.1346V57.4874H70.8277V55.7943Z" fill="black"/>
<path d="M70.8277 54.0828H69.1346V55.7943H70.8277V54.0828Z" fill="black"/>
<path d="M70.8277 52.3897L69.1346 52.3897V54.0828H70.8277V52.3897Z" fill="black"/>
<path d="M70.8277 50.6782H69.1346V52.3897L70.8277 52.3897V50.6782Z" fill="#0D561B"/>
<path d="M70.8277 48.9851H69.1346V50.6782H70.8277V48.9851Z" fill="#0D561B"/>
<path d="M70.8277 47.2736H69.1346V48.9851H70.8277V47.2736Z" fill="#5DA34B"/>
<path d="M70.8277 45.5804H69.1346V47.2736H70.8277V45.5804Z" fill="#0C4913"/>
<path d="M70.8277 43.8689H69.1346V45.5804H70.8277V43.8689Z" fill="black"/>
<path d="M70.8277 26.8248H69.1346V28.5363H70.8277V26.8248Z" fill="black"/>
<path d="M70.8277 25.1317H69.1346V26.8248H70.8277V25.1317Z" fill="#416072"/>
<path d="M70.8277 23.4202H69.1346V25.1317H70.8277V23.4202Z" fill="#2E4851"/>
<path d="M70.8277 21.7244H69.1346V23.4176H70.8277V21.7244Z" fill="#416072"/>
<path d="M70.8277 20.0129H69.1346V21.7244H70.8277V20.0129Z" fill="#607C89"/>
<path d="M70.8277 18.3198H69.1346V20.0129H70.8277V18.3198Z" fill="black"/>
<path d="M69.1346 84.7481H67.4231V86.4596H69.1346V84.7481Z" fill="black"/>
<path d="M69.1346 62.6062H67.4231V64.3177H69.1346V62.6062Z" fill="black"/>
<path d="M69.1346 60.9104H67.4231V62.6036H69.1346V60.9104Z" fill="#0D561B"/>
<path d="M69.1346 59.199H67.4231V60.9104H69.1346V59.199Z" fill="#0D561B"/>
<path d="M69.1346 57.4901H67.4231V59.199H69.1346V57.4901Z" fill="#0D561B"/>
<path d="M69.1346 55.7943H67.4231V57.4874H69.1346V55.7943Z" fill="#0D561B"/>
<path d="M69.1346 54.0828H67.4231V55.7943H69.1346V54.0828Z" fill="#0D561B"/>
<path d="M69.1346 52.3897H67.4231V54.0828H69.1346V52.3897Z" fill="#0D561B"/>
<path d="M69.1346 50.6782H67.4231V52.3897H69.1346V50.6782Z" fill="#0D561B"/>
<path d="M69.1346 48.9851H67.4231V50.6782H69.1346V48.9851Z" fill="#0D561B"/>
<path d="M69.1346 47.2736H67.4231V48.9851H69.1346V47.2736Z" fill="#5DA34B"/>
<path d="M69.1346 45.5804H67.4231V47.2736H69.1346V45.5804Z" fill="#0C4913"/>
<path d="M69.1346 43.8689H67.4231V45.5804H69.1346V43.8689Z" fill="#429331"/>
<path d="M69.1346 42.1575H67.4231V43.8689H69.1346V42.1575Z" fill="black"/>
<path d="M69.1346 40.4617H67.4231V42.1548H69.1346V40.4617Z" fill="black"/>
<path d="M69.1346 26.8248H67.4231V28.5363H69.1346V26.8248Z" fill="black"/>
<path d="M69.1346 25.1317H67.4231V26.8248H69.1346V25.1317Z" fill="#416072"/>
<path d="M69.1346 23.4202H67.4231V25.1317H69.1346V23.4202Z" fill="#2E4851"/>
<path d="M69.1346 21.7244H67.4231V23.4176H69.1346V21.7244Z" fill="#607C89"/>
<path d="M69.1346 20.0129H67.4231V21.7244H69.1346V20.0129Z" fill="#607C89"/>
<path d="M69.1346 18.3198H67.4231V20.0129H69.1346V18.3198Z" fill="black"/>
<path d="M67.4231 84.7481H65.7142V86.4596H67.4231V84.7481Z" fill="#429331"/>
<path d="M67.4231 83.0549H65.7142V84.7481H67.4231V83.0549Z" fill="black"/>
<path d="M67.4231 62.6062H65.7142V64.3177H67.4231V62.6062Z" fill="black"/>
<path d="M67.4231 60.9104H65.7142V62.6036H67.4231V60.9104Z" fill="#0D561B"/>
<path d="M67.4231 59.199H65.7142V60.9104H67.4231V59.199Z" fill="#0D561B"/>
<path d="M67.4231 57.4901H65.7142V59.199H67.4231V57.4901Z" fill="#0D561B"/>
<path d="M67.4231 55.7943H65.7142V57.4874H67.4231V55.7943Z" fill="#0D561B"/>
<path d="M67.4231 54.0828H65.7142V55.7943H67.4231V54.0828Z" fill="#0D561B"/>
<path d="M67.4231 52.3897H65.7142V54.0828H67.4231V52.3897Z" fill="#0D561B"/>
<path d="M67.4231 50.6782H65.7142V52.3897H67.4231V50.6782Z" fill="#0D561B"/>
<path d="M67.4231 48.9851H65.7142V50.6782H67.4231V48.9851Z" fill="#5DA34B"/>
<path d="M67.4231 47.2736H65.7142V48.9851H67.4231V47.2736Z" fill="#0C4913"/>
<path d="M67.4231 45.5804H65.7142V47.2736H67.4231V45.5804Z" fill="#429331"/>
<path d="M67.4231 43.8689H65.7142V45.5804H67.4231V43.8689Z" fill="#429331"/>
<path d="M67.4231 42.1575H65.7142V43.8689H67.4231V42.1575Z" fill="#5DA34B"/>
<path d="M67.4231 40.4617H65.7142V42.1548H67.4231V40.4617Z" fill="#0C4913"/>
<path d="M67.4231 38.7502H65.7142V40.4617H67.4231V38.7502Z" fill="black"/>
<path d="M67.4231 37.0571H65.7142V38.7502H67.4231V37.0571Z" fill="black"/>
<path d="M67.4231 28.5363H65.7142V30.2295H67.4231V28.5363Z" fill="black"/>
<path d="M67.4231 26.8248H65.7142V28.5363H67.4231V26.8248Z" fill="#416072"/>
<path d="M67.4231 25.1317H65.7142V26.8248H67.4231V25.1317Z" fill="#2E4851"/>
<path d="M67.4231 23.4202H65.7142V25.1317H67.4231V23.4202Z" fill="#416072"/>
<path d="M67.4231 21.7244H65.7142V23.4176H67.4231V21.7244Z" fill="#607C89"/>
<path d="M67.4231 20.0129H65.7142V21.7244H67.4231V20.0129Z" fill="black"/>
<path d="M65.7116 84.7481H64.0158V86.4596H65.7116V84.7481Z" fill="#5BAF43"/>
<path d="M65.7116 83.0549H64.0158V84.7481H65.7116V83.0549Z" fill="#429331"/>
<path d="M65.7116 81.3434H64.0158V83.0523H65.7116V81.3434Z" fill="black"/>
<path d="M65.7116 79.6477H64.0158V81.3434H65.7116V79.6477Z" fill="black"/>
<path d="M65.7116 77.9388H64.0158V79.6477H65.7116V77.9388Z" fill="black"/>
<path d="M65.7116 62.6062H64.0158V64.3177H65.7116V62.6062Z" fill="black"/>
<path d="M65.7116 60.9104H64.0158V62.6036H65.7116V60.9104Z" fill="black"/>
<path d="M65.7116 59.199H64.0158V60.9104H65.7116V59.199Z" fill="#0D561B"/>
<path d="M65.7116 57.4901H64.0158V59.199H65.7116V57.4901Z" fill="black"/>
<path d="M65.7116 55.7943H64.0158V57.4874H65.7116V55.7943Z" fill="black"/>
<path d="M65.7116 54.0828H64.0158V55.7943H65.7116V54.0828Z" fill="black"/>
<path d="M65.7116 52.3897H64.0158V54.0828H65.7116V52.3897Z" fill="black"/>
<path d="M65.7116 50.6782H64.0158V52.3897H65.7116V50.6782Z" fill="black"/>
<path d="M65.7116 48.9851H64.0158V50.6782H65.7116V48.9851Z" fill="#0C4913"/>
<path d="M65.7116 47.2736H64.0158V48.9851H65.7116V47.2736Z" fill="#429331"/>
<path d="M65.7116 45.5804H64.0158V47.2736H65.7116V45.5804Z" fill="#429331"/>
<path d="M65.7116 43.8689H64.0158V45.5804H65.7116V43.8689Z" fill="#5DA34B"/>
<path d="M65.7116 42.1575H64.0158V43.8689H65.7116V42.1575Z" fill="#5DA34B"/>
<path d="M65.7116 40.4617H64.0158V42.1548H65.7116V40.4617Z" fill="#0C4913"/>
<path d="M65.7116 38.7502H64.0158V40.4617H65.7116V38.7502Z" fill="#429331"/>
<path d="M65.7116 37.0571H64.0158V38.7502H65.7116V37.0571Z" fill="#429331"/>
<path d="M65.7116 35.3456H64.0158V37.0571H65.7116V35.3456Z" fill="black"/>
<path d="M65.7116 28.5363H64.0158V30.2295H65.7116V28.5363Z" fill="black"/>
<path d="M65.7116 26.8248H64.0158V28.5363H65.7116V26.8248Z" fill="#416072"/>
<path d="M65.7116 25.1317H64.0158V26.8248H65.7116V25.1317Z" fill="#2E4851"/>
<path d="M65.7116 23.4202H64.0158V25.1317H65.7116V23.4202Z" fill="#416072"/>
<path d="M65.7116 21.7244H64.0158V23.4176H65.7116V21.7244Z" fill="#607C89"/>
<path d="M65.7116 20.0129H64.0158V21.7244H65.7116V20.0129Z" fill="black"/>
<path d="M64.0184 84.7481H62.3096V86.4596H64.0184V84.7481Z" fill="#5BAF43"/>
<path d="M64.0184 83.0549H62.3096V84.7481H64.0184V83.0549Z" fill="#429331"/>
<path d="M64.0184 81.3434H62.3096V83.0523H64.0184V81.3434Z" fill="#0C4913"/>
<path d="M64.0184 79.6477H62.3096V81.3434H64.0184V79.6477Z" fill="#429331"/>
<path d="M64.0184 77.9388H62.3096V79.6477H64.0184V77.9388Z" fill="#429331"/>
<path d="M64.0184 76.2431H62.3096V77.9362H64.0184V76.2431Z" fill="black"/>
<path d="M64.0184 74.5316H62.3096V76.2431H64.0184V74.5316Z" fill="black"/>
<path d="M64.0184 72.8384H62.3096V74.5316H64.0184V72.8384Z" fill="black"/>
<path d="M64.0184 71.1269H62.3096V72.8384H64.0184V71.1269Z" fill="black"/>
<path d="M64.0184 69.4181H62.3096V71.1269H64.0184V69.4181Z" fill="black"/>
<path d="M64.0184 64.3177H62.3096V66.0108H64.0184V64.3177Z" fill="black"/>
<path d="M64.0184 62.6062H62.3096V64.3177H64.0184V62.6062Z" fill="#E7BD00"/>
<path d="M64.0184 60.9104H62.3096V62.6036H64.0184V60.9104Z" fill="#E7BD00"/>
<path d="M64.0184 59.199H62.3096V60.9104H64.0184V59.199Z" fill="black"/>
<path d="M64.0184 50.6782H62.3096V52.3897H64.0184V50.6782Z" fill="black"/>
<path d="M64.0184 48.9851H62.3096V50.6782H64.0184V48.9851Z" fill="black"/>
<path d="M64.0184 47.2736H62.3096V48.9851H64.0184V47.2736Z" fill="black"/>
<path d="M64.0184 45.5804H62.3096V47.2736H64.0184V45.5804Z" fill="#5DA34B"/>
<path d="M64.0184 43.8689H62.3096V45.5804H64.0184V43.8689Z" fill="#5DA34B"/>
<path d="M64.0184 42.1575H62.3096V43.8689H64.0184V42.1575Z" fill="#0C4913"/>
<path d="M64.0184 40.4617H62.3096V42.1548H64.0184V40.4617Z" fill="#5DA34B"/>
<path d="M64.0184 38.7502H62.3096V40.4617H64.0184V38.7502Z" fill="#429331"/>
<path d="M64.0184 37.0571H62.3096V38.7502H64.0184V37.0571Z" fill="#429331"/>
<path d="M64.0184 35.3456H62.3096V37.0571H64.0184V35.3456Z" fill="#0C4913"/>
<path d="M64.0184 33.6524H62.3096V35.3456H64.0184V33.6524Z" fill="black"/>
<path d="M64.0184 28.5363H62.3096V30.2295H64.0184V28.5363Z" fill="black"/>
<path d="M64.0184 26.8248H62.3096V28.5363H64.0184V26.8248Z" fill="#416072"/>
<path d="M64.0184 25.1317H62.3096V26.8248H64.0184V25.1317Z" fill="#2E4851"/>
<path d="M64.0184 23.4202H62.3096V25.1317H64.0184V23.4202Z" fill="#416072"/>
<path d="M64.0184 21.7244H62.3096V23.4176H64.0184V21.7244Z" fill="#607C89"/>
<path d="M64.0184 20.0129H62.3096V21.7244H64.0184V20.0129Z" fill="black"/>
<path d="M62.3069 84.7481H60.6138V86.4596H62.3069V84.7481Z" fill="#429331"/>
<path d="M62.3069 83.0549H60.6138V84.7481H62.3069V83.0549Z" fill="#0C4913"/>
<path d="M62.3069 81.3434H60.6138V83.0523H62.3069V81.3434Z" fill="#429331"/>
<path d="M62.3069 79.6477H60.6138V81.3434H62.3069V79.6477Z" fill="#429331"/>
<path d="M62.3069 77.9388H60.6138V79.6477H62.3069V77.9388Z" fill="#429331"/>
<path d="M62.3069 76.2431H60.6138V77.9362H62.3069V76.2431Z" fill="#0C4913"/>
<path d="M62.3069 74.5316H60.6138V76.2431H62.3069V74.5316Z" fill="#0C4913"/>
<path d="M62.3069 72.8384H60.6138V74.5316H62.3069V72.8384Z" fill="#0C4913"/>
<path d="M62.3069 71.1269H60.6138V72.8384H62.3069V71.1269Z" fill="#5BAF43"/>
<path d="M62.3069 69.4181H60.6138V71.1269H62.3069V69.4181Z" fill="#429331"/>
<path d="M62.3069 67.7197H60.6138V69.4155H62.3069V67.7197Z" fill="black"/>
<path d="M62.3069 66.0108H60.6138V67.7197H62.3069V66.0108Z" fill="black"/>
<path d="M62.3069 64.3177H60.6138V66.0108H62.3069V64.3177Z" fill="#416072"/>
<path d="M62.3069 62.6062H60.6138V64.3177H62.3069V62.6062Z" fill="#416072"/>
<path d="M62.3069 60.9104H60.6138V62.6036H62.3069V60.9104Z" fill="#E7BD00"/>
<path d="M62.3069 59.199H60.6138V60.9104H62.3069V59.199Z" fill="black"/>
<path d="M62.3069 45.5804H60.6138V47.2736H62.3069V45.5804Z" fill="black"/>
<path d="M62.3069 43.8689H60.6138V45.5804H62.3069V43.8689Z" fill="#0C4913"/>
<path d="M62.3069 42.1575H60.6138V43.8689H62.3069V42.1575Z" fill="#5DA34B"/>
<path d="M62.3069 40.4617H60.6138V42.1548H62.3069V40.4617Z" fill="#429331"/>
<path d="M62.3069 38.7502H60.6138V40.4617H62.3069V38.7502Z" fill="#429331"/>
<path d="M62.3069 37.0571H60.6138V38.7502H62.3069V37.0571Z" fill="#429331"/>
<path d="M62.3069 35.3456H60.6138V37.0571H62.3069V35.3456Z" fill="#429331"/>
<path d="M62.3069 33.6524H60.6138V35.3456H62.3069V33.6524Z" fill="black"/>
<path d="M62.3069 30.2295H60.6138V31.9409H62.3069V30.2295Z" fill="black"/>
<path d="M62.3069 28.5363H60.6138V30.2295H62.3069V28.5363Z" fill="#416072"/>
<path d="M62.3069 26.8248H60.6138V28.5363H62.3069V26.8248Z" fill="#2E4851"/>
<path d="M62.3069 25.1317H60.6138V26.8248H62.3069V25.1317Z" fill="#416072"/>
<path d="M62.3069 23.4202H60.6138V25.1317H62.3069V23.4202Z" fill="#607C89"/>
<path d="M62.3069 21.7244H60.6138V23.4176H62.3069V21.7244Z" fill="black"/>
<path d="M60.6138 84.7481H58.9023V86.4596H60.6138V84.7481Z" fill="black"/>
<path d="M60.6138 83.0549H58.9023V84.7481H60.6138V83.0549Z" fill="black"/>
<path d="M60.6138 81.3434H58.9023V83.0523H60.6138V81.3434Z" fill="#429331"/>
<path d="M60.6138 79.6477H58.9023V81.3434H60.6138V79.6477Z" fill="#429331"/>
<path d="M60.6138 77.9388H58.9023V79.6477H60.6138V77.9388Z" fill="#429331"/>
<path d="M60.6138 76.2431H58.9023V77.9362H60.6138V76.2431Z" fill="#5BAF43"/>
<path d="M60.6138 74.5316H58.9023V76.2431H60.6138V74.5316Z" fill="#0C4913"/>
<path d="M60.6138 72.8384H58.9023V74.5316H60.6138V72.8384Z" fill="#5BAF43"/>
<path d="M60.6138 71.1269H58.9023V72.8384H60.6138V71.1269Z" fill="#5BAF43"/>
<path d="M60.6138 69.4181H58.9023V71.1269H60.6138V69.4181Z" fill="#429331"/>
<path d="M60.6138 67.7197H58.9023V69.4155H60.6138V67.7197Z" fill="#429331"/>
<path d="M60.6138 66.0108H58.9023V67.7197H60.6138V66.0108Z" fill="black"/>
<path d="M60.6138 64.3177H58.9023V66.0108H60.6138V64.3177Z" fill="#416072"/>
<path d="M60.6138 62.6062H58.9023V64.3177H60.6138V62.6062Z" fill="#416072"/>
<path d="M60.6138 60.9104H58.9023V62.6036H60.6138V60.9104Z" fill="black"/>
<path d="M60.6138 59.199H58.9023V60.9104H60.6138V59.199Z" fill="#0C4913"/>
<path d="M60.6138 57.4901H58.9023V59.199H60.6138V57.4901Z" fill="black"/>
<path d="M60.6138 55.7943H58.9023V57.4874H60.6138V55.7943Z" fill="black"/>
<path d="M60.6138 54.0828H58.9023V55.7943H60.6138V54.0828Z" fill="black"/>
<path d="M60.6138 52.3897H58.9023V54.0828H60.6138V52.3897Z" fill="black"/>
<path d="M60.6138 43.8689H58.9023V45.5804H60.6138V43.8689Z" fill="black"/>
<path d="M60.6138 42.1575H58.9023V43.8689H60.6138V42.1575Z" fill="#0C4913"/>
<path d="M60.6138 40.4617H58.9023V42.1548H60.6138V40.4617Z" fill="#0C4913"/>
<path d="M60.6138 38.7502H58.9023V40.4617H60.6138V38.7502Z" fill="#0C4913"/>
<path d="M60.6138 37.0571H58.9023V38.7502H60.6138V37.0571Z" fill="#429331"/>
<path d="M60.6138 35.3456H58.9023V37.0571H60.6138V35.3456Z" fill="#429331"/>
<path d="M60.6138 33.6524H58.9023V35.3456H60.6138V33.6524Z" fill="black"/>
<path d="M60.6138 30.2295H58.9023V31.9409H60.6138V30.2295Z" fill="black"/>
<path d="M60.6138 28.5363H58.9023V30.2295H60.6138V28.5363Z" fill="#416072"/>
<path d="M60.6138 26.8248H58.9023V28.5363H60.6138V26.8248Z" fill="#2E4851"/>
<path d="M60.6138 25.1317H58.9023V26.8248H60.6138V25.1317Z" fill="#416072"/>
<path d="M60.6138 23.4202H58.9023V25.1317H60.6138V23.4202Z" fill="#607C89"/>
<path d="M60.6138 21.7244H58.9023V23.4176H60.6138V21.7244Z" fill="black"/>
<path d="M58.8997 81.3434H57.2066V83.0523H58.8997V81.3434Z" fill="black"/>
<path d="M58.8997 79.6477H57.2066V81.3434H58.8997V79.6477Z" fill="black"/>
<path d="M58.8997 77.9388H57.2066V79.6477H58.8997V77.9388Z" fill="black"/>
<path d="M58.8997 76.2431H57.2066V77.9362H58.8997V76.2431Z" fill="#5BAF43"/>
<path d="M58.8997 74.5316H57.2066V76.2431H58.8997V74.5316Z" fill="#5BAF43"/>
<path d="M58.8997 72.8384H57.2066V74.5316H58.8997V72.8384Z" fill="#5BAF43"/>
<path d="M58.8997 71.1269H57.2066V72.8384H58.8997V71.1269Z" fill="#429331"/>
<path d="M58.8997 69.4181H57.2066V71.1269H58.8997V69.4181Z" fill="#429331"/>
<path d="M58.8997 67.7197H57.2066V69.4155H58.8997V67.7197Z" fill="black"/>
<path d="M58.8997 66.0108H57.2066V67.7197H58.8997V66.0108Z" fill="#416072"/>
<path d="M58.8997 64.3177H57.2066V66.0108H58.8997V64.3177Z" fill="#416072"/>
<path d="M58.8997 62.6062H57.2066V64.3177H58.8997V62.6062Z" fill="#2E4851"/>
<path d="M58.8997 60.9104H57.2066V62.6036H58.8997V60.9104Z" fill="black"/>
<path d="M58.8997 59.199H57.2066V60.9104H58.8997V59.199Z" fill="#0C4913"/>
<path d="M58.8997 57.4901H57.2066V59.199H58.8997V57.4901Z" fill="#0D561B"/>
<path d="M58.8997 55.7943H57.2066V57.4874H58.8997V55.7943Z" fill="#14661E"/>
<path d="M58.8997 54.0828H57.2066V55.7943H58.8997V54.0828Z" fill="#1F7227"/>
<path d="M58.8997 52.3897H57.2066V54.0828H58.8997V52.3897Z" fill="black"/>
<path d="M58.8997 50.6782H57.2066V52.3897H58.8997V50.6782Z" fill="black"/>
<path d="M58.8997 47.2736H57.2066V48.9851H58.8997V47.2736Z" fill="black"/>
<path d="M58.8997 45.5804H57.2066V47.2736H58.8997V45.5804Z" fill="black"/>
<path d="M58.8997 43.8689H57.2066V45.5804H58.8997V43.8689Z" fill="#0C4913"/>
<path d="M58.8997 42.1575H57.2066V43.8689H58.8997V42.1575Z" fill="#0C4913"/>
<path d="M58.8997 40.4617H57.2066V42.1548H58.8997V40.4617Z" fill="#0C4913"/>
<path d="M58.8997 38.7502H57.2066V40.4617H58.8997V38.7502Z" fill="#429331"/>
<path d="M58.8997 37.0571H57.2066V38.7502H58.8997V37.0571Z" fill="#429331"/>
<path d="M58.8997 35.3456H57.2066V37.0571H58.8997V35.3456Z" fill="#0C4913"/>
<path d="M58.8997 33.6524H57.2066V35.3456H58.8997V33.6524Z" fill="#429331"/>
<path d="M58.8997 31.9409H57.2066V33.6524H58.8997V31.9409Z" fill="black"/>
<path d="M58.8997 30.2295H57.2066V31.9409H58.8997V30.2295Z" fill="black"/>
<path d="M58.8997 28.5363H57.2066V30.2295H58.8997V28.5363Z" fill="#416072"/>
<path d="M58.8997 26.8248H57.2066V28.5363H58.8997V26.8248Z" fill="#2E4851"/>
<path d="M58.8997 25.1317H57.2066V26.8248H58.8997V25.1317Z" fill="#416072"/>
<path d="M58.8997 23.4202H57.2066V25.1317H58.8997V23.4202Z" fill="#607C89"/>
<path d="M58.8997 21.7244H57.2066V23.4176H58.8997V21.7244Z" fill="black"/>
<path d="M57.2092 76.2431H55.4977V77.9362H57.2092V76.2431Z" fill="black"/>
<path d="M57.2092 74.5316H55.4977V76.2431H57.2092V74.5316Z" fill="black"/>
<path d="M57.2092 72.8384H55.4977V74.5316H57.2092V72.8384Z" fill="black"/>
<path d="M57.2092 71.1269H55.4977V72.8384H57.2092V71.1269Z" fill="#429331"/>
<path d="M57.2092 69.4181H55.4977V71.1269H57.2092V69.4181Z" fill="#429331"/>
<path d="M57.2092 67.7197H55.4977V69.4155H57.2092V67.7197Z" fill="black"/>
<path d="M57.2092 66.0108H55.4977V67.7197H57.2092V66.0108Z" fill="#416072"/>
<path d="M57.2092 64.3177H55.4977V66.0108H57.2092V64.3177Z" fill="#2E4851"/>
<path d="M57.2092 62.6062H55.4977V64.3177H57.2092V62.6062Z" fill="black"/>
<path d="M57.2092 60.9104H55.4977V62.6036H57.2092V60.9104Z" fill="#0C4913"/>
<path d="M57.2092 59.199H55.4977V60.9104H57.2092V59.199Z" fill="#0D561B"/>
<path d="M57.2092 57.4901H55.4977V59.199H57.2092V57.4901Z" fill="#0D561B"/>
<path d="M57.2092 55.7943H55.4977V57.4874H57.2092V55.7943Z" fill="#14661E"/>
<path d="M57.2092 54.0828H55.4977V55.7943H57.2092V54.0828Z" fill="#14661E"/>
<path d="M57.2092 52.3897H55.4977V54.0828H57.2092V52.3897Z" fill="black"/>
<path d="M57.2092 50.6782H55.4977V52.3897H57.2092V50.6782Z" fill="#0C4913"/>
<path d="M57.2092 48.9851H55.4977V50.6782H57.2092V48.9851Z" fill="black"/>
<path d="M57.2092 47.2736H55.4977V48.9851H57.2092V47.2736Z" fill="#0C4913"/>
<path d="M57.2092 45.5804H55.4977V47.2736H57.2092V45.5804Z" fill="#0C4913"/>
<path d="M57.2092 43.8689H55.4977V45.5804H57.2092V43.8689Z" fill="#0C4913"/>
<path d="M57.2092 42.1575H55.4977V43.8689H57.2092V42.1575Z" fill="#0C4913"/>
<path d="M57.2092 40.4617H55.4977V42.1548H57.2092V40.4617Z" fill="#429331"/>
<path d="M57.2092 38.7502H55.4977V40.4617H57.2092V38.7502Z" fill="#429331"/>
<path d="M57.2092 37.0571H55.4977V38.7502H57.2092V37.0571Z" fill="#0C4913"/>
<path d="M57.2092 35.3456H55.4977V37.0571H57.2092V35.3456Z" fill="#429331"/>
<path d="M57.2092 33.6524H55.4977V35.3456H57.2092V33.6524Z" fill="#429331"/>
<path d="M57.2092 31.9409H55.4977V33.6524H57.2092V31.9409Z" fill="black"/>
<path d="M57.2092 30.2295H55.4977V31.9409H57.2092V30.2295Z" fill="black"/>
<path d="M57.2092 28.5363H55.4977V30.2295H57.2092V28.5363Z" fill="black"/>
<path d="M57.2092 26.8248H55.4977V28.5363H57.2092V26.8248Z" fill="black"/>
<path d="M57.2092 25.1317H55.4977V26.8248H57.2092V25.1317Z" fill="black"/>
<path d="M57.2092 23.4202H55.4977V25.1317H57.2092V23.4202Z" fill="black"/>
<path d="M55.4951 71.1269H53.7862V72.8384H55.4951V71.1269Z" fill="black"/>
<path d="M55.4951 69.4181H53.7862V71.1269H55.4951V69.4181Z" fill="black"/>
<path d="M55.4951 67.7197H53.7862V69.4155H55.4951V67.7197Z" fill="black"/>
<path d="M55.4951 66.0108H53.7862V67.7197H55.4951V66.0108Z" fill="#416072"/>
<path d="M55.4951 64.3177H53.7862V66.0108H55.4951V64.3177Z" fill="#2E4851"/>
<path d="M55.4951 62.6062H53.7862V64.3177H55.4951V62.6062Z" fill="black"/>
<path d="M55.4951 60.9104H53.7862V62.6036H55.4951V60.9104Z" fill="#0C4913"/>
<path d="M55.4951 59.199H53.7862V60.9104H55.4951V59.199Z" fill="#0D561B"/>
<path d="M55.4951 57.4901H53.7862V59.199H55.4951V57.4901Z" fill="#0D561B"/>
<path d="M55.4951 55.7943H53.7862V57.4874H55.4951V55.7943Z" fill="#0D561B"/>
<path d="M55.4951 54.0828H53.7862V55.7943H55.4951V54.0828Z" fill="#14661E"/>
<path d="M55.4951 52.3897H53.7862V54.0828H55.4951V52.3897Z" fill="black"/>
<path d="M55.4951 50.6782H53.7862V52.3897H55.4951V50.6782Z" fill="#0C4913"/>
<path d="M55.4951 48.9851H53.7862V50.6782H55.4951V48.9851Z" fill="#0C4913"/>
<path d="M55.4951 47.2736H53.7862V48.9851H55.4951V47.2736Z" fill="#0C4913"/>
<path d="M55.4951 45.5804H53.7862V47.2736H55.4951V45.5804Z" fill="#0C4913"/>
<path d="M55.4951 43.8689H53.7862V45.5804H55.4951V43.8689Z" fill="#429331"/>
<path d="M55.4951 42.1575H53.7862V43.8689H55.4951V42.1575Z" fill="#429331"/>
<path d="M55.4951 40.4617H53.7862V42.1548H55.4951V40.4617Z" fill="#0C4913"/>
<path d="M55.4951 38.7502H53.7862V40.4617H55.4951V38.7502Z" fill="#0C4913"/>
<path d="M55.4951 37.0571H53.7862V38.7502H55.4951V37.0571Z" fill="#0C4913"/>
<path d="M55.4951 35.3456H53.7862V37.0571H55.4951V35.3456Z" fill="#429331"/>
<path d="M55.4951 33.6524H53.7862V35.3456H55.4951V33.6524Z" fill="#0C4913"/>
<path d="M55.4951 31.9409H53.7862V33.6524H55.4951V31.9409Z" fill="#0C4913"/>
<path d="M55.4951 30.2295H53.7862V31.9409H55.4951V30.2295Z" fill="#0C4913"/>
<path d="M55.4951 28.5363H53.7862V30.2295H55.4951V28.5363Z" fill="black"/>
<path d="M55.4951 26.8248H53.7862V28.5363H55.4951V26.8248Z" fill="#0C4913"/>
<path d="M55.4951 25.1317H53.7862V26.8248H55.4951V25.1317Z" fill="black"/>
<path d="M55.4951 23.4202H53.7862V25.1317H55.4951V23.4202Z" fill="#429331"/>
<path d="M55.4951 21.7244H53.7862V23.4176H55.4951V21.7244Z" fill="black"/>
<path d="M53.7836 69.4181H52.0904V71.1269H53.7836V69.4181Z" fill="black"/>
<path d="M53.7836 67.7197H52.0904V69.4155H53.7836V67.7197Z" fill="#416072"/>
<path d="M53.7836 66.0108H52.0904V67.7197H53.7836V66.0108Z" fill="#2E4851"/>
<path d="M53.7836 64.3177H52.0904V66.0108H53.7836V64.3177Z" fill="#416072"/>
<path d="M53.7836 62.6062H52.0904V64.3177H53.7836V62.6062Z" fill="black"/>
<path d="M53.7836 60.9104H52.0904V62.6036H53.7836V60.9104Z" fill="#0C4913"/>
<path d="M53.7836 59.199H52.0904V60.9104H53.7836V59.199Z" fill="#0D561B"/>
<path d="M53.7836 57.4901H52.0904V59.199H53.7836V57.4901Z" fill="#0D561B"/>
<path d="M53.7836 55.7943H52.0904V57.4874H53.7836V55.7943Z" fill="#14661E"/>
<path d="M53.7836 54.0828H52.0904V55.7943H53.7836V54.0828Z" fill="black"/>
<path d="M53.7836 52.3897H52.0904V54.0828H53.7836V52.3897Z" fill="#429331"/>
<path d="M53.7836 50.6782H52.0904V52.3897H53.7836V50.6782Z" fill="#429331"/>
<path d="M53.7836 48.9851H52.0904V50.6782H53.7836V48.9851Z" fill="#0C4913"/>
<path d="M53.7836 47.2736H52.0904V48.9851H53.7836V47.2736Z" fill="#0C4913"/>
<path d="M53.7836 45.5804H52.0904V47.2736H53.7836V45.5804Z" fill="#0C4913"/>
<path d="M53.7836 43.8689H52.0904V45.5804H53.7836V43.8689Z" fill="#5DA34B"/>
<path d="M53.7836 42.1575H52.0904V43.8689H53.7836V42.1575Z" fill="#429331"/>
<path d="M53.7836 40.4617H52.0904V42.1548H53.7836V40.4617Z" fill="#0C4913"/>
<path d="M53.7836 38.7502H52.0904V40.4617H53.7836V38.7502Z" fill="#0C4913"/>
<path d="M53.7836 37.0571H52.0904V38.7502H53.7836V37.0571Z" fill="#0C4913"/>
<path d="M53.7836 35.3456H52.0904V37.0571H53.7836V35.3456Z" fill="#0C4913"/>
<path d="M53.7836 33.6524H52.0904V35.3456H53.7836V33.6524Z" fill="#0C4913"/>
<path d="M53.7836 31.9409H52.0904V33.6524H53.7836V31.9409Z" fill="#429331"/>
<path d="M53.7836 30.2295H52.0904V31.9409H53.7836V30.2295Z" fill="#429331"/>
<path d="M53.7836 28.5363H52.0904V30.2295H53.7836V28.5363Z" fill="#429331"/>
<path d="M53.7836 26.8248H52.0904V28.5363H53.7836V26.8248Z" fill="#429331"/>
<path d="M53.7836 25.1317H52.0904V26.8248H53.7836V25.1317Z" fill="#429331"/>
<path d="M53.7836 23.4202H52.0904V25.1317H53.7836V23.4202Z" fill="#429331"/>
<path d="M53.7836 21.7244H52.0904V23.4176H53.7836V21.7244Z" fill="black"/>
<path d="M52.0904 69.4181H50.3789V71.1269H52.0904V69.4181Z" fill="black"/>
<path d="M52.0904 67.7197H50.3789V69.4155H52.0904V67.7197Z" fill="#416072"/>
<path d="M52.0904 66.0108H50.3789V67.7197H52.0904V66.0108Z" fill="#2E4851"/>
<path d="M52.0904 64.3177H50.3789V66.0108H52.0904V64.3177Z" fill="black"/>
<path d="M52.0904 62.6062H50.3789V64.3177H52.0904V62.6062Z" fill="#0C4913"/>
<path d="M52.0904 60.9104H50.3789V62.6036H52.0904V60.9104Z" fill="#0D561B"/>
<path d="M52.0904 59.199H50.3789V60.9104H52.0904V59.199Z" fill="#0D561B"/>
<path d="M52.0904 57.4901H50.3789V59.199H52.0904V57.4901Z" fill="#0D561B"/>
<path d="M52.0904 55.7943H50.3789V57.4874H52.0904V55.7943Z" fill="#14661E"/>
<path d="M52.0904 54.0828H50.3789V55.7943H52.0904V54.0828Z" fill="black"/>
<path d="M52.0904 52.3897H50.3789V54.0828H52.0904V52.3897Z" fill="#429331"/>
<path d="M52.0904 50.6782H50.3789V52.3897H52.0904V50.6782Z" fill="#429331"/>
<path d="M52.0904 48.9851H50.3789V50.6782H52.0904V48.9851Z" fill="#429331"/>
<path d="M52.0904 47.2736H50.3789V48.9851H52.0904V47.2736Z" fill="#0C4913"/>
<path d="M52.0904 45.5804H50.3789V47.2736H52.0904V45.5804Z" fill="#0C4913"/>
<path d="M52.0904 43.8689H50.3789V45.5804H52.0904V43.8689Z" fill="#5DA34B"/>
<path d="M52.0904 42.1575H50.3789V43.8689H52.0904V42.1575Z" fill="#429331"/>
<path d="M52.0904 40.4617H50.3789V42.1548H52.0904V40.4617Z" fill="#0C4913"/>
<path d="M52.0904 38.7502H50.3789V40.4617H52.0904V38.7502Z" fill="#073A0F"/>
<path d="M52.0904 37.0571H50.3789V38.7502H52.0904V37.0571Z" fill="#073A0F"/>
<path d="M52.0904 35.3456H50.3789V37.0571H52.0904V35.3456Z" fill="#429331"/>
<path d="M52.0904 33.6524H50.3789V35.3456H52.0904V33.6524Z" fill="#429331"/>
<path d="M52.0904 31.9409H50.3789V33.6524H52.0904V31.9409Z" fill="#0C4913"/>
<path d="M52.0904 30.2295H50.3789V31.9409H52.0904V30.2295Z" fill="#429331"/>
<path d="M52.0904 28.5363H50.3789V30.2295H52.0904V28.5363Z" fill="black"/>
<path d="M52.0904 26.8248H50.3789V28.5363H52.0904V26.8248Z" fill="#429331"/>
<path d="M52.0904 25.1317H50.3789V26.8248H52.0904V25.1317Z" fill="black"/>
<path d="M52.0904 23.4202H50.3789V25.1317H52.0904V23.4202Z" fill="#5BAF43"/>
<path d="M52.0904 21.7244H50.3789V23.4176H52.0904V21.7244Z" fill="black"/>
<path d="M50.3789 79.6477H48.6858V81.3434H50.3789V79.6477Z" fill="black"/>
<path d="M50.3789 77.9388H48.6858V79.6477H50.3789V77.9388Z" fill="black"/>
<path d="M50.3789 76.2431H48.6858V77.9362H50.3789V76.2431Z" fill="black"/>
<path d="M50.3789 74.5316H48.6858V76.2431H50.3789V74.5316Z" fill="black"/>
<path d="M50.3789 72.8384H48.6858V74.5316H50.3789V72.8384Z" fill="black"/>
<path d="M50.3789 71.1269H48.6858V72.8384H50.3789V71.1269Z" fill="black"/>
<path d="M50.3789 69.4181H48.6858V71.1269H50.3789V69.4181Z" fill="black"/>
<path d="M50.3789 67.7197H48.6858V69.4155H50.3789V67.7197Z" fill="#416072"/>
<path d="M50.3789 66.0108H48.6858V67.7197H50.3789V66.0108Z" fill="#2E4851"/>
<path d="M50.3789 64.3177H48.6858V66.0108H50.3789V64.3177Z" fill="black"/>
<path d="M50.3789 62.6062H48.6858V64.3177H50.3789V62.6062Z" fill="#0C4913"/>
<path d="M50.3789 60.9104H48.6858V62.6036H50.3789V60.9104Z" fill="#0D561B"/>
<path d="M50.3789 59.199H48.6858V60.9104H50.3789V59.199Z" fill="#0D561B"/>
<path d="M50.3789 57.4901H48.6858V59.199H50.3789V57.4901Z" fill="#0D561B"/>
<path d="M50.3789 55.7943H48.6858V57.4874H50.3789V55.7943Z" fill="#14661E"/>
<path d="M50.3789 54.0828H48.6858V55.7943H50.3789V54.0828Z" fill="black"/>
<path d="M50.3789 52.3897H48.6858V54.0828H50.3789V52.3897Z" fill="#0C4913"/>
<path d="M50.3789 50.6782H48.6858V52.3897H50.3789V50.6782Z" fill="#429331"/>
<path d="M50.3789 48.9851H48.6858V50.6782H50.3789V48.9851Z" fill="#429331"/>
<path d="M50.3789 47.2736H48.6858V48.9851H50.3789V47.2736Z" fill="#429331"/>
<path d="M50.3789 45.5804H48.6858V47.2736H50.3789V45.5804Z" fill="#0C4913"/>
<path d="M50.3789 43.8689H48.6858V45.5804H50.3789V43.8689Z" fill="#5DA34B"/>
<path d="M50.3789 42.1575H48.6858V43.8689H50.3789V42.1575Z" fill="#5DA34B"/>
<path d="M50.3789 40.4617H48.6858V42.1548H50.3789V40.4617Z" fill="#0C4913"/>
<path d="M50.3789 38.7502H48.6858V40.4617H50.3789V38.7502Z" fill="#073A0F"/>
<path d="M50.3789 37.0571H48.6858V38.7502H50.3789V37.0571Z" fill="#073A0F"/>
<path d="M50.3789 35.3456H48.6858V37.0571H50.3789V35.3456Z" fill="#429331"/>
<path d="M50.3789 33.6524H48.6858V35.3456H50.3789V33.6524Z" fill="#429331"/>
<path d="M50.3789 31.9409H48.6858V33.6524H50.3789V31.9409Z" fill="#0C4913"/>
<path d="M50.3789 30.2295H48.6858V31.9409H50.3789V30.2295Z" fill="#429331"/>
<path d="M50.3789 28.5363H48.6858V30.2295H50.3789V28.5363Z" fill="black"/>
<path d="M50.3789 26.8248H48.6858V28.5363H50.3789V26.8248Z" fill="#429331"/>
<path d="M50.3789 25.1317H48.6858V26.8248H50.3789V25.1317Z" fill="black"/>
<path d="M50.3789 23.4202H48.6858V25.1317H50.3789V23.4202Z" fill="#5BAF43"/>
<path d="M50.3789 21.7244H48.6858V23.4176H50.3789V21.7244Z" fill="black"/>
<path d="M48.6858 84.7481H46.9743V86.4596H48.6858V84.7481Z" fill="black"/>
<path d="M48.6858 83.0549H46.9743V84.7481H48.6858V83.0549Z" fill="black"/>
<path d="M48.6858 81.3434H46.9743V83.0523H48.6858V81.3434Z" fill="black"/>
<path d="M48.6858 79.6477H46.9743V81.3434H48.6858V79.6477Z" fill="#429331"/>
<path d="M48.6858 77.9388H46.9743V79.6477H48.6858V77.9388Z" fill="#429331"/>
<path d="M48.6858 76.2431H46.9743V77.9362H48.6858V76.2431Z" fill="#429331"/>
<path d="M48.6858 74.5316H46.9743V76.2431H48.6858V74.5316Z" fill="#429331"/>
<path d="M48.6858 72.8384H46.9743V74.5316H48.6858V72.8384Z" fill="#0C4913"/>
<path d="M48.6858 71.1269H46.9743V72.8384H48.6858V71.1269Z" fill="black"/>
<path d="M48.6858 69.4181H46.9743V71.1269H48.6858V69.4181Z" fill="#416072"/>
<path d="M48.6858 67.7197H46.9743V69.4155H48.6858V67.7197Z" fill="#2E4851"/>
<path d="M48.6858 66.0108H46.9743V67.7197H48.6858V66.0108Z" fill="#416072"/>
<path d="M48.6858 64.3177H46.9743V66.0108H48.6858V64.3177Z" fill="black"/>
<path d="M48.6858 62.6062H46.9743V64.3177H48.6858V62.6062Z" fill="#0C4913"/>
<path d="M48.6858 60.9104H46.9743V62.6036H48.6858V60.9104Z" fill="#0D561B"/>
<path d="M48.6858 59.199H46.9743V60.9104H48.6858V59.199Z" fill="#0D561B"/>
<path d="M48.6858 57.4901H46.9743V59.199H48.6858V57.4901Z" fill="#0D561B"/>
<path d="M48.6858 55.7943H46.9743V57.4874H48.6858V55.7943Z" fill="#0D561B"/>
<path d="M48.6858 54.0828H46.9743V55.7943H48.6858V54.0828Z" fill="#14661E"/>
<path d="M48.6858 52.3897H46.9743V54.0828H48.6858V52.3897Z" fill="black"/>
<path d="M48.6858 50.6782H46.9743V52.3897H48.6858V50.6782Z" fill="#429331"/>
<path d="M48.6858 48.9851H46.9743V50.6782H48.6858V48.9851Z" fill="#429331"/>
<path d="M48.6858 47.2736H46.9743V48.9851H48.6858V47.2736Z" fill="#0C4913"/>
<path d="M48.6858 45.5804H46.9743V47.2736H48.6858V45.5804Z" fill="#0C4913"/>
<path d="M48.6858 43.8689H46.9743V45.5804H48.6858V43.8689Z" fill="#429331"/>
<path d="M48.6858 42.1575H46.9743V43.8689H48.6858V42.1575Z" fill="#0C4913"/>
<path d="M48.6858 40.4617H46.9743V42.1548H48.6858V40.4617Z" fill="#0C4913"/>
<path d="M48.6858 38.7502H46.9743V40.4617H48.6858V38.7502Z" fill="#5DA34B"/>
<path d="M48.6858 37.0571H46.9743V38.7502H48.6858V37.0571Z" fill="#073A0F"/>
<path d="M48.6858 35.3456H46.9743V37.0571H48.6858V35.3456Z" fill="#429331"/>
<path d="M48.6858 33.6524H46.9743V35.3456H48.6858V33.6524Z" fill="#429331"/>
<path d="M48.6858 31.9409H46.9743V33.6524H48.6858V31.9409Z" fill="#0C4913"/>
<path d="M48.6858 30.2295H46.9743V31.9409H48.6858V30.2295Z" fill="#0C4913"/>
<path d="M48.6858 28.5363H46.9743V30.2295H48.6858V28.5363Z" fill="#0C4913"/>
<path d="M48.6858 26.8248H46.9743V28.5363H48.6858V26.8248Z" fill="#0C4913"/>
<path d="M48.6858 25.1317H46.9743V26.8248H48.6858V25.1317Z" fill="#0C4913"/>
<path d="M48.6858 23.4202H46.9743V25.1317H48.6858V23.4202Z" fill="#5BAF43"/>
<path d="M48.6858 21.7244H46.9743V23.4176H48.6858V21.7244Z" fill="black"/>
<path d="M46.9743 84.7481H45.2812V86.4596H46.9743V84.7481Z" fill="#429331"/>
<path d="M46.9743 83.0549H45.2812V84.7481H46.9743V83.0549Z" fill="#0C4913"/>
<path d="M46.9743 81.3434H45.2812V83.0523H46.9743V81.3434Z" fill="#429331"/>
<path d="M46.9743 79.6477H45.2812V81.3434H46.9743V79.6477Z" fill="#429331"/>
<path d="M46.9743 77.9388H45.2812V79.6477H46.9743V77.9388Z" fill="#429331"/>
<path d="M46.9743 76.2431H45.2812V77.9362H46.9743V76.2431Z" fill="#429331"/>
<path d="M46.9743 74.5316H45.2812V76.2431H46.9743V74.5316Z" fill="#0C4913"/>
<path d="M46.9743 72.8384H45.2812V74.5316H46.9743V72.8384Z" fill="#0C4913"/>
<path d="M46.9743 71.1269H45.2812V72.8384H46.9743V71.1269Z" fill="black"/>
<path d="M46.9743 69.4181H45.2812V71.1269H46.9743V69.4181Z" fill="#416072"/>
<path d="M46.9743 67.7197H45.2812V69.4155H46.9743V67.7197Z" fill="#2E4851"/>
<path d="M46.9743 66.0108H45.2812V67.7197H46.9743V66.0108Z" fill="#416072"/>
<path d="M46.9743 64.3177H45.2812V66.0108H46.9743V64.3177Z" fill="black"/>
<path d="M46.9743 62.6062H45.2812V64.3177H46.9743V62.6062Z" fill="#0C4913"/>
<path d="M46.9743 60.9104H45.2812V62.6036H46.9743V60.9104Z" fill="#0D561B"/>
<path d="M46.9743 59.199H45.2812V60.9104H46.9743V59.199Z" fill="#0D561B"/>
<path d="M46.9743 57.4901H45.2812V59.199H46.9743V57.4901Z" fill="#0D561B"/>
<path d="M46.9743 55.7943H45.2812V57.4874H46.9743V55.7943Z" fill="#14661E"/>
<path d="M46.9743 54.0828H45.2812V55.7943H46.9743V54.0828Z" fill="black"/>
<path d="M46.9743 52.3897H45.2812V54.0828H46.9743V52.3897Z" fill="#0C4913"/>
<path d="M46.9743 50.6782H45.2812V52.3897H46.9743V50.6782Z" fill="#0C4913"/>
<path d="M46.9743 48.9851H45.2812V50.6782H46.9743V48.9851Z" fill="#0C4913"/>
<path d="M46.9743 47.2736H45.2812V48.9851H46.9743V47.2736Z" fill="#0C4913"/>
<path d="M46.9743 45.5804H45.2812V47.2736H46.9743V45.5804Z" fill="#0C4913"/>
<path d="M46.9743 43.8689H45.2812V45.5804H46.9743V43.8689Z" fill="#429331"/>
<path d="M46.9743 42.1575H45.2812V43.8689H46.9743V42.1575Z" fill="#0C4913"/>
<path d="M46.9743 40.4617H45.2812V42.1548H46.9743V40.4617Z" fill="#0C4913"/>
<path d="M46.9743 38.7502H45.2812V40.4617H46.9743V38.7502Z" fill="#5DA34B"/>
<path d="M46.9743 37.0571H45.2812V38.7502H46.9743V37.0571Z" fill="#429331"/>
<path d="M46.9743 35.3456H45.2812V37.0571H46.9743V35.3456Z" fill="#0C4913"/>
<path d="M46.9743 33.6524H45.2812V35.3456H46.9743V33.6524Z" fill="#429331"/>
<path d="M46.9743 31.9409H45.2812V33.6524H46.9743V31.9409Z" fill="black"/>
<path d="M46.9743 30.2295H45.2812V31.9409H46.9743V30.2295Z" fill="black"/>
<path d="M46.9743 28.5363H45.2812V30.2295H46.9743V28.5363Z" fill="black"/>
<path d="M46.9743 26.8248H45.2812V28.5363H46.9743V26.8248Z" fill="black"/>
<path d="M46.9743 25.1317H45.2812V26.8248H46.9743V25.1317Z" fill="black"/>
<path d="M46.9743 23.4202H45.2812V25.1317H46.9743V23.4202Z" fill="black"/>
<path d="M45.2812 84.7481H43.5697V86.4596H45.2812V84.7481Z" fill="#429331"/>
<path d="M45.2812 83.0549H43.5697V84.7481H45.2812V83.0549Z" fill="#429331"/>
<path d="M45.2812 81.3434H43.5697V83.0523H45.2812V81.3434Z" fill="#0C4913"/>
<path d="M45.2812 79.6477H43.5697V81.3434H45.2812V79.6477Z" fill="#5BAF43"/>
<path d="M45.2812 77.9388H43.5697V79.6477H45.2812V77.9388Z" fill="#429331"/>
<path d="M45.2812 76.2431H43.5697V77.9362H45.2812V76.2431Z" fill="#429331"/>
<path d="M45.2812 74.5316H43.5697V76.2431H45.2812V74.5316Z" fill="#0C4913"/>
<path d="M45.2812 72.8384H43.5697V74.5316H45.2812V72.8384Z" fill="#5BAF43"/>
<path d="M45.2812 71.1269H43.5697V72.8384H45.2812V71.1269Z" fill="black"/>
<path d="M45.2812 69.4181H43.5697V71.1269H45.2812V69.4181Z" fill="#416072"/>
<path d="M45.2812 67.7197H43.5697V69.4155H45.2812V67.7197Z" fill="#2E4851"/>
<path d="M45.2812 66.0108H43.5697V67.7197H45.2812V66.0108Z" fill="black"/>
<path d="M45.2812 64.3177H43.5697V66.0108H45.2812V64.3177Z" fill="#0C4913"/>
<path d="M45.2812 62.6062H43.5697V64.3177H45.2812V62.6062Z" fill="#0D561B"/>
<path d="M45.2812 60.9104H43.5697V62.6036H45.2812V60.9104Z" fill="#0D561B"/>
<path d="M45.2812 59.199H43.5697V60.9104H45.2812V59.199Z" fill="#0D561B"/>
<path d="M45.2812 57.4901H43.5697V59.199H45.2812V57.4901Z" fill="#14661E"/>
<path d="M45.2812 55.7943H43.5697V57.4874H45.2812V55.7943Z" fill="black"/>
<path d="M45.2812 54.0828H43.5697V55.7943H45.2812V54.0828Z" fill="black"/>
<path d="M45.2812 52.3897H43.5697V54.0828H45.2812V52.3897Z" fill="black"/>
<path d="M45.2812 50.6782H43.5697V52.3897H45.2812V50.6782Z" fill="black"/>
<path d="M45.2812 48.9851H43.5697V50.6782H45.2812V48.9851Z" fill="#0C4913"/>
<path d="M45.2812 47.2736H43.5697V48.9851H45.2812V47.2736Z" fill="black"/>
<path d="M45.2812 45.5804H43.5697V47.2736H45.2812V45.5804Z" fill="#429331"/>
<path d="M45.2812 43.8689H43.5697V45.5804H45.2812V43.8689Z" fill="#0C4913"/>
<path d="M45.2812 42.1575H43.5697V43.8689H45.2812V42.1575Z" fill="#0C4913"/>
<path d="M45.2812 40.4617H43.5697V42.1548H45.2812V40.4617Z" fill="#0C4913"/>
<path d="M45.2812 38.7502H43.5697V40.4617H45.2812V38.7502Z" fill="#0C4913"/>
<path d="M45.2812 37.0571H43.5697V38.7502H45.2812V37.0571Z" fill="#0C4913"/>
<path d="M45.2812 35.3456H43.5697V37.0571H45.2812V35.3456Z" fill="#0C4913"/>
<path d="M45.2812 33.6524H43.5697V35.3456H45.2812V33.6524Z" fill="black"/>
<path d="M45.2812 31.9409H43.5697V33.6524H45.2812V31.9409Z" fill="#102126"/>
<path d="M45.2812 30.2295H43.5697V31.9409H45.2812V30.2295Z" fill="#102126"/>
<path d="M45.2812 28.5363H43.5697V30.2295H45.2812V28.5363Z" fill="#416072"/>
<path d="M45.2812 26.8248H43.5697V28.5363H45.2812V26.8248Z" fill="black"/>
<path d="M43.5697 84.7481H41.8766V86.4596H43.5697V84.7481Z" fill="#429331"/>
<path d="M43.5697 83.0549H41.8766V84.7481H43.5697V83.0549Z" fill="#0C4913"/>
<path d="M43.5697 81.3434H41.8766V83.0523H43.5697V81.3434Z" fill="#5BAF43"/>
<path d="M43.5697 79.6477H41.8766V81.3434H43.5697V79.6477Z" fill="black"/>
<path d="M43.5697 77.9388H41.8766V79.6477H43.5697V77.9388Z" fill="black"/>
<path d="M43.5697 76.2431H41.8766V77.9362H43.5697V76.2431Z" fill="black"/>
<path d="M43.5697 74.5316H41.8766V76.2431H43.5697V74.5316Z" fill="black"/>
<path d="M43.5697 72.8384H41.8766V74.5316H43.5697V72.8384Z" fill="black"/>
<path d="M43.5697 71.1269H41.8766V72.8384H43.5697V71.1269Z" fill="black"/>
<path d="M43.5697 69.4181H41.8766V71.1269H43.5697V69.4181Z" fill="#2E4851"/>
<path d="M43.5697 67.7197H41.8766V69.4155H43.5697V67.7197Z" fill="#416072"/>
<path d="M43.5697 66.0108H41.8766V67.7197H43.5697V66.0108Z" fill="black"/>
<path d="M43.5697 64.3177H41.8766V66.0108H43.5697V64.3177Z" fill="black"/>
<path d="M43.5697 62.6062H41.8766V64.3177H43.5697V62.6062Z" fill="#0C4913"/>
<path d="M43.5697 60.9104H41.8766V62.6036H43.5697V60.9104Z" fill="#0D561B"/>
<path d="M43.5697 59.199H41.8766V60.9104H43.5697V59.199Z" fill="#0D561B"/>
<path d="M43.5697 57.4901H41.8766V59.199H43.5697V57.4901Z" fill="black"/>
<path d="M43.5697 55.7943H41.8766V57.4874H43.5697V55.7943Z" fill="black"/>
<path d="M43.5697 48.9851H41.8766V50.6782H43.5697V48.9851Z" fill="black"/>
<path d="M43.5697 47.2736H41.8766V48.9851H43.5697V47.2736Z" fill="black"/>
<path d="M43.5697 45.5804H41.8766V47.2736H43.5697V45.5804Z" fill="black"/>
<path d="M43.5697 43.8689H41.8766V45.5804H43.5697V43.8689Z" fill="#0C4913"/>
<path d="M43.5697 42.1575H41.8766V43.8689H43.5697V42.1575Z" fill="#0C4913"/>
<path d="M43.5697 40.4617H41.8766V42.1548H43.5697V40.4617Z" fill="#0C4913"/>
<path d="M43.5697 38.7502H41.8766V40.4617H43.5697V38.7502Z" fill="#429331"/>
<path d="M43.5697 37.0571H41.8766V38.7502H43.5697V37.0571Z" fill="#429331"/>
<path d="M43.5697 35.3456H41.8766V37.0571H43.5697V35.3456Z" fill="black"/>
<path d="M43.5697 33.6524H41.8766V35.3456H43.5697V33.6524Z" fill="#102126"/>
<path d="M43.5697 31.9409H41.8766V33.6524H43.5697V31.9409Z" fill="#102126"/>
<path d="M43.5697 30.2295H41.8766V31.9409H43.5697V30.2295Z" fill="#2E4851"/>
<path d="M43.5697 28.5363H41.8766V30.2295H43.5697V28.5363Z" fill="#416072"/>
<path d="M43.5697 26.8248H41.8766V28.5363H43.5697V26.8248Z" fill="black"/>
<path d="M41.8766 84.7481H40.1651V86.4596H41.8766V84.7481Z" fill="#429331"/>
<path d="M41.8766 83.0549H40.1651V84.7481H41.8766V83.0549Z" fill="black"/>
<path d="M41.8766 81.3434H40.1651V83.0523H41.8766V81.3434Z" fill="black"/>
<path d="M41.8766 72.8384H40.1651V74.5316H41.8766V72.8384Z" fill="black"/>
<path d="M41.8766 71.1269H40.1651V72.8384H41.8766V71.1269Z" fill="#416072"/>
<path d="M41.8766 69.4181H40.1651V71.1269H41.8766V69.4181Z" fill="#2E4851"/>
<path d="M41.8766 67.7197H40.1651V69.4155H41.8766V67.7197Z" fill="#416072"/>
<path d="M41.8766 66.0108H40.1651V67.7197H41.8766V66.0108Z" fill="black"/>
<path d="M41.8766 62.6062H40.1651V64.3177L41.8766 64.3177V62.6062Z" fill="black"/>
<path d="M41.8766 60.9104H40.1651V62.6036H41.8766V60.9104Z" fill="black"/>
<path d="M41.8766 59.199H40.1651V60.9104H41.8766V59.199Z" fill="black"/>
<path d="M41.8766 50.6782H40.1651V52.3897H41.8766V50.6782Z" fill="black"/>
<path d="M41.8766 48.9851H40.1651V50.6782H41.8766V48.9851Z" fill="#429331"/>
<path d="M41.8766 47.2736H40.1651V48.9851H41.8766V47.2736Z" fill="#429331"/>
<path d="M41.8766 45.5804H40.1651V47.2736H41.8766V45.5804Z" fill="#0C4913"/>
<path d="M41.8766 43.8689H40.1651V45.5804H41.8766V43.8689Z" fill="#0C4913"/>
<path d="M41.8766 42.1575H40.1651V43.8689H41.8766V42.1575Z" fill="#0C4913"/>
<path d="M41.8766 40.4617H40.1651V42.1548H41.8766V40.4617Z" fill="#429331"/>
<path d="M41.8766 38.7502H40.1651V40.4617H41.8766V38.7502Z" fill="#429331"/>
<path d="M41.8766 37.0571H40.1651V38.7502H41.8766V37.0571Z" fill="black"/>
<path d="M41.8766 35.3456H40.1651V37.0571H41.8766V35.3456Z" fill="#102126"/>
<path d="M41.8766 33.6524H40.1651V35.3456H41.8766V33.6524Z" fill="#102126"/>
<path d="M41.8766 31.9409H40.1651V33.6524H41.8766V31.9409Z" fill="#2E4851"/>
<path d="M41.8766 30.2295H40.1651V31.9409H41.8766V30.2295Z" fill="#416072"/>
<path d="M41.8766 28.5363H40.1651V30.2295H41.8766V28.5363Z" fill="black"/>
<path d="M40.1651 84.7481H38.4536V86.4596H40.1651V84.7481Z" fill="#5BAF43"/>
<path d="M40.1651 83.0549H38.4536V84.7481H40.1651V83.0549Z" fill="black"/>
<path d="M40.1651 74.5316H38.4536V76.2431H40.1651V74.5316Z" fill="black"/>
<path d="M40.1651 72.8384H38.4536V74.5316H40.1651V72.8384Z" fill="#416072"/>
<path d="M40.1651 71.1269H38.4536V72.8384H40.1651V71.1269Z" fill="#2E4851"/>
<path d="M40.1651 69.4181H38.4536V71.1269H40.1651V69.4181Z" fill="#416072"/>
<path d="M40.1651 67.7197H38.4536V69.4155H40.1651V67.7197Z" fill="#416072"/>
<path d="M40.1651 66.0108H38.4536V67.7197H40.1651V66.0108Z" fill="black"/>
<path d="M40.1651 48.9851H38.4536V50.6782H40.1651V48.9851Z" fill="black"/>
<path d="M40.1651 47.2736H38.4536V48.9851H40.1651V47.2736Z" fill="black"/>
<path d="M40.1651 45.5804H38.4536V47.2736H40.1651V45.5804Z" fill="#429331"/>
<path d="M40.1651 43.8689H38.4536V45.5804H40.1651V43.8689Z" fill="#429331"/>
<path d="M40.1651 42.1575H38.4536V43.8689H40.1651V42.1575Z" fill="#429331"/>
<path d="M40.1651 40.4617H38.4536V42.1548H40.1651V40.4617Z" fill="#429331"/>
<path d="M40.1651 38.7502H38.4536V40.4617H40.1651V38.7502Z" fill="black"/>
<path d="M40.1651 37.0571H38.4536V38.7502H40.1651V37.0571Z" fill="#102126"/>
<path d="M40.1651 35.3456H38.4536V37.0571H40.1651V35.3456Z" fill="#102126"/>
<path d="M40.1651 33.6524H38.4536V35.3456H40.1651V33.6524Z" fill="#102126"/>
<path d="M40.1651 31.9409H38.4536V33.6524H40.1651V31.9409Z" fill="#2E4851"/>
<path d="M40.1651 30.2295H38.4536V31.9409H40.1651V30.2295Z" fill="#416072"/>
<path d="M40.1651 28.5363H38.4536V30.2295H40.1651V28.5363Z" fill="black"/>
<path d="M38.4536 84.7481H36.7604V86.4596H38.4536V84.7481Z" fill="black"/>
<path d="M38.4536 74.5316H36.7604V76.2431H38.4536V74.5316Z" fill="black"/>
<path d="M38.4536 72.8384H36.7604V74.5316H38.4536V72.8384Z" fill="#416072"/>
<path d="M38.4536 71.1269H36.7604V72.8384H38.4536V71.1269Z" fill="#2E4851"/>
<path d="M38.4536 69.4181H36.7604V71.1269H38.4536V69.4181Z" fill="#416072"/>
<path d="M38.4536 67.7197H36.7604V69.4155H38.4536V67.7197Z" fill="black"/>
<path d="M38.4536 50.6782H36.7604V52.3897H38.4536V50.6782Z" fill="black"/>
<path d="M38.4536 48.9851H36.7604V50.6782H38.4536V48.9851Z" fill="black"/>
<path d="M38.4536 47.2736H36.7604V48.9851H38.4536V47.2736Z" fill="#0C4913"/>
<path d="M38.4536 45.5804H36.7604V47.2736H38.4536V45.5804Z" fill="#0C4913"/>
<path d="M38.4536 43.8689H36.7604V45.5804H38.4536V43.8689Z" fill="#0C4913"/>
<path d="M38.4536 42.1575H36.7604V43.8689H38.4536V42.1575Z" fill="#0C4913"/>
<path d="M38.4536 40.4617H36.7604V42.1548H38.4536V40.4617Z" fill="black"/>
<path d="M38.4536 38.7502H36.7604V40.4617H38.4536V38.7502Z" fill="#102126"/>
<path d="M38.4536 37.0571H36.7604V38.7502H38.4536V37.0571Z" fill="#102126"/>
<path d="M38.4536 35.3456H36.7604V37.0571H38.4536V35.3456Z" fill="#102126"/>
<path d="M38.4536 33.6524H36.7604V35.3456H38.4536V33.6524Z" fill="#2F4B5B"/>
<path d="M38.4536 31.9409H36.7604V33.6524H38.4536V31.9409Z" fill="#2E4851"/>
<path d="M38.4536 30.2295H36.7604V31.9409H38.4536V30.2295Z" fill="#416072"/>
<path d="M38.4536 28.5363H36.7604V30.2295H38.4536V28.5363Z" fill="black"/>
<path d="M36.7604 74.5316H35.0489V76.2431H36.7604V74.5316Z" fill="black"/>
<path d="M36.7604 72.8384H35.0489V74.5316H36.7604V72.8384Z" fill="#416072"/>
<path d="M36.7604 71.1269H35.0489V72.8384H36.7604V71.1269Z" fill="#2E4851"/>
<path d="M36.7604 69.4181H35.0489V71.1269H36.7604V69.4181Z" fill="#416072"/>
<path d="M36.7604 67.7197H35.0489V69.4155H36.7604V67.7197Z" fill="black"/>
<path d="M36.7604 50.6782H35.0489V52.3897H36.7604V50.6782Z" fill="black"/>
<path d="M36.7604 48.9851H35.0489V50.6782H36.7604V48.9851Z" fill="#0C4913"/>
<path d="M36.7604 47.2736H35.0489V48.9851H36.7604V47.2736Z" fill="#0C4913"/>
<path d="M36.7604 45.5804H35.0489V47.2736H36.7604V45.5804Z" fill="#0C4913"/>
<path d="M36.7604 43.8689H35.0489V45.5804H36.7604V43.8689Z" fill="#429331"/>
<path d="M36.7604 42.1575H35.0489V43.8689H36.7604V42.1575Z" fill="#0D561B"/>
<path d="M36.7604 40.4617H35.0489V42.1548H36.7604V40.4617Z" fill="#0D561B"/>
<path d="M36.7604 38.7502H35.0489V40.4617H36.7604V38.7502Z" fill="black"/>
<path d="M36.7604 37.0571H35.0489V38.7502H36.7604V37.0571Z" fill="#102126"/>
<path d="M36.7604 35.3456H35.0489V37.0571H36.7604V35.3456Z" fill="#2F4B5B"/>
<path d="M36.7604 33.6524H35.0489V35.3456H36.7604V33.6524Z" fill="#E7BD00"/>
<path d="M36.7604 31.9409H35.0489V33.6524H36.7604V31.9409Z" fill="#2E4851"/>
<path d="M36.7604 30.2295H35.0489V31.9409H36.7604V30.2295Z" fill="black"/>
<path d="M35.0463 74.5316H33.3532V76.2431H35.0463V74.5316Z" fill="black"/>
<path d="M35.0463 72.8384H33.3532V74.5316H35.0463V72.8384Z" fill="#416072"/>
<path d="M35.0463 71.1269H33.3532V72.8384H35.0463V71.1269Z" fill="#2E4851"/>
<path d="M35.0463 69.4181H33.3532V71.1269H35.0463V69.4181Z" fill="#416072"/>
<path d="M35.0463 67.7197H33.3532V69.4155H35.0463V67.7197Z" fill="black"/>
<path d="M35.0463 50.6782H33.3532V52.3897H35.0463V50.6782Z" fill="black"/>
<path d="M35.0463 48.9851H33.3532V50.6782H35.0463V48.9851Z" fill="#0C4913"/>
<path d="M35.0463 47.2736H33.3532V48.9851H35.0463V47.2736Z" fill="#0C4913"/>
<path d="M35.0463 45.5804H33.3532V47.2736H35.0463V45.5804Z" fill="#429331"/>
<path d="M35.0463 43.8689H33.3532V45.5804H35.0463V43.8689Z" fill="#0D561B"/>
<path d="M35.0463 42.1575H33.3532V43.8689H35.0463V42.1575Z" fill="#0D561B"/>
<path d="M35.0463 40.4617H33.3532V42.1548H35.0463V40.4617Z" fill="#0D561B"/>
<path d="M35.0463 38.7502H33.3532V40.4617H35.0463V38.7502Z" fill="#0D561B"/>
<path d="M35.0463 37.0571H33.3532V38.7502H35.0463V37.0571Z" fill="black"/>
<path d="M35.0463 35.3456H33.3532V37.0571H35.0463V35.3456Z" fill="#102126"/>
<path d="M35.0463 33.6524H33.3532V35.3456H35.0463V33.6524Z" fill="#E7BD00"/>
<path d="M35.0463 31.9409H33.3532V33.6524H35.0463V31.9409Z" fill="#E7BD00"/>
<path d="M35.0463 30.2295H33.3532V31.9409H35.0463V30.2295Z" fill="black"/>
<path d="M33.3532 74.5316H31.6417V76.2431H33.3532V74.5316Z" fill="black"/>
<path d="M33.3532 72.8384H31.6417V74.5316H33.3532V72.8384Z" fill="#416072"/>
<path d="M33.3532 71.1269H31.6417V72.8384H33.3532V71.1269Z" fill="#2E4851"/>
<path d="M33.3532 69.4181H31.6417V71.1269H33.3532V69.4181Z" fill="#416072"/>
<path d="M33.3532 67.7197H31.6417V69.4155H33.3532V67.7197Z" fill="black"/>
<path d="M33.3532 48.9851H31.6417V50.6782H33.3532V48.9851Z" fill="black"/>
<path d="M33.3532 47.2736H31.6417V48.9851H33.3532V47.2736Z" fill="#0C4913"/>
<path d="M33.3532 45.5804H31.6417V47.2736H33.3532V45.5804Z" fill="#429331"/>
<path d="M33.3532 43.8689H31.6417V45.5804H33.3532V43.8689Z" fill="#0D561B"/>
<path d="M33.3532 42.1575H31.6417V43.8689H33.3532V42.1575Z" fill="#0D561B"/>
<path d="M33.3532 40.4617H31.6417V42.1548H33.3532V40.4617Z" fill="#0D561B"/>
<path d="M33.3532 38.7502H31.6417V40.4617H33.3532V38.7502Z" fill="#0D561B"/>
<path d="M33.3532 37.0571H31.6417V38.7502H33.3532V37.0571Z" fill="black"/>
<path d="M33.3532 35.3456H31.6417V37.0571H33.3532V35.3456Z" fill="black"/>
<path d="M33.3532 33.6524H31.6417V35.3456H33.3532V33.6524Z" fill="black"/>
<path d="M33.3532 31.9409H31.6417V33.6524H33.3532V31.9409Z" fill="black"/>
<path d="M31.6417 74.5316H29.9486V76.2431H31.6417V74.5316Z" fill="black"/>
<path d="M31.6417 72.8384H29.9486V74.5316H31.6417V72.8384Z" fill="#416072"/>
<path d="M31.6417 71.1269H29.9486V72.8384H31.6417V71.1269Z" fill="#2E4851"/>
<path d="M31.6417 69.4181H29.9486V71.1269H31.6417V69.4181Z" fill="#416072"/>
<path d="M31.6417 67.7197H29.9486V69.4155H31.6417V67.7197Z" fill="black"/>
<path d="M31.6417 47.2736H29.9486V48.9851H31.6417V47.2736Z" fill="black"/>
<path d="M31.6417 45.5804H29.9486V47.2736H31.6417V45.5804Z" fill="black"/>
<path d="M31.6417 43.8689H29.9486V45.5804H31.6417V43.8689Z" fill="black"/>
<path d="M31.6417 42.1575H29.9486V43.8689H31.6417V42.1575Z" fill="black"/>
<path d="M31.6417 40.4617H29.9486V42.1548H31.6417V40.4617Z" fill="#0D561B"/>
<path d="M31.6417 38.7502H29.9486V40.4617H31.6417V38.7502Z" fill="#0D561B"/>
<path d="M31.6417 37.0571H29.9486V38.7502H31.6417V37.0571Z" fill="black"/>
<path d="M31.6417 35.3456H29.9486V37.0571H31.6417V35.3456Z" fill="black"/>
<path d="M31.6417 33.6524H29.9486V35.3456H31.6417V33.6524Z" fill="black"/>
<path d="M31.6417 31.9409H29.9486V33.6524H31.6417V31.9409Z" fill="black"/>
<path d="M29.9486 72.8384H28.2371V74.5316H29.9486V72.8384Z" fill="black"/>
<path d="M29.9486 71.1269H28.2371V72.8384H29.9486V71.1269Z" fill="#416072"/>
<path d="M29.9486 69.4181H28.2371V71.1269H29.9486V69.4181Z" fill="#416072"/>
<path d="M29.9486 67.7197H28.2371V69.4155H29.9486V67.7197Z" fill="black"/>
<path d="M29.9486 42.1575H28.2371V43.8689H29.9486V42.1575Z" fill="black"/>
<path d="M29.9486 40.4617H28.2371V42.1548H29.9486V40.4617Z" fill="black"/>
<path d="M29.9486 38.7502H28.2371V40.4617H29.9486V38.7502Z" fill="black"/>
<path d="M29.9486 37.0571H28.2371V38.7502H29.9486V37.0571Z" fill="black"/>
<path d="M29.9486 35.3456H28.2371V37.0571H29.9486V35.3456Z" fill="#0D561B"/>
<path d="M29.9486 33.6524H28.2371V35.3456H29.9486V33.6524Z" fill="#0D561B"/>
<path d="M29.9486 31.9409H28.2371V33.6524H29.9486V31.9409Z" fill="black"/>
<path d="M28.2371 71.1269H26.5256V72.8384H28.2371V71.1269Z" fill="black"/>
<path d="M28.2371 69.4181H26.5256V71.1269H28.2371V69.4181Z" fill="#416072"/>
<path d="M28.2371 67.7197H26.5256V69.4155H28.2371V67.7197Z" fill="black"/>
<path d="M28.2371 40.4617H26.5256V42.1548H28.2371V40.4617Z" fill="black"/>
<path d="M28.2371 38.7502H26.5256V40.4617H28.2371V38.7502Z" fill="black"/>
<path d="M28.2371 37.0571H26.5256V38.7502H28.2371V37.0571Z" fill="#0D561B"/>
<path d="M28.2371 35.3456H26.5256V37.0571H28.2371V35.3456Z" fill="#0D561B"/>
<path d="M28.2371 33.6524H26.5256V35.3456H28.2371V33.6524Z" fill="#0D561B"/>
<path d="M28.2371 31.9409H26.5256V33.6524H28.2371V31.9409Z" fill="black"/>
<path d="M26.5256 69.4181H24.8324V71.1269H26.5256V69.4181Z" fill="black"/>
<path d="M26.5256 67.7197H24.8324V69.4155H26.5256V67.7197Z" fill="black"/>
<path d="M26.5256 40.4617H24.8324V42.1548H26.5256V40.4617Z" fill="black"/>
<path d="M26.5256 38.7502H24.8324V40.4617H26.5256V38.7502Z" fill="black"/>
<path d="M26.5256 37.0571H24.8324V38.7502H26.5256V37.0571Z" fill="#0D561B"/>
<path d="M26.5256 35.3456H24.8324V37.0571H26.5256V35.3456Z" fill="#0D561B"/>
<path d="M26.5256 33.6524H24.8324V35.3456H26.5256V33.6524Z" fill="black"/>
<path d="M24.8324 40.4617H23.1209V42.1548H24.8324V40.4617Z" fill="black"/>
<path d="M24.8324 38.7502H23.1209V40.4617H24.8324V38.7502Z" fill="#E7BD00"/>
<path d="M24.8324 37.0571H23.1209V38.7502H24.8324V37.0571Z" fill="black"/>
<path d="M24.8324 35.3456H23.1209V37.0571H24.8324V35.3456Z" fill="black"/>
<path d="M23.1209 42.1575H21.4278V43.8689H23.1209V42.1575Z" fill="black"/>
<path d="M23.1209 40.4617H21.4278V42.1548H23.1209V40.4617Z" fill="#E7BD00"/>
<path d="M23.1209 38.7502H21.4278V40.4617H23.1209V38.7502Z" fill="black"/>
<path d="M21.4278 42.1575H19.7163V43.8689H21.4278V42.1575Z" fill="black"/>
<path d="M21.4278 40.4617H19.7163V42.1548H21.4278V40.4617Z" fill="black"/>
<path d="M21.4278 38.7502H19.7163V40.4617H21.4278V38.7502Z" fill="black"/>
</svg>
