<svg width="105" height="105" viewBox="0 0 105 105" fill="none" xmlns="http://www.w3.org/2000/svg">
<path d="M52.5002 4.73279C78.8829 4.73297 100.267 26.1202 100.267 52.5004C100.267 78.8803 78.8802 100.267 52.5002 100.267C26.1201 100.267 4.73284 78.8804 4.73267 52.5004C4.73267 26.1201 26.1174 4.73279 52.5002 4.73279Z" fill="#F9F7E7" stroke="#29100A" stroke-width="2"/>
<path d="M79.9206 38.2672H78.0569V40.131H79.9206V38.2672Z" fill="black"/>
<path d="M79.9206 36.3851H78.0569V38.2672H79.9206V36.3851Z" fill="black"/>
<path d="M79.9206 34.5031H78.0569V36.3851H79.9206V34.5031Z" fill="black"/>
<path d="M79.9206 32.6393H78.0569V34.5031H79.9206V32.6393Z" fill="black"/>
<path d="M79.9206 30.7623H78.0569V32.6445H79.9206V30.7623Z" fill="black"/>
<path d="M79.9206 28.8987H78.0569V30.7623H79.9206V28.8987Z" fill="black"/>
<path d="M79.9206 23.2706H78.0569V25.1528H79.9206V23.2706Z" fill="black"/>
<path d="M78.0569 45.7563H76.1748V47.6201H78.0569V45.7563Z" fill="black"/>
<path d="M78.0569 43.8743H76.1748V45.7563H78.0569V43.8743Z" fill="black"/>
<path d="M78.0569 42.0105H76.1748V43.8743H78.0569V42.0105Z" fill="black"/>
<path d="M78.0569 40.1284H76.1748V42.0105H78.0569V40.1284Z" fill="black"/>
<path d="M78.0569 38.2672H76.1748V40.131H78.0569V38.2672Z" fill="#3D3D3B"/>
<path d="M78.0569 36.3851H76.1748V38.2672H78.0569V36.3851Z" fill="#3D3D3B"/>
<path d="M78.0569 34.5031H76.1748V36.3851H78.0569V34.5031Z" fill="#3D3D3B"/>
<path d="M78.0569 32.6393H76.1748V34.5031H78.0569V32.6393Z" fill="#3D3D3B"/>
<path d="M78.0569 30.7623H76.1748V32.6445H78.0569V30.7623Z" fill="#3D3D3B"/>
<path d="M78.0569 28.8987H76.1748V30.7623H78.0569V28.8987Z" fill="#3D3D3B"/>
<path d="M78.0569 27.0165H76.1748V28.8987H78.0569L78.0569 27.0165Z" fill="black"/>
<path d="M78.0569 25.1528L76.1748 25.1527V27.0165H78.0569L78.0569 25.1528Z" fill="black"/>
<path d="M78.0569 23.2706H76.1748V25.1527L78.0569 25.1528V23.2706Z" fill="#3D3D3B"/>
<path d="M78.0569 21.4095H76.1748V23.2733H78.0569V21.4095Z" fill="black"/>
<path d="M76.1802 49.4969H74.3164V51.3791H76.1802V49.4969Z" fill="black"/>
<path d="M76.1802 47.6149H74.3164V49.4969H76.1802V47.6149Z" fill="black"/>
<path d="M76.1802 45.7563H74.3164V47.6201H76.1802V45.7563Z" fill="#3D3D3B"/>
<path d="M76.1802 43.8743H74.3164V45.7563H76.1802V43.8743Z" fill="#3D3D3B"/>
<path d="M76.1802 42.0105H74.3164V43.8743H76.1802V42.0105Z" fill="#3D3D3B"/>
<path d="M76.1802 40.1284H74.3164V42.0105H76.1802V40.1284Z" fill="#3D3D3B"/>
<path d="M76.1802 38.2672H74.3164V40.131H76.1802V38.2672Z" fill="#2B2B2A"/>
<path d="M76.1802 36.3851H74.3164V38.2672H76.1802V36.3851Z" fill="#2B2B2A"/>
<path d="M76.1802 34.5031H74.3164V36.3851H76.1802V34.5031Z" fill="#2B2B2A"/>
<path d="M76.1802 32.6393H74.3164V34.5031H76.1802V32.6393Z" fill="#2B2B2A"/>
<path d="M76.1802 30.7623H74.3164V32.6445H76.1802V30.7623Z" fill="#2B2B2A"/>
<path d="M76.1802 28.8987H74.3164V30.7623H76.1802V28.8987Z" fill="#2B2B2A"/>
<path d="M76.1802 27.0165H74.3164V28.8987H76.1802V27.0165Z" fill="#3D3D3B"/>
<path d="M76.1802 25.1527H74.3164V27.0165H76.1802V25.1527Z" fill="#3D3D3B"/>
<path d="M76.1802 23.2706H74.3164V25.1527H76.1802V23.2706Z" fill="#2B2B2A"/>
<path d="M76.1802 21.4095H74.3164V23.2733H76.1802V21.4095Z" fill="black"/>
<path d="M74.3164 53.2429H72.4343V55.125H74.3164V53.2429Z" fill="black"/>
<path d="M74.3164 51.3791L72.4343 51.3792V53.2429H74.3164L74.3164 51.3791Z" fill="black"/>
<path d="M74.3164 49.4969H72.4343V51.3792L74.3164 51.3791V49.4969Z" fill="#3D3D3B"/>
<path d="M74.3164 47.6149H72.4343V49.4969H74.3164V47.6149Z" fill="#2B2B2A"/>
<path d="M74.3164 45.7563H72.4343V47.6201H74.3164V45.7563Z" fill="#2B2B2A"/>
<path d="M74.3164 43.8743H72.4343V45.7563H74.3164V43.8743Z" fill="#2B2B2A"/>
<path d="M74.3164 42.0105H72.4343V43.8743H74.3164V42.0105Z" fill="#2B2B2A"/>
<path d="M74.3164 40.1284H72.4343V42.0105H74.3164V40.1284Z" fill="#2B2B2A"/>
<path d="M74.3164 27.0165H72.4343V28.8986L74.3164 28.8987V27.0165Z" fill="#2B2B2A"/>
<path d="M74.3164 25.1527H72.4343V27.0165H74.3164V25.1527Z" fill="#2B2B2A"/>
<path d="M74.3164 23.2706H72.4343V25.1527H74.3164V23.2706Z" fill="#8A8D8E"/>
<path d="M72.4344 56.9861H70.5522V58.8682H72.4344V56.9861Z" fill="black"/>
<path d="M72.4343 55.125L70.5522 55.125V56.9888H72.4344L72.4343 55.125Z" fill="black"/>
<path d="M72.4343 53.2429H70.5522V55.125L72.4343 55.125V53.2429Z" fill="#3D3D3B"/>
<path d="M72.4343 51.3792H70.5522V53.2429H72.4343V51.3792Z" fill="#2B2B2A"/>
<path d="M72.4343 49.4969H70.5522V51.3792H72.4343V49.4969Z" fill="#2B2B2A"/>
<path d="M72.4343 25.1527H70.5522V27.0165L72.4343 27.0165V25.1527Z" fill="#8A8D8E"/>
<path d="M70.5522 58.8682L68.6885 58.8683V60.732H70.5522L70.5522 58.8682Z" fill="black"/>
<path d="M70.5522 56.9861H68.6885V58.8683L70.5522 58.8682V56.9861Z" fill="#DD8976"/>
<path d="M70.5522 55.125H68.6885V56.9888H70.5522V55.125Z" fill="#DD8976"/>
<path d="M70.5522 53.2429H68.6885V55.125H70.5522V53.2429Z" fill="#2B2B2A"/>
<path d="M70.5522 27.0165L68.6885 27.0165V28.8986H70.5522L70.5522 27.0165Z" fill="#8A8D8E"/>
<path d="M68.6885 60.732L66.8062 60.7321V62.6142H68.6883L68.6885 60.732Z" fill="black"/>
<path d="M68.6885 58.8683H66.8062V60.7321L68.6885 60.732V58.8683Z" fill="#DD8976"/>
<path d="M68.6885 56.9861H66.8062V58.8683H68.6885V56.9861Z" fill="#DD8976"/>
<path d="M68.6885 55.125H66.8062V56.9888H68.6885V55.125Z" fill="#F7AB94"/>
<path d="M68.6885 53.2429H66.8062V55.125H68.6885V53.2429Z" fill="black"/>
<path d="M68.6883 51.3792H66.8062V53.2429H68.6885L68.6883 51.3792Z" fill="black"/>
<path d="M68.6883 49.4969H66.8062V51.3792H68.6883V49.4969Z" fill="black"/>
<path d="M68.6885 28.8986L66.8062 28.8987V30.7624H68.6883L68.6885 28.8986Z" fill="#8A8D8E"/>
<path d="M66.8088 85.0946H64.9451V86.9584H66.8088V85.0946Z" fill="black"/>
<path d="M66.8088 83.2125H64.9451V85.0946H66.8088V83.2125Z" fill="black"/>
<path d="M66.8088 60.7321H64.9451V62.6142H66.8088V60.7321Z" fill="black"/>
<path d="M66.8088 58.8683H64.9451V60.7321H66.8088V58.8683Z" fill="#F7AB94"/>
<path d="M66.8088 56.9861H64.9451V58.8683H66.8088V56.9861Z" fill="#F7AB94"/>
<path d="M66.8088 55.125H64.9451V56.9888H66.8088V55.125Z" fill="#373801"/>
<path d="M66.8088 53.2429H64.9451V55.125H66.8088V53.2429Z" fill="#373801"/>
<path d="M66.8088 51.3792H64.9451V53.2429H66.8088V51.3792Z" fill="#373801"/>
<path d="M66.8088 49.4969H64.9451V51.3792H66.8088V49.4969Z" fill="#373801"/>
<path d="M66.8088 47.6149H64.9451V49.4969H66.8088V47.6149Z" fill="black"/>
<path d="M66.8088 45.7563H64.9451V47.6201H66.8088V45.7563Z" fill="black"/>
<path d="M66.8088 43.8743H64.9451V45.7563H66.8088V43.8743Z" fill="black"/>
<path d="M66.8088 42.0105H64.9451V43.8743H66.8088V42.0105Z" fill="black"/>
<path d="M66.8088 40.1284H64.9451V42.0105H66.8088V40.1284Z" fill="black"/>
<path d="M66.8088 30.7623H64.9451V32.6445H66.8088V30.7623Z" fill="#8A8D8E"/>
<path d="M64.9451 85.0946H63.063V86.9584H64.9451V85.0946Z" fill="black"/>
<path d="M64.9451 83.2125H63.063V85.0946H64.9451V83.2125Z" fill="#660801"/>
<path d="M64.9451 81.3513H63.063V83.2151H64.9451V81.3513Z" fill="black"/>
<path d="M64.9451 70.1006H63.063V71.9827H64.9451V70.1006Z" fill="black"/>
<path d="M64.9451 68.2368H63.063V70.1006H64.9451V68.2368Z" fill="black"/>
<path d="M64.9451 66.3547H63.063V68.2368H64.9451V66.3547Z" fill="black"/>
<path d="M64.9451 62.6115H63.063V64.4752H64.9451V62.6115Z" fill="black"/>
<path d="M64.9451 60.7321H63.063V62.6142H64.9451V60.7321Z" fill="#3D3D3B"/>
<path d="M64.9451 58.8683H63.063V60.7321H64.9451V58.8683Z" fill="black"/>
<path d="M64.9451 56.9861H63.063V58.8683H64.9451V56.9861Z" fill="#373801"/>
<path d="M64.9451 55.125H63.063V56.9888H64.9451V55.125Z" fill="#373801"/>
<path d="M64.9451 53.2429H63.063V55.125H64.9451V53.2429Z" fill="#373801"/>
<path d="M64.9451 51.3792H63.063V53.2429H64.9451V51.3792Z" fill="#5C6302"/>
<path d="M64.9451 49.4969H63.063V51.3792H64.9451V49.4969Z" fill="#5C6302"/>
<path d="M64.9451 47.6149H63.063V49.4969H64.9451V47.6149Z" fill="#5C6302"/>
<path d="M64.9451 45.7563H63.063V47.6201H64.9451V45.7563Z" fill="#5C6302"/>
<path d="M64.9451 43.8743H63.063V45.7563H64.9451V43.8743Z" fill="black"/>
<path d="M64.9451 42.0105H63.063V43.8743H64.9451V42.0105Z" fill="#2B2B2A"/>
<path d="M64.9451 40.1284H63.063V42.0105H64.9451V40.1284Z" fill="#2B2B2A"/>
<path d="M64.9451 38.2672H63.063V40.131H64.9451V38.2672Z" fill="black"/>
<path d="M64.9451 36.3851H63.063V38.2672H64.9451V36.3851Z" fill="black"/>
<path d="M64.9451 32.6393H63.063V34.503H64.9451V32.6393Z" fill="#8A8D8E"/>
<path d="M63.063 85.0946H61.1992V86.9584H63.063V85.0946Z" fill="black"/>
<path d="M63.063 83.2125H61.1992V85.0946H63.063V83.2125Z" fill="#660801"/>
<path d="M63.063 81.3513H61.1992V83.2151H63.063V81.3513Z" fill="#3F1401"/>
<path d="M63.063 79.4692H61.1992V81.3513H63.063L63.063 79.4692Z" fill="black"/>
<path d="M63.063 77.5872H61.1992V79.4692H63.063V77.5872Z" fill="black"/>
<path d="M63.063 75.726H61.1992V77.5897H63.063V75.726Z" fill="black"/>
<path d="M63.063 73.8439H61.1992V75.726H63.063V73.8439Z" fill="black"/>
<path d="M63.063 71.9827L61.1992 71.9828V73.8465H63.063L63.063 71.9827Z" fill="black"/>
<path d="M63.063 70.1006H61.1992V71.9828L63.063 71.9827V70.1006Z" fill="#2B2B2A"/>
<path d="M63.063 68.2368H61.1992V70.1006H63.063V68.2368Z" fill="#2B2B2A"/>
<path d="M63.063 66.3547H61.1992V68.2368H63.063V66.3547Z" fill="#2B2B2A"/>
<path d="M63.063 64.4727H61.1992V66.3547H63.063L63.063 64.4727Z" fill="black"/>
<path d="M63.063 62.6115H61.1992V64.4752H63.063V62.6115Z" fill="black"/>
<path d="M63.063 60.7321H61.1992V62.6142H63.063V60.7321Z" fill="#3D3D3B"/>
<path d="M63.063 58.8683H61.1992V60.7321H63.063V58.8683Z" fill="#2B2B2A"/>
<path d="M63.063 56.9861H61.1992V58.8683H63.063V56.9861Z" fill="black"/>
<path d="M63.063 55.125H61.1992V56.9888H63.063V55.125Z" fill="#373801"/>
<path d="M63.063 53.2429H61.1992V55.125H63.063V53.2429Z" fill="#5C6302"/>
<path d="M63.063 51.3792H61.1992V53.2429H63.063V51.3792Z" fill="#5C6302"/>
<path d="M63.063 49.4969H61.1992V51.3792H63.063V49.4969Z" fill="#5C6302"/>
<path d="M63.063 47.6149H61.1992V49.4969H63.063V47.6149Z" fill="#5C6302"/>
<path d="M63.063 45.7563H61.1992V47.6201H63.063V45.7563Z" fill="black"/>
<path d="M63.063 43.8743H61.1992V45.7563H63.063V43.8743Z" fill="#3D3D3B"/>
<path d="M63.063 42.0105H61.1992V43.8743H63.063V42.0105Z" fill="#2B2B2A"/>
<path d="M63.063 40.1284H61.1992V42.0105H63.063V40.1284Z" fill="#2B2B2A"/>
<path d="M63.063 38.2672H61.1992V40.131H63.063V38.2672Z" fill="#3D3D3B"/>
<path d="M63.063 36.3851H61.1992V38.2672H63.063V36.3851Z" fill="black"/>
<path d="M63.063 34.503L61.1992 34.5031V36.3851H63.063V34.503Z" fill="#8A8D8E"/>
<path d="M63.063 32.6393H61.1992V34.5031L63.063 34.503V32.6393Z" fill="black"/>
<path d="M63.063 30.7623H61.1992V32.6445H63.063V30.7623Z" fill="black"/>
<path d="M63.063 25.1527H61.1992V27.0165H63.063V25.1527Z" fill="black"/>
<path d="M63.063 23.2706H61.1992V25.1527H63.063V23.2706Z" fill="black"/>
<path d="M63.063 21.4095H61.1992V23.2733H63.063V21.4095Z" fill="black"/>
<path d="M61.202 85.0946H59.3198V86.9584H61.202V85.0946Z" fill="black"/>
<path d="M61.202 83.2125H59.3198V85.0946H61.202V83.2125Z" fill="#5B1E00"/>
<path d="M61.202 81.3513H59.3198V83.2151H61.202V81.3513Z" fill="#3F1401"/>
<path d="M61.202 79.4692H59.3198V81.3513H61.202V79.4692Z" fill="#3F1401"/>
<path d="M61.202 77.5872H59.3198V79.4692H61.202V77.5872Z" fill="#3F1401"/>
<path d="M61.202 75.726H59.3198V77.5897H61.202V75.726Z" fill="#3F1401"/>
<path d="M61.202 73.8439H59.3198V75.726H61.202V73.8439Z" fill="#3F1401"/>
<path d="M61.202 71.9828H59.3198V73.8465H61.202V71.9828Z" fill="black"/>
<path d="M61.202 70.1006H59.3198V71.9828H61.202V70.1006Z" fill="#B5A518"/>
<path d="M61.202 68.2368H59.3198V70.1006H61.202V68.2368Z" fill="#2B2B2A"/>
<path d="M61.202 66.3547H59.3198V68.2368H61.202V66.3547Z" fill="#2B2B2A"/>
<path d="M61.202 64.4727H59.3198V66.3547H61.202V64.4727Z" fill="#2B2B2A"/>
<path d="M61.202 62.6115H59.3198V64.4752H61.202V62.6115Z" fill="black"/>
<path d="M61.202 60.7321H59.3198V62.6142H61.202V60.7321Z" fill="black"/>
<path d="M61.202 58.8683H59.3198V60.7321H61.202V58.8683Z" fill="black"/>
<path d="M61.202 56.9861H59.3198V58.8683H61.202V56.9861Z" fill="black"/>
<path d="M61.202 55.125H59.3198V56.9888H61.202V55.125Z" fill="black"/>
<path d="M61.202 53.2429H59.3198V55.125H61.202V53.2429Z" fill="black"/>
<path d="M61.202 51.3792H59.3198V53.2429H61.202V51.3792Z" fill="black"/>
<path d="M61.202 49.4969H59.3198V51.3792H61.202V49.4969Z" fill="black"/>
<path d="M61.202 47.6149H59.3198V49.4969H61.202V47.6149Z" fill="black"/>
<path d="M61.202 45.7563H59.3198V47.6201H61.202V45.7563Z" fill="#373801"/>
<path d="M61.202 43.8743H59.3198V45.7563H61.202V43.8743Z" fill="black"/>
<path d="M61.202 42.0105H59.3198V43.8743H61.202V42.0105Z" fill="black"/>
<path d="M61.202 40.1284H59.3198V42.0105H61.202V40.1284Z" fill="#2B2B2A"/>
<path d="M61.202 38.2672H59.3198V40.131H61.202V38.2672Z" fill="#2B2B2A"/>
<path d="M61.202 36.3851H59.3198V38.2672H61.202V36.3851Z" fill="#3D3D3B"/>
<path d="M61.202 34.5031H59.3198V36.3851H61.202V34.5031Z" fill="black"/>
<path d="M61.202 32.6393H59.3198V34.5031H61.202V32.6393Z" fill="black"/>
<path d="M61.202 30.7623H59.3198V32.6445H61.202V30.7623Z" fill="#2B2B2A"/>
<path d="M61.202 28.8987H59.3198V30.7623H61.202V28.8987Z" fill="black"/>
<path d="M61.202 27.0165H59.3198V28.8987H61.202V27.0165Z" fill="black"/>
<path d="M61.202 25.1527H59.3198V27.0165H61.202V25.1527Z" fill="#2B2B2A"/>
<path d="M61.202 23.2706H59.3198V25.1527H61.202V23.2706Z" fill="#2B2B2A"/>
<path d="M61.202 21.4095H59.3198V23.2733H61.202V21.4095Z" fill="black"/>
<path d="M59.3198 85.0946H57.4377V86.9584H59.3198V85.0946Z" fill="black"/>
<path d="M59.3198 83.2125H57.4377V85.0946H59.3198V83.2125Z" fill="#5B1E00"/>
<path d="M59.3198 81.3513H57.4377V83.2151H59.3198V81.3513Z" fill="#660801"/>
<path d="M59.3198 79.4692H57.4377V81.3513H59.3198V79.4692Z" fill="#660801"/>
<path d="M59.3198 77.5872H57.4377V79.4692H59.3198V77.5872Z" fill="#660801"/>
<path d="M59.3198 75.726H57.4377V77.5897H59.3198V75.726Z" fill="#3F1401"/>
<path d="M59.3198 73.8439H57.4377V75.726H59.3198V73.8439Z" fill="#5B1E00"/>
<path d="M59.3198 71.9828H57.4377V73.8465H59.3198V71.9828Z" fill="black"/>
<path d="M59.3198 70.1006H57.4377V71.9828H59.3198V70.1006Z" fill="#B5A518"/>
<path d="M59.3198 68.2368H57.4377V70.1006H59.3198V68.2368Z" fill="#B5A518"/>
<path d="M59.3198 66.3547H57.4377V68.2368H59.3198V66.3547Z" fill="#2B2B2A"/>
<path d="M59.3198 64.4727H57.4377V66.3547H59.3198V64.4727Z" fill="#3D3D3B"/>
<path d="M59.3198 62.6115H57.4377V64.4752H59.3198V62.6115Z" fill="#2B2B2A"/>
<path d="M59.3198 60.7321H57.4377V62.6142H59.3198V60.7321Z" fill="black"/>
<path d="M59.3198 58.8683H57.4377V60.7321H59.3198V58.8683Z" fill="#373801"/>
<path d="M59.3198 56.9861H57.4377V58.8683H59.3198V56.9861Z" fill="#373801"/>
<path d="M59.3198 55.125H57.4377V56.9888H59.3198V55.125Z" fill="#5C6302"/>
<path d="M59.3198 53.2429H57.4377V55.125H59.3198V53.2429Z" fill="#5C6302"/>
<path d="M59.3198 51.3792H57.4377V53.2429H59.3198V51.3792Z" fill="#5C6302"/>
<path d="M59.3198 49.4969H57.4377V51.3792H59.3198V49.4969Z" fill="#373801"/>
<path d="M59.3198 47.6149H57.4377V49.4969H59.3198V47.6149Z" fill="#373801"/>
<path d="M59.3198 45.7563H57.4377V47.6201H59.3198V45.7563Z" fill="#373801"/>
<path d="M59.3198 43.8743H57.4377V45.7563H59.3198V43.8743Z" fill="#2B2B2A"/>
<path d="M59.3198 42.0105H57.4377V43.8743H59.3198V42.0105Z" fill="#3D3D3B"/>
<path d="M59.3198 40.1284H57.4377V42.0105H59.3198V40.1284Z" fill="black"/>
<path d="M59.3198 38.2672H57.4377V40.131H59.3198V38.2672Z" fill="#2B2B2A"/>
<path d="M59.3198 36.3851H57.4377V38.2672H59.3198V36.3851Z" fill="black"/>
<path d="M59.3198 34.5031H57.4377V36.3851H59.3198V34.5031Z" fill="#2B2B2A"/>
<path d="M59.3198 32.6393H57.4377V34.5031H59.3198V32.6393Z" fill="#2B2B2A"/>
<path d="M59.3198 30.7623H57.4377V32.6445H59.3198V30.7623Z" fill="#2B2B2A"/>
<path d="M59.3198 28.8987H57.4377V30.7623H59.3198V28.8987Z" fill="#2B2B2A"/>
<path d="M59.3198 27.0165H57.4377V28.8987H59.3198V27.0165Z" fill="#2B2B2A"/>
<path d="M59.3198 25.1527H57.4377V27.0165H59.3198V25.1527Z" fill="#2B2B2A"/>
<path d="M59.3198 23.2706H57.4377V25.1527H59.3198V23.2706Z" fill="#2B2B2A"/>
<path d="M59.3198 21.4095H57.4377V23.2733H59.3198V21.4095Z" fill="black"/>
<path d="M57.4402 85.0946H55.5764V86.9584H57.4402V85.0946Z" fill="black"/>
<path d="M57.4402 83.2125H55.5764V85.0946H57.4402V83.2125Z" fill="#5B1E00"/>
<path d="M57.4402 81.3513H55.5764V83.2151H57.4402V81.3513Z" fill="#5B1E00"/>
<path d="M57.4402 79.4692H55.5764V81.3513H57.4402V79.4692Z" fill="#660801"/>
<path d="M57.4402 77.5872H55.5764V79.4692H57.4402V77.5872Z" fill="#5B1E00"/>
<path d="M57.4402 75.726H55.5764V77.5897H57.4402V75.726Z" fill="#5B1E00"/>
<path d="M57.4402 73.8439H55.5764V75.726H57.4402V73.8439Z" fill="#5B1E00"/>
<path d="M57.4402 71.9828H55.5764V73.8465H57.4402V71.9828Z" fill="black"/>
<path d="M57.4402 70.1006H55.5764V71.9828H57.4402V70.1006Z" fill="#B5A518"/>
<path d="M57.4402 68.2368H55.5764V70.1006H57.4402V68.2368Z" fill="#B5A518"/>
<path d="M57.4402 66.3547H55.5764V68.2368H57.4402V66.3547Z" fill="#B5A518"/>
<path d="M57.4402 64.4727H55.5764V66.3547H57.4402V64.4727Z" fill="#3D3D3B"/>
<path d="M57.4402 62.6115H55.5764V64.4752H57.4402V62.6115Z" fill="#3D3D3B"/>
<path d="M57.4402 60.7321H55.5764V62.6142H57.4402V60.7321Z" fill="#373801"/>
<path d="M57.4402 58.8683H55.5764V60.7321H57.4402V58.8683Z" fill="#373801"/>
<path d="M57.4402 56.9861H55.5764V58.8683H57.4402V56.9861Z" fill="#373801"/>
<path d="M57.4402 55.125H55.5764V56.9888H57.4402V55.125Z" fill="#5C6302"/>
<path d="M57.4402 53.2429H55.5764V55.125H57.4402V53.2429Z" fill="#5C6302"/>
<path d="M57.4402 51.3792H55.5764V53.2429H57.4402V51.3792Z" fill="#5C6302"/>
<path d="M57.4402 49.4969H55.5764V51.3792H57.4402V49.4969Z" fill="#5C6302"/>
<path d="M57.4402 47.6149H55.5764V49.4969H57.4402V47.6149Z" fill="#373801"/>
<path d="M57.4402 45.7563H55.5764V47.6201H57.4402V45.7563Z" fill="#373801"/>
<path d="M57.4402 43.8743H55.5764V45.7563H57.4402V43.8743Z" fill="#2B2B2A"/>
<path d="M57.4402 42.0105H55.5764V43.8743H57.4402V42.0105Z" fill="#2B2B2A"/>
<path d="M57.4402 40.1284H55.5764V42.0105H57.4402V40.1284Z" fill="#2B2B2A"/>
<path d="M57.4402 38.2672H55.5764V40.131H57.4402V38.2672Z" fill="#2B2B2A"/>
<path d="M57.4402 36.3851H55.5764V38.2672H57.4402V36.3851Z" fill="black"/>
<path d="M57.4402 34.5031H55.5764V36.3851H57.4402V34.5031Z" fill="#2B2B2A"/>
<path d="M57.4402 32.6393H55.5764V34.5031H57.4402V32.6393Z" fill="#2B2B2A"/>
<path d="M57.4402 30.7623H55.5764V32.6445H57.4402V30.7623Z" fill="#2B2B2A"/>
<path d="M57.4402 28.8987H55.5764V30.7623H57.4402V28.8987Z" fill="#2B2B2A"/>
<path d="M57.4402 27.0165H55.5764V28.8987H57.4402V27.0165Z" fill="#2B2B2A"/>
<path d="M57.4402 25.1527H55.5764V27.0165H57.4402V25.1527Z" fill="#2B2B2A"/>
<path d="M57.4402 23.2706H55.5764V25.1527H57.4402V23.2706Z" fill="#2B2B2A"/>
<path d="M57.4402 21.4095H55.5764V23.2733H57.4402V21.4095Z" fill="black"/>
<path d="M55.5764 83.2125H53.6943V85.0947L55.5764 85.0946V83.2125Z" fill="black"/>
<path d="M55.5764 81.3513H53.6943V83.2151H55.5764V81.3513Z" fill="black"/>
<path d="M55.5764 79.4692H53.6943V81.3513H55.5764V79.4692Z" fill="black"/>
<path d="M55.5764 77.5872H53.6943V79.4692H55.5764V77.5872Z" fill="black"/>
<path d="M55.5764 75.726H53.6943V77.5897H55.5764V75.726Z" fill="black"/>
<path d="M55.5764 73.8439H53.6943V75.726H55.5764V73.8439Z" fill="black"/>
<path d="M55.5764 71.9828H53.6943V73.8465H55.5764V71.9828Z" fill="black"/>
<path d="M55.5764 70.1006H53.6943V71.9828H55.5764V70.1006Z" fill="black"/>
<path d="M55.5764 68.2368H53.6943V70.1006H55.5764V68.2368Z" fill="black"/>
<path d="M55.5764 66.3547H53.6943V68.2368H55.5764V66.3547Z" fill="#B5A518"/>
<path d="M55.5764 64.4727H53.6943V66.3547H55.5764V64.4727Z" fill="#B5A518"/>
<path d="M55.5764 62.6115H53.6943V64.4752H55.5764V62.6115Z" fill="#B5A518"/>
<path d="M55.5764 60.7321H53.6943V62.6142H55.5764V60.7321Z" fill="#373801"/>
<path d="M55.5764 58.8683H53.6943V60.7321H55.5764V58.8683Z" fill="#B5A518"/>
<path d="M55.5764 56.9861H53.6943V58.8683H55.5764V56.9861Z" fill="#5C6302"/>
<path d="M55.5764 55.125H53.6943V56.9888H55.5764V55.125Z" fill="#5C6302"/>
<path d="M55.5764 53.2429H53.6943V55.125H55.5764V53.2429Z" fill="#5C6302"/>
<path d="M55.5764 51.3792H53.6943V53.2429H55.5764V51.3792Z" fill="#5C6302"/>
<path d="M55.5764 49.4969H53.6943V51.3792H55.5764V49.4969Z" fill="#5C6302"/>
<path d="M55.5764 47.6149H53.6943V49.4969H55.5764V47.6149Z" fill="#B5A518"/>
<path d="M55.5764 45.7563H53.6943V47.6201H55.5764V45.7563Z" fill="#B5A518"/>
<path d="M55.5764 43.8743H53.6943V45.7563H55.5764V43.8743Z" fill="#3D3D3B"/>
<path d="M55.5764 42.0105H53.6943V43.8743H55.5764V42.0105Z" fill="#2B2B2A"/>
<path d="M55.5764 40.1284H53.6943V42.0105H55.5764V40.1284Z" fill="#3D3D3B"/>
<path d="M55.5764 38.2672H53.6943V40.131H55.5764V38.2672Z" fill="black"/>
<path d="M55.5764 36.3851H53.6943V38.2672H55.5764V36.3851Z" fill="#F7AB94"/>
<path d="M55.5764 34.5031H53.6943V36.3851H55.5764V34.5031Z" fill="#F7AB94"/>
<path d="M55.5764 32.6393H53.6943V34.5031H55.5764V32.6393Z" fill="#F7AB94"/>
<path d="M55.5764 30.7623H53.6943V32.6445H55.5764V30.7623Z" fill="#F7AB94"/>
<path d="M55.5764 28.8987H53.6943V30.7623H55.5764V28.8987Z" fill="#2B2B2A"/>
<path d="M55.5764 27.0165H53.6943V28.8987H55.5764V27.0165Z" fill="#2B2B2A"/>
<path d="M55.5764 25.1527H53.6943V27.0165H55.5764V25.1527Z" fill="#2B2B2A"/>
<path d="M55.5764 23.2706H53.6943V25.1527H55.5764V23.2706Z" fill="#3D3D3B"/>
<path d="M55.5764 21.4095H53.6943V23.2733H55.5764V21.4095Z" fill="black"/>
<path d="M53.6943 70.1006H51.8306V71.9827L53.6943 71.9828V70.1006Z" fill="black"/>
<path d="M53.6943 68.2368H51.8306V70.1006H53.6943V68.2368Z" fill="black"/>
<path d="M53.6943 66.3547H51.8306V68.2368H53.6943V66.3547Z" fill="black"/>
<path d="M53.6943 64.4727H51.8306V66.3547H53.6943V64.4727Z" fill="black"/>
<path d="M53.6943 62.6115H51.8306V64.4752H53.6943V62.6115Z" fill="black"/>
<path d="M53.6943 60.7321H51.8306V62.6142H53.6943V60.7321Z" fill="#373801"/>
<path d="M53.6943 58.8683H51.8306V60.7321H53.6943V58.8683Z" fill="#B5A518"/>
<path d="M53.6943 56.9861H51.8306V58.8683H53.6943V56.9861Z" fill="#B5A518"/>
<path d="M53.6943 55.125H51.8306V56.9888H53.6943V55.125Z" fill="#5C6302"/>
<path d="M53.6943 53.2429H51.8306V55.125H53.6943V53.2429Z" fill="#5C6302"/>
<path d="M53.6943 51.3792H51.8306V53.2429H53.6943V51.3792Z" fill="#B5A518"/>
<path d="M53.6943 49.4969H51.8306V51.3792H53.6943V49.4969Z" fill="#B5A518"/>
<path d="M53.6943 47.6149H51.8306V49.4969H53.6943V47.6149Z" fill="#5C6302"/>
<path d="M53.6943 45.7563H51.8306V47.6201H53.6943V45.7563Z" fill="#2B2B2A"/>
<path d="M53.6943 43.8743H51.8306V45.7563H53.6943V43.8743Z" fill="#3D3D3B"/>
<path d="M53.6943 42.0105H51.8306V43.8743H53.6943V42.0105Z" fill="#3D3D3B"/>
<path d="M53.6943 40.1284H51.8306V42.0105H53.6943V40.1284Z" fill="#3D3D3B"/>
<path d="M53.6943 38.2672H51.8306V40.131H53.6943V38.2672Z" fill="black"/>
<path d="M53.6943 36.3851H51.8306V38.2672H53.6943V36.3851Z" fill="#F7AB94"/>
<path d="M53.6943 34.5031H51.8306V36.3851H53.6943V34.5031Z" fill="#F7AB94"/>
<path d="M53.6943 32.6393H51.8306V34.5031H53.6943V32.6393Z" fill="#F7AB94"/>
<path d="M53.6943 30.7623H51.8306V32.6445H53.6943V30.7623Z" fill="#F7AB94"/>
<path d="M53.6943 28.8987H51.8306V30.7623H53.6943V28.8987Z" fill="#F7AB94"/>
<path d="M53.6943 27.0165H51.8306V28.8987H53.6943V27.0165Z" fill="#2B2B2A"/>
<path d="M53.6943 25.1527H51.8306V27.0165H53.6943V25.1527Z" fill="#3D3D3B"/>
<path d="M53.6943 23.2706H51.8306V25.1527H53.6943V23.2706Z" fill="#3D3D3B"/>
<path d="M53.6943 21.4095H51.8306V23.2733H53.6943V21.4095Z" fill="black"/>
<path d="M51.8306 75.726H49.9485V77.5897H51.8306V75.726Z" fill="black"/>
<path d="M51.8306 73.8439H49.9485V75.726H51.8306V73.8439Z" fill="black"/>
<path d="M51.8306 71.9827L49.9485 71.9828V73.8465H51.8306L51.8306 71.9827Z" fill="black"/>
<path d="M51.8306 70.1006H49.9485V71.9828L51.8306 71.9827V70.1006Z" fill="#B5A518"/>
<path d="M51.8306 68.2368H49.9485V70.1006H51.8306V68.2368Z" fill="#B5A518"/>
<path d="M51.8306 66.3547H49.9485V68.2368H51.8306V66.3547Z" fill="#2B2B2A"/>
<path d="M51.8306 64.4727H49.9485V66.3547H51.8306V64.4727Z" fill="#2B2B2A"/>
<path d="M51.8306 62.6115H49.9485V64.4752H51.8306V62.6115Z" fill="#2B2B2A"/>
<path d="M51.8306 60.7321H49.9485V62.6142H51.8306V60.7321Z" fill="black"/>
<path d="M51.8306 58.8683H49.9485V60.7321H51.8306V58.8683Z" fill="#373801"/>
<path d="M51.8306 56.9861H49.9485V58.8683H51.8306V56.9861Z" fill="#B5A518"/>
<path d="M51.8306 55.125H49.9485V56.9888H51.8306V55.125Z" fill="#B5A518"/>
<path d="M51.8306 53.2429H49.9485V55.125H51.8306V53.2429Z" fill="#5C6302"/>
<path d="M51.8306 51.3792H49.9485V53.2429H51.8306V51.3792Z" fill="#B5A518"/>
<path d="M51.8306 49.4969H49.9485V51.3792H51.8306V49.4969Z" fill="#B5A518"/>
<path d="M51.8306 47.6149H49.9485V49.4969H51.8306V47.6149Z" fill="#5C6302"/>
<path d="M51.8306 45.7563H49.9485V47.6201H51.8306V45.7563Z" fill="#2B2B2A"/>
<path d="M51.8306 43.8743H49.9485V45.7563H51.8306V43.8743Z" fill="#3D3D3B"/>
<path d="M51.8306 42.0105H49.9485V43.8743H51.8306V42.0105Z" fill="#3D3D3B"/>
<path d="M51.8306 40.1284H49.9485V42.0105H51.8306V40.1284Z" fill="#3D3D3B"/>
<path d="M51.8306 38.2672H49.9485V40.131H51.8306V38.2672Z" fill="black"/>
<path d="M51.8306 36.3851H49.9485V38.2672H51.8306V36.3851Z" fill="#F7AB94"/>
<path d="M51.8306 34.5031H49.9485V36.3851H51.8306V34.5031Z" fill="#F7AB94"/>
<path d="M51.8306 32.6393H49.9485V34.5031H51.8306V32.6393Z" fill="#F7AB94"/>
<path d="M51.8306 30.7623H49.9485V32.6445H51.8306V30.7623Z" fill="#F7AB94"/>
<path d="M51.8306 28.8987H49.9485V30.7623H51.8306V28.8987Z" fill="#F7AB94"/>
<path d="M51.8306 27.0165H49.9485V28.8987H51.8306V27.0165Z" fill="#3D3D3B"/>
<path d="M51.8306 25.1527H49.9485V27.0165H51.8306V25.1527Z" fill="#3D3D3B"/>
<path d="M51.8306 23.2706H49.9485V25.1527H51.8306V23.2706Z" fill="#3D3D3B"/>
<path d="M51.8306 21.4095H49.9485V23.2733H51.8306V21.4095Z" fill="black"/>
<path d="M49.9511 81.3513H48.0874V83.2151H49.9511V81.3513Z" fill="black"/>
<path d="M49.9511 79.4692H48.0874V81.3513H49.9511V79.4692Z" fill="black"/>
<path d="M49.9511 77.5872H48.0874V79.4692H49.9511V77.5872Z" fill="black"/>
<path d="M49.9511 75.726H48.0874V77.5897H49.9511V75.726Z" fill="#3F1401"/>
<path d="M49.9511 73.8439H48.0874V75.726H49.9511V73.8439Z" fill="#3F1401"/>
<path d="M49.9511 71.9828H48.0874V73.8465H49.9511V71.9828Z" fill="black"/>
<path d="M49.9511 70.1006H48.0874V71.9828H49.9511V70.1006Z" fill="#B5A518"/>
<path d="M49.9511 68.2368H48.0874V70.1006H49.9511V68.2368Z" fill="#2B2B2A"/>
<path d="M49.9511 66.3547H48.0874V68.2368H49.9511V66.3547Z" fill="#2B2B2A"/>
<path d="M49.9511 64.4727H48.0874V66.3547H49.9511V64.4727Z" fill="#3D3D3B"/>
<path d="M49.9511 62.6115H48.0874V64.4752H49.9511V62.6115Z" fill="#2B2B2A"/>
<path d="M49.9511 60.7321H48.0874V62.6142H49.9511V60.7321Z" fill="black"/>
<path d="M49.9511 58.8683H48.0874V60.7321H49.9511V58.8683Z" fill="#373801"/>
<path d="M49.9511 56.9861H48.0874V58.8683H49.9511V56.9861Z" fill="#373801"/>
<path d="M49.9511 55.125H48.0874V56.9888H49.9511V55.125Z" fill="#5C6302"/>
<path d="M49.9511 53.2429H48.0874V55.125H49.9511V53.2429Z" fill="#5C6302"/>
<path d="M49.9511 51.3792H48.0874V53.2429H49.9511V51.3792Z" fill="#B5A518"/>
<path d="M49.9511 49.4969H48.0874V51.3792H49.9511V49.4969Z" fill="#B5A518"/>
<path d="M49.9511 47.6149H48.0874V49.4969H49.9511V47.6149Z" fill="#373801"/>
<path d="M49.9511 45.7563H48.0874V47.6201H49.9511V45.7563Z" fill="#2B2B2A"/>
<path d="M49.9511 43.8743H48.0874V45.7563H49.9511V43.8743Z" fill="#3D3D3B"/>
<path d="M49.9511 42.0105H48.0874V43.8743H49.9511V42.0105Z" fill="#3D3D3B"/>
<path d="M49.9511 40.1284H48.0874V42.0105H49.9511V40.1284Z" fill="#3D3D3B"/>
<path d="M49.9511 38.2672H48.0874V40.131H49.9511V38.2672Z" fill="black"/>
<path d="M49.9511 36.3851H48.0874V38.2672H49.9511V36.3851Z" fill="#F7AB94"/>
<path d="M49.9511 34.5031H48.0874V36.3851H49.9511V34.5031Z" fill="#F7AB94"/>
<path d="M49.9511 32.6393H48.0874V34.5031H49.9511V32.6393Z" fill="#F7AB94"/>
<path d="M49.9511 30.7623H48.0874V32.6445H49.9511V30.7623Z" fill="#F7AB94"/>
<path d="M49.9511 28.8987H48.0874V30.7623H49.9511V28.8987Z" fill="#3D3D3B"/>
<path d="M49.9511 27.0165H48.0874V28.8987H49.9511V27.0165Z" fill="#3D3D3B"/>
<path d="M49.9511 25.1527H48.0874V27.0165H49.9511V25.1527Z" fill="#3D3D3B"/>
<path d="M49.9511 23.2706H48.0874V25.1527H49.9511V23.2706Z" fill="#3D3D3B"/>
<path d="M49.9511 21.4095H48.0874V23.2733H49.9511V21.4095Z" fill="black"/>
<path d="M48.0874 86.9584H46.2053V88.8405H48.0874V86.9584Z" fill="black"/>
<path d="M48.0874 85.0946H46.2053V86.9584H48.0874V85.0946Z" fill="black"/>
<path d="M48.0874 83.2125H46.2053V85.0946H48.0874V83.2125Z" fill="black"/>
<path d="M48.0874 81.3513H46.2053V83.2151H48.0874V81.3513Z" fill="#3F1401"/>
<path d="M48.0874 79.4692H46.2053V81.3513H48.0874V79.4692Z" fill="#3F1401"/>
<path d="M48.0874 77.5872H46.2053V79.4692H48.0874V77.5872Z" fill="#3F1401"/>
<path d="M48.0874 75.726H46.2053V77.5897H48.0874V75.726Z" fill="#3F1401"/>
<path d="M48.0874 73.8439H46.2053V75.726H48.0874V73.8439Z" fill="#3F1401"/>
<path d="M48.0874 71.9828H46.2053V73.8465H48.0874V71.9828Z" fill="#3F1401"/>
<path d="M48.0874 70.1006H46.2053V71.9828H48.0874V70.1006Z" fill="black"/>
<path d="M48.0874 68.2368H46.2053V70.1006H48.0874V68.2368Z" fill="#2B2B2A"/>
<path d="M48.0874 66.3547H46.2053V68.2368H48.0874V66.3547Z" fill="#3D3D3B"/>
<path d="M48.0874 64.4727H46.2053V66.3547H48.0874V64.4727Z" fill="#3D3D3B"/>
<path d="M48.0874 62.6115H46.2053V64.4752H48.0874V62.6115Z" fill="#3D3D3B"/>
<path d="M48.0874 60.7321H46.2053V62.6142H48.0874V60.7321Z" fill="#3D3D3B"/>
<path d="M48.0874 58.8683H46.2053V60.7321H48.0874V58.8683Z" fill="black"/>
<path d="M48.0874 56.9861H46.2053V58.8683H48.0874V56.9861Z" fill="#373801"/>
<path d="M48.0874 55.125H46.2053V56.9888H48.0874V55.125Z" fill="#5C6302"/>
<path d="M48.0874 53.2429H46.2053V55.125H48.0874V53.2429Z" fill="#5C6302"/>
<path d="M48.0874 51.3792H46.2053V53.2429H48.0874V51.3792Z" fill="#5C6302"/>
<path d="M48.0874 49.4969H46.2053V51.3792H48.0874V49.4969Z" fill="#373801"/>
<path d="M48.0874 47.6149H46.2053V49.4969H48.0874V47.6149Z" fill="#B5A518"/>
<path d="M48.0874 45.7563H46.2053V47.6201H48.0874V45.7563Z" fill="#B5A518"/>
<path d="M48.0874 43.8743H46.2053V45.7563H48.0874V43.8743Z" fill="#3D3D3B"/>
<path d="M48.0874 42.0105H46.2053V43.8743H48.0874V42.0105Z" fill="#3D3D3B"/>
<path d="M48.0874 40.1284H46.2053V42.0105H48.0874V40.1284Z" fill="#3D3D3B"/>
<path d="M48.0874 38.2672H46.2053V40.131H48.0874V38.2672Z" fill="#2B2B2A"/>
<path d="M48.0874 36.3851H46.2053V38.2672H48.0874V36.3851Z" fill="black"/>
<path d="M48.0874 34.5031H46.2053V36.3851H48.0874V34.5031Z" fill="#F7AB94"/>
<path d="M48.0874 32.6393H46.2053V34.5031H48.0874V32.6393Z" fill="#F7AB94"/>
<path d="M48.0874 30.7623H46.2053V32.6445H48.0874V30.7623Z" fill="#F7AB94"/>
<path d="M48.0874 28.8987H46.2053V30.7623H48.0874V28.8987Z" fill="#3D3D3B"/>
<path d="M48.0874 27.0165H46.2053V28.8987H48.0874V27.0165Z" fill="#3D3D3B"/>
<path d="M48.0874 25.1527H46.2053V27.0165H48.0874V25.1527Z" fill="#3D3D3B"/>
<path d="M48.0874 23.2706H46.2053V25.1527H48.0874V23.2706Z" fill="black"/>
<path d="M46.208 86.9584H44.3442V88.8405H46.208V86.9584Z" fill="black"/>
<path d="M46.208 85.0946H44.3442V86.9584H46.208V85.0946Z" fill="#3F1401"/>
<path d="M46.208 83.2125H44.3442V85.0946H46.208V83.2125Z" fill="#3F1401"/>
<path d="M46.208 81.3513H44.3442V83.2151H46.208V81.3513Z" fill="#5B1E00"/>
<path d="M46.208 79.4692H44.3442V81.3513H46.208V79.4692Z" fill="#660801"/>
<path d="M46.208 77.5872H44.3442V79.4692H46.208V77.5872Z" fill="#660801"/>
<path d="M46.208 75.726H44.3442V77.5897H46.208V75.726Z" fill="#5B1E00"/>
<path d="M46.208 73.8439H44.3442V75.726H46.208V73.8439Z" fill="#3F1401"/>
<path d="M46.208 71.9828H44.3442V73.8465H46.208V71.9828Z" fill="#5B1E00"/>
<path d="M46.208 70.1006H44.3442V71.9828H46.208V70.1006Z" fill="black"/>
<path d="M46.208 68.2368H44.3442V70.1006H46.208V68.2368Z" fill="#3D3D3B"/>
<path d="M46.208 66.3547H44.3442V68.2368H46.208V66.3547Z" fill="#3D3D3B"/>
<path d="M46.208 64.4727H44.3442V66.3547H46.208V64.4727Z" fill="#3D3D3B"/>
<path d="M46.208 62.6115H44.3442V64.4752H46.208V62.6115Z" fill="#2B2B2A"/>
<path d="M46.208 60.7321H44.3442V62.6142H46.208V60.7321Z" fill="#2B2B2A"/>
<path d="M46.208 58.8683H44.3442V60.7321H46.208V58.8683Z" fill="black"/>
<path d="M46.208 56.9861H44.3442V58.8683H46.208V56.9861Z" fill="#373801"/>
<path d="M46.208 55.125H44.3442V56.9888H46.208V55.125Z" fill="#5C6302"/>
<path d="M46.208 53.2429H44.3442V55.125H46.208V53.2429Z" fill="#5C6302"/>
<path d="M46.208 51.3792H44.3442V53.2429H46.208V51.3792Z" fill="#373801"/>
<path d="M46.208 49.4969H44.3442V51.3792H46.208V49.4969Z" fill="#373801"/>
<path d="M46.208 47.6149H44.3442V49.4969H46.208V47.6149Z" fill="#373801"/>
<path d="M46.208 45.7563H44.3442V47.6201H46.208V45.7563Z" fill="#373801"/>
<path d="M46.208 43.8743H44.3442V45.7563H46.208V43.8743Z" fill="#373801"/>
<path d="M46.208 42.0105H44.3442V43.8743H46.208V42.0105Z" fill="#3D3D3B"/>
<path d="M46.208 40.1284H44.3442V42.0105H46.208V40.1284Z" fill="#2B2B2A"/>
<path d="M46.208 38.2672H44.3442V40.131H46.208V38.2672Z" fill="#2B2B2A"/>
<path d="M46.208 36.3851H44.3442V38.2672H46.208V36.3851Z" fill="black"/>
<path d="M46.208 34.5031H44.3442V36.3851H46.208V34.5031Z" fill="#F7AB94"/>
<path d="M46.208 32.6393H44.3442V34.5031H46.208V32.6393Z" fill="#F7AB94"/>
<path d="M46.208 30.7623H44.3442V32.6445H46.208V30.7623Z" fill="#2B2B2A"/>
<path d="M46.208 28.8987H44.3442V30.7623H46.208V28.8987Z" fill="#3D3D3B"/>
<path d="M46.208 27.0165H44.3442V28.8987H46.208V27.0165Z" fill="#3D3D3B"/>
<path d="M46.208 25.1527H44.3442V27.0165H46.208V25.1527Z" fill="#3D3D3B"/>
<path d="M46.208 23.2706H44.3442V25.1527H46.208V23.2706Z" fill="black"/>
<path d="M44.3442 86.9584H42.4619V88.8405H44.3442V86.9584Z" fill="black"/>
<path d="M44.3442 85.0946H42.4619V86.9584H44.3442V85.0946Z" fill="#660801"/>
<path d="M44.3442 83.2125H42.4619V85.0946H44.3442V83.2125Z" fill="#3F1401"/>
<path d="M44.3442 81.3513H42.4619V83.2151H44.3442V81.3513Z" fill="#5B1E00"/>
<path d="M44.3442 79.4692H42.4619V81.3513H44.3442V79.4692Z" fill="#660801"/>
<path d="M44.3442 77.5872H42.4619V79.4692H44.3442V77.5872Z" fill="#5B1E00"/>
<path d="M44.3442 75.726H42.4619V77.5897H44.3442V75.726Z" fill="#5B1E00"/>
<path d="M44.3442 73.8439H42.4619V75.726H44.3442V73.8439Z" fill="#3F1401"/>
<path d="M44.3442 71.9828H42.4619V73.8465H44.3442V71.9828Z" fill="#5B1E00"/>
<path d="M44.3442 70.1006H42.4619V71.9828H44.3442V70.1006Z" fill="black"/>
<path d="M44.3442 68.2368H42.4619V70.1006H44.3442V68.2368Z" fill="#B5A518"/>
<path d="M44.3442 66.3547H42.4619V68.2368H44.3442V66.3547Z" fill="#B5A518"/>
<path d="M44.3442 64.4727H42.4619V66.3547H44.3442V64.4727Z" fill="black"/>
<path d="M44.3442 62.6115H42.4619V64.4752H44.3442V62.6115Z" fill="black"/>
<path d="M44.3442 60.7321H42.4619V62.6142H44.3442V60.7321Z" fill="black"/>
<path d="M44.3442 58.8683H42.4619V60.7321H44.3442V58.8683Z" fill="#3F1401"/>
<path d="M44.3442 56.9861H42.4619V58.8683H44.3442V56.9861Z" fill="black"/>
<path d="M44.3442 55.125H42.4619V56.9888H44.3442V55.125Z" fill="black"/>
<path d="M44.3442 53.2429H42.4619V55.125H44.3442V53.2429Z" fill="black"/>
<path d="M44.3442 51.3792H42.4619V53.2429H44.3442V51.3792Z" fill="black"/>
<path d="M44.3442 49.4969H42.4619V51.3792H44.3442V49.4969Z" fill="black"/>
<path d="M44.3442 47.6149H42.4619V49.4969H44.3442V47.6149Z" fill="#373801"/>
<path d="M44.3442 45.7563H42.4619V47.6201H44.3442V45.7563Z" fill="black"/>
<path d="M44.3442 43.8743H42.4619V45.7563H44.3442V43.8743Z" fill="black"/>
<path d="M44.3442 42.0105H42.4619V43.8743H44.3442V42.0105Z" fill="black"/>
<path d="M44.3442 40.1284H42.4619V42.0105H44.3442V40.1284Z" fill="#2B2B2A"/>
<path d="M44.3442 38.2672H42.4619V40.131H44.3442V38.2672Z" fill="#2B2B2A"/>
<path d="M44.3442 36.3851H42.4619V38.2672H44.3442V36.3851Z" fill="#2B2B2A"/>
<path d="M44.3442 34.5031H42.4619V36.3851H44.3442V34.5031Z" fill="black"/>
<path d="M44.3442 32.6393H42.4619V34.5031H44.3442V32.6393Z" fill="black"/>
<path d="M44.3442 30.7623H42.4619V32.6445H44.3442V30.7623Z" fill="#2B2B2A"/>
<path d="M44.3442 28.8987H42.4619V30.7623H44.3442V28.8987Z" fill="#3D3D3B"/>
<path d="M44.3442 27.0165H42.4619V28.8987H44.3442V27.0165Z" fill="black"/>
<path d="M44.3442 25.1527H42.4619V27.0165H44.3442V25.1527Z" fill="black"/>
<path d="M42.4619 86.9584H40.5798V88.8405H42.4619V86.9584Z" fill="black"/>
<path d="M42.4619 85.0946H40.5798V86.9584H42.4619V85.0946Z" fill="#660801"/>
<path d="M42.4619 83.2125H40.5798V85.0946H42.4619V83.2125Z" fill="#660801"/>
<path d="M42.4619 81.3513H40.5798V83.2151H42.4619V81.3513Z" fill="#5B1E00"/>
<path d="M42.4619 79.4692H40.5798V81.3513H42.4619V79.4692Z" fill="black"/>
<path d="M42.4619 77.5872H40.5798V79.4692H42.4619V77.5872Z" fill="black"/>
<path d="M42.4619 75.726H40.5798V77.5897H42.4619V75.726Z" fill="black"/>
<path d="M42.4619 73.8439H40.5798V75.726H42.4619V73.8439Z" fill="black"/>
<path d="M42.4619 71.9828H40.5798V73.8465H42.4619V71.9828Z" fill="black"/>
<path d="M42.4619 68.2368H40.5798V70.1006L42.4619 70.1006V68.2368Z" fill="black"/>
<path d="M42.4619 66.3547H40.5798V68.2368H42.4619V66.3547Z" fill="black"/>
<path d="M42.4619 64.4727H40.5798V66.3547H42.4619V64.4727Z" fill="#3F1401"/>
<path d="M42.4619 62.6115H40.5798V64.4752H42.4619V62.6115Z" fill="#3F1401"/>
<path d="M42.4619 60.7321H40.5798V62.6142H42.4619V60.7321Z" fill="#3F1401"/>
<path d="M42.4619 58.8683H40.5798V60.7321H42.4619V58.8683Z" fill="black"/>
<path d="M42.4619 56.9861H40.5798V58.8683H42.4619V56.9861Z" fill="black"/>
<path d="M42.4619 55.125H40.5798V56.9888H42.4619V55.125Z" fill="#B5A518"/>
<path d="M42.4619 53.2429H40.5798V55.125H42.4619V53.2429Z" fill="#B5A518"/>
<path d="M42.4619 51.3792H40.5798V53.2429H42.4619V51.3792Z" fill="#B5A518"/>
<path d="M42.4619 49.4969H40.5798V51.3792H42.4619V49.4969Z" fill="black"/>
<path d="M42.4619 47.6149H40.5798V49.4969H42.4619V47.6149Z" fill="black"/>
<path d="M42.4619 45.7563H40.5798V47.6201H42.4619V45.7563Z" fill="black"/>
<path d="M42.4619 43.8743H40.5798V45.7563H42.4619V43.8743Z" fill="#2B2B2A"/>
<path d="M42.4619 42.0105H40.5798V43.8743H42.4619V42.0105Z" fill="#2B2B2A"/>
<path d="M42.4619 40.1284H40.5798V42.0105H42.4619V40.1284Z" fill="#3D3D3B"/>
<path d="M42.4619 38.2672H40.5798V40.131H42.4619V38.2672Z" fill="#2B2B2A"/>
<path d="M42.4619 36.3851H40.5798V38.2672H42.4619V36.3851Z" fill="black"/>
<path d="M42.4619 34.5031H40.5798V36.3851H42.4619V34.5031Z" fill="black"/>
<path d="M42.4619 30.7623H40.5798V32.6445H42.4619V30.7623Z" fill="black"/>
<path d="M42.4619 28.8987H40.5798V30.7623H42.4619V28.8987Z" fill="black"/>
<path d="M40.5825 86.9584H38.7188V88.8405H40.5825V86.9584Z" fill="black"/>
<path d="M40.5825 85.0946H38.7188V86.9584H40.5825V85.0946Z" fill="#660801"/>
<path d="M40.5825 83.2125H38.7188V85.0946H40.5825V83.2125Z" fill="#660801"/>
<path d="M40.5825 81.3513H38.7188V83.2151H40.5825V81.3513Z" fill="black"/>
<path d="M40.5825 68.2368H38.7188V70.1006H40.5825V68.2368Z" fill="black"/>
<path d="M40.5825 66.3547H38.7188V68.2368H40.5825V66.3547Z" fill="#3D3D3B"/>
<path d="M40.5825 64.4727H38.7188V66.3547H40.5825V64.4727Z" fill="#3D3D3B"/>
<path d="M40.5825 62.6115H38.7188V64.4752H40.5825V62.6115Z" fill="#3F1401"/>
<path d="M40.5825 60.7321H38.7188V62.6142H40.5825V60.7321Z" fill="black"/>
<path d="M40.5825 58.8683H38.7188V60.7321H40.5825V58.8683Z" fill="#DD8976"/>
<path d="M40.5825 56.9861H38.7188V58.8683H40.5825V56.9861Z" fill="#373801"/>
<path d="M40.5825 55.125H38.7188V56.9888H40.5825V55.125Z" fill="#5C6302"/>
<path d="M40.5825 53.2429H38.7188V55.125H40.5825V53.2429Z" fill="#5C6302"/>
<path d="M40.5825 51.3792H38.7188V53.2429H40.5825V51.3792Z" fill="#373801"/>
<path d="M40.5825 49.4969H38.7188V51.3792H40.5825V49.4969Z" fill="#373801"/>
<path d="M40.5825 47.6149H38.7188V49.4969H40.5825V47.6149Z" fill="#373801"/>
<path d="M40.5825 45.7563H38.7188V47.6201H40.5825V45.7563Z" fill="black"/>
<path d="M40.5825 43.8743H38.7188V45.7563H40.5825V43.8743Z" fill="#2B2B2A"/>
<path d="M40.5825 42.0105H38.7188V43.8743H40.5825V42.0105Z" fill="#3D3D3B"/>
<path d="M40.5825 40.1284H38.7188V42.0105H40.5825V40.1284Z" fill="#3D3D3B"/>
<path d="M40.5825 38.2672H38.7188V40.131H40.5825V38.2672Z" fill="#3D3D3B"/>
<path d="M40.5825 36.3851H38.7188V38.2672H40.5825V36.3851Z" fill="black"/>
<path d="M38.7188 86.9584H36.8367V88.8405H38.7188V86.9584Z" fill="black"/>
<path d="M38.7188 85.0946H36.8367V86.9584H38.7188V85.0946Z" fill="black"/>
<path d="M38.7188 83.2125H36.8367V85.0946H38.7188V83.2125Z" fill="black"/>
<path d="M38.7188 66.3547H36.8367V68.2369L38.7188 68.2368V66.3547Z" fill="black"/>
<path d="M38.7188 64.4727H36.8367V66.3547H38.7188V64.4727Z" fill="#3D3D3B"/>
<path d="M38.7188 62.6115H36.8367V64.4752H38.7188V62.6115Z" fill="black"/>
<path d="M38.7188 60.7321H36.8367V62.6142H38.7188V60.7321Z" fill="#DD8976"/>
<path d="M38.7188 58.8683H36.8367V60.7321H38.7188V58.8683Z" fill="#DD8976"/>
<path d="M38.7188 56.9861H36.8367V58.8683H38.7188V56.9861Z" fill="#5C6302"/>
<path d="M38.7188 55.125H36.8367V56.9888H38.7188V55.125Z" fill="#5C6302"/>
<path d="M38.7188 53.2429H36.8367V55.125H38.7188V53.2429Z" fill="#373801"/>
<path d="M38.7188 51.3792H36.8367V53.2429H38.7188V51.3792Z" fill="#373801"/>
<path d="M38.7188 49.4969H36.8367V51.3792H38.7188V49.4969Z" fill="#5C6302"/>
<path d="M38.7188 47.6149H36.8367V49.4969H38.7188V47.6149Z" fill="#5C6302"/>
<path d="M38.7188 45.7563H36.8367V47.6201H38.7188V45.7563Z" fill="black"/>
<path d="M38.7188 43.8743H36.8367V45.7563H38.7188V43.8743Z" fill="#3D3D3B"/>
<path d="M38.7188 42.0105H36.8367V43.8743H38.7188V42.0105Z" fill="#3D3D3B"/>
<path d="M38.7188 40.1284H36.8367V42.0105H38.7188V40.1284Z" fill="#3D3D3B"/>
<path d="M38.7188 38.2672H36.8367V40.131H38.7188V38.2672Z" fill="#2B2B2A"/>
<path d="M38.7188 36.3851H36.8367V38.2672H38.7188V36.3851Z" fill="black"/>
<path d="M36.8367 66.3547H34.9729V68.2369H36.8367V66.3547Z" fill="black"/>
<path d="M36.8367 64.4727H34.9729V66.3547H36.8367V64.4727Z" fill="#5C6302"/>
<path d="M36.8367 62.6115H34.9729V64.4752H36.8367V62.6115Z" fill="black"/>
<path d="M36.8367 60.7321H34.9729V62.6142H36.8367V60.7321Z" fill="#DD8976"/>
<path d="M36.8367 58.8683H34.9729V60.7321H36.8367V58.8683Z" fill="#F7AB94"/>
<path d="M36.8367 56.9861H34.9729V58.8683H36.8367V56.9861Z" fill="#F7AB94"/>
<path d="M36.8367 55.125H34.9729V56.9888H36.8367V55.125Z" fill="#373801"/>
<path d="M36.8367 53.2429H34.9729V55.125H36.8367V53.2429Z" fill="#373801"/>
<path d="M36.8367 51.3792H34.9729V53.2429H36.8367V51.3792Z" fill="#5C6302"/>
<path d="M36.8367 49.4969H34.9729V51.3792H36.8367V49.4969Z" fill="#5C6302"/>
<path d="M36.8367 47.6149H34.9729V49.4969H36.8367V47.6149Z" fill="#5C6302"/>
<path d="M36.8367 45.7563H34.9729V47.6201H36.8367V45.7563Z" fill="#5C6302"/>
<path d="M36.8367 43.8743H34.9729V45.7563H36.8367V43.8743Z" fill="black"/>
<path d="M36.8367 42.0105H34.9729V43.8743H36.8367V42.0105Z" fill="#2B2B2A"/>
<path d="M36.8367 40.1284H34.9729V42.0105H36.8367V40.1284Z" fill="#2B2B2A"/>
<path d="M36.8367 38.2672H34.9729V40.131H36.8367V38.2672Z" fill="black"/>
<path d="M34.9729 68.2369L33.0908 68.2368V70.1006H34.9729L34.9729 68.2369Z" fill="black"/>
<path d="M34.9729 66.3547H33.0908V68.2368L34.9729 68.2369V66.3547Z" fill="#5C6302"/>
<path d="M34.9729 64.4727H33.0908V66.3547H34.9729V64.4727Z" fill="#5C6302"/>
<path d="M34.9729 62.6115H33.0908V64.4752H34.9729V62.6115Z" fill="#8A8D8E"/>
<path d="M34.9729 60.7321H33.0908V62.6142H34.9729V60.7321Z" fill="black"/>
<path d="M34.9729 58.8683H33.0908V60.7321H34.9729V58.8683Z" fill="#F7AB94"/>
<path d="M34.9729 56.9861H33.0908V58.8683H34.9729V56.9861Z" fill="black"/>
<path d="M34.9729 55.125H33.0908V56.9888H34.9729V55.125Z" fill="black"/>
<path d="M34.9729 53.2429H33.0908V55.125H34.9729V53.2429Z" fill="black"/>
<path d="M34.9729 51.3792H33.0908V53.2429H34.9729V51.3792Z" fill="black"/>
<path d="M34.9729 49.4969H33.0908V51.3792H34.9729V49.4969Z" fill="black"/>
<path d="M34.9729 47.6149H33.0908V49.4969H34.9729V47.6149Z" fill="black"/>
<path d="M34.9729 45.7563H33.0908V47.6201H34.9729V45.7563Z" fill="black"/>
<path d="M34.9729 42.0105H33.0908V43.8742L34.9729 43.8743V42.0105Z" fill="black"/>
<path d="M34.9729 40.1284H33.0908V42.0105H34.9729V40.1284Z" fill="black"/>
<path d="M33.0935 66.3547H31.2297V68.2369H33.0935V66.3547Z" fill="black"/>
<path d="M33.0935 64.4727H31.2297V66.3547H33.0935V64.4727Z" fill="black"/>
<path d="M33.0935 62.6115H31.2297V64.4752H33.0935V62.6115Z" fill="#8A8D8E"/>
<path d="M33.0935 60.7321H31.2297V62.6142H33.0935V60.7321Z" fill="#8A8D8E"/>
<path d="M33.0935 58.8683H31.2297V60.7321H33.0935V58.8683Z" fill="black"/>
<path d="M33.0935 56.9861H31.2297V58.8683H33.0935V56.9861Z" fill="#8A8D8E"/>
<path d="M31.2322 62.6115H29.3501V64.4752H31.2322V62.6115Z" fill="black"/>
<path d="M31.2322 60.7321H29.3501V62.6142H31.2322V60.7321Z" fill="#8A8D8E"/>
<path d="M31.2322 58.8683H29.3501V60.7321H31.2322V58.8683Z" fill="black"/>
<path d="M31.2322 56.9861H29.3501V58.8683H31.2322V56.9861Z" fill="#8A8D8E"/>
<path d="M31.2322 55.125H29.3501V56.9888H31.2322V55.125Z" fill="#8A8D8E"/>
<path d="M29.3501 62.6115H27.468V64.4752H29.3501V62.6115Z" fill="black"/>
<path d="M29.3501 60.7321H27.468V62.6142H29.3501V60.7321Z" fill="#8A8D8E"/>
<path d="M29.3501 58.8683H27.468V60.7321H29.3501V58.8683Z" fill="#8A8D8E"/>
<path d="M29.3501 56.9861H27.468V58.8683H29.3501V56.9861Z" fill="black"/>
<path d="M29.3501 55.125H27.468V56.9888H29.3501V55.125Z" fill="#8A8D8E"/>
<path d="M27.468 60.7321H25.6042V62.6142H27.468V60.7321Z" fill="black"/>
<path d="M27.468 58.8683H25.6042V60.7321H27.468V58.8683Z" fill="#8A8D8E"/>
<path d="M58.9549 52.7074H57.9941V53.6681H58.9549V52.7074Z" fill="#373801"/>
<path d="M58.9549 51.765H57.9941V52.7048H58.9549V51.765Z" fill="#373801"/>
<path d="M58.9549 50.8252H57.9941V51.765H58.9549V50.8252Z" fill="#373801"/>
<path d="M57.9941 51.765H57.0544V52.7048H57.9941V51.765Z" fill="#373801"/>
<path d="M57.9941 50.8252H57.0544V51.765H57.9941V50.8252Z" fill="#373801"/>
<path d="M57.9942 49.8645H57.0544V50.8252H57.9941L57.9942 49.8645Z" fill="#373801"/>
<path d="M57.9942 48.9248H57.0544V49.8645H57.9942V48.9248Z" fill="#373801"/>
<path d="M57.0518 50.8252H56.1121V51.7649H57.0518V50.8252Z" fill="#373801"/>
<path d="M57.0518 49.8645H56.1121V50.8252H57.0518V49.8645Z" fill="#373801"/>
<path d="M57.0518 48.9248H56.1121V49.8645H57.0518V48.9248Z" fill="#373801"/>
<path d="M56.1146 49.8645H55.1538V50.8252H56.1146V49.8645Z" fill="#373801"/>
<path d="M56.1146 48.9248H55.1538V49.8645H56.1146V48.9248Z" fill="#373801"/>
<path d="M56.1146 47.9614H55.1538V48.9222H56.1146V47.9614Z" fill="#373801"/>
<path d="M56.1146 47.0243H55.1538V47.964H56.1146V47.0243Z" fill="#373801"/>
<path d="M56.1146 46.0819H55.1538V47.0217H56.1146V46.0819Z" fill="#373801"/>
<path d="M56.1146 45.1185H55.1538V46.0793H56.1146V45.1185Z" fill="#111110"/>
<path d="M55.1512 48.9248H54.2114V49.8646H55.1512V48.9248Z" fill="#373801"/>
<path d="M55.1512 47.9614H54.2114V48.9222H55.1512V47.9614Z" fill="#373801"/>
<path d="M55.1512 47.0243H54.2114V47.964H55.1512V47.0243Z" fill="#373801"/>
<path d="M55.1512 46.0819H54.2114V47.0217H55.1512V46.0819Z" fill="#373801"/>
<path d="M55.1512 45.1185H54.2114V46.0793H55.1512V45.1185Z" fill="#111110"/>
<path d="M54.2142 52.7074H53.2534V53.6681H54.2142V52.7074Z" fill="#5C6302"/>
<path d="M54.2142 45.1185H53.2534V46.0793H54.2142V45.1185Z" fill="#111110"/>
<path d="M53.2508 32.7941H52.311V33.7548H53.2508V32.7941Z" fill="#282728"/>
<path d="M53.2508 30.912H52.311V31.8517H53.2508V30.912Z" fill="#F7AB94"/>
<path d="M53.2508 29.9539H52.311V30.9146H53.2508V29.9539Z" fill="#F7AB94"/>
<path d="M52.3111 50.8252H51.3713V51.7649H52.3111V50.8252Z" fill="#128986"/>
<path d="M52.3111 35.6554H51.3713V36.5951H52.3111V35.6554Z" fill="#DD0590"/>
<path d="M52.311 32.7941H51.3713V33.7548H52.311V32.7941Z" fill="#282728"/>
<path d="M52.311 30.912H51.3713V31.8517H52.311V30.912Z" fill="#F7AB94"/>
<path d="M51.3713 51.7649L50.4104 51.765V52.7048H51.3712L51.3713 51.7649Z" fill="#128986"/>
<path d="M51.3713 50.8252H50.4104V51.765L51.3713 51.7649V50.8252Z" fill="#B5A518"/>
<path d="M51.3712 49.8645H50.4104V50.8252H51.3713L51.3712 49.8645Z" fill="#128986"/>
<path d="M51.3713 35.6554H50.4104V36.5951H51.3713V35.6554Z" fill="#DD0590"/>
<path d="M50.4104 50.8252H49.4707V51.7649L50.4104 51.765V50.8252Z" fill="#128986"/>
<path d="M50.4104 35.6554H49.4707V36.5951H50.4104V35.6554Z" fill="#DD0590"/>
<path d="M49.4681 35.6554H48.5283V36.5951H49.4681V35.6554Z" fill="#DD0590"/>
<path d="M48.5311 52.7074H47.5703V53.6681H48.5311V52.7074Z" fill="#5C6302"/>
<path d="M48.5311 45.1185H47.5703V46.0793H48.5311V45.1185Z" fill="#111110"/>
<path d="M48.5311 32.7941H47.5703V33.7548H48.5311V32.7941Z" fill="#282728"/>
<path d="M47.5677 48.9248H46.6279V49.8646H47.5677V48.9248Z" fill="#373801"/>
<path d="M47.5677 47.9614H46.6279V48.9222H47.5677V47.9614Z" fill="#373801"/>
<path d="M47.5677 47.0243H46.6279V47.964H47.5677V47.0243Z" fill="#373801"/>
<path d="M47.5677 46.0819H46.6279V47.0217H47.5677V46.0819Z" fill="#373801"/>
<path d="M47.5677 45.1185H46.6279V46.0793H47.5677V45.1185Z" fill="#111110"/>
<path d="M47.5677 32.7941H46.6279V33.7548H47.5677V32.7941Z" fill="#282728"/>
<path d="M47.5677 30.912H46.6279V31.8517H47.5677V30.912Z" fill="#F7AB94"/>
<path d="M46.6304 48.9248H45.6697V49.8646H46.6304V48.9248Z" fill="#373801"/>
<path d="M46.6304 47.9614H45.6697V48.9222H46.6304V47.9614Z" fill="#373801"/>
<path d="M46.6304 47.0243H45.6697V47.964H46.6304V47.0243Z" fill="#373801"/>
<path d="M46.6304 46.0819H45.6697V47.0217H46.6304V46.0819Z" fill="#373801"/>
<path d="M46.6304 45.1185H45.6697V46.0793H46.6304V45.1185Z" fill="#111110"/>
<path d="M46.6304 44.1814H45.6697V45.1211H46.6304V44.1814Z" fill="#111110"/>
<path d="M46.6304 43.2416H45.6697V44.1814H46.6304V43.2416Z" fill="#111110"/>
<path d="M45.667 43.2416H44.7273V44.1813H45.667V43.2416Z" fill="#111110"/>
<path d="M44.7273 43.2416H43.7876V44.1813H44.7273V43.2416Z" fill="#111110"/>
<path d="M42.827 33.7549H41.8872V34.6946H42.827V33.7549Z" fill="#705E03"/>
<path d="M42.827 32.7941H41.8872V33.7549H42.827V32.7941Z" fill="black"/>
<path d="M42.827 31.8544H41.8872V32.7941H42.827V31.8544Z" fill="black"/>
<path d="M41.8846 33.7549H40.9238V34.6946H41.8846V33.7549Z" fill="#705E03"/>
<path d="M41.8846 32.7941H40.9238V33.7549H41.8846V32.7941Z" fill="#705E03"/>
<path d="M41.8846 31.8544H40.9238V32.7941H41.8846V31.8544Z" fill="black"/>
<path d="M40.9263 35.6554H39.9866V36.5951H40.9263V35.6554Z" fill="#705E03"/>
<path d="M40.9263 34.6946H39.9866V35.6554H40.9263V34.6946Z" fill="#705E03"/>
<path d="M40.9263 33.7549H39.9866V34.6946H40.9263V33.7549Z" fill="#705E03"/>
<path d="M40.9263 32.7941H39.9866V33.7549H40.9263V32.7941Z" fill="#705E03"/>
<path d="M40.9263 31.8544H39.9866V32.7941H40.9263V31.8544Z" fill="#705E03"/>
<path d="M40.9263 30.912H39.9866V31.8517H40.9263V30.912Z" fill="black"/>
<path d="M39.9866 35.6554H39.0469V36.5951H39.9866V35.6554Z" fill="#705E03"/>
<path d="M39.9866 34.6946H39.0469V35.6554H39.9866V34.6946Z" fill="#705E03"/>
<path d="M39.9866 33.7549H39.0469V34.6946H39.9866V33.7549Z" fill="#705E03"/>
<path d="M39.9866 32.7941H39.0469V33.7549H39.9866V32.7941Z" fill="#705E03"/>
<path d="M39.9866 31.8544H39.0469V32.7941H39.9866V31.8544Z" fill="#998304"/>
<path d="M39.9866 30.912H39.0469V31.8517H39.9866V30.912Z" fill="#998304"/>
<path d="M39.9866 29.9539H39.0469V30.9146H39.9866V29.9539Z" fill="black"/>
<path d="M39.0442 35.6554H38.0835V36.5951H39.0442V35.6554Z" fill="#705E03"/>
<path d="M39.0442 34.6946H38.0835V35.6554H39.0442V34.6946Z" fill="#705E03"/>
<path d="M39.0442 33.7549H38.0835V34.6946H39.0442V33.7549Z" fill="#998304"/>
<path d="M39.0442 32.7941H38.0835V33.7549H39.0442V32.7941Z" fill="#998304"/>
<path d="M39.0442 31.8544H38.0835V32.7941H39.0442V31.8544Z" fill="#998304"/>
<path d="M39.0442 30.912H38.0835V31.8517H39.0442V30.912Z" fill="#BFA908"/>
<path d="M39.0442 29.9539H38.0835V30.9146H39.0442V29.9539Z" fill="#BFA908"/>
<path d="M39.0442 29.0115H38.0835V29.9512H39.0442V29.0115Z" fill="black"/>
<path d="M39.0442 28.0533H38.0835V29.0141H39.0442V28.0533Z" fill="black"/>
<path d="M38.0809 35.6554H37.1411V36.5951H38.0809V35.6554Z" fill="#705E03"/>
<path d="M38.0809 34.6946H37.1411V35.6554H38.0809V34.6946Z" fill="#998304"/>
<path d="M38.0809 33.7549H37.1411V34.6946H38.0809V33.7549Z" fill="#998304"/>
<path d="M38.0809 32.7941H37.1411V33.7549H38.0809V32.7941Z" fill="#BFA908"/>
<path d="M38.0809 31.8544H37.1411V32.7941H38.0809V31.8544Z" fill="#BFA908"/>
<path d="M38.0809 30.912H37.1411V31.8517H38.0809V30.912Z" fill="#BFA908"/>
<path d="M38.0809 29.9539H37.1411V30.9146H38.0809V29.9539Z" fill="black"/>
<path d="M38.0809 29.0115H37.1411V29.9512H38.0809V29.0115Z" fill="black"/>
<path d="M37.1439 37.5375H36.2041V38.4982H37.1439V37.5375Z" fill="#705E03"/>
<path d="M37.1439 36.5951H36.2041V37.5348H37.1439V36.5951Z" fill="#705E03"/>
<path d="M37.1439 35.6554H36.2041V36.5951H37.1439V35.6554Z" fill="#998304"/>
<path d="M37.1439 34.6946H36.2041V35.6554H37.1439V34.6946Z" fill="#998304"/>
<path d="M37.1439 33.7549H36.2041V34.6946H37.1439V33.7549Z" fill="#BFA908"/>
<path d="M37.1439 32.7941H36.2041V33.7549H37.1439V32.7941Z" fill="#BFA908"/>
<path d="M37.1439 31.8544H36.2041V32.7941H37.1439V31.8544Z" fill="#BFA908"/>
<path d="M37.1439 30.912H36.2041V31.8517H37.1439V30.912Z" fill="black"/>
<path d="M37.1439 29.9539H36.2041V30.9146H37.1439V29.9539Z" fill="black"/>
<path d="M36.2015 37.5375H35.2407V38.4982H36.2015V37.5375Z" fill="#705E03"/>
<path d="M36.2015 36.5951H35.2407V37.5348H36.2015V36.5951Z" fill="#998304"/>
<path d="M36.2015 35.6554H35.2407V36.5951H36.2015V35.6554Z" fill="#998304"/>
<path d="M36.2015 34.6946H35.2407V35.6554H36.2015V34.6946Z" fill="#BFA908"/>
<path d="M36.2015 33.7549H35.2407V34.6946H36.2015V33.7549Z" fill="#BFA908"/>
<path d="M36.2015 32.7941H35.2407V33.7549H36.2015V32.7941Z" fill="#BFA908"/>
<path d="M36.2015 31.8544H35.2407V32.7941H36.2015V31.8544Z" fill="black"/>
<path d="M36.2015 30.912H35.2407V31.8517H36.2015V30.912Z" fill="black"/>
<path d="M36.2015 29.0115H35.2407V29.9512H36.2015V29.0115Z" fill="black"/>
<path d="M35.2407 37.5375H34.3008V38.4982H35.2407V37.5375Z" fill="black"/>
<path d="M35.2407 36.5951H34.3008V37.5348H35.2407V36.5951Z" fill="#998304"/>
<path d="M35.2407 35.6554H34.3008V36.5951H35.2407V35.6554Z" fill="#998304"/>
<path d="M35.2407 34.6946H34.3008V35.6554H35.2407V34.6946Z" fill="#BFA908"/>
<path d="M35.2407 33.7549H34.3008V34.6946H35.2407V33.7549Z" fill="#BFA908"/>
<path d="M35.2407 32.7941H34.3008V33.7549H35.2407V32.7941Z" fill="black"/>
<path d="M35.2407 31.8544H34.3008V32.7941H35.2407V31.8544Z" fill="black"/>
<path d="M35.2405 28.0533H34.3008V29.0141H35.2405V28.0533Z" fill="black"/>
<path d="M34.3008 36.5951H33.3401V37.5348H34.3008V36.5951Z" fill="black"/>
<path d="M34.3008 35.6554H33.3401V36.5951H34.3008V35.6554Z" fill="#BFA908"/>
<path d="M34.3008 34.6946H33.3401V35.6554H34.3008V34.6946Z" fill="#BFA908"/>
<path d="M34.3008 33.7549H33.3401V34.6946H34.3008V33.7549Z" fill="black"/>
<path d="M34.3008 32.7941H33.3401V33.7549H34.3008V32.7941Z" fill="black"/>
<path d="M34.3008 27.111H33.3401V28.0507H34.3008V27.111Z" fill="black"/>
<path d="M34.3008 26.1713H33.3401V27.111H34.3008V26.1713Z" fill="#545454"/>
<path d="M33.3401 35.6554H32.4004V36.5951L33.3401 36.5951V35.6554Z" fill="black"/>
<path d="M33.3401 34.6946H32.4004V35.6554H33.3401V34.6946Z" fill="black"/>
<path d="M33.3401 33.7549H32.4004V34.6946H33.3401V33.7549Z" fill="black"/>
<path d="M33.3401 31.8544H32.4004V32.7941L33.3401 32.7941L33.3401 31.8544Z" fill="black"/>
<path d="M33.3401 27.111H32.4004V28.0507H33.3401V27.111Z" fill="#545454"/>
<path d="M33.3401 26.1713H32.4004V27.111H33.3401V26.1713Z" fill="black"/>
<path d="M33.3401 25.2104H32.4004V26.1713H33.3401L33.3401 25.2104Z" fill="#545454"/>
<path d="M32.3978 35.6554H31.458V36.5951H32.3978V35.6554Z" fill="black"/>
<path d="M32.3978 34.6946H31.458V35.6554H32.3978V34.6946Z" fill="black"/>
<path d="M32.3978 30.912H31.458V31.8517H32.3978V30.912Z" fill="black"/>
<path d="M32.3978 26.1713H31.458V27.111H32.3978V26.1713Z" fill="#545454"/>
<path d="M32.3978 25.2104H31.458V26.1713H32.3978V25.2104Z" fill="black"/>
<path d="M32.3978 24.2708H31.458V25.2104H32.3978V24.2708Z" fill="#545454"/>
<path d="M31.4605 29.9539H30.4998V30.9146H31.4605V29.9539Z" fill="black"/>
<path d="M31.4605 29.0115H30.4998V29.9512H31.4605V29.0115Z" fill="#545454"/>
<path d="M31.4605 25.2104H30.4998V26.1712H31.4605V25.2104Z" fill="#545454"/>
<path d="M31.4605 24.2708H30.4998V25.2104H31.4605V24.2708Z" fill="black"/>
<path d="M31.4605 23.3284H30.4998V24.2681H31.4605V23.3284Z" fill="#545454"/>
<path d="M30.4974 29.9539H29.5576V30.9146H30.4974V29.9539Z" fill="#545454"/>
<path d="M30.4974 29.0115H29.5576V29.9512H30.4974V29.0115Z" fill="black"/>
<path d="M30.4974 28.0533H29.5576V29.0141H30.4974V28.0533Z" fill="#545454"/>
<path d="M30.4974 24.2708H29.5576V25.2105H30.4974V24.2708Z" fill="#545454"/>
<path d="M29.5576 29.0115H28.6177V29.9512H29.5576V29.0115Z" fill="#545454"/>
<path d="M29.5576 28.0533H28.6177V29.0141H29.5576V28.0533Z" fill="black"/>
<path d="M29.5574 27.111H28.6177V28.0507H29.5574V27.111Z" fill="#545454"/>
<path d="M28.6177 28.0533H27.657V29.0141H28.6177V28.0533Z" fill="#545454"/>
<path d="M28.6177 27.111H27.657V28.0507H28.6177V27.111Z" fill="black"/>
<path d="M28.6177 26.1713H27.657V27.111H28.6177L28.6177 26.1713Z" fill="#545454"/>
<path d="M27.657 27.111H26.7173V28.0507H27.657V27.111Z" fill="#545454"/>
</svg>
