<svg width="105" height="105" viewBox="0 0 105 105" fill="none" xmlns="http://www.w3.org/2000/svg">
<path d="M52.5005 4.73279C78.8831 4.73297 100.267 26.1202 100.267 52.5004C100.267 78.8803 78.8804 100.267 52.5005 100.267C26.1204 100.267 4.73309 78.8804 4.73291 52.5004C4.73291 26.1201 26.1177 4.73279 52.5005 4.73279Z" fill="#F9F7E7" stroke="#29100A" stroke-width="2"/>
<path d="M86.129 41.7506H84.3755V43.5199H86.129V41.7506Z" fill="black"/>
<path d="M86.129 39.9998H84.3755V41.7533H86.129V39.9998Z" fill="black"/>
<path d="M86.129 38.2279H84.3755V39.9972H86.129V38.2279Z" fill="black"/>
<path d="M84.3728 43.5225H82.6035V45.276H84.3728V43.5225Z" fill="black"/>
<path d="M84.3728 41.7506H82.6035V43.5199H84.3728V41.7506Z" fill="#5B271D"/>
<path d="M84.3728 39.9998H82.6035V41.7533H84.3728V39.9998Z" fill="#5B271D"/>
<path d="M84.3728 38.2279H82.6035V39.9972H84.3728V38.2279Z" fill="#5B271D"/>
<path d="M84.3728 36.4796H82.6035V38.2331H84.3728V36.4796Z" fill="black"/>
<path d="M82.609 43.5225H80.8555V45.276H82.609V43.5225Z" fill="black"/>
<path d="M82.609 41.7506H80.8555V43.5199H82.609V41.7506Z" fill="#5B271D"/>
<path d="M82.609 39.9998H80.8555V41.7533H82.609V39.9998Z" fill="#5B271D"/>
<path d="M82.609 38.2279H80.8555V39.9972H82.609V38.2279Z" fill="black"/>
<path d="M80.8528 64.6696H79.0835V66.423H80.8528V64.6696Z" fill="#B50012"/>
<path d="M80.8528 45.2708H79.0835V47.04H80.8528V45.2708Z" fill="black"/>
<path d="M80.8528 43.5225H79.0835V45.276H80.8528V43.5225Z" fill="black"/>
<path d="M80.8528 41.7506H79.0835V43.5199H80.8528V41.7506Z" fill="#5B271D"/>
<path d="M80.8528 39.9998H79.0835V41.7533H80.8528V39.9998Z" fill="black"/>
<path d="M79.086 66.4204H77.3325V68.1897H79.086V66.4204Z" fill="#B50012"/>
<path d="M79.086 64.6696H77.3325V66.423H79.086V64.6696Z" fill="#B50012"/>
<path d="M79.086 45.2708H77.3325V47.04H79.086V45.2708Z" fill="black"/>
<path d="M79.086 43.5225H77.3325V45.276H79.086V43.5225Z" fill="#5B271D"/>
<path d="M79.086 41.7506H77.3325V43.5199H79.086V41.7506Z" fill="#5B271D"/>
<path d="M79.086 39.9998H77.3325V41.7533H79.086V39.9998Z" fill="black"/>
<path d="M79.086 32.9385H77.3325V34.7077H79.086V32.9385Z" fill="black"/>
<path d="M79.086 31.1851H77.3325V32.9385H79.086V31.1851Z" fill="black"/>
<path d="M79.086 29.4183H77.3325V31.1876H79.086V29.4183Z" fill="black"/>
<path d="M77.3298 80.5245H75.5605V82.278H77.3298V80.5245Z" fill="#B50012"/>
<path d="M77.3298 73.4633H75.5605V75.2325H77.3298V73.4633Z" fill="#B50012"/>
<path d="M77.3298 68.1923H75.5605V69.9458H77.3298V68.1923Z" fill="#B50012"/>
<path d="M77.3298 66.4204H75.5605V68.1897H77.3298V66.4204Z" fill="#727B9B"/>
<path d="M77.3298 64.6696H75.5605V66.423H77.3298V64.6696Z" fill="#B50012"/>
<path d="M77.3298 47.0426H75.5605V48.8119H77.3298V47.0426Z" fill="black"/>
<path d="M77.3298 45.2708H75.5605V47.04H77.3298V45.2708Z" fill="black"/>
<path d="M77.3298 43.5225H75.5605V45.276H77.3298V43.5225Z" fill="#5B271D"/>
<path d="M77.3298 41.7506H75.5605V43.5199H77.3298V41.7506Z" fill="black"/>
<path d="M77.3298 36.4796H75.5605V38.2331H77.3298V36.4796Z" fill="black"/>
<path d="M77.3298 34.7078H75.5605V36.477H77.3298V34.7078Z" fill="black"/>
<path d="M77.3298 32.9385H75.5605V34.7078H77.3298V32.9385Z" fill="black"/>
<path d="M77.3298 31.1851H75.5605V32.9385H77.3298V31.1851Z" fill="#5B271D"/>
<path d="M77.3298 29.4183H75.5605V31.1876H77.3298V29.4183Z" fill="black"/>
<path d="M75.566 80.5245H73.8125V82.278H75.566V80.5245Z" fill="#B50012"/>
<path d="M75.566 77.0044H73.8125V78.7579H75.566V77.0044Z" fill="#B50012"/>
<path d="M75.566 71.7124H73.8125V73.4659H75.566V71.7124Z" fill="#B50012"/>
<path d="M75.566 69.9406H73.8125V71.7098H75.566V69.9406Z" fill="#B50012"/>
<path d="M75.566 68.1923H73.8125V69.9458H75.566V68.1923Z" fill="#727B9B"/>
<path d="M75.566 66.4204H73.8125V68.1897H75.566V66.4204Z" fill="#727B9B"/>
<path d="M75.566 64.6696H73.8125V66.423H75.566V64.6696Z" fill="#B50012"/>
<path d="M75.566 47.0426H73.8125V48.8119H75.566V47.0426Z" fill="black"/>
<path d="M75.566 45.2708H73.8125V47.04H75.566V45.2708Z" fill="#5B271D"/>
<path d="M75.566 43.5225H73.8125V45.276H75.566V43.5225Z" fill="#5B271D"/>
<path d="M75.566 41.7506H73.8125V43.5199H75.566V41.7506Z" fill="black"/>
<path d="M75.566 39.9998H73.8125V41.7533H75.566V39.9998Z" fill="black"/>
<path d="M75.566 38.2279H73.8125V39.9972H75.566V38.2279Z" fill="black"/>
<path d="M75.566 36.4796H73.8125V38.2331H75.566V36.4796Z" fill="#5B271D"/>
<path d="M75.566 34.7078H73.8125V36.477H75.566V34.7078Z" fill="#5B271D"/>
<path d="M75.566 32.9385H73.8125V34.7078H75.566V32.9385Z" fill="#5B271D"/>
<path d="M75.566 31.1851H73.8125V32.9385H75.566V31.1851Z" fill="black"/>
<path d="M75.566 29.4183H73.8125V31.1876H75.566V29.4183Z" fill="black"/>
<path d="M73.8098 80.5245H72.0405V82.278H73.8098V80.5245Z" fill="#B50012"/>
<path d="M73.8098 78.7552H72.0405V80.5245H73.8098V78.7552Z" fill="#B50012"/>
<path d="M73.8098 69.9406H72.0405V71.7098H73.8098V69.9406Z" fill="#B50012"/>
<path d="M73.8098 68.1923H72.0405V69.9458H73.8098V68.1923Z" fill="#727B9B"/>
<path d="M73.8098 66.4204H72.0405V68.1897H73.8098V66.4204Z" fill="#727B9B"/>
<path d="M73.8098 64.6696H72.0405V66.423H73.8098V64.6696Z" fill="#B50012"/>
<path d="M73.8098 47.0426H72.0405V48.8119H73.8098V47.0426Z" fill="black"/>
<path d="M73.8098 45.2708H72.0405V47.04H73.8098V45.2708Z" fill="#5B271D"/>
<path d="M73.8098 43.5225H72.0405V45.276H73.8098V43.5225Z" fill="black"/>
<path d="M73.8098 39.9998H72.0405V41.7533H73.8098V39.9998Z" fill="black"/>
<path d="M73.8098 38.2279H72.0405V39.9972H73.8098V38.2279Z" fill="#5B271D"/>
<path d="M73.8098 36.4796H72.0405V38.2331H73.8098V36.4796Z" fill="#5B271D"/>
<path d="M73.8098 34.7078H72.0405V36.477H73.8098V34.7078Z" fill="#5B271D"/>
<path d="M73.8098 32.9385H72.0405V34.7078H73.8098V32.9385Z" fill="black"/>
<path d="M73.8098 31.1851H72.0405V32.9385H73.8098V31.1851Z" fill="black"/>
<path d="M72.0405 80.5245H70.2715V82.278H72.0405V80.5245Z" fill="#B50012"/>
<path d="M72.0405 69.9406H70.2715V71.7098H72.0405V69.9406Z" fill="#B50012"/>
<path d="M72.0405 68.1923H70.2715V69.9458H72.0405V68.1923Z" fill="#727B9B"/>
<path d="M72.0405 66.4204H70.2715V68.1897H72.0405V66.4204Z" fill="#727B9B"/>
<path d="M72.0405 64.6696H70.2715V66.423H72.0405V64.6696Z" fill="#B50012"/>
<path d="M72.0405 48.8119L70.2715 48.8119V50.5654H72.0407L72.0405 48.8119Z" fill="black"/>
<path d="M72.0405 47.0426H70.2715V48.8119L72.0405 48.8119V47.0426Z" fill="#5B271D"/>
<path d="M72.0405 45.2708H70.2715V47.04H72.0405V45.2708Z" fill="#5B271D"/>
<path d="M72.0405 43.5225H70.2715V45.276H72.0405V43.5225Z" fill="black"/>
<path d="M72.0407 41.7506H70.2715V43.5199H72.0407V41.7506Z" fill="black"/>
<path d="M72.0405 39.9998H70.2715V41.7533H72.0405V39.9998Z" fill="black"/>
<path d="M72.0405 38.2279H70.2715V39.9972H72.0405V38.2279Z" fill="#5B271D"/>
<path d="M72.0405 36.4796H70.2715V38.2331H72.0405V36.4796Z" fill="#5B271D"/>
<path d="M72.0405 34.7078H70.2715V36.477H72.0405V34.7078Z" fill="#5B271D"/>
<path d="M72.0405 32.9385H70.2715V34.7078H72.0405V32.9385Z" fill="black"/>
<path d="M70.2715 69.9406H68.5176V71.7098H70.2715V69.9406Z" fill="#B50012"/>
<path d="M70.2715 68.1923H68.5176V69.9458H70.2715V68.1923Z" fill="#B50012"/>
<path d="M70.2715 66.4204H68.5176V68.1897H70.2715V66.4204Z" fill="#727B9B"/>
<path d="M70.2715 64.6696H68.5176V66.423H70.2715V64.6696Z" fill="#B50012"/>
<path d="M70.2715 48.8119H68.5176V50.5654H70.2715V48.8119Z" fill="black"/>
<path d="M70.2715 47.0426H68.5176V48.8119H70.2715V47.0426Z" fill="#5B271D"/>
<path d="M70.2715 45.2708H68.5176V47.04H70.2715V45.2708Z" fill="black"/>
<path d="M70.2715 43.5225H68.5176V45.276H70.2715V43.5225Z" fill="black"/>
<path d="M70.2715 41.7506H68.5176V43.5199H70.2715V41.7506Z" fill="black"/>
<path d="M70.2715 39.9998H68.5176V41.7533H70.2715V39.9998Z" fill="#5B271D"/>
<path d="M70.2715 38.2279H68.5176V39.9972H70.2715V38.2279Z" fill="#5B271D"/>
<path d="M70.2715 36.4796H68.5176V38.2331H70.2715V36.4796Z" fill="black"/>
<path d="M70.2715 34.7078H68.5176V36.477H70.2715V34.7078Z" fill="black"/>
<path d="M70.2715 32.9385H68.5176V34.7078H70.2715V32.9385Z" fill="black"/>
<path d="M68.5176 68.1923H66.7485V69.9458H68.5176V68.1923Z" fill="#B50012"/>
<path d="M68.5176 66.4204H66.7485V68.1897H68.5176V66.4204Z" fill="#727B9B"/>
<path d="M68.5176 64.6696H66.7485V66.423H68.5176V64.6696Z" fill="#727B9B"/>
<path d="M68.5178 62.8976H66.7485V64.6668H68.5178V62.8976Z" fill="#B50012"/>
<path d="M68.5176 50.5654L66.7485 50.5654V52.3347H68.5178L68.5176 50.5654Z" fill="black"/>
<path d="M68.5176 48.8119H66.7485V50.5654L68.5176 50.5654V48.8119Z" fill="#5B271D"/>
<path d="M68.5176 47.0426H66.7485V48.8119H68.5176V47.0426Z" fill="#5B271D"/>
<path d="M68.5176 45.2708H66.7485V47.04H68.5176V45.2708Z" fill="black"/>
<path d="M68.5176 43.5225H66.7485V45.276H68.5176V43.5225Z" fill="#5B271D"/>
<path d="M68.5176 41.7506H66.7485V43.5199H68.5176V41.7506Z" fill="#5B271D"/>
<path d="M68.5176 39.9998H66.7485V41.7533H68.5176V39.9998Z" fill="#5B271D"/>
<path d="M68.5176 38.2279H66.7485V39.9972H68.5176V38.2279Z" fill="#5B271D"/>
<path d="M68.5176 36.4796H66.7485V38.2331H68.5176V36.4796Z" fill="black"/>
<path d="M66.7511 66.4204H64.9976V68.1897H66.7511V66.4204Z" fill="#B50012"/>
<path d="M66.7511 64.6696H64.9976V66.423H66.7511V64.6696Z" fill="#727B9B"/>
<path d="M66.7511 62.8976H64.9976V64.6668H66.7511V62.8976Z" fill="#727B9B"/>
<path d="M66.7511 61.1284H64.9976V62.8976H66.7511V61.1284Z" fill="black"/>
<path d="M66.7511 59.3774H64.9976V61.1309H66.7511V59.3774Z" fill="black"/>
<path d="M66.7511 57.6083H64.9976V59.3774H66.7511V57.6083Z" fill="black"/>
<path d="M66.7511 55.8547H64.9976V57.6083H66.7511V55.8547Z" fill="black"/>
<path d="M66.7511 54.0854H64.9976V55.8547H66.7511V54.0854Z" fill="black"/>
<path d="M66.7511 50.5654H64.9976V52.3347H66.7511V50.5654Z" fill="black"/>
<path d="M66.7511 48.8119H64.9976V50.5654H66.7511V48.8119Z" fill="#5B271D"/>
<path d="M66.7511 47.0426H64.9976V48.8119H66.7511V47.0426Z" fill="#5B271D"/>
<path d="M66.7511 45.2708H64.9976V47.04H66.7511V45.2708Z" fill="black"/>
<path d="M66.7511 43.5225H64.9976V45.276H66.7511V43.5225Z" fill="#5B271D"/>
<path d="M66.7511 41.7506H64.9976V43.5199H66.7511V41.7506Z" fill="black"/>
<path d="M66.7511 39.9998H64.9976V41.7533H66.7511V39.9998Z" fill="black"/>
<path d="M66.7511 38.2279H64.9976V39.9972H66.7511V38.2279Z" fill="black"/>
<path d="M66.7511 36.4796H64.9976V38.2331H66.7511V36.4796Z" fill="black"/>
<path d="M64.9976 64.6696H63.2285V66.423H64.9976V64.6696Z" fill="#B50012"/>
<path d="M64.9976 62.8976H63.2285V64.6668H64.9976V62.8976Z" fill="#727B9B"/>
<path d="M64.9976 61.1284H63.2285V62.8976H64.9976V61.1284Z" fill="black"/>
<path d="M64.9976 59.3774H63.2285V61.1309H64.9976V59.3774Z" fill="black"/>
<path d="M64.9976 57.6083H63.2285V59.3774H64.9976V57.6083Z" fill="#507993"/>
<path d="M64.9976 55.8547H63.2285V57.6083H64.9976V55.8547Z" fill="#507993"/>
<path d="M64.9976 54.0854H63.2285V55.8547H64.9976V54.0854Z" fill="black"/>
<path d="M64.9976 52.3347L63.2285 52.3346V54.0881H64.9978L64.9976 52.3347Z" fill="black"/>
<path d="M64.9976 48.8119H63.2285V50.5654L64.9976 50.5654V48.8119Z" fill="black"/>
<path d="M64.9976 47.0426H63.2285V48.8119H64.9976V47.0426Z" fill="#5B271D"/>
<path d="M64.9976 45.2708H63.2285V47.04H64.9976V45.2708Z" fill="black"/>
<path d="M64.9976 43.5225H63.2285V45.276H64.9976V43.5225Z" fill="#5B271D"/>
<path d="M64.9976 41.7506H63.2285V43.5199H64.9976V41.7506Z" fill="black"/>
<path d="M63.2285 62.8976H61.4751V64.6668H63.2285V62.8976Z" fill="black"/>
<path d="M63.2285 61.1284H61.4751V62.8976H63.2285V61.1284Z" fill="black"/>
<path d="M63.2285 59.3774H61.4751V61.1309H63.2285V59.3774Z" fill="#E0AD86"/>
<path d="M63.2285 57.6083H61.4751V59.3774H63.2285V57.6083Z" fill="#79B6EE"/>
<path d="M63.2285 55.8547H61.4751V57.6083H63.2285V55.8547Z" fill="#507993"/>
<path d="M63.2285 54.0854H61.4751V55.8547H63.2285V54.0854Z" fill="#507993"/>
<path d="M63.2285 52.3346H61.4751V54.0881H63.2285V52.3346Z" fill="black"/>
<path d="M63.2285 50.5654L61.4751 50.5654V52.3346H63.2285V50.5654Z" fill="black"/>
<path d="M63.2285 47.0426H61.4751V48.8119L63.2285 48.8119V47.0426Z" fill="black"/>
<path d="M63.2285 45.2708H61.4751V47.04H63.2285V45.2708Z" fill="black"/>
<path d="M63.2285 43.5225H61.4751V45.276H63.2285V43.5225Z" fill="black"/>
<path d="M63.2285 41.7506H61.4751V43.5199H63.2285V41.7506Z" fill="black"/>
<path d="M63.2286 39.9998H61.4751V41.7533H63.2286V39.9998Z" fill="black"/>
<path d="M63.2286 38.2279H61.4751V39.9972H63.2286V38.2279Z" fill="black"/>
<path d="M63.2286 36.4796H61.4751V38.2331H63.2286V36.4796Z" fill="black"/>
<path d="M63.2286 34.7078H61.4751V36.477H63.2286V34.7078Z" fill="black"/>
<path d="M63.2286 32.9385H61.4751V34.7078H63.2286V32.9385Z" fill="black"/>
<path d="M63.2286 31.1851H61.4751V32.9385H63.2286V31.1851Z" fill="black"/>
<path d="M63.2286 29.4183H61.4751V31.1876H63.2286V29.4183Z" fill="black"/>
<path d="M61.4751 62.8976H59.7056V64.6668H61.4751V62.8976Z" fill="black"/>
<path d="M61.4751 61.1284H59.7056V62.8976H61.4751V61.1284Z" fill="#E0AD86"/>
<path d="M61.4751 59.3774H59.7056V61.1309H61.4751V59.3774Z" fill="#E0AD86"/>
<path d="M61.4751 57.6083H59.7056V59.3774H61.4751V57.6083Z" fill="#E0AD86"/>
<path d="M61.4751 55.8547H59.7056V57.6083H61.4751V55.8547Z" fill="#679EC6"/>
<path d="M61.4751 54.0854H59.7056V55.8547H61.4751V54.0854Z" fill="#507993"/>
<path d="M61.4751 52.3346H59.7056V54.0881H61.4751V52.3346Z" fill="#507993"/>
<path d="M61.4751 50.5654H59.7056V52.3346H61.4751V50.5654Z" fill="black"/>
<path d="M61.4751 48.8119L59.7056 48.8119V50.5654H61.4751V48.8119Z" fill="black"/>
<path d="M61.4751 47.0426H59.7056V48.8119L61.4751 48.8119V47.0426Z" fill="black"/>
<path d="M61.4751 45.2708H59.7056V47.04H61.4751V45.2708Z" fill="#60342E"/>
<path d="M61.4751 43.5225H59.7056V45.276H61.4751V43.5225Z" fill="black"/>
<path d="M61.4751 41.7506H59.7056V43.5199H61.4751V41.7506Z" fill="black"/>
<path d="M61.4751 39.9998H59.7056V41.7533H61.4751V39.9998Z" fill="black"/>
<path d="M61.4751 38.2279H59.7056V39.9972H61.4751V38.2279Z" fill="black"/>
<path d="M61.4751 36.4796H59.7056V38.2331H61.4751V36.4796Z" fill="#507993"/>
<path d="M61.4751 34.7078H59.7056V36.477H61.4751V34.7078Z" fill="#507993"/>
<path d="M61.4751 32.9385H59.7056V34.7078H61.4751V32.9385Z" fill="#507993"/>
<path d="M61.4751 31.1851H59.7056V32.9385H61.4751V31.1851Z" fill="black"/>
<path d="M61.4751 29.4183H59.7056V31.1876H61.4751V29.4183Z" fill="black"/>
<path d="M61.4748 27.6649H59.7056V29.4183H61.4751L61.4748 27.6649Z" fill="black"/>
<path d="M59.7028 80.5245H57.9336V82.278H59.7028V80.5245Z" fill="black"/>
<path d="M59.7028 78.7552H57.9336V80.5245H59.7028V78.7552Z" fill="black"/>
<path d="M59.7028 77.0044H57.9336V78.7579H59.7028V77.0044Z" fill="black"/>
<path d="M59.7028 75.2351H57.9336V77.0044H59.7028V75.2351Z" fill="black"/>
<path d="M59.7028 73.4633H57.9336V75.2325H59.7028V73.4633Z" fill="black"/>
<path d="M59.7028 71.7124H57.9336V73.4659H59.7028V71.7124Z" fill="black"/>
<path d="M59.7028 69.9406H57.9336V71.7098H59.7028V69.9406Z" fill="black"/>
<path d="M59.7028 62.8976H57.9336V64.6668H59.7028V62.8976Z" fill="black"/>
<path d="M59.7028 61.1284H57.9336V62.8976H59.7028V61.1284Z" fill="#E0AD86"/>
<path d="M59.7028 59.3774H57.9336V61.1309H59.7028V59.3774Z" fill="#E0AD86"/>
<path d="M59.7028 57.6083H57.9336V59.3774H59.7028V57.6083Z" fill="#E0AD86"/>
<path d="M59.7028 55.8547H57.9336V57.6083H59.7028V55.8547Z" fill="#679EC6"/>
<path d="M59.7028 54.0854H57.9336V55.8547H59.7028V54.0854Z" fill="#679EC6"/>
<path d="M59.7028 52.3346H57.9336V54.0881H59.7028V52.3346Z" fill="#507993"/>
<path d="M59.7028 50.5654H57.9336V52.3346H59.7028V50.5654Z" fill="#507993"/>
<path d="M59.7028 48.8119H57.9336V50.5654H59.7028V48.8119Z" fill="black"/>
<path d="M59.7028 47.0426H57.9336V48.8119H59.7028V47.0426Z" fill="#60342E"/>
<path d="M59.7028 45.2708H57.9336V47.04H59.7028V45.2708Z" fill="#60342E"/>
<path d="M59.7028 43.5225H57.9336V45.276H59.7028V43.5225Z" fill="#60342E"/>
<path d="M59.7028 41.7506H57.9336V43.5199H59.7028V41.7506Z" fill="black"/>
<path d="M59.7028 39.9998H57.9336V41.7533H59.7028V39.9998Z" fill="black"/>
<path d="M59.7028 38.2279H57.9336V39.9972H59.7028V38.2279Z" fill="#507993"/>
<path d="M59.7028 36.4796H57.9336V38.2331H59.7028V36.4796Z" fill="#679EC6"/>
<path d="M59.7028 34.7078H57.9336V36.477H59.7028V34.7078Z" fill="#679EC6"/>
<path d="M59.7028 32.9385H57.9336V34.7078H59.7028V32.9385Z" fill="#679EC6"/>
<path d="M59.7028 31.1851H57.9336V32.9385H59.7028V31.1851Z" fill="#507993"/>
<path d="M59.7028 29.4183H57.9336V31.1876H59.7028V29.4183Z" fill="#507993"/>
<path d="M59.7028 27.6649H57.9336V29.4183H59.7028V27.6649Z" fill="black"/>
<path d="M59.7028 25.8956H57.9336V27.6649H59.7028V25.8956Z" fill="black"/>
<path d="M57.939 80.5245H56.1855V82.278H57.939V80.5245Z" fill="black"/>
<path d="M57.939 78.7552H56.1855V80.5245H57.939V78.7552Z" fill="#60401E"/>
<path d="M57.939 77.0044H56.1855V78.7579H57.939V77.0044Z" fill="#60401E"/>
<path d="M57.939 75.2351H56.1855V77.0044H57.939V75.2351Z" fill="#60401E"/>
<path d="M57.939 73.4633H56.1855V75.2325H57.939V73.4633Z" fill="#1C323A"/>
<path d="M57.939 71.7124H56.1855V73.4659H57.939V71.7124Z" fill="#1C323A"/>
<path d="M57.939 69.9406H56.1855V71.7098H57.939V69.9406Z" fill="black"/>
<path d="M57.939 68.1923H56.1855V69.9458H57.939V68.1923Z" fill="black"/>
<path d="M57.939 66.4204H56.1855V68.1897H57.939V66.4204Z" fill="black"/>
<path d="M57.939 64.6696H56.1855V66.423H57.939V64.6696Z" fill="black"/>
<path d="M57.939 62.8976H56.1855V64.6668H57.939V62.8976Z" fill="black"/>
<path d="M57.939 61.1284H56.1855V62.8976H57.939V61.1284Z" fill="black"/>
<path d="M57.939 59.3774H56.1855V61.1309H57.939V59.3774Z" fill="black"/>
<path d="M57.939 57.6083H56.1855V59.3774H57.939V57.6083Z" fill="black"/>
<path d="M57.939 55.8547H56.1855V57.6083H57.939V55.8547Z" fill="#679EC6"/>
<path d="M57.939 54.0854H56.1855V55.8547H57.939V54.0854Z" fill="#679EC6"/>
<path d="M57.939 52.3346H56.1855V54.0881H57.939V52.3346Z" fill="#679EC6"/>
<path d="M57.939 50.5654H56.1855V52.3346H57.939V50.5654Z" fill="#507993"/>
<path d="M57.939 48.8119H56.1855V50.5654H57.939V48.8119Z" fill="#507993"/>
<path d="M57.939 47.0426H56.1855V48.8119H57.939V47.0426Z" fill="black"/>
<path d="M57.939 45.2708H56.1855V47.04H57.939V45.2708Z" fill="#60342E"/>
<path d="M57.939 43.5225H56.1855V45.276H57.939V43.5225Z" fill="black"/>
<path d="M57.939 41.7506H56.1855V43.5199H57.939V41.7506Z" fill="#6D4541"/>
<path d="M57.939 39.9998H56.1855V41.7533H57.939V39.9998Z" fill="#6D4541"/>
<path d="M57.939 38.2279H56.1855V39.9972H57.939V38.2279Z" fill="#679EC6"/>
<path d="M57.939 36.4796H56.1855V38.2331H57.939V36.4796Z" fill="#679EC6"/>
<path d="M57.939 34.7078H56.1855V36.477H57.939V34.7078Z" fill="#679EC6"/>
<path d="M57.939 32.9385H56.1855V34.7078H57.939V32.9385Z" fill="#679EC6"/>
<path d="M57.939 31.1851H56.1855V32.9385H57.939V31.1851Z" fill="#679EC6"/>
<path d="M57.939 29.4183H56.1855V31.1876H57.939V29.4183Z" fill="#507993"/>
<path d="M57.939 27.6649H56.1855V29.4183H57.939V27.6649Z" fill="#507993"/>
<path d="M57.939 25.8956H56.1855V27.6649H57.939V25.8956Z" fill="black"/>
<path d="M57.939 24.1421H56.1855V25.8956H57.939V24.1421Z" fill="black"/>
<path d="M56.1855 80.5245H54.416V82.278H56.1855V80.5245Z" fill="black"/>
<path d="M56.1855 78.7552H54.416V80.5245H56.1855V78.7552Z" fill="#60401E"/>
<path d="M56.1855 77.0044H54.416V78.7579H56.1855V77.0044Z" fill="#60401E"/>
<path d="M56.1855 75.2351H54.416V77.0044H56.1855V75.2351Z" fill="#354D59"/>
<path d="M56.1855 73.4633H54.416V75.2325H56.1855V73.4633Z" fill="#354D59"/>
<path d="M56.1855 71.7124H54.416V73.4659H56.1855V71.7124Z" fill="#1C323A"/>
<path d="M56.1855 69.9406H54.416V71.7098H56.1855V69.9406Z" fill="#1C323A"/>
<path d="M56.1855 68.1923H54.416V69.9458H56.1855V68.1923Z" fill="#1C323A"/>
<path d="M56.1855 66.4204H54.416V68.1897H56.1855V66.4204Z" fill="#1C323A"/>
<path d="M56.1855 64.6696H54.416V66.423H56.1855V64.6696Z" fill="#1C323A"/>
<path d="M56.1855 62.8976H54.416V64.6668H56.1855V62.8976Z" fill="#1C323A"/>
<path d="M56.1855 61.1284H54.416V62.8976H56.1855V61.1284Z" fill="#1C323A"/>
<path d="M56.1855 59.3774H54.416V61.1309H56.1855V59.3774Z" fill="#507993"/>
<path d="M56.1855 57.6083H54.416V59.3774H56.1855V57.6083Z" fill="black"/>
<path d="M56.1855 55.8547H54.416V57.6083H56.1855V55.8547Z" fill="black"/>
<path d="M56.1855 54.0854H54.416V55.8547H56.1855V54.0854Z" fill="#679EC6"/>
<path d="M56.1855 52.3346H54.416V54.0881H56.1855V52.3346Z" fill="#679EC6"/>
<path d="M56.1855 50.5654H54.416V52.3346H56.1855V50.5654Z" fill="#679EC6"/>
<path d="M56.1855 48.8119H54.416V50.5654H56.1855V48.8119Z" fill="#507993"/>
<path d="M56.1855 47.0426H54.416V48.8119H56.1855V47.0426Z" fill="#507993"/>
<path d="M56.1855 45.2708H54.416V47.04H56.1855V45.2708Z" fill="black"/>
<path d="M56.1855 43.5225H54.416V45.276H56.1855V43.5225Z" fill="#6D4541"/>
<path d="M56.1855 41.7506H54.416V43.5199H56.1855V41.7506Z" fill="#6D4541"/>
<path d="M56.1855 39.9998H54.416V41.7533H56.1855V39.9998Z" fill="#79B6EE"/>
<path d="M56.1855 38.2279H54.416V39.9972H56.1855V38.2279Z" fill="#BA7D54"/>
<path d="M56.1855 36.4796H54.416V38.2331H56.1855V36.4796Z" fill="#BA7D54"/>
<path d="M56.1855 34.7078H54.416V36.477H56.1855V34.7078Z" fill="#BA7D54"/>
<path d="M56.1855 32.9385H54.416V34.7078H56.1855V32.9385Z" fill="#679EC6"/>
<path d="M56.1855 31.1851H54.416V32.9385H56.1855V31.1851Z" fill="#679EC6"/>
<path d="M56.1855 29.4183H54.416V31.1876H56.1855V29.4183Z" fill="#679EC6"/>
<path d="M56.1855 27.6649H54.416V29.4183H56.1855V27.6649Z" fill="#507993"/>
<path d="M56.1855 25.8956H54.416V27.6649H56.1855V25.8956Z" fill="#507993"/>
<path d="M56.1855 24.1421H54.416V25.8956H56.1855V24.1421Z" fill="black"/>
<path d="M54.416 80.5245H52.6626V82.278H54.416V80.5245Z" fill="black"/>
<path d="M54.416 78.7552H52.6626V80.5245H54.416V78.7552Z" fill="black"/>
<path d="M54.416 77.0044H52.6626V78.7579H54.416V77.0044Z" fill="black"/>
<path d="M54.416 75.2351H52.6626V77.0044H54.416V75.2351Z" fill="black"/>
<path d="M54.416 73.4633H52.6626V75.2325H54.416V73.4633Z" fill="#354D59"/>
<path d="M54.416 71.7124H52.6626V73.4659H54.416V71.7124Z" fill="#354D59"/>
<path d="M54.416 69.9406H52.6626V71.7098H54.416V69.9406Z" fill="#354D59"/>
<path d="M54.416 68.1923H52.6626V69.9458H54.416V68.1923Z" fill="#354D59"/>
<path d="M54.416 66.4204H52.6626V68.1897H54.416V66.4204Z" fill="#354D59"/>
<path d="M54.416 64.6696H52.6626V66.423H54.416V64.6696Z" fill="#1C323A"/>
<path d="M54.416 62.8976H52.6626V64.6668H54.416V62.8976Z" fill="#1C323A"/>
<path d="M54.416 61.1284H52.6626V62.8976H54.416V61.1284Z" fill="#507993"/>
<path d="M54.416 59.3774H52.6626V61.1309H54.416V59.3774Z" fill="#507993"/>
<path d="M54.416 57.6083H52.6626V59.3774H54.416V57.6083Z" fill="#507993"/>
<path d="M54.416 55.8547H52.6626V57.6083H54.416V55.8547Z" fill="#79B6EE"/>
<path d="M54.416 54.0854H52.6626V55.8547H54.416V54.0854Z" fill="#679EC6"/>
<path d="M54.416 52.3346H52.6626V54.0881H54.416V52.3346Z" fill="#679EC6"/>
<path d="M54.416 50.5654H52.6626V52.3346H54.416V50.5654Z" fill="#679EC6"/>
<path d="M54.416 48.8119H52.6626V50.5654H54.416V48.8119Z" fill="#79B6EE"/>
<path d="M54.416 47.0426H52.6626V48.8119H54.416V47.0426Z" fill="#507993"/>
<path d="M54.416 45.2708H52.6626V47.04H54.416V45.2708Z" fill="#6D4541"/>
<path d="M54.416 43.5225H52.6626V45.276H54.416V43.5225Z" fill="#6D4541"/>
<path d="M54.416 41.7506H52.6626V43.5199H54.416V41.7506Z" fill="#BA7D54"/>
<path d="M54.416 39.9998H52.6626V41.7533H54.416V39.9998Z" fill="#BA7D54"/>
<path d="M54.416 38.2279H52.6626V39.9972H54.416V38.2279Z" fill="#BA7D54"/>
<path d="M54.416 36.4796H52.6626V38.2331H54.416V36.4796Z" fill="#BA7D54"/>
<path d="M54.416 34.7078H52.6626V36.477H54.416V34.7078Z" fill="#1C1C1C"/>
<path d="M54.416 32.9385H52.6626V34.7078H54.416V32.9385Z" fill="#1C1C1C"/>
<path d="M54.416 31.1851H52.6626V32.9385H54.416V31.1851Z" fill="#507993"/>
<path d="M54.416 29.4183H52.6626V31.1876H54.416V29.4183Z" fill="#679EC6"/>
<path d="M54.416 27.6649H52.6626V29.4183H54.416V27.6649Z" fill="#679EC6"/>
<path d="M54.416 25.8956H52.6626V27.6649H54.416V25.8956Z" fill="#507993"/>
<path d="M54.416 24.1421H52.6626V25.8956H54.416V24.1421Z" fill="#507993"/>
<path d="M54.4161 22.3729H52.6626V24.1421H54.416L54.4161 22.3729Z" fill="black"/>
<path d="M52.6604 80.5245H50.8911V82.278H52.6604V80.5245Z" fill="black"/>
<path d="M52.6604 73.4633H50.8911V75.2325H52.6604V73.4633Z" fill="black"/>
<path d="M52.6604 71.7124H50.8911V73.4659H52.6604V71.7124Z" fill="black"/>
<path d="M52.6604 69.9406H50.8911V71.7098H52.6604V69.9406Z" fill="#354D59"/>
<path d="M52.6604 68.1923H50.8911V69.9458H52.6604V68.1923Z" fill="#354D59"/>
<path d="M52.6604 66.4204H50.8911V68.1897H52.6604V66.4204Z" fill="#354D59"/>
<path d="M52.6604 64.6696H50.8911V66.423H52.6604V64.6696Z" fill="#354D59"/>
<path d="M52.6604 62.8976H50.8911V64.6668H52.6604V62.8976Z" fill="#1C323A"/>
<path d="M52.6604 61.1284H50.8911V62.8976H52.6604V61.1284Z" fill="#507993"/>
<path d="M52.6604 59.3774H50.8911V61.1309H52.6604V59.3774Z" fill="#507993"/>
<path d="M52.6604 57.6083H50.8911V59.3774H52.6604V57.6083Z" fill="#679EC6"/>
<path d="M52.6604 55.8547H50.8911V57.6083H52.6604V55.8547Z" fill="#679EC6"/>
<path d="M52.6604 54.0854H50.8911V55.8547H52.6604V54.0854Z" fill="#679EC6"/>
<path d="M52.6604 52.3346H50.8911V54.0881H52.6604V52.3346Z" fill="#679EC6"/>
<path d="M52.6604 50.5654H50.8911V52.3346H52.6604V50.5654Z" fill="#679EC6"/>
<path d="M52.6604 48.8119H50.8911V50.5654H52.6604V48.8119Z" fill="#679EC6"/>
<path d="M52.6604 47.0426H50.8911V48.8119H52.6604V47.0426Z" fill="#679EC6"/>
<path d="M52.6604 45.2708H50.8911V47.04H52.6604V45.2708Z" fill="#6D4541"/>
<path d="M52.6604 43.5225H50.8911V45.276H52.6604V43.5225Z" fill="#6D4541"/>
<path d="M52.6604 41.7506H50.8911V43.5199H52.6604V41.7506Z" fill="#E0AD86"/>
<path d="M52.6604 39.9998H50.8911V41.7533H52.6604V39.9998Z" fill="#E0AD86"/>
<path d="M52.6604 38.2279H50.8911V39.9972H52.6604V38.2279Z" fill="#E0AD86"/>
<path d="M52.6604 36.4796H50.8911V38.2331H52.6604V36.4796Z" fill="#BA7D54"/>
<path d="M52.6604 34.7078H50.8911V36.477H52.6604V34.7078Z" fill="#1C1C1C"/>
<path d="M52.6604 32.9385H50.8911V34.7078H52.6604V32.9385Z" fill="#545453"/>
<path d="M52.6604 31.1851H50.8911V32.9385H52.6604V31.1851Z" fill="#507993"/>
<path d="M52.6604 29.4183H50.8911V31.1876H52.6604V29.4183Z" fill="#679EC6"/>
<path d="M52.6604 27.6649H50.8911V29.4183H52.6604V27.6649Z" fill="#679EC6"/>
<path d="M52.6604 25.8956H50.8911V27.6649H52.6604V25.8956Z" fill="#679EC6"/>
<path d="M52.6604 24.1421H50.8911V25.8956H52.6604V24.1421Z" fill="#507993"/>
<path d="M52.6604 22.3729H50.8911V24.1421H52.6604V22.3729Z" fill="black"/>
<path d="M52.6604 20.6219H50.8911V22.3754H52.6604V20.6219Z" fill="black"/>
<path d="M50.8961 71.7124H49.1426V73.4659H50.8961V71.7124Z" fill="black"/>
<path d="M50.8961 69.9406H49.1426V71.7098H50.8961V69.9406Z" fill="#1C323A"/>
<path d="M50.8961 68.1923H49.1426V69.9458H50.8961V68.1923Z" fill="#354D59"/>
<path d="M50.8961 66.4204H49.1426V68.1897H50.8961V66.4204Z" fill="#354D59"/>
<path d="M50.8961 64.6696H49.1426V66.423H50.8961V64.6696Z" fill="#354D59"/>
<path d="M50.8961 62.8976H49.1426V64.6668H50.8961V62.8976Z" fill="#1C323A"/>
<path d="M50.8961 61.1284H49.1426V62.8976H50.8961V61.1284Z" fill="#507993"/>
<path d="M50.8961 59.3774H49.1426V61.1309H50.8961V59.3774Z" fill="#79B6EE"/>
<path d="M50.8961 57.6083H49.1426V59.3774H50.8961V57.6083Z" fill="#679EC6"/>
<path d="M50.8961 55.8547H49.1426V57.6083H50.8961V55.8547Z" fill="#679EC6"/>
<path d="M50.8961 54.0854H49.1426V55.8547H50.8961V54.0854Z" fill="#679EC6"/>
<path d="M50.8961 52.3346H49.1426V54.0881H50.8961V52.3346Z" fill="#679EC6"/>
<path d="M50.8961 50.5654H49.1426V52.3346H50.8961V50.5654Z" fill="#679EC6"/>
<path d="M50.8961 48.8119H49.1426V50.5654H50.8961V48.8119Z" fill="#679EC6"/>
<path d="M50.8961 47.0426H49.1426V48.8119H50.8961V47.0426Z" fill="#679EC6"/>
<path d="M50.8961 45.2708H49.1426V47.04H50.8961V45.2708Z" fill="#6D4541"/>
<path d="M50.8961 43.5225H49.1426V45.276H50.8961V43.5225Z" fill="#6D4541"/>
<path d="M50.8961 41.7506H49.1426V43.5199H50.8961V41.7506Z" fill="#E0AD86"/>
<path d="M50.8961 39.9998H49.1426V41.7533H50.8961V39.9998Z" fill="#E0AD86"/>
<path d="M50.8961 38.2279H49.1426V39.9972H50.8961V38.2279Z" fill="#E0AD86"/>
<path d="M50.8961 36.4796H49.1426V38.2331H50.8961V36.4796Z" fill="#BA7D54"/>
<path d="M50.8961 34.7078H49.1426V36.477H50.8961V34.7078Z" fill="#BA7D54"/>
<path d="M50.8961 32.9385H49.1426V34.7078H50.8961V32.9385Z" fill="#507993"/>
<path d="M50.8961 31.1851H49.1426V32.9385H50.8961V31.1851Z" fill="#679EC6"/>
<path d="M50.8961 29.4183H49.1426V31.1876H50.8961V29.4183Z" fill="#679EC6"/>
<path d="M50.8961 27.6649H49.1426V29.4183H50.8961V27.6649Z" fill="#679EC6"/>
<path d="M50.8961 25.8956H49.1426V27.6649H50.8961V25.8956Z" fill="#679EC6"/>
<path d="M50.8961 24.1421H49.1426V25.8956H50.8961V24.1421Z" fill="#679EC6"/>
<path d="M50.8961 22.3729H49.1426V24.1421H50.8961V22.3729Z" fill="#507993"/>
<path d="M50.8961 20.6219H49.1426V22.3754H50.8961V20.6219Z" fill="black"/>
<path d="M49.1399 80.5245H47.3706V82.278H49.1399V80.5245Z" fill="black"/>
<path d="M49.1399 78.7552H47.3706V80.5245H49.1399V78.7552Z" fill="black"/>
<path d="M49.1399 77.0044H47.3706V78.7579H49.1399V77.0044Z" fill="black"/>
<path d="M49.1399 75.2351H47.3706V77.0044H49.1399V75.2351Z" fill="black"/>
<path d="M49.1399 73.4633H47.3706V75.2325H49.1399V73.4633Z" fill="black"/>
<path d="M49.1399 71.7124H47.3706V73.4659H49.1399V71.7124Z" fill="black"/>
<path d="M49.1399 69.9406H47.3706V71.7098H49.1399V69.9406Z" fill="#1C323A"/>
<path d="M49.1399 68.1923H47.3706V69.9458H49.1399V68.1923Z" fill="#1C323A"/>
<path d="M49.1399 66.4204H47.3706V68.1897H49.1399V66.4204Z" fill="#1C323A"/>
<path d="M49.1399 64.6696H47.3706V66.423H49.1399V64.6696Z" fill="#354D59"/>
<path d="M49.1399 62.8976H47.3706V64.6668H49.1399V62.8976Z" fill="#354D59"/>
<path d="M49.1399 61.1284H47.3706V62.8976H49.1399V61.1284Z" fill="#507993"/>
<path d="M49.1399 59.3774H47.3706V61.1309H49.1399V59.3774Z" fill="#679EC6"/>
<path d="M49.1399 57.6083H47.3706V59.3774H49.1399V57.6083Z" fill="#79B6EE"/>
<path d="M49.1399 55.8547H47.3706V57.6083H49.1399V55.8547Z" fill="#79B6EE"/>
<path d="M49.1399 54.0854H47.3706V55.8547H49.1399V54.0854Z" fill="#679EC6"/>
<path d="M49.1399 52.3346H47.3706V54.0881H49.1399V52.3346Z" fill="#679EC6"/>
<path d="M49.1399 50.5654H47.3706V52.3346H49.1399V50.5654Z" fill="#679EC6"/>
<path d="M49.1399 48.8119H47.3706V50.5654H49.1399V48.8119Z" fill="#679EC6"/>
<path d="M49.1399 47.0426H47.3706V48.8119H49.1399V47.0426Z" fill="#679EC6"/>
<path d="M49.1399 45.2708H47.3706V47.04H49.1399V45.2708Z" fill="#6D4541"/>
<path d="M49.1399 43.5225H47.3706V45.276H49.1399V43.5225Z" fill="#6D4541"/>
<path d="M49.1399 41.7506H47.3706V43.5199H49.1399V41.7506Z" fill="#E0AD86"/>
<path d="M49.1399 39.9998H47.3706V41.7533H49.1399V39.9998Z" fill="#E0AD86"/>
<path d="M49.1399 38.2279H47.3706V39.9972H49.1399V38.2279Z" fill="#E0AD86"/>
<path d="M49.1399 36.4796H47.3706V38.2331H49.1399V36.4796Z" fill="#BA7D54"/>
<path d="M49.1399 34.7078H47.3706V36.477H49.1399V34.7078Z" fill="#507993"/>
<path d="M49.1399 32.9385H47.3706V34.7078H49.1399V32.9385Z" fill="#679EC6"/>
<path d="M49.1399 31.1851H47.3706V32.9385H49.1399V31.1851Z" fill="#679EC6"/>
<path d="M49.1399 29.4183H47.3706V31.1876H49.1399V29.4183Z" fill="#679EC6"/>
<path d="M49.1399 27.6649H47.3706V29.4183H49.1399V27.6649Z" fill="#679EC6"/>
<path d="M49.1399 25.8956H47.3706V27.6649H49.1399V25.8956Z" fill="#79B6EE"/>
<path d="M49.1399 24.1421H47.3706V25.8956H49.1399V24.1421Z" fill="#79B6EE"/>
<path d="M49.1399 22.3729H47.3706V24.1421H49.1399V22.3729Z" fill="black"/>
<path d="M49.1399 20.6219H47.3706V22.3754H49.1399V20.6219Z" fill="black"/>
<path d="M47.3736 80.5245H45.6201V82.278H47.3736V80.5245Z" fill="black"/>
<path d="M47.3736 78.7552H45.6201V80.5245H47.3736V78.7552Z" fill="#60401E"/>
<path d="M47.3736 77.0044H45.6201V78.7579H47.3736V77.0044Z" fill="#60401E"/>
<path d="M47.3736 75.2351H45.6201V77.0044H47.3736V75.2351Z" fill="#60401E"/>
<path d="M47.3736 73.4633H45.6201V75.2325H47.3736V73.4633Z" fill="#60401E"/>
<path d="M47.3736 71.7124H45.6201V73.4659H47.3736V71.7124Z" fill="#354D59"/>
<path d="M47.3736 69.9406H45.6201V71.7098H47.3736V69.9406Z" fill="#354D59"/>
<path d="M47.3736 68.1923H45.6201V69.9458H47.3736V68.1923Z" fill="#354D59"/>
<path d="M47.3736 66.4204H45.6201V68.1897H47.3736V66.4204Z" fill="#354D59"/>
<path d="M47.3736 64.6696H45.6201V66.423H47.3736V64.6696Z" fill="#354D59"/>
<path d="M47.3736 62.8976H45.6201V64.6668H47.3736V62.8976Z" fill="#354D59"/>
<path d="M47.3736 61.1284H45.6201V62.8976H47.3736V61.1284Z" fill="#507993"/>
<path d="M47.3736 59.3774H45.6201V61.1309H47.3736V59.3774Z" fill="#507993"/>
<path d="M47.3736 57.6083H45.6201V59.3774H47.3736V57.6083Z" fill="#679EC6"/>
<path d="M47.3736 55.8547H45.6201V57.6083H47.3736V55.8547Z" fill="#79B6EE"/>
<path d="M47.3736 54.0854H45.6201V55.8547H47.3736V54.0854Z" fill="#79B6EE"/>
<path d="M47.3736 52.3346H45.6201V54.0881H47.3736V52.3346Z" fill="#679EC6"/>
<path d="M47.3736 50.5654H45.6201V52.3346H47.3736V50.5654Z" fill="#79B6EE"/>
<path d="M47.3736 48.8119H45.6201V50.5654H47.3736V48.8119Z" fill="#79B6EE"/>
<path d="M47.3736 47.0426H45.6201V48.8119H47.3736V47.0426Z" fill="#79B6EE"/>
<path d="M47.3736 45.2708H45.6201V47.04H47.3736V45.2708Z" fill="#6D4541"/>
<path d="M47.3736 43.5225H45.6201V45.276H47.3736V43.5225Z" fill="#6D4541"/>
<path d="M47.3736 41.7506H45.6201V43.5199H47.3736V41.7506Z" fill="#E0AD86"/>
<path d="M47.3736 39.9998H45.6201V41.7533H47.3736V39.9998Z" fill="#E0AD86"/>
<path d="M47.3736 38.2279H45.6201V39.9972H47.3736V38.2279Z" fill="#E0AD86"/>
<path d="M47.3736 36.4796H45.6201V38.2331H47.3736V36.4796Z" fill="#BA7D54"/>
<path d="M47.3736 34.7078H45.6201V36.477H47.3736V34.7078Z" fill="#79B6EE"/>
<path d="M47.3736 32.9385H45.6201V34.7078H47.3736V32.9385Z" fill="#679EC6"/>
<path d="M47.3736 31.1851H45.6201V32.9385H47.3736V31.1851Z" fill="#679EC6"/>
<path d="M47.3736 29.4183H45.6201V31.1876H47.3736V29.4183Z" fill="#79B6EE"/>
<path d="M47.3736 27.6649H45.6201V29.4183H47.3736V27.6649Z" fill="#79B6EE"/>
<path d="M47.3736 25.8956H45.6201V27.6649H47.3736V25.8956Z" fill="#79B6EE"/>
<path d="M47.3736 24.1421H45.6201V25.8956H47.3736V24.1421Z" fill="black"/>
<path d="M47.3736 22.3729H45.6201V24.1421H47.3736V22.3729Z" fill="black"/>
<path d="M45.6174 80.5245H43.8481V82.278H45.6174V80.5245Z" fill="black"/>
<path d="M45.6174 78.7552H43.8481V80.5245H45.6174V78.7552Z" fill="#60401E"/>
<path d="M45.6174 77.0044H43.8481V78.7579H45.6174V77.0044Z" fill="#60401E"/>
<path d="M45.6174 75.2351H43.8481V77.0044H45.6174V75.2351Z" fill="#60401E"/>
<path d="M45.6174 73.4633H43.8481V75.2325H45.6174V73.4633Z" fill="#354D59"/>
<path d="M45.6174 71.7124H43.8481V73.4659H45.6174V71.7124Z" fill="#354D59"/>
<path d="M45.6174 69.9406H43.8481V71.7098H45.6174V69.9406Z" fill="#354D59"/>
<path d="M45.6174 68.1923H43.8481V69.9458H45.6174V68.1923Z" fill="#354D59"/>
<path d="M45.6174 66.4204H43.8481V68.1897H45.6174V66.4204Z" fill="#354D59"/>
<path d="M45.6174 64.6696H43.8481V66.423H45.6174V64.6696Z" fill="#354D59"/>
<path d="M45.6174 62.8976H43.8481V64.6668H45.6174V62.8976Z" fill="#354D59"/>
<path d="M45.6174 61.1284H43.8481V62.8976H45.6174V61.1284Z" fill="#507993"/>
<path d="M45.6174 59.3774H43.8481V61.1309H45.6174V59.3774Z" fill="#507993"/>
<path d="M45.6174 57.6083H43.8481V59.3774H45.6174V57.6083Z" fill="#507993"/>
<path d="M45.6174 55.8547H43.8481V57.6083H45.6174V55.8547Z" fill="#79B6EE"/>
<path d="M45.6174 54.0854H43.8481V55.8547H45.6174V54.0854Z" fill="#679EC6"/>
<path d="M45.6174 52.3346H43.8481V54.0881H45.6174V52.3346Z" fill="#79B6EE"/>
<path d="M45.6174 50.5654H43.8481V52.3346H45.6174V50.5654Z" fill="#79B6EE"/>
<path d="M45.6174 48.8119H43.8481V50.5654H45.6174V48.8119Z" fill="#79B6EE"/>
<path d="M45.6174 47.0426H43.8481V48.8119H45.6174V47.0426Z" fill="#79B6EE"/>
<path d="M45.6174 45.2708H43.8481V47.04H45.6174V45.2708Z" fill="black"/>
<path d="M45.6174 43.5225H43.8481V45.276H45.6174V43.5225Z" fill="#6D4541"/>
<path d="M45.6174 41.7506H43.8481V43.5199H45.6174V41.7506Z" fill="#E0AD86"/>
<path d="M45.6174 39.9998H43.8481V41.7533H45.6174V39.9998Z" fill="#E0AD86"/>
<path d="M45.6174 38.2279H43.8481V39.9972H45.6174V38.2279Z" fill="#E0AD86"/>
<path d="M45.6174 36.4796H43.8481V38.2331H45.6174V36.4796Z" fill="#BA7D54"/>
<path d="M45.6174 34.7078H43.8481V36.477H45.6174V34.7078Z" fill="#0C0A08"/>
<path d="M45.6174 32.9385H43.8481V34.7078H45.6174V32.9385Z" fill="#507993"/>
<path d="M45.6174 31.1851H43.8481V32.9385H45.6174V31.1851Z" fill="#79B6EE"/>
<path d="M45.6174 29.4183H43.8481V31.1876H45.6174V29.4183Z" fill="#79B6EE"/>
<path d="M45.6174 27.6649H43.8481V29.4183H45.6174V27.6649Z" fill="#79B6EE"/>
<path d="M45.6174 25.8956H43.8481V27.6649H45.6174V25.8956Z" fill="black"/>
<path d="M45.6174 24.1421H43.8481V25.8956H45.6174V24.1421Z" fill="black"/>
<path d="M43.8481 80.5245H42.0786V82.278H43.8481V80.5245Z" fill="black"/>
<path d="M43.8481 78.7552H42.0786V80.5245H43.8481V78.7552Z" fill="#60401E"/>
<path d="M43.8481 77.0044H42.0786V78.7579H43.8481V77.0044Z" fill="black"/>
<path d="M43.8481 75.2351H42.0786V77.0044H43.8481V75.2351Z" fill="black"/>
<path d="M43.8481 73.4633H42.0786V75.2325H43.8481V73.4633Z" fill="black"/>
<path d="M43.8481 71.7124H42.0786V73.4659H43.8481V71.7124Z" fill="#354D59"/>
<path d="M43.8481 69.9406H42.0786V71.7098H43.8481V69.9406Z" fill="#354D59"/>
<path d="M43.8481 68.1923H42.0786V69.9458H43.8481V68.1923Z" fill="#354D59"/>
<path d="M43.8481 66.4204H42.0786V68.1897H43.8481V66.4204Z" fill="#354D59"/>
<path d="M43.8481 64.6696H42.0786V66.423H43.8481V64.6696Z" fill="#354D59"/>
<path d="M43.8481 62.8976H42.0786V64.6668H43.8481V62.8976Z" fill="#354D59"/>
<path d="M43.8481 61.1284H42.0786V62.8976H43.8481V61.1284Z" fill="#507993"/>
<path d="M43.8481 59.3774H42.0786V61.1309H43.8481V59.3774Z" fill="black"/>
<path d="M43.8481 57.6083H42.0786V59.3774H43.8481V57.6083Z" fill="#679EC6"/>
<path d="M43.8481 55.8547H42.0786V57.6083H43.8481V55.8547Z" fill="#679EC6"/>
<path d="M43.8481 54.0854H42.0786V55.8547H43.8481V54.0854Z" fill="#79B6EE"/>
<path d="M43.8481 52.3346H42.0786V54.0881H43.8481V52.3346Z" fill="#79B6EE"/>
<path d="M43.8481 50.5654H42.0786V52.3346H43.8481V50.5654Z" fill="#79B6EE"/>
<path d="M43.8481 48.8119H42.0786V50.5654H43.8481V48.8119Z" fill="#679EC6"/>
<path d="M43.8481 47.0426H42.0786V48.8119H43.8481V47.0426Z" fill="black"/>
<path d="M43.8481 45.2708H42.0786V47.04H43.8481V45.2708Z" fill="black"/>
<path d="M43.8481 43.5225H42.0786V45.276H43.8481V43.5225Z" fill="black"/>
<path d="M43.8481 41.7506H42.0786V43.5199H43.8481V41.7506Z" fill="black"/>
<path d="M43.8481 39.9998H42.0786V41.7533H43.8481V39.9998Z" fill="#79B6EE"/>
<path d="M43.8481 38.2279H42.0786V39.9972H43.8481V38.2279Z" fill="#79B6EE"/>
<path d="M43.8481 36.4796H42.0786V38.2331H43.8481V36.4796Z" fill="#BA7D54"/>
<path d="M43.8481 34.7078H42.0786V36.477H43.8481V34.7078Z" fill="#BA7D54"/>
<path d="M43.8481 32.9385H42.0786V34.7078H43.8481V32.9385Z" fill="#BA7D54"/>
<path d="M43.8481 31.1851H42.0786V32.9385H43.8481V31.1851Z" fill="#79B6EE"/>
<path d="M43.8481 29.4183H42.0786V31.1876H43.8481V29.4183Z" fill="#79B6EE"/>
<path d="M43.8481 27.6649H42.0786V29.4183H43.8481V27.6649Z" fill="black"/>
<path d="M43.8481 25.8956H42.0786V27.6649H43.8481V25.8956Z" fill="black"/>
<path d="M42.0811 80.5245H40.3276V82.278H42.0811V80.5245Z" fill="black"/>
<path d="M42.0811 78.7552H40.3276V80.5245H42.0811V78.7552Z" fill="black"/>
<path d="M42.0811 77.0044H40.3276V78.7579H42.0811V77.0044Z" fill="black"/>
<path d="M42.0811 73.4633H40.3276V75.2325H42.0811V73.4633Z" fill="black"/>
<path d="M42.0811 71.7124H40.3276V73.4659H42.0811V71.7124Z" fill="black"/>
<path d="M42.0811 69.9406H40.3276V71.7098H42.0811V69.9406Z" fill="black"/>
<path d="M42.0811 68.1923H40.3276V69.9458H42.0811V68.1923Z" fill="#354D59"/>
<path d="M42.0811 66.4204H40.3276V68.1897H42.0811V66.4204Z" fill="#354D59"/>
<path d="M42.0811 64.6696H40.3276V66.423H42.0811V64.6696Z" fill="#507993"/>
<path d="M42.0811 62.8976H40.3276V64.6668H42.0811V62.8976Z" fill="#507993"/>
<path d="M42.0811 61.1284H40.3276V62.8976H42.0811V61.1284Z" fill="black"/>
<path d="M42.0811 59.3774H40.3276V61.1309H42.0811V59.3774Z" fill="black"/>
<path d="M42.0811 57.6083H40.3276V59.3774H42.0811V57.6083Z" fill="#79B6EE"/>
<path d="M42.0811 55.8547H40.3276V57.6083H42.0811V55.8547Z" fill="#79B6EE"/>
<path d="M42.0811 54.0854H40.3276V55.8547H42.0811V54.0854Z" fill="#79B6EE"/>
<path d="M42.0811 52.3346H40.3276V54.0881H42.0811V52.3346Z" fill="#79B6EE"/>
<path d="M42.0811 50.5654H40.3276V52.3346H42.0811V50.5654Z" fill="#679EC6"/>
<path d="M42.0811 48.8119H40.3276V50.5654H42.0811V48.8119Z" fill="black"/>
<path d="M42.0811 41.7506H40.3276V43.5199H42.0811V41.7506Z" fill="black"/>
<path d="M42.0811 39.9998H40.3276V41.7533H42.0811V39.9998Z" fill="black"/>
<path d="M42.0811 38.2279H40.3276V39.9972H42.0811V38.2279Z" fill="black"/>
<path d="M42.0811 36.4796H40.3276V38.2331H42.0811V36.4796Z" fill="#79B6EE"/>
<path d="M42.0811 34.7078H40.3276V36.477H42.0811V34.7078Z" fill="#79B6EE"/>
<path d="M42.0811 32.9385H40.3276V34.7078H42.0811V32.9385Z" fill="#79B6EE"/>
<path d="M42.0811 31.1851H40.3276V32.9385H42.0811V31.1851Z" fill="black"/>
<path d="M42.0811 29.4183H40.3276V31.1876H42.0811V29.4183Z" fill="black"/>
<path d="M42.0811 27.6649H40.3276V29.4183H42.0811V27.6649Z" fill="black"/>
<path d="M40.3276 80.5245H38.5586V82.278H40.3276V80.5245Z" fill="black"/>
<path d="M40.3276 78.7552H38.5586V80.5245H40.3276V78.7552Z" fill="black"/>
<path d="M40.3276 69.9406H38.5586V71.7098H40.3276V69.9406Z" fill="black"/>
<path d="M40.3276 68.1923H38.5586V69.9458H40.3276V68.1923Z" fill="black"/>
<path d="M40.3276 66.4204H38.5586V68.1897H40.3276V66.4204Z" fill="black"/>
<path d="M40.3276 64.6696H38.5586V66.423H40.3276V64.6696Z" fill="black"/>
<path d="M40.3276 62.8976H38.5586V64.6668H40.3276V62.8976Z" fill="black"/>
<path d="M40.3276 61.1284H38.5586V62.8976H40.3276V61.1284Z" fill="black"/>
<path d="M40.3276 59.3774H38.5586V61.1309H40.3276V59.3774Z" fill="#E0AD86"/>
<path d="M40.3276 57.6083H38.5586V59.3774H40.3276V57.6083Z" fill="#E0AD86"/>
<path d="M40.3276 55.8547H38.5586V57.6083H40.3276V55.8547Z" fill="#79B6EE"/>
<path d="M40.3276 54.0854H38.5586V55.8547H40.3276V54.0854Z" fill="#79B6EE"/>
<path d="M40.3276 52.3346H38.5586V54.0881H40.3276V52.3346Z" fill="#679EC6"/>
<path d="M40.3276 50.5654H38.5586V52.3346H40.3276V50.5654Z" fill="black"/>
<path d="M40.3276 38.2279H38.5586V39.9972H40.3276V38.2279Z" fill="black"/>
<path d="M40.3276 36.4796H38.5586V38.2331H40.3276V36.4796Z" fill="black"/>
<path d="M40.3276 34.7078H38.5586V36.477H40.3276V34.7078Z" fill="black"/>
<path d="M40.3276 32.9385H38.5586V34.7078H40.3276V32.9385Z" fill="black"/>
<path d="M40.3276 31.1851H38.5586V32.9385H40.3276V31.1851Z" fill="black"/>
<path d="M38.5586 62.8976H36.8052V64.6668H38.5586V62.8976Z" fill="black"/>
<path d="M38.5586 61.1284H36.8052V62.8976H38.5586V61.1284Z" fill="#E0AD86"/>
<path d="M38.5586 59.3774H36.8052V61.1309H38.5586V59.3774Z" fill="#E0AD86"/>
<path d="M38.5586 57.6083H36.8052V59.3774H38.5586V57.6083Z" fill="#E0AD86"/>
<path d="M38.5586 55.8547H36.8052V57.6083H38.5586V55.8547Z" fill="#E0AD86"/>
<path d="M38.5586 54.0854H36.8052V55.8547H38.5586V54.0854Z" fill="black"/>
<path d="M38.5586 52.3346H36.8052V54.0881H38.5586V52.3346Z" fill="black"/>
<path d="M36.8052 61.1284H35.0356V62.8977L36.8052 62.8976V61.1284Z" fill="black"/>
<path d="M36.8052 59.3774H35.0356V61.1309H36.8052V59.3774Z" fill="black"/>
<path d="M36.8052 57.6083H35.0356V59.3774H36.8052V57.6083Z" fill="#E0AD86"/>
<path d="M36.8052 55.8547H35.0356V57.6083H36.8052V55.8547Z" fill="black"/>
<path d="M35.0387 80.5245H33.2852V82.278H35.0387V80.5245Z" fill="#B50012"/>
<path d="M35.0387 77.0044H33.2852V78.7579H35.0387V77.0044Z" fill="#B50012"/>
<path d="M35.0387 59.3774H33.2852V61.1309H35.0387V59.3774Z" fill="#B50012"/>
<path d="M35.0387 57.6083H33.2852V59.3774H35.0387V57.6083Z" fill="#4A4A68"/>
<path d="M35.0387 55.8547H33.2852V57.6083H35.0387V55.8547Z" fill="#B50012"/>
<path d="M35.0387 54.0854H33.2852V55.8547H35.0387V54.0854Z" fill="#B50012"/>
<path d="M33.2852 80.5245H31.5156V82.278H33.2852V80.5245Z" fill="#B50012"/>
<path d="M33.2849 73.4633H31.5156V75.2325H33.2849V73.4633Z" fill="#B50012"/>
<path d="M33.2849 71.7124H31.5156V73.4659H33.2849V71.7124Z" fill="#B50012"/>
<path d="M33.2852 57.6083H31.5156V59.3775L33.2852 59.3774V57.6083Z" fill="#B50012"/>
<path d="M33.2852 55.8547H31.5156V57.6083H33.2852V55.8547Z" fill="#727B9B"/>
<path d="M33.2852 54.0854H31.5156V55.8547H33.2852V54.0854Z" fill="#727B9B"/>
<path d="M33.2849 52.3346H31.5156V54.0881H33.2849V52.3346Z" fill="#B50012"/>
<path d="M33.2849 50.5654H31.5156V52.3346H33.2849V50.5654Z" fill="#B50012"/>
<path d="M31.5156 80.5245H29.7466V82.278H31.5156V80.5245Z" fill="#B50012"/>
<path d="M31.5158 78.7552H29.7466V80.5245H31.5156L31.5158 78.7552Z" fill="#B50012"/>
<path d="M31.5156 59.3775L29.7466 59.3774V61.1309H31.5158L31.5156 59.3775Z" fill="#B50012"/>
<path d="M31.5156 57.6083H29.7466V59.3774L31.5156 59.3775V57.6083Z" fill="#B50012"/>
<path d="M31.5156 55.8547H29.7466V57.6083H31.5156V55.8547Z" fill="#B50012"/>
<path d="M31.5156 54.0854H29.7466V55.8547H31.5156V54.0854Z" fill="#727B9B"/>
<path d="M31.5156 52.3346H29.7466V54.0881H31.5156V52.3346Z" fill="#727B9B"/>
<path d="M31.5156 50.5654H29.7466V52.3346H31.5156V50.5654Z" fill="#727B9B"/>
<path d="M31.5158 48.8119H29.7466V50.5654H31.5156L31.5158 48.8119Z" fill="#B50012"/>
<path d="M31.5158 47.0426H29.7466V48.8119H31.5158V47.0426Z" fill="#B50012"/>
<path d="M29.7466 80.5245H27.9932V82.278H29.7466V80.5245Z" fill="#B50012"/>
<path d="M29.7467 75.2351H27.9932V77.0044H29.7467V75.2351Z" fill="#B50012"/>
<path d="M29.7467 64.6696H27.9932V66.423H29.7467V64.6696Z" fill="#B50012"/>
<path d="M29.7467 62.8976H27.9932V64.6668H29.7467V62.8976Z" fill="#B50012"/>
<path d="M29.7466 55.8547H27.9932V57.6082L29.7466 57.6083V55.8547Z" fill="#B50012"/>
<path d="M29.7466 54.0854H27.9932V55.8547H29.7466V54.0854Z" fill="#B50012"/>
<path d="M29.7466 52.3346H27.9932V54.0881H29.7466V52.3346Z" fill="#B50012"/>
<path d="M29.7466 50.5654H27.9932V52.3346H29.7466V50.5654Z" fill="#727B9B"/>
<path d="M29.7466 48.8119H27.9932V50.5654H29.7466V48.8119Z" fill="#727B9B"/>
<path d="M29.7466 47.0426H27.9932V48.8119H29.7466V47.0426Z" fill="#727B9B"/>
<path d="M29.7467 45.2708H27.9932V47.04H29.7467V45.2708Z" fill="#B50012"/>
<path d="M27.9904 52.3346H26.2212V54.0881H27.9904V52.3346Z" fill="#B50012"/>
<path d="M27.9904 50.5654H26.2212V52.3346H27.9904V50.5654Z" fill="#B50012"/>
<path d="M27.9904 48.8119H26.2212V50.5654H27.9904V48.8119Z" fill="#B50012"/>
<path d="M27.9904 47.0426H26.2212V48.8119H27.9904V47.0426Z" fill="#B50012"/>
</svg>
