<svg width="105" height="105" viewBox="0 0 105 105" fill="none" xmlns="http://www.w3.org/2000/svg">
<path d="M52.5005 4.73279C78.8815 4.73297 100.267 26.1194 100.267 52.5004C100.267 78.8812 78.8813 100.267 52.5005 100.267C26.1195 100.267 4.73309 78.8813 4.73291 52.5004C4.73291 26.1192 26.1194 4.73279 52.5005 4.73279Z" fill="#F9F7E7" stroke="#29100A" stroke-width="2"/>
<path d="M76.6737 67.977H74.8415V69.8303H76.6737V67.977Z" fill="black"/>
<path d="M76.6737 66.1448H74.8415V67.977H76.6737V66.1448Z" fill="black"/>
<path d="M76.6737 64.2915H74.8415V66.1448H76.6737V64.2915Z" fill="black"/>
<path d="M76.6737 62.4409H74.8415V64.2915H76.6737V62.4409Z" fill="black"/>
<path d="M76.6737 60.606H74.8415V62.4383H76.6737V60.606Z" fill="black"/>
<path d="M76.6737 58.7554H74.8415V60.6087H76.6737V58.7554Z" fill="black"/>
<path d="M76.6737 56.9232H74.8415V58.7554H76.6737V56.9232Z" fill="black"/>
<path d="M76.6737 55.0699H74.8415V56.9232H76.6737V55.0699Z" fill="black"/>
<path d="M76.6737 53.2377H74.8415V55.0699H76.6737V53.2377Z" fill="black"/>
<path d="M76.6737 51.3844H74.8415V53.2377H76.6737V51.3844Z" fill="black"/>
<path d="M76.6737 49.5522H74.8415V51.3844H76.6737V49.5522Z" fill="black"/>
<path d="M76.6737 47.6989H74.8415V49.5522H76.6737V47.6989Z" fill="black"/>
<path d="M76.6737 45.8483H74.8415V47.7015H76.6737V45.8483Z" fill="black"/>
<path d="M76.6737 38.4773H74.8415V40.3305H76.6737V38.4773Z" fill="black"/>
<path d="M76.6737 36.645H74.8415V38.4773H76.6737V36.645Z" fill="black"/>
<path d="M76.6737 34.7918H74.8415V36.645H76.6737V34.7918Z" fill="black"/>
<path d="M76.6737 32.9412H74.8415V34.7944H76.6737V32.9412Z" fill="black"/>
<path d="M74.8441 69.8303H72.9909V71.6625H74.8441V69.8303Z" fill="black"/>
<path d="M74.8441 67.977H72.9909V69.8303H74.8441V67.977Z" fill="#577C57"/>
<path d="M74.8441 66.1448H72.9909V67.977H74.8441V66.1448Z" fill="#577C57"/>
<path d="M74.8441 64.2915H72.9909V66.1448H74.8441V64.2915Z" fill="#577C57"/>
<path d="M74.8441 62.4409H72.9909V64.2915H74.8441V62.4409Z" fill="#577C57"/>
<path d="M74.8441 60.606H72.9909V62.4383H74.8441V60.606Z" fill="#577C57"/>
<path d="M74.8441 58.7554H72.9909V60.6087H74.8441V58.7554Z" fill="#668466"/>
<path d="M74.8441 56.9232H72.9909V58.7554H74.8441V56.9232Z" fill="#668466"/>
<path d="M74.8441 55.0699H72.9909V56.9232H74.8441V55.0699Z" fill="#668466"/>
<path d="M74.8441 53.2377H72.9909V55.0699H74.8441V53.2377Z" fill="#577C57"/>
<path d="M74.8441 51.3844H72.9909V53.2377H74.8441V51.3844Z" fill="#577C57"/>
<path d="M74.8441 49.5522H72.9909V51.3844H74.8441V49.5522Z" fill="#577C57"/>
<path d="M74.8441 47.6989H72.9909V49.5522H74.8441V47.6989Z" fill="#577C57"/>
<path d="M74.8441 45.8483H72.9909V47.7015H74.8441V45.8483Z" fill="#577C57"/>
<path d="M74.8441 44.016H72.9909V45.8483H74.8441V44.016Z" fill="black"/>
<path d="M74.8441 42.1628H72.9909V44.016H74.8441V42.1628Z" fill="black"/>
<path d="M74.8441 40.3305H72.9909V42.1628H74.8441V40.3305Z" fill="black"/>
<path d="M74.8441 38.4773H72.9909V40.3305H74.8441V38.4773Z" fill="#668466"/>
<path d="M74.8441 36.645H72.9909V38.4773H74.8441V36.645Z" fill="#446644"/>
<path d="M74.8441 34.7918H72.9909V36.645H74.8441V34.7918Z" fill="#446644"/>
<path d="M74.8441 32.9412H72.9909V34.7944H74.8441V32.9412Z" fill="#668466"/>
<path d="M74.8441 31.1089H72.9909V32.9412H74.8441V31.1089Z" fill="black"/>
<path d="M74.8441 29.2557H72.9909V31.1089H74.8441V29.2557Z" fill="black"/>
<path d="M72.9909 69.8303H71.1402V71.6625H72.9909V69.8303Z" fill="black"/>
<path d="M72.9909 67.977H71.1402V69.8303H72.9909V67.977Z" fill="#446644"/>
<path d="M72.9909 66.1448H71.1402V67.977H72.9909V66.1448Z" fill="#668466"/>
<path d="M72.9909 64.2915H71.1402V66.1448H72.9909V64.2915Z" fill="#668466"/>
<path d="M72.9909 62.4409H71.1402V64.2915H72.9909V62.4409Z" fill="#668466"/>
<path d="M72.9909 60.606H71.1402V62.4383H72.9909V60.606Z" fill="#668466"/>
<path d="M72.9909 58.7554H71.1402V60.6087H72.9909V58.7554Z" fill="#668466"/>
<path d="M72.9909 56.9232H71.1402V58.7554H72.9909V56.9232Z" fill="#668466"/>
<path d="M72.9909 55.0699H71.1402V56.9232H72.9909V55.0699Z" fill="#668466"/>
<path d="M72.9909 53.2377H71.1402V55.0699H72.9909V53.2377Z" fill="#668466"/>
<path d="M72.9909 51.3844H71.1402V53.2377H72.9909V51.3844Z" fill="#668466"/>
<path d="M72.9909 49.5522H71.1402V51.3844H72.9909V49.5522Z" fill="#668466"/>
<path d="M72.9909 47.6989H71.1402V49.5522H72.9909V47.6989Z" fill="#668466"/>
<path d="M72.9909 45.8483H71.1402V47.7015H72.9909V45.8483Z" fill="#577C57"/>
<path d="M72.9909 44.016H71.1402V45.8483H72.9909V44.016Z" fill="#446644"/>
<path d="M72.9909 42.1628H71.1402V44.016H72.9909V42.1628Z" fill="#668466"/>
<path d="M72.9909 40.3305H71.1402V42.1628H72.9909V40.3305Z" fill="#668466"/>
<path d="M72.9909 38.4773H71.1402V40.3305H72.9909V38.4773Z" fill="#446644"/>
<path d="M72.9909 36.645H71.1402V38.4773H72.9909V36.645Z" fill="#668466"/>
<path d="M72.9909 34.7918H71.1402V36.645H72.9909V34.7918Z" fill="#668466"/>
<path d="M72.9909 32.9412H71.1402V34.7944H72.9909V32.9412Z" fill="#446644"/>
<path d="M72.9909 31.1089H71.1402V32.9412H72.9909V31.1089Z" fill="#668466"/>
<path d="M72.9909 29.2557H71.1402V31.1089H72.9909V29.2557Z" fill="black"/>
<path d="M71.1376 69.8303H69.3027V71.6625H71.1376V69.8303Z" fill="black"/>
<path d="M71.1376 67.977H69.3027V69.8303H71.1376V67.977Z" fill="#446644"/>
<path d="M71.1376 66.1448H69.3027V67.977H71.1376V66.1448Z" fill="#446644"/>
<path d="M71.1376 64.2915H69.3027V66.1448H71.1376V64.2915Z" fill="#446644"/>
<path d="M71.1376 62.4409H69.3027V64.2915H71.1376V62.4409Z" fill="#668466"/>
<path d="M71.1376 60.606H69.3027V62.4383H71.1376V60.606Z" fill="#668466"/>
<path d="M71.1376 58.7554H69.3027V60.6087H71.1376V58.7554Z" fill="#668466"/>
<path d="M71.1376 56.9232H69.3027V58.7554H71.1376V56.9232Z" fill="#668466"/>
<path d="M71.1376 55.0699H69.3027V56.9232H71.1376V55.0699Z" fill="#668466"/>
<path d="M71.1376 53.2377H69.3027V55.0699H71.1376V53.2377Z" fill="#668466"/>
<path d="M71.1376 51.3844H69.3027V53.2377H71.1376V51.3844Z" fill="#668466"/>
<path d="M71.1376 49.5522H69.3027V51.3844H71.1376V49.5522Z" fill="#668466"/>
<path d="M71.1376 47.6989H69.3027V49.5522H71.1376V47.6989Z" fill="#668466"/>
<path d="M71.1376 45.8483H69.3027V47.7015H71.1376V45.8483Z" fill="#668466"/>
<path d="M71.1376 44.016H69.3027V45.8483H71.1376V44.016Z" fill="#446644"/>
<path d="M71.1376 42.1628H69.3027V44.016H71.1376V42.1628Z" fill="#668466"/>
<path d="M71.1376 40.3305H69.3027V42.1628H71.1376V40.3305Z" fill="#668466"/>
<path d="M71.1376 38.4773H69.3027V40.3305H71.1376V38.4773Z" fill="#668466"/>
<path d="M71.1376 36.645H69.3027V38.4773H71.1376V36.645Z" fill="#446644"/>
<path d="M71.1376 34.7918H69.3027V36.645H71.1376V34.7918Z" fill="#668466"/>
<path d="M71.1376 32.9412H69.3027V34.7944H71.1376V32.9412Z" fill="#446644"/>
<path d="M71.1376 31.1089H69.3027V32.9412H71.1376V31.1089Z" fill="#668466"/>
<path d="M71.1376 29.2557H69.3027V31.1089H71.1376V29.2557Z" fill="black"/>
<path d="M69.3054 69.8303H67.4547V71.6625H69.3054V69.8303Z" fill="black"/>
<path d="M69.3054 67.977H67.4547V69.8303H69.3054V67.977Z" fill="#446644"/>
<path d="M69.3054 66.1448H67.4547V67.977H69.3054V66.1448Z" fill="#446644"/>
<path d="M69.3054 64.2915H67.4547V66.1448H69.3054V64.2915Z" fill="#446644"/>
<path d="M69.3054 62.4409H67.4547V64.2915H69.3054V62.4409Z" fill="#446644"/>
<path d="M69.3054 60.606H67.4547V62.4383H69.3054V60.606Z" fill="#668466"/>
<path d="M69.3054 58.7554H67.4547V60.6087H69.3054V58.7554Z" fill="#668466"/>
<path d="M69.3054 56.9232H67.4547V58.7554H69.3054V56.9232Z" fill="#668466"/>
<path d="M69.3054 55.0699H67.4547V56.9232H69.3054V55.0699Z" fill="black"/>
<path d="M69.3054 53.2377H67.4547V55.0699H69.3054V53.2377Z" fill="black"/>
<path d="M69.3054 51.3844H67.4547V53.2377H69.3054V51.3844Z" fill="black"/>
<path d="M69.3054 49.5522H67.4547V51.3844H69.3054V49.5522Z" fill="black"/>
<path d="M69.3054 47.6989H67.4547V49.5522H69.3054V47.6989Z" fill="black"/>
<path d="M69.3054 45.8483H67.4547V47.7015H69.3054V45.8483Z" fill="#668466"/>
<path d="M69.3054 44.016H67.4547V45.8483H69.3054V44.016Z" fill="#446644"/>
<path d="M69.3054 42.1628H67.4547V44.016H69.3054V42.1628Z" fill="black"/>
<path d="M69.3054 40.3305H67.4547V42.1628H69.3054V40.3305Z" fill="black"/>
<path d="M69.3054 38.4773H67.4547V40.3305H69.3054V38.4773Z" fill="black"/>
<path d="M69.3054 36.645H67.4547V38.4773H69.3054V36.645Z" fill="black"/>
<path d="M69.3054 34.7918H67.4547V36.645H69.3054V34.7918Z" fill="#668466"/>
<path d="M69.3054 32.9412H67.4547V34.7944H69.3054V32.9412Z" fill="#668466"/>
<path d="M69.3054 31.1089H67.4547V32.9412H69.3054V31.1089Z" fill="#668466"/>
<path d="M69.3054 29.2557H67.4547V31.1089H69.3054V29.2557Z" fill="black"/>
<path d="M67.4521 82.7374H65.6199V84.5697H67.4521V82.7374Z" fill="black"/>
<path d="M67.4521 80.8842H65.6199V82.7374H67.4521V80.8842Z" fill="black"/>
<path d="M67.4521 69.8303H65.6199V71.6625H67.4521V69.8303Z" fill="black"/>
<path d="M67.4521 67.977H65.6199V69.8303H67.4521V67.977Z" fill="#446644"/>
<path d="M67.4521 66.1448H65.6199V67.977H67.4521V66.1448Z" fill="#446644"/>
<path d="M67.4521 64.2915H65.6199V66.1448H67.4521V64.2915Z" fill="#446644"/>
<path d="M67.4521 62.4409H65.6199V64.2915H67.4521V62.4409Z" fill="#446644"/>
<path d="M67.4521 60.606H65.6199V62.4383H67.4521V60.606Z" fill="#446644"/>
<path d="M67.4521 58.7554H65.6199V60.6087H67.4521V58.7554Z" fill="#446644"/>
<path d="M67.4521 56.9232H65.6199V58.7554H67.4521V56.9232Z" fill="black"/>
<path d="M67.4521 55.0699H65.6199V56.9232H67.4521V55.0699Z" fill="#8ABC8A"/>
<path d="M67.4521 53.2377H65.6199V55.0699H67.4521V53.2377Z" fill="#8ABC8A"/>
<path d="M67.4521 51.3844H65.6199V53.2377H67.4521V51.3844Z" fill="#8ABC8A"/>
<path d="M67.4521 49.5522H65.6199V51.3844H67.4521V49.5522Z" fill="#8ABC8A"/>
<path d="M67.4521 47.6989H65.6199V49.5522H67.4521V47.6989Z" fill="#8ABC8A"/>
<path d="M67.4521 45.8483H65.6199V47.7015H67.4521V45.8483Z" fill="black"/>
<path d="M67.4521 44.016H65.6199V45.8483H67.4521V44.016Z" fill="#446644"/>
<path d="M67.4521 42.1628H65.6199V44.016H67.4521V42.1628Z" fill="black"/>
<path d="M67.4521 40.3305H65.6199V42.1628H67.4521V40.3305Z" fill="#969696"/>
<path d="M67.4521 38.4773H65.6199V40.3305H67.4521V38.4773Z" fill="#969696"/>
<path d="M67.4521 36.645H65.6199V38.4773H67.4521V36.645Z" fill="black"/>
<path d="M67.4521 34.7918H65.6199V36.645H67.4521V34.7918Z" fill="#668466"/>
<path d="M67.4521 32.9412H65.6199V34.7944H67.4521V32.9412Z" fill="#668466"/>
<path d="M67.4521 31.1089H65.6199V32.9412H67.4521V31.1089Z" fill="black"/>
<path d="M65.6199 82.7374H63.7666V84.5697H65.6199V82.7374Z" fill="black"/>
<path d="M65.6199 80.8842H63.7666V82.7374H65.6199V80.8842Z" fill="#724107"/>
<path d="M65.6199 79.0519H63.7666V80.8842H65.6199L65.6199 79.0519Z" fill="black"/>
<path d="M65.6199 77.1987H63.7666V79.0519H65.6199V77.1987Z" fill="black"/>
<path d="M65.6199 67.977H63.7666V69.8303H65.6199V67.977Z" fill="black"/>
<path d="M65.6199 66.1448H63.7666V67.977H65.6199V66.1448Z" fill="#446644"/>
<path d="M65.6199 64.2915H63.7666V66.1448H65.6199V64.2915Z" fill="#446644"/>
<path d="M65.6199 62.4409H63.7666V64.2915H65.6199V62.4409Z" fill="#446644"/>
<path d="M65.6199 60.606H63.7666V62.4383H65.6199V60.606Z" fill="#446644"/>
<path d="M65.6199 58.7554H63.7666V60.6087H65.6199V58.7554Z" fill="black"/>
<path d="M65.6199 56.9232H63.7666V58.7554H65.6199V56.9232Z" fill="#9DCF9D"/>
<path d="M65.6199 55.0699H63.7666V56.9232H65.6199V55.0699Z" fill="#9DCF9D"/>
<path d="M65.6199 53.2377H63.7666V55.0699H65.6199V53.2377Z" fill="#9DCF9D"/>
<path d="M65.6199 51.3844H63.7666V53.2377H65.6199V51.3844Z" fill="#9DCF9D"/>
<path d="M65.6199 49.5522H63.7666V51.3844H65.6199V49.5522Z" fill="#9DCF9D"/>
<path d="M65.6199 47.6989H63.7666V49.5522H65.6199V47.6989Z" fill="#8ABC8A"/>
<path d="M65.6199 45.8483H63.7666V47.7015H65.6199V45.8483Z" fill="#73C6C6"/>
<path d="M65.6199 44.016H63.7666V45.8483H65.6199V44.016Z" fill="black"/>
<path d="M65.6199 42.1628H63.7666V44.016H65.6199V42.1628Z" fill="black"/>
<path d="M65.6199 40.3305H63.7666V42.1628H65.6199V40.3305Z" fill="#969696"/>
<path d="M65.6199 38.4773H63.7666V40.3305H65.6199V38.4773Z" fill="#969696"/>
<path d="M65.6199 36.645H63.7666V38.4773H65.6199V36.645Z" fill="#969696"/>
<path d="M65.6199 34.7918H63.7666V36.645H65.6199V34.7918Z" fill="black"/>
<path d="M65.6199 32.9412H63.7666V34.7944H65.6199V32.9412Z" fill="black"/>
<path d="M63.7666 82.7374H61.9344V84.5697H63.7666V82.7374Z" fill="black"/>
<path d="M63.7666 80.8842H61.9344V82.7374H63.7666V80.8842Z" fill="#724107"/>
<path d="M63.7666 79.0519H61.9344V80.8842H63.7666V79.0519Z" fill="#4C3A1F"/>
<path d="M63.7666 77.1987H61.9344V79.0519H63.7666V77.1987Z" fill="#4C3A1F"/>
<path d="M63.7666 75.348H61.9344V77.1987H63.7666V75.348Z" fill="black"/>
<path d="M63.7666 73.5132H61.9344V75.348H63.7666V73.5132Z" fill="black"/>
<path d="M63.7666 71.6652H61.9344V73.5158H63.7666V71.6652Z" fill="black"/>
<path d="M63.7666 69.8303H61.9344V71.6625H63.7666V69.8303Z" fill="black"/>
<path d="M63.7666 67.977H61.9344V69.8303H63.7666V67.977Z" fill="black"/>
<path d="M63.7666 66.1448H61.9344V67.977H63.7666V66.1448Z" fill="black"/>
<path d="M63.7666 64.2915H61.9344V66.1448H63.7666V64.2915Z" fill="black"/>
<path d="M63.7666 62.4409H61.9344V64.2915H63.7666V62.4409Z" fill="#446644"/>
<path d="M63.7666 60.606H61.9344V62.4383H63.7666V60.606Z" fill="black"/>
<path d="M63.7666 58.7554H61.9344V60.6087H63.7666V58.7554Z" fill="#668466"/>
<path d="M63.7666 56.9232H61.9344V58.7554H63.7666V56.9232Z" fill="#668466"/>
<path d="M63.7666 55.0699H61.9344V56.9232H63.7666V55.0699Z" fill="#668466"/>
<path d="M63.7666 53.2377H61.9344V55.0699H63.7666V53.2377Z" fill="#668466"/>
<path d="M63.7666 51.3844H61.9344V53.2377H63.7666V51.3844Z" fill="#9DCF9D"/>
<path d="M63.7666 49.5522H61.9344V51.3844H63.7666V49.5522Z" fill="#9DCF9D"/>
<path d="M63.7666 47.6989H61.9344V49.5522H63.7666V47.6989Z" fill="#8ABC8A"/>
<path d="M63.7666 45.8483H61.9344V47.7015H63.7666V45.8483Z" fill="#9FF5F7"/>
<path d="M63.7666 44.016H61.9344V45.8483H63.7666V44.016Z" fill="#73C6C6"/>
<path d="M63.7666 42.1628H61.9344V44.016H63.7666V42.1628Z" fill="#969696"/>
<path d="M63.7666 40.3305H61.9344V42.1628H63.7666V40.3305Z" fill="#969696"/>
<path d="M63.7666 38.4773H61.9344V40.3305H63.7666V38.4773Z" fill="#969696"/>
<path d="M63.7666 36.645H61.9344V38.4773H63.7666V36.645Z" fill="#FFD8AE"/>
<path d="M63.7666 34.7918H61.9344V36.645H63.7666V34.7918Z" fill="#969696"/>
<path d="M63.7666 32.9412H61.9344V34.7944H63.7666V32.9412Z" fill="black"/>
<path d="M63.7666 31.1089H61.9344V32.9412H63.7666V31.1089Z" fill="black"/>
<path d="M63.7666 29.2557H61.9344V31.1089H63.7666V29.2557Z" fill="black"/>
<path d="M61.937 82.7374H60.0837V84.5697H61.937V82.7374Z" fill="black"/>
<path d="M61.937 80.8842H60.0837V82.7374H61.937V80.8842Z" fill="#724107"/>
<path d="M61.937 79.0519H60.0837V80.8842H61.937V79.0519Z" fill="#4C3A1F"/>
<path d="M61.937 77.1987H60.0837V79.0519H61.937V77.1987Z" fill="#4C3A1F"/>
<path d="M61.937 75.348H60.0837V77.1987H61.937V75.348Z" fill="#4C3A1F"/>
<path d="M61.937 73.5132H60.0837V75.348H61.937V73.5132Z" fill="#4C3A1F"/>
<path d="M61.937 71.6652H60.0837V73.5158H61.937V71.6652Z" fill="#4C3A1F"/>
<path d="M61.937 69.8303H60.0837V71.6625H61.937V69.8303Z" fill="#634D27"/>
<path d="M61.937 67.977H60.0837V69.8303H61.937V67.977Z" fill="#634D27"/>
<path d="M61.937 66.1448H60.0837V67.977H61.937V66.1448Z" fill="#634D27"/>
<path d="M61.937 64.2915H60.0837V66.1448H61.937V64.2915Z" fill="#634D27"/>
<path d="M61.937 62.4409H60.0837V64.2915H61.937V62.4409Z" fill="black"/>
<path d="M61.937 60.606H60.0837V62.4383H61.937V60.606Z" fill="black"/>
<path d="M61.937 58.7554H60.0837V60.6087H61.937V58.7554Z" fill="#FFD8AE"/>
<path d="M61.937 56.9232H60.0837V58.7554H61.937V56.9232Z" fill="#FFD8AE"/>
<path d="M61.937 55.0699H60.0837V56.9232H61.937V55.0699Z" fill="#FFD8AE"/>
<path d="M61.937 53.2377H60.0837V55.0699H61.937V53.2377Z" fill="#668466"/>
<path d="M61.937 51.3844H60.0837V53.2377H61.937V51.3844Z" fill="#9DCF9D"/>
<path d="M61.937 49.5522H60.0837V51.3844H61.937V49.5522Z" fill="#8ABC8A"/>
<path d="M61.937 47.6989H60.0837V49.5522H61.937V47.6989Z" fill="#9FF5F7"/>
<path d="M61.937 45.8483H60.0837V47.7015H61.937V45.8483Z" fill="#9FF5F7"/>
<path d="M61.937 44.016H60.0837V45.8483H61.937V44.016Z" fill="#9FF5F7"/>
<path d="M61.937 42.1628H60.0837V44.016H61.937V42.1628Z" fill="#73C6C6"/>
<path d="M61.937 40.3305H60.0837V42.1628H61.937V40.3305Z" fill="#73C6C6"/>
<path d="M61.937 38.4773H60.0837V40.3305H61.937V38.4773Z" fill="#DBAB7B"/>
<path d="M61.937 36.645H60.0837V38.4773H61.937V36.645Z" fill="#DBAB7B"/>
<path d="M61.937 34.7918H60.0837V36.645H61.937V34.7918Z" fill="#969696"/>
<path d="M61.937 32.9412H60.0837V34.7944H61.937V32.9412Z" fill="#969696"/>
<path d="M61.937 31.1089H60.0837V32.9412H61.937V31.1089Z" fill="#969696"/>
<path d="M61.937 29.2557H60.0837V31.1089H61.937V29.2557Z" fill="black"/>
<path d="M61.937 27.4234H60.0837V29.2557H61.937V27.4234Z" fill="black"/>
<path d="M60.0837 82.7374H58.2331V84.5697H60.0837V82.7374Z" fill="black"/>
<path d="M60.0837 80.8842H58.2331V82.7374H60.0837V80.8842Z" fill="black"/>
<path d="M60.0837 79.0519H58.2331V80.8842H60.0837V79.0519Z" fill="black"/>
<path d="M60.0837 77.1987H58.2331V79.0519H60.0837V77.1987Z" fill="#4C3A1F"/>
<path d="M60.0837 75.348H58.2331V77.1987H60.0837V75.348Z" fill="#4C3A1F"/>
<path d="M60.0837 73.5132H58.2331V75.348H60.0837V73.5132Z" fill="#634D27"/>
<path d="M60.0837 71.6652H58.2331V73.5158H60.0837V71.6652Z" fill="#634D27"/>
<path d="M60.0837 69.8303H58.2331V71.6625H60.0837V69.8303Z" fill="#634D27"/>
<path d="M60.0837 67.977H58.2331V69.8303H60.0837V67.977Z" fill="#634D27"/>
<path d="M60.0837 66.1448H58.2331V67.977H60.0837V66.1448Z" fill="#634D27"/>
<path d="M60.0837 64.2915H58.2331V66.1448H60.0837V64.2915Z" fill="#634D27"/>
<path d="M60.0837 62.4409H58.2331V64.2915H60.0837V62.4409Z" fill="#4C3A1F"/>
<path d="M60.0837 60.606H58.2331V62.4383H60.0837V60.606Z" fill="#8ABC8A"/>
<path d="M60.0837 58.7554H58.2331V60.6087H60.0837V58.7554Z" fill="#FFD8AE"/>
<path d="M60.0837 56.9232H58.2331V58.7554H60.0837V56.9232Z" fill="#FFD8AE"/>
<path d="M60.0837 55.0699H58.2331V56.9232H60.0837V55.0699Z" fill="#FFD8AE"/>
<path d="M60.0837 53.2377H58.2331V55.0699H60.0837V53.2377Z" fill="#9DCF9D"/>
<path d="M60.0837 51.3844H58.2331V53.2377H60.0837V51.3844Z" fill="#9DCF9D"/>
<path d="M60.0837 49.5522H58.2331V51.3844H60.0837V49.5522Z" fill="#9FF5F7"/>
<path d="M60.0837 47.6989H58.2331V49.5522H60.0837V47.6989Z" fill="#9FF5F7"/>
<path d="M60.0837 45.8483H58.2331V47.7015H60.0837V45.8483Z" fill="#73C6C6"/>
<path d="M60.0837 44.016H58.2331V45.8483H60.0837V44.016Z" fill="#9FF5F7"/>
<path d="M60.0837 42.1628H58.2331V44.016H60.0837V42.1628Z" fill="#9FF5F7"/>
<path d="M60.0837 40.3305H58.2331V42.1628H60.0837V40.3305Z" fill="#73C6C6"/>
<path d="M60.0837 38.4773H58.2331V40.3305H60.0837V38.4773Z" fill="#FFD8AE"/>
<path d="M60.0837 36.645H58.2331V38.4773H60.0837V36.645Z" fill="#FFD8AE"/>
<path d="M60.0837 34.7918H58.2331V36.645H60.0837V34.7918Z" fill="#FFD8AE"/>
<path d="M60.0837 32.9412H58.2331V34.7944H60.0837V32.9412Z" fill="#AFAFAF"/>
<path d="M60.0837 31.1089H58.2331V32.9412H60.0837V31.1089Z" fill="#AFAFAF"/>
<path d="M60.0837 29.2557H58.2331V31.1089H60.0837V29.2557Z" fill="#969696"/>
<path d="M60.0837 27.4234H58.2331V29.2557H60.0837V27.4234Z" fill="#969696"/>
<path d="M60.0837 25.5702H58.2331V27.4234H60.0837V25.5702Z" fill="black"/>
<path d="M58.2305 77.1987H56.3982V79.0519H58.2305V77.1987Z" fill="black"/>
<path d="M58.2305 75.348H56.3982V77.1987H58.2305V75.348Z" fill="black"/>
<path d="M58.2305 73.5132H56.3982V75.348H58.2305V73.5132Z" fill="#634D27"/>
<path d="M58.2305 71.6652H56.3982V73.5158H58.2305V71.6652Z" fill="#634D27"/>
<path d="M58.2305 69.8303H56.3982V71.6625H58.2305V69.8303Z" fill="#634D27"/>
<path d="M58.2305 67.977H56.3982V69.8303H58.2305V67.977Z" fill="#634D27"/>
<path d="M58.2305 66.1448H56.3982V67.977H58.2305V66.1448Z" fill="#634D27"/>
<path d="M58.2305 64.2915H56.3982V66.1448H58.2305V64.2915Z" fill="#634D27"/>
<path d="M58.2305 62.4409H56.3982V64.2915H58.2305V62.4409Z" fill="#4C3A1F"/>
<path d="M58.2305 60.606H56.3982V62.4383H58.2305V60.606Z" fill="#8ABC8A"/>
<path d="M58.2305 58.7554H56.3982V60.6087H58.2305V58.7554Z" fill="#9DCF9D"/>
<path d="M58.2305 56.9232H56.3982V58.7554H58.2305V56.9232Z" fill="#9DCF9D"/>
<path d="M58.2305 55.0699H56.3982V56.9232H58.2305V55.0699Z" fill="#FFD8AE"/>
<path d="M58.2305 53.2377H56.3982V55.0699H58.2305V53.2377Z" fill="#9DCF9D"/>
<path d="M58.2305 51.3844H56.3982V53.2377H58.2305V51.3844Z" fill="#73C6C6"/>
<path d="M58.2305 49.5522H56.3982V51.3844H58.2305V49.5522Z" fill="#9FF5F7"/>
<path d="M58.2305 47.6989H56.3982V49.5522H58.2305V47.6989Z" fill="#9FF5F7"/>
<path d="M58.2305 45.8483H56.3982V47.7015H58.2305V45.8483Z" fill="#9FF5F7"/>
<path d="M58.2305 44.016H56.3982V45.8483H58.2305V44.016Z" fill="#73C6C6"/>
<path d="M58.2305 42.1628H56.3982V44.016H58.2305V42.1628Z" fill="#73C6C6"/>
<path d="M58.2305 40.3305H56.3982V42.1628H58.2305V40.3305Z" fill="#FFD8AE"/>
<path d="M58.2305 38.4773H56.3982V40.3305H58.2305V38.4773Z" fill="#FFD8AE"/>
<path d="M58.2305 36.645H56.3982V38.4773H58.2305V36.645Z" fill="black"/>
<path d="M58.2305 34.7918H56.3982V36.645H58.2305V34.7918Z" fill="#FFD8AE"/>
<path d="M58.2305 32.9412H56.3982V34.7944H58.2305V32.9412Z" fill="#AFAFAF"/>
<path d="M58.2305 31.1089H56.3982V32.9412H58.2305V31.1089Z" fill="#AFAFAF"/>
<path d="M58.2305 29.2557H56.3982V31.1089H58.2305V29.2557Z" fill="#AFAFAF"/>
<path d="M58.2305 27.4234H56.3982V29.2557H58.2305V27.4234Z" fill="#969696"/>
<path d="M58.2305 25.5702H56.3982V27.4234H58.2305V25.5702Z" fill="black"/>
<path d="M56.3982 75.348H54.545V77.1987H56.3982V75.348Z" fill="black"/>
<path d="M56.3982 73.5132H54.545V75.348H56.3982V73.5132Z" fill="black"/>
<path d="M56.3982 71.6652H54.545V73.5158H56.3982V71.6652Z" fill="black"/>
<path d="M56.3982 69.8303H54.545V71.6625H56.3982V69.8303Z" fill="#634D27"/>
<path d="M56.3982 67.977H54.545V69.8303H56.3982V67.977Z" fill="#634D27"/>
<path d="M56.3982 66.1448H54.545V67.977H56.3982V66.1448Z" fill="#634D27"/>
<path d="M56.3982 64.2915H54.545V66.1448H56.3982V64.2915Z" fill="#634D27"/>
<path d="M56.3982 62.4409H54.545V64.2915H56.3982V62.4409Z" fill="#4C3A1F"/>
<path d="M56.3982 60.606H54.545V62.4383H56.3982V60.606Z" fill="#8ABC8A"/>
<path d="M56.3982 58.7554H54.545V60.6087H56.3982V58.7554Z" fill="#9DCF9D"/>
<path d="M56.3982 56.9232H54.545V58.7554H56.3982V56.9232Z" fill="#9DCF9D"/>
<path d="M56.3982 55.0699H54.545V56.9232H56.3982V55.0699Z" fill="#9DCF9D"/>
<path d="M56.3982 53.2377H54.545V55.0699H56.3982V53.2377Z" fill="#9DCF9D"/>
<path d="M56.3982 51.3844H54.545V53.2377H56.3982V51.3844Z" fill="#8ABC8A"/>
<path d="M56.3982 49.5522H54.545V51.3844H56.3982V49.5522Z" fill="#73C6C6"/>
<path d="M56.3982 47.6989H54.545V49.5522H56.3982V47.6989Z" fill="#9FF5F7"/>
<path d="M56.3982 45.8483H54.545V47.7015H56.3982V45.8483Z" fill="#9FF5F7"/>
<path d="M56.3982 44.016H54.545V45.8483H56.3982V44.016Z" fill="#9FF5F7"/>
<path d="M56.3982 42.1628H54.545V44.016H56.3982V42.1628Z" fill="#73C6C6"/>
<path d="M56.3982 40.3305H54.545V42.1628H56.3982V40.3305Z" fill="#FFD8AE"/>
<path d="M56.3982 38.4773H54.545V40.3305H56.3982V38.4773Z" fill="#FFD8AE"/>
<path d="M56.3982 36.645H54.545V38.4773H56.3982V36.645Z" fill="#FFD8AE"/>
<path d="M56.3982 34.7918H54.545V36.645H56.3982V34.7918Z" fill="#FFD8AE"/>
<path d="M56.3982 32.9412H54.545V34.7944H56.3982V32.9412Z" fill="#AFAFAF"/>
<path d="M56.3982 31.1089H54.545V32.9412H56.3982V31.1089Z" fill="#AFAFAF"/>
<path d="M56.3982 29.2557H54.545V31.1089H56.3982V29.2557Z" fill="#AFAFAF"/>
<path d="M56.3982 27.4234H54.545V29.2557H56.3982V27.4234Z" fill="#969696"/>
<path d="M56.3982 25.5702H54.545V27.4234H56.3982V25.5702Z" fill="black"/>
<path d="M54.545 82.7374H52.7127V84.5697H54.545V82.7374Z" fill="black"/>
<path d="M54.545 80.8842H52.7127V82.7374H54.545V80.8842Z" fill="black"/>
<path d="M54.545 79.0519H52.7127V80.8842H54.545V79.0519Z" fill="black"/>
<path d="M54.545 77.1987H52.7127V79.0519H54.545L54.545 77.1987Z" fill="black"/>
<path d="M54.545 75.348H52.7127V77.1987H54.545V75.348Z" fill="#4C3A1F"/>
<path d="M54.545 73.5132H52.7127V75.348H54.545V73.5132Z" fill="#634D27"/>
<path d="M54.545 71.6652H52.7127V73.5158H54.545V71.6652Z" fill="#634D27"/>
<path d="M54.545 69.8303H52.7127V71.6625H54.545V69.8303Z" fill="#634D27"/>
<path d="M54.545 67.977H52.7127V69.8303H54.545V67.977Z" fill="#634D27"/>
<path d="M54.545 66.1448H52.7127V67.977H54.545V66.1448Z" fill="#634D27"/>
<path d="M54.545 64.2915H52.7127V66.1448H54.545V64.2915Z" fill="#4C3A1F"/>
<path d="M54.545 62.4409H52.7127V64.2915H54.545V62.4409Z" fill="#8ABC8A"/>
<path d="M54.545 60.606H52.7127V62.4383H54.545V60.606Z" fill="#8ABC8A"/>
<path d="M54.545 58.7554H52.7127V60.6087H54.545V58.7554Z" fill="#9DCF9D"/>
<path d="M54.545 56.9232H52.7127V58.7554H54.545V56.9232Z" fill="#9DCF9D"/>
<path d="M54.545 55.0699H52.7127V56.9232H54.545V55.0699Z" fill="#9DCF9D"/>
<path d="M54.545 53.2377H52.7127V55.0699H54.545V53.2377Z" fill="#9DCF9D"/>
<path d="M54.545 51.3844H52.7127V53.2377H54.545V51.3844Z" fill="#8ABC8A"/>
<path d="M54.545 49.5522H52.7127V51.3844H54.545V49.5522Z" fill="#8ABC8A"/>
<path d="M54.545 47.6989H52.7127V49.5522H54.545V47.6989Z" fill="#73C6C6"/>
<path d="M54.545 45.8483H52.7127V47.7015H54.545V45.8483Z" fill="#9FF5F7"/>
<path d="M54.545 44.016H52.7127V45.8483H54.545V44.016Z" fill="#9FF5F7"/>
<path d="M54.545 42.1628H52.7127V44.016H54.545V42.1628Z" fill="#73C6C6"/>
<path d="M54.545 40.3305H52.7127V42.1628H54.545V40.3305Z" fill="#FFD8AE"/>
<path d="M54.545 38.4773H52.7127V40.3305H54.545V38.4773Z" fill="#FFD8AE"/>
<path d="M54.545 36.645H52.7127V38.4773H54.545V36.645Z" fill="#FFD8AE"/>
<path d="M54.545 34.7918H52.7127V36.645H54.545V34.7918Z" fill="#FFD8AE"/>
<path d="M54.545 32.9412H52.7127V34.7944H54.545V32.9412Z" fill="#AFAFAF"/>
<path d="M54.545 31.1089H52.7127V32.9412H54.545V31.1089Z" fill="#AFAFAF"/>
<path d="M54.545 29.2557H52.7127V31.1089H54.545V29.2557Z" fill="#AFAFAF"/>
<path d="M54.545 27.4234H52.7127V29.2557H54.545V27.4234Z" fill="#AFAFAF"/>
<path d="M54.545 25.5702H52.7127V27.4234H54.545V25.5702Z" fill="#969696"/>
<path d="M54.545 23.7379H52.7127V25.5702H54.545L54.545 23.7379Z" fill="black"/>
<path d="M52.7127 82.7374H50.8595V84.5697H52.7127V82.7374Z" fill="black"/>
<path d="M52.7127 80.8842H50.8595V82.7374H52.7127V80.8842Z" fill="#724107"/>
<path d="M52.7127 79.0519H50.8595V80.8842H52.7127V79.0519Z" fill="#4C3A1F"/>
<path d="M52.7127 77.1987H50.8595V79.0519H52.7127V77.1987Z" fill="#4C3A1F"/>
<path d="M52.7127 75.348H50.8595V77.1987H52.7127V75.348Z" fill="#4C3A1F"/>
<path d="M52.7127 73.5132H50.8595V75.348H52.7127V73.5132Z" fill="#4C3A1F"/>
<path d="M52.7127 71.6652H50.8595V73.5158H52.7127V71.6652Z" fill="#634D27"/>
<path d="M52.7127 69.8303H50.8595V71.6625H52.7127V69.8303Z" fill="#634D27"/>
<path d="M52.7127 67.977H50.8595V69.8303H52.7127V67.977Z" fill="#634D27"/>
<path d="M52.7127 66.1448H50.8595V67.977H52.7127V66.1448Z" fill="#634D27"/>
<path d="M52.7127 64.2915H50.8595V66.1448H52.7127V64.2915Z" fill="#4C3A1F"/>
<path d="M52.7127 62.4409H50.8595V64.2915H52.7127V62.4409Z" fill="#8ABC8A"/>
<path d="M52.7127 60.606H50.8595V62.4383H52.7127V60.606Z" fill="#9DCF9D"/>
<path d="M52.7127 58.7554H50.8595V60.6087H52.7127V58.7554Z" fill="#9FF5F7"/>
<path d="M52.7127 56.9232H50.8595V58.7554H52.7127V56.9232Z" fill="#9DCF9D"/>
<path d="M52.7127 55.0699H50.8595V56.9232H52.7127V55.0699Z" fill="#9DCF9D"/>
<path d="M52.7127 53.2377H50.8595V55.0699H52.7127V53.2377Z" fill="#9FF5F7"/>
<path d="M52.7127 51.3844H50.8595V53.2377H52.7127V51.3844Z" fill="#9DCF9D"/>
<path d="M52.7127 49.5522H50.8595V51.3844H52.7127V49.5522Z" fill="#9DCF9D"/>
<path d="M52.7127 47.6989H50.8595V49.5522H52.7127V47.6989Z" fill="#73C6C6"/>
<path d="M52.7127 45.8483H50.8595V47.7015H52.7127V45.8483Z" fill="#9FF5F7"/>
<path d="M52.7127 44.016H50.8595V45.8483H52.7127V44.016Z" fill="#9FF5F7"/>
<path d="M52.7127 42.1628H50.8595V44.016H52.7127V42.1628Z" fill="#73C6C6"/>
<path d="M52.7127 40.3305H50.8595V42.1628H52.7127V40.3305Z" fill="#FFD8AE"/>
<path d="M52.7127 38.4773H50.8595V40.3305H52.7127V38.4773Z" fill="#FFD8AE"/>
<path d="M52.7127 36.645H50.8595V38.4773H52.7127V36.645Z" fill="black"/>
<path d="M52.7127 34.7918H50.8595V36.645H52.7127V34.7918Z" fill="#FFD8AE"/>
<path d="M52.7127 32.9412H50.8595V34.7944H52.7127V32.9412Z" fill="#AFAFAF"/>
<path d="M52.7127 31.1089H50.8595V32.9412H52.7127V31.1089Z" fill="#AFAFAF"/>
<path d="M52.7127 29.2557H50.8595V31.1089H52.7127V29.2557Z" fill="#AFAFAF"/>
<path d="M52.7127 27.4234H50.8595V29.2557H52.7127V27.4234Z" fill="#AFAFAF"/>
<path d="M52.7127 25.5702H50.8595V27.4234H52.7127V25.5702Z" fill="#969696"/>
<path d="M52.7127 23.7379H50.8595V25.5702H52.7127V23.7379Z" fill="black"/>
<path d="M50.8595 82.7374H49.0272V84.5697H50.8595V82.7374Z" fill="black"/>
<path d="M50.8595 80.8842H49.0272V82.7374H50.8595V80.8842Z" fill="#724107"/>
<path d="M50.8595 79.0519H49.0272V80.8842H50.8595V79.0519Z" fill="#4C3A1F"/>
<path d="M50.8595 77.1987H49.0272V79.0519H50.8595V77.1987Z" fill="#4C3A1F"/>
<path d="M50.8595 75.348H49.0272V77.1987H50.8595V75.348Z" fill="#4C3A1F"/>
<path d="M50.8595 73.5132H49.0272V75.348H50.8595V73.5132Z" fill="#4C3A1F"/>
<path d="M50.8595 71.6652H49.0272V73.5158H50.8595V71.6652Z" fill="#4C3A1F"/>
<path d="M50.8595 69.8303H49.0272V71.6625H50.8595V69.8303Z" fill="#634D27"/>
<path d="M50.8595 67.977H49.0272V69.8303H50.8595V67.977Z" fill="#634D27"/>
<path d="M50.8595 66.1448H49.0272V67.977H50.8595V66.1448Z" fill="#634D27"/>
<path d="M50.8595 64.2915H49.0272V66.1448H50.8595V64.2915Z" fill="#4C3A1F"/>
<path d="M50.8595 62.4409H49.0272V64.2915H50.8595V62.4409Z" fill="#668466"/>
<path d="M50.8595 60.606H49.0272V62.4383H50.8595V60.606Z" fill="#668466"/>
<path d="M50.8595 58.7554H49.0272V60.6087H50.8595V58.7554Z" fill="#668466"/>
<path d="M50.8595 56.9232H49.0272V58.7554H50.8595V56.9232Z" fill="#668466"/>
<path d="M50.8595 55.0699H49.0272V56.9232H50.8595V55.0699Z" fill="#668466"/>
<path d="M50.8595 53.2377H49.0272V55.0699H50.8595V53.2377Z" fill="#668466"/>
<path d="M50.8595 51.3844H49.0272V53.2377H50.8595V51.3844Z" fill="#668466"/>
<path d="M50.8595 49.5522H49.0272V51.3844H50.8595V49.5522Z" fill="#668466"/>
<path d="M50.8595 47.6989H49.0272V49.5522H50.8595V47.6989Z" fill="#73C6C6"/>
<path d="M50.8595 45.8483H49.0272V47.7015H50.8595V45.8483Z" fill="#9FF5F7"/>
<path d="M50.8595 44.016H49.0272V45.8483H50.8595V44.016Z" fill="#73C6C6"/>
<path d="M50.8595 42.1628H49.0272V44.016H50.8595V42.1628Z" fill="#73C6C6"/>
<path d="M50.8595 40.3305H49.0272V42.1628H50.8595V40.3305Z" fill="#FFD8AE"/>
<path d="M50.8595 38.4773H49.0272V40.3305H50.8595V38.4773Z" fill="#FFD8AE"/>
<path d="M50.8595 36.645H49.0272V38.4773H50.8595V36.645Z" fill="#FFD8AE"/>
<path d="M50.8595 34.7918H49.0272V36.645H50.8595V34.7918Z" fill="#AFAFAF"/>
<path d="M50.8595 32.9412H49.0272V34.7944H50.8595V32.9412Z" fill="#AFAFAF"/>
<path d="M50.8595 31.1089H49.0272V32.9412H50.8595V31.1089Z" fill="#AFAFAF"/>
<path d="M50.8595 29.2557H49.0272V31.1089H50.8595V29.2557Z" fill="#AFAFAF"/>
<path d="M50.8595 27.4234H49.0272V29.2557H50.8595V27.4234Z" fill="#AFAFAF"/>
<path d="M50.8595 25.5702H49.0272V27.4234H50.8595V25.5702Z" fill="#AFAFAF"/>
<path d="M50.8595 23.7379H49.0272V25.5702H50.8595V23.7379Z" fill="black"/>
<path d="M49.0299 82.7374H47.1766V84.5697H49.0299V82.7374Z" fill="black"/>
<path d="M49.0299 80.8842H47.1766V82.7374H49.0299V80.8842Z" fill="#724107"/>
<path d="M49.0299 79.0519H47.1766V80.8842H49.0299V79.0519Z" fill="#724107"/>
<path d="M49.0299 77.1987H47.1766V79.0519H49.0299V77.1987Z" fill="black"/>
<path d="M49.0299 75.348H47.1766V77.1987H49.0299V75.348Z" fill="black"/>
<path d="M49.0299 73.5132H47.1766V75.348H49.0299V73.5132Z" fill="black"/>
<path d="M49.0299 71.6652H47.1766V73.5158H49.0299V71.6652Z" fill="#4C3A1F"/>
<path d="M49.0299 69.8303H47.1766V71.6625H49.0299V69.8303Z" fill="#4C3A1F"/>
<path d="M49.0299 67.977H47.1766V69.8303H49.0299V67.977Z" fill="#4C3A1F"/>
<path d="M49.0299 66.1448H47.1766V67.977H49.0299V66.1448Z" fill="#4C3A1F"/>
<path d="M49.0299 64.2915H47.1766V66.1448H49.0299V64.2915Z" fill="#4C3A1F"/>
<path d="M49.0299 62.4409H47.1766V64.2915H49.0299V62.4409Z" fill="#8ABC8A"/>
<path d="M49.0299 60.606H47.1766V62.4383H49.0299V60.606Z" fill="#9DCF9D"/>
<path d="M49.0299 58.7554H47.1766V60.6087H49.0299V58.7554Z" fill="#9DCF9D"/>
<path d="M49.0299 56.9232H47.1766V58.7554H49.0299V56.9232Z" fill="#9DCF9D"/>
<path d="M49.0299 55.0699H47.1766V56.9232H49.0299V55.0699Z" fill="#9DCF9D"/>
<path d="M49.0299 53.2377H47.1766V55.0699H49.0299V53.2377Z" fill="#9DCF9D"/>
<path d="M49.0299 51.3844H47.1766V53.2377H49.0299V51.3844Z" fill="#9DCF9D"/>
<path d="M49.0299 49.5522H47.1766V51.3844H49.0299V49.5522Z" fill="#73C6C6"/>
<path d="M49.0299 47.6989H47.1766V49.5522H49.0299V47.6989Z" fill="#9FF5F7"/>
<path d="M49.0299 45.8483H47.1766V47.7015H49.0299V45.8483Z" fill="#9FF5F7"/>
<path d="M49.0299 44.016H47.1766V45.8483H49.0299V44.016Z" fill="#73C6C6"/>
<path d="M49.0299 42.1628H47.1766V44.016H49.0299V42.1628Z" fill="#73C6C6"/>
<path d="M49.0299 40.3305H47.1766V42.1628H49.0299V40.3305Z" fill="#969696"/>
<path d="M49.0299 38.4773H47.1766V40.3305H49.0299V38.4773Z" fill="#FFD8AE"/>
<path d="M49.0299 36.645H47.1766V38.4773H49.0299V36.645Z" fill="#AFAFAF"/>
<path d="M49.0299 34.7918H47.1766V36.645H49.0299V34.7918Z" fill="#AFAFAF"/>
<path d="M49.0299 32.9412H47.1766V34.7944H49.0299V32.9412Z" fill="#AFAFAF"/>
<path d="M49.0299 31.1089H47.1766V32.9412H49.0299V31.1089Z" fill="#AFAFAF"/>
<path d="M49.0299 29.2557H47.1766V31.1089H49.0299V29.2557Z" fill="#AFAFAF"/>
<path d="M49.0299 27.4234H47.1766V29.2557H49.0299V27.4234Z" fill="#AFAFAF"/>
<path d="M49.0299 25.5702H47.1766V27.4234H49.0299V25.5702Z" fill="black"/>
<path d="M47.174 82.7374H45.3417V84.5697H47.174V82.7374Z" fill="black"/>
<path d="M47.174 80.8842H45.3417V82.7374H47.174V80.8842Z" fill="#724107"/>
<path d="M47.174 79.0519H45.3417V80.8842H47.174V79.0519Z" fill="black"/>
<path d="M47.174 71.6652H45.3417V73.5158H47.174V71.6652Z" fill="black"/>
<path d="M47.174 69.8303H45.3417V71.6625H47.174V69.8303Z" fill="black"/>
<path d="M47.174 67.977H45.3417V69.8303H47.174V67.977Z" fill="black"/>
<path d="M47.174 66.1448H45.3417V67.977H47.174V66.1448Z" fill="black"/>
<path d="M47.174 64.2915H45.3417V66.1448H47.174V64.2915Z" fill="black"/>
<path d="M47.174 62.4409H45.3417V64.2915H47.174V62.4409Z" fill="black"/>
<path d="M47.174 60.606H45.3417V62.4383H47.174V60.606Z" fill="#9DCF9D"/>
<path d="M47.174 58.7554H45.3417V60.6087H47.174V58.7554Z" fill="#9DCF9D"/>
<path d="M47.174 56.9232H45.3417V58.7554H47.174V56.9232Z" fill="#9DCF9D"/>
<path d="M47.174 55.0699H45.3417V56.9232H47.174V55.0699Z" fill="#9DCF9D"/>
<path d="M47.174 53.2377H45.3417V55.0699H47.174V53.2377Z" fill="#9DCF9D"/>
<path d="M47.174 51.3844H45.3417V53.2377H47.174V51.3844Z" fill="#9DCF9D"/>
<path d="M47.174 49.5522H45.3417V51.3844H47.174V49.5522Z" fill="#73C6C6"/>
<path d="M47.174 47.6989H45.3417V49.5522H47.174V47.6989Z" fill="#73C6C6"/>
<path d="M47.174 45.8483H45.3417V47.7015H47.174V45.8483Z" fill="#73C6C6"/>
<path d="M47.174 44.016H45.3417V45.8483H47.174V44.016Z" fill="black"/>
<path d="M47.174 42.1628H45.3417V44.016H47.174V42.1628Z" fill="#969696"/>
<path d="M47.174 40.3305H45.3417V42.1628H47.174V40.3305Z" fill="#969696"/>
<path d="M47.174 38.4773H45.3417V40.3305H47.174V38.4773Z" fill="#969696"/>
<path d="M47.174 36.645H45.3417V38.4773H47.174V36.645Z" fill="#969696"/>
<path d="M47.174 34.7918H45.3417V36.645H47.174V34.7918Z" fill="black"/>
<path d="M47.174 32.9412H45.3417V34.7944H47.174V32.9412Z" fill="#AFAFAF"/>
<path d="M47.174 31.1089H45.3417V32.9412H47.174V31.1089Z" fill="#AFAFAF"/>
<path d="M47.174 29.2557H45.3417V31.1089H47.174V29.2557Z" fill="#AFAFAF"/>
<path d="M47.174 27.4234H45.3417V29.2557H47.174V27.4234Z" fill="#969696"/>
<path d="M47.174 25.5702H45.3417V27.4234H47.174V25.5702Z" fill="black"/>
<path d="M45.3444 82.7374H43.4911V84.5697H45.3444V82.7374Z" fill="black"/>
<path d="M45.3444 80.8842H43.4911V82.7374H45.3444V80.8842Z" fill="black"/>
<path d="M45.3444 60.606H43.4911V62.4383H45.3444V60.606Z" fill="black"/>
<path d="M45.3444 58.7554H43.4911V60.6087H45.3444V58.7554Z" fill="#9DCF9D"/>
<path d="M45.3444 56.9232H43.4911V58.7554H45.3444V56.9232Z" fill="#668466"/>
<path d="M45.3444 55.0699H43.4911V56.9232H45.3444V55.0699Z" fill="#4F704F"/>
<path d="M45.3444 53.2377H43.4911V55.0699H45.3444V53.2377Z" fill="#4F704F"/>
<path d="M45.3444 51.3844H43.4911V53.2377H45.3444V51.3844Z" fill="black"/>
<path d="M45.3444 49.5522H43.4911V51.3844H45.3444V49.5522Z" fill="black"/>
<path d="M45.3444 47.6989H43.4911V49.5522H45.3444V47.6989Z" fill="black"/>
<path d="M45.3444 45.8483H43.4911V47.7015H45.3444V45.8483Z" fill="black"/>
<path d="M45.3444 42.1628H43.4911V44.016H45.3444V42.1628Z" fill="black"/>
<path d="M45.3444 40.3305H43.4911V42.1628H45.3444V40.3305Z" fill="#969696"/>
<path d="M45.3444 38.4773H43.4911V40.3305H45.3444V38.4773Z" fill="black"/>
<path d="M45.3444 36.645H43.4911V38.4773H45.3444V36.645Z" fill="black"/>
<path d="M45.3444 31.1089H43.4911V32.9412H45.3444V31.1089Z" fill="black"/>
<path d="M45.3444 29.2557H43.4911V31.1089H45.3444V29.2557Z" fill="#969696"/>
<path d="M45.3444 27.4234H43.4911V29.2557H45.3444V27.4234Z" fill="black"/>
<path d="M43.4911 60.606H41.6379V62.4383H43.4911V60.606Z" fill="black"/>
<path d="M43.4911 58.7554H41.6379V60.6087H43.4911V58.7554Z" fill="#668466"/>
<path d="M43.4911 56.9232H41.6379V58.7554H43.4911V56.9232Z" fill="#668466"/>
<path d="M43.4911 55.0699H41.6379V56.9232H43.4911V55.0699Z" fill="#668466"/>
<path d="M43.4911 53.2377H41.6379V55.0699H43.4911V53.2377Z" fill="#4F704F"/>
<path d="M43.4911 51.3844H41.6379V53.2377H43.4911V51.3844Z" fill="black"/>
<path d="M43.4911 42.1628H41.6379V44.016H43.4911V42.1628Z" fill="black"/>
<path d="M43.4911 40.3305H41.6379V42.1628H43.4911V40.3305Z" fill="black"/>
<path d="M43.4911 38.4773H41.6379V40.3305H43.4911V38.4773Z" fill="black"/>
<path d="M43.4911 32.9412H41.6379V34.7944H43.4911V32.9412Z" fill="black"/>
<path d="M43.4911 31.1089H41.6379V32.9412H43.4911V31.1089Z" fill="#969696"/>
<path d="M43.4911 29.2557H41.6379V31.1089H43.4911V29.2557Z" fill="black"/>
<path d="M41.6379 62.4409H39.8056V64.2915H41.6379V62.4409Z" fill="black"/>
<path d="M41.6379 60.606H39.8056V62.4383H41.6379V60.606Z" fill="#4F704F"/>
<path d="M41.6379 58.7554H39.8056V60.6087H41.6379V58.7554Z" fill="#668466"/>
<path d="M41.6379 56.9232H39.8056V58.7554H41.6379V56.9232Z" fill="#4F704F"/>
<path d="M41.6379 55.0699H39.8056V56.9232H41.6379V55.0699Z" fill="#668466"/>
<path d="M41.6379 53.2377H39.8056V55.0699H41.6379V53.2377Z" fill="#668466"/>
<path d="M41.6379 51.3844H39.8056V53.2377H41.6379V51.3844Z" fill="black"/>
<path d="M41.6379 49.5522H39.8056V51.3844H41.6379V49.5522Z" fill="black"/>
<path d="M41.6379 31.1089H39.8056V32.9412H41.6379V31.1089Z" fill="black"/>
<path d="M39.8056 62.4409H37.9524V64.2915H39.8056V62.4409Z" fill="black"/>
<path d="M39.8056 60.606H37.9524V62.4383H39.8056V60.606Z" fill="#4F704F"/>
<path d="M39.8056 58.7554H37.9524V60.6087H39.8056V58.7554Z" fill="#4F704F"/>
<path d="M39.8056 56.9232H37.9524V58.7554H39.8056V56.9232Z" fill="#668466"/>
<path d="M39.8056 55.0699H37.9524V56.9232H39.8056V55.0699Z" fill="#668466"/>
<path d="M39.8056 53.2377H37.9524V55.0699H39.8056V53.2377Z" fill="black"/>
<path d="M37.9524 62.4409H36.1201V64.2915H37.9524V62.4409Z" fill="black"/>
<path d="M37.9524 60.606H36.1201V62.4383H37.9524V60.606Z" fill="#4F704F"/>
<path d="M37.9524 58.7554H36.1201V60.6087H37.9524V58.7554Z" fill="#FFD8AE"/>
<path d="M37.9524 56.9232H36.1201V58.7554H37.9524V56.9232Z" fill="#FFD8AE"/>
<path d="M37.9524 55.0699H36.1201V56.9232H37.9524V55.0699Z" fill="black"/>
<path d="M36.1227 62.4409H34.2695V64.2915H36.1227V62.4409Z" fill="black"/>
<path d="M36.1227 60.606H34.2695V62.4383H36.1227V60.606Z" fill="#4F704F"/>
<path d="M36.1227 58.7554H34.2695V60.6087H36.1227V58.7554Z" fill="#FFD8AE"/>
<path d="M36.1227 56.9232H34.2695V58.7554H36.1227V56.9232Z" fill="black"/>
<path d="M34.2669 60.606H32.4346V62.4383H34.2669V60.606Z" fill="black"/>
<path d="M34.2669 58.7554H32.4346V60.6087H34.2669V58.7554Z" fill="#FFD8AE"/>
<path d="M34.2669 56.9232H32.4346V58.7554H34.2669V56.9232Z" fill="black"/>
<path d="M32.4372 60.606H30.584V62.4383H32.4372V60.606Z" fill="black"/>
<path d="M32.4372 58.7554H30.584V60.6087H32.4372V58.7554Z" fill="#FFD8AE"/>
<path d="M32.4372 56.9232H30.584V58.7554H32.4372V56.9232Z" fill="black"/>
<path d="M30.584 58.7554H28.7307V60.6087H30.584V58.7554Z" fill="black"/>
<path d="M30.584 56.9232H28.7307V58.7554H30.584V56.9232Z" fill="black"/>
<path d="M28.7307 56.9232H26.8985V58.7554L28.7307 58.7554V56.9232Z" fill="black"/>
<path d="M26.8985 56.9232H25.0452V58.7554H26.8985V56.9232Z" fill="black"/>
<path d="M25.0452 56.9232H23.213V58.7554H25.0452V56.9232Z" fill="black"/>
<path d="M65.318 49.9302H64.3914V50.8568H65.318V49.9302Z" fill="#594F4F"/>
<path d="M64.3914 50.8568H63.4464V51.8018H64.3914V50.8568Z" fill="#594F4F"/>
<path d="M64.3914 49.9302H63.4464V50.8568H64.3914V49.9302Z" fill="black"/>
<path d="M64.3914 49.0035H63.4464V49.9302H64.3914V49.0035Z" fill="#594F4F"/>
<path d="M63.4464 51.8018H62.5197V52.7284H63.4464V51.8018Z" fill="#594F4F"/>
<path d="M63.4464 50.8568H62.5197V51.8018H63.4464V50.8568Z" fill="black"/>
<path d="M63.4464 49.9302H62.5197V50.8568H63.4464V49.9302Z" fill="#594F4F"/>
<path d="M62.5197 52.7258H61.5957V53.6708H62.5197V52.7258Z" fill="#594F4F"/>
<path d="M62.5197 51.8018H61.5957V52.7284H62.5197V51.8018Z" fill="black"/>
<path d="M62.5197 50.8568H61.5957V51.8018H62.5197V50.8568Z" fill="#594F4F"/>
<path d="M61.5957 52.7258H60.6507V53.6708H61.5957V52.7258Z" fill="black"/>
<path d="M61.5957 51.8018H60.6507V52.7284H61.5957V51.8018Z" fill="#594F4F"/>
<path d="M60.6507 53.6708H59.7241V54.5974H60.6507L60.6507 53.6708Z" fill="black"/>
<path d="M59.7241 54.5974H58.7791V55.524H59.7241V54.5974Z" fill="black"/>
<path d="M57.8525 57.3957H56.9259V58.3223H57.8525V57.3957Z" fill="black"/>
<path d="M56.9259 58.3197H55.9809V59.2647H56.9259V58.3197Z" fill="black"/>
<path d="M41.9791 49.0035H41.0525V49.9302H41.9791V49.0035Z" fill="black"/>
<path d="M41.0525 52.7258H40.1259V53.6708H41.0525V52.7258Z" fill="black"/>
<path d="M41.0525 49.0035H40.1259V49.9302H41.0525V49.0035Z" fill="black"/>
<path d="M40.1259 52.7258H39.1809V53.6708H40.1259V52.7258Z" fill="black"/>
<path d="M40.1259 51.8018H39.1809V52.7284H40.1259V51.8018Z" fill="#DDCA6C"/>
<path d="M40.1259 50.8568H39.1809V51.8018H40.1259V50.8568Z" fill="#DDCA6C"/>
<path d="M40.1259 49.9302H39.1809V50.8568H40.1259V49.9302Z" fill="#DDCA6C"/>
<path d="M40.1259 49.0035H39.1809V49.9302H40.1259V49.0035Z" fill="black"/>
<path d="M39.1835 54.5974H38.2569V55.524H39.1835V54.5974Z" fill="black"/>
<path d="M39.1835 53.6708H38.2569V54.5974H39.1835V53.6708Z" fill="#DDCA6C"/>
<path d="M39.1835 52.7258H38.2569V53.6708H39.1835V52.7258Z" fill="#DDCA6C"/>
<path d="M39.1835 51.8018H38.2569V52.7284H39.1835V51.8018Z" fill="#FCE76B"/>
<path d="M39.1835 50.8568H38.2569V51.8018H39.1835V50.8568Z" fill="#FCE76B"/>
<path d="M39.1835 49.9302H38.2569V50.8568H39.1835V49.9302Z" fill="#DDCA6C"/>
<path d="M39.1835 49.0035H38.2569V49.9302H39.1835V49.0035Z" fill="black"/>
<path d="M38.2569 54.5974H37.3302V55.524H38.2569V54.5974Z" fill="black"/>
<path d="M38.2569 53.6708H37.3302V54.5974H38.2569V53.6708Z" fill="#DDCA6C"/>
<path d="M38.2569 52.7258H37.3302V53.6708H38.2569V52.7258Z" fill="#FCE76B"/>
<path d="M38.2569 51.8018H37.3302V52.7284H38.2569V51.8018Z" fill="#FCE76B"/>
<path d="M38.2569 50.8568H37.3302V51.8018H38.2569V50.8568Z" fill="#FCE76B"/>
<path d="M38.2569 49.9302H37.3302V50.8568H38.2569V49.9302Z" fill="#DDCA6C"/>
<path d="M38.2569 49.0035H37.3302V49.9302H38.2569V49.0035Z" fill="black"/>
<path d="M37.3302 56.469H36.3852V57.3957H37.3302V56.469Z" fill="black"/>
<path d="M37.3302 55.524H36.3852V56.469H37.3302V55.524Z" fill="#DDCA6C"/>
<path d="M37.3302 54.5974H36.3852V55.524H37.3302V54.5974Z" fill="#DDCA6C"/>
<path d="M37.3302 53.6708H36.3852V54.5974H37.3302V53.6708Z" fill="#FCE76B"/>
<path d="M37.3302 52.7258H36.3852V53.6708H37.3302V52.7258Z" fill="#FCE76B"/>
<path d="M37.3302 51.8018H36.3852V52.7284H37.3302V51.8018Z" fill="#FCE76B"/>
<path d="M37.3302 50.8568H36.3852V51.8018H37.3302V50.8568Z" fill="#FCE76B"/>
<path d="M37.3302 49.9302H36.3852V50.8568H37.3302V49.9302Z" fill="#DDCA6C"/>
<path d="M37.3302 49.0035H36.3852V49.9302H37.3302V49.0035Z" fill="black"/>
<path d="M36.3852 56.469H35.4586V57.3957H36.3852V56.469Z" fill="black"/>
<path d="M36.3852 55.524H35.4586V56.469H36.3852V55.524Z" fill="#DDCA6C"/>
<path d="M36.3852 54.5974H35.4586V55.524H36.3852V54.5974Z" fill="#FCE76B"/>
<path d="M36.3852 53.6708H35.4586V54.5974H36.3852V53.6708Z" fill="#FCE76B"/>
<path d="M36.3852 52.7258H35.4586V53.6708H36.3852V52.7258Z" fill="#FCE76B"/>
<path d="M36.3852 51.8018H35.4586V52.7284H36.3852V51.8018Z" fill="#FCE76B"/>
<path d="M36.3852 50.8568H35.4586V51.8018H36.3852V50.8568Z" fill="#FCE76B"/>
<path d="M36.3852 49.9302H35.4586V50.8568H36.3852V49.9302Z" fill="#DDCA6C"/>
<path d="M36.3852 49.0035H35.4586V49.9302H36.3852V49.0035Z" fill="black"/>
<path d="M35.4586 56.469H34.5136V57.3957H35.4586V56.469Z" fill="#DDCA6C"/>
<path d="M35.4586 55.524H34.5136V56.469H35.4586V55.524Z" fill="#FCE76B"/>
<path d="M35.4586 54.5974H34.5136V55.524H35.4586V54.5974Z" fill="#FCE76B"/>
<path d="M35.4586 53.6708H34.5136V54.5974H35.4586V53.6708Z" fill="#E80F42"/>
<path d="M35.4586 52.7258H34.5136V53.6708H35.4586V52.7258Z" fill="#FCE76B"/>
<path d="M35.4586 51.8018H34.5136V52.7284H35.4586V51.8018Z" fill="#FCE76B"/>
<path d="M35.4586 50.8568H34.5136V51.8018H35.4586V50.8568Z" fill="#FCE76B"/>
<path d="M35.4586 49.9302H34.5136V50.8568H35.4586V49.9302Z" fill="#DDCA6C"/>
<path d="M35.4586 49.0035H34.5136V49.9302H35.4586V49.0035Z" fill="black"/>
<path d="M34.5136 56.469H33.587V57.3957H34.5136V56.469Z" fill="#DDCA6C"/>
<path d="M34.5136 55.524H33.587V56.469H34.5136V55.524Z" fill="#FCE76B"/>
<path d="M34.5136 54.5974H33.587V55.524H34.5136V54.5974Z" fill="#E80F42"/>
<path d="M34.5136 53.6708H33.587V54.5974H34.5136V53.6708Z" fill="#E80F42"/>
<path d="M34.5136 52.7258H33.587V53.6708H34.5136V52.7258Z" fill="#E80F42"/>
<path d="M34.5136 51.8018H33.587V52.7284H34.5136V51.8018Z" fill="#FCE76B"/>
<path d="M34.5136 50.8568H33.587V51.8018H34.5136V50.8568Z" fill="#FCE76B"/>
<path d="M34.5136 49.9302H33.587V50.8568H34.5136V49.9302Z" fill="#DDCA6C"/>
<path d="M34.5136 49.0035H33.587V49.9302H34.5136V49.0035Z" fill="black"/>
<path d="M33.5896 56.469H32.663V57.3957H33.5896V56.469Z" fill="#DDCA6C"/>
<path d="M33.5896 55.524H32.663V56.469H33.5896V55.524Z" fill="#FCE76B"/>
<path d="M33.5896 54.5974H32.663V55.524H33.5896V54.5974Z" fill="#E80F42"/>
<path d="M33.5896 53.6708H32.663V54.5974H33.5896V53.6708Z" fill="#E80F42"/>
<path d="M33.5896 52.7258H32.663V53.6708H33.5896V52.7258Z" fill="#E80F42"/>
<path d="M33.5896 51.8018H32.663V52.7284H33.5896V51.8018Z" fill="#FCE76B"/>
<path d="M33.5896 50.8568H32.663V51.8018H33.5896V50.8568Z" fill="#FCE76B"/>
<path d="M33.5896 49.9302H32.663V50.8568H33.5896V49.9302Z" fill="#DDCA6C"/>
<path d="M33.5896 49.0035H32.663V49.9302H33.5896V49.0035Z" fill="black"/>
<path d="M32.663 56.469H31.718V57.3957H32.663V56.469Z" fill="#DDCA6C"/>
<path d="M32.663 55.524H31.718V56.469H32.663V55.524Z" fill="#FCE76B"/>
<path d="M32.663 54.5974H31.718V55.524H32.663V54.5974Z" fill="#E80F42"/>
<path d="M32.663 53.6708H31.718V54.5974H32.663V53.6708Z" fill="#FCE76B"/>
<path d="M32.663 52.7258H31.718V53.6708H32.663V52.7258Z" fill="#E80F42"/>
<path d="M32.663 51.8018H31.718V52.7284H32.663V51.8018Z" fill="#FCE76B"/>
<path d="M32.663 50.8568H31.718V51.8018H32.663V50.8568Z" fill="#FCE76B"/>
<path d="M32.663 49.9302H31.718V50.8568H32.663V49.9302Z" fill="#DDCA6C"/>
<path d="M32.663 49.0035H31.718V49.9302H32.663V49.0035Z" fill="black"/>
<path d="M31.718 56.469H30.7914V57.3957H31.718V56.469Z" fill="#DDCA6C"/>
<path d="M31.718 55.524H30.7914V56.469H31.718V55.524Z" fill="#E80F42"/>
<path d="M31.718 54.5974H30.7914V55.524H31.718V54.5974Z" fill="#FCE76B"/>
<path d="M31.718 53.6708H30.7914V54.5974H31.718V53.6708Z" fill="#FCE76B"/>
<path d="M31.718 52.7258H30.7914V53.6708H31.718V52.7258Z" fill="#FCE76B"/>
<path d="M31.718 51.8018H30.7914V52.7284H31.718V51.8018Z" fill="#E80F42"/>
<path d="M31.718 50.8568H30.7914V51.8018H31.718V50.8568Z" fill="#FCE76B"/>
<path d="M31.718 49.9302H30.7914V50.8568H31.718V49.9302Z" fill="#DDCA6C"/>
<path d="M31.718 49.0035H30.7914V49.9302H31.718V49.0035Z" fill="black"/>
<path d="M30.7914 56.469H29.8647V57.3957H30.7914V56.469Z" fill="#DDCA6C"/>
<path d="M30.7914 55.524H29.8647V56.469H30.7914V55.524Z" fill="#E80F42"/>
<path d="M30.7914 54.5974H29.8647V55.524H30.7914V54.5974Z" fill="#FCE76B"/>
<path d="M30.7914 53.6708H29.8647V54.5974H30.7914V53.6708Z" fill="#FCE76B"/>
<path d="M30.7914 52.7258H29.8647V53.6708H30.7914V52.7258Z" fill="#FCE76B"/>
<path d="M30.7914 51.8018H29.8647V52.7284H30.7914V51.8018Z" fill="#E80F42"/>
<path d="M30.7914 50.8568H29.8647V51.8018H30.7914V50.8568Z" fill="#FCE76B"/>
<path d="M30.7914 49.9302H29.8647V50.8568H30.7914V49.9302Z" fill="#DDCA6C"/>
<path d="M30.7914 49.0035H29.8647V49.9302H30.7914V49.0035Z" fill="black"/>
<path d="M29.8647 56.469H28.9197V57.3957H29.8647V56.469Z" fill="#DDCA6C"/>
<path d="M29.8647 55.524H28.9197V56.469H29.8647V55.524Z" fill="#FCE76B"/>
<path d="M29.8647 54.5974H28.9197V55.524H29.8647V54.5974Z" fill="#FCE76B"/>
<path d="M29.8647 53.6708H28.9197V54.5974H29.8647V53.6708Z" fill="#FCE76B"/>
<path d="M29.8647 52.7258H28.9197V53.6708H29.8647V52.7258Z" fill="#FCE76B"/>
<path d="M29.8647 51.8018H28.9197V52.7284H29.8647V51.8018Z" fill="#FCE76B"/>
<path d="M29.8647 50.8568H28.9197V51.8018H29.8647V50.8568Z" fill="#DDCA6C"/>
<path d="M29.8647 49.9302H28.9197V50.8568H29.8647V49.9302Z" fill="#DDCA6C"/>
<path d="M29.8647 49.0035H28.9197V49.9302H29.8647V49.0035Z" fill="black"/>
<path d="M28.9224 56.469H27.9957V57.3957H28.9224V56.469Z" fill="#DDCA6C"/>
<path d="M28.9224 55.524H27.9957V56.469H28.9224V55.524Z" fill="#FCE76B"/>
<path d="M28.9224 54.5974H27.9957V55.524H28.9224V54.5974Z" fill="#FCE76B"/>
<path d="M28.9224 53.6708H27.9957V54.5974H28.9224V53.6708Z" fill="#FCE76B"/>
<path d="M28.9224 52.7258H27.9957V53.6708H28.9224V52.7258Z" fill="#FCE76B"/>
<path d="M28.9224 51.8018H27.9957V52.7284H28.9224V51.8018Z" fill="#DDCA6C"/>
<path d="M28.9224 50.8568H27.9957V51.8018H28.9224V50.8568Z" fill="black"/>
<path d="M28.9224 49.9302H27.9957V50.8568H28.9224V49.9302Z" fill="black"/>
<path d="M27.9957 56.469H27.0507V57.3957H27.9957V56.469Z" fill="#DDCA6C"/>
<path d="M27.9957 55.524H27.0507V56.469H27.9957V55.524Z" fill="#FCE76B"/>
<path d="M27.9957 54.5974H27.0507V55.524H27.9957V54.5974Z" fill="#FCE76B"/>
<path d="M27.9957 53.6708H27.0507V54.5974H27.9957V53.6708Z" fill="#DDCA6C"/>
<path d="M27.9957 52.7258H27.0507V53.6708H27.9957V52.7258Z" fill="#DDCA6C"/>
<path d="M27.9957 51.8018H27.0507V52.7284H27.9957V51.8018Z" fill="black"/>
<path d="M27.9957 50.8568H27.0507V51.8018H27.9957V50.8568Z" fill="black"/>
<path d="M27.0507 56.469H26.1241V57.3957H27.0507V56.469Z" fill="#DDCA6C"/>
<path d="M27.0507 55.524H26.1241V56.469H27.0507V55.524Z" fill="#FCE76B"/>
<path d="M27.0507 54.5974H26.1241V55.524H27.0507V54.5974Z" fill="#DDCA6C"/>
<path d="M27.0507 53.6708H26.1241V54.5974H27.0507V53.6708Z" fill="black"/>
<path d="M27.0507 52.7258H26.1241V53.6708H27.0507V52.7258Z" fill="black"/>
<path d="M27.0507 51.8018H26.1241V52.7284H27.0507V51.8018Z" fill="#DDCA6C"/>
<path d="M27.0507 50.8568H26.1241V51.8018H27.0507V50.8568Z" fill="#DDCA6C"/>
<path d="M27.0507 49.9302H26.1241V50.8568H27.0507V49.9302Z" fill="black"/>
<path d="M26.1241 56.469H25.1975V57.3957H26.1241V56.469Z" fill="#DDCA6C"/>
<path d="M26.1241 55.524H25.1975V56.469H26.1241V55.524Z" fill="#DDCA6C"/>
<path d="M26.1241 54.5974H25.1975V55.524H26.1241V54.5974Z" fill="black"/>
<path d="M26.1241 53.6708H25.1975V54.5974H26.1241V53.6708Z" fill="#DDCA6C"/>
<path d="M26.1241 52.7258H25.1975V53.6708H26.1241V52.7258Z" fill="#DDCA6C"/>
<path d="M26.1241 51.8018H25.1975V52.7284H26.1241V51.8018Z" fill="#DDCA6C"/>
<path d="M26.1241 50.8568H25.1975V51.8018H26.1241V50.8568Z" fill="#DDCA6C"/>
<path d="M26.1241 49.9302H25.1975V50.8568H26.1241V49.9302Z" fill="black"/>
<path d="M25.1975 56.469H24.2525V57.3957H25.1975V56.469Z" fill="#DDCA6C"/>
<path d="M25.1975 55.524H24.2525V56.469H25.1975V55.524Z" fill="black"/>
<path d="M25.1975 54.5974H24.2525V55.524H25.1975V54.5974Z" fill="#DDCA6C"/>
<path d="M25.1975 53.6708H24.2525V54.5974H25.1975V53.6708Z" fill="#DDCA6C"/>
<path d="M25.1975 52.7258H24.2525V53.6708H25.1975V52.7258Z" fill="#DDCA6C"/>
<path d="M25.1975 51.8018H24.2525V52.7284H25.1975V51.8018Z" fill="#DDCA6C"/>
<path d="M25.1975 50.8568H24.2525V51.8018H25.1975V50.8568Z" fill="#DDCA6C"/>
<path d="M25.1975 49.9302H24.2525V50.8568H25.1975V49.9302Z" fill="#DDCA6C"/>
<path d="M25.1975 49.0035H24.2525V49.9302H25.1975V49.0035Z" fill="black"/>
<path d="M24.2525 56.469H23.3259V57.3957H24.2525V56.469Z" fill="black"/>
<path d="M24.2525 55.524H23.3259V56.469H24.2525V55.524Z" fill="#DDCA6C"/>
<path d="M24.2525 54.5974H23.3259V55.524H24.2525V54.5974Z" fill="#DDCA6C"/>
<path d="M24.2525 53.6708H23.3259V54.5974H24.2525V53.6708Z" fill="#DDCA6C"/>
<path d="M24.2525 52.7258H23.3259V53.6708H24.2525V52.7258Z" fill="#DDCA6C"/>
<path d="M24.2525 51.8018H23.3259V52.7284H24.2525V51.8018Z" fill="#DDCA6C"/>
<path d="M24.2525 50.8568H23.3259V51.8018H24.2525V50.8568Z" fill="#DDCA6C"/>
<path d="M24.2525 49.9302H23.3259V50.8568H24.2525V49.9302Z" fill="#DDCA6C"/>
<path d="M24.2525 49.0035H23.3259V49.9302H24.2525V49.0035Z" fill="black"/>
<path d="M23.3259 57.3957H22.3809V58.3223H23.3259L23.3259 57.3957Z" fill="black"/>
<path d="M23.3259 56.469H22.3809V57.3957H23.3259V56.469Z" fill="black"/>
<path d="M23.3259 55.524H22.3809V56.469H23.3259V55.524Z" fill="black"/>
<path d="M23.3259 54.5974H22.3809V55.524H23.3259V54.5974Z" fill="black"/>
<path d="M23.3259 53.6708H22.3809V54.5974H23.3259V53.6708Z" fill="black"/>
<path d="M23.3259 52.7258H22.3809V53.6708H23.3259V52.7258Z" fill="black"/>
<path d="M23.3259 51.8018H22.3809V52.7284H23.3259V51.8018Z" fill="black"/>
<path d="M23.3259 50.8568H22.3809V51.8018H23.3259V50.8568Z" fill="black"/>
<path d="M23.3259 49.9302H22.3809V50.8568H23.3259V49.9302Z" fill="black"/>
<path d="M23.3259 49.0035H22.3809V49.9302H23.3259V49.0035Z" fill="black"/>
</svg>
