<svg width="105" height="105" viewBox="0 0 105 105" fill="none" xmlns="http://www.w3.org/2000/svg">
<path d="M52.5005 4.73279C78.8815 4.73297 100.267 26.1194 100.267 52.5004C100.267 78.8812 78.8813 100.267 52.5005 100.267C26.1195 100.267 4.73309 78.8813 4.73291 52.5004C4.73291 26.1192 26.1194 4.73279 52.5005 4.73279Z" fill="#F9F7E7" stroke="#29100A" stroke-width="2"/>
<path d="M71.9131 18.375H69.9186V20.3175H71.9131V18.375Z" fill="#D167B1"/>
<path d="M73.9078 22.2602H71.9134V24.2027H73.9078V22.2602Z" fill="#D167B1"/>
<path d="M69.9191 24.2023H67.9247V26.1448H69.9191V24.2023Z" fill="#D167B1"/>
<path d="M45.9856 26.1449H43.9912V28.0874H45.9856V26.1449Z" fill="#92547F"/>
<path d="M47.98 26.1449H45.9856V28.0874H47.98V26.1449Z" fill="#92547F"/>
<path d="M49.9747 26.1449H47.98V28.0874H49.9747V26.1449Z" fill="#B06A9B"/>
<path d="M51.969 26.1449H49.9747V28.0874H51.969V26.1449Z" fill="#B06A9B"/>
<path d="M53.9637 26.1449H51.969V28.0874H53.9637V26.1449Z" fill="#B06A9B"/>
<path d="M73.9078 26.1449H71.9134V28.0874H73.9078V26.1449Z" fill="#D167B1"/>
<path d="M43.9912 28.0874L41.9968 28.088V30.0305H43.9912L43.9912 28.0874Z" fill="#92547F"/>
<path d="M45.9856 28.0874H43.9912L43.9912 30.0305H45.9856V28.0874Z" fill="#92547F"/>
<path d="M47.98 28.0874H45.9856V30.0305H47.98V28.0874Z" fill="#B06A9B"/>
<path d="M49.9747 28.0874H47.98V30.0305H49.9747V28.0874Z" fill="#B06A9B"/>
<path d="M51.969 28.0874H49.9747V30.0305H51.969V28.0874Z" fill="#B06A9B"/>
<path d="M53.9637 28.0874H51.969V30.0305H53.9637V28.0874Z" fill="#B06A9B"/>
<path d="M55.9576 28.088L53.9637 28.0874V30.0305H55.9576V28.088Z" fill="#B06A9B"/>
<path d="M41.9968 30.0305L40.003 30.0301V31.9726H41.9974L41.9968 30.0305Z" fill="#92547F"/>
<path d="M43.9912 30.0305H41.9968L41.9974 31.9726H43.9912V30.0305Z" fill="#92547F"/>
<path d="M45.9856 30.0305H43.9912V31.9726H45.9856V30.0305Z" fill="#B06A9B"/>
<path d="M47.98 30.0305H45.9856V31.9726H47.98V30.0305Z" fill="#B06A9B"/>
<path d="M49.9747 30.0305H47.98V31.9726H49.9747V30.0305Z" fill="#B06A9B"/>
<path d="M51.969 30.0305H49.9747V31.9726H51.969V30.0305Z" fill="#B06A9B"/>
<path d="M53.9637 30.0305H51.969V31.9726H53.9637V30.0305Z" fill="#D1A276"/>
<path d="M55.9576 30.0305H53.9637V31.9726H55.9576V30.0305Z" fill="#B06A9B"/>
<path d="M57.9522 30.0301L55.9576 30.0305V31.9726H57.9522V30.0301Z" fill="#B06A9B"/>
<path d="M69.9191 30.0301H67.9247V31.9726H69.9191V30.0301Z" fill="#D167B1"/>
<path d="M77.8965 30.0301H75.902V31.9726H77.8965V30.0301Z" fill="#D167B1"/>
<path d="M41.9974 31.9726H40.003V33.9152H41.9974V31.9726Z" fill="#92547F"/>
<path d="M43.9912 31.9726H41.9974V33.9152H43.9912V31.9726Z" fill="#B06A9B"/>
<path d="M45.9856 31.9726H43.9912V33.9152H45.9856V31.9726Z" fill="#B06A9B"/>
<path d="M47.98 31.9726H45.9856V33.9152H47.98V31.9726Z" fill="#D1A276"/>
<path d="M49.9747 31.9726H47.98V33.9152H49.9747V31.9726Z" fill="#F6BC86"/>
<path d="M51.969 31.9726H49.9747V33.9152H51.969V31.9726Z" fill="#B06A9B"/>
<path d="M53.9637 31.9726H51.969V33.9152H53.9637V31.9726Z" fill="#F6BC86"/>
<path d="M55.9576 31.9726H53.9637V33.9152H55.9576V31.9726Z" fill="#B06A9B"/>
<path d="M57.9522 31.9726H55.9576V33.9152H57.9522V31.9726Z" fill="#B06A9B"/>
<path d="M73.9078 31.9727H71.9134V33.9152H73.9078V31.9727Z" fill="#D167B1"/>
<path d="M41.9974 33.9152H40.003V35.8578H41.9974V33.9152Z" fill="#92547F"/>
<path d="M43.9912 33.9152H41.9974V35.8578H43.9912V33.9152Z" fill="#B06A9B"/>
<path d="M45.9856 33.9152H43.9912V35.8578H45.9856V33.9152Z" fill="#D1A276"/>
<path d="M47.98 33.9152H45.9856V35.8578H47.98V33.9152Z" fill="black"/>
<path d="M49.9747 33.9152H47.98V35.8578H49.9747V33.9152Z" fill="#F6BC86"/>
<path d="M51.969 33.9152H49.9747V35.8578H51.969V33.9152Z" fill="#F6BC86"/>
<path d="M53.9637 33.9152H51.969V35.8578H53.9637V33.9152Z" fill="black"/>
<path d="M55.9576 33.9152H53.9637V35.8578H55.9576V33.9152Z" fill="#F6BC86"/>
<path d="M57.9522 33.9152H55.9576V35.8578H57.9522V33.9152Z" fill="#B06A9B"/>
<path d="M59.9468 33.9153L57.9522 33.9152V35.8578H59.9468V33.9153Z" fill="#B06A9B"/>
<path d="M73.9078 33.9152H71.9134V35.8578H73.9078V33.9152Z" fill="#7E30B3"/>
<path d="M79.8907 33.9153H77.8963V35.8578H79.8907V33.9153Z" fill="#D167B1"/>
<path d="M41.9974 35.8578H40.003V37.8004H41.9974V35.8578Z" fill="#92547F"/>
<path d="M43.9912 35.8578H41.9974V37.8004H43.9912V35.8578Z" fill="#B06A9B"/>
<path d="M45.9856 35.8578H43.9912V37.8004H45.9856V35.8578Z" fill="#D1A276"/>
<path d="M47.98 35.8578H45.9856V37.8004H47.98V35.8578Z" fill="black"/>
<path d="M49.9747 35.8578H47.98V37.8004H49.9747V35.8578Z" fill="#F6BC86"/>
<path d="M51.969 35.8578H49.9747V37.8004H51.969V35.8578Z" fill="#F6BC86"/>
<path d="M53.9637 35.8578H51.969V37.8004H53.9637V35.8578Z" fill="black"/>
<path d="M55.9576 35.8578H53.9637V37.8004H55.9576V35.8578Z" fill="#F6BC86"/>
<path d="M57.9522 35.8578H55.9576V37.8004H57.9522V35.8578Z" fill="#B06A9B"/>
<path d="M61.941 35.8579L59.9468 35.8578L59.9465 37.8004H61.941V35.8579Z" fill="#B06A9B"/>
<path d="M67.9239 35.8579H65.9294V37.8004H67.9239V35.8579Z" fill="#D167B1"/>
<path d="M71.9134 35.8578L69.9186 35.8579V37.8004H71.9131L71.9134 35.8578Z" fill="#D167B1"/>
<path d="M73.9078 35.8578H71.9134L71.9131 37.8004H73.9078V35.8578Z" fill="#7E30B3"/>
<path d="M75.902 35.8579L73.9078 35.8578V37.8004H75.902V35.8579Z" fill="#D167B1"/>
<path d="M79.8907 35.8578H77.8963V37.8004H79.8907V35.8578Z" fill="#D167B1"/>
<path d="M41.9974 37.8004H40.003V39.742H41.9974V37.8004Z" fill="#92547F"/>
<path d="M43.9912 37.8004L41.9968 37.7995L41.9974 39.742H43.9912V37.8004Z" fill="#B06A9B"/>
<path d="M45.9856 37.8004H43.9912V39.742H45.9856V37.8004Z" fill="#D1A276"/>
<path d="M47.98 37.8004H45.9856V39.742H47.98V37.8004Z" fill="#F6BC86"/>
<path d="M49.9747 37.8004H47.98V39.742H49.9747V37.8004Z" fill="#F6BC86"/>
<path d="M51.969 37.8004H49.9747V39.742H51.969V37.8004Z" fill="#F6BC86"/>
<path d="M53.9637 37.8004H51.969V39.742H53.9637V37.8004Z" fill="#F6BC86"/>
<path d="M55.9576 37.8004L53.9631 37.7995L53.9637 39.742H55.9576V37.8004Z" fill="#B06A9B"/>
<path d="M57.9522 37.8004H55.9576V39.742H57.9522V37.8004Z" fill="#B06A9B"/>
<path d="M69.9191 37.7995H67.9247V39.742H69.9191V37.7995Z" fill="#D167B1"/>
<path d="M71.9131 37.8004H69.9186L69.9191 39.742H71.9131V37.8004Z" fill="#7E30B3"/>
<path d="M73.9078 37.8004H71.9131V39.742H73.9078V37.8004Z" fill="#7E30B3"/>
<path d="M75.902 37.8004H73.9078V39.742H75.902V37.8004Z" fill="#D167B1"/>
<path d="M41.9974 39.742H40.003V41.6851H41.9974V39.742Z" fill="#92547F"/>
<path d="M43.9912 39.742H41.9974V41.6851H43.9912V39.742Z" fill="#B06A9B"/>
<path d="M45.9856 39.742H43.9912V41.6851H45.9856V39.742Z" fill="#B06A9B"/>
<path d="M47.98 39.742H45.9856V41.6851H47.98V39.742Z" fill="#D1A276"/>
<path d="M49.9747 39.742H47.98V41.6851H49.9747V39.742Z" fill="#F6BC86"/>
<path d="M51.969 39.742H49.9747V41.6851H51.969V39.742Z" fill="#F6BC86"/>
<path d="M53.9637 39.742H51.969V41.6851H53.9637V39.742Z" fill="#F6BC86"/>
<path d="M55.9576 39.742H53.9637V41.6851H55.9576V39.742Z" fill="#B06A9B"/>
<path d="M57.9522 39.742H55.9576V41.6851H57.9522V39.742Z" fill="#B06A9B"/>
<path d="M59.9468 39.7426L57.9522 39.742V41.6851H59.9468V39.7426Z" fill="#B06A9B"/>
<path d="M69.9191 39.742H67.9247V41.6851H69.9191V39.742Z" fill="#7E30B3"/>
<path d="M71.9131 39.742H69.9191V41.6851H71.9131V39.742Z" fill="#7E30B3"/>
<path d="M73.9078 39.742H71.9131V41.6851H73.9078V39.742Z" fill="#D167B1"/>
<path d="M75.902 39.742H73.9078V41.6851H75.902V39.742Z" fill="#7E30B3"/>
<path d="M43.9912 41.6851H41.9974L41.9968 43.6277H43.9912V41.6851Z" fill="#92547F"/>
<path d="M45.9856 41.6851H43.9912V43.6277H45.9856V41.6851Z" fill="#B06A9B"/>
<path d="M47.98 41.6851H45.9856V43.6277H47.98V41.6851Z" fill="#804A6F"/>
<path d="M49.9747 41.6851H47.98V43.6277H49.9747V41.6851Z" fill="#F6BC86"/>
<path d="M51.969 41.6851H49.9747V43.6277H51.969V41.6851Z" fill="#F6BC86"/>
<path d="M53.9637 41.6851H51.969V43.6277H53.9637V41.6851Z" fill="#804A6F"/>
<path d="M55.9576 41.6851H53.9637V43.6277H55.9576V41.6851Z" fill="#804A6F"/>
<path d="M57.9522 41.6851H55.9576V43.6277H57.9522V41.6851Z" fill="#B06A9B"/>
<path d="M59.9468 41.6851H57.9522V43.6277H59.9468V41.6851Z" fill="#B06A9B"/>
<path d="M67.9247 41.6851L65.9294 41.6852V43.6277H67.9239L67.9247 41.6851Z" fill="#D167B1"/>
<path d="M69.9191 41.6851H67.9247L67.9239 43.6277H69.9191V41.6851Z" fill="#7E30B3"/>
<path d="M71.9131 41.6851H69.9191V43.6277H71.9131V41.6851Z" fill="#F6B1E1"/>
<path d="M73.9078 41.6851H71.9131V43.6277H73.9078V41.6851Z" fill="#9827B1"/>
<path d="M75.902 41.6851H73.9078V43.6277H75.902V41.6851Z" fill="#7E30B3"/>
<path d="M77.8965 41.6852L75.902 41.6851V43.6277H77.8965V41.6852Z" fill="#D167B1"/>
<path d="M43.9912 43.6277H41.9968V45.5697H43.9912V43.6277Z" fill="#92547F"/>
<path d="M45.9856 43.6277H43.9912V45.5697H45.9856V43.6277Z" fill="#B06A9B"/>
<path d="M47.98 43.6277H45.9856V45.5697H47.98V43.6277Z" fill="black"/>
<path d="M49.9747 43.6277H47.98V45.5697H49.9747V43.6277Z" fill="#AD8661"/>
<path d="M51.969 43.6277H49.9747V45.5697H51.969V43.6277Z" fill="#AD8661"/>
<path d="M53.9637 43.6277H51.969V45.5697H53.9637V43.6277Z" fill="black"/>
<path d="M55.9576 43.6277H53.9637V45.5697H55.9576V43.6277Z" fill="black"/>
<path d="M59.9468 43.6277H57.9522L57.9524 45.5697H59.9468V43.6277Z" fill="#B06A9B"/>
<path d="M61.941 43.6273L59.9468 43.6277V45.5697H61.941V43.6273Z" fill="#B06A9B"/>
<path d="M65.9294 43.6277L63.9357 43.6273V45.5697H65.9302L65.9294 43.6277Z" fill="#D167B1"/>
<path d="M67.9239 43.6277H65.9294L65.9302 45.5697H67.9239V43.6277Z" fill="#7E30B3"/>
<path d="M69.9191 43.6277H67.9239V45.5697H69.9191V43.6277Z" fill="#F6B1E1"/>
<path d="M71.9131 43.6277H69.9191V45.5697H71.9131V43.6277Z" fill="#F6CFEA"/>
<path d="M73.9078 43.6277H71.9131V45.5697H73.9078V43.6277Z" fill="#F6B1E1"/>
<path d="M75.902 43.6277H73.9078V45.5697H75.902V43.6277Z" fill="#7E30B3"/>
<path d="M77.8965 43.6277H75.902V45.5697H77.8965V43.6277Z" fill="#D167B1"/>
<path d="M43.9912 45.5697H41.9968V47.5125H43.9912V45.5697Z" fill="black"/>
<path d="M45.9856 45.5697H43.9912V47.5125H45.9856V45.5697Z" fill="#92547F"/>
<path d="M47.98 45.5697H45.9856V47.5125H47.98V45.5697Z" fill="#B06A9B"/>
<path d="M49.9747 45.5697H47.98V47.5125H49.9747V45.5697Z" fill="#533380"/>
<path d="M51.969 45.5697H49.9747V47.5125H51.969V45.5697Z" fill="#533380"/>
<path d="M53.9637 45.5697H51.969V47.5125H53.9637V45.5697Z" fill="#533380"/>
<path d="M55.9576 45.5697H53.9637V47.5125H55.9576V45.5697Z" fill="#362352"/>
<path d="M57.9524 45.5697H55.9576V47.5125H57.9522L57.9524 45.5697Z" fill="black"/>
<path d="M61.941 45.5697H59.9468L59.9465 47.5125H61.941V45.5697Z" fill="#B06A9B"/>
<path d="M65.9302 45.5697H63.9357V47.5125H65.9302V45.5697Z" fill="#D167B1"/>
<path d="M67.9239 45.5697H65.9302V47.5125H67.9239V45.5697Z" fill="#7E30B3"/>
<path d="M69.9191 45.5697H67.9239V47.5125H69.9191V45.5697Z" fill="#C350F2"/>
<path d="M71.9131 45.5697H69.9191V47.5125H71.9131V45.5697Z" fill="#F6B1E1"/>
<path d="M73.9078 45.5697H71.9131V47.5125H73.9078V45.5697Z" fill="#A031BB"/>
<path d="M75.902 45.5697H73.9078V47.5125H75.902V45.5697Z" fill="#7E30B3"/>
<path d="M77.8965 45.5697H75.902V47.5125H77.8965V45.5697Z" fill="#D167B1"/>
<path d="M41.9968 47.5125H40.003V49.455H41.9974L41.9968 47.5125Z" fill="black"/>
<path d="M43.9912 47.5125H41.9968L41.9974 49.455H43.9912V47.5125Z" fill="#362352"/>
<path d="M45.9856 47.5125H43.9912V49.455H45.9856V47.5125Z" fill="#533380"/>
<path d="M47.98 47.5125H45.9856V49.455H47.98V47.5125Z" fill="#362352"/>
<path d="M49.9747 47.5125H47.98V49.455H49.9747V47.5125Z" fill="black"/>
<path d="M51.969 47.5125H49.9747V49.455H51.969V47.5125Z" fill="black"/>
<path d="M53.9637 47.5125H51.969V49.455H53.9637V47.5125Z" fill="#533380"/>
<path d="M55.9576 47.5125H53.9637V49.455H55.9576V47.5125Z" fill="#533380"/>
<path d="M57.9522 47.5125H55.9576V49.455H57.9522V47.5125Z" fill="#362352"/>
<path d="M59.9465 47.5125H57.9522V49.455H59.9468L59.9465 47.5125Z" fill="black"/>
<path d="M67.9239 47.5125H65.9302L65.9294 49.455H67.9239V47.5125Z" fill="#D167B1"/>
<path d="M69.9191 47.5125H67.9239V49.455H69.9191V47.5125Z" fill="#A031BB"/>
<path d="M71.9131 47.5125H69.9191V49.455H71.9131V47.5125Z" fill="#A031BB"/>
<path d="M73.9078 47.5125H71.9131V49.455H73.9078V47.5125Z" fill="#A031BB"/>
<path d="M75.902 47.5125H73.9078V49.455H75.902V47.5125Z" fill="#D167B1"/>
<path d="M41.9974 49.455H40.003V51.3975H41.9974V49.455Z" fill="black"/>
<path d="M43.9912 49.455H41.9974V51.3975H43.9912V49.455Z" fill="#362352"/>
<path d="M45.9856 49.455H43.9912V51.3975H45.9856V49.455Z" fill="#362352"/>
<path d="M47.98 49.455H45.9856V51.3975H47.98V49.455Z" fill="black"/>
<path d="M49.9747 49.455H47.98V51.3975H49.9747V49.455Z" fill="#74EDD9"/>
<path d="M51.969 49.455H49.9747V51.3975H51.969V49.455Z" fill="#74EDD9"/>
<path d="M53.9637 49.455H51.969V51.3975H53.9637V49.455Z" fill="black"/>
<path d="M55.9576 49.455H53.9637V51.3975H55.9576V49.455Z" fill="#362352"/>
<path d="M57.9522 49.455H55.9576V51.3975H57.9522V49.455Z" fill="#362352"/>
<path d="M59.9468 49.455H57.9522V51.3975H59.9468V49.455Z" fill="black"/>
<path d="M69.9191 49.455H67.9239L67.9247 51.3975H69.9191V49.455Z" fill="#D167B1"/>
<path d="M71.9131 49.455H69.9191V51.3975H71.9131V49.455Z" fill="#D167B1"/>
<path d="M73.9078 49.455H71.9131V51.3975H73.9078V49.455Z" fill="#D167B1"/>
<path d="M41.9974 51.3975H40.003V53.3408H41.9974V51.3975Z" fill="black"/>
<path d="M43.9912 51.3975H41.9974V53.3408H43.9912V51.3975Z" fill="black"/>
<path d="M45.9856 51.3975H43.9912V53.3408H45.9856V51.3975Z" fill="black"/>
<path d="M47.98 51.3975H45.9856V53.3408H47.98V51.3975Z" fill="#513D6D"/>
<path d="M49.9747 51.3975H47.98V53.3408H49.9747V51.3975Z" fill="black"/>
<path d="M51.969 51.3975H49.9747V53.3408H51.969V51.3975Z" fill="black"/>
<path d="M53.9637 51.3975H51.969V53.3408H53.9637V51.3975Z" fill="#513D6D"/>
<path d="M55.9576 51.3975H53.9637V53.3408H55.9576V51.3975Z" fill="black"/>
<path d="M57.9522 51.3975H55.9576V53.3408H57.9522V51.3975Z" fill="black"/>
<path d="M59.9468 51.3975H57.9522V53.3408H59.9468V51.3975Z" fill="black"/>
<path d="M40.0022 53.3397H38.0078V55.2822H40.0022V53.3397Z" fill="black"/>
<path d="M41.9974 53.3397H40.0022V55.2822H41.9974V53.3397Z" fill="#6B4F92"/>
<path d="M43.9912 53.3397H41.9974V55.2822H43.9912V53.3397Z" fill="black"/>
<path d="M45.9856 53.3397H43.9912V55.2822H45.9856V53.3397Z" fill="#513D6D"/>
<path d="M47.98 53.3397H45.9856V55.2822H47.98V53.3397Z" fill="#7D5CAB"/>
<path d="M49.9747 53.3397H47.98V55.2822H49.9747V53.3397Z" fill="#7D5CAB"/>
<path d="M51.969 53.3397H49.9747V55.2822H51.969V53.3397Z" fill="#7D5CAB"/>
<path d="M53.9637 53.3397H51.969V55.2822H53.9637V53.3397Z" fill="#7D5CAB"/>
<path d="M55.9576 53.3397H53.9637V55.2822H55.9576V53.3397Z" fill="#7D5CAB"/>
<path d="M57.9522 53.3397H55.9576V55.2822H57.9522V53.3397Z" fill="#7D5CAB"/>
<path d="M59.9468 53.3397H57.9522V55.2822H59.9468V53.3397Z" fill="#7D5CAB"/>
<path d="M61.941 53.3397H59.9468V55.2822H61.941V53.3397Z" fill="black"/>
<path d="M40.0022 55.2822H38.0078V57.225H40.0022V55.2822Z" fill="black"/>
<path d="M41.9974 55.2822H40.0022V57.225H41.9974V55.2822Z" fill="#6B4F92"/>
<path d="M43.9912 55.2822H41.9974V57.225H43.9912V55.2822Z" fill="black"/>
<path d="M45.9856 55.2822H43.9912V57.225H45.9856V55.2822Z" fill="#7D5CAB"/>
<path d="M47.98 55.2822H45.9856V57.225H47.98V55.2822Z" fill="#7D5CAB"/>
<path d="M49.9747 55.2822H47.98V57.225H49.9747V55.2822Z" fill="#7D5CAB"/>
<path d="M51.969 55.2822H49.9747V57.225H51.969V55.2822Z" fill="#7D5CAB"/>
<path d="M53.9637 55.2822H51.969V57.225H53.9637V55.2822Z" fill="#7D5CAB"/>
<path d="M55.9576 55.2822H53.9637V57.225H55.9576V55.2822Z" fill="#7D5CAB"/>
<path d="M57.9522 55.2822H55.9576V57.225H57.9522V55.2822Z" fill="black"/>
<path d="M59.9468 55.2822H57.9522V57.225H59.9468V55.2822Z" fill="#7D5CAB"/>
<path d="M61.941 55.2822H59.9468V57.225H61.941V55.2822Z" fill="#7D5CAB"/>
<path d="M63.9357 55.2825L61.941 55.2822V57.225H63.9357V55.2825Z" fill="black"/>
<path d="M65.9302 55.2825H63.9357V57.225H65.9302V55.2825Z" fill="#E4AF7C"/>
<path d="M67.9239 55.2825H65.9302V57.225H67.9239V55.2825Z" fill="#E4AF7C"/>
<path d="M38.0078 57.225L36.0137 57.2255V59.168H38.0081L38.0078 57.225Z" fill="black"/>
<path d="M40.0022 57.225H38.0078L38.0081 59.168H40.0022V57.225Z" fill="#6B4F92"/>
<path d="M41.9974 57.225H40.0022V59.168H41.9974V57.225Z" fill="black"/>
<path d="M43.9912 57.225H41.9974V59.168H43.9912V57.225Z" fill="#1E0C2E"/>
<path d="M45.9856 57.225H43.9912V59.168H45.9856V57.225Z" fill="black"/>
<path d="M47.98 57.225H45.9856V59.168H47.98V57.225Z" fill="#7D5CAB"/>
<path d="M49.9747 57.225H47.98V59.168H49.9747V57.225Z" fill="#7D5CAB"/>
<path d="M51.969 57.225H49.9747V59.168H51.969V57.225Z" fill="#7D5CAB"/>
<path d="M53.9637 57.225H51.969V59.168H53.9637V57.225Z" fill="#7D5CAB"/>
<path d="M55.9576 57.225H53.9637V59.168H55.9576V57.225Z" fill="black"/>
<path d="M57.9522 57.225H55.9576V59.168H57.9522V57.225Z" fill="#1E0C2E"/>
<path d="M59.9468 57.225H57.9522V59.168H59.9468V57.225Z" fill="black"/>
<path d="M61.941 57.225H59.9468V59.168H61.941V57.225Z" fill="#7D5CAB"/>
<path d="M63.9357 57.225H61.941V59.168H63.9357V57.225Z" fill="#7D5CAB"/>
<path d="M65.9302 57.225H63.9357V59.168H65.9302V57.225Z" fill="#C89C70"/>
<path d="M67.9239 57.225H65.9302V59.168H67.9239V57.225Z" fill="#C89C70"/>
<path d="M69.9191 57.2255L67.9239 57.225V59.168H69.9191V57.2255Z" fill="#C89C70"/>
<path d="M38.0081 59.168H36.0137V61.1105H38.0081V59.168Z" fill="black"/>
<path d="M40.0022 59.168H38.0081V61.1105H40.0022V59.168Z" fill="#6B4F92"/>
<path d="M41.9974 59.168H40.0022V61.1105H41.9974V59.168Z" fill="black"/>
<path d="M43.9912 59.168H41.9974V61.1105H43.9912V59.168Z" fill="#1E0C2E"/>
<path d="M45.9856 59.168H43.9912V61.1105H45.9856V59.168Z" fill="black"/>
<path d="M47.98 59.168H45.9856V61.1105H47.98V59.168Z" fill="#A031BB"/>
<path d="M49.9747 59.168H47.98V61.1105H49.9747V59.168Z" fill="#8B23A4"/>
<path d="M51.969 59.168H49.9747V61.1105H51.969V59.168Z" fill="#A031BB"/>
<path d="M53.9637 59.168H51.969V61.1105H53.9637V59.168Z" fill="#8B23A4"/>
<path d="M55.9576 59.168H53.9637V61.1105H55.9576V59.168Z" fill="black"/>
<path d="M57.9522 59.168H55.9576V61.1105H57.9522V59.168Z" fill="#1E0C2E"/>
<path d="M59.9468 59.168H57.9522V61.1105H59.9468V59.168Z" fill="#341A4A"/>
<path d="M61.941 59.168H59.9468V61.1105H61.941V59.168Z" fill="black"/>
<path d="M63.9357 59.168H61.941V61.1105H63.9357V59.168Z" fill="black"/>
<path d="M36.0137 61.1105L34.019 61.1103V63.0528H36.0134L36.0137 61.1105Z" fill="#C89C70"/>
<path d="M38.0081 61.1105H36.0137L36.0134 63.0528H38.0081V61.1105Z" fill="#E4AF7C"/>
<path d="M40.0022 61.1105H38.0081V63.0528H40.0022V61.1105Z" fill="black"/>
<path d="M41.9974 61.1105H40.0022V63.0528H41.9974V61.1105Z" fill="#341A4A"/>
<path d="M43.9912 61.1105H41.9974V63.0528H43.9912V61.1105Z" fill="#1E0C2E"/>
<path d="M45.9856 61.1105H43.9912V63.0528H45.9856V61.1105Z" fill="black"/>
<path d="M47.98 61.1105H45.9856V63.0528H47.98V61.1105Z" fill="#8B23A4"/>
<path d="M49.9747 61.1105H47.98V63.0528H49.9747V61.1105Z" fill="#A031BB"/>
<path d="M51.969 61.1105H49.9747V63.0528H51.969V61.1105Z" fill="#8B23A4"/>
<path d="M53.9637 61.1105H51.969V63.0528H53.9637V61.1105Z" fill="#A031BB"/>
<path d="M55.9576 61.1105H53.9637V63.0528H55.9576V61.1105Z" fill="black"/>
<path d="M57.9522 61.1105H55.9576V63.0528H57.9522V61.1105Z" fill="#1E0C2E"/>
<path d="M59.9468 61.1105H57.9522V63.0528H59.9468V61.1105Z" fill="#341A4A"/>
<path d="M61.941 61.1105H59.9468V63.0528H61.941V61.1105Z" fill="#341A4A"/>
<path d="M63.9357 61.1105H61.941V63.0528H63.9357V61.1105Z" fill="black"/>
<path d="M36.0134 63.0528H34.019V64.9953H36.0134V63.0528Z" fill="#C89C70"/>
<path d="M38.0081 63.0528H36.0134V64.9953H38.0081V63.0528Z" fill="#E4AF7C"/>
<path d="M40.0022 63.0528H38.0081V64.9953H40.0022V63.0528Z" fill="#341A4A"/>
<path d="M41.9974 63.0528H40.0022V64.9953H41.9974V63.0528Z" fill="#1E0C2E"/>
<path d="M43.9912 63.0528H41.9974V64.9953H43.9912V63.0528Z" fill="black"/>
<path d="M45.9856 63.0528H43.9912V64.9953H45.9856V63.0528Z" fill="#513D6D"/>
<path d="M47.98 63.0528H45.9856V64.9953H47.98V63.0528Z" fill="#7D5CAB"/>
<path d="M49.9747 63.0528H47.98V64.9953H49.9747V63.0528Z" fill="#7D5CAB"/>
<path d="M51.969 63.0528H49.9747V64.9953H51.969V63.0528Z" fill="#7D5CAB"/>
<path d="M53.9637 63.0528H51.969V64.9953H53.9637V63.0528Z" fill="#7D5CAB"/>
<path d="M55.9576 63.0528H53.9637V64.9953H55.9576V63.0528Z" fill="#513D6D"/>
<path d="M57.9522 63.0528H55.9576V64.9953H57.9522V63.0528Z" fill="black"/>
<path d="M59.9468 63.0528H57.9522V64.9953H59.9468V63.0528Z" fill="#1E0C2E"/>
<path d="M61.941 63.0528H59.9468V64.9953H61.941V63.0528Z" fill="#341A4A"/>
<path d="M63.9357 63.0528H61.941V64.9953H63.9357V63.0528Z" fill="#341A4A"/>
<path d="M65.9302 63.0528H63.9357V64.9953H65.9302V63.0528Z" fill="black"/>
<path d="M36.0134 64.9953H34.019V66.938H36.0134V64.9953Z" fill="black"/>
<path d="M38.0081 64.9953H36.0134V66.938H38.0081V64.9953Z" fill="#341A4A"/>
<path d="M40.0022 64.9953H38.0081V66.938H40.0022V64.9953Z" fill="#341A4A"/>
<path d="M41.9974 64.9953H40.0022V66.938H41.9974V64.9953Z" fill="#1E0C2E"/>
<path d="M43.9912 64.9953H41.9974V66.938H43.9912V64.9953Z" fill="black"/>
<path d="M45.9856 64.9953H43.9912V66.938H45.9856V64.9953Z" fill="#513D6D"/>
<path d="M47.98 64.9953H45.9856V66.938H47.98V64.9953Z" fill="#7D5CAB"/>
<path d="M49.9747 64.9953H47.98V66.938H49.9747V64.9953Z" fill="#7D5CAB"/>
<path d="M51.969 64.9953H49.9747V66.938H51.969V64.9953Z" fill="#7D5CAB"/>
<path d="M53.9637 64.9953H51.969V66.938H53.9637V64.9953Z" fill="#7D5CAB"/>
<path d="M55.9576 64.9953H53.9637V66.938H55.9576V64.9953Z" fill="#513D6D"/>
<path d="M57.9522 64.9953H55.9576V66.938H57.9522V64.9953Z" fill="black"/>
<path d="M59.9468 64.9953H57.9522V66.938H59.9468V64.9953Z" fill="#1E0C2E"/>
<path d="M61.941 64.9953H59.9468V66.938H61.941V64.9953Z" fill="#341A4A"/>
<path d="M63.9357 64.9953H61.941V66.938H63.9357V64.9953Z" fill="#341A4A"/>
<path d="M65.9302 64.9953H63.9357V66.938H65.9302V64.9953Z" fill="black"/>
<path d="M34.019 66.938H32.0249V68.8805H34.0193L34.019 66.938Z" fill="black"/>
<path d="M36.0134 66.938H34.019L34.0193 68.8805H36.0134V66.938Z" fill="#341A4A"/>
<path d="M38.0081 66.938H36.0134V68.8805H38.0081V66.938Z" fill="#341A4A"/>
<path d="M40.0022 66.938H38.0081V68.8805H40.0022V66.938Z" fill="#341A4A"/>
<path d="M41.9974 66.938H40.0022V68.8805H41.9974V66.938Z" fill="#1E0C2E"/>
<path d="M43.9912 66.938H41.9974V68.8805H43.9912V66.938Z" fill="black"/>
<path d="M45.9856 66.938H43.9912V68.8805H45.9856V66.938Z" fill="#513D6D"/>
<path d="M47.98 66.938H45.9856V68.8805H47.98V66.938Z" fill="#7D5CAB"/>
<path d="M49.9747 66.938H47.98V68.8805H49.9747V66.938Z" fill="#7D5CAB"/>
<path d="M51.969 66.938H49.9747V68.8805H51.969V66.938Z" fill="#7D5CAB"/>
<path d="M53.9637 66.938H51.969V68.8805H53.9637V66.938Z" fill="#7D5CAB"/>
<path d="M55.9576 66.938H53.9637V68.8805H55.9576V66.938Z" fill="#7D5CAB"/>
<path d="M57.9522 66.938H55.9576V68.8805H57.9522V66.938Z" fill="#513D6D"/>
<path d="M59.9468 66.938H57.9522V68.8805H59.9468V66.938Z" fill="black"/>
<path d="M61.941 66.938H59.9468V68.8805H61.941V66.938Z" fill="#1E0C2E"/>
<path d="M63.9357 66.938H61.941V68.8805H63.9357V66.938Z" fill="#341A4A"/>
<path d="M65.9302 66.938H63.9357V68.8805H65.9302V66.938Z" fill="#341A4A"/>
<path d="M67.9239 66.938H65.9302V68.8805H67.9239V66.938Z" fill="black"/>
<path d="M34.0193 68.8805H32.0249V70.823H34.0193V68.8805Z" fill="black"/>
<path d="M36.0134 68.8805H34.0193V70.823H36.0134V68.8805Z" fill="#341A4A"/>
<path d="M38.0081 68.8805H36.0134V70.823H38.0081V68.8805Z" fill="#341A4A"/>
<path d="M40.0022 68.8805H38.0081V70.823H40.0022V68.8805Z" fill="#1E0C2E"/>
<path d="M41.9974 68.8805H40.0022V70.823H41.9974V68.8805Z" fill="black"/>
<path d="M43.9912 68.8805H41.9974V70.823H43.9912V68.8805Z" fill="#513D6D"/>
<path d="M45.9856 68.8805H43.9912V70.823H45.9856V68.8805Z" fill="#7D5CAB"/>
<path d="M47.98 68.8805H45.9856V70.823H47.98V68.8805Z" fill="#7D5CAB"/>
<path d="M49.9747 68.8805H47.98V70.823H49.9747V68.8805Z" fill="#7D5CAB"/>
<path d="M51.969 68.8805H49.9747V70.823H51.969V68.8805Z" fill="#7D5CAB"/>
<path d="M53.9637 68.8805H51.969V70.823H53.9637V68.8805Z" fill="#7D5CAB"/>
<path d="M55.9576 68.8805H53.9637V70.823H55.9576V68.8805Z" fill="#7D5CAB"/>
<path d="M57.9522 68.8805H55.9576V70.823H57.9522V68.8805Z" fill="#513D6D"/>
<path d="M59.9468 68.8805H57.9522V70.823H59.9468V68.8805Z" fill="black"/>
<path d="M61.941 68.8805H59.9468V70.823H61.941V68.8805Z" fill="#1E0C2E"/>
<path d="M63.9357 68.8805H61.941V70.823H63.9357V68.8805Z" fill="#341A4A"/>
<path d="M65.9302 68.8805H63.9357V70.823H65.9302V68.8805Z" fill="#341A4A"/>
<path d="M67.9239 68.8805H65.9302V70.823H67.9239V68.8805Z" fill="black"/>
<path d="M34.0193 70.823H32.0249V72.7658H34.0193V70.823Z" fill="black"/>
<path d="M36.0134 70.823H34.0193V72.7658H36.0134V70.823Z" fill="#341A4A"/>
<path d="M38.0081 70.823H36.0134V72.7658H38.0081V70.823Z" fill="#341A4A"/>
<path d="M40.0022 70.823H38.0081V72.7658H40.0022V70.823Z" fill="#1E0C2E"/>
<path d="M41.9974 70.823H40.0022V72.7658H41.9974V70.823Z" fill="black"/>
<path d="M43.9912 70.823H41.9974V72.7658H43.9912V70.823Z" fill="#513D6D"/>
<path d="M45.9856 70.823H43.9912V72.7658H45.9856V70.823Z" fill="#7D5CAB"/>
<path d="M47.98 70.823H45.9856V72.7658H47.98V70.823Z" fill="#7D5CAB"/>
<path d="M49.9747 70.823H47.98V72.7658H49.9747V70.823Z" fill="#7D5CAB"/>
<path d="M51.969 70.823H49.9747V72.7658H51.969V70.823Z" fill="#7D5CAB"/>
<path d="M53.9637 70.823H51.969V72.7658H53.9637V70.823Z" fill="#7D5CAB"/>
<path d="M55.9576 70.823H53.9637V72.7658H55.9576V70.823Z" fill="#7D5CAB"/>
<path d="M57.9522 70.823H55.9576V72.7658H57.9522V70.823Z" fill="#513D6D"/>
<path d="M59.9468 70.823H57.9522V72.7658H59.9468V70.823Z" fill="black"/>
<path d="M61.941 70.823H59.9468V72.7658H61.941V70.823Z" fill="#1E0C2E"/>
<path d="M63.9357 70.823H61.941V72.7658H63.9357V70.823Z" fill="#341A4A"/>
<path d="M65.9302 70.823H63.9357V72.7658H65.9302V70.823Z" fill="#341A4A"/>
<path d="M67.9239 70.823H65.9302V72.7658H67.9239V70.823Z" fill="black"/>
<path d="M34.0193 72.7647H32.0249V74.7072H34.0193V72.7647Z" fill="black"/>
<path d="M36.0134 72.7647H34.0193V74.7072H36.0134V72.7647Z" fill="#1E0C2E"/>
<path d="M38.0081 72.7647H36.0134V74.7072H38.0081V72.7647Z" fill="black"/>
<path d="M40.0022 72.7647H38.0081V74.7072H40.0022V72.7647Z" fill="black"/>
<path d="M41.9974 72.7647H40.0022V74.7072H41.9974V72.7647Z" fill="black"/>
<path d="M43.9912 72.7647H41.9974V74.7072H43.9912V72.7647Z" fill="#513D6D"/>
<path d="M45.9856 72.7647H43.9912V74.7072H45.9856V72.7647Z" fill="#7D5CAB"/>
<path d="M47.98 72.7647H45.9856V74.7072H47.98V72.7647Z" fill="#7D5CAB"/>
<path d="M49.9747 72.7647H47.98V74.7072H49.9747V72.7647Z" fill="#7D5CAB"/>
<path d="M51.969 72.7647H49.9747V74.7072H51.969V72.7647Z" fill="#513D6D"/>
<path d="M53.9637 72.7647H51.969V74.7072H53.9637V72.7647Z" fill="#7D5CAB"/>
<path d="M55.9576 72.7647H53.9637V74.7072H55.9576V72.7647Z" fill="#7D5CAB"/>
<path d="M57.9522 72.7647H55.9576V74.7072H57.9522V72.7647Z" fill="#513D6D"/>
<path d="M59.9468 72.7647H57.9522V74.7072H59.9468V72.7647Z" fill="black"/>
<path d="M61.941 72.7647H59.9468V74.7072H61.941V72.7647Z" fill="black"/>
<path d="M63.9357 72.7647H61.941V74.7072H63.9357V72.7647Z" fill="#1E0C2E"/>
<path d="M65.9302 72.7647H63.9357V74.7072H65.9302V72.7647Z" fill="black"/>
<path d="M67.9239 72.7647H65.9302V74.7072H67.9239V72.7647Z" fill="#341A4A"/>
<path d="M69.9191 72.7647H67.9239V74.7072H69.9191V72.7647Z" fill="black"/>
<path d="M36.0134 74.7072H34.0193L34.019 76.6505H36.0134V74.7072Z" fill="black"/>
<path d="M41.9974 74.7072L40.003 74.708V76.6505H41.9974V74.7072Z" fill="black"/>
<path d="M43.9912 74.7072H41.9974V76.6505H43.9912V74.7072Z" fill="#513D6D"/>
<path d="M45.9856 74.7072H43.9912V76.6505H45.9856V74.7072Z" fill="#7D5CAB"/>
<path d="M47.98 74.7072H45.9856V76.6505H47.98V74.7072Z" fill="#7D5CAB"/>
<path d="M49.9747 74.7072H47.98V76.6505H49.9747V74.7072Z" fill="#513D6D"/>
<path d="M51.969 74.7072H49.9747V76.6505H51.969V74.7072Z" fill="#513D6D"/>
<path d="M53.9637 74.7072H51.969V76.6505H53.9637V74.7072Z" fill="#7D5CAB"/>
<path d="M55.9576 74.7072H53.9637V76.6505H55.9576V74.7072Z" fill="#7D5CAB"/>
<path d="M57.9522 74.7072H55.9576V76.6505H57.9522V74.7072Z" fill="#513D6D"/>
<path d="M59.9468 74.7072H57.9522V76.6505H59.9468V74.7072Z" fill="black"/>
<path d="M63.9357 74.7072H61.941L61.9412 76.6505H63.9357V74.7072Z" fill="black"/>
<path d="M67.9239 74.7072L65.9294 74.708V76.6505H67.9239V74.7072Z" fill="black"/>
<path d="M69.9191 74.7072L67.9247 74.708L67.9239 76.6505H69.9191V74.7072Z" fill="black"/>
<path d="M40.003 76.6505L38.0078 76.65V78.5925H40.0022L40.003 76.6505Z" fill="black"/>
<path d="M41.9974 76.6505H40.003L40.0022 78.5925H41.9974V76.6505Z" fill="#513D6D"/>
<path d="M43.9912 76.6505H41.9974V78.5925H43.9912V76.6505Z" fill="#7D5CAB"/>
<path d="M45.9856 76.6505H43.9912V78.5925H45.9856V76.6505Z" fill="#7D5CAB"/>
<path d="M47.98 76.6505H45.9856V78.5925H47.98V76.6505Z" fill="#7D5CAB"/>
<path d="M49.9747 76.6505H47.98V78.5925H49.9747V76.6505Z" fill="#513D6D"/>
<path d="M51.969 76.6505H49.9747V78.5925H51.969V76.6505Z" fill="#513D6D"/>
<path d="M53.9637 76.6505H51.969V78.5925H53.9637V76.6505Z" fill="#7D5CAB"/>
<path d="M55.9576 76.6505H53.9637V78.5925H55.9576V76.6505Z" fill="#7D5CAB"/>
<path d="M57.9522 76.6505H55.9576V78.5925H57.9522V76.6505Z" fill="#7D5CAB"/>
<path d="M59.9468 76.6505H57.9522V78.5925H59.9468V76.6505Z" fill="#513D6D"/>
<path d="M61.9412 76.6505H59.9468V78.5925H61.941L61.9412 76.6505Z" fill="black"/>
<path d="M40.0022 78.5925H38.0078V80.535H40.0022V78.5925Z" fill="black"/>
<path d="M41.9974 78.5925H40.0022V80.535H41.9974V78.5925Z" fill="#513D6D"/>
<path d="M43.9912 78.5925H41.9974V80.535H43.9912V78.5925Z" fill="#7D5CAB"/>
<path d="M45.9856 78.5925H43.9912V80.535H45.9856V78.5925Z" fill="#7D5CAB"/>
<path d="M47.98 78.5925H45.9856V80.535H47.98V78.5925Z" fill="#513D6D"/>
<path d="M49.9747 78.5925H47.98V80.535H49.9747V78.5925Z" fill="#513D6D"/>
<path d="M51.969 78.5925H49.9747V80.535H51.969V78.5925Z" fill="#513D6D"/>
<path d="M53.9637 78.5925H51.969V80.535H53.9637V78.5925Z" fill="#513D6D"/>
<path d="M55.9576 78.5925H53.9637V80.535H55.9576V78.5925Z" fill="#7D5CAB"/>
<path d="M57.9522 78.5925H55.9576V80.535H57.9522V78.5925Z" fill="#7D5CAB"/>
<path d="M59.9468 78.5925H57.9522V80.535H59.9468V78.5925Z" fill="#513D6D"/>
<path d="M61.941 78.5925H59.9468V80.535H61.941V78.5925Z" fill="black"/>
<path d="M38.0078 80.535L36.0137 80.5358V82.4783H38.0081L38.0078 80.535Z" fill="black"/>
<path d="M40.0022 80.535H38.0078L38.0081 82.4783H40.0022V80.535Z" fill="#513D6D"/>
<path d="M41.9974 80.535L40.003 80.5358L40.0022 82.4783H41.9974V80.535Z" fill="#7D5CAB"/>
<path d="M43.9912 80.535H41.9974V82.4783H43.9912V80.535Z" fill="#7D5CAB"/>
<path d="M45.9856 80.535H43.9912V82.4783H45.9856V80.535Z" fill="#7D5CAB"/>
<path d="M47.98 80.535H45.9856V82.4783H47.98V80.535Z" fill="#513D6D"/>
<path d="M49.9747 80.535H47.98V82.4783H49.9747V80.535Z" fill="#513D6D"/>
<path d="M51.969 80.535H49.9747V82.4783H51.969V80.535Z" fill="#513D6D"/>
<path d="M53.9637 80.535H51.969V82.4783H53.9637V80.535Z" fill="#513D6D"/>
<path d="M55.9576 80.535H53.9637V82.4783H55.9576V80.535Z" fill="#7D5CAB"/>
<path d="M57.9522 80.535H55.9576V82.4783H57.9522V80.535Z" fill="#7D5CAB"/>
<path d="M59.9468 80.535H57.9522V82.4783H59.9468V80.535Z" fill="#7D5CAB"/>
<path d="M61.941 80.535H59.9468V82.4783H61.941V80.535Z" fill="#513D6D"/>
<path d="M63.9357 80.5358L61.941 80.535V82.4783H63.9357V80.5358Z" fill="black"/>
<path d="M40.0022 82.4783H38.0081L38.0078 84.4203H40.0022V82.4783Z" fill="black"/>
<path d="M41.9974 82.4783H40.0022V84.4203H41.9974V82.4783Z" fill="black"/>
<path d="M43.9912 82.4783H41.9974V84.4203H43.9912V82.4783Z" fill="#7D5CAB"/>
<path d="M45.9856 82.4783H43.9912V84.4203H45.9856V82.4783Z" fill="#513D6D"/>
<path d="M47.98 82.4783H45.9856V84.4203H47.98V82.4783Z" fill="#513D6D"/>
<path d="M49.9747 82.4783H47.98V84.4203H49.9747V82.4783Z" fill="#513D6D"/>
<path d="M51.969 82.4783H49.9747V84.4203H51.969V82.4783Z" fill="#513D6D"/>
<path d="M53.9637 82.4783H51.969V84.4203H53.9637V82.4783Z" fill="#513D6D"/>
<path d="M55.9576 82.4783H53.9637V84.4203H55.9576V82.4783Z" fill="#513D6D"/>
<path d="M57.9522 82.4783H55.9576V84.4203H57.9522V82.4783Z" fill="#7D5CAB"/>
<path d="M59.9468 82.4783H57.9522V84.4203H59.9468V82.4783Z" fill="black"/>
<path d="M61.941 82.4783H59.9468V84.4203H61.941V82.4783Z" fill="black"/>
<path d="M43.9912 84.4203H41.9974L41.9968 86.3625H43.9912V84.4203Z" fill="black"/>
<path d="M45.9856 84.4203H43.9912V86.3625H45.9856V84.4203Z" fill="black"/>
<path d="M47.98 84.4203H45.9856V86.3625H47.98V84.4203Z" fill="black"/>
<path d="M49.9747 84.4203H47.98V86.3625H49.9747V84.4203Z" fill="black"/>
<path d="M51.969 84.4203H49.9747V86.3625H51.969V84.4203Z" fill="black"/>
<path d="M53.9637 84.4203H51.969V86.3625H53.9637V84.4203Z" fill="black"/>
<path d="M55.9576 84.4203H53.9637V86.3625H55.9576V84.4203Z" fill="black"/>
<path d="M57.9522 84.4203H55.9576V86.3625H57.9522V84.4203Z" fill="black"/>
</svg>
