<svg width="105" height="105" viewBox="0 0 105 105" fill="none" xmlns="http://www.w3.org/2000/svg">
<path d="M52.5005 4.73279C78.8831 4.73297 100.267 26.1202 100.267 52.5004C100.267 78.8803 78.8804 100.267 52.5005 100.267C26.1204 100.267 4.73309 78.8804 4.73291 52.5004C4.73291 26.1201 26.1177 4.73279 52.5005 4.73279Z" fill="#F9F7E7" stroke="#29100A" stroke-width="2"/>
<path d="M75.5818 54.1459H73.8809V55.8469H75.5818V54.1459Z" fill="#754807"/>
<path d="M73.8808 57.5636H72.1641V59.2646H73.8808V57.5636Z" fill="#968E8B"/>
<path d="M73.8809 55.8469L72.1641 55.8469V57.5636H73.8808L73.8809 55.8469Z" fill="#754807"/>
<path d="M73.8809 54.1459H72.1641V55.8469L73.8809 55.8469V54.1459Z" fill="#754807"/>
<path d="M73.8808 52.4265H72.1641V54.1433H73.8808V52.4265Z" fill="#754807"/>
<path d="M72.1611 59.262H70.4443V60.9787H72.1611V59.262Z" fill="#754807"/>
<path d="M72.1611 57.5636H70.4443V59.2646H72.1611V57.5636Z" fill="#754807"/>
<path d="M72.1611 55.8469H70.4443V57.5636H72.1611V55.8469Z" fill="#968E8B"/>
<path d="M72.1611 54.1459H70.4443V55.8469H72.1611V54.1459Z" fill="#754807"/>
<path d="M72.1611 52.4265H70.4443V54.1433H72.1611V52.4265Z" fill="#754807"/>
<path d="M72.1611 50.7281H70.4443V52.4291H72.1611V50.7281Z" fill="#754807"/>
<path d="M72.1611 42.1759H70.4443V43.8769H72.1611V42.1759Z" fill="#020000"/>
<path d="M72.1611 40.4591H70.4443V42.1759H72.1611V40.4591Z" fill="#020000"/>
<path d="M72.1611 38.7582H70.4443V40.4591H72.1611V38.7582Z" fill="#020000"/>
<path d="M72.1611 37.0414H70.4443V38.7582H72.1611V37.0414Z" fill="#020000"/>
<path d="M70.4443 60.9787L68.7437 60.9788V62.6955H70.4446L70.4443 60.9787Z" fill="#968E8B"/>
<path d="M70.4443 59.262H68.7437V60.9788L70.4443 60.9787V59.262Z" fill="#754807"/>
<path d="M70.4443 57.5636H68.7437V59.2646H70.4443V57.5636Z" fill="#754807"/>
<path d="M70.4443 55.8469H68.7437V57.5636H70.4443V55.8469Z" fill="#754807"/>
<path d="M70.4443 54.1459H68.7437V55.8469H70.4443V54.1459Z" fill="#968E8B"/>
<path d="M70.4443 52.4265H68.7437V54.1433H70.4443V52.4265Z" fill="#754807"/>
<path d="M70.4443 50.7281H68.7437V52.4291H70.4443V50.7281Z" fill="#754807"/>
<path d="M70.4446 45.5936H68.7437V47.3104H70.4446V45.5936Z" fill="#020000"/>
<path d="M70.4446 43.8743H68.7437V45.591H70.4446V43.8743Z" fill="#020000"/>
<path d="M70.4443 42.1759H68.7437V43.8769H70.4443V42.1759Z" fill="#586689"/>
<path d="M70.4443 40.4591H68.7437V42.1759H70.4443V40.4591Z" fill="#586689"/>
<path d="M70.4443 38.7582H68.7437V40.4591H70.4443V38.7582Z" fill="#586689"/>
<path d="M70.4443 37.0414H68.7437V38.7582H70.4443V37.0414Z" fill="#586689"/>
<path d="M70.4446 35.343H68.7437V37.044H70.4446V35.343Z" fill="#020000"/>
<path d="M68.7436 62.6981H67.0269V64.3991H68.7436V62.6981Z" fill="#754807"/>
<path d="M68.7437 60.9788H67.0269V62.6955H68.7437V60.9788Z" fill="#754807"/>
<path d="M68.7437 59.262H67.0269V60.9788H68.7437V59.262Z" fill="#968E8B"/>
<path d="M68.7437 57.5636H67.0269V59.2646H68.7437V57.5636Z" fill="#754807"/>
<path d="M68.7437 55.8469H67.0269V57.5636H68.7437V55.8469Z" fill="#754807"/>
<path d="M68.7437 54.1459H67.0269V55.8469H68.7437V54.1459Z" fill="#754807"/>
<path d="M68.7437 52.4265H67.0269V54.1433H68.7437V52.4265Z" fill="#968E8B"/>
<path d="M68.7437 47.3104L67.0269 47.3104V49.0114H68.7436L68.7437 47.3104Z" fill="#020000"/>
<path d="M68.7437 45.5936H67.0269V47.3104L68.7437 47.3104V45.5936Z" fill="#439B3E"/>
<path d="M68.7437 43.8743H67.0269V45.591H68.7437V43.8743Z" fill="#439B3E"/>
<path d="M68.7437 42.1759H67.0269V43.8769H68.7437V42.1759Z" fill="#717A97"/>
<path d="M68.7437 40.4591H67.0269V42.1759H68.7437V40.4591Z" fill="#717A97"/>
<path d="M68.7437 38.7582H67.0269V40.4591H68.7437V38.7582Z" fill="#586689"/>
<path d="M68.7437 37.0414H67.0269V38.7582H68.7437V37.0414Z" fill="#586689"/>
<path d="M68.7437 35.343H67.0269V37.044H68.7437V35.343Z" fill="#586689"/>
<path d="M68.7436 33.6237H67.0269V35.3404H68.7436V33.6237Z" fill="#020000"/>
<path d="M67.0296 86.6198H65.3286V88.3365H67.0296V86.6198Z" fill="#020000"/>
<path d="M67.0296 84.9187H65.3286V86.6198H67.0296V84.9187Z" fill="#020000"/>
<path d="M67.0296 83.202H65.3286V84.9187H67.0296V83.202Z" fill="#020000"/>
<path d="M67.0296 81.5037H65.3286V83.2047H67.0296V81.5037Z" fill="#020000"/>
<path d="M67.0296 79.7843H65.3286V81.5011H67.0296V79.7843Z" fill="#020100"/>
<path d="M67.0296 78.0833H65.3286V79.7843H67.0296V78.0833Z" fill="#020100"/>
<path d="M67.0296 76.3665H65.3286V78.0833H67.0296V76.3665Z" fill="#020000"/>
<path d="M67.0296 74.6681H65.3286V76.3691H67.0296V74.6681Z" fill="#020000"/>
<path d="M67.0296 72.9514H65.3286V74.6681H67.0296V72.9514Z" fill="#020000"/>
<path d="M67.0296 71.2319H65.3286V72.9487H67.0296V71.2319Z" fill="#020000"/>
<path d="M67.0296 69.531H65.3286V71.2319H67.0296V69.531Z" fill="#020000"/>
<path d="M67.0296 67.8142H65.3286V69.531H67.0296V67.8142Z" fill="#020000"/>
<path d="M67.0296 66.1158H65.3286V67.8168H67.0296V66.1158Z" fill="#020000"/>
<path d="M67.0296 64.3992H65.3286V66.1158H67.0296V64.3992Z" fill="#020000"/>
<path d="M67.0296 62.6981H65.3286V64.3992H67.0296V62.6981Z" fill="#020000"/>
<path d="M67.0296 60.9788H65.3286V62.6955H67.0296V60.9788Z" fill="#754807"/>
<path d="M67.0296 59.262H65.3286V60.9788H67.0296V59.262Z" fill="#754807"/>
<path d="M67.0296 57.5636H65.3286V59.2646H67.0296V57.5636Z" fill="#968E8B"/>
<path d="M67.0296 55.8469H65.3286V57.5636H67.0296V55.8469Z" fill="#754807"/>
<path d="M67.0296 54.1459H65.3286V55.8469H67.0296V54.1459Z" fill="#49302B"/>
<path d="M67.0296 52.4265H65.3286V54.1433H67.0296V52.4265Z" fill="#49302B"/>
<path d="M67.0296 50.7281H65.3286V52.4291H67.0296V50.7281Z" fill="#968E8B"/>
<path d="M67.0296 49.0114H65.3286V50.7281H67.0296V49.0114Z" fill="#020000"/>
<path d="M67.0296 47.3104H65.3286V49.0114H67.0296V47.3104Z" fill="#439B3E"/>
<path d="M67.0296 45.5936H65.3286V47.3104H67.0296V45.5936Z" fill="#439B3E"/>
<path d="M67.0296 43.8743H65.3286V45.591H67.0296V43.8743Z" fill="#439B3E"/>
<path d="M67.0296 42.1759H65.3286V43.8769H67.0296V42.1759Z" fill="#439B3E"/>
<path d="M67.0296 40.4591H65.3286V42.1759H67.0296V40.4591Z" fill="#717A97"/>
<path d="M67.0296 38.7582H65.3286V40.4591H67.0296V38.7582Z" fill="#717A97"/>
<path d="M67.0296 37.0414H65.3286V38.7582H67.0296V37.0414Z" fill="#586689"/>
<path d="M67.0296 35.343H65.3286V37.044H67.0296V35.343Z" fill="#586689"/>
<path d="M67.0296 33.6237H65.3286V35.3404H67.0296V33.6237Z" fill="#586689"/>
<path d="M67.0296 31.9069H65.3286V33.6237H67.0296V31.9069Z" fill="#020000"/>
<path d="M65.3286 86.6198H63.6118V88.3365H65.3286V86.6198Z" fill="#020000"/>
<path d="M65.3286 84.9187H63.6118V86.6198H65.3286V84.9187Z" fill="#2B1910"/>
<path d="M65.3286 83.202H63.6118V84.9187H65.3286V83.202Z" fill="#2B1910"/>
<path d="M65.3286 81.5037H63.6118V83.2047H65.3286V81.5037Z" fill="#2B1910"/>
<path d="M65.3286 79.7843H63.6118V81.5011H65.3286V79.7843Z" fill="#2B1910"/>
<path d="M65.3286 78.0833H63.6118V79.7843H65.3286V78.0833Z" fill="#2B1910"/>
<path d="M65.3286 76.3665H63.6118V78.0833H65.3286V76.3665Z" fill="#2B1910"/>
<path d="M65.3286 74.6681H63.6118V76.3691H65.3286V74.6681Z" fill="#381D18"/>
<path d="M65.3286 72.9514H63.6118V74.6681H65.3286V72.9514Z" fill="#381D18"/>
<path d="M65.3286 71.2319H63.6118V72.9487H65.3286V71.2319Z" fill="#381D18"/>
<path d="M65.3286 69.531H63.6118V71.2319H65.3286V69.531Z" fill="#381D18"/>
<path d="M65.3286 67.8142H63.6118V69.531H65.3286V67.8142Z" fill="#381D18"/>
<path d="M65.3286 66.1158H63.6118V67.8168H65.3286V66.1158Z" fill="#381D18"/>
<path d="M65.3286 64.3992H63.6118V66.1158H65.3286V64.3992Z" fill="#381D18"/>
<path d="M65.3286 62.6981H63.6118V64.3992H65.3286V62.6981Z" fill="#381D18"/>
<path d="M65.3286 60.9788H63.6118V62.6955H65.3286V60.9788Z" fill="#020000"/>
<path d="M65.3286 59.262H63.6118V60.9788H65.3286V59.262Z" fill="#754807"/>
<path d="M65.3286 57.5636H63.6118V59.2646H65.3286V57.5636Z" fill="#968E8B"/>
<path d="M65.3286 55.8469H63.6118V57.5636H65.3286V55.8469Z" fill="#49302B"/>
<path d="M65.3286 54.1459H63.6118V55.8469H65.3286V54.1459Z" fill="#49302B"/>
<path d="M65.3286 52.4265H63.6118V54.1433H65.3286V52.4265Z" fill="#968E8B"/>
<path d="M65.3286 50.7281H63.6118V52.4291H65.3286V50.7281Z" fill="#020000"/>
<path d="M65.3286 49.0114H63.6118V50.7281H65.3286V49.0114Z" fill="#439B3E"/>
<path d="M65.3286 47.3104H63.6118V49.0114H65.3286V47.3104Z" fill="#439B3E"/>
<path d="M65.3286 45.5936H63.6118V47.3104H65.3286V45.5936Z" fill="#34872D"/>
<path d="M65.3286 43.8743H63.6118V45.591H65.3286V43.8743Z" fill="#34872D"/>
<path d="M65.3286 42.1759H63.6118V43.8769H65.3286V42.1759Z" fill="#439B3E"/>
<path d="M65.3286 40.4591H63.6118V42.1759H65.3286V40.4591Z" fill="#717A97"/>
<path d="M65.3286 38.7582H63.6118V40.4591H65.3286V38.7582Z" fill="#717A97"/>
<path d="M65.3286 37.0414H63.6118V38.7582H65.3286V37.0414Z" fill="#717A97"/>
<path d="M65.3286 35.343H63.6118V37.044H65.3286V35.343Z" fill="#586689"/>
<path d="M65.3286 33.6237H63.6118V35.3404H65.3286V33.6237Z" fill="#586689"/>
<path d="M65.3286 31.9069H63.6118V33.6237H65.3286V31.9069Z" fill="#020000"/>
<path d="M63.6118 84.9187H61.9106V86.6197L63.6118 86.6198V84.9187Z" fill="#020100"/>
<path d="M63.6118 83.202H61.9106V84.9187H63.6118V83.202Z" fill="#2B1910"/>
<path d="M63.6118 81.5037H61.9106V83.2047H63.6118V81.5037Z" fill="#2B1910"/>
<path d="M63.6118 79.7843H61.9106V81.5011H63.6118V79.7843Z" fill="#2B1910"/>
<path d="M63.6118 78.0833H61.9106V79.7843H63.6118V78.0833Z" fill="#2B1910"/>
<path d="M63.6118 76.3665H61.9106V78.0833H63.6118V76.3665Z" fill="#2B1910"/>
<path d="M63.6118 74.6681H61.9106V76.3691H63.6118V74.6681Z" fill="#49302B"/>
<path d="M63.6118 72.9514H61.9106V74.6681H63.6118V72.9514Z" fill="#381D18"/>
<path d="M63.6118 71.2319H61.9106V72.9487H63.6118V71.2319Z" fill="#381D18"/>
<path d="M63.6118 69.531H61.9106V71.2319H63.6118V69.531Z" fill="#381D18"/>
<path d="M63.6118 67.8142H61.9106V69.531H63.6118V67.8142Z" fill="#020100"/>
<path d="M63.6118 66.1158H61.9106V67.8168H63.6118V66.1158Z" fill="#020000"/>
<path d="M63.6118 64.3992H61.9106V66.1158H63.6118V64.3992Z" fill="#020000"/>
<path d="M63.6118 62.6981H61.9106V64.3992H63.6118V62.6981Z" fill="#020000"/>
<path d="M63.6118 60.9788H61.9106V62.6955H63.6118V60.9788Z" fill="#020000"/>
<path d="M63.6118 59.262H61.9106V60.9788H63.6118V59.262Z" fill="#020000"/>
<path d="M63.6118 57.5636H61.9106V59.2646H63.6118V57.5636Z" fill="#00FFE2"/>
<path d="M63.6118 55.8469H61.9106V57.5636H63.6118V55.8469Z" fill="#968E8B"/>
<path d="M63.6118 54.1459H61.9106V55.8469H63.6118V54.1459Z" fill="#968E8B"/>
<path d="M63.6118 52.4265H61.9106V54.1433H63.6118V52.4265Z" fill="#020000"/>
<path d="M63.6118 50.7281H61.9106V52.4291H63.6118V50.7281Z" fill="#439B3E"/>
<path d="M63.6118 49.0114H61.9106V50.7281H63.6118V49.0114Z" fill="#439B3E"/>
<path d="M63.6118 47.3104H61.9106V49.0114H63.6118V47.3104Z" fill="#34872D"/>
<path d="M63.6118 45.5936H61.9106V47.3104H63.6118V45.5936Z" fill="#34872D"/>
<path d="M63.6118 43.8743H61.9106V45.591H63.6118V43.8743Z" fill="#439B3E"/>
<path d="M63.6118 42.1759H61.9106V43.8769H63.6118V42.1759Z" fill="#439B3E"/>
<path d="M63.6118 40.4591H61.9106V42.1759H63.6118V40.4591Z" fill="#439B3E"/>
<path d="M63.6118 38.7582H61.9106V40.4591H63.6118V38.7582Z" fill="#717A97"/>
<path d="M63.6118 37.0414H61.9106V38.7582H63.6118V37.0414Z" fill="#717A97"/>
<path d="M63.6118 35.343H61.9106V37.044H63.6118V35.343Z" fill="#717A97"/>
<path d="M63.6118 33.6237H61.9106V35.3404H63.6118V33.6237Z" fill="#586689"/>
<path d="M63.6118 31.9069H61.9106V33.6237H63.6118V31.9069Z" fill="#020000"/>
<path d="M61.9082 86.6198H60.1914V88.3365H61.9082V86.6198Z" fill="#020000"/>
<path d="M61.9082 84.9187H60.1914V86.6198H61.9082V84.9187Z" fill="#2B1910"/>
<path d="M61.9082 83.202H60.1914V84.9187H61.9082V83.202Z" fill="#2B1910"/>
<path d="M61.9082 81.5037H60.1914V83.2047H61.9082V81.5037Z" fill="#2B1910"/>
<path d="M61.9082 79.7843H60.1914V81.5011H61.9082V79.7843Z" fill="#2B1910"/>
<path d="M61.9082 78.0833H60.1914V79.7843H61.9082V78.0833Z" fill="#2B1910"/>
<path d="M61.9082 76.3665H60.1914V78.0833H61.9082V76.3665Z" fill="#2B1910"/>
<path d="M61.9082 74.6681H60.1914V76.3691H61.9082V74.6681Z" fill="#49302B"/>
<path d="M61.9082 72.9514H60.1914V74.6681H61.9082V72.9514Z" fill="#49302B"/>
<path d="M61.9082 71.2319H60.1914V72.9487H61.9082V71.2319Z" fill="#49302B"/>
<path d="M61.9082 69.531H60.1914V71.2319H61.9082V69.531Z" fill="#381D18"/>
<path d="M61.9082 67.8142H60.1914V69.531H61.9082V67.8142Z" fill="#020100"/>
<path d="M61.9082 66.1158H60.1914V67.8168H61.9082V66.1158Z" fill="#05D6B8"/>
<path d="M61.9082 64.3992H60.1914V66.1158H61.9082V64.3992Z" fill="#05D6B8"/>
<path d="M61.9082 62.6981H60.1914V64.3992H61.9082V62.6981Z" fill="#05D6B8"/>
<path d="M61.9082 60.9788H60.1914V62.6955H61.9082V60.9788Z" fill="#05D6B8"/>
<path d="M61.9082 59.262H60.1914V60.9788H61.9082V59.262Z" fill="#05D6B8"/>
<path d="M61.9082 57.5636H60.1914V59.2646H61.9082V57.5636Z" fill="#05D6B8"/>
<path d="M61.9082 55.8469H60.1914V57.5636H61.9082V55.8469Z" fill="#05D6B8"/>
<path d="M61.9082 54.1459H60.1914V55.8469H61.9082V54.1459Z" fill="#05D6B8"/>
<path d="M61.9082 52.4265H60.1914V54.1433H61.9082V52.4265Z" fill="#020000"/>
<path d="M61.9082 50.7281H60.1914V52.4291H61.9082V50.7281Z" fill="#439B3E"/>
<path d="M61.9082 49.0114H60.1914V50.7281H61.9082V49.0114Z" fill="#439B3E"/>
<path d="M61.9082 47.3104H60.1914V49.0114H61.9082V47.3104Z" fill="#439B3E"/>
<path d="M61.9082 45.5936H60.1914V47.3104H61.9082V45.5936Z" fill="#439B3E"/>
<path d="M61.9082 43.8743H60.1914V45.591H61.9082V43.8743Z" fill="#439B3E"/>
<path d="M61.9082 42.1759H60.1914V43.8769H61.9082V42.1759Z" fill="#439B3E"/>
<path d="M61.9082 40.4591H60.1914V42.1759H61.9082V40.4591Z" fill="#439B3E"/>
<path d="M61.9082 38.7582H60.1914V40.4591H61.9082V38.7582Z" fill="#717A97"/>
<path d="M61.9082 37.0414H60.1914V38.7582H61.9082V37.0414Z" fill="#717A97"/>
<path d="M61.9082 35.343H60.1914V37.044H61.9082V35.343Z" fill="#717A97"/>
<path d="M61.9082 33.6237H60.1914V35.3404H61.9082V33.6237Z" fill="#717A97"/>
<path d="M61.9082 31.9069H60.1914V33.6237H61.9082V31.9069Z" fill="#05D6B8"/>
<path d="M61.9082 26.7908H60.1914V28.4918H61.9082V26.7908Z" fill="black"/>
<path d="M61.9082 25.0714H60.1914V26.7882H61.9082V25.0714Z" fill="black"/>
<path d="M61.9082 23.3704H60.1914V25.0714H61.9082V23.3704Z" fill="black"/>
<path d="M60.1914 86.6198H58.4746V88.3365H60.1914V86.6198Z" fill="#020000"/>
<path d="M60.1914 84.9187H58.4746V86.6198H60.1914V84.9187Z" fill="#2B1910"/>
<path d="M60.1914 83.202H58.4746V84.9187H60.1914V83.202Z" fill="#020100"/>
<path d="M60.1914 81.5037H58.4746V83.2047H60.1914V81.5037Z" fill="#020100"/>
<path d="M60.1914 79.7843H58.4746V81.5011H60.1914V79.7843Z" fill="#020000"/>
<path d="M60.1914 78.0833H58.4746V79.7843H60.1914V78.0833Z" fill="#020000"/>
<path d="M60.1914 76.3665H58.4746V78.0833H60.1914V76.3665Z" fill="#020000"/>
<path d="M60.1914 74.6681H58.4746V76.3691H60.1914V74.6681Z" fill="#49302B"/>
<path d="M60.1914 72.9514H58.4746V74.6681H60.1914V72.9514Z" fill="#49302B"/>
<path d="M60.1914 71.2319H58.4746V72.9487H60.1914V71.2319Z" fill="#49302B"/>
<path d="M60.1914 69.531H58.4746V71.2319H60.1914V69.531Z" fill="#49302B"/>
<path d="M60.1914 67.8142H58.4746V69.531H60.1914V67.8142Z" fill="#020100"/>
<path d="M60.1914 66.1158H58.4746V67.8168H60.1914V66.1158Z" fill="#05D6B8"/>
<path d="M60.1914 64.3992H58.4746V66.1158H60.1914V64.3992Z" fill="#05D6B8"/>
<path d="M60.1914 62.6981H58.4746V64.3992H60.1914V62.6981Z" fill="#00FFE2"/>
<path d="M60.1914 60.9788H58.4746V62.6955H60.1914V60.9788Z" fill="#00FFE2"/>
<path d="M60.1914 59.262H58.4746V60.9788H60.1914V59.262Z" fill="#00FFE2"/>
<path d="M60.1914 57.5636H58.4746V59.2646H60.1914V57.5636Z" fill="#05D6B8"/>
<path d="M60.1914 55.8469H58.4746V57.5636H60.1914V55.8469Z" fill="#05D6B8"/>
<path d="M60.1914 54.1459H58.4746V55.8469H60.1914V54.1459Z" fill="#05D6B8"/>
<path d="M60.1914 52.4265H58.4746V54.1433H60.1914V52.4265Z" fill="#020000"/>
<path d="M60.1914 50.7281H58.4746V52.4291H60.1914V50.7281Z" fill="#439B3E"/>
<path d="M60.1914 49.0114H58.4746V50.7281H60.1914V49.0114Z" fill="#439B3E"/>
<path d="M60.1914 47.3104H58.4746V49.0114H60.1914V47.3104Z" fill="#439B3E"/>
<path d="M60.1914 45.5936H58.4746V47.3104H60.1914V45.5936Z" fill="#439B3E"/>
<path d="M60.1914 43.8743H58.4746V45.591H60.1914V43.8743Z" fill="#439B3E"/>
<path d="M60.1914 42.1759H58.4746V43.8769H60.1914V42.1759Z" fill="#439B3E"/>
<path d="M60.1914 40.4591H58.4746V42.1759H60.1914V40.4591Z" fill="#439B3E"/>
<path d="M60.1914 38.7582H58.4746V40.4591H60.1914V38.7582Z" fill="#717A97"/>
<path d="M60.1914 37.0414H58.4746V38.7582H60.1914V37.0414Z" fill="#717A97"/>
<path d="M60.1914 35.343H58.4746V37.044H60.1914V35.343Z" fill="#717A97"/>
<path d="M60.1914 33.6237H58.4746V35.3404H60.1914V33.6237Z" fill="#05D6B8"/>
<path d="M60.1914 31.9069H58.4746V33.6237H60.1914V31.9069Z" fill="#050100"/>
<path d="M60.1914 28.4918L58.4746 28.4917V30.2084H60.1914L60.1914 28.4918Z" fill="black"/>
<path d="M60.1914 26.7908H58.4746V28.4917L60.1914 28.4918V26.7908Z" fill="#439B3E"/>
<path d="M60.1914 25.0714H58.4746V26.7882H60.1914V25.0714Z" fill="#439B3E"/>
<path d="M60.1914 23.3704H58.4746V25.0714H60.1914V23.3704Z" fill="#439B3E"/>
<path d="M60.1914 21.6536H58.4746V23.3704H60.1914L60.1914 21.6536Z" fill="black"/>
<path d="M60.1914 19.9552H58.4746V21.6562H60.1914V19.9552Z" fill="black"/>
<path d="M58.4774 86.6198H56.7764V88.3365H58.4774V86.6198Z" fill="#020000"/>
<path d="M58.4774 84.9187H56.7764V86.6198H58.4774V84.9187Z" fill="#2B1910"/>
<path d="M58.4774 83.202H56.7764V84.9187H58.4774V83.202Z" fill="#020100"/>
<path d="M58.4774 76.3665H56.7764V78.0832H58.4774V76.3665Z" fill="#020000"/>
<path d="M58.4774 74.6681H56.7764V76.3691H58.4774V74.6681Z" fill="#020000"/>
<path d="M58.4774 72.9514H56.7764V74.6681H58.4774V72.9514Z" fill="#49302B"/>
<path d="M58.4774 71.2319H56.7764V72.9487H58.4774V71.2319Z" fill="#49302B"/>
<path d="M58.4774 69.531H56.7764V71.2319H58.4774V69.531Z" fill="#49302B"/>
<path d="M58.4774 67.8142H56.7764V69.531H58.4774V67.8142Z" fill="#020100"/>
<path d="M58.4774 66.1158H56.7764V67.8168H58.4774V66.1158Z" fill="#05D6B8"/>
<path d="M58.4774 64.3992H56.7764V66.1158H58.4774V64.3992Z" fill="#00FFE2"/>
<path d="M58.4774 62.6981H56.7764V64.3992H58.4774V62.6981Z" fill="#00FFE2"/>
<path d="M58.4774 60.9788H56.7764V62.6955H58.4774V60.9788Z" fill="#00FFE2"/>
<path d="M58.4774 59.262H56.7764V60.9788H58.4774V59.262Z" fill="#00FFE2"/>
<path d="M58.4774 57.5636H56.7764V59.2646H58.4774V57.5636Z" fill="#00FFE2"/>
<path d="M58.4774 55.8469H56.7764V57.5636H58.4774V55.8469Z" fill="#05D6B8"/>
<path d="M58.4774 54.1459H56.7764V55.8469H58.4774V54.1459Z" fill="#05D6B8"/>
<path d="M58.4774 52.4265H56.7764V54.1433H58.4774V52.4265Z" fill="#020000"/>
<path d="M58.4774 50.7281H56.7764V52.4291H58.4774V50.7281Z" fill="#020000"/>
<path d="M58.4774 49.0114H56.7764V50.7281H58.4774V49.0114Z" fill="#439B3E"/>
<path d="M58.4774 47.3104H56.7764V49.0114H58.4774V47.3104Z" fill="#439B3E"/>
<path d="M58.4774 45.5936H56.7764V47.3104H58.4774V45.5936Z" fill="#439B3E"/>
<path d="M58.4774 43.8743H56.7764V45.591H58.4774V43.8743Z" fill="#439B3E"/>
<path d="M58.4774 42.1759H56.7764V43.8769H58.4774V42.1759Z" fill="#020000"/>
<path d="M58.4774 40.4591H56.7764V42.1759H58.4774V40.4591Z" fill="#05D6B8"/>
<path d="M58.4774 38.7582H56.7764V40.4591H58.4774V38.7582Z" fill="#05D6B8"/>
<path d="M58.4774 37.0414H56.7764V38.7582H58.4774V37.0414Z" fill="#717A97"/>
<path d="M58.4774 35.343H56.7764V37.044H58.4774V35.343Z" fill="#05D6B8"/>
<path d="M58.4774 33.6237H56.7764V35.3404H58.4774V33.6237Z" fill="#717A97"/>
<path d="M58.4774 31.9069H56.7764V33.6237H58.4774V31.9069Z" fill="#050100"/>
<path d="M58.4774 30.2059H56.7764V31.9069H58.4774V30.2059Z" fill="black"/>
<path d="M58.4774 28.4917H56.7764V30.2084H58.4774V28.4917Z" fill="#439B3E"/>
<path d="M58.4774 26.7908H56.7764V28.4917H58.4774V26.7908Z" fill="#439B3E"/>
<path d="M58.4774 25.0714H56.7764V26.7882H58.4774V25.0714Z" fill="#439B3E"/>
<path d="M58.4774 23.3704H56.7764V25.0714H58.4774V23.3704Z" fill="#439B3E"/>
<path d="M58.4774 21.6536H56.7764V23.3704H58.4774V21.6536Z" fill="#439B3E"/>
<path d="M58.4774 19.9552H56.7764V21.6562H58.4774V19.9552Z" fill="#439B3E"/>
<path d="M58.4774 18.2385H56.7764V19.9552H58.4774V18.2385Z" fill="black"/>
<path d="M56.7764 86.6198H55.0596V88.3365H56.7764V86.6198Z" fill="#020000"/>
<path d="M56.7764 84.9187H55.0596V86.6198H56.7764V84.9187Z" fill="#020000"/>
<path d="M56.7764 83.202H55.0596V84.9187H56.7764V83.202Z" fill="#020100"/>
<path d="M56.7764 74.6681H55.0596V76.3691H56.7764V74.6681Z" fill="#020000"/>
<path d="M56.7764 72.9514H55.0596V74.6681H56.7764V72.9514Z" fill="#020000"/>
<path d="M56.7764 71.2319H55.0596V72.9487H56.7764V71.2319Z" fill="#49302B"/>
<path d="M56.7764 69.531H55.0596V71.2319H56.7764V69.531Z" fill="#49302B"/>
<path d="M56.7764 67.8142H55.0596V69.531H56.7764V67.8142Z" fill="#020000"/>
<path d="M56.7764 66.1158H55.0596V67.8168H56.7764V66.1158Z" fill="#00FFE2"/>
<path d="M56.7764 64.3992H55.0596V66.1158H56.7764V64.3992Z" fill="#00FFE2"/>
<path d="M56.7764 62.6981H55.0596V64.3992H56.7764V62.6981Z" fill="#00FFE2"/>
<path d="M56.7764 60.9788H55.0596V62.6955H56.7764V60.9788Z" fill="#00FFE2"/>
<path d="M56.7764 59.262H55.0596V60.9788H56.7764V59.262Z" fill="#00FFE2"/>
<path d="M56.7764 57.5636H55.0596V59.2646H56.7764V57.5636Z" fill="#00FFE2"/>
<path d="M56.7764 55.8469H55.0596V57.5636H56.7764V55.8469Z" fill="#00FFE2"/>
<path d="M56.7764 54.1459H55.0596V55.8469H56.7764V54.1459Z" fill="#00FFE2"/>
<path d="M56.7764 52.4265H55.0596V54.1433H56.7764V52.4265Z" fill="#00FFE2"/>
<path d="M56.7764 50.7281H55.0596V52.4291H56.7764V50.7281Z" fill="#020000"/>
<path d="M56.7764 49.0114H55.0596V50.7281H56.7764V49.0114Z" fill="#439B3E"/>
<path d="M56.7764 47.3104H55.0596V49.0114H56.7764V47.3104Z" fill="#439B3E"/>
<path d="M56.7764 45.5936H55.0596V47.3104H56.7764V45.5936Z" fill="#439B3E"/>
<path d="M56.7764 43.8743H55.0596V45.591H56.7764V43.8743Z" fill="#020000"/>
<path d="M56.7764 42.1759H55.0596V43.8769H56.7764V42.1759Z" fill="#00FFE2"/>
<path d="M56.7764 40.4591H55.0596V42.1759H56.7764V40.4591Z" fill="#00FFE2"/>
<path d="M56.7764 38.7582H55.0596V40.4591H56.7764V38.7582Z" fill="#05D6B8"/>
<path d="M56.7764 37.0414H55.0596V38.7582H56.7764V37.0414Z" fill="#05D6B8"/>
<path d="M56.7764 35.343H55.0596V37.044H56.7764V35.343Z" fill="#717A97"/>
<path d="M56.7764 33.6237H55.0596V35.3404H56.7764V33.6237Z" fill="#717A97"/>
<path d="M56.7764 31.9069H55.0596V33.6237H56.7764V31.9069Z" fill="#586689"/>
<path d="M56.7764 30.2059H55.0596V31.9069H56.7764V30.2059Z" fill="#8E4E38"/>
<path d="M56.7764 28.4917H55.0596V30.2084H56.7764V28.4917Z" fill="#8E4E38"/>
<path d="M56.7764 26.7908H55.0596V28.4917H56.7764V26.7908Z" fill="#8E4E38"/>
<path d="M56.7764 25.0714H55.0596V26.7882H56.7764V25.0714Z" fill="#439B3E"/>
<path d="M56.7764 23.3704H55.0596V25.0714H56.7764V23.3704Z" fill="#FF0031"/>
<path d="M56.7764 21.6536H55.0596V23.3704H56.7764V21.6536Z" fill="black"/>
<path d="M56.7764 19.9552H55.0596V21.6562H56.7764V19.9552Z" fill="#439B3E"/>
<path d="M56.7764 18.2385H55.0596V19.9552H56.7764V18.2385Z" fill="black"/>
<path d="M55.0596 72.9514H53.3584V74.6682L55.0596 74.6681V72.9514Z" fill="#020000"/>
<path d="M55.0596 71.2319H53.3584V72.9487H55.0596V71.2319Z" fill="#020000"/>
<path d="M55.0596 69.531H53.3584V71.2319H55.0596V69.531Z" fill="#020000"/>
<path d="M55.0596 67.8142H53.3584V69.531H55.0596V67.8142Z" fill="#020000"/>
<path d="M55.0596 66.1158H53.3584V67.8168H55.0596V66.1158Z" fill="#00FFE2"/>
<path d="M55.0596 64.3992H53.3584V66.1158H55.0596V64.3992Z" fill="#00FFE2"/>
<path d="M55.0596 62.6981H53.3584V64.3992H55.0596V62.6981Z" fill="#00FFE2"/>
<path d="M55.0596 60.9788H53.3584V62.6955H55.0596V60.9788Z" fill="#00FFE2"/>
<path d="M55.0596 59.262H53.3584V60.9788H55.0596V59.262Z" fill="#00FFE2"/>
<path d="M55.0596 57.5636H53.3584V59.2646H55.0596V57.5636Z" fill="#020000"/>
<path d="M55.0596 55.8469H53.3584V57.5636H55.0596V55.8469Z" fill="#00FFE2"/>
<path d="M55.0596 54.1459H53.3584V55.8469H55.0596V54.1459Z" fill="#00FFE2"/>
<path d="M55.0596 52.4265H53.3584V54.1433H55.0596V52.4265Z" fill="#00FFE2"/>
<path d="M55.0596 50.7281H53.3584V52.4291H55.0596V50.7281Z" fill="#020000"/>
<path d="M55.0596 49.0114H53.3584V50.7281H55.0596V49.0114Z" fill="#439B3E"/>
<path d="M55.0596 47.3104H53.3584V49.0114H55.0596V47.3104Z" fill="#439B3E"/>
<path d="M55.0596 45.5936H53.3584V47.3104H55.0596V45.5936Z" fill="#439B3E"/>
<path d="M55.0596 43.8743H53.3584V45.591H55.0596V43.8743Z" fill="#020000"/>
<path d="M55.0596 42.1759H53.3584V43.8769H55.0596V42.1759Z" fill="#00FFE2"/>
<path d="M55.0596 40.4591H53.3584V42.1759H55.0596V40.4591Z" fill="#00FFE2"/>
<path d="M55.0596 38.7582H53.3584V40.4591H55.0596V38.7582Z" fill="#00FFE2"/>
<path d="M55.0596 37.0414H53.3584V38.7582H55.0596V37.0414Z" fill="#717A97"/>
<path d="M55.0596 35.343H53.3584V37.044H55.0596V35.343Z" fill="#717A97"/>
<path d="M55.0596 33.6237H53.3584V35.3404H55.0596V33.6237Z" fill="#717A97"/>
<path d="M55.0596 31.9069H53.3584V33.6237H55.0596V31.9069Z" fill="#8E4E38"/>
<path d="M55.0596 30.2059H53.3584V31.9069H55.0596V30.2059Z" fill="#8E4E38"/>
<path d="M55.0596 28.4917H53.3584V30.2084H55.0596V28.4917Z" fill="#439B3E"/>
<path d="M55.0596 26.7908H53.3584V28.4917H55.0596V26.7908Z" fill="#8E4E38"/>
<path d="M55.0596 25.0714H53.3584V26.7882H55.0596V25.0714Z" fill="#439B3E"/>
<path d="M55.0596 23.3704H53.3584V25.0714H55.0596V23.3704Z" fill="black"/>
<path d="M55.0596 21.6536H53.3584V23.3704H55.0596V21.6536Z" fill="#439B3E"/>
<path d="M55.0596 19.9552H53.3584V21.6562H55.0596V19.9552Z" fill="#439B3E"/>
<path d="M55.0596 18.2385H53.3584V19.9552H55.0596V18.2385Z" fill="black"/>
<path d="M53.3559 84.9187H51.6392V86.6197H53.3559V84.9187Z" fill="#020000"/>
<path d="M53.3559 83.202H51.6392V84.9187H53.3559V83.202Z" fill="#020000"/>
<path d="M53.3559 81.5037H51.6392V83.2047H53.3559V81.5037Z" fill="#020000"/>
<path d="M53.3559 79.7843H51.6392V81.5011H53.3559V79.7843Z" fill="#020000"/>
<path d="M53.3559 78.0833H51.6392V79.7843H53.3559V78.0833Z" fill="#020000"/>
<path d="M53.3559 76.3665H51.6392V78.0833H53.3559V76.3665Z" fill="#020000"/>
<path d="M53.3559 74.6681H51.6392V76.3691H53.3559V74.6681Z" fill="#020000"/>
<path d="M53.3559 72.9514H51.6392V74.6681H53.3559V72.9514Z" fill="#020000"/>
<path d="M53.3559 71.2319H51.6392V72.9487H53.3559V71.2319Z" fill="#381D18"/>
<path d="M53.3559 69.531H51.6392V71.2319H53.3559V69.531Z" fill="#381D18"/>
<path d="M53.3559 67.8142H51.6392V69.531H53.3559V67.8142Z" fill="#020000"/>
<path d="M53.3559 66.1158H51.6392V67.8168H53.3559V66.1158Z" fill="#00FFE2"/>
<path d="M53.3559 64.3992H51.6392V66.1158H53.3559V64.3992Z" fill="#00FFE2"/>
<path d="M53.3559 62.6981H51.6392V64.3992H53.3559V62.6981Z" fill="#00FFE2"/>
<path d="M53.3559 60.9788H51.6392V62.6955H53.3559V60.9788Z" fill="#00FFE2"/>
<path d="M53.3559 59.262H51.6392V60.9788H53.3559V59.262Z" fill="#00FFE2"/>
<path d="M53.3559 57.5636H51.6392V59.2646H53.3559V57.5636Z" fill="#020000"/>
<path d="M53.3559 55.8469H51.6392V57.5636H53.3559V55.8469Z" fill="#00FFE2"/>
<path d="M53.3559 54.1459H51.6392V55.8469H53.3559V54.1459Z" fill="#00FFE2"/>
<path d="M53.3559 52.4265H51.6392V54.1433H53.3559V52.4265Z" fill="#00FFE2"/>
<path d="M53.3559 50.7281H51.6392V52.4291H53.3559V50.7281Z" fill="#020000"/>
<path d="M53.3559 49.0114H51.6392V50.7281H53.3559V49.0114Z" fill="#34872D"/>
<path d="M53.3559 47.3104H51.6392V49.0114H53.3559V47.3104Z" fill="#34872D"/>
<path d="M53.3559 45.5936H51.6392V47.3104H53.3559V45.5936Z" fill="#34872D"/>
<path d="M53.3559 43.8743H51.6392V45.591H53.3559V43.8743Z" fill="#020000"/>
<path d="M53.3559 42.1759H51.6392V43.8769H53.3559V42.1759Z" fill="#00FFE2"/>
<path d="M53.3559 40.4591H51.6392V42.1759H53.3559V40.4591Z" fill="#00FFE2"/>
<path d="M53.3559 38.7582H51.6392V40.4591H53.3559V38.7582Z" fill="#00FFE2"/>
<path d="M53.3559 37.0414H51.6392V38.7582H53.3559V37.0414Z" fill="#717A97"/>
<path d="M53.3559 35.343H51.6392V37.044H53.3559V35.343Z" fill="#717A97"/>
<path d="M53.3559 33.6237H51.6392V35.3404H53.3559V33.6237Z" fill="#717A97"/>
<path d="M53.3559 31.9069H51.6392V33.6237H53.3559V31.9069Z" fill="#8E4E38"/>
<path d="M53.3559 30.2059H51.6392V31.9069H53.3559V30.2059Z" fill="#8E4E38"/>
<path d="M53.3559 28.4917H51.6392V30.2084H53.3559V28.4917Z" fill="#439B3E"/>
<path d="M53.3559 26.7908H51.6392V28.4917H53.3559V26.7908Z" fill="#439B3E"/>
<path d="M53.3559 25.0714H51.6392V26.7882H53.3559V25.0714Z" fill="#439B3E"/>
<path d="M53.3559 23.3704H51.6392V25.0714H53.3559V23.3704Z" fill="#439B3E"/>
<path d="M53.3559 21.6536H51.6392V23.3704H53.3559V21.6536Z" fill="#439B3E"/>
<path d="M53.3559 19.9552H51.6392V21.6562H53.3559V19.9552Z" fill="#439B3E"/>
<path d="M53.3559 18.2385H51.6392V19.9552H53.3559V18.2385Z" fill="black"/>
<path d="M51.6414 84.9187H49.9404V86.6197H51.6414V84.9187Z" fill="#020000"/>
<path d="M51.6414 83.202H49.9404V84.9187H51.6414V83.202Z" fill="#2B1910"/>
<path d="M51.6414 81.5037H49.9404V83.2047H51.6414V81.5037Z" fill="#2B1910"/>
<path d="M51.6414 79.7843H49.9404V81.5011H51.6414V79.7843Z" fill="#2B1910"/>
<path d="M51.6414 78.0833H49.9404V79.7843H51.6414V78.0833Z" fill="#2B1910"/>
<path d="M51.6414 76.3665H49.9404V78.0833H51.6414V76.3665Z" fill="#2B1910"/>
<path d="M51.6414 74.6681H49.9404V76.3691H51.6414V74.6681Z" fill="#381D18"/>
<path d="M51.6414 72.9514H49.9404V74.6681H51.6414V72.9514Z" fill="#381D18"/>
<path d="M51.6414 71.2319H49.9404V72.9487H51.6414V71.2319Z" fill="#381D18"/>
<path d="M51.6414 69.531H49.9404V71.2319H51.6414V69.531Z" fill="#381D18"/>
<path d="M51.6414 67.8142H49.9404V69.531H51.6414V67.8142Z" fill="#020000"/>
<path d="M51.6414 66.1158H49.9404V67.8168H51.6414V66.1158Z" fill="#00FFE2"/>
<path d="M51.6414 64.3992H49.9404V66.1158H51.6414V64.3992Z" fill="#00FFE2"/>
<path d="M51.6414 62.6981H49.9404V64.3992H51.6414V62.6981Z" fill="#00FFE2"/>
<path d="M51.6414 60.9788H49.9404V62.6955H51.6414V60.9788Z" fill="#00FFE2"/>
<path d="M51.6414 59.262H49.9404V60.9788H51.6414V59.262Z" fill="#00FFE2"/>
<path d="M51.6414 57.5636H49.9404V59.2646H51.6414V57.5636Z" fill="#020000"/>
<path d="M51.6414 55.8469H49.9404V57.5636H51.6414V55.8469Z" fill="#00FFE2"/>
<path d="M51.6414 54.1459H49.9404V55.8469H51.6414V54.1459Z" fill="#05D6B8"/>
<path d="M51.6414 52.4265H49.9404V54.1433H51.6414V52.4265Z" fill="#05D6B8"/>
<path d="M51.6414 50.7281H49.9404V52.4291H51.6414V50.7281Z" fill="#05D6B8"/>
<path d="M51.6414 49.0114H49.9404V50.7281H51.6414V49.0114Z" fill="#020000"/>
<path d="M51.6414 47.3104H49.9404V49.0114H51.6414V47.3104Z" fill="#439B3E"/>
<path d="M51.6414 45.5936H49.9404V47.3104H51.6414V45.5936Z" fill="#439B3E"/>
<path d="M51.6414 43.8743H49.9404V45.591H51.6414V43.8743Z" fill="#020000"/>
<path d="M51.6414 42.1759H49.9404V43.8769H51.6414V42.1759Z" fill="#00FFE2"/>
<path d="M51.6414 40.4591H49.9404V42.1759H51.6414V40.4591Z" fill="#00FFE2"/>
<path d="M51.6414 38.7582H49.9404V40.4591H51.6414V38.7582Z" fill="#00FFE2"/>
<path d="M51.6414 37.0414H49.9404V38.7582H51.6414V37.0414Z" fill="#717A97"/>
<path d="M51.6414 35.343H49.9404V37.044H51.6414V35.343Z" fill="#717A97"/>
<path d="M51.6414 33.6237H49.9404V35.3404H51.6414V33.6237Z" fill="#717A97"/>
<path d="M51.6414 31.9069H49.9404V33.6237H51.6414V31.9069Z" fill="#8E4E38"/>
<path d="M51.6414 30.2059H49.9404V31.9069H51.6414V30.2059Z" fill="#8E4E38"/>
<path d="M51.6414 28.4917H49.9404V30.2084H51.6414V28.4917Z" fill="#439B3E"/>
<path d="M51.6414 26.7908H49.9404V28.4917H51.6414V26.7908Z" fill="#8E4E38"/>
<path d="M51.6414 25.0714H49.9404V26.7882H51.6414V25.0714Z" fill="#439B3E"/>
<path d="M51.6414 23.3704H49.9404V25.0714H51.6414V23.3704Z" fill="black"/>
<path d="M51.6414 21.6536H49.9404V23.3704H51.6414V21.6536Z" fill="#439B3E"/>
<path d="M51.6414 19.9552H49.9404V21.6562H51.6414V19.9552Z" fill="#439B3E"/>
<path d="M51.6414 18.2385H49.9404V19.9552H51.6414V18.2385Z" fill="black"/>
<path d="M49.9404 83.202H48.2236V84.9188L49.9404 84.9187V83.202Z" fill="#020000"/>
<path d="M49.9404 81.5037H48.2236V83.2047H49.9404V81.5037Z" fill="#2B1910"/>
<path d="M49.9404 79.7843H48.2236V81.5011H49.9404V79.7843Z" fill="#2B1910"/>
<path d="M49.9404 78.0833H48.2236V79.7843H49.9404V78.0833Z" fill="#2B1910"/>
<path d="M49.9404 76.3665H48.2236V78.0833H49.9404V76.3665Z" fill="#2B1910"/>
<path d="M49.9404 74.6681H48.2236V76.3691H49.9404V74.6681Z" fill="#49302B"/>
<path d="M49.9404 72.9514H48.2236V74.6681H49.9404V72.9514Z" fill="#49302B"/>
<path d="M49.9404 71.2319H48.2236V72.9487H49.9404V71.2319Z" fill="#381D18"/>
<path d="M49.9404 69.531H48.2236V71.2319H49.9404V69.531Z" fill="#381D18"/>
<path d="M49.9404 67.8142H48.2236V69.531H49.9404V67.8142Z" fill="#020000"/>
<path d="M49.9404 66.1158H48.2236V67.8168H49.9404V66.1158Z" fill="#00FFE2"/>
<path d="M49.9404 64.3992H48.2236V66.1158H49.9404V64.3992Z" fill="#00FFE2"/>
<path d="M49.9404 62.6981H48.2236V64.3992H49.9404V62.6981Z" fill="#00FFE2"/>
<path d="M49.9404 60.9788H48.2236V62.6955H49.9404V60.9788Z" fill="#00FFE2"/>
<path d="M49.9404 59.262H48.2236V60.9788H49.9404V59.262Z" fill="#00FFE2"/>
<path d="M49.9404 57.5636H48.2236V59.2646H49.9404V57.5636Z" fill="#020000"/>
<path d="M49.9404 55.8469H48.2236V57.5636H49.9404V55.8469Z" fill="#00FFE2"/>
<path d="M49.9404 54.1459H48.2236V55.8469H49.9404V54.1459Z" fill="#00FFE2"/>
<path d="M49.9404 52.4265H48.2236V54.1433H49.9404V52.4265Z" fill="#05D6B8"/>
<path d="M49.9404 50.7281H48.2236V52.4291H49.9404V50.7281Z" fill="#020000"/>
<path d="M49.9404 49.0114H48.2236V50.7281H49.9404V49.0114Z" fill="#439B3E"/>
<path d="M49.9404 47.3104H48.2236V49.0114H49.9404V47.3104Z" fill="#439B3E"/>
<path d="M49.9404 45.5936H48.2236V47.3104H49.9404V45.5936Z" fill="#439B3E"/>
<path d="M49.9404 43.8743H48.2236V45.591H49.9404V43.8743Z" fill="#439B3E"/>
<path d="M49.9404 42.1759H48.2236V43.8769H49.9404V42.1759Z" fill="#020000"/>
<path d="M49.9404 40.4591H48.2236V42.1759H49.9404V40.4591Z" fill="#00FFE2"/>
<path d="M49.9404 38.7582H48.2236V40.4591H49.9404V38.7582Z" fill="#00FFE2"/>
<path d="M49.9404 37.0414H48.2236V38.7582H49.9404V37.0414Z" fill="#717A97"/>
<path d="M49.9404 35.343H48.2236V37.044H49.9404V35.343Z" fill="#717A97"/>
<path d="M49.9404 33.6237H48.2236V35.3404H49.9404V33.6237Z" fill="#717A97"/>
<path d="M49.9404 31.9069H48.2236V33.6237H49.9404V31.9069Z" fill="#586689"/>
<path d="M49.9404 30.2059H48.2236V31.9069H49.9404V30.2059Z" fill="#8E4E38"/>
<path d="M49.9404 28.4917H48.2236V30.2084H49.9404V28.4917Z" fill="#8E4E38"/>
<path d="M49.9404 26.7908H48.2236V28.4917H49.9404V26.7908Z" fill="#8E4E38"/>
<path d="M49.9404 25.0714H48.2236V26.7882H49.9404V25.0714Z" fill="#439B3E"/>
<path d="M49.9404 23.3704H48.2236V25.0714H49.9404V23.3704Z" fill="#FF0031"/>
<path d="M49.9404 21.6536H48.2236V23.3704H49.9404V21.6536Z" fill="black"/>
<path d="M49.9404 19.9552H48.2236V21.6562H49.9404V19.9552Z" fill="black"/>
<path d="M48.2236 84.9188L46.5229 84.9187V86.6197H48.224L48.2236 84.9188Z" fill="#020000"/>
<path d="M48.2236 83.202H46.5229V84.9187L48.2236 84.9188V83.202Z" fill="#2B1910"/>
<path d="M48.2236 81.5037H46.5229V83.2047H48.2236V81.5037Z" fill="#2B1910"/>
<path d="M48.2236 79.7843H46.5229V81.5011H48.2236V79.7843Z" fill="#2B1910"/>
<path d="M48.2236 78.0833H46.5229V79.7843H48.2236V78.0833Z" fill="#2B1910"/>
<path d="M48.2236 76.3665H46.5229V78.0833H48.2236V76.3665Z" fill="#2B1910"/>
<path d="M48.2236 74.6681H46.5229V76.3691H48.2236V74.6681Z" fill="#49302B"/>
<path d="M48.2236 72.9514H46.5229V74.6681H48.2236V72.9514Z" fill="#49302B"/>
<path d="M48.2236 71.2319H46.5229V72.9487H48.2236V71.2319Z" fill="#49302B"/>
<path d="M48.2236 69.531H46.5229V71.2319H48.2236V69.531Z" fill="#381D18"/>
<path d="M48.2236 67.8142H46.5229V69.531H48.2236V67.8142Z" fill="#020000"/>
<path d="M48.2236 66.1158H46.5229V67.8168H48.2236V66.1158Z" fill="#00FFE2"/>
<path d="M48.2236 64.3992H46.5229V66.1158H48.2236V64.3992Z" fill="#00FFE2"/>
<path d="M48.2236 62.6981H46.5229V64.3992H48.2236V62.6981Z" fill="#00FFE2"/>
<path d="M48.2236 60.9788H46.5229V62.6955H48.2236V60.9788Z" fill="#00FFE2"/>
<path d="M48.2236 59.262H46.5229V60.9788H48.2236V59.262Z" fill="#00FFE2"/>
<path d="M48.2236 57.5636H46.5229V59.2646H48.2236V57.5636Z" fill="#E5DAD4"/>
<path d="M48.2236 55.8469H46.5229V57.5636H48.2236V55.8469Z" fill="#E5DAD4"/>
<path d="M48.2236 54.1459H46.5229V55.8469H48.2236V54.1459Z" fill="#E5DAD4"/>
<path d="M48.2236 52.4265H46.5229V54.1433H48.2236V52.4265Z" fill="#05D6B8"/>
<path d="M48.2236 50.7281H46.5229V52.4291H48.2236V50.7281Z" fill="#020000"/>
<path d="M48.2236 49.0114H46.5229V50.7281H48.2236V49.0114Z" fill="#439B3E"/>
<path d="M48.2236 47.3104H46.5229V49.0114H48.2236V47.3104Z" fill="#439B3E"/>
<path d="M48.2236 45.5936H46.5229V47.3104H48.2236V45.5936Z" fill="black"/>
<path d="M48.2236 43.8743H46.5229V45.591H48.2236V43.8743Z" fill="#E5DAD4"/>
<path d="M48.2236 42.1759H46.5229V43.8769H48.2236V42.1759Z" fill="#020000"/>
<path d="M48.2236 40.4591H46.5229V42.1759H48.2236V40.4591Z" fill="#00FFE2"/>
<path d="M48.2236 38.7582H46.5229V40.4591H48.2236V38.7582Z" fill="#00FFE2"/>
<path d="M48.2236 37.0414H46.5229V38.7582H48.2236V37.0414Z" fill="#717A97"/>
<path d="M48.2236 35.343H46.5229V37.044H48.2236V35.343Z" fill="#717A97"/>
<path d="M48.2236 33.6237H46.5229V35.3404H48.2236V33.6237Z" fill="#717A97"/>
<path d="M48.2236 31.9069H46.5229V33.6237H48.2236V31.9069Z" fill="#00FFE2"/>
<path d="M48.2236 30.2059H46.5229V31.9069H48.2236V30.2059Z" fill="black"/>
<path d="M48.2236 28.4917H46.5229V30.2084H48.2236V28.4917Z" fill="black"/>
<path d="M48.2236 26.7908H46.5229V28.4917H48.2236V26.7908Z" fill="black"/>
<path d="M48.2236 25.0714H46.5229V26.7882H48.2236V25.0714Z" fill="black"/>
<path d="M48.2236 23.3704H46.5229V25.0714H48.2236V23.3704Z" fill="black"/>
<path d="M48.2236 21.6536H46.5229V23.3704H48.2236V21.6536Z" fill="black"/>
<path d="M46.5229 84.9187H44.8062V86.6197H46.5229V84.9187Z" fill="#020000"/>
<path d="M46.5229 83.202H44.8062V84.9187H46.5229V83.202Z" fill="#2B1910"/>
<path d="M46.5229 81.5037H44.8062V83.2047H46.5229V81.5037Z" fill="#2B1910"/>
<path d="M46.5229 79.7843H44.8062V81.5011H46.5229V79.7843Z" fill="#2B1910"/>
<path d="M46.5229 78.0833H44.8062V79.7843H46.5229V78.0833Z" fill="#2B1910"/>
<path d="M46.5229 76.3665H44.8062V78.0833H46.5229V76.3665Z" fill="#2B1910"/>
<path d="M46.5229 74.6681H44.8062V76.3691H46.5229V74.6681Z" fill="#49302B"/>
<path d="M46.5229 72.9514H44.8062V74.6681H46.5229V72.9514Z" fill="#49302B"/>
<path d="M46.5229 71.2319H44.8062V72.9487H46.5229V71.2319Z" fill="#49302B"/>
<path d="M46.5229 69.531H44.8062V71.2319H46.5229V69.531Z" fill="#49302B"/>
<path d="M46.5229 67.8142H44.8062V69.531H46.5229V67.8142Z" fill="#020000"/>
<path d="M46.5229 66.1158H44.8062V67.8168H46.5229V66.1158Z" fill="#00FFE2"/>
<path d="M46.5229 64.3992H44.8062V66.1158H46.5229V64.3992Z" fill="#00FFE2"/>
<path d="M46.5229 62.6981H44.8062V64.3992H46.5229V62.6981Z" fill="#00FFE2"/>
<path d="M46.5229 60.9788H44.8062V62.6955H46.5229V60.9788Z" fill="#00FFE2"/>
<path d="M46.5229 59.262H44.8062V60.9788H46.5229V59.262Z" fill="#00FFE2"/>
<path d="M46.5229 57.5636H44.8062V59.2646H46.5229V57.5636Z" fill="#E5DAD4"/>
<path d="M46.5229 55.8469H44.8062V57.5636H46.5229V55.8469Z" fill="#E5DAD4"/>
<path d="M46.5229 54.1459H44.8062V55.8469H46.5229V54.1459Z" fill="#E5DAD4"/>
<path d="M46.5229 52.4265H44.8062V54.1433H46.5229V52.4265Z" fill="#E5DAD4"/>
<path d="M46.5229 50.7281H44.8062V52.4291H46.5229V50.7281Z" fill="#E5DAD4"/>
<path d="M46.5229 49.0114H44.8062V50.7281H46.5229V49.0114Z" fill="black"/>
<path d="M46.5229 47.3104H44.8062V49.0114H46.5229V47.3104Z" fill="#E5DAD4"/>
<path d="M46.5229 45.5936H44.8062V47.3104H46.5229V45.5936Z" fill="#E5DAD4"/>
<path d="M46.5229 43.8743H44.8062V45.591H46.5229V43.8743Z" fill="#E5DAD4"/>
<path d="M46.5229 42.1759H44.8062V43.8769H46.5229V42.1759Z" fill="#E5DAD4"/>
<path d="M46.5229 40.4591H44.8062V42.1759H46.5229V40.4591Z" fill="#05D6B8"/>
<path d="M46.5229 38.7582H44.8062V40.4591H46.5229V38.7582Z" fill="#00FFE2"/>
<path d="M46.5229 37.0414H44.8062V38.7582H46.5229V37.0414Z" fill="#00FFE2"/>
<path d="M46.5229 35.343H44.8062V37.044H46.5229V35.343Z" fill="#00FFE2"/>
<path d="M46.5229 33.6237H44.8062V35.3404H46.5229V33.6237Z" fill="#00FFE2"/>
<path d="M46.5229 31.9069H44.8062V33.6237H46.5229V31.9069Z" fill="#050100"/>
<path d="M44.8037 84.9187H43.0869V86.6197H44.8037V84.9187Z" fill="#020000"/>
<path d="M44.8037 83.202H43.0869V84.9187H44.8037V83.202Z" fill="#2B1910"/>
<path d="M44.8037 81.5037H43.0869V83.2047H44.8037V81.5037Z" fill="#2B1910"/>
<path d="M44.8037 79.7843H43.0869V81.5011H44.8037V79.7843Z" fill="#020000"/>
<path d="M44.8037 78.0833H43.0869V79.7843H44.8037V78.0833Z" fill="#020000"/>
<path d="M44.8037 76.3665H43.0869V78.0833H44.8037V76.3665Z" fill="#020000"/>
<path d="M44.8037 74.6681H43.0869V76.3691H44.8037V74.6681Z" fill="#49302B"/>
<path d="M44.8037 72.9514H43.0869V74.6681H44.8037V72.9514Z" fill="#49302B"/>
<path d="M44.8037 71.2319H43.0869V72.9487H44.8037V71.2319Z" fill="#49302B"/>
<path d="M44.8037 69.531H43.0869V71.2319H44.8037V69.531Z" fill="#49302B"/>
<path d="M44.8037 67.8142H43.0869V69.531H44.8037V67.8142Z" fill="#020000"/>
<path d="M44.8037 66.1158H43.0869V67.8168H44.8037V66.1158Z" fill="#00FFE2"/>
<path d="M44.8037 64.3992H43.0869V66.1158H44.8037V64.3992Z" fill="#05D6B8"/>
<path d="M44.8037 62.6981H43.0869V64.3992H44.8037V62.6981Z" fill="#00FFE2"/>
<path d="M44.8037 60.9788H43.0869V62.6955H44.8037V60.9788Z" fill="#00FFE2"/>
<path d="M44.8037 59.262H43.0869V60.9788H44.8037V59.262Z" fill="#00FFE2"/>
<path d="M44.8037 57.5636H43.0869V59.2646H44.8037V57.5636Z" fill="#E5DAD4"/>
<path d="M44.8037 55.8469H43.0869V57.5636H44.8037V55.8469Z" fill="#E5DAD4"/>
<path d="M44.8037 54.1459H43.0869V55.8469H44.8037V54.1459Z" fill="#E5DAD4"/>
<path d="M44.8037 52.4265H43.0869V54.1433H44.8037V52.4265Z" fill="#E5DAD4"/>
<path d="M44.8037 50.7281H43.0869V52.4291H44.8037V50.7281Z" fill="#E5DAD4"/>
<path d="M44.8037 49.0114H43.0869V50.7281H44.8037V49.0114Z" fill="#E5DAD4"/>
<path d="M44.8037 47.3104H43.0869V49.0114H44.8037V47.3104Z" fill="#E5DAD4"/>
<path d="M44.8037 45.5936H43.0869V47.3104H44.8037V45.5936Z" fill="#E5DAD4"/>
<path d="M44.8037 43.8743H43.0869V45.591H44.8037V43.8743Z" fill="black"/>
<path d="M44.8037 42.1759H43.0869V43.8769H44.8037V42.1759Z" fill="black"/>
<path d="M44.8037 40.4591H43.0869V42.1759H44.8037V40.4591Z" fill="#05D6B8"/>
<path d="M44.8037 38.7582H43.0869V40.4591H44.8037V38.7582Z" fill="#05D6B8"/>
<path d="M44.8037 37.0414H43.0869V38.7582H44.8037V37.0414Z" fill="#00FFE2"/>
<path d="M44.8037 35.343H43.0869V37.044H44.8037V35.343Z" fill="#00FFE2"/>
<path d="M44.8037 33.6237H43.0869V35.3404H44.8037V33.6237Z" fill="#586689"/>
<path d="M44.8037 31.9069H43.0869V33.6237H44.8037V31.9069Z" fill="#586689"/>
<path d="M44.8037 30.2059H43.0869V31.9069H44.8037V30.2059Z" fill="#050100"/>
<path d="M43.0892 84.9187H41.3882V86.6197H43.0892V84.9187Z" fill="#020000"/>
<path d="M43.0892 83.202H41.3882V84.9187H43.0892V83.202Z" fill="#2B1910"/>
<path d="M43.0892 81.5037H41.3882V83.2047H43.0892V81.5037Z" fill="#2B1910"/>
<path d="M43.0892 76.3665H41.3882V78.0832H43.0892V76.3665Z" fill="#020000"/>
<path d="M43.0892 74.6681H41.3882V76.3691H43.0892V74.6681Z" fill="#020000"/>
<path d="M43.0892 72.9514H41.3882V74.6681H43.0892V72.9514Z" fill="#020100"/>
<path d="M43.0892 71.2319H41.3882V72.9487H43.0892V71.2319Z" fill="#49302B"/>
<path d="M43.0892 69.531H41.3882V71.2319H43.0892V69.531Z" fill="#49302B"/>
<path d="M43.0892 67.8142H41.3882V69.531H43.0892V67.8142Z" fill="#020000"/>
<path d="M43.0892 66.1158H41.3882V67.8168H43.0892V66.1158Z" fill="#05D6B8"/>
<path d="M43.0892 64.3992H41.3882V66.1158H43.0892V64.3992Z" fill="#00FFE2"/>
<path d="M43.0892 62.6981H41.3882V64.3992H43.0892V62.6981Z" fill="#00FFE2"/>
<path d="M43.0892 60.9788H41.3882V62.6955H43.0892V60.9788Z" fill="#00FFE2"/>
<path d="M43.0892 59.262H41.3882V60.9788H43.0892V59.262Z" fill="#05D6B8"/>
<path d="M43.0892 57.5636H41.3882V59.2646H43.0892V57.5636Z" fill="#020000"/>
<path d="M43.0892 55.8469H41.3882V57.5636H43.0892V55.8469Z" fill="#00FFE2"/>
<path d="M43.0892 54.1459H41.3882V55.8469H43.0892V54.1459Z" fill="#E5DAD4"/>
<path d="M43.0892 52.4265H41.3882V54.1433H43.0892V52.4265Z" fill="#E5DAD4"/>
<path d="M43.0892 50.7281H41.3882V52.4291H43.0892V50.7281Z" fill="#E5DAD4"/>
<path d="M43.0892 49.0114H41.3882V50.7281H43.0892V49.0114Z" fill="#E5DAD4"/>
<path d="M43.0892 47.3104H41.3882V49.0114H43.0892V47.3104Z" fill="#E5DAD4"/>
<path d="M43.0892 45.5936H41.3882V47.3104H43.0892V45.5936Z" fill="black"/>
<path d="M43.0892 43.8743H41.3882V45.591H43.0892V43.8743Z" fill="#439B3E"/>
<path d="M43.0892 42.1759H41.3882V43.8769H43.0892V42.1759Z" fill="#439B3E"/>
<path d="M43.0892 40.4591H41.3882V42.1759H43.0892V40.4591Z" fill="#020000"/>
<path d="M43.0892 38.7582H41.3882V40.4591H43.0892V38.7582Z" fill="#020000"/>
<path d="M43.0892 37.0414H41.3882V38.7582H43.0892V37.0414Z" fill="#020000"/>
<path d="M43.0892 35.343H41.3882V37.044H43.0892V35.343Z" fill="#586689"/>
<path d="M43.0892 33.6237H41.3882V35.3404H43.0892V33.6237Z" fill="#586689"/>
<path d="M43.0892 31.9069H41.3882V33.6237H43.0892V31.9069Z" fill="#586689"/>
<path d="M43.0892 30.2059H41.3882V31.9069H43.0892V30.2059Z" fill="#050100"/>
<path d="M41.3882 84.9187H39.6714V86.6197H41.3882V84.9187Z" fill="#020000"/>
<path d="M41.3882 83.202H39.6714V84.9187H41.3882V83.202Z" fill="#020000"/>
<path d="M41.3882 81.5037H39.6714V83.2047H41.3882V81.5037Z" fill="#020000"/>
<path d="M41.3882 71.2319H39.6714V72.9487H41.3882V71.2319Z" fill="#020100"/>
<path d="M41.3882 69.531H39.6714V71.2319H41.3882V69.531Z" fill="#020000"/>
<path d="M41.3882 67.8142H39.6714V69.531H41.3882V67.8142Z" fill="#020000"/>
<path d="M41.3882 66.1158H39.6714V67.8168H41.3882V66.1158Z" fill="#05D6B8"/>
<path d="M41.3882 64.3992H39.6714V66.1158H41.3882V64.3992Z" fill="#05D6B8"/>
<path d="M41.3882 62.6981H39.6714V64.3992H41.3882V62.6981Z" fill="#00FFE2"/>
<path d="M41.3882 60.9788H39.6714V62.6955H41.3882V60.9788Z" fill="#05D6B8"/>
<path d="M41.3882 59.262H39.6714V60.9788H41.3882V59.262Z" fill="#05D6B8"/>
<path d="M41.3882 57.5636H39.6714V59.2646H41.3882V57.5636Z" fill="black"/>
<path d="M41.3882 55.8469H39.6714V57.5636H41.3882V55.8469Z" fill="#020000"/>
<path d="M41.3882 54.1459H39.6714V55.8469H41.3882V54.1459Z" fill="#00FFE2"/>
<path d="M41.3882 52.4265H39.6714V54.1433H41.3882V52.4265Z" fill="#E5DAD4"/>
<path d="M41.3882 50.7281H39.6714V52.4291H41.3882V50.7281Z" fill="#E5DAD4"/>
<path d="M41.3882 49.0114H39.6714V50.7281H41.3882V49.0114Z" fill="#020000"/>
<path d="M41.3882 47.3104H39.6714V49.0114H41.3882V47.3104Z" fill="#439B3E"/>
<path d="M41.3882 45.5936H39.6714V47.3104H41.3882V45.5936Z" fill="#439B3E"/>
<path d="M41.3882 43.8743H39.6714V45.591H41.3882V43.8743Z" fill="#439B3E"/>
<path d="M41.3882 42.1759H39.6714V43.8769H41.3882V42.1759Z" fill="#439B3E"/>
<path d="M41.3882 40.4591H39.6714V42.1759H41.3882V40.4591Z" fill="#020000"/>
<path d="M41.3882 38.7582H39.6714V40.4591H41.3882V38.7582Z" fill="#439B3E"/>
<path d="M41.3882 37.0414H39.6714V38.7582H41.3882V37.0414Z" fill="#439B3E"/>
<path d="M41.3882 35.343H39.6714V37.044H41.3882V35.343Z" fill="#439B3E"/>
<path d="M41.3882 33.6237H39.6714V35.3404H41.3882V33.6237Z" fill="#586689"/>
<path d="M41.3882 31.9069H39.6714V33.6237H41.3882V31.9069Z" fill="#020000"/>
<path d="M39.6714 67.8142H37.9707V69.531L39.6714 69.531V67.8142Z" fill="#020000"/>
<path d="M39.6714 66.1158H37.9707V67.8168H39.6714V66.1158Z" fill="#020000"/>
<path d="M39.6714 64.3992H37.9707V66.1158H39.6714V64.3992Z" fill="#020000"/>
<path d="M39.6714 62.6981H37.9707V64.3992H39.6714V62.6981Z" fill="#020000"/>
<path d="M39.6714 60.9788H37.9707V62.6955H39.6714V60.9788Z" fill="#020000"/>
<path d="M39.6714 59.262H37.9707V60.9788H39.6714V59.262Z" fill="#020000"/>
<path d="M39.6714 57.5636H37.9707V59.2646H39.6714V57.5636Z" fill="#020000"/>
<path d="M39.6714 55.8469H37.9707V57.5636H39.6714V55.8469Z" fill="black"/>
<path d="M39.6714 54.1459H37.9707V55.8469H39.6714V54.1459Z" fill="#020000"/>
<path d="M39.6714 52.4265H37.9707V54.1433H39.6714V52.4265Z" fill="#020000"/>
<path d="M39.6714 50.7281H37.9707V52.4291H39.6714V50.7281Z" fill="#020000"/>
<path d="M39.6714 49.0114H37.9707V50.7281H39.6714V49.0114Z" fill="#020000"/>
<path d="M39.6714 47.3104H37.9707V49.0114H39.6714V47.3104Z" fill="#439B3E"/>
<path d="M39.6714 45.5936H37.9707V47.3104H39.6714V45.5936Z" fill="#439B3E"/>
<path d="M39.6714 43.8743H37.9707V45.591H39.6714V43.8743Z" fill="#439B3E"/>
<path d="M39.6714 42.1759H37.9707V43.8769H39.6714V42.1759Z" fill="#439B3E"/>
<path d="M39.6714 40.4591H37.9707V42.1759H39.6714V40.4591Z" fill="#020000"/>
<path d="M39.6714 38.7582H37.9707V40.4591H39.6714V38.7582Z" fill="#439B3E"/>
<path d="M39.6714 37.0414H37.9707V38.7582H39.6714V37.0414Z" fill="#439B3E"/>
<path d="M39.6714 35.343H37.9707V37.044H39.6714V35.343Z" fill="#439B3E"/>
<path d="M39.6714 33.6237H37.9707V35.3404H39.6714V33.6237Z" fill="#020000"/>
<path d="M37.9707 49.0114H36.2539V50.7281L37.9707 50.7281V49.0114Z" fill="#020000"/>
<path d="M37.9707 47.3104H36.2539V49.0114H37.9707V47.3104Z" fill="#020000"/>
<path d="M37.9707 45.5936H36.2539V47.3104H37.9707V45.5936Z" fill="#020000"/>
<path d="M37.9707 43.8743H36.2539V45.591H37.9707V43.8743Z" fill="#439B3E"/>
<path d="M37.9707 42.1759H36.2539V43.8769H37.9707V42.1759Z" fill="#439B3E"/>
<path d="M37.9707 40.4591H36.2539V42.1759H37.9707V40.4591Z" fill="#439B3E"/>
<path d="M37.9707 38.7582H36.2539V40.4591H37.9707V38.7582Z" fill="#439B3E"/>
<path d="M37.9707 37.0414H36.2539V38.7582H37.9707V37.0414Z" fill="#34872D"/>
<path d="M37.9707 35.343H36.2539V37.044H37.9707V35.343Z" fill="#439B3E"/>
<path d="M37.9707 33.6237H36.2539V35.3404H37.9707V33.6237Z" fill="#020000"/>
<path d="M36.2567 45.5936H34.5557V47.3104H36.2567V45.5936Z" fill="#020000"/>
<path d="M36.2567 43.8743H34.5557V45.591H36.2567V43.8743Z" fill="#439B3E"/>
<path d="M36.2567 42.1759H34.5557V43.8769H36.2567V42.1759Z" fill="#439B3E"/>
<path d="M36.2567 40.4591H34.5557V42.1759H36.2567V40.4591Z" fill="#439B3E"/>
<path d="M36.2567 38.7582H34.5557V40.4591H36.2567V38.7582Z" fill="#34872D"/>
<path d="M36.2567 37.0414H34.5557V38.7582H36.2567V37.0414Z" fill="#439B3E"/>
<path d="M36.2567 35.343H34.5557V37.044H36.2567V35.343Z" fill="#020000"/>
<path d="M34.5527 45.5936H32.8359V47.3104H34.5527V45.5936Z" fill="#020000"/>
<path d="M34.5527 43.8743H32.8359V45.591H34.5527V43.8743Z" fill="#439B3E"/>
<path d="M34.5527 42.1759H32.8359V43.8769H34.5527V42.1759Z" fill="#439B3E"/>
<path d="M34.5527 40.4591H32.8359V42.1759H34.5527V40.4591Z" fill="#439B3E"/>
<path d="M34.5527 38.7582H32.8359V40.4591H34.5527V38.7582Z" fill="#439B3E"/>
<path d="M34.5527 37.0414H32.8359V38.7582H34.5527V37.0414Z" fill="#439B3E"/>
<path d="M34.5527 35.343H32.8359V37.044H34.5527V35.343Z" fill="#050100"/>
<path d="M32.8359 43.8743H31.1191V45.591H32.8359V43.8743Z" fill="#020000"/>
<path d="M32.8359 42.1759H31.1191V43.8769H32.8359V42.1759Z" fill="#439B3E"/>
<path d="M32.8359 40.4591H31.1191V42.1759H32.8359V40.4591Z" fill="#439B3E"/>
<path d="M32.8359 38.7582H31.1191V40.4591H32.8359V38.7582Z" fill="#439B3E"/>
<path d="M32.8359 37.0414H31.1191V38.7582H32.8359V37.0414Z" fill="#020000"/>
<path d="M31.1191 42.1759H29.4185V43.8769H31.1191V42.1759Z" fill="#020000"/>
<path d="M31.1191 40.4591H29.4185V42.1759H31.1191V40.4591Z" fill="#020000"/>
<path d="M31.1191 38.7582H29.4185V40.4591H31.1191V38.7582Z" fill="#020000"/>
</svg>
