<svg width="105" height="105" viewBox="0 0 105 105" fill="none" xmlns="http://www.w3.org/2000/svg">
<path d="M52.5005 4.73279C78.8815 4.73297 100.267 26.1194 100.267 52.5004C100.267 78.8812 78.8813 100.267 52.5005 100.267C26.1195 100.267 4.73309 78.8813 4.73291 52.5004C4.73291 26.1192 26.1194 4.73279 52.5005 4.73279Z" fill="#F9F7E7" stroke="#29100A" stroke-width="2"/>
<path d="M58.2304 61.4564H56.2642V63.4016H58.2304V61.4564Z" fill="#544B56"/>
<path d="M73.8727 84.9423H71.9276V86.8874H73.8727V84.9423Z" fill="black"/>
<path d="M46.4756 84.9423H44.5305V86.8874H46.4756V84.9423Z" fill="black"/>
<path d="M71.9276 84.9423H69.9615V86.8874H71.9276V84.9423Z" fill="black"/>
<path d="M69.9615 84.9423H67.998V86.8874H69.9615V84.9423Z" fill="black"/>
<path d="M64.0841 84.9423H62.139V86.8874H64.0841V84.9423Z" fill="black"/>
<path d="M66.0502 84.9423H64.0841V86.8874H66.0502V84.9423Z" fill="black"/>
<path d="M67.9954 84.9423H66.0502V86.8874H67.9954V84.9423Z" fill="black"/>
<path d="M52.353 84.9423H50.3869V86.8874H52.353V84.9423Z" fill="black"/>
<path d="M50.3869 84.9423H48.4417V86.8874H50.3869V84.9423Z" fill="black"/>
<path d="M48.4417 84.9423H46.4756V86.8874H48.4417V84.9423Z" fill="black"/>
<path d="M56.2642 84.9423H54.3191V86.8874H56.2642V84.9423Z" fill="black"/>
<path d="M54.3191 84.9423H52.353V86.8874H54.3191V84.9423Z" fill="black"/>
<path d="M60.1729 43.8479H58.2277V45.7931H60.1729V43.8479Z" fill="#9087B5"/>
<path d="M58.2304 43.8479H56.2642V45.7931H58.2304V43.8479Z" fill="#9087B5"/>
<path d="M56.2642 43.8479H54.3191V45.7931H56.2642V43.8479Z" fill="#9087B5"/>
<path d="M62.139 43.8479H60.1729V45.7931H62.139V43.8479Z" fill="#9087B5"/>
<path d="M69.9615 82.9762H67.998V84.9423H69.9615V82.9762Z" fill="#544B56"/>
<path d="M58.2304 28.1846H56.2642V30.1507H58.2304V28.1846Z" fill="black"/>
<path d="M56.2642 28.1846H54.3191V30.1507H56.2642V28.1846Z" fill="black"/>
<path d="M64.0841 37.9706H62.139V39.9367H64.0841V37.9706Z" fill="#F49364"/>
<path d="M64.0841 36.0071H62.139V37.9732H64.0841V36.0071Z" fill="#F49364"/>
<path d="M58.2304 39.9367H56.2642V41.8818H58.2304V39.9367Z" fill="#FFEFD3"/>
<path d="M58.2304 36.0071H56.2642V37.9732H58.2304V36.0071Z" fill="#FFEFD3"/>
<path d="M60.1729 39.9367H58.2277V41.8818H60.1729V39.9367Z" fill="#FFEFD3"/>
<path d="M60.1729 37.9706H58.2277V39.9367H60.1729V37.9706Z" fill="#FFEFD3"/>
<path d="M58.2304 37.9706H56.2642V39.9367H58.2304V37.9706Z" fill="#FFEFD3"/>
<path d="M60.1729 36.0071H58.2277V37.9732H60.1729V36.0071Z" fill="#FFEFD3"/>
<path d="M56.2642 37.9706H54.3191V39.9367H56.2642V37.9706Z" fill="#FFEFD3"/>
<path d="M56.2642 36.0071H54.3191V37.9732H56.2642V36.0071Z" fill="#FFEFD3"/>
<path d="M56.2642 39.9367H54.3191V41.8818H56.2642V39.9367Z" fill="#FFEFD3"/>
<path d="M62.139 37.9706H60.1729V39.9367H62.139V37.9706Z" fill="#FFEFD3"/>
<path d="M62.139 36.0071H60.1729V37.9732H62.139V36.0071Z" fill="#FFEFD3"/>
<path d="M62.139 39.9367H60.1729V41.8818H62.139V39.9367Z" fill="#FFEFD3"/>
<path d="M38.6557 63.4016H36.6896V65.3677H38.6557V63.4016Z" fill="#F49364"/>
<path d="M36.6896 55.5817H34.7445V57.5478H36.6896V55.5817Z" fill="#F49364"/>
<path d="M38.6557 53.6366H36.6896V55.5817H38.6557V53.6366Z" fill="#F49364"/>
<path d="M36.6896 53.6366H34.7445V55.5817H36.6896V53.6366Z" fill="#F49364"/>
<path d="M58.2304 41.8818H56.2642V43.8479H58.2304V41.8818Z" fill="#7A3124"/>
<path d="M60.1729 41.8818H58.2277V43.8479H60.1729V41.8818Z" fill="#7A3124"/>
<path d="M62.139 41.8818H60.1729V43.8479H62.139V41.8818Z" fill="#7A3124"/>
<path d="M64.0841 39.9367H62.139V41.8818H64.0841V39.9367Z" fill="#7A3124"/>
<path d="M38.6557 61.4564H36.6896V63.4016H38.6557V61.4564Z" fill="#7A3124"/>
<path d="M38.6557 57.5452H36.6896V59.4903H38.6557V57.5452Z" fill="#7A3124"/>
<path d="M38.6557 55.5817H36.6896V57.5478H38.6557V55.5817Z" fill="#7A3124"/>
<path d="M36.6896 57.5452H34.7445V59.4903H36.6896V57.5452Z" fill="#7A3124"/>
<path d="M46.4756 57.5452H44.5305V59.4903H46.4756V57.5452Z" fill="#7A3124"/>
<path d="M46.4756 55.5817H44.5305V57.5478H46.4756V55.5817Z" fill="#7A3124"/>
<path d="M46.4756 53.6366H44.5305V55.5817H46.4756V53.6366Z" fill="#7A3124"/>
<path d="M48.4417 53.6366H46.4756V55.5817H48.4417V53.6366Z" fill="#7A3124"/>
<path d="M48.4417 55.5817H46.4756V57.5478H48.4417V55.5817Z" fill="#7A3124"/>
<path d="M48.4417 57.5452H46.4756V59.4903H48.4417V57.5452Z" fill="#7A3124"/>
<path d="M44.5305 55.5817H42.5644V57.5478H44.5305V55.5817Z" fill="#9087B5"/>
<path d="M44.5305 53.6366H42.5644V55.5817H44.5305V53.6366Z" fill="#9087B5"/>
<path d="M44.5305 57.5452H42.5644V59.4903H44.5305V57.5452Z" fill="#9087B5"/>
<path d="M36.6896 49.7043H34.7445V51.6704H36.6896V49.7043Z" fill="#544B56"/>
<path d="M50.3869 75.1537H48.4417V77.0988H50.3869V75.1537Z" fill="#E7DACE"/>
<path d="M67.9954 75.1537H66.0502V77.0988H67.9954V75.1537Z" fill="#E7DACE"/>
<path d="M66.0502 75.1537H64.0841V77.0988H66.0502V75.1537Z" fill="#E7DACE"/>
<path d="M69.9615 47.7592H67.998V49.7043H69.9615V47.7592Z" fill="#E7DACE"/>
<path d="M66.0502 49.7043H64.0841V51.6704H66.0502V49.7043Z" fill="#E7DACE"/>
<path d="M66.0502 47.7592H64.0841V49.7043H66.0502V47.7592Z" fill="#E7DACE"/>
<path d="M66.0502 53.6366H64.0841V55.5817H66.0502V53.6366Z" fill="#E7DACE"/>
<path d="M66.0502 51.6704H64.0841V53.6366H66.0502V51.6704Z" fill="#E7DACE"/>
<path d="M67.9954 47.7592H66.0502V49.7043H67.9954V47.7592Z" fill="#E7DACE"/>
<path d="M66.0502 43.8479H64.0841V45.7931H66.0502V43.8479Z" fill="#E7DACE"/>
<path d="M67.9954 43.8479H66.0502V45.7931H67.9954V43.8479Z" fill="#E7DACE"/>
<path d="M60.1729 26.2394H58.2277V28.1846H60.1729V26.2394Z" fill="#E7DACE"/>
<path d="M58.2304 26.2394H56.2642V28.1846H58.2304V26.2394Z" fill="#E7DACE"/>
<path d="M62.139 26.2394H60.1729V28.1846H62.139V26.2394Z" fill="#E7DACE"/>
<path d="M58.2304 47.7592H56.2642V49.7043H58.2304V47.7592Z" fill="#E7DACE"/>
<path d="M60.1729 49.7043H58.2277V51.6704H60.1729V49.7043Z" fill="#E7DACE"/>
<path d="M60.1729 45.7931H58.2277V47.7592H60.1729V45.7931Z" fill="#E7DACE"/>
<path d="M58.2304 51.6704H56.2642V53.6366H58.2304V51.6704Z" fill="#E7DACE"/>
<path d="M58.2304 49.7043H56.2642V51.6704H58.2304V49.7043Z" fill="#E7DACE"/>
<path d="M60.1729 47.7592H58.2277V49.7043H60.1729V47.7592Z" fill="#E7DACE"/>
<path d="M44.5305 59.4903H42.5644V61.4564H44.5305V59.4903Z" fill="#544B56"/>
<path d="M42.5644 57.5452H40.6192V59.4903H42.5644V57.5452Z" fill="#544B56"/>
<path d="M42.5644 55.5817H40.6192V57.5478H42.5644V55.5817Z" fill="#544B56"/>
<path d="M40.6192 55.5817H38.6531V57.5478H40.6192V55.5817Z" fill="#544B56"/>
<path d="M40.6192 57.5452H38.6531V59.4903H40.6192V57.5452Z" fill="#544B56"/>
<path d="M71.9276 82.9762H69.9615V84.9423H71.9276V82.9762Z" fill="#544B56"/>
<path d="M69.9615 81.0127H67.998V82.9762H69.9615V81.0127Z" fill="#544B56"/>
<path d="M64.0841 77.1014H62.139V79.0649H64.0841V77.1014Z" fill="#544B56"/>
<path d="M67.9954 82.9762H66.0502V84.9423H67.9954V82.9762Z" fill="#544B56"/>
<path d="M67.9954 81.0127H66.0502V82.9762H67.9954V81.0127Z" fill="#544B56"/>
<path d="M67.9954 79.0649H66.0502V81.0127H67.9954V79.0649Z" fill="#544B56"/>
<path d="M67.9954 77.1014H66.0502V79.0649H67.9954V77.1014Z" fill="#544B56"/>
<path d="M66.0502 82.9762H64.0841V84.9423H66.0502V82.9762Z" fill="#544B56"/>
<path d="M66.0502 79.0649L64.0841 79.0649V81.0127L66.0502 81.0127V79.0649Z" fill="#544B56"/>
<path d="M66.0502 81.0127L64.0841 81.0127V82.9762H66.0502V81.0127Z" fill="#544B56"/>
<path d="M66.0502 77.1014H64.0841V79.0649L66.0502 79.0649V77.1014Z" fill="#544B56"/>
<path d="M64.0841 73.1902H62.139V75.1563H64.0841V73.1902Z" fill="#544B56"/>
<path d="M66.0502 73.1902H64.0841V75.1563H66.0502V73.1902Z" fill="#544B56"/>
<path d="M62.139 71.2451H60.1729V73.1902H62.139V71.2451Z" fill="#544B56"/>
<path d="M62.139 69.2789H60.1729V71.2451H62.139V69.2789Z" fill="#544B56"/>
<path d="M64.0841 69.2789H62.139V71.2451H64.0841V69.2789Z" fill="#544B56"/>
<path d="M64.0841 71.2451H62.139V73.1902H64.0841V71.2451Z" fill="#544B56"/>
<path d="M64.0841 67.3154H62.139V69.2789H64.0841V67.3154Z" fill="#544B56"/>
<path d="M66.0502 69.2789H64.0841V71.2451H66.0502V69.2789Z" fill="#544B56"/>
<path d="M66.0502 71.2451H64.0841V73.1902H66.0502V71.2451Z" fill="#544B56"/>
<path d="M67.9954 71.2451H66.0502V73.1902H67.9954V71.2451Z" fill="#544B56"/>
<path d="M52.353 79.0649H50.3869V81.0127H52.353V79.0649Z" fill="#544B56"/>
<path d="M52.353 81.0127H50.3869V82.9762H52.353V81.0127Z" fill="#544B56"/>
<path d="M52.353 82.9762H50.3869V84.9423H52.353V82.9762Z" fill="#544B56"/>
<path d="M52.353 77.1014H50.3869V79.0649H52.353V77.1014Z" fill="#544B56"/>
<path d="M50.3869 77.1014H48.4417V79.0649L50.3869 79.0649V77.1014Z" fill="#544B56"/>
<path d="M50.3869 82.9762L48.4417 82.9762V84.9423H50.3869V82.9762Z" fill="#544B56"/>
<path d="M48.4417 82.9762H46.4756V84.9423H48.4417V82.9762Z" fill="#544B56"/>
<path d="M54.3191 75.1537H52.353V77.0988H54.3191V75.1537Z" fill="#544B56"/>
<path d="M54.3191 79.0649H52.353V81.0127H54.3191V79.0649Z" fill="#544B56"/>
<path d="M54.3191 82.9762L52.353 82.9762V84.9423H54.3191V82.9762Z" fill="#544B56"/>
<path d="M54.3191 81.0127H52.353V82.9762L54.3191 82.9762V81.0127Z" fill="#544B56"/>
<path d="M54.3191 77.1014H52.353V79.0649H54.3191V77.1014Z" fill="#544B56"/>
<path d="M81.6952 61.4564H79.7475V63.4016H81.6952V61.4564Z" fill="black"/>
<path d="M81.6952 59.4903H79.7475V61.4564H81.6952V59.4903Z" fill="black"/>
<path d="M81.6952 57.5452H79.7475V59.4903H81.6952V57.5452Z" fill="black"/>
<path d="M81.6952 55.5817H79.7475V57.5478H81.6952V55.5817Z" fill="black"/>
<path d="M81.6952 53.6366H79.7475V55.5817H81.6952V53.6366Z" fill="black"/>
<path d="M81.6952 51.6704H79.7475V53.6366H81.6952V51.6704Z" fill="black"/>
<path d="M81.6952 49.7043H79.7475V51.6704H81.6952V49.7043Z" fill="black"/>
<path d="M81.6952 47.7592H79.7475V49.7043H81.6952V47.7592Z" fill="black"/>
<path d="M81.6952 45.7931H79.7475V47.7592H81.6952V45.7931Z" fill="black"/>
<path d="M79.7475 63.4016H77.784V65.3677H79.7475V63.4016Z" fill="black"/>
<path d="M79.7475 61.4564H77.784V63.4016H79.7475V61.4564Z" fill="#544B56"/>
<path d="M79.7475 59.4903H77.784V61.4564H79.7475V59.4903Z" fill="#544B56"/>
<path d="M79.7475 57.5452H77.784V59.4903H79.7475V57.5452Z" fill="#544B56"/>
<path d="M79.7475 55.5817H77.784V57.5478H79.7475V55.5817Z" fill="#544B56"/>
<path d="M79.7475 53.6366H77.784V55.5817H79.7475V53.6366Z" fill="#544B56"/>
<path d="M79.7475 51.6704H77.784V53.6366H79.7475V51.6704Z" fill="#544B56"/>
<path d="M79.7475 49.7043H77.784V51.6704H79.7475V49.7043Z" fill="#544B56"/>
<path d="M79.7475 47.7592H77.784V49.7043H79.7475V47.7592Z" fill="#544B56"/>
<path d="M79.7475 45.7931H77.784V47.7592H79.7475V45.7931Z" fill="#544B56"/>
<path d="M79.7475 43.8479H77.784V45.7931H79.7475V43.8479Z" fill="black"/>
<path d="M77.784 65.3677H75.8389V67.3128H77.784L77.784 65.3677Z" fill="black"/>
<path d="M77.784 63.4016H75.8389V65.3677H77.784V63.4016Z" fill="#544B56"/>
<path d="M77.784 61.4564H75.8389V63.4016H77.784V61.4564Z" fill="#89031A"/>
<path d="M77.784 59.4903H75.8389V61.4564H77.784V59.4903Z" fill="#89031A"/>
<path d="M77.784 57.5452H75.8389V59.4903H77.784V57.5452Z" fill="#89031A"/>
<path d="M77.784 55.5817H75.8389V57.5478H77.784V55.5817Z" fill="#89031A"/>
<path d="M77.784 53.6366H75.8389V55.5817H77.784V53.6366Z" fill="#89031A"/>
<path d="M77.784 51.6704H75.8389V53.6366H77.784V51.6704Z" fill="#89031A"/>
<path d="M77.784 49.7043H75.8389V51.6704H77.784V49.7043Z" fill="#89031A"/>
<path d="M77.784 47.7592H75.8389V49.7043H77.784V47.7592Z" fill="#89031A"/>
<path d="M77.784 45.7931H75.8389V47.7592H77.784V45.7931Z" fill="#544B56"/>
<path d="M77.784 43.8479H75.8389V45.7931H77.784V43.8479Z" fill="black"/>
<path d="M75.8389 67.3154H73.8727V69.2789H75.8389V67.3154Z" fill="black"/>
<path d="M75.8389 65.3677H73.8727V67.3128H75.8389V65.3677Z" fill="#544B56"/>
<path d="M75.8389 63.4016H73.8727V65.3677H75.8389V63.4016Z" fill="#89031A"/>
<path d="M75.8389 61.4564H73.8727V63.4016H75.8389V61.4564Z" fill="#89031A"/>
<path d="M75.8389 59.4903H73.8727V61.4564H75.8389V59.4903Z" fill="#89031A"/>
<path d="M75.8389 57.5452H73.8727V59.4903H75.8389V57.5452Z" fill="#89031A"/>
<path d="M75.8389 55.5817H73.8727V57.5478H75.8389V55.5817Z" fill="#89031A"/>
<path d="M75.8389 53.6366H73.8727V55.5817H75.8389V53.6366Z" fill="#89031A"/>
<path d="M75.8389 51.6704H73.8727V53.6366H75.8389V51.6704Z" fill="#89031A"/>
<path d="M75.8389 49.7043H73.8727V51.6704H75.8389V49.7043Z" fill="#89031A"/>
<path d="M75.8389 47.7592H73.8727V49.7043H75.8389V47.7592Z" fill="#544B56"/>
<path d="M75.8389 45.7931H73.8727V47.7592H75.8389V45.7931Z" fill="black"/>
<path d="M73.8727 82.9762H71.9276V84.9423H73.8727V82.9762Z" fill="black"/>
<path d="M73.8727 69.2789H71.9276V71.2451H73.8727V69.2789Z" fill="black"/>
<path d="M73.8727 67.3154H71.9276V69.2789H73.8727V67.3154Z" fill="#544B56"/>
<path d="M73.8727 65.3677H71.9276V67.3128H73.8727V65.3677Z" fill="#89031A"/>
<path d="M73.8727 63.4016H71.9276V65.3677H73.8727V63.4016Z" fill="#89031A"/>
<path d="M73.8727 61.4564H71.9276V63.4016H73.8727V61.4564Z" fill="#89031A"/>
<path d="M73.8727 59.4903H71.9276V61.4564H73.8727V59.4903Z" fill="#89031A"/>
<path d="M73.8727 57.5452H71.9276V59.4903H73.8727V57.5452Z" fill="#89031A"/>
<path d="M73.8727 55.5817H71.9276V57.5478H73.8727V55.5817Z" fill="#89031A"/>
<path d="M73.8727 53.6366H71.9276V55.5817H73.8727V53.6366Z" fill="#89031A"/>
<path d="M73.8727 51.6704H71.9276V53.6366H73.8727V51.6704Z" fill="#89031A"/>
<path d="M73.8727 49.7043H71.9276V51.6704H73.8727V49.7043Z" fill="#89031A"/>
<path d="M73.8727 47.7592H71.9276V49.7043H73.8727V47.7592Z" fill="#544B56"/>
<path d="M73.8727 45.7931H71.9276V47.7592H73.8727V45.7931Z" fill="black"/>
<path d="M71.9276 81.0127H69.9615V82.9762H71.9276V81.0127Z" fill="black"/>
<path d="M71.9276 75.1537H69.9615V77.0988H71.9276V75.1537Z" fill="black"/>
<path d="M71.9276 69.2789H69.9615V71.2451H71.9276V69.2789Z" fill="black"/>
<path d="M71.9276 67.3154H69.9615V69.2789H71.9276V67.3154Z" fill="#9087B5"/>
<path d="M71.9276 65.3677H69.9615V67.3128H71.9276V65.3677Z" fill="#544B56"/>
<path d="M71.9276 63.4016H69.9615V65.3677H71.9276V63.4016Z" fill="#A30417"/>
<path d="M71.9276 61.4564H69.9615V63.4016H71.9276V61.4564Z" fill="#A30417"/>
<path d="M71.9276 59.4903H69.9615V61.4564H71.9276V59.4903Z" fill="#A30417"/>
<path d="M71.9276 57.5452H69.9615V59.4903H71.9276V57.5452Z" fill="#A30417"/>
<path d="M71.9276 55.5817H69.9615V57.5478H71.9276V55.5817Z" fill="#EF0012"/>
<path d="M71.9276 53.6366H69.9615V55.5817H71.9276V53.6366Z" fill="#EF0012"/>
<path d="M71.9276 51.6704H69.9615V53.6366H71.9276V51.6704Z" fill="#EF0012"/>
<path d="M71.9276 49.7043H69.9615V51.6704H71.9276V49.7043Z" fill="#EF0012"/>
<path d="M71.9276 47.7592H69.9615V49.7043H71.9276V47.7592Z" fill="#9087B5"/>
<path d="M71.9276 45.7931H69.9615V47.7592H71.9276V45.7931Z" fill="black"/>
<path d="M71.9276 43.8479H69.9615V45.7931H71.9276V43.8479Z" fill="black"/>
<path d="M69.9615 79.0649H67.998V81.0127H69.9615V79.0649Z" fill="black"/>
<path d="M69.9615 77.1014H67.998V79.0649H69.9615V77.1014Z" fill="black"/>
<path d="M69.9615 75.1537H67.998V77.0988H69.9615V75.1537Z" fill="#9087B5"/>
<path d="M69.9615 73.1902H67.998V75.1563H69.9615V73.1902Z" fill="black"/>
<path d="M69.9615 71.2451H67.998V73.1902H69.9615V71.2451Z" fill="black"/>
<path d="M69.9615 69.2789H67.998V71.2451H69.9615V69.2789Z" fill="black"/>
<path d="M69.9615 67.3154H67.998V69.2789H69.9615V67.3154Z" fill="black"/>
<path d="M69.9615 65.3677H67.998V67.3128H69.9615V65.3677Z" fill="#9087B5"/>
<path d="M69.9615 63.4016H67.998V65.3677H69.9615V63.4016Z" fill="#544B56"/>
<path d="M69.9615 61.4564H67.998V63.4016H69.9615V61.4564Z" fill="#A30417"/>
<path d="M69.9615 59.4903H67.998V61.4564H69.9615V59.4903Z" fill="#A30417"/>
<path d="M69.9615 57.5452H67.998V59.4903H69.9615V57.5452Z" fill="#A30417"/>
<path d="M69.9615 55.5817H67.998V57.5478H69.9615V55.5817Z" fill="#A30417"/>
<path d="M69.9615 53.6366H67.998V55.5817H69.9615V53.6366Z" fill="#EF0012"/>
<path d="M69.9615 51.6704H67.998V53.6366H69.9615V51.6704Z" fill="#EF0012"/>
<path d="M69.9615 49.7043H67.998V51.6704H69.9615V49.7043Z" fill="#EF0012"/>
<path d="M69.9615 45.7931H67.998V47.7592H69.9615V45.7931Z" fill="black"/>
<path d="M69.9615 43.8479H67.998V45.7931H69.9615V43.8479Z" fill="#9087B5"/>
<path d="M69.9615 41.8818H67.998V43.8479H69.9615V41.8818Z" fill="black"/>
<path d="M69.9615 36.0071H67.998V37.9732H69.9615V36.0071Z" fill="black"/>
<path d="M69.9615 34.0619H67.998V36.0071H69.9615V34.0619Z" fill="black"/>
<path d="M69.9615 32.0958H67.998V34.0619H69.9615V32.0958Z" fill="black"/>
<path d="M67.9954 73.1902H66.0502V75.1563H67.9954V73.1902Z" fill="black"/>
<path d="M67.9954 69.2789H66.0502V71.2451H67.9954V69.2789Z" fill="black"/>
<path d="M67.9954 67.3154H66.0502V69.2789H67.9954V67.3154Z" fill="black"/>
<path d="M67.9954 65.3677H66.0502V67.3128H67.9954V65.3677Z" fill="black"/>
<path d="M67.9954 63.4016H66.0502V65.3677H67.9954V63.4016Z" fill="#9087B5"/>
<path d="M67.9954 61.4564H66.0502V63.4016H67.9954V61.4564Z" fill="#A30417"/>
<path d="M67.9954 59.4903H66.0502V61.4564H67.9954V59.4903Z" fill="#A30417"/>
<path d="M67.9954 57.5452H66.0502V59.4903H67.9954V57.5452Z" fill="#A30417"/>
<path d="M67.9954 55.5817H66.0502V57.5478H67.9954V55.5817Z" fill="#A30417"/>
<path d="M67.9954 53.6366H66.0502V55.5817H67.9954V53.6366Z" fill="#A30417"/>
<path d="M67.9954 51.6704H66.0502V53.6366H67.9954V51.6704Z" fill="#EF0012"/>
<path d="M67.9954 49.7043H66.0502V51.6704H67.9954V49.7043Z" fill="#EF0012"/>
<path d="M67.9954 45.7931H66.0502V47.7592H67.9954V45.7931Z" fill="black"/>
<path d="M67.9954 41.8818H66.0502V43.8479H67.9954V41.8818Z" fill="black"/>
<path d="M67.9954 37.9706H66.0502V39.9367H67.9954V37.9706Z" fill="black"/>
<path d="M67.9954 36.0071H66.0502V37.9732H67.9954V36.0071Z" fill="#544B56"/>
<path d="M67.9954 34.0619H66.0502V36.0071H67.9954V34.0619Z" fill="black"/>
<path d="M67.9954 32.0958H66.0502V34.0619H67.9954V32.0958Z" fill="#544B56"/>
<path d="M67.9954 30.1507H66.0502V32.0958H67.9954V30.1507Z" fill="black"/>
<path d="M67.9954 28.1846H66.0502V30.1507H67.9954V28.1846Z" fill="black"/>
<path d="M66.0502 67.3154H64.0841V69.2789H66.0502V67.3154Z" fill="black"/>
<path d="M66.0502 65.3677H64.0841V67.3128H66.0502V65.3677Z" fill="black"/>
<path d="M66.0502 63.4016H64.0841V65.3677H66.0502V63.4016Z" fill="black"/>
<path d="M66.0502 61.4564H64.0841V63.4016H66.0502V61.4564Z" fill="#9087B5"/>
<path d="M66.0502 59.4903H64.0841V61.4564H66.0502V59.4903Z" fill="#9087B5"/>
<path d="M66.0502 57.5452H64.0841V59.4903H66.0502V57.5452Z" fill="#9087B5"/>
<path d="M66.0502 55.5817H64.0841V57.5478H66.0502V55.5817Z" fill="#9087B5"/>
<path d="M66.0502 45.7931H64.0841V47.7592H66.0502V45.7931Z" fill="black"/>
<path d="M66.0502 41.8818H64.0841V43.8479H66.0502V41.8818Z" fill="black"/>
<path d="M66.0502 39.9367H64.0841V41.8818H66.0502V39.9367Z" fill="black"/>
<path d="M66.0502 37.9706H64.0841V39.9367H66.0502V37.9706Z" fill="#544B56"/>
<path d="M66.0502 36.0071H64.0841V37.9732H66.0502V36.0071Z" fill="#544B56"/>
<path d="M66.0502 34.0619H64.0841V36.0071H66.0502V34.0619Z" fill="black"/>
<path d="M66.0502 32.0958H64.0841V34.0619H66.0502V32.0958Z" fill="#9087B5"/>
<path d="M66.0502 30.1507H64.0841V32.0958H66.0502V30.1507Z" fill="#544B56"/>
<path d="M66.0502 28.1846H64.0841V30.1507H66.0502V28.1846Z" fill="#9087B5"/>
<path d="M66.0502 26.2394H64.0841V28.1846H66.0502V26.2394Z" fill="black"/>
<path d="M64.0841 82.9762H62.139V84.9423H64.0841V82.9762Z" fill="black"/>
<path d="M64.0841 81.0127L62.139 81.0127V82.9762H64.0841V81.0127Z" fill="black"/>
<path d="M64.0841 79.0649H62.139V81.0127L64.0841 81.0127V79.0649Z" fill="black"/>
<path d="M64.0841 75.1537H62.139V77.0988H64.0841V75.1537Z" fill="#9087B5"/>
<path d="M64.0841 65.3677H62.139V67.3128H64.0841V65.3677Z" fill="black"/>
<path d="M64.0841 63.4016H62.139V65.3677H64.0841V63.4016Z" fill="black"/>
<path d="M64.0841 61.4564H62.139V63.4016H64.0841V61.4564Z" fill="black"/>
<path d="M64.0841 59.4903H62.139V61.4564H64.0841V59.4903Z" fill="black"/>
<path d="M64.0841 57.5452H62.139V59.4903H64.0841V57.5452Z" fill="black"/>
<path d="M64.0841 55.5817H62.139V57.5478H64.0841V55.5817Z" fill="black"/>
<path d="M64.0841 53.6366H62.139V55.5817H64.0841V53.6366Z" fill="black"/>
<path d="M64.0841 51.6704H62.139V53.6366H64.0841V51.6704Z" fill="black"/>
<path d="M64.0841 49.7043H62.139V51.6704H64.0841V49.7043Z" fill="black"/>
<path d="M64.0841 47.7592H62.139V49.7043H64.0841V47.7592Z" fill="black"/>
<path d="M64.0841 45.7931H62.139V47.7592H64.0841V45.7931Z" fill="black"/>
<path d="M64.0841 43.8479H62.139V45.7931H64.0841V43.8479Z" fill="#9087B5"/>
<path d="M64.0841 41.8818H62.139V43.8479H64.0841V41.8818Z" fill="black"/>
<path d="M64.0841 34.0619H62.139V36.0071H64.0841V34.0619Z" fill="black"/>
<path d="M64.0841 32.0958H62.139V34.0619H64.0841V32.0958Z" fill="#9087B5"/>
<path d="M64.0841 30.1507H62.139V32.0958H64.0841V30.1507Z" fill="#9087B5"/>
<path d="M64.0841 28.1846H62.139V30.1507H64.0841V28.1846Z" fill="#544B56"/>
<path d="M64.0841 26.2394H62.139V28.1846H64.0841V26.2394Z" fill="#9087B5"/>
<path d="M64.0841 24.2733H62.139V26.2394H64.0841V24.2733Z" fill="black"/>
<path d="M62.139 77.1014H60.1729V79.0649H62.139V77.1014Z" fill="black"/>
<path d="M62.139 75.1537H60.1729V77.0988H62.139V75.1537Z" fill="black"/>
<path d="M62.139 73.1902H60.1729V75.1563H62.139V73.1902Z" fill="black"/>
<path d="M62.139 67.3154H60.1729V69.2789H62.139V67.3154Z" fill="black"/>
<path d="M62.139 65.3677H60.1729V67.3128H62.139V65.3677Z" fill="black"/>
<path d="M62.139 63.4016H60.1729V65.3677H62.139V63.4016Z" fill="black"/>
<path d="M62.139 61.4564H60.1729V63.4016H62.139V61.4564Z" fill="black"/>
<path d="M62.139 59.4903H60.1729V61.4564H62.139V59.4903Z" fill="black"/>
<path d="M62.139 57.5452H60.1729V59.4903H62.139V57.5452Z" fill="black"/>
<path d="M62.139 55.5817H60.1729V57.5478H62.139V55.5817Z" fill="#544B56"/>
<path d="M62.139 53.6366H60.1729V55.5817H62.139V53.6366Z" fill="#9087B5"/>
<path d="M62.139 51.6704H60.1729V53.6366H62.139V51.6704Z" fill="#9087B5"/>
<path d="M62.139 49.7043H60.1729V51.6704H62.139V49.7043Z" fill="#9087B5"/>
<path d="M62.139 47.7592H60.1729V49.7043H62.139V47.7592Z" fill="#9087B5"/>
<path d="M62.139 45.7931H60.1729V47.7592H62.139V45.7931Z" fill="#9087B5"/>
<path d="M62.139 34.0619H60.1729V36.0071H62.139V34.0619Z" fill="black"/>
<path d="M62.139 32.0958H60.1729V34.0619H62.139V32.0958Z" fill="#9087B5"/>
<path d="M62.139 30.1507H60.1729V32.0958H62.139V30.1507Z" fill="#9087B5"/>
<path d="M62.139 28.1846H60.1729V30.1507H62.139V28.1846Z" fill="#544B56"/>
<path d="M62.139 24.2733H60.1729V26.2394H62.139V24.2733Z" fill="black"/>
<path d="M60.1729 71.2451H58.2277V73.1902H60.1729V71.2451Z" fill="black"/>
<path d="M60.1729 69.2789H58.2277V71.2451H60.1729V69.2789Z" fill="black"/>
<path d="M60.1729 67.3154H58.2277V69.2789H60.1729V67.3154Z" fill="#544B56"/>
<path d="M60.1729 65.3677H58.2277V67.3128H60.1729V65.3677Z" fill="#9087B5"/>
<path d="M60.1729 63.4016H58.2277V65.3677H60.1729V63.4016Z" fill="#9087B5"/>
<path d="M60.1729 61.4564H58.2277V63.4016H60.1729V61.4564Z" fill="#9087B5"/>
<path d="M60.1729 59.4903H58.2277V61.4564H60.1729V59.4903Z" fill="black"/>
<path d="M60.1729 57.5452H58.2277V59.4903H60.1729V57.5452Z" fill="#544B56"/>
<path d="M60.1729 55.5817H58.2277V57.5478H60.1729V55.5817Z" fill="#9087B5"/>
<path d="M60.1729 53.6366H58.2277V55.5817H60.1729V53.6366Z" fill="#9087B5"/>
<path d="M60.1729 51.6704H58.2277V53.6366H60.1729V51.6704Z" fill="#9087B5"/>
<path d="M60.1729 34.0619H58.2277V36.0071H60.1729V34.0619Z" fill="black"/>
<path d="M60.1729 32.0958H58.2277V34.0619H60.1729V32.0958Z" fill="#9087B5"/>
<path d="M60.1729 30.1507H58.2277V32.0958H60.1729V30.1507Z" fill="#9087B5"/>
<path d="M60.1729 28.1846H58.2277V30.1507H60.1729V28.1846Z" fill="#544B56"/>
<path d="M60.1729 24.2733H58.2277V26.2394H60.1729V24.2733Z" fill="black"/>
<path d="M58.2304 71.2451H56.2642V73.1902H58.2304V71.2451Z" fill="black"/>
<path d="M58.2304 69.2789H56.2642V71.2451H58.2304V69.2789Z" fill="black"/>
<path d="M58.2304 67.3154H56.2642V69.2789H58.2304V67.3154Z" fill="#9087B5"/>
<path d="M58.2304 65.3677H56.2642V67.3128H58.2304V65.3677Z" fill="#9087B5"/>
<path d="M58.2304 63.4016H56.2642V65.3677H58.2304V63.4016Z" fill="#9087B5"/>
<path d="M58.2304 59.4903H56.2642V61.4564H58.2304V59.4903Z" fill="#544B56"/>
<path d="M58.2304 57.5452H56.2642V59.4903H58.2304V57.5452Z" fill="#9087B5"/>
<path d="M58.2304 55.5817H56.2642V57.5478H58.2304V55.5817Z" fill="#9087B5"/>
<path d="M58.2304 53.6366H56.2642V55.5817H58.2304V53.6366Z" fill="#9087B5"/>
<path d="M58.2304 45.7931H56.2642V47.7592H58.2304V45.7931Z" fill="#9087B5"/>
<path d="M58.2304 34.0619H56.2642V36.0071H58.2304V34.0619Z" fill="black"/>
<path d="M58.2304 32.0958H56.2642V34.0619H58.2304V32.0958Z" fill="#9087B5"/>
<path d="M58.2304 30.1507H56.2642V32.0958H58.2304V30.1507Z" fill="#9087B5"/>
<path d="M58.2304 24.2733H56.2642V26.2394H58.2304V24.2733Z" fill="black"/>
<path d="M56.2642 82.9762H54.3191V84.9423H56.2642V82.9762Z" fill="black"/>
<path d="M56.2642 81.0127L54.3191 81.0127V82.9762H56.2642V81.0127Z" fill="black"/>
<path d="M56.2642 79.0649H54.3191V81.0127L56.2642 81.0127V79.0649Z" fill="black"/>
<path d="M56.2642 77.1014H54.3191V79.0649H56.2642V77.1014Z" fill="black"/>
<path d="M56.2642 75.1537H54.3191V77.0988H56.2642V75.1537Z" fill="black"/>
<path d="M56.2642 73.1902H54.3191V75.1563H56.2642V73.1902Z" fill="black"/>
<path d="M56.2642 71.2451H54.3191V73.1902H56.2642V71.2451Z" fill="#544B56"/>
<path d="M56.2642 69.2789H54.3191V71.2451H56.2642V69.2789Z" fill="black"/>
<path d="M56.2642 67.3154H54.3191V69.2789H56.2642V67.3154Z" fill="#544B56"/>
<path d="M56.2642 65.3677H54.3191V67.3128H56.2642V65.3677Z" fill="#544B56"/>
<path d="M56.2642 63.4016H54.3191V65.3677H56.2642V63.4016Z" fill="#544B56"/>
<path d="M56.2642 61.4564H54.3191V63.4016H56.2642V61.4564Z" fill="#544B56"/>
<path d="M56.2642 59.4903H54.3191V61.4564H56.2642V59.4903Z" fill="#544B56"/>
<path d="M56.2642 57.5452H54.3191V59.4903H56.2642V57.5452Z" fill="#544B56"/>
<path d="M56.2642 55.5817H54.3191V57.5478H56.2642V55.5817Z" fill="#544B56"/>
<path d="M56.2642 53.6366H54.3191V55.5817H56.2642V53.6366Z" fill="#544B56"/>
<path d="M56.2642 51.6704H54.3191V53.6366H56.2642V51.6704Z" fill="#544B56"/>
<path d="M56.2642 49.7043H54.3191V51.6704H56.2642V49.7043Z" fill="#9087B5"/>
<path d="M56.2642 47.7592H54.3191V49.7043H56.2642V47.7592Z" fill="#9087B5"/>
<path d="M56.2642 45.7931H54.3191V47.7592H56.2642V45.7931Z" fill="#9087B5"/>
<path d="M56.2642 41.8818H54.3191V43.8479H56.2642V41.8818Z" fill="black"/>
<path d="M56.2642 34.0619H54.3191V36.0071H56.2642V34.0619Z" fill="black"/>
<path d="M56.2642 32.0958H54.3191V34.0619H56.2642V32.0958Z" fill="#544B56"/>
<path d="M56.2642 30.1507H54.3191V32.0958H56.2642V30.1507Z" fill="#544B56"/>
<path d="M56.2642 26.2394H54.3191V28.1846H56.2642V26.2394Z" fill="#9087B5"/>
<path d="M56.2642 24.2733H54.3191V26.2394H56.2642V24.2733Z" fill="black"/>
<path d="M54.3191 73.1902H52.353V75.1563H54.3191V73.1902Z" fill="black"/>
<path d="M54.3191 71.2451H52.353V73.1902H54.3191V71.2451Z" fill="#544B56"/>
<path d="M54.3191 69.2789H52.353V71.2451H54.3191V69.2789Z" fill="#544B56"/>
<path d="M54.3191 67.3154H52.353V69.2789H54.3191V67.3154Z" fill="black"/>
<path d="M54.3191 65.3677H52.353V67.3128H54.3191V65.3677Z" fill="black"/>
<path d="M54.3191 63.4016H52.353V65.3677H54.3191V63.4016Z" fill="black"/>
<path d="M54.3191 61.4564H52.353V63.4016H54.3191V61.4564Z" fill="black"/>
<path d="M54.3191 59.4903H52.353V61.4564H54.3191V59.4903Z" fill="black"/>
<path d="M54.3191 57.5452H52.353V59.4903H54.3191V57.5452Z" fill="black"/>
<path d="M54.3191 55.5817H52.353V57.5478H54.3191V55.5817Z" fill="#544B56"/>
<path d="M54.3191 53.6366H52.353V55.5817H54.3191V53.6366Z" fill="#544B56"/>
<path d="M54.3191 51.6704H52.353V53.6366H54.3191V51.6704Z" fill="#544B56"/>
<path d="M54.3191 49.7043H52.353V51.6704H54.3191V49.7043Z" fill="#9087B5"/>
<path d="M54.3191 47.7592H52.353V49.7043H54.3191V47.7592Z" fill="#9087B5"/>
<path d="M54.3191 45.7931H52.353V47.7592H54.3191V45.7931Z" fill="#544B56"/>
<path d="M54.3191 43.8479H52.353V45.7931H54.3191V43.8479Z" fill="#544B56"/>
<path d="M54.3191 41.8818H52.353V43.8479H54.3191V41.8818Z" fill="black"/>
<path d="M54.3191 39.9367H52.353V41.8818H54.3191V39.9367Z" fill="black"/>
<path d="M54.3191 37.9706H52.353V39.9367H54.3191V37.9706Z" fill="#544B56"/>
<path d="M54.3191 36.0071H52.353V37.9732H54.3191V36.0071Z" fill="#544B56"/>
<path d="M54.3191 34.0619H52.353V36.0071H54.3191V34.0619Z" fill="black"/>
<path d="M54.3191 32.0958H52.353V34.0619H54.3191V32.0958Z" fill="#544B56"/>
<path d="M54.3191 30.1507H52.353V32.0958H54.3191V30.1507Z" fill="#544B56"/>
<path d="M54.3191 28.1846H52.353V30.1507H54.3191V28.1846Z" fill="black"/>
<path d="M54.3191 26.2394H52.353V28.1846H54.3191V26.2394Z" fill="black"/>
<path d="M52.353 75.1537H50.3869V77.0988H52.353V75.1537Z" fill="#9087B5"/>
<path d="M52.353 73.1902H50.3869V75.1563H52.353V73.1902Z" fill="#544B56"/>
<path d="M52.353 71.2451H50.3869V73.1902H52.353V71.2451Z" fill="#544B56"/>
<path d="M52.353 69.2789H50.3869V71.2451H52.353V69.2789Z" fill="#544B56"/>
<path d="M52.353 67.3154H50.3869V69.2789H52.353V67.3154Z" fill="#544B56"/>
<path d="M52.353 65.3677H50.3869V67.3128H52.353V65.3677Z" fill="black"/>
<path d="M52.353 63.4016H50.3869V65.3677H52.353V63.4016Z" fill="#9087B5"/>
<path d="M52.353 61.4564H50.3869V63.4016H52.353V61.4564Z" fill="#9087B5"/>
<path d="M52.353 59.4903H50.3869V61.4564H52.353V59.4903Z" fill="black"/>
<path d="M52.353 57.5452H50.3869V59.4903H52.353V57.5452Z" fill="black"/>
<path d="M52.353 55.5817H50.3869V57.5478H52.353V55.5817Z" fill="black"/>
<path d="M52.353 53.6366H50.3869V55.5817H52.353V53.6366Z" fill="#544B56"/>
<path d="M52.353 51.6704H50.3869V53.6366H52.353V51.6704Z" fill="#544B56"/>
<path d="M52.353 49.7043H50.3869V51.6704H52.353V49.7043Z" fill="black"/>
<path d="M52.353 47.7592H50.3869V49.7043H52.353V47.7592Z" fill="black"/>
<path d="M52.353 45.7931H50.3869V47.7592H52.353V45.7931Z" fill="#544B56"/>
<path d="M52.353 43.8479H50.3869V45.7931H52.353V43.8479Z" fill="#9087B5"/>
<path d="M52.353 41.8818H50.3869V43.8479H52.353V41.8818Z" fill="black"/>
<path d="M52.353 37.9706H50.3869V39.9367H52.353V37.9706Z" fill="black"/>
<path d="M52.353 36.0071H50.3869V37.9732H52.353V36.0071Z" fill="black"/>
<path d="M52.353 34.0619H50.3869V36.0071H52.353V34.0619Z" fill="black"/>
<path d="M52.353 32.0958H50.3869V34.0619H52.353V32.0958Z" fill="#9087B5"/>
<path d="M52.353 30.1507H50.3869V32.0958H52.353V30.1507Z" fill="#9087B5"/>
<path d="M52.353 28.1846H50.3869V30.1507H52.353V28.1846Z" fill="black"/>
<path d="M50.3869 81.0127L48.4417 81.0127V82.9762L50.3869 82.9762V81.0127Z" fill="black"/>
<path d="M50.3869 79.0649L48.4417 79.0649V81.0127L50.3869 81.0127V79.0649Z" fill="black"/>
<path d="M50.3869 73.1902H48.4417V75.1563H50.3869V73.1902Z" fill="#544B56"/>
<path d="M50.3869 71.2451H48.4417V73.1902H50.3869V71.2451Z" fill="#544B56"/>
<path d="M50.3869 69.2789H48.4417V71.2451H50.3869V69.2789Z" fill="#544B56"/>
<path d="M50.3869 67.3154H48.4417V69.2789H50.3869V67.3154Z" fill="black"/>
<path d="M50.3869 65.3677H48.4417V67.3128H50.3869V65.3677Z" fill="#9087B5"/>
<path d="M50.3869 63.4016H48.4417V65.3677H50.3869V63.4016Z" fill="#9087B5"/>
<path d="M50.3869 61.4564H48.4417V63.4016H50.3869V61.4564Z" fill="#544B56"/>
<path d="M50.3869 59.4903L48.4417 59.4903V61.4564H50.3869V59.4903Z" fill="black"/>
<path d="M50.3869 57.5452H48.4417V59.4903L50.3869 59.4903V57.5452Z" fill="black"/>
<path d="M50.3869 55.5817H48.4417V57.5478H50.3869V55.5817Z" fill="black"/>
<path d="M50.3869 53.6366H48.4417V55.5817H50.3869V53.6366Z" fill="black"/>
<path d="M50.3869 51.6704H48.4417V53.6366H50.3869V51.6704Z" fill="black"/>
<path d="M50.3869 49.7043H48.4417V51.6704H50.3869V49.7043Z" fill="#544B56"/>
<path d="M50.3869 47.7592H48.4417V49.7043H50.3869V47.7592Z" fill="#544B56"/>
<path d="M50.3869 45.7931H48.4417V47.7592H50.3869V45.7931Z" fill="#9087B5"/>
<path d="M50.3869 43.8479H48.4417V45.7931H50.3869V43.8479Z" fill="#9087B5"/>
<path d="M50.3869 41.8818H48.4417V43.8479H50.3869V41.8818Z" fill="black"/>
<path d="M50.3869 34.0619H48.4417V36.0071H50.3869V34.0619Z" fill="black"/>
<path d="M50.3869 32.0958H48.4417V34.0619H50.3869V32.0958Z" fill="black"/>
<path d="M50.3869 30.1507H48.4417V32.0958H50.3869V30.1507Z" fill="black"/>
<path d="M48.4417 81.0127H46.4756V82.9762H48.4417V81.0127Z" fill="black"/>
<path d="M48.4417 77.1014H46.4756V79.0649H48.4417V77.1014Z" fill="black"/>
<path d="M48.4417 75.1537H46.4756V77.0988H48.4417V75.1537Z" fill="#9087B5"/>
<path d="M48.4417 73.1902H46.4756V75.1563H48.4417V73.1902Z" fill="black"/>
<path d="M48.4417 71.2451H46.4756V73.1902H48.4417V71.2451Z" fill="black"/>
<path d="M48.4417 69.2789H46.4756V71.2451H48.4417V69.2789Z" fill="black"/>
<path d="M48.4417 67.3154H46.4756V69.2789H48.4417V67.3154Z" fill="black"/>
<path d="M48.4417 65.3677H46.4756V67.3128H48.4417V65.3677Z" fill="black"/>
<path d="M48.4417 63.4016H46.4756V65.3677H48.4417V63.4016Z" fill="black"/>
<path d="M48.4417 61.4564H46.4756V63.4016H48.4417V61.4564Z" fill="black"/>
<path d="M48.4417 59.4903H46.4756V61.4564H48.4417V59.4903Z" fill="black"/>
<path d="M48.4417 51.6704H46.4756V53.6366H48.4417V51.6704Z" fill="black"/>
<path d="M48.4417 49.7043H46.4756V51.6704H48.4417V49.7043Z" fill="#544B56"/>
<path d="M48.4417 47.7592H46.4756V49.7043H48.4417V47.7592Z" fill="#9087B5"/>
<path d="M48.4417 45.7931H46.4756V47.7592H48.4417V45.7931Z" fill="#9087B5"/>
<path d="M48.4417 43.8479H46.4756V45.7931H48.4417V43.8479Z" fill="black"/>
<path d="M46.4756 82.9762H44.5305V84.9423H46.4756V82.9762Z" fill="black"/>
<path d="M46.4756 75.1537H44.5305V77.0988H46.4756V75.1537Z" fill="black"/>
<path d="M46.4756 59.4903H44.5305V61.4564L46.4756 61.4564V59.4903Z" fill="black"/>
<path d="M46.4756 51.6704H44.5305V53.6366H46.4756V51.6704Z" fill="black"/>
<path d="M46.4756 49.7043H44.5305V51.6704H46.4756V49.7043Z" fill="black"/>
<path d="M46.4756 47.7592H44.5305V49.7043H46.4756V47.7592Z" fill="black"/>
<path d="M46.4756 45.7931H44.5305V47.7592H46.4756V45.7931Z" fill="black"/>
<path d="M44.5305 61.4564H42.5644V63.4016H44.5305V61.4564Z" fill="black"/>
<path d="M44.5305 51.6704H42.5644V53.6366H44.5305V51.6704Z" fill="black"/>
<path d="M42.5644 59.4903H40.6192V61.4564H42.5644V59.4903Z" fill="black"/>
<path d="M42.5644 53.6366H40.6192V55.5817H42.5644V53.6366Z" fill="black"/>
<path d="M40.6192 65.3677H38.6531V67.3128H40.6192V65.3677Z" fill="black"/>
<path d="M40.6192 63.4016H38.6531V65.3677H40.6192V63.4016Z" fill="black"/>
<path d="M40.6192 61.4564L38.6531 61.4564V63.4016H40.6192V61.4564Z" fill="black"/>
<path d="M40.6192 59.4903H38.6531V61.4564L40.6192 61.4564V59.4903Z" fill="black"/>
<path d="M40.6192 53.6366H38.6531V55.5817H40.6192V53.6366Z" fill="black"/>
<path d="M40.6192 51.6704H38.6531V53.6366H40.6192V51.6704Z" fill="black"/>
<path d="M40.6192 49.7043H38.6531V51.6704H40.6192V49.7043Z" fill="black"/>
<path d="M38.6557 65.3677H36.6896V67.3128H38.6557V65.3677Z" fill="black"/>
<path d="M38.6557 59.4903H36.6896V61.4564H38.6557V59.4903Z" fill="black"/>
<path d="M38.6557 51.6704H36.6896V53.6366H38.6557V51.6704Z" fill="#9087B5"/>
<path d="M38.6557 49.7043H36.6896V51.6704H38.6557V49.7043Z" fill="#E7DACE"/>
<path d="M38.6557 47.7592H36.6896V49.7043H38.6557V47.7592Z" fill="black"/>
<path d="M36.6896 65.3677H34.7445V67.3128H36.6896V65.3677Z" fill="black"/>
<path d="M36.6896 63.4016H34.7445V65.3677H36.6896V63.4016Z" fill="black"/>
<path d="M36.6896 61.4564H34.7445V63.4016H36.6896V61.4564Z" fill="black"/>
<path d="M36.6896 59.4903H34.7445V61.4564H36.6896V59.4903Z" fill="black"/>
<path d="M36.6896 51.6704H34.7445V53.6366H36.6896V51.6704Z" fill="#9087B5"/>
<path d="M36.6896 47.7592H34.7445V49.7043H36.6896V47.7592Z" fill="black"/>
<path d="M36.6896 45.7931H34.7445V47.7592H36.6896V45.7931Z" fill="black"/>
<path d="M36.6896 43.8479H34.7445V45.7931H36.6896V43.8479Z" fill="black"/>
<path d="M34.7445 59.4903L32.7784 59.4903V61.4564L34.7445 61.4564V59.4903Z" fill="black"/>
<path d="M34.7445 57.5452H32.7784V59.4903L34.7445 59.4903V57.5452Z" fill="black"/>
<path d="M34.7445 55.5817H32.7784V57.5478H34.7445V55.5817Z" fill="black"/>
<path d="M34.7445 53.6366H32.7784V55.5817H34.7445V53.6366Z" fill="#9087B5"/>
<path d="M34.7445 51.6704H32.7784V53.6366H34.7445V51.6704Z" fill="#544B56"/>
<path d="M34.7445 49.7043H32.7784V51.6704H34.7445V49.7043Z" fill="#E7DACE"/>
<path d="M34.7445 47.7592H32.7784V49.7043H34.7445V47.7592Z" fill="#E7DACE"/>
<path d="M34.7445 45.7931H32.7784V47.7592H34.7445V45.7931Z" fill="#E7DACE"/>
<path d="M34.7445 43.8479H32.7784V45.7931H34.7445V43.8479Z" fill="#E7DACE"/>
<path d="M34.7445 41.8818H32.7784V43.8479H34.7445V41.8818Z" fill="black"/>
<path d="M34.7445 39.9367H32.7784V41.8818H34.7445V39.9367Z" fill="black"/>
<path d="M34.7445 37.9706H32.7784V39.9367H34.7445V37.9706Z" fill="black"/>
<path d="M32.7784 55.5817H30.8332V57.5478H32.7784V55.5817Z" fill="black"/>
<path d="M32.7784 53.6366H30.8332V55.5817H32.7784V53.6366Z" fill="#9087B5"/>
<path d="M32.7784 51.6704H30.8332V53.6366H32.7784V51.6704Z" fill="#544B56"/>
<path d="M32.7784 49.7043H30.8332V51.6704H32.7784V49.7043Z" fill="#E7DACE"/>
<path d="M32.7784 47.7592H30.8332V49.7043H32.7784V47.7592Z" fill="#E7DACE"/>
<path d="M32.7784 45.7931H30.8332V47.7592H32.7784V45.7931Z" fill="#E7DACE"/>
<path d="M32.7784 43.8479H30.8332V45.7931H32.7784V43.8479Z" fill="#E7DACE"/>
<path d="M32.7784 41.8818H30.8332V43.8479H32.7784V41.8818Z" fill="#E7DACE"/>
<path d="M32.7784 39.9367H30.8332V41.8818H32.7784V39.9367Z" fill="#E7DACE"/>
<path d="M32.7784 37.9706H30.8332V39.9367H32.7784V37.9706Z" fill="#E7DACE"/>
<path d="M32.7784 36.0071H30.8332V37.9732H32.7784V36.0071Z" fill="black"/>
<path d="M32.7784 34.0619H30.8332V36.0071H32.7784V34.0619Z" fill="black"/>
<path d="M32.7784 32.0958H30.8332V34.0619H32.7784V32.0958Z" fill="black"/>
<path d="M30.8332 55.5817H28.8671V57.5478H30.8332V55.5817Z" fill="black"/>
<path d="M30.8332 53.6366H28.8671V55.5817H30.8332V53.6366Z" fill="#E7DACE"/>
<path d="M30.8332 51.6704H28.8671V53.6366H30.8332V51.6704Z" fill="black"/>
<path d="M30.8332 49.7043H28.8671V51.6704H30.8332V49.7043Z" fill="black"/>
<path d="M30.8332 47.7592H28.8671V49.7043H30.8332V47.7592Z" fill="black"/>
<path d="M30.8332 45.7931H28.8671V47.7592H30.8332V45.7931Z" fill="black"/>
<path d="M30.8332 43.8479H28.8671V45.7931H30.8332V43.8479Z" fill="#E7DACE"/>
<path d="M30.8332 41.8818H28.8671V43.8479H30.8332V41.8818Z" fill="#E7DACE"/>
<path d="M30.8332 39.9367H28.8671V41.8818H30.8332V39.9367Z" fill="#E7DACE"/>
<path d="M30.8332 37.9706H28.8671V39.9367H30.8332V37.9706Z" fill="#E7DACE"/>
<path d="M30.8332 36.0071H28.8671V37.9732H30.8332V36.0071Z" fill="#E7DACE"/>
<path d="M30.8332 34.0619H28.8671V36.0071H30.8332V34.0619Z" fill="#E7DACE"/>
<path d="M30.8332 32.0958H28.8671V34.0619H30.8332V32.0958Z" fill="#E7DACE"/>
<path d="M30.8332 30.1507H28.8671V32.0958H30.8332V30.1507Z" fill="black"/>
<path d="M30.8332 28.1846H28.8671V30.1507H30.8332V28.1846Z" fill="black"/>
<path d="M28.8671 53.6366H26.922V55.5817H28.8671V53.6366Z" fill="black"/>
<path d="M28.8671 43.8479H26.922V45.7931H28.8671V43.8479Z" fill="black"/>
<path d="M28.8671 41.8818H26.922V43.8479H28.8671V41.8818Z" fill="black"/>
<path d="M28.8671 39.9367H26.922V41.8818H28.8671V39.9367Z" fill="black"/>
<path d="M28.8671 37.9706H26.922V39.9367H28.8671V37.9706Z" fill="#E7DACE"/>
<path d="M28.8671 36.0071H26.922V37.9732H28.8671V36.0071Z" fill="#E7DACE"/>
<path d="M28.8671 34.0619H26.922V36.0071H28.8671V34.0619Z" fill="#E7DACE"/>
<path d="M28.8671 32.0958H26.922V34.0619H28.8671V32.0958Z" fill="#E7DACE"/>
<path d="M28.8671 30.1507H26.922V32.0958H28.8671V30.1507Z" fill="#E7DACE"/>
<path d="M28.8671 28.1846H26.922V30.1507H28.8671V28.1846Z" fill="#E7DACE"/>
<path d="M28.8671 26.2394H26.922V28.1846H28.8671V26.2394Z" fill="black"/>
<path d="M26.922 37.9706H24.9559V39.9367H26.922V37.9706Z" fill="black"/>
<path d="M26.922 36.0071H24.9559V37.9732H26.922V36.0071Z" fill="black"/>
<path d="M26.922 34.0619H24.9559V36.0071H26.922V34.0619Z" fill="black"/>
<path d="M26.922 32.0958H24.9559V34.0619H26.922V32.0958Z" fill="#E7DACE"/>
<path d="M26.922 30.1507H24.9559V32.0958H26.922V30.1507Z" fill="#E7DACE"/>
<path d="M26.922 28.1846H24.9559V30.1507H26.922V28.1846Z" fill="#E7DACE"/>
<path d="M26.922 26.2394H24.9559V28.1846H26.922V26.2394Z" fill="black"/>
<path d="M24.9559 32.0958H23.0107V34.0619H24.9559V32.0958Z" fill="black"/>
<path d="M24.9559 30.1507H23.0107V32.0958H24.9559V30.1507Z" fill="black"/>
<path d="M24.9559 28.1846H23.0107V30.1507H24.9559V28.1846Z" fill="black"/>
</svg>
