<svg width="105" height="105" viewBox="0 0 105 105" fill="none" xmlns="http://www.w3.org/2000/svg">
<path d="M52.5005 4.73279C78.8815 4.73297 100.267 26.1194 100.267 52.5004C100.267 78.8812 78.8813 100.267 52.5005 100.267C26.1195 100.267 4.73309 78.8813 4.73291 52.5004C4.73291 26.1192 26.1194 4.73279 52.5005 4.73279Z" fill="#F9F7E7" stroke="#29100A" stroke-width="2"/>
<path d="M74.9068 35.0908H73.0851V36.931H74.9068V35.0908Z" fill="black"/>
<path d="M74.9068 33.2691H73.0851V35.0908H74.9068V33.2691Z" fill="black"/>
<path d="M73.0851 35.0908H71.2449V36.931H73.0851V35.0908Z" fill="black"/>
<path d="M73.0851 33.2691H71.2449V35.0908H73.0851V33.2691Z" fill="#0404BF"/>
<path d="M73.0851 31.429H71.2449V33.2691H73.0851V31.429Z" fill="black"/>
<path d="M71.2423 35.0908H69.4048V36.931H71.2423V35.0908Z" fill="black"/>
<path d="M71.2423 33.2691H69.4048V35.0908H71.2423V33.2691Z" fill="#0404BF"/>
<path d="M71.2423 31.429H69.4048V33.2691H71.2423V31.429Z" fill="black"/>
<path d="M69.4048 82.7346H67.5831V84.559H69.4048V82.7346Z" fill="black"/>
<path d="M69.4048 80.8971H67.5831V82.7346H69.4048V80.8971Z" fill="black"/>
<path d="M69.4048 79.0753H67.5831V80.8971H69.4048V79.0753Z" fill="black"/>
<path d="M69.4048 77.2326H67.5831V79.0727H69.4048V77.2326Z" fill="black"/>
<path d="M69.4048 75.4108H67.5831V77.2326H69.4048V75.4108Z" fill="black"/>
<path d="M69.4048 62.5851H67.5831V64.4068H69.4048V62.5851Z" fill="black"/>
<path d="M69.4048 60.745H67.5831V62.5851H69.4048V60.745Z" fill="black"/>
<path d="M69.4048 58.9048H67.5831V60.7423H69.4048V58.9048Z" fill="black"/>
<path d="M69.4048 57.0831H67.5831V58.9048H69.4048V57.0831Z" fill="black"/>
<path d="M69.4048 55.243H67.5831V57.0831H69.4048V55.243Z" fill="black"/>
<path d="M69.4048 53.4212H67.5831V55.243H69.4048V53.4212Z" fill="black"/>
<path d="M69.4048 51.5785H67.5831V53.4186H69.4048V51.5785Z" fill="black"/>
<path d="M69.4048 49.7567H67.5831V51.5785H69.4048V49.7567Z" fill="black"/>
<path d="M69.4048 47.9166H67.5831V49.7567H69.4048V47.9166Z" fill="black"/>
<path d="M69.4048 46.0948H67.5831V47.9166H69.4048V46.0948Z" fill="black"/>
<path d="M69.4048 44.2547H67.5831V46.0948H69.4048V44.2547Z" fill="black"/>
<path d="M69.4048 35.0908H67.5831V36.931H69.4048V35.0908Z" fill="black"/>
<path d="M69.4048 33.2691H67.5831V35.0908H69.4048V33.2691Z" fill="#0404BF"/>
<path d="M69.4048 31.429H67.5831V33.2691H69.4048V31.429Z" fill="#0404BF"/>
<path d="M69.4048 29.5888H67.5831V31.429H69.4048V29.5888Z" fill="black"/>
<path d="M67.5831 82.7346H65.7429V84.559H67.5831V82.7346Z" fill="#030384"/>
<path d="M67.5831 80.8971H65.7429V82.7346H67.5831V80.8971Z" fill="#030384"/>
<path d="M67.5831 79.0753H65.7429V80.8971H67.5831V79.0753Z" fill="#030384"/>
<path d="M67.5831 77.2326H65.7429V79.0727H67.5831V77.2326Z" fill="#030384"/>
<path d="M67.5831 75.4108H65.7429V77.2326H67.5831V75.4108Z" fill="#030384"/>
<path d="M67.5831 73.5707H65.7429V75.4108H67.5831V73.5707Z" fill="black"/>
<path d="M67.5831 71.7332H65.7429V73.5707H67.5831V71.7332Z" fill="black"/>
<path d="M67.5831 69.9062H65.7429V71.7306H67.5831V69.9062Z" fill="black"/>
<path d="M67.5831 68.0713H65.7429V69.9088H67.5831V68.0713Z" fill="black"/>
<path d="M67.5831 66.247H65.7429V68.0687H67.5831V66.247Z" fill="black"/>
<path d="M67.5831 64.4068H65.7429V66.247H67.5831V64.4068Z" fill="black"/>
<path d="M67.5831 62.5851H65.7429V64.4068H67.5831V62.5851Z" fill="#E5A070"/>
<path d="M67.5831 60.745H65.7429V62.5851H67.5831V60.745Z" fill="#0404BF"/>
<path d="M67.5831 58.9048H65.7429V60.7423H67.5831V58.9048Z" fill="#0404BF"/>
<path d="M67.5831 57.0831H65.7429V58.9048H67.5831V57.0831Z" fill="#0404BF"/>
<path d="M67.5831 55.243H65.7429V57.0831H67.5831V55.243Z" fill="#0404BF"/>
<path d="M67.5831 53.4212H65.7429V55.243H67.5831V53.4212Z" fill="#0404BF"/>
<path d="M67.5831 51.5785H65.7429V53.4186H67.5831V51.5785Z" fill="#0404BF"/>
<path d="M67.5831 49.7567H65.7429V51.5785H67.5831V49.7567Z" fill="#0404BF"/>
<path d="M67.5831 47.9166H65.7429V49.7567H67.5831V47.9166Z" fill="#0404BF"/>
<path d="M67.5831 46.0948H65.7429V47.9166H67.5831V46.0948Z" fill="#0404BF"/>
<path d="M67.5831 44.2547H65.7429V46.0948H67.5831V44.2547Z" fill="#0404BF"/>
<path d="M67.5831 42.4146H65.7429V44.2547H67.5831V42.4146Z" fill="black"/>
<path d="M67.5831 38.7527H65.7429V40.5928H67.5831V38.7527Z" fill="black"/>
<path d="M67.5831 36.931H65.7429V38.7527H67.5831V36.931Z" fill="black"/>
<path d="M67.5831 35.0908H65.7429V36.931H67.5831V35.0908Z" fill="black"/>
<path d="M67.5831 33.2691H65.7429V35.0908H67.5831V33.2691Z" fill="#0404BF"/>
<path d="M67.5831 31.429H65.7429V33.2691H67.5831V31.429Z" fill="#0404BF"/>
<path d="M67.5831 29.5888H65.7429V31.429H67.5831V29.5888Z" fill="#030384"/>
<path d="M67.5831 27.7671H65.7429V29.5888H67.5831V27.7671Z" fill="black"/>
<path d="M67.5831 25.9243H65.7429V27.7645H67.5831V25.9243Z" fill="black"/>
<path d="M67.5831 24.1026H65.7429V25.9243H67.5831V24.1026Z" fill="black"/>
<path d="M67.5831 22.2625H65.7429V24.1026H67.5831V22.2625Z" fill="black"/>
<path d="M65.7429 82.7346H63.9212V84.559H65.7429V82.7346Z" fill="#030384"/>
<path d="M65.7429 80.8971H63.9212V82.7346H65.7429V80.8971Z" fill="#030384"/>
<path d="M65.7429 79.0753H63.9212V80.8971H65.7429V79.0753Z" fill="#030384"/>
<path d="M65.7429 77.2326H63.9212V79.0727H65.7429V77.2326Z" fill="#030384"/>
<path d="M65.7429 75.4108H63.9212V77.2326H65.7429V75.4108Z" fill="#030384"/>
<path d="M65.7429 73.5707H63.9212V75.4108H65.7429V73.5707Z" fill="#030384"/>
<path d="M65.7429 71.7332H63.9212V73.5707H65.7429V71.7332Z" fill="#030384"/>
<path d="M65.7429 69.9062H63.9212V71.7306H65.7429V69.9062Z" fill="#030384"/>
<path d="M65.7429 68.0713H63.9212V69.9088H65.7429V68.0713Z" fill="#030384"/>
<path d="M65.7429 66.247H63.9212V68.0687H65.7429V66.247Z" fill="#030384"/>
<path d="M65.7429 64.4068H63.9212V66.247H65.7429V64.4068Z" fill="#0707A5"/>
<path d="M65.7429 62.5851H63.9212V64.4068H65.7429V62.5851Z" fill="#EDB58C"/>
<path d="M65.7429 60.745H63.9212V62.5851H65.7429V60.745Z" fill="#0404BF"/>
<path d="M65.7429 58.9048H63.9212V60.7423H65.7429V58.9048Z" fill="#0404BF"/>
<path d="M65.7429 57.0831H63.9212V58.9048H65.7429V57.0831Z" fill="#0404BF"/>
<path d="M65.7429 55.243H63.9212V57.0831H65.7429V55.243Z" fill="#0404BF"/>
<path d="M65.7429 53.4212H63.9212V55.243H65.7429V53.4212Z" fill="#0404BF"/>
<path d="M65.7429 51.5785H63.9212V53.4186H65.7429V51.5785Z" fill="#0404BF"/>
<path d="M65.7429 49.7567H63.9212V51.5785H65.7429V49.7567Z" fill="#0404BF"/>
<path d="M65.7429 47.9166H63.9212V49.7567H65.7429V47.9166Z" fill="#0404BF"/>
<path d="M65.7429 46.0948H63.9212V47.9166H65.7429V46.0948Z" fill="#0404BF"/>
<path d="M65.7429 44.2547H63.9212V46.0948H65.7429V44.2547Z" fill="#0404BF"/>
<path d="M65.7429 42.4146H63.9212V44.2547H65.7429V42.4146Z" fill="black"/>
<path d="M65.7429 40.5928H63.9212V42.4146H65.7429V40.5928Z" fill="black"/>
<path d="M65.7429 38.7527H63.9212V40.5928H65.7429V38.7527Z" fill="#D8D7D6"/>
<path d="M65.7429 36.931H63.9212V38.7527H65.7429V36.931Z" fill="#9E9B98"/>
<path d="M65.7429 35.0908H63.9212V36.931H65.7429V35.0908Z" fill="black"/>
<path d="M65.7429 33.2691H63.9212V35.0908H65.7429V33.2691Z" fill="#030384"/>
<path d="M65.7429 31.429H63.9212V33.2691H65.7429V31.429Z" fill="#0404BF"/>
<path d="M65.7429 29.5888H63.9212V31.429H65.7429V29.5888Z" fill="#030384"/>
<path d="M65.7429 27.7671H63.9212V29.5888H65.7429V27.7671Z" fill="black"/>
<path d="M65.7429 25.9243H63.9212V27.7645H65.7429V25.9243Z" fill="#030384"/>
<path d="M65.7429 24.1026H63.9212V25.9243H65.7429V24.1026Z" fill="#030384"/>
<path d="M65.7429 22.2625H63.9212V24.1026H65.7429V22.2625Z" fill="#030384"/>
<path d="M65.7429 20.4407H63.9212V22.2625H65.7429V20.4407Z" fill="black"/>
<path d="M63.9186 82.7346H62.0784V84.559H63.9186V82.7346Z" fill="#0404BF"/>
<path d="M63.9186 80.8971H62.0784V82.7346H63.9186V80.8971Z" fill="#0404BF"/>
<path d="M63.9186 79.0753H62.0784V80.8971H63.9186V79.0753Z" fill="#0404BF"/>
<path d="M63.9186 77.2326H62.0784V79.0727H63.9186V77.2326Z" fill="#0404BF"/>
<path d="M63.9186 75.4108H62.0784V77.2326H63.9186V75.4108Z" fill="#0404BF"/>
<path d="M63.9186 73.5707H62.0784V75.4108H63.9186V73.5707Z" fill="#0404BF"/>
<path d="M63.9186 71.7332H62.0784V73.5707H63.9186V71.7332Z" fill="#0404BF"/>
<path d="M63.9186 69.9062H62.0784V71.7306H63.9186V69.9062Z" fill="#0404BF"/>
<path d="M63.9186 68.0713H62.0784V69.9088H63.9186V68.0713Z" fill="#0404BF"/>
<path d="M63.9186 66.247H62.0784V68.0687H63.9186V66.247Z" fill="#030384"/>
<path d="M63.9186 64.4068H62.0784V66.247H63.9186V64.4068Z" fill="#0707A5"/>
<path d="M63.9186 62.5851H62.0784V64.4068H63.9186V62.5851Z" fill="#EDB58C"/>
<path d="M63.9186 60.745H62.0784V62.5851H63.9186V60.745Z" fill="#0404BF"/>
<path d="M63.9186 58.9048H62.0784V60.7423H63.9186V58.9048Z" fill="#0404BF"/>
<path d="M63.9186 57.0831H62.0784V58.9048H63.9186V57.0831Z" fill="#0404BF"/>
<path d="M63.9186 55.243H62.0784V57.0831H63.9186V55.243Z" fill="#0404BF"/>
<path d="M63.9186 53.4212H62.0784V55.243H63.9186V53.4212Z" fill="#0404BF"/>
<path d="M63.9186 51.5785H62.0784V53.4186H63.9186V51.5785Z" fill="#0404BF"/>
<path d="M63.9186 49.7567H62.0784V51.5785H63.9186V49.7567Z" fill="#0404BF"/>
<path d="M63.9186 47.9166H62.0784V49.7567H63.9186V47.9166Z" fill="#0404BF"/>
<path d="M63.9186 46.0948H62.0784V47.9166H63.9186V46.0948Z" fill="#0404BF"/>
<path d="M63.9186 44.2547H62.0784V46.0948H63.9186V44.2547Z" fill="#030384"/>
<path d="M63.9186 42.4146H62.0784V44.2547H63.9186V42.4146Z" fill="black"/>
<path d="M63.9186 40.5928H62.0784V42.4146H63.9186V40.5928Z" fill="#D8D7D6"/>
<path d="M63.9186 38.7527H62.0784V40.5928H63.9186V38.7527Z" fill="#D8D7D6"/>
<path d="M63.9186 36.931H62.0784V38.7527H63.9186V36.931Z" fill="#D8D7D6"/>
<path d="M63.9186 35.0908H62.0784V36.931H63.9186V35.0908Z" fill="black"/>
<path d="M63.9186 33.2691H62.0784V35.0908H63.9186V33.2691Z" fill="#030384"/>
<path d="M63.9186 31.429H62.0784V33.2691H63.9186V31.429Z" fill="#0404BF"/>
<path d="M63.9186 29.5888H62.0784V31.429H63.9186V29.5888Z" fill="#0404BF"/>
<path d="M63.9186 27.7671H62.0784V29.5888H63.9186V27.7671Z" fill="#030384"/>
<path d="M63.9186 25.9243H62.0784V27.7645H63.9186V25.9243Z" fill="#030384"/>
<path d="M63.9186 24.1026H62.0784V25.9243H63.9186V24.1026Z" fill="#030384"/>
<path d="M63.9186 22.2625H62.0784V24.1026H63.9186V22.2625Z" fill="#030384"/>
<path d="M63.9186 20.4407H62.0784V22.2625H63.9186V20.4407Z" fill="#030384"/>
<path d="M63.9186 18.6006H62.0784V20.4407H63.9186V18.6006Z" fill="black"/>
<path d="M62.0784 82.7346H60.2567V84.559H62.0784V82.7346Z" fill="#0404BF"/>
<path d="M62.0784 80.8971H60.2567V82.7346H62.0784V80.8971Z" fill="#0404BF"/>
<path d="M62.0784 79.0753H60.2567V80.8971H62.0784V79.0753Z" fill="#0404BF"/>
<path d="M62.0784 77.2326H60.2567V79.0727H62.0784V77.2326Z" fill="#0404BF"/>
<path d="M62.0784 75.4108H60.2567V77.2326H62.0784V75.4108Z" fill="#0404BF"/>
<path d="M62.0784 73.5707H60.2567V75.4108H62.0784V73.5707Z" fill="#0404BF"/>
<path d="M62.0784 71.7332H60.2567V73.5707H62.0784V71.7332Z" fill="#0404BF"/>
<path d="M62.0784 69.9062H60.2567V71.7306H62.0784V69.9062Z" fill="#0404BF"/>
<path d="M62.0784 68.0713H60.2567V69.9088H62.0784V68.0713Z" fill="#0404BF"/>
<path d="M62.0784 66.247H60.2567V68.0687H62.0784V66.247Z" fill="#0404BF"/>
<path d="M62.0784 64.4068H60.2567V66.247H62.0784V64.4068Z" fill="#030384"/>
<path d="M62.0784 62.5851H60.2567V64.4068H62.0784V62.5851Z" fill="#0707A5"/>
<path d="M62.0784 60.745H60.2567V62.5851H62.0784V60.745Z" fill="black"/>
<path d="M62.0784 58.9048H60.2567V60.7423H62.0784V58.9048Z" fill="black"/>
<path d="M62.0784 57.0831H60.2567V58.9048H62.0784V57.0831Z" fill="black"/>
<path d="M62.0784 55.243H60.2567V57.0831H62.0784V55.243Z" fill="black"/>
<path d="M62.0784 53.4212H60.2567V55.243H62.0784V53.4212Z" fill="black"/>
<path d="M62.0784 51.5785H60.2567V53.4186H62.0784V51.5785Z" fill="black"/>
<path d="M62.0784 49.7567H60.2567V51.5785H62.0784V49.7567Z" fill="#0404BF"/>
<path d="M62.0784 47.9166H60.2567V49.7567H62.0784V47.9166Z" fill="#030384"/>
<path d="M62.0784 46.0948H60.2567V47.9166H62.0784V46.0948Z" fill="#030384"/>
<path d="M62.0784 44.2547H60.2567V46.0948H62.0784V44.2547Z" fill="black"/>
<path d="M62.0784 42.4146H60.2567V44.2547H62.0784V42.4146Z" fill="#9E9B98"/>
<path d="M62.0784 40.5928H60.2567V42.4146H62.0784V40.5928Z" fill="#9E9B98"/>
<path d="M62.0784 38.7527H60.2567V40.5928H62.0784V38.7527Z" fill="#D8D7D6"/>
<path d="M62.0784 36.931H60.2567V38.7527H62.0784V36.931Z" fill="#9E9B98"/>
<path d="M62.0784 35.0908H60.2567V36.931H62.0784V35.0908Z" fill="#9E9B98"/>
<path d="M62.0784 33.2691H60.2567V35.0908H62.0784V33.2691Z" fill="black"/>
<path d="M62.0784 31.429H60.2567V33.2691H62.0784V31.429Z" fill="#0404BF"/>
<path d="M62.0784 29.5888H60.2567V31.429H62.0784V29.5888Z" fill="#0404BF"/>
<path d="M62.0784 27.7671H60.2567V29.5888H62.0784V27.7671Z" fill="#030384"/>
<path d="M62.0784 25.9243H60.2567V27.7645H62.0784V25.9243Z" fill="#030384"/>
<path d="M62.0784 24.1026H60.2567V25.9243H62.0784V24.1026Z" fill="#030384"/>
<path d="M62.0784 22.2625H60.2567V24.1026H62.0784V22.2625Z" fill="#030384"/>
<path d="M62.0784 20.4407H60.2567V22.2625H62.0784V20.4407Z" fill="#030384"/>
<path d="M62.0784 18.6006H60.2567V20.4407H62.0784V18.6006Z" fill="black"/>
<path d="M60.2567 82.7346H58.4166V84.559H60.2567V82.7346Z" fill="#0404BF"/>
<path d="M60.2567 80.8971H58.4166V82.7346H60.2567V80.8971Z" fill="#0404BF"/>
<path d="M60.2567 79.0753H58.4166V80.8971H60.2567V79.0753Z" fill="#0404BF"/>
<path d="M60.2567 77.2326H58.4166V79.0727H60.2567V77.2326Z" fill="#0404BF"/>
<path d="M60.2567 75.4108H58.4166V77.2326H60.2567V75.4108Z" fill="#0404BF"/>
<path d="M60.2567 73.5707H58.4166V75.4108H60.2567V73.5707Z" fill="#0404BF"/>
<path d="M60.2567 71.7332H58.4166V73.5707H60.2567V71.7332Z" fill="#0404BF"/>
<path d="M60.2567 69.9062H58.4166V71.7306H60.2567V69.9062Z" fill="#0404BF"/>
<path d="M60.2567 68.0713H58.4166V69.9088H60.2567V68.0713Z" fill="#0404BF"/>
<path d="M60.2567 66.247H58.4166V68.0687H60.2567V66.247Z" fill="#0404BF"/>
<path d="M60.2567 64.4068H58.4166V66.247H60.2567V64.4068Z" fill="#0404BF"/>
<path d="M60.2567 62.5851H58.4166V64.4068H60.2567V62.5851Z" fill="#030384"/>
<path d="M60.2567 60.745H58.4166V62.5851H60.2567V60.745Z" fill="#D6B409"/>
<path d="M60.2567 58.9048H58.4166V60.7423H60.2567V58.9048Z" fill="#0404BF"/>
<path d="M60.2567 57.0831H58.4166V58.9048H60.2567V57.0831Z" fill="#0404BF"/>
<path d="M60.2567 55.243H58.4166V57.0831H60.2567V55.243Z" fill="#0404BF"/>
<path d="M60.2567 53.4212H58.4166V55.243H60.2567V53.4212Z" fill="#0404BF"/>
<path d="M60.2567 51.5785H58.4166V53.4186H60.2567V51.5785Z" fill="#0404BF"/>
<path d="M60.2567 49.7567H58.4166V51.5785H60.2567V49.7567Z" fill="#0404BF"/>
<path d="M60.2567 47.9166H58.4166V49.7567H60.2567V47.9166Z" fill="#030384"/>
<path d="M60.2567 46.0948H58.4166V47.9166H60.2567V46.0948Z" fill="black"/>
<path d="M60.2567 44.2547H58.4166V46.0948H60.2567V44.2547Z" fill="#D8D7D6"/>
<path d="M60.2567 42.4146H58.4166V44.2547H60.2567V42.4146Z" fill="#D8D7D6"/>
<path d="M60.2567 40.5928H58.4166V42.4146H60.2567V40.5928Z" fill="#D8D7D6"/>
<path d="M60.2567 38.7527H58.4166V40.5928H60.2567V38.7527Z" fill="#9E9B98"/>
<path d="M60.2567 36.931H58.4166V38.7527H60.2567V36.931Z" fill="#EFB589"/>
<path d="M60.2567 35.0908H58.4166V36.931H60.2567V35.0908Z" fill="#EFB589"/>
<path d="M60.2567 33.2691H58.4166V35.0908H60.2567V33.2691Z" fill="black"/>
<path d="M60.2567 31.429H58.4166V33.2691H60.2567V31.429Z" fill="#0404BF"/>
<path d="M60.2567 29.5888H58.4166V31.429H60.2567V29.5888Z" fill="#0404BF"/>
<path d="M60.2567 27.7671H58.4166V29.5888H60.2567V27.7671Z" fill="#0404BF"/>
<path d="M60.2567 25.9243H58.4166V27.7645H60.2567V25.9243Z" fill="#030384"/>
<path d="M60.2567 24.1026H58.4166V25.9243H60.2567V24.1026Z" fill="#030384"/>
<path d="M60.2567 22.2625H58.4166V24.1026H60.2567V22.2625Z" fill="#030384"/>
<path d="M60.2567 20.4407H58.4166V22.2625H60.2567V20.4407Z" fill="#030384"/>
<path d="M60.2567 18.6006H58.4166V20.4407H60.2567V18.6006Z" fill="black"/>
<path d="M58.4166 82.7346H56.5948V84.559H58.4166V82.7346Z" fill="#0404BF"/>
<path d="M58.4166 80.8971H56.5948V82.7346H58.4166V80.8971Z" fill="#0404BF"/>
<path d="M58.4166 79.0753H56.5948V80.8971H58.4166V79.0753Z" fill="#0404BF"/>
<path d="M58.4166 77.2326H56.5948V79.0727H58.4166V77.2326Z" fill="#0404BF"/>
<path d="M58.4166 75.4108H56.5948V77.2326H58.4166V75.4108Z" fill="#0404BF"/>
<path d="M58.4166 73.5707H56.5948V75.4108H58.4166V73.5707Z" fill="#0404BF"/>
<path d="M58.4166 71.7332H56.5948V73.5707H58.4166V71.7332Z" fill="#0404BF"/>
<path d="M58.4166 69.9062H56.5948V71.7306H58.4166V69.9062Z" fill="#0404BF"/>
<path d="M58.4166 68.0713H56.5948V69.9088H58.4166V68.0713Z" fill="#0404BF"/>
<path d="M58.4166 66.247H56.5948V68.0687H58.4166V66.247Z" fill="#0404BF"/>
<path d="M58.4166 64.4068H56.5948V66.247H58.4166V64.4068Z" fill="#0404BF"/>
<path d="M58.4166 62.5851H56.5948V64.4068H58.4166V62.5851Z" fill="#0404BF"/>
<path d="M58.4166 60.745H56.5948V62.5851H58.4166V60.745Z" fill="#F9C126"/>
<path d="M58.4166 58.9048H56.5948V60.7423H58.4166V58.9048Z" fill="#0404BF"/>
<path d="M58.4166 57.0831H56.5948V58.9048H58.4166V57.0831Z" fill="#0404BF"/>
<path d="M58.4166 55.243H56.5948V57.0831H58.4166V55.243Z" fill="#0404BF"/>
<path d="M58.4166 53.4212H56.5948V55.243H58.4166V53.4212Z" fill="#0404BF"/>
<path d="M58.4166 51.5785H56.5948V53.4186H58.4166V51.5785Z" fill="#0404BF"/>
<path d="M58.4166 49.7567H56.5948V51.5785H58.4166V49.7567Z" fill="black"/>
<path d="M58.4166 47.9166H56.5948V49.7567H58.4166V47.9166Z" fill="black"/>
<path d="M58.4166 46.0948H56.5948V47.9166H58.4166V46.0948Z" fill="#9E9B98"/>
<path d="M58.4166 44.2547H56.5948V46.0948H58.4166V44.2547Z" fill="#D8D7D6"/>
<path d="M58.4166 42.4146H56.5948V44.2547H58.4166V42.4146Z" fill="#D8D7D6"/>
<path d="M58.4166 40.5928H56.5948V42.4146H58.4166V40.5928Z" fill="#9E9B98"/>
<path d="M58.4166 38.7527H56.5948V40.5928H58.4166V38.7527Z" fill="#EFB589"/>
<path d="M58.4166 36.931H56.5948V38.7527H58.4166V36.931Z" fill="#EFB589"/>
<path d="M58.4166 35.0908H56.5948V36.931H58.4166V35.0908Z" fill="#EFB589"/>
<path d="M58.4166 33.2691H56.5948V35.0908H58.4166V33.2691Z" fill="black"/>
<path d="M58.4166 31.429H56.5948V33.2691H58.4166V31.429Z" fill="#0404BF"/>
<path d="M58.4166 29.5888H56.5948V31.429H58.4166V29.5888Z" fill="#0404BF"/>
<path d="M58.4166 27.7671H56.5948V29.5888H58.4166V27.7671Z" fill="#0404BF"/>
<path d="M58.4166 25.9243H56.5948V27.7645H58.4166V25.9243Z" fill="#030384"/>
<path d="M58.4166 24.1026H56.5948V25.9243H58.4166V24.1026Z" fill="#030384"/>
<path d="M58.4166 22.2625H56.5948V24.1026H58.4166V22.2625Z" fill="#030384"/>
<path d="M58.4166 20.4407H56.5948V22.2625H58.4166V20.4407Z" fill="black"/>
<path d="M56.5948 82.7346H54.7547V84.559H56.5948V82.7346Z" fill="#0404BF"/>
<path d="M56.5948 80.8971H54.7547V82.7346H56.5948V80.8971Z" fill="#0404BF"/>
<path d="M56.5948 79.0753H54.7547V80.8971H56.5948V79.0753Z" fill="#0404BF"/>
<path d="M56.5948 77.2326H54.7547V79.0727H56.5948V77.2326Z" fill="#0404BF"/>
<path d="M56.5948 75.4108H54.7547V77.2326H56.5948V75.4108Z" fill="#0404BF"/>
<path d="M56.5948 73.5707H54.7547V75.4108H56.5948V73.5707Z" fill="#0404BF"/>
<path d="M56.5948 71.7332H54.7547V73.5707H56.5948V71.7332Z" fill="#0404BF"/>
<path d="M56.5948 69.9062H54.7547V71.7306H56.5948V69.9062Z" fill="#0404BF"/>
<path d="M56.5948 68.0713H54.7547V69.9088H56.5948V68.0713Z" fill="#0404BF"/>
<path d="M56.5948 66.247H54.7547V68.0687H56.5948V66.247Z" fill="#0404BF"/>
<path d="M56.5948 64.4068H54.7547V66.247H56.5948V64.4068Z" fill="#0404BF"/>
<path d="M56.5948 62.5851H54.7547V64.4068H56.5948V62.5851Z" fill="#0404BF"/>
<path d="M56.5948 60.745H54.7547V62.5851H56.5948V60.745Z" fill="#F9C126"/>
<path d="M56.5948 58.9048H54.7547V60.7423H56.5948V58.9048Z" fill="#0404BF"/>
<path d="M56.5948 57.0831H54.7547V58.9048H56.5948V57.0831Z" fill="#0404BF"/>
<path d="M56.5948 55.243H54.7547V57.0831H56.5948V55.243Z" fill="#0404BF"/>
<path d="M56.5948 53.4212H54.7547V55.243H56.5948V53.4212Z" fill="#0404BF"/>
<path d="M56.5948 51.5785H54.7547V53.4186H56.5948V51.5785Z" fill="black"/>
<path d="M56.5948 49.7567H54.7547V51.5785H56.5948V49.7567Z" fill="#9E9B98"/>
<path d="M56.5948 47.9166H54.7547V49.7567H56.5948V47.9166Z" fill="#D8D7D6"/>
<path d="M56.5948 46.0948H54.7547V47.9166H56.5948V46.0948Z" fill="#D8D7D6"/>
<path d="M56.5948 44.2547H54.7547V46.0948H56.5948V44.2547Z" fill="#D8D7D6"/>
<path d="M56.5948 42.4146H54.7547V44.2547H56.5948V42.4146Z" fill="#D8D7D6"/>
<path d="M56.5948 40.5928H54.7547V42.4146H56.5948V40.5928Z" fill="#D8D7D6"/>
<path d="M56.5948 38.7527H54.7547V40.5928H56.5948V38.7527Z" fill="#9E9B98"/>
<path d="M56.5948 36.931H54.7547V38.7527H56.5948V36.931Z" fill="#D8D7D6"/>
<path d="M56.5948 35.0908H54.7547V36.931H56.5948V35.0908Z" fill="#EFB589"/>
<path d="M56.5948 33.2691H54.7547V35.0908H56.5948V33.2691Z" fill="black"/>
<path d="M56.5948 31.429H54.7547V33.2691H56.5948V31.429Z" fill="#0404BF"/>
<path d="M56.5948 29.5888H54.7547V31.429H56.5948V29.5888Z" fill="#0404BF"/>
<path d="M56.5948 27.7671H54.7547V29.5888H56.5948V27.7671Z" fill="#0404BF"/>
<path d="M56.5948 25.9243H54.7547V27.7645H56.5948V25.9243Z" fill="#030384"/>
<path d="M56.5948 24.1026H54.7547V25.9243H56.5948V24.1026Z" fill="#030384"/>
<path d="M56.5948 22.2625H54.7547V24.1026H56.5948V22.2625Z" fill="black"/>
<path d="M54.7547 82.7346H52.9146V84.559H54.7547V82.7346Z" fill="#0404BF"/>
<path d="M54.7547 80.8971H52.9146V82.7346H54.7547V80.8971Z" fill="#0404BF"/>
<path d="M54.7547 79.0753H52.9146V80.8971H54.7547V79.0753Z" fill="#0404BF"/>
<path d="M54.7547 77.2326H52.9146V79.0727H54.7547V77.2326Z" fill="#0404BF"/>
<path d="M54.7547 75.4108H52.9146V77.2326H54.7547V75.4108Z" fill="#0404BF"/>
<path d="M54.7547 73.5707H52.9146V75.4108H54.7547V73.5707Z" fill="#0404BF"/>
<path d="M54.7547 71.7332H52.9146V73.5707H54.7547V71.7332Z" fill="#0404BF"/>
<path d="M54.7547 69.9062H52.9146V71.7306H54.7547V69.9062Z" fill="#0404BF"/>
<path d="M54.7547 68.0713H52.9146V69.9088H54.7547V68.0713Z" fill="#0404BF"/>
<path d="M54.7547 66.247H52.9146V68.0687H54.7547V66.247Z" fill="#0404BF"/>
<path d="M54.7547 64.4068H52.9146V66.247H54.7547V64.4068Z" fill="#0404BF"/>
<path d="M54.7547 62.5851H52.9146V64.4068H54.7547V62.5851Z" fill="#0404BF"/>
<path d="M54.7547 60.745H52.9146V62.5851H54.7547V60.745Z" fill="#F9C126"/>
<path d="M54.7547 58.9048H52.9146V60.7423H54.7547V58.9048Z" fill="#0404BF"/>
<path d="M54.7547 57.0831H52.9146V58.9048H54.7547V57.0831Z" fill="#0404BF"/>
<path d="M54.7547 55.243H52.9146V57.0831H54.7547V55.243Z" fill="#0404BF"/>
<path d="M54.7547 53.4212H52.9146V55.243H54.7547V53.4212Z" fill="#0404BF"/>
<path d="M54.7547 51.5785H52.9146V53.4186H54.7547V51.5785Z" fill="#0404BF"/>
<path d="M54.7547 49.7567H52.9146V51.5785H54.7547V49.7567Z" fill="black"/>
<path d="M54.7547 47.9166H52.9146V49.7567H54.7547V47.9166Z" fill="#D8D7D6"/>
<path d="M54.7547 46.0948H52.9146V47.9166H54.7547V46.0948Z" fill="#D8D7D6"/>
<path d="M54.7547 44.2547H52.9146V46.0948H54.7547V44.2547Z" fill="#D8D7D6"/>
<path d="M54.7547 42.4146H52.9146V44.2547H54.7547V42.4146Z" fill="#D8D7D6"/>
<path d="M54.7547 40.5928H52.9146V42.4146H54.7547V40.5928Z" fill="#D8D7D6"/>
<path d="M54.7547 38.7527H52.9146V40.5928H54.7547V38.7527Z" fill="#9E9B98"/>
<path d="M54.7547 36.931H52.9146V38.7527H54.7547V36.931Z" fill="#D8D7D6"/>
<path d="M54.7547 35.0908H52.9146V36.931H54.7547V35.0908Z" fill="#EFB589"/>
<path d="M54.7547 33.2691H52.9146V35.0908H54.7547V33.2691Z" fill="black"/>
<path d="M54.7547 31.429H52.9146V33.2691H54.7547V31.429Z" fill="#0404BF"/>
<path d="M54.7547 29.5888H52.9146V31.429H54.7547V29.5888Z" fill="#0404BF"/>
<path d="M54.7547 27.7671H52.9146V29.5888H54.7547V27.7671Z" fill="#0404BF"/>
<path d="M54.7547 25.9243H52.9146V27.7645H54.7547V25.9243Z" fill="#0404BF"/>
<path d="M54.7547 24.1026H52.9146V25.9243H54.7547V24.1026Z" fill="black"/>
<path d="M52.9146 82.7346H51.0928V84.559H52.9146V82.7346Z" fill="#0404BF"/>
<path d="M52.9146 80.8971H51.0928V82.7346H52.9146V80.8971Z" fill="#0404BF"/>
<path d="M52.9146 79.0753H51.0928V80.8971H52.9146V79.0753Z" fill="#0404BF"/>
<path d="M52.9146 77.2326H51.0928V79.0727H52.9146V77.2326Z" fill="#0404BF"/>
<path d="M52.9146 75.4108H51.0928V77.2326H52.9146V75.4108Z" fill="#0404BF"/>
<path d="M52.9146 73.5707H51.0928V75.4108H52.9146V73.5707Z" fill="#0404BF"/>
<path d="M52.9146 71.7332H51.0928V73.5707H52.9146V71.7332Z" fill="#0404BF"/>
<path d="M52.9146 69.9062H51.0928V71.7306H52.9146V69.9062Z" fill="#0404BF"/>
<path d="M52.9146 68.0713H51.0928V69.9088H52.9146V68.0713Z" fill="#0404BF"/>
<path d="M52.9146 66.247H51.0928V68.0687H52.9146V66.247Z" fill="#0404BF"/>
<path d="M52.9146 64.4068H51.0928V66.247H52.9146V64.4068Z" fill="#0404BF"/>
<path d="M52.9146 62.5851H51.0928V64.4068H52.9146V62.5851Z" fill="#0404BF"/>
<path d="M52.9146 60.745H51.0928V62.5851H52.9146V60.745Z" fill="#F9C126"/>
<path d="M52.9146 58.9048H51.0928V60.7423H52.9146V58.9048Z" fill="#0404BF"/>
<path d="M52.9146 57.0831H51.0928V58.9048H52.9146V57.0831Z" fill="#0404BF"/>
<path d="M52.9146 55.243H51.0928V57.0831H52.9146V55.243Z" fill="#0404BF"/>
<path d="M52.9146 53.4212H51.0928V55.243H52.9146V53.4212Z" fill="#0404BF"/>
<path d="M52.9146 51.5785H51.0928V53.4186H52.9146V51.5785Z" fill="#0404BF"/>
<path d="M52.9146 49.7567H51.0928V51.5785H52.9146V49.7567Z" fill="#0404BF"/>
<path d="M52.9146 47.9166H51.0928V49.7567H52.9146V47.9166Z" fill="black"/>
<path d="M52.9146 46.0948H51.0928V47.9166H52.9146V46.0948Z" fill="#D8D7D6"/>
<path d="M52.9146 44.2547H51.0928V46.0948H52.9146V44.2547Z" fill="#D8D7D6"/>
<path d="M52.9146 42.4146H51.0928V44.2547H52.9146V42.4146Z" fill="#D8D7D6"/>
<path d="M52.9146 40.5928H51.0928V42.4146H52.9146V40.5928Z" fill="#D8D7D6"/>
<path d="M52.9146 38.7527H51.0928V40.5928H52.9146V38.7527Z" fill="#9E9B98"/>
<path d="M52.9146 36.931H51.0928V38.7527H52.9146V36.931Z" fill="#D8D7D6"/>
<path d="M52.9146 35.0908H51.0928V36.931H52.9146V35.0908Z" fill="#EFB589"/>
<path d="M52.9146 33.2691H51.0928V35.0908H52.9146V33.2691Z" fill="black"/>
<path d="M52.9146 31.429H51.0928V33.2691H52.9146V31.429Z" fill="#0404BF"/>
<path d="M52.9146 29.5888H51.0928V31.429H52.9146V29.5888Z" fill="#0404BF"/>
<path d="M52.9146 27.7671H51.0928V29.5888H52.9146V27.7671Z" fill="black"/>
<path d="M52.9146 25.9243H51.0928V27.7645H52.9146V25.9243Z" fill="black"/>
<path d="M51.0928 82.7346H49.2527V84.559H51.0928V82.7346Z" fill="#0404BF"/>
<path d="M51.0928 80.8971H49.2527V82.7346H51.0928V80.8971Z" fill="#0404BF"/>
<path d="M51.0928 79.0753H49.2527V80.8971H51.0928V79.0753Z" fill="#0404BF"/>
<path d="M51.0928 77.2326H49.2527V79.0727H51.0928V77.2326Z" fill="#0404BF"/>
<path d="M51.0928 75.4108H49.2527V77.2326H51.0928V75.4108Z" fill="#0404BF"/>
<path d="M51.0928 73.5707H49.2527V75.4108H51.0928V73.5707Z" fill="#0404BF"/>
<path d="M51.0928 71.7332H49.2527V73.5707H51.0928V71.7332Z" fill="#0404BF"/>
<path d="M51.0928 69.9062H49.2527V71.7306H51.0928V69.9062Z" fill="#0404BF"/>
<path d="M51.0928 68.0713H49.2527V69.9088H51.0928V68.0713Z" fill="#0404BF"/>
<path d="M51.0928 66.247H49.2527V68.0687H51.0928V66.247Z" fill="#030384"/>
<path d="M51.0928 64.4068H49.2527V66.247H51.0928V64.4068Z" fill="black"/>
<path d="M51.0928 62.5851H49.2527V64.4068H51.0928V62.5851Z" fill="black"/>
<path d="M51.0928 60.745H49.2527V62.5851H51.0928V60.745Z" fill="black"/>
<path d="M51.0928 58.9048H49.2527V60.7423H51.0928V58.9048Z" fill="black"/>
<path d="M51.0928 57.0831H49.2527V58.9048H51.0928V57.0831Z" fill="black"/>
<path d="M51.0928 55.243H49.2527V57.0831H51.0928V55.243Z" fill="black"/>
<path d="M51.0928 53.4212H49.2527V55.243H51.0928V53.4212Z" fill="black"/>
<path d="M51.0928 51.5785H49.2527V53.4186H51.0928V51.5785Z" fill="black"/>
<path d="M51.0928 49.7567H49.2527V51.5785H51.0928V49.7567Z" fill="black"/>
<path d="M51.0928 47.9166H49.2527V49.7567H51.0928V47.9166Z" fill="black"/>
<path d="M51.0928 46.0948H49.2527V47.9166H51.0928V46.0948Z" fill="black"/>
<path d="M51.0928 44.2547H49.2527V46.0948H51.0928V44.2547Z" fill="#9E9B98"/>
<path d="M51.0928 42.4146H49.2527V44.2547H51.0928V42.4146Z" fill="#9E9B98"/>
<path d="M51.0928 40.5928H49.2527V42.4146H51.0928V40.5928Z" fill="black"/>
<path d="M51.0928 38.7527H49.2527V40.5928H51.0928V38.7527Z" fill="black"/>
<path d="M51.0928 36.931H49.2527V38.7527H51.0928V36.931Z" fill="black"/>
<path d="M51.0928 35.0908H49.2527V36.931H51.0928V35.0908Z" fill="black"/>
<path d="M51.0928 33.2691H49.2527V35.0908H51.0928V33.2691Z" fill="#030384"/>
<path d="M51.0928 31.429H49.2527V33.2691H51.0928V31.429Z" fill="#0404BF"/>
<path d="M51.0928 29.5888H49.2527V31.429H51.0928V29.5888Z" fill="#0404BF"/>
<path d="M51.0928 27.7671H49.2527V29.5888H51.0928V27.7671Z" fill="black"/>
<path d="M49.2527 82.7346H47.4309V84.559H49.2527V82.7346Z" fill="black"/>
<path d="M49.2527 80.8971H47.4309V82.7346H49.2527V80.8971Z" fill="black"/>
<path d="M49.2527 79.0753H47.4309V80.8971H49.2527V79.0753Z" fill="black"/>
<path d="M49.2527 77.2326H47.4309V79.0727H49.2527V77.2326Z" fill="black"/>
<path d="M49.2527 75.4108H47.4309V77.2326H49.2527V75.4108Z" fill="black"/>
<path d="M49.2527 73.5707H47.4309V75.4108H49.2527V73.5707Z" fill="black"/>
<path d="M49.2527 71.7332H47.4309V73.5707H49.2527V71.7332Z" fill="black"/>
<path d="M49.2527 69.9062H47.4309V71.7306H49.2527V69.9062Z" fill="black"/>
<path d="M49.2527 68.0713H47.4309V69.9088H49.2527V68.0713Z" fill="black"/>
<path d="M49.2527 66.247H47.4309V68.0687H49.2527V66.247Z" fill="black"/>
<path d="M49.2527 57.0831H47.4309V58.9048H49.2527V57.0831Z" fill="black"/>
<path d="M49.2527 55.243H47.4309V57.0831H49.2527V55.243Z" fill="#030384"/>
<path d="M49.2527 53.4212H47.4309V55.243H49.2527V53.4212Z" fill="#030384"/>
<path d="M49.2527 51.5785H47.4309V53.4186H49.2527V51.5785Z" fill="#030384"/>
<path d="M49.2527 49.7567H47.4309V51.5785H49.2527V49.7567Z" fill="black"/>
<path d="M49.2527 44.2547H47.4309V46.0948H49.2527V44.2547Z" fill="black"/>
<path d="M49.2527 42.4146H47.4309V44.2547H49.2527V42.4146Z" fill="black"/>
<path d="M49.2527 35.0908H47.4309V36.931H49.2527V35.0908Z" fill="black"/>
<path d="M49.2527 33.2691H47.4309V35.0908H49.2527V33.2691Z" fill="#030384"/>
<path d="M49.2527 31.429H47.4309V33.2691H49.2527V31.429Z" fill="#0404BF"/>
<path d="M49.2527 29.5888H47.4309V31.429H49.2527V29.5888Z" fill="black"/>
<path d="M47.4309 57.0831H45.5908V58.9048H47.4309V57.0831Z" fill="black"/>
<path d="M47.4309 55.243H45.5908V57.0831H47.4309V55.243Z" fill="#030384"/>
<path d="M47.4309 53.4212H45.5908V55.243H47.4309V53.4212Z" fill="#030384"/>
<path d="M47.4309 51.5785H45.5908V53.4186H47.4309V51.5785Z" fill="#030384"/>
<path d="M47.4309 49.7567H45.5908V51.5785H47.4309V49.7567Z" fill="black"/>
<path d="M47.4309 35.0908H45.5908V36.931H47.4309V35.0908Z" fill="black"/>
<path d="M47.4309 33.2691H45.5908V35.0908H47.4309V33.2691Z" fill="#030384"/>
<path d="M47.4309 31.429H45.5908V33.2691H47.4309V31.429Z" fill="black"/>
<path d="M45.5908 57.0831H43.7691V58.9048H45.5908V57.0831Z" fill="black"/>
<path d="M45.5908 55.243H43.7691V57.0831H45.5908V55.243Z" fill="#030384"/>
<path d="M45.5908 53.4212H43.7691V55.243H45.5908V53.4212Z" fill="#030384"/>
<path d="M45.5908 51.5785H43.7691V53.4186H45.5908V51.5785Z" fill="#030384"/>
<path d="M45.5908 49.7567H43.7691V51.5785H45.5908V49.7567Z" fill="black"/>
<path d="M45.5908 38.7527H43.7691V40.5928H45.5908V38.7527Z" fill="black"/>
<path d="M45.5908 36.931H43.7691V38.7527H45.5908V36.931Z" fill="black"/>
<path d="M45.5908 35.0908H43.7691V36.931H45.5908V35.0908Z" fill="black"/>
<path d="M45.5908 33.2691H43.7691V35.0908H45.5908V33.2691Z" fill="#030384"/>
<path d="M45.5908 31.429H43.7691V33.2691H45.5908V31.429Z" fill="black"/>
<path d="M43.7691 57.0831H41.9289V58.9048H43.7691V57.0831Z" fill="black"/>
<path d="M43.7691 55.243H41.9289V57.0831H43.7691V55.243Z" fill="black"/>
<path d="M43.7691 53.4212H41.9289V55.243H43.7691V53.4212Z" fill="black"/>
<path d="M43.7691 51.5785H41.9289V53.4186H43.7691V51.5785Z" fill="black"/>
<path d="M43.7691 49.7567H41.9289V51.5785H43.7691V49.7567Z" fill="black"/>
<path d="M43.7691 40.5928H41.9289V42.4146H43.7691V40.5928Z" fill="black"/>
<path d="M43.7691 38.7527H41.9289V40.5928H43.7691V38.7527Z" fill="#FCB029"/>
<path d="M43.7691 36.931H41.9289V38.7527H43.7691V36.931Z" fill="#FCB029"/>
<path d="M43.7691 35.0908H41.9289V36.931H43.7691V35.0908Z" fill="black"/>
<path d="M43.7691 33.2691H41.9289V35.0908H43.7691V33.2691Z" fill="black"/>
<path d="M43.7691 31.429H41.9289V33.2691H43.7691V31.429Z" fill="black"/>
<path d="M41.9289 55.243H40.0888V57.0831H41.9289V55.243Z" fill="black"/>
<path d="M41.9289 53.4212H40.0888V55.243H41.9289V53.4212Z" fill="black"/>
<path d="M41.9289 51.5785H40.0888V53.4186H41.9289V51.5785Z" fill="black"/>
<path d="M41.9289 49.7567H40.0888V51.5785H41.9289V49.7567Z" fill="#EDB58C"/>
<path d="M41.9289 47.9166H40.0888V49.7567H41.9289V47.9166Z" fill="black"/>
<path d="M41.9289 42.4146H40.0888V44.2547H41.9289V42.4146Z" fill="black"/>
<path d="M41.9289 40.5928H40.0888V42.4146H41.9289V40.5928Z" fill="#FCB029"/>
<path d="M41.9289 38.7527H40.0888V40.5928H41.9289V38.7527Z" fill="#FCB029"/>
<path d="M41.9289 36.931H40.0888V38.7527H41.9289V36.931Z" fill="#2BE1F9"/>
<path d="M41.9289 35.0908H40.0888V36.931H41.9289V35.0908Z" fill="#2BE1F9"/>
<path d="M41.9289 33.2691H40.0888V35.0908H41.9289V33.2691Z" fill="#2BE1F9"/>
<path d="M40.0888 80.8971H38.2671V82.7346H40.0888V80.8971Z" fill="black"/>
<path d="M40.0888 79.0753H38.2671V80.8971H40.0888V79.0753Z" fill="black"/>
<path d="M40.0888 77.2326H38.2671V79.0727H40.0888V77.2326Z" fill="black"/>
<path d="M40.0888 75.4108H38.2671V77.2326H40.0888V75.4108Z" fill="black"/>
<path d="M40.0888 73.5707H38.2671V75.4108H40.0888V73.5707Z" fill="black"/>
<path d="M40.0888 71.7332H38.2671V73.5707H40.0888V71.7332Z" fill="black"/>
<path d="M40.0888 69.9062H38.2671V71.7306H40.0888V69.9062Z" fill="black"/>
<path d="M40.0888 68.0713H38.2671V69.9088H40.0888V68.0713Z" fill="black"/>
<path d="M40.0888 66.247H38.2671V68.0687H40.0888V66.247Z" fill="black"/>
<path d="M40.0888 64.4068H38.2671V66.247H40.0888V64.4068Z" fill="black"/>
<path d="M40.0888 62.5851H38.2671V64.4068H40.0888V62.5851Z" fill="black"/>
<path d="M40.0888 60.745H38.2671V62.5851H40.0888V60.745Z" fill="black"/>
<path d="M40.0888 58.9048H38.2671V60.7423H40.0888V58.9048Z" fill="black"/>
<path d="M40.0888 57.0831H38.2671V58.9048H40.0888V57.0831Z" fill="black"/>
<path d="M40.0888 55.243H38.2671V57.0831H40.0888V55.243Z" fill="black"/>
<path d="M40.0888 53.4212H38.2671V55.243H40.0888V53.4212Z" fill="black"/>
<path d="M40.0888 51.5785H38.2671V53.4186H40.0888V51.5785Z" fill="#EDB58C"/>
<path d="M40.0888 49.7567H38.2671V51.5785H40.0888V49.7567Z" fill="#EDB58C"/>
<path d="M40.0888 47.9166H38.2671V49.7567H40.0888V47.9166Z" fill="black"/>
<path d="M40.0888 46.0948H38.2671V47.9166H40.0888V46.0948Z" fill="black"/>
<path d="M40.0888 44.2547H38.2671V46.0948H40.0888V44.2547Z" fill="black"/>
<path d="M40.0888 42.4146H38.2671V44.2547H40.0888V42.4146Z" fill="black"/>
<path d="M40.0888 40.5928H38.2671V42.4146H40.0888V40.5928Z" fill="black"/>
<path d="M40.0888 38.7527H38.2671V40.5928H40.0888V38.7527Z" fill="#2BE1F9"/>
<path d="M40.0888 36.931H38.2671V38.7527H40.0888V36.931Z" fill="#2BE1F9"/>
<path d="M40.0888 35.0908H38.2671V36.931H40.0888V35.0908Z" fill="#2BE1F9"/>
<path d="M40.0888 33.2691H38.2671V35.0908H40.0888V33.2691Z" fill="#2BE1F9"/>
<path d="M40.0888 31.429H38.2671V33.2691H40.0888V31.429Z" fill="#2BE1F9"/>
<path d="M38.2644 82.7346H36.4243V84.559H38.2644V82.7346Z" fill="black"/>
<path d="M38.2644 80.8971H36.4243V82.7346H38.2644V80.8971Z" fill="#823D27"/>
<path d="M38.2644 79.0753H36.4243V80.8971H38.2644V79.0753Z" fill="#823D27"/>
<path d="M38.2644 77.2326H36.4243V79.0727H38.2644V77.2326Z" fill="#823D27"/>
<path d="M38.2644 75.4108H36.4243V77.2326H38.2644V75.4108Z" fill="#823D27"/>
<path d="M38.2644 73.5707H36.4243V75.4108H38.2644V73.5707Z" fill="#823D27"/>
<path d="M38.2644 71.7332H36.4243V73.5707H38.2644V71.7332Z" fill="#823D27"/>
<path d="M38.2644 69.9062H36.4243V71.7306H38.2644V69.9062Z" fill="#823D27"/>
<path d="M38.2644 68.0713H36.4243V69.9088H38.2644V68.0713Z" fill="#823D27"/>
<path d="M38.2644 66.247H36.4243V68.0687H38.2644V66.247Z" fill="#823D27"/>
<path d="M38.2644 64.4068H36.4243V66.247H38.2644V64.4068Z" fill="#823D27"/>
<path d="M38.2644 62.5851H36.4243V64.4068H38.2644V62.5851Z" fill="#823D27"/>
<path d="M38.2644 60.745H36.4243V62.5851H38.2644V60.745Z" fill="#823D27"/>
<path d="M38.2644 58.9048H36.4243V60.7423H38.2644V58.9048Z" fill="#823D27"/>
<path d="M38.2644 57.0831H36.4243V58.9048H38.2644V57.0831Z" fill="#823D27"/>
<path d="M38.2644 55.243H36.4243V57.0831H38.2644V55.243Z" fill="#823D27"/>
<path d="M38.2644 53.4212H36.4243V55.243H38.2644V53.4212Z" fill="#823D27"/>
<path d="M38.2644 51.5785H36.4243V53.4186H38.2644V51.5785Z" fill="black"/>
<path d="M38.2644 49.7567H36.4243V51.5785H38.2644V49.7567Z" fill="#823D27"/>
<path d="M38.2644 47.9166H36.4243V49.7567H38.2644V47.9166Z" fill="black"/>
<path d="M38.2644 46.0948H36.4243V47.9166H38.2644V46.0948Z" fill="#823D27"/>
<path d="M38.2644 44.2547H36.4243V46.0948H38.2644V44.2547Z" fill="#823D27"/>
<path d="M38.2644 42.4146H36.4243V44.2547H38.2644V42.4146Z" fill="#823D27"/>
<path d="M38.2644 40.5928H36.4243V42.4146H38.2644V40.5928Z" fill="#FCB029"/>
<path d="M38.2644 38.7527H36.4243V40.5928H38.2644V38.7527Z" fill="#FCB029"/>
<path d="M38.2644 36.931H36.4243V38.7527H38.2644V36.931Z" fill="#FCB029"/>
<path d="M38.2644 35.0908H36.4243V36.931H38.2644V35.0908Z" fill="#2BE1F9"/>
<path d="M38.2644 33.2691H36.4243V35.0908H38.2644V33.2691Z" fill="#2BE1F9"/>
<path d="M38.2644 31.429H36.4243V33.2691H38.2644V31.429Z" fill="#2BE1F9"/>
<path d="M38.2644 29.5888H36.4243V31.429H38.2644V29.5888Z" fill="#2BE1F9"/>
<path d="M36.4243 80.8971H34.6026V82.7346H36.4243V80.8971Z" fill="black"/>
<path d="M36.4243 79.0753H34.6026V80.8971H36.4243V79.0753Z" fill="black"/>
<path d="M36.4243 77.2326H34.6026V79.0727H36.4243V77.2326Z" fill="black"/>
<path d="M36.4243 75.4108H34.6026V77.2326H36.4243V75.4108Z" fill="black"/>
<path d="M36.4243 73.5707H34.6026V75.4108H36.4243V73.5707Z" fill="black"/>
<path d="M36.4243 71.7332H34.6026V73.5707H36.4243V71.7332Z" fill="black"/>
<path d="M36.4243 69.9062H34.6026V71.7306H36.4243V69.9062Z" fill="black"/>
<path d="M36.4243 68.0713H34.6026V69.9088H36.4243V68.0713Z" fill="black"/>
<path d="M36.4243 66.247H34.6026V68.0687H36.4243V66.247Z" fill="black"/>
<path d="M36.4243 64.4068H34.6026V66.247H36.4243V64.4068Z" fill="black"/>
<path d="M36.4243 62.5851H34.6026V64.4068H36.4243V62.5851Z" fill="black"/>
<path d="M36.4243 60.745H34.6026V62.5851H36.4243V60.745Z" fill="black"/>
<path d="M36.4243 58.9048H34.6026V60.7423H36.4243V58.9048Z" fill="black"/>
<path d="M36.4243 57.0831H34.6026V58.9048H36.4243V57.0831Z" fill="black"/>
<path d="M36.4243 55.243H34.6026V57.0831H36.4243V55.243Z" fill="black"/>
<path d="M36.4243 53.4212H34.6026V55.243H36.4243V53.4212Z" fill="#EDB58C"/>
<path d="M36.4243 51.5785H34.6026V53.4186H36.4243V51.5785Z" fill="#823D27"/>
<path d="M36.4243 49.7567H34.6026V51.5785H36.4243V49.7567Z" fill="#EDB58C"/>
<path d="M36.4243 47.9166H34.6026V49.7567H36.4243V47.9166Z" fill="black"/>
<path d="M36.4243 46.0948H34.6026V47.9166H36.4243V46.0948Z" fill="black"/>
<path d="M36.4243 44.2547H34.6026V46.0948H36.4243V44.2547Z" fill="black"/>
<path d="M36.4243 42.4146H34.6026V44.2547H36.4243V42.4146Z" fill="black"/>
<path d="M36.4243 40.5928H34.6026V42.4146H36.4243V40.5928Z" fill="#2BE1F9"/>
<path d="M36.4243 38.7527H34.6026V40.5928H36.4243V38.7527Z" fill="#2BE1F9"/>
<path d="M36.4243 36.931H34.6026V38.7527H36.4243V36.931Z" fill="#2BE1F9"/>
<path d="M36.4243 35.0908H34.6026V36.931H36.4243V35.0908Z" fill="#2BE1F9"/>
<path d="M36.4243 33.2691H34.6026V35.0908H36.4243V33.2691Z" fill="#2BE1F9"/>
<path d="M36.4243 31.429H34.6026V33.2691H36.4243V31.429Z" fill="#2BE1F9"/>
<path d="M36.4243 29.5888H34.6026V31.429H36.4243V29.5888Z" fill="#2BE1F9"/>
<path d="M34.6026 55.243H32.7624V57.0831H34.6026V55.243Z" fill="black"/>
<path d="M34.6026 53.4212H32.7624V55.243H34.6026V53.4212Z" fill="black"/>
<path d="M34.6026 51.5785H32.7624V53.4186H34.6026V51.5785Z" fill="black"/>
<path d="M34.6026 49.7567H32.7624V51.5785H34.6026V49.7567Z" fill="black"/>
<path d="M34.6026 47.9166H32.7624V49.7567H34.6026V47.9166Z" fill="black"/>
<path d="M34.6026 42.4146H32.7624V44.2547H34.6026V42.4146Z" fill="black"/>
<path d="M34.6026 40.5928H32.7624V42.4146H34.6026V40.5928Z" fill="#FCB029"/>
<path d="M34.6026 38.7527H32.7624V40.5928H34.6026V38.7527Z" fill="#2BE1F9"/>
<path d="M34.6026 36.931H32.7624V38.7527H34.6026V36.931Z" fill="#2BE1F9"/>
<path d="M34.6026 35.0908H32.7624V36.931H34.6026V35.0908Z" fill="#2BE1F9"/>
<path d="M34.6026 33.2691H32.7624V35.0908H34.6026V33.2691Z" fill="#2BE1F9"/>
<path d="M34.6026 31.429H32.7624V33.2691H34.6026V31.429Z" fill="#2BE1F9"/>
<path d="M32.7624 42.4146H30.9407V44.2547H32.7624V42.4146Z" fill="black"/>
<path d="M32.7624 40.5928H30.9407V42.4146H32.7624V40.5928Z" fill="#FCB029"/>
<path d="M32.7624 38.7527H30.9407V40.5928H32.7624V38.7527Z" fill="#FCB029"/>
<path d="M32.7624 36.931H30.9407V38.7527H32.7624V36.931Z" fill="#2BE1F9"/>
<path d="M32.7624 35.0908H30.9407V36.931H32.7624V35.0908Z" fill="#2BE1F9"/>
<path d="M32.7624 33.2691H30.9407V35.0908H32.7624V33.2691Z" fill="#2BE1F9"/>
<path d="M30.9407 40.5928H29.1006V42.4146H30.9407V40.5928Z" fill="black"/>
<path d="M30.9407 38.7527H29.1006V40.5928H30.9407V38.7527Z" fill="#FCB029"/>
<path d="M30.9407 36.931H29.1006V38.7527H30.9407V36.931Z" fill="#FCB029"/>
<path d="M29.1006 38.7527H27.2788V40.5928H29.1006V38.7527Z" fill="black"/>
<path d="M29.1006 36.931H27.2788V38.7527H29.1006V36.931Z" fill="black"/>
</svg>
